M48
;Layer_Color=9474304
;FILE_FORMAT=4:4
METRIC,TZ
;TYPE=PLATED
T1F00S00C0.2032
T2F00S00C0.2540
%
T01
X1564580Y81054
X1569500Y83848
X1579820Y84864
Y341864
X1569500Y340848
X1564580Y338054
Y595054
X1569500Y597848
X1579820Y598864
T02
X1573724Y88928
X1446174Y169954
X1414720Y165382
X1395670Y169954
X1365188Y164795
X1346934Y170129
X1340226Y421795
X1370708Y426954
X1414720Y422382
X1446174Y426954
X1573724Y345928
X1296934Y427129
X1265480Y422557
X1221430Y427129
X1190226Y421795
X1146961Y426367
X1115253Y421795
X1071430Y426367
X1040226Y421795
X996934Y426367
X965226Y421795
X965227Y164795
X946935Y169367
X996431
X1015227Y164795
X1046935Y169367
X1065226Y164795
X1096430Y169367
X1115226Y164795
X1146934Y169367
X1165226Y164795
X1196430Y169367
X1215226Y164795
X1246934Y169367
X1265226Y164795
X1296430Y170129
X1315480Y165557
X915227Y164795
X896431Y169367
X865227Y164795
X846935Y169368
X815227Y164795
X796431Y169368
X765241Y164795
X746910Y169367
X715202Y164795
X696406Y169367
X665227Y164795
X646934Y169367
X615226Y164795
X596430Y169367
X565227Y164795
X546934Y169367
Y426367
X590227Y421795
X621431Y426367
X665226Y421795
X696934Y426367
X740227Y421795
X771431Y426367
X815226Y421795
X846934Y426367
X890226Y421795
X921430Y426367
X515226Y421795
X471416Y426367
X440226Y421795
X396934Y426367
X365226Y421795
X321406Y426367
X290226Y421795
X246934Y426367
X215226Y421795
X171430Y426367
X165226Y164795
X146934Y169367
X196430
X215226Y164795
X246934Y169367
X265226Y164795
X296430Y169367
X315226Y164795
X346934Y169367
X365226Y164795
X396430Y169367
X415226Y164795
X446934Y169367
X465226Y164795
X496430Y169367
X515226Y164795
X115226
X96430Y169367
X65226Y164795
X46431Y169368
X11370Y182000
X65227Y421795
X96935Y426367
X140226Y421795
X122517Y678796
X53706Y683367
X22516Y678795
X153707Y683368
X222516Y678795
X254224Y683367
X322517Y678796
X353721Y683368
X422517Y678796
X454225Y683368
X522517Y678795
X553721Y683367
X622517Y678795
X654224Y683367
X722517Y678795
X753721Y683367
X822517Y678795
X854225Y683367
X922517Y678795
X953721Y683367
X1022517Y678795
X1054225Y683367
X1122516Y678795
X1153720Y684129
X1222770Y679557
X1254224Y684129
X1322517Y678795
X1352998Y683954
X1422010Y679382
X1453464Y683954
X1573724Y602928
M30
