M48
;Layer_Color=9474304
;FILE_FORMAT=4:4
METRIC,TZ
;TYPE=PLATED
T1F00S00C0.2032
T2F00S00C0.2540
%
T01
X-200072Y277832
X-193797Y309582
X-187198Y325527
X-171958Y330200
X-160274Y338074
X-146450Y316481
X-141626Y313436
X-136626Y308353
X-128726Y293004
X-139126Y282604
X-149526Y293004
Y272204
X-151626Y257045
X-164738Y262967
X-128726Y272204
X-99060Y286258
X-99314Y292862
X-121537Y323850
X-169056Y308289
X-202831Y368300
X-222758Y387604
X-182118Y396240
X-62230Y261620
X5000Y122174
X10000Y127000
X20000Y126934
X30000
X40000
X50000
X60000
X55000Y121920
X45000
X35000
X25000
X15000
X-134643Y410881
X-142240Y426720
X-139700Y447294
X-133362Y442214
X-163830Y439674
X-146626Y491744
X-112776Y536956
X216916Y687324
X207732Y708914
X191770Y734634
X175514Y783082
X205006Y795020
X258318Y718086
X279654Y665988
X130048Y1046734
X120062Y1041146
X132456Y1078641
X130556Y1089532
X99822Y1098550
T02
X192786Y224536
X77978Y225806
X-62230Y217424
X-74168Y227076
X-67310Y234950
X-84328Y246888
X-118538Y249130
X-122174Y233426
X-129794Y227076
X-107442Y286004
X-172725Y283477
X-153670Y379730
X-199136Y415989
X-145034Y556514
X-97536Y512219
X-45466Y688594
X-10922Y664718
X6096Y794766
X49712Y794809
X199898Y749300
X327914Y518160
X381508Y546354
X132080Y1038098
X115950Y1059434
X106808Y1054436
M30
