G04*
G04 #@! TF.GenerationSoftware,Altium Limited,Altium Designer,19.0.12 (326)*
G04*
G04 Layer_Color=16711935*
%FSLAX44Y44*%
%MOMM*%
G71*
G01*
G75*
%ADD10C,0.2000*%
%ADD11C,0.2540*%
%ADD16C,0.1270*%
%ADD97C,0.5080*%
%ADD144C,0.0254*%
%ADD145C,0.5000*%
D10*
X2983540Y-424408D02*
Y-423694D01*
X2984254Y-422266D01*
X2984968Y-421551D01*
X2986396Y-420837D01*
X2989253D01*
X2990681Y-421551D01*
X2991396Y-422266D01*
X2992110Y-423694D01*
Y-425122D01*
X2991396Y-426550D01*
X2989967Y-428693D01*
X2982826Y-435834D01*
X2992824D01*
X2935540Y-424408D02*
Y-423694D01*
X2936254Y-422266D01*
X2936968Y-421551D01*
X2938397Y-420837D01*
X2941253D01*
X2942681Y-421551D01*
X2943396Y-422266D01*
X2944110Y-423694D01*
Y-425122D01*
X2943396Y-426550D01*
X2941967Y-428693D01*
X2934826Y-435834D01*
X2944824D01*
D11*
X1741315Y1475798D02*
X2894171D01*
X1741315Y1506278D02*
X2894171D01*
X1741315Y1140518D02*
Y1506278D01*
Y1140518D02*
X1845432D01*
X1741315Y1170998D02*
X1845432D01*
X1741315Y1201478D02*
X1845432D01*
X1741315Y1231958D02*
X1845432D01*
X1741315Y1262438D02*
X1845432D01*
X1741315Y1292918D02*
X1845432D01*
X1741315Y1323398D02*
X1845432D01*
X1741315Y1353878D02*
X1845432D01*
X1741315Y1384358D02*
X1845432D01*
X1741315Y1414838D02*
X1845432D01*
X1741315Y1445318D02*
X1845432D01*
Y1140518D02*
Y1506278D01*
Y1140518D02*
X2081588D01*
X1845432Y1170998D02*
X2081588D01*
X1845432Y1201478D02*
X2081588D01*
X1845432Y1231958D02*
X2081588D01*
X1845432Y1262438D02*
X2081588D01*
X1845432Y1292918D02*
X2081588D01*
X1845432Y1323398D02*
X2081588D01*
X1845432Y1353878D02*
X2081588D01*
X1845432Y1384358D02*
X2081588D01*
X1845432Y1414838D02*
X2081588D01*
X1845432Y1445318D02*
X2081588D01*
Y1140518D02*
Y1506278D01*
Y1140518D02*
X2299969D01*
X2081588Y1170998D02*
X2299969D01*
X2081588Y1201478D02*
X2299969D01*
X2081588Y1231958D02*
X2299969D01*
X2081588Y1262438D02*
X2299969D01*
X2081588Y1292918D02*
X2299969D01*
X2081588Y1323398D02*
X2299969D01*
X2081588Y1353878D02*
X2299969D01*
X2081588Y1384358D02*
X2299969D01*
X2081588Y1414838D02*
X2299969D01*
X2081588Y1445318D02*
X2299969D01*
Y1140518D02*
Y1506278D01*
Y1140518D02*
X2465027D01*
X2299969Y1170998D02*
X2465027D01*
X2299969Y1201478D02*
X2465027D01*
X2299969Y1231958D02*
X2465027D01*
X2299969Y1262438D02*
X2465027D01*
X2299969Y1292918D02*
X2465027D01*
X2299969Y1323398D02*
X2465027D01*
X2299969Y1353878D02*
X2465027D01*
X2299969Y1384358D02*
X2465027D01*
X2299969Y1414838D02*
X2465027D01*
X2299969Y1445318D02*
X2465027D01*
Y1140518D02*
Y1506278D01*
Y1140518D02*
X2609771D01*
X2465027Y1170998D02*
X2609771D01*
X2465027Y1201478D02*
X2609771D01*
X2465027Y1231958D02*
X2609771D01*
X2465027Y1262438D02*
X2609771D01*
X2465027Y1292918D02*
X2609771D01*
X2465027Y1323398D02*
X2609771D01*
X2465027Y1353878D02*
X2609771D01*
X2465027Y1384358D02*
X2609771D01*
X2465027Y1414838D02*
X2609771D01*
X2465027Y1445318D02*
X2609771D01*
Y1140518D02*
Y1506278D01*
Y1140518D02*
X2894171D01*
X2609771Y1170998D02*
X2894171D01*
X2609771Y1201478D02*
X2894171D01*
X2609771Y1231958D02*
X2894171D01*
X2609771Y1262438D02*
X2894171D01*
X2609771Y1292918D02*
X2894171D01*
X2609771Y1323398D02*
X2894171D01*
X2609771Y1353878D02*
X2894171D01*
X2609771Y1384358D02*
X2894171D01*
X2609771Y1414838D02*
X2894171D01*
X2609771Y1445318D02*
X2894171D01*
Y1140518D02*
Y1506278D01*
X1795475Y119983D02*
X2840010D01*
X2843560Y119983D01*
X2850599Y120910D01*
X2857457Y122747D01*
X2864016Y125464D01*
X2870165Y129014D01*
X2875797Y133336D01*
X2880818Y138356D01*
X2885140Y143989D01*
X2888690Y150138D01*
X2891407Y156697D01*
X2893244Y163555D01*
X2894171Y170594D01*
Y177694D01*
X2893244Y184733D02*
X2894171Y177694D01*
X2891407Y191590D02*
X2893244Y184733D01*
X2888690Y198150D02*
X2891407Y191590D01*
X2886915Y201224D02*
X2888690Y198150D01*
X2364647Y1105818D02*
X2886915Y201224D01*
X2362872Y1108892D02*
X2364647Y1105818D01*
X2358550Y1114525D02*
X2362872Y1108892D01*
X2353530Y1119545D02*
X2358550Y1114525D01*
X2347897Y1123867D02*
X2353530Y1119545D01*
X2341749Y1127417D02*
X2347897Y1123867D01*
X2335190Y1130134D02*
X2341749Y1127417D01*
X2328332Y1131972D02*
X2335190Y1130134D01*
X2321293Y1132898D02*
X2328332Y1131972D01*
X2314193Y1132898D02*
X2321293D01*
X2307154Y1131972D02*
X2314193Y1132898D01*
X2300296Y1130134D02*
X2307154Y1131972D01*
X2293737Y1127417D02*
X2300296Y1130134D01*
X2287588Y1123867D02*
X2293737Y1127417D01*
X2281956Y1119545D02*
X2287588Y1123867D01*
X2276935Y1114525D02*
X2281956Y1119545D01*
X2272613Y1108892D02*
X2276935Y1114525D01*
X2270838Y1105818D02*
X2272613Y1108892D01*
X1748571Y201224D02*
X2270838Y1105818D01*
X1746796Y198150D02*
X1748571Y201224D01*
X1744079Y191590D02*
X1746796Y198150D01*
X1742241Y184733D02*
X1744079Y191590D01*
X1741315Y177694D02*
X1742241Y184733D01*
X1741315Y170594D02*
Y177694D01*
Y170594D02*
X1742241Y163555D01*
X1744079Y156697D01*
X1746796Y150138D01*
X1750346Y143989D01*
X1754668Y138356D01*
X1759688Y133336D01*
X1765321Y129014D01*
X1771469Y125464D01*
X1778029Y122747D01*
X1784886Y120910D01*
X1791925Y119983D01*
X1795475Y119983D01*
X-511302Y1689475D02*
Y1673605D01*
X-508128Y1670432D01*
X-501780D01*
X-498606Y1673605D01*
Y1689475D01*
X-492258Y1670432D02*
Y1689475D01*
X-479562Y1670432D01*
Y1689475D01*
X-473214D02*
Y1670432D01*
X-460518D01*
X-441475Y1689475D02*
X-454170D01*
Y1670432D01*
X-441475D01*
X-454170Y1679953D02*
X-447822D01*
X-422431Y1686301D02*
X-425605Y1689475D01*
X-431953D01*
X-435127Y1686301D01*
Y1683127D01*
X-431953Y1679953D01*
X-425605D01*
X-422431Y1676779D01*
Y1673605D01*
X-425605Y1670432D01*
X-431953D01*
X-435127Y1673605D01*
X-403387Y1686301D02*
X-406561Y1689475D01*
X-412909D01*
X-416083Y1686301D01*
Y1683127D01*
X-412909Y1679953D01*
X-406561D01*
X-403387Y1676779D01*
Y1673605D01*
X-406561Y1670432D01*
X-412909D01*
X-416083Y1673605D01*
X-368473Y1689475D02*
X-374821D01*
X-377995Y1686301D01*
Y1673605D01*
X-374821Y1670432D01*
X-368473D01*
X-365299Y1673605D01*
Y1686301D01*
X-368473Y1689475D01*
X-358951D02*
X-346255D01*
X-352603D01*
Y1670432D01*
X-339907Y1689475D02*
Y1670432D01*
Y1679953D01*
X-327211D01*
Y1689475D01*
Y1670432D01*
X-308168Y1689475D02*
X-320863D01*
Y1670432D01*
X-308168D01*
X-320863Y1679953D02*
X-314515D01*
X-301820Y1670432D02*
Y1689475D01*
X-292298D01*
X-289124Y1686301D01*
Y1679953D01*
X-292298Y1676779D01*
X-301820D01*
X-295472D02*
X-289124Y1670432D01*
X-282776Y1689475D02*
Y1670432D01*
X-276428Y1676779D01*
X-270080Y1670432D01*
Y1689475D01*
X-263732D02*
X-257384D01*
X-260558D01*
Y1670432D01*
X-263732D01*
X-257384D01*
X-235166Y1686301D02*
X-238340Y1689475D01*
X-244688D01*
X-247862Y1686301D01*
Y1683127D01*
X-244688Y1679953D01*
X-238340D01*
X-235166Y1676779D01*
Y1673605D01*
X-238340Y1670432D01*
X-244688D01*
X-247862Y1673605D01*
X-216122Y1689475D02*
X-228818D01*
Y1670432D01*
X-216122D01*
X-228818Y1679953D02*
X-222470D01*
X-178035Y1686301D02*
X-181209Y1689475D01*
X-187556D01*
X-190730Y1686301D01*
Y1683127D01*
X-187556Y1679953D01*
X-181209D01*
X-178035Y1676779D01*
Y1673605D01*
X-181209Y1670432D01*
X-187556D01*
X-190730Y1673605D01*
X-171687Y1670432D02*
Y1689475D01*
X-162165D01*
X-158991Y1686301D01*
Y1679953D01*
X-162165Y1676779D01*
X-171687D01*
X-139947Y1689475D02*
X-152643D01*
Y1670432D01*
X-139947D01*
X-152643Y1679953D02*
X-146295D01*
X-120903Y1686301D02*
X-124077Y1689475D01*
X-130425D01*
X-133599Y1686301D01*
Y1673605D01*
X-130425Y1670432D01*
X-124077D01*
X-120903Y1673605D01*
X-114555Y1689475D02*
X-108207D01*
X-111381D01*
Y1670432D01*
X-114555D01*
X-108207D01*
X-85989Y1689475D02*
X-98685D01*
Y1679953D01*
X-92337D01*
X-98685D01*
Y1670432D01*
X-79641Y1689475D02*
X-73293D01*
X-76467D01*
Y1670432D01*
X-79641D01*
X-73293D01*
X-51076Y1689475D02*
X-63772D01*
Y1670432D01*
X-51076D01*
X-63772Y1679953D02*
X-57424D01*
X-44728Y1689475D02*
Y1670432D01*
X-35206D01*
X-32032Y1673605D01*
Y1686301D01*
X-35206Y1689475D01*
X-44728D01*
X-6640D02*
X-292D01*
X-3466D01*
Y1670432D01*
X-6640D01*
X-292D01*
X9230D02*
Y1689475D01*
X21926Y1670432D01*
Y1689475D01*
X47318D02*
X60013D01*
X53666D01*
Y1670432D01*
X66361Y1689475D02*
Y1670432D01*
Y1679953D01*
X79057D01*
Y1689475D01*
Y1670432D01*
X98101Y1689475D02*
X85405D01*
Y1670432D01*
X98101D01*
X85405Y1679953D02*
X91753D01*
X136189Y1689475D02*
X123493D01*
Y1670432D01*
X136189D01*
X123493Y1679953D02*
X129841D01*
X155233Y1686301D02*
X152059Y1689475D01*
X145711D01*
X142537Y1686301D01*
Y1673605D01*
X145711Y1670432D01*
X152059D01*
X155233Y1673605D01*
X171103Y1689475D02*
X164755D01*
X161581Y1686301D01*
Y1673605D01*
X164755Y1670432D01*
X171103D01*
X174277Y1673605D01*
Y1686301D01*
X171103Y1689475D01*
X180625D02*
Y1670432D01*
X190147D01*
X193321Y1673605D01*
Y1676779D01*
X190147Y1679953D01*
X180625D01*
X190147D01*
X193321Y1683127D01*
Y1686301D01*
X190147Y1689475D01*
X180625D01*
X212364D02*
X199669D01*
Y1670432D01*
X212364D01*
X199669Y1679953D02*
X206016D01*
X231408Y1689475D02*
X218712D01*
Y1670432D01*
X231408D01*
X218712Y1679953D02*
X225060D01*
X256800Y1670432D02*
Y1689475D01*
X266322D01*
X269496Y1686301D01*
Y1679953D01*
X266322Y1676779D01*
X256800D01*
X275844Y1689475D02*
Y1673605D01*
X279018Y1670432D01*
X285366D01*
X288540Y1673605D01*
Y1689475D01*
X294888Y1670432D02*
Y1689475D01*
X304410D01*
X307584Y1686301D01*
Y1679953D01*
X304410Y1676779D01*
X294888D01*
X301236D02*
X307584Y1670432D01*
X326628Y1686301D02*
X323453Y1689475D01*
X317106D01*
X313932Y1686301D01*
Y1673605D01*
X317106Y1670432D01*
X323453D01*
X326628Y1673605D01*
X332976Y1689475D02*
Y1670432D01*
Y1679953D01*
X345671D01*
Y1689475D01*
Y1670432D01*
X352019D02*
Y1683127D01*
X358367Y1689475D01*
X364715Y1683127D01*
Y1670432D01*
Y1679953D01*
X352019D01*
X383759Y1686301D02*
X380585Y1689475D01*
X374237D01*
X371063Y1686301D01*
Y1683127D01*
X374237Y1679953D01*
X380585D01*
X383759Y1676779D01*
Y1673605D01*
X380585Y1670432D01*
X374237D01*
X371063Y1673605D01*
X402803Y1689475D02*
X390107D01*
Y1670432D01*
X402803D01*
X390107Y1679953D02*
X396455D01*
X437717Y1689475D02*
X431369D01*
X428195Y1686301D01*
Y1673605D01*
X431369Y1670432D01*
X437717D01*
X440891Y1673605D01*
Y1686301D01*
X437717Y1689475D01*
X447239Y1670432D02*
Y1689475D01*
X456760D01*
X459935Y1686301D01*
Y1679953D01*
X456760Y1676779D01*
X447239D01*
X453587D02*
X459935Y1670432D01*
X466282Y1689475D02*
Y1670432D01*
X475804D01*
X478978Y1673605D01*
Y1686301D01*
X475804Y1689475D01*
X466282D01*
X498022D02*
X485326D01*
Y1670432D01*
X498022D01*
X485326Y1679953D02*
X491674D01*
X504370Y1670432D02*
Y1689475D01*
X513892D01*
X517066Y1686301D01*
Y1679953D01*
X513892Y1676779D01*
X504370D01*
X510718D02*
X517066Y1670432D01*
X526588Y1667258D02*
X529762Y1670432D01*
Y1673605D01*
X526588D01*
Y1670432D01*
X529762D01*
X526588Y1667258D01*
X523414Y1664084D01*
X561502Y1689475D02*
X574198D01*
X567850D01*
Y1670432D01*
X580546Y1689475D02*
Y1670432D01*
Y1679953D01*
X593241D01*
Y1689475D01*
Y1670432D01*
X612285Y1689475D02*
X599589D01*
Y1670432D01*
X612285D01*
X599589Y1679953D02*
X605937D01*
X650373Y1689475D02*
X637677D01*
Y1679953D01*
X644025D01*
X637677D01*
Y1670432D01*
X666243Y1689475D02*
X659895D01*
X656721Y1686301D01*
Y1673605D01*
X659895Y1670432D01*
X666243D01*
X669417Y1673605D01*
Y1686301D01*
X666243Y1689475D01*
X675765D02*
Y1670432D01*
X688461D01*
X694809Y1689475D02*
Y1670432D01*
X707505D01*
X723374Y1689475D02*
X717027D01*
X713852Y1686301D01*
Y1673605D01*
X717027Y1670432D01*
X723374D01*
X726548Y1673605D01*
Y1686301D01*
X723374Y1689475D01*
X732896D02*
Y1670432D01*
X739244Y1676779D01*
X745592Y1670432D01*
Y1689475D01*
X751940D02*
X758288D01*
X755114D01*
Y1670432D01*
X751940D01*
X758288D01*
X767810D02*
Y1689475D01*
X780506Y1670432D01*
Y1689475D01*
X799550Y1686301D02*
X796376Y1689475D01*
X790028D01*
X786854Y1686301D01*
Y1673605D01*
X790028Y1670432D01*
X796376D01*
X799550Y1673605D01*
Y1679953D01*
X793202D01*
X837637Y1686301D02*
X834464Y1689475D01*
X828116D01*
X824942Y1686301D01*
Y1683127D01*
X828116Y1679953D01*
X834464D01*
X837637Y1676779D01*
Y1673605D01*
X834464Y1670432D01*
X828116D01*
X824942Y1673605D01*
X843986Y1670432D02*
Y1689475D01*
X853507D01*
X856681Y1686301D01*
Y1679953D01*
X853507Y1676779D01*
X843986D01*
X875725Y1689475D02*
X863029D01*
Y1670432D01*
X875725D01*
X863029Y1679953D02*
X869377D01*
X894769Y1686301D02*
X891595Y1689475D01*
X885247D01*
X882073Y1686301D01*
Y1673605D01*
X885247Y1670432D01*
X891595D01*
X894769Y1673605D01*
X901117Y1689475D02*
X907465D01*
X904291D01*
Y1670432D01*
X901117D01*
X907465D01*
X929683Y1689475D02*
X916987D01*
Y1679953D01*
X923335D01*
X916987D01*
Y1670432D01*
X936031Y1689475D02*
X942379D01*
X939205D01*
Y1670432D01*
X936031D01*
X942379D01*
X964596Y1686301D02*
X961423Y1689475D01*
X955075D01*
X951901Y1686301D01*
Y1673605D01*
X955075Y1670432D01*
X961423D01*
X964596Y1673605D01*
X970945Y1670432D02*
Y1683127D01*
X977292Y1689475D01*
X983640Y1683127D01*
Y1670432D01*
Y1679953D01*
X970945D01*
X989988Y1689475D02*
X1002684D01*
X996336D01*
Y1670432D01*
X1009032Y1689475D02*
X1015380D01*
X1012206D01*
Y1670432D01*
X1009032D01*
X1015380D01*
X1034424Y1689475D02*
X1028076D01*
X1024902Y1686301D01*
Y1673605D01*
X1028076Y1670432D01*
X1034424D01*
X1037598Y1673605D01*
Y1686301D01*
X1034424Y1689475D01*
X1043946Y1670432D02*
Y1689475D01*
X1056642Y1670432D01*
Y1689475D01*
X1075686Y1686301D02*
X1072512Y1689475D01*
X1066164D01*
X1062990Y1686301D01*
Y1683127D01*
X1066164Y1679953D01*
X1072512D01*
X1075686Y1676779D01*
Y1673605D01*
X1072512Y1670432D01*
X1066164D01*
X1062990Y1673605D01*
X-498606Y1657353D02*
X-501780Y1660527D01*
X-508128D01*
X-511302Y1657353D01*
Y1654179D01*
X-508128Y1651005D01*
X-501780D01*
X-498606Y1647831D01*
Y1644657D01*
X-501780Y1641483D01*
X-508128D01*
X-511302Y1644657D01*
X-492258Y1660527D02*
Y1641483D01*
Y1651005D01*
X-479562D01*
Y1660527D01*
Y1641483D01*
X-473214D02*
Y1654179D01*
X-466866Y1660527D01*
X-460518Y1654179D01*
Y1641483D01*
Y1651005D01*
X-473214D01*
X-454170Y1660527D02*
Y1641483D01*
X-441475D01*
X-435127Y1660527D02*
Y1641483D01*
X-422431D01*
X-397039D02*
Y1654179D01*
X-390691Y1660527D01*
X-384343Y1654179D01*
Y1641483D01*
Y1651005D01*
X-397039D01*
X-377995Y1641483D02*
Y1660527D01*
X-368473D01*
X-365299Y1657353D01*
Y1651005D01*
X-368473Y1647831D01*
X-377995D01*
X-358951Y1641483D02*
Y1660527D01*
X-349429D01*
X-346255Y1657353D01*
Y1651005D01*
X-349429Y1647831D01*
X-358951D01*
X-339907Y1660527D02*
Y1641483D01*
X-327211D01*
X-320863Y1660527D02*
Y1657353D01*
X-314515Y1651005D01*
X-308168Y1657353D01*
Y1660527D01*
X-314515Y1651005D02*
Y1641483D01*
X-301820D02*
Y1644657D01*
X-298646D01*
Y1641483D01*
X-301820D01*
X-511302Y1612534D02*
Y1625230D01*
X-504954Y1631578D01*
X-498606Y1625230D01*
Y1612534D01*
Y1622056D01*
X-511302D01*
X-492258Y1612534D02*
Y1631578D01*
X-479562Y1612534D01*
Y1631578D01*
X-473214D02*
Y1628404D01*
X-466866Y1622056D01*
X-460518Y1628404D01*
Y1631578D01*
X-466866Y1622056D02*
Y1612534D01*
X-435127Y1631578D02*
Y1612534D01*
X-425605D01*
X-422431Y1615708D01*
Y1628404D01*
X-425605Y1631578D01*
X-435127D01*
X-403387D02*
X-416083D01*
Y1612534D01*
X-403387D01*
X-416083Y1622056D02*
X-409735D01*
X-397039Y1631578D02*
Y1618882D01*
X-390691Y1612534D01*
X-384343Y1618882D01*
Y1631578D01*
X-377995D02*
X-371647D01*
X-374821D01*
Y1612534D01*
X-377995D01*
X-371647D01*
X-362125D02*
Y1625230D01*
X-355777Y1631578D01*
X-349429Y1625230D01*
Y1612534D01*
Y1622056D01*
X-362125D01*
X-343081Y1631578D02*
X-330385D01*
X-336733D01*
Y1612534D01*
X-324038Y1631578D02*
X-317689D01*
X-320863D01*
Y1612534D01*
X-324038D01*
X-317689D01*
X-298646Y1631578D02*
X-304994D01*
X-308168Y1628404D01*
Y1615708D01*
X-304994Y1612534D01*
X-298646D01*
X-295472Y1615708D01*
Y1628404D01*
X-298646Y1631578D01*
X-289124Y1612534D02*
Y1631578D01*
X-276428Y1612534D01*
Y1631578D01*
X-238340Y1628404D02*
X-241514Y1631578D01*
X-247862D01*
X-251036Y1628404D01*
Y1625230D01*
X-247862Y1622056D01*
X-241514D01*
X-238340Y1618882D01*
Y1615708D01*
X-241514Y1612534D01*
X-247862D01*
X-251036Y1615708D01*
X-231992Y1631578D02*
Y1612534D01*
Y1622056D01*
X-219296D01*
Y1631578D01*
Y1612534D01*
X-212948D02*
Y1625230D01*
X-206600Y1631578D01*
X-200252Y1625230D01*
Y1612534D01*
Y1622056D01*
X-212948D01*
X-193904Y1631578D02*
Y1612534D01*
X-181209D01*
X-174861Y1631578D02*
Y1612534D01*
X-162165D01*
X-136773D02*
Y1631578D01*
X-127251D01*
X-124077Y1628404D01*
Y1622056D01*
X-127251Y1618882D01*
X-136773D01*
X-130425D02*
X-124077Y1612534D01*
X-105033Y1631578D02*
X-117729D01*
Y1612534D01*
X-105033D01*
X-117729Y1622056D02*
X-111381D01*
X-85989Y1615708D02*
Y1628404D01*
X-89163Y1631578D01*
X-95511D01*
X-98685Y1628404D01*
Y1615708D01*
X-95511Y1612534D01*
X-89163D01*
X-92337Y1618882D02*
X-85989Y1612534D01*
X-89163D02*
X-85989Y1615708D01*
X-79641Y1631578D02*
Y1615708D01*
X-76467Y1612534D01*
X-70119D01*
X-66946Y1615708D01*
Y1631578D01*
X-60598D02*
X-54250D01*
X-57424D01*
Y1612534D01*
X-60598D01*
X-54250D01*
X-44728D02*
Y1631578D01*
X-35206D01*
X-32032Y1628404D01*
Y1622056D01*
X-35206Y1618882D01*
X-44728D01*
X-38380D02*
X-32032Y1612534D01*
X-12988Y1631578D02*
X-25684D01*
Y1612534D01*
X-12988D01*
X-25684Y1622056D02*
X-19336D01*
X12404Y1631578D02*
Y1612534D01*
X18752Y1618882D01*
X25100Y1612534D01*
Y1631578D01*
X31448Y1612534D02*
Y1631578D01*
X40970D01*
X44144Y1628404D01*
Y1622056D01*
X40970Y1618882D01*
X31448D01*
X37796D02*
X44144Y1612534D01*
X50492Y1631578D02*
X56840D01*
X53666D01*
Y1612534D01*
X50492D01*
X56840D01*
X66361Y1631578D02*
X79057D01*
X72709D01*
Y1612534D01*
X85405Y1631578D02*
X98101D01*
X91753D01*
Y1612534D01*
X117145Y1631578D02*
X104449D01*
Y1612534D01*
X117145D01*
X104449Y1622056D02*
X110797D01*
X123493Y1612534D02*
Y1631578D01*
X136189Y1612534D01*
Y1631578D01*
X161581Y1612534D02*
Y1625230D01*
X167929Y1631578D01*
X174277Y1625230D01*
Y1612534D01*
Y1622056D01*
X161581D01*
X180625Y1612534D02*
Y1631578D01*
X190147D01*
X193321Y1628404D01*
Y1622056D01*
X190147Y1618882D01*
X180625D01*
X199669Y1612534D02*
Y1631578D01*
X209190D01*
X212364Y1628404D01*
Y1622056D01*
X209190Y1618882D01*
X199669D01*
X218712Y1612534D02*
Y1631578D01*
X228234D01*
X231408Y1628404D01*
Y1622056D01*
X228234Y1618882D01*
X218712D01*
X225060D02*
X231408Y1612534D01*
X247278Y1631578D02*
X240930D01*
X237756Y1628404D01*
Y1615708D01*
X240930Y1612534D01*
X247278D01*
X250452Y1615708D01*
Y1628404D01*
X247278Y1631578D01*
X256800D02*
Y1618882D01*
X263148Y1612534D01*
X269496Y1618882D01*
Y1631578D01*
X275844Y1612534D02*
Y1625230D01*
X282192Y1631578D01*
X288540Y1625230D01*
Y1612534D01*
Y1622056D01*
X275844D01*
X294888Y1631578D02*
Y1612534D01*
X307584D01*
X345671Y1631578D02*
X332976D01*
Y1622056D01*
X339323D01*
X332976D01*
Y1612534D01*
X352019D02*
Y1631578D01*
X361541D01*
X364715Y1628404D01*
Y1622056D01*
X361541Y1618882D01*
X352019D01*
X358367D02*
X364715Y1612534D01*
X380585Y1631578D02*
X374237D01*
X371063Y1628404D01*
Y1615708D01*
X374237Y1612534D01*
X380585D01*
X383759Y1615708D01*
Y1628404D01*
X380585Y1631578D01*
X390107Y1612534D02*
Y1631578D01*
X396455Y1625230D01*
X402803Y1631578D01*
Y1612534D01*
X428195D02*
Y1625230D01*
X434543Y1631578D01*
X440891Y1625230D01*
Y1612534D01*
Y1622056D01*
X428195D01*
X447239Y1612534D02*
Y1631578D01*
X459935Y1612534D01*
Y1631578D01*
X498022D02*
X485326D01*
Y1612534D01*
X498022D01*
X485326Y1622056D02*
X491674D01*
X517066Y1628404D02*
X513892Y1631578D01*
X507544D01*
X504370Y1628404D01*
Y1615708D01*
X507544Y1612534D01*
X513892D01*
X517066Y1615708D01*
X532936Y1631578D02*
X526588D01*
X523414Y1628404D01*
Y1615708D01*
X526588Y1612534D01*
X532936D01*
X536110Y1615708D01*
Y1628404D01*
X532936Y1631578D01*
X542458D02*
Y1612534D01*
X551980D01*
X555154Y1615708D01*
Y1618882D01*
X551980Y1622056D01*
X542458D01*
X551980D01*
X555154Y1625230D01*
Y1628404D01*
X551980Y1631578D01*
X542458D01*
X574198D02*
X561502D01*
Y1612534D01*
X574198D01*
X561502Y1622056D02*
X567850D01*
X593241Y1631578D02*
X580546D01*
Y1612534D01*
X593241D01*
X580546Y1622056D02*
X586894D01*
X618633Y1612534D02*
Y1631578D01*
X628155D01*
X631329Y1628404D01*
Y1622056D01*
X628155Y1618882D01*
X618633D01*
X624981D02*
X631329Y1612534D01*
X650373Y1631578D02*
X637677D01*
Y1612534D01*
X650373D01*
X637677Y1622056D02*
X644025D01*
X656721Y1612534D02*
Y1631578D01*
X666243D01*
X669417Y1628404D01*
Y1622056D01*
X666243Y1618882D01*
X656721D01*
X675765Y1612534D02*
Y1631578D01*
X685287D01*
X688461Y1628404D01*
Y1622056D01*
X685287Y1618882D01*
X675765D01*
X682113D02*
X688461Y1612534D01*
X707505Y1631578D02*
X694809D01*
Y1612534D01*
X707505D01*
X694809Y1622056D02*
X701157D01*
X726548Y1628404D02*
X723374Y1631578D01*
X717027D01*
X713852Y1628404D01*
Y1625230D01*
X717027Y1622056D01*
X723374D01*
X726548Y1618882D01*
Y1615708D01*
X723374Y1612534D01*
X717027D01*
X713852Y1615708D01*
X745592Y1631578D02*
X732896D01*
Y1612534D01*
X745592D01*
X732896Y1622056D02*
X739244D01*
X751940Y1612534D02*
Y1631578D01*
X764636Y1612534D01*
Y1631578D01*
X770984D02*
X783680D01*
X777332D01*
Y1612534D01*
X790028D02*
Y1625230D01*
X796376Y1631578D01*
X802724Y1625230D01*
Y1612534D01*
Y1622056D01*
X790028D01*
X809072Y1631578D02*
X821768D01*
X815420D01*
Y1612534D01*
X828116Y1631578D02*
X834464D01*
X831290D01*
Y1612534D01*
X828116D01*
X834464D01*
X843986Y1631578D02*
Y1618882D01*
X850333Y1612534D01*
X856681Y1618882D01*
Y1631578D01*
X875725D02*
X863029D01*
Y1612534D01*
X875725D01*
X863029Y1622056D02*
X869377D01*
X882073Y1612534D02*
Y1615708D01*
X885247D01*
Y1612534D01*
X882073D01*
X-511302Y1554637D02*
X-504954D01*
X-508128D01*
Y1573681D01*
X-511302Y1570507D01*
X-495432Y1554637D02*
Y1557811D01*
X-492258D01*
Y1554637D01*
X-495432D01*
X-460518Y1573681D02*
Y1554637D01*
X-450997D01*
X-447822Y1557811D01*
Y1560985D01*
X-450997Y1564159D01*
X-460518D01*
X-450997D01*
X-447822Y1567333D01*
Y1570507D01*
X-450997Y1573681D01*
X-460518D01*
X-431953D02*
X-438301D01*
X-441475Y1570507D01*
Y1557811D01*
X-438301Y1554637D01*
X-431953D01*
X-428779Y1557811D01*
Y1570507D01*
X-431953Y1573681D01*
X-422431Y1554637D02*
Y1567333D01*
X-416083Y1573681D01*
X-409735Y1567333D01*
Y1554637D01*
Y1564159D01*
X-422431D01*
X-403387Y1554637D02*
Y1573681D01*
X-393865D01*
X-390691Y1570507D01*
Y1564159D01*
X-393865Y1560985D01*
X-403387D01*
X-397039D02*
X-390691Y1554637D01*
X-384343Y1573681D02*
Y1554637D01*
X-374821D01*
X-371647Y1557811D01*
Y1570507D01*
X-374821Y1573681D01*
X-384343D01*
X-346255D02*
Y1554637D01*
X-336733D01*
X-333559Y1557811D01*
Y1570507D01*
X-336733Y1573681D01*
X-346255D01*
X-327211Y1554637D02*
Y1567333D01*
X-320863Y1573681D01*
X-314516Y1567333D01*
Y1554637D01*
Y1564159D01*
X-327211D01*
X-308168Y1573681D02*
X-295472D01*
X-301820D01*
Y1554637D01*
X-289124D02*
Y1567333D01*
X-282776Y1573681D01*
X-276428Y1567333D01*
Y1554637D01*
Y1564159D01*
X-289124D01*
X-251036Y1573681D02*
Y1560985D01*
X-244688Y1554637D01*
X-238340Y1560985D01*
Y1573681D01*
X-231992D02*
X-225644D01*
X-228818D01*
Y1554637D01*
X-231992D01*
X-225644D01*
X-203426Y1573681D02*
X-216122D01*
Y1554637D01*
X-203426D01*
X-216122Y1564159D02*
X-209774D01*
X-197078Y1573681D02*
Y1554637D01*
X-190730Y1560985D01*
X-184383Y1554637D01*
Y1573681D01*
X-165339D02*
X-178035D01*
Y1554637D01*
X-165339D01*
X-178035Y1564159D02*
X-171687D01*
X-158991Y1573681D02*
Y1554637D01*
X-149469D01*
X-146295Y1557811D01*
Y1570507D01*
X-149469Y1573681D01*
X-158991D01*
X-108207D02*
X-120903D01*
Y1564159D01*
X-114555D01*
X-120903D01*
Y1554637D01*
X-101859D02*
Y1573681D01*
X-92337D01*
X-89163Y1570507D01*
Y1564159D01*
X-92337Y1560985D01*
X-101859D01*
X-95511D02*
X-89163Y1554637D01*
X-73293Y1573681D02*
X-79641D01*
X-82815Y1570507D01*
Y1557811D01*
X-79641Y1554637D01*
X-73293D01*
X-70119Y1557811D01*
Y1570507D01*
X-73293Y1573681D01*
X-63772Y1554637D02*
Y1573681D01*
X-57424Y1567333D01*
X-51076Y1573681D01*
Y1554637D01*
X-25684D02*
Y1573681D01*
X-16162D01*
X-12988Y1570507D01*
Y1564159D01*
X-16162Y1560985D01*
X-25684D01*
X-6640Y1554637D02*
Y1573681D01*
X2882D01*
X6056Y1570507D01*
Y1564159D01*
X2882Y1560985D01*
X-6640D01*
X-292D02*
X6056Y1554637D01*
X12404Y1573681D02*
X18752D01*
X15578D01*
Y1554637D01*
X12404D01*
X18752D01*
X28274D02*
Y1573681D01*
X34622Y1567333D01*
X40970Y1573681D01*
Y1554637D01*
X47318D02*
Y1567333D01*
X53666Y1573681D01*
X60013Y1567333D01*
Y1554637D01*
Y1564159D01*
X47318D01*
X66361Y1554637D02*
Y1573681D01*
X75883D01*
X79057Y1570507D01*
Y1564159D01*
X75883Y1560985D01*
X66361D01*
X72709D02*
X79057Y1554637D01*
X85405Y1573681D02*
Y1570507D01*
X91753Y1564159D01*
X98101Y1570507D01*
Y1573681D01*
X91753Y1564159D02*
Y1554637D01*
X136189Y1570507D02*
X133015Y1573681D01*
X126667D01*
X123493Y1570507D01*
Y1567333D01*
X126667Y1564159D01*
X133015D01*
X136189Y1560985D01*
Y1557811D01*
X133015Y1554637D01*
X126667D01*
X123493Y1557811D01*
X142537Y1573681D02*
X148885D01*
X145711D01*
Y1554637D01*
X142537D01*
X148885D01*
X158407Y1573681D02*
Y1554637D01*
X167929D01*
X171103Y1557811D01*
Y1570507D01*
X167929Y1573681D01*
X158407D01*
X190147D02*
X177451D01*
Y1554637D01*
X190147D01*
X177451Y1564159D02*
X183799D01*
X196495Y1554637D02*
Y1557811D01*
X199669D01*
Y1554637D01*
X196495D01*
X-498606Y1525688D02*
X-511302D01*
X-498606Y1538384D01*
Y1541558D01*
X-501780Y1544732D01*
X-508128D01*
X-511302Y1541558D01*
X-492258Y1525688D02*
Y1528862D01*
X-489084D01*
Y1525688D01*
X-492258D01*
X-457344Y1544732D02*
Y1525688D01*
X-444649D01*
X-438301D02*
Y1538384D01*
X-431953Y1544732D01*
X-425605Y1538384D01*
Y1525688D01*
Y1535210D01*
X-438301D01*
X-419257Y1544732D02*
X-406561D01*
X-412909D01*
Y1525688D01*
X-387517Y1544732D02*
X-400213D01*
Y1525688D01*
X-387517D01*
X-400213Y1535210D02*
X-393865D01*
X-368473Y1541558D02*
X-371647Y1544732D01*
X-377995D01*
X-381169Y1541558D01*
Y1538384D01*
X-377995Y1535210D01*
X-371647D01*
X-368473Y1532036D01*
Y1528862D01*
X-371647Y1525688D01*
X-377995D01*
X-381169Y1528862D01*
X-362125Y1544732D02*
X-349429D01*
X-355777D01*
Y1525688D01*
X-324038D02*
Y1544732D01*
X-314515D01*
X-311342Y1541558D01*
Y1535210D01*
X-314515Y1532036D01*
X-324038D01*
X-317689D02*
X-311342Y1525688D01*
X-292298Y1544732D02*
X-304994D01*
Y1525688D01*
X-292298D01*
X-304994Y1535210D02*
X-298646D01*
X-285950Y1544732D02*
Y1532036D01*
X-279602Y1525688D01*
X-273254Y1532036D01*
Y1544732D01*
X-266906D02*
X-260558D01*
X-263732D01*
Y1525688D01*
X-266906D01*
X-260558D01*
X-238340Y1541558D02*
X-241514Y1544732D01*
X-247862D01*
X-251036Y1541558D01*
Y1538384D01*
X-247862Y1535210D01*
X-241514D01*
X-238340Y1532036D01*
Y1528862D01*
X-241514Y1525688D01*
X-247862D01*
X-251036Y1528862D01*
X-231992Y1544732D02*
X-225644D01*
X-228818D01*
Y1525688D01*
X-231992D01*
X-225644D01*
X-206600Y1544732D02*
X-212948D01*
X-216122Y1541558D01*
Y1528862D01*
X-212948Y1525688D01*
X-206600D01*
X-203426Y1528862D01*
Y1541558D01*
X-206600Y1544732D01*
X-197078Y1525688D02*
Y1544732D01*
X-184383Y1525688D01*
Y1544732D01*
X-165339Y1541558D02*
X-168513Y1544732D01*
X-174861D01*
X-178035Y1541558D01*
Y1538384D01*
X-174861Y1535210D01*
X-168513D01*
X-165339Y1532036D01*
Y1528862D01*
X-168513Y1525688D01*
X-174861D01*
X-178035Y1528862D01*
X-127251Y1541558D02*
X-130425Y1544732D01*
X-136773D01*
X-139947Y1541558D01*
Y1538384D01*
X-136773Y1535210D01*
X-130425D01*
X-127251Y1532036D01*
Y1528862D01*
X-130425Y1525688D01*
X-136773D01*
X-139947Y1528862D01*
X-120903Y1544732D02*
Y1525688D01*
Y1535210D01*
X-108207D01*
Y1544732D01*
Y1525688D01*
X-101859D02*
Y1538384D01*
X-95511Y1544732D01*
X-89163Y1538384D01*
Y1525688D01*
Y1535210D01*
X-101859D01*
X-82815Y1544732D02*
Y1525688D01*
X-70119D01*
X-63772Y1544732D02*
Y1525688D01*
X-51076D01*
X-25684D02*
Y1538384D01*
X-19336Y1544732D01*
X-12988Y1538384D01*
Y1525688D01*
Y1535210D01*
X-25684D01*
X-6640Y1525688D02*
Y1544732D01*
X2882D01*
X6056Y1541558D01*
Y1535210D01*
X2882Y1532036D01*
X-6640D01*
X12404Y1525688D02*
Y1544732D01*
X21926D01*
X25100Y1541558D01*
Y1535210D01*
X21926Y1532036D01*
X12404D01*
X31448Y1544732D02*
Y1525688D01*
X44144D01*
X50492Y1544732D02*
Y1541558D01*
X56840Y1535210D01*
X63187Y1541558D01*
Y1544732D01*
X56840Y1535210D02*
Y1525688D01*
X88579Y1544732D02*
X101275D01*
X94927D01*
Y1525688D01*
X117145Y1544732D02*
X110797D01*
X107623Y1541558D01*
Y1528862D01*
X110797Y1525688D01*
X117145D01*
X120319Y1528862D01*
Y1541558D01*
X117145Y1544732D01*
X145711Y1525688D02*
Y1538384D01*
X152059Y1544732D01*
X158407Y1538384D01*
Y1525688D01*
Y1535210D01*
X145711D01*
X164755Y1544732D02*
Y1525688D01*
X177451D01*
X183799Y1544732D02*
Y1525688D01*
X196495D01*
X234582Y1541558D02*
X231408Y1544732D01*
X225060D01*
X221886Y1541558D01*
Y1538384D01*
X225060Y1535210D01*
X231408D01*
X234582Y1532036D01*
Y1528862D01*
X231408Y1525688D01*
X225060D01*
X221886Y1528862D01*
X240930Y1525688D02*
Y1544732D01*
X250452D01*
X253626Y1541558D01*
Y1535210D01*
X250452Y1532036D01*
X240930D01*
X272670Y1544732D02*
X259974D01*
Y1525688D01*
X272670D01*
X259974Y1535210D02*
X266322D01*
X291714Y1541558D02*
X288540Y1544732D01*
X282192D01*
X279018Y1541558D01*
Y1528862D01*
X282192Y1525688D01*
X288540D01*
X291714Y1528862D01*
X298062Y1544732D02*
X304410D01*
X301236D01*
Y1525688D01*
X298062D01*
X304410D01*
X326628Y1544732D02*
X313932D01*
Y1535210D01*
X320280D01*
X313932D01*
Y1525688D01*
X332976Y1544732D02*
X339323D01*
X336149D01*
Y1525688D01*
X332976D01*
X339323D01*
X361541Y1541558D02*
X358367Y1544732D01*
X352019D01*
X348845Y1541558D01*
Y1528862D01*
X352019Y1525688D01*
X358367D01*
X361541Y1528862D01*
X367889Y1525688D02*
Y1538384D01*
X374237Y1544732D01*
X380585Y1538384D01*
Y1525688D01*
Y1535210D01*
X367889D01*
X386933Y1544732D02*
X399629D01*
X393281D01*
Y1525688D01*
X405977Y1544732D02*
X412325D01*
X409151D01*
Y1525688D01*
X405977D01*
X412325D01*
X431369Y1544732D02*
X425021D01*
X421847Y1541558D01*
Y1528862D01*
X425021Y1525688D01*
X431369D01*
X434543Y1528862D01*
Y1541558D01*
X431369Y1544732D01*
X440891Y1525688D02*
Y1544732D01*
X453587Y1525688D01*
Y1544732D01*
X472630Y1541558D02*
X469456Y1544732D01*
X463108D01*
X459935Y1541558D01*
Y1538384D01*
X463108Y1535210D01*
X469456D01*
X472630Y1532036D01*
Y1528862D01*
X469456Y1525688D01*
X463108D01*
X459935Y1528862D01*
X478978Y1525688D02*
Y1528862D01*
X482152D01*
Y1525688D01*
X478978D01*
X-511302Y1512610D02*
X-508128Y1515784D01*
X-501780D01*
X-498606Y1512610D01*
Y1509435D01*
X-501780Y1506262D01*
X-504954D01*
X-501780D01*
X-498606Y1503088D01*
Y1499914D01*
X-501780Y1496740D01*
X-508128D01*
X-511302Y1499914D01*
X-492258Y1496740D02*
Y1499914D01*
X-489084D01*
Y1496740D01*
X-492258D01*
X-444649Y1515784D02*
X-457344D01*
Y1506262D01*
X-450997D01*
X-457344D01*
Y1496740D01*
X-438301D02*
Y1509435D01*
X-431953Y1515784D01*
X-425605Y1509435D01*
Y1496740D01*
Y1506262D01*
X-438301D01*
X-419257Y1515784D02*
Y1496740D01*
X-409735D01*
X-406561Y1499914D01*
Y1503088D01*
X-409735Y1506262D01*
X-419257D01*
X-409735D01*
X-406561Y1509435D01*
Y1512610D01*
X-409735Y1515784D01*
X-419257D01*
X-400213Y1496740D02*
Y1515784D01*
X-390691D01*
X-387517Y1512610D01*
Y1506262D01*
X-390691Y1503088D01*
X-400213D01*
X-393865D02*
X-387517Y1496740D01*
X-381169Y1515784D02*
X-374821D01*
X-377995D01*
Y1496740D01*
X-381169D01*
X-374821D01*
X-352603Y1512610D02*
X-355777Y1515784D01*
X-362125D01*
X-365299Y1512610D01*
Y1499914D01*
X-362125Y1496740D01*
X-355777D01*
X-352603Y1499914D01*
X-346255Y1496740D02*
Y1509435D01*
X-339907Y1515784D01*
X-333559Y1509435D01*
Y1496740D01*
Y1506262D01*
X-346255D01*
X-327211Y1515784D02*
X-314516D01*
X-320863D01*
Y1496740D01*
X-295472Y1515784D02*
X-308168D01*
Y1496740D01*
X-295472D01*
X-308168Y1506262D02*
X-301820D01*
X-270080Y1496740D02*
Y1515784D01*
X-260558D01*
X-257384Y1512610D01*
Y1506262D01*
X-260558Y1503088D01*
X-270080D01*
X-238340Y1512610D02*
X-241514Y1515784D01*
X-247862D01*
X-251036Y1512610D01*
Y1499914D01*
X-247862Y1496740D01*
X-241514D01*
X-238340Y1499914D01*
X-231992Y1515784D02*
Y1496740D01*
X-222470D01*
X-219296Y1499914D01*
Y1503088D01*
X-222470Y1506262D01*
X-231992D01*
X-222470D01*
X-219296Y1509435D01*
Y1512610D01*
X-222470Y1515784D01*
X-231992D01*
X-193904D02*
X-187556D01*
X-190730D01*
Y1496740D01*
X-193904D01*
X-187556D01*
X-178035D02*
Y1515784D01*
X-165339Y1496740D01*
Y1515784D01*
X-139947Y1496740D02*
Y1509435D01*
X-133599Y1515784D01*
X-127251Y1509435D01*
Y1496740D01*
Y1506262D01*
X-139947D01*
X-108207Y1512610D02*
X-111381Y1515784D01*
X-117729D01*
X-120903Y1512610D01*
Y1499914D01*
X-117729Y1496740D01*
X-111381D01*
X-108207Y1499914D01*
X-89163Y1512610D02*
X-92337Y1515784D01*
X-98685D01*
X-101859Y1512610D01*
Y1499914D01*
X-98685Y1496740D01*
X-92337D01*
X-89163Y1499914D01*
X-73293Y1515784D02*
X-79641D01*
X-82815Y1512610D01*
Y1499914D01*
X-79641Y1496740D01*
X-73293D01*
X-70119Y1499914D01*
Y1512610D01*
X-73293Y1515784D01*
X-63772Y1496740D02*
Y1515784D01*
X-54250D01*
X-51076Y1512610D01*
Y1506262D01*
X-54250Y1503088D01*
X-63772D01*
X-57424D02*
X-51076Y1496740D01*
X-44728Y1515784D02*
Y1496740D01*
X-35206D01*
X-32032Y1499914D01*
Y1512610D01*
X-35206Y1515784D01*
X-44728D01*
X-25684Y1496740D02*
Y1509435D01*
X-19336Y1515784D01*
X-12988Y1509435D01*
Y1496740D01*
Y1506262D01*
X-25684D01*
X-6640Y1496740D02*
Y1515784D01*
X6056Y1496740D01*
Y1515784D01*
X25100Y1512610D02*
X21926Y1515784D01*
X15578D01*
X12404Y1512610D01*
Y1499914D01*
X15578Y1496740D01*
X21926D01*
X25100Y1499914D01*
X44144Y1515784D02*
X31448D01*
Y1496740D01*
X44144D01*
X31448Y1506262D02*
X37796D01*
X69535Y1515784D02*
Y1496740D01*
X75883Y1503088D01*
X82231Y1496740D01*
Y1515784D01*
X88579D02*
X94927D01*
X91753D01*
Y1496740D01*
X88579D01*
X94927D01*
X104449Y1515784D02*
X117145D01*
X110797D01*
Y1496740D01*
X123493Y1515784D02*
Y1496740D01*
Y1506262D01*
X136189D01*
Y1515784D01*
Y1496740D01*
X161581Y1515784D02*
X167929D01*
X164755D01*
Y1496740D01*
X161581D01*
X167929D01*
X177451D02*
Y1515784D01*
X186973D01*
X190147Y1512610D01*
Y1506262D01*
X186973Y1503088D01*
X177451D01*
X209190Y1512610D02*
X206016Y1515784D01*
X199669D01*
X196495Y1512610D01*
Y1499914D01*
X199669Y1496740D01*
X206016D01*
X209190Y1499914D01*
X215538Y1506262D02*
X228234D01*
X247278Y1515784D02*
X240930Y1512610D01*
X234582Y1506262D01*
Y1499914D01*
X237756Y1496740D01*
X244104D01*
X247278Y1499914D01*
Y1503088D01*
X244104Y1506262D01*
X234582D01*
X253626Y1512610D02*
X256800Y1515784D01*
X263148D01*
X266322Y1512610D01*
Y1499914D01*
X263148Y1496740D01*
X256800D01*
X253626Y1499914D01*
Y1512610D01*
X272670Y1496740D02*
X279018D01*
X275844D01*
Y1515784D01*
X272670Y1512610D01*
X288540D02*
X291714Y1515784D01*
X298062D01*
X301236Y1512610D01*
Y1509435D01*
X298062Y1506262D01*
X294888D01*
X298062D01*
X301236Y1503088D01*
Y1499914D01*
X298062Y1496740D01*
X291714D01*
X288540Y1499914D01*
X320280Y1512610D02*
X317106Y1515784D01*
X310758D01*
X307584Y1512610D01*
Y1499914D01*
X310758Y1496740D01*
X317106D01*
X320280Y1499914D01*
X345671Y1515784D02*
X358367D01*
X352019D01*
Y1496740D01*
X364715Y1515784D02*
Y1512610D01*
X371063Y1506262D01*
X377411Y1512610D01*
Y1515784D01*
X371063Y1506262D02*
Y1496740D01*
X383759D02*
Y1515784D01*
X393281D01*
X396455Y1512610D01*
Y1506262D01*
X393281Y1503088D01*
X383759D01*
X415499Y1515784D02*
X402803D01*
Y1496740D01*
X415499D01*
X402803Y1506262D02*
X409151D01*
X453587Y1496740D02*
X440891D01*
X453587Y1509435D01*
Y1512610D01*
X450412Y1515784D01*
X444065D01*
X440891Y1512610D01*
X478978Y1515784D02*
Y1499914D01*
X482152Y1496740D01*
X488500D01*
X491674Y1499914D01*
Y1515784D01*
X510718Y1512610D02*
X507544Y1515784D01*
X501196D01*
X498022Y1512610D01*
Y1509435D01*
X501196Y1506262D01*
X507544D01*
X510718Y1503088D01*
Y1499914D01*
X507544Y1496740D01*
X501196D01*
X498022Y1499914D01*
X517066Y1515784D02*
X523414D01*
X520240D01*
Y1496740D01*
X517066D01*
X523414D01*
X532936D02*
Y1515784D01*
X545632Y1496740D01*
Y1515784D01*
X564676Y1512610D02*
X561502Y1515784D01*
X555154D01*
X551980Y1512610D01*
Y1499914D01*
X555154Y1496740D01*
X561502D01*
X564676Y1499914D01*
Y1506262D01*
X558328D01*
X602763Y1512610D02*
X599589Y1515784D01*
X593241D01*
X590067Y1512610D01*
Y1509435D01*
X593241Y1506262D01*
X599589D01*
X602763Y1503088D01*
Y1499914D01*
X599589Y1496740D01*
X593241D01*
X590067Y1499914D01*
X609111Y1515784D02*
Y1499914D01*
X612285Y1496740D01*
X618633D01*
X621807Y1499914D01*
Y1515784D01*
X628155Y1496740D02*
Y1515784D01*
X637677D01*
X640851Y1512610D01*
Y1506262D01*
X637677Y1503088D01*
X628155D01*
X647199Y1496740D02*
Y1515784D01*
X656721D01*
X659895Y1512610D01*
Y1506262D01*
X656721Y1503088D01*
X647199D01*
X666243Y1515784D02*
Y1496740D01*
X678939D01*
X685287Y1515784D02*
X691635D01*
X688461D01*
Y1496740D01*
X685287D01*
X691635D01*
X713852Y1515784D02*
X701157D01*
Y1496740D01*
X713852D01*
X701157Y1506262D02*
X707505D01*
X720200Y1515784D02*
Y1496740D01*
X729722D01*
X732896Y1499914D01*
Y1512610D01*
X729722Y1515784D01*
X720200D01*
X770984Y1512610D02*
X767810Y1515784D01*
X761462D01*
X758288Y1512610D01*
Y1499914D01*
X761462Y1496740D01*
X767810D01*
X770984Y1499914D01*
Y1506262D01*
X764636D01*
X790028Y1515784D02*
X777332D01*
Y1496740D01*
X790028D01*
X777332Y1506262D02*
X783680D01*
X796376Y1496740D02*
Y1515784D01*
X805898D01*
X809072Y1512610D01*
Y1506262D01*
X805898Y1503088D01*
X796376D01*
X802724D02*
X809072Y1496740D01*
X815420Y1515784D02*
Y1496740D01*
X824942D01*
X828116Y1499914D01*
Y1503088D01*
X824942Y1506262D01*
X815420D01*
X824942D01*
X828116Y1509435D01*
Y1512610D01*
X824942Y1515784D01*
X815420D01*
X847159D02*
X834464D01*
Y1496740D01*
X847159D01*
X834464Y1506262D02*
X840811D01*
X853507Y1496740D02*
Y1515784D01*
X863029D01*
X866203Y1512610D01*
Y1506262D01*
X863029Y1503088D01*
X853507D01*
X859855D02*
X866203Y1496740D01*
X901117Y1515784D02*
X894769D01*
X891595Y1512610D01*
Y1499914D01*
X894769Y1496740D01*
X901117D01*
X904291Y1499914D01*
Y1512610D01*
X901117Y1515784D01*
X910639Y1496740D02*
Y1515784D01*
X920161D01*
X923335Y1512610D01*
Y1506262D01*
X920161Y1503088D01*
X910639D01*
X916987D02*
X923335Y1496740D01*
X-501780Y1486835D02*
X-508128D01*
X-511302Y1483661D01*
Y1470965D01*
X-508128Y1467791D01*
X-501780D01*
X-498606Y1470965D01*
Y1483661D01*
X-501780Y1486835D01*
X-492258D02*
Y1467791D01*
X-482736D01*
X-479562Y1470965D01*
Y1483661D01*
X-482736Y1486835D01*
X-492258D01*
X-473214D02*
Y1467791D01*
X-463692D01*
X-460518Y1470965D01*
Y1474139D01*
X-463692Y1477313D01*
X-473214D01*
X-463692D01*
X-460518Y1480487D01*
Y1483661D01*
X-463692Y1486835D01*
X-473214D01*
X-454170Y1477313D02*
X-441475D01*
X-447822Y1483661D02*
Y1470965D01*
X-435127Y1477313D02*
X-422431D01*
X-428779Y1483661D02*
Y1470965D01*
X-384343Y1483661D02*
X-387517Y1486835D01*
X-393865D01*
X-397039Y1483661D01*
Y1470965D01*
X-393865Y1467791D01*
X-387517D01*
X-384343Y1470965D01*
X-377995Y1467791D02*
Y1480487D01*
X-371647Y1486835D01*
X-365299Y1480487D01*
Y1467791D01*
Y1477313D01*
X-377995D01*
X-358951Y1486835D02*
Y1467791D01*
X-349429D01*
X-346255Y1470965D01*
Y1483661D01*
X-349429Y1486835D01*
X-358951D01*
X-320863D02*
Y1467791D01*
X-311341D01*
X-308168Y1470965D01*
Y1483661D01*
X-311341Y1486835D01*
X-320863D01*
X-301820Y1467791D02*
Y1480487D01*
X-295472Y1486835D01*
X-289124Y1480487D01*
Y1467791D01*
Y1477313D01*
X-301820D01*
X-282776Y1486835D02*
X-270080D01*
X-276428D01*
Y1467791D01*
X-263732D02*
Y1480487D01*
X-257384Y1486835D01*
X-251036Y1480487D01*
Y1467791D01*
Y1477313D01*
X-263732D01*
X-244688Y1467791D02*
Y1470965D01*
X-241514D01*
Y1467791D01*
X-244688D01*
X-320863Y1409894D02*
Y1428938D01*
X-311341D01*
X-308168Y1425764D01*
Y1419416D01*
X-311341Y1416242D01*
X-320863D01*
X-292298Y1409894D02*
X-298646D01*
X-301820Y1413068D01*
Y1419416D01*
X-298646Y1422590D01*
X-292298D01*
X-289124Y1419416D01*
Y1416242D01*
X-301820D01*
X-282776Y1422590D02*
Y1409894D01*
Y1416242D01*
X-279602Y1419416D01*
X-276428Y1422590D01*
X-273254D01*
X-260558Y1409894D02*
Y1425764D01*
Y1419416D01*
X-263732D01*
X-257384D01*
X-260558D01*
Y1425764D01*
X-257384Y1428938D01*
X-244688Y1409894D02*
X-238340D01*
X-235166Y1413068D01*
Y1419416D01*
X-238340Y1422590D01*
X-244688D01*
X-247862Y1419416D01*
Y1413068D01*
X-244688Y1409894D01*
X-228818Y1422590D02*
Y1409894D01*
Y1416242D01*
X-225644Y1419416D01*
X-222470Y1422590D01*
X-219296D01*
X-209774Y1409894D02*
Y1422590D01*
X-206600D01*
X-203426Y1419416D01*
Y1409894D01*
Y1419416D01*
X-200252Y1422590D01*
X-197078Y1419416D01*
Y1409894D01*
X-187556Y1422590D02*
X-181209D01*
X-178035Y1419416D01*
Y1409894D01*
X-187556D01*
X-190730Y1413068D01*
X-187556Y1416242D01*
X-178035D01*
X-171687Y1409894D02*
Y1422590D01*
X-162165D01*
X-158991Y1419416D01*
Y1409894D01*
X-139947Y1422590D02*
X-149469D01*
X-152643Y1419416D01*
Y1413068D01*
X-149469Y1409894D01*
X-139947D01*
X-124077D02*
X-130425D01*
X-133599Y1413068D01*
Y1419416D01*
X-130425Y1422590D01*
X-124077D01*
X-120903Y1419416D01*
Y1416242D01*
X-133599D01*
X-82815Y1425764D02*
X-85989Y1428938D01*
X-92337D01*
X-95511Y1425764D01*
Y1413068D01*
X-92337Y1409894D01*
X-85989D01*
X-82815Y1413068D01*
X-76467Y1409894D02*
X-70119D01*
X-73293D01*
Y1428938D01*
X-76467D01*
X-57424Y1422590D02*
X-51076D01*
X-47902Y1419416D01*
Y1409894D01*
X-57424D01*
X-60598Y1413068D01*
X-57424Y1416242D01*
X-47902D01*
X-41554Y1409894D02*
X-32032D01*
X-28858Y1413068D01*
X-32032Y1416242D01*
X-38380D01*
X-41554Y1419416D01*
X-38380Y1422590D01*
X-28858D01*
X-22510Y1409894D02*
X-12988D01*
X-9814Y1413068D01*
X-12988Y1416242D01*
X-19336D01*
X-22510Y1419416D01*
X-19336Y1422590D01*
X-9814D01*
X53666Y1419416D02*
X66361D01*
X104449Y1425764D02*
X101275Y1428938D01*
X94927D01*
X91753Y1425764D01*
Y1413068D01*
X94927Y1409894D01*
X101275D01*
X104449Y1413068D01*
X110797Y1409894D02*
X117145D01*
X113971D01*
Y1428938D01*
X110797D01*
X129841Y1422590D02*
X136189D01*
X139363Y1419416D01*
Y1409894D01*
X129841D01*
X126667Y1413068D01*
X129841Y1416242D01*
X139363D01*
X145711Y1409894D02*
X155233D01*
X158407Y1413068D01*
X155233Y1416242D01*
X148885D01*
X145711Y1419416D01*
X148885Y1422590D01*
X158407D01*
X164755Y1409894D02*
X174277D01*
X177451Y1413068D01*
X174277Y1416242D01*
X167929D01*
X164755Y1419416D01*
X167929Y1422590D01*
X177451D01*
X215538Y1409894D02*
X202843D01*
X215538Y1422590D01*
Y1425764D01*
X212364Y1428938D01*
X206017D01*
X202843Y1425764D01*
X-320863Y1399989D02*
X-314515D01*
X-317689D01*
Y1380945D01*
X-320863D01*
X-314515D01*
X-304994D02*
Y1393641D01*
X-295472D01*
X-292298Y1390467D01*
Y1380945D01*
X-285950D02*
X-276428D01*
X-273254Y1384119D01*
X-276428Y1387293D01*
X-282776D01*
X-285950Y1390467D01*
X-282776Y1393641D01*
X-273254D01*
X-263732Y1396815D02*
Y1393641D01*
X-266906D01*
X-260558D01*
X-263732D01*
Y1384119D01*
X-260558Y1380945D01*
X-247862Y1393641D02*
X-241514D01*
X-238340Y1390467D01*
Y1380945D01*
X-247862D01*
X-251036Y1384119D01*
X-247862Y1387293D01*
X-238340D01*
X-231992Y1380945D02*
X-225644D01*
X-228818D01*
Y1399989D01*
X-231992D01*
X-216122Y1380945D02*
X-209774D01*
X-212948D01*
Y1399989D01*
X-216122D01*
X-197078Y1393641D02*
X-190730D01*
X-187556Y1390467D01*
Y1380945D01*
X-197078D01*
X-200252Y1384119D01*
X-197078Y1387293D01*
X-187556D01*
X-178035Y1396815D02*
Y1393641D01*
X-181209D01*
X-174861D01*
X-178035D01*
Y1384119D01*
X-174861Y1380945D01*
X-165339D02*
X-158991D01*
X-162165D01*
Y1393641D01*
X-165339D01*
X-146295Y1380945D02*
X-139947D01*
X-136773Y1384119D01*
Y1390467D01*
X-139947Y1393641D01*
X-146295D01*
X-149469Y1390467D01*
Y1384119D01*
X-146295Y1380945D01*
X-130425D02*
Y1393641D01*
X-120903D01*
X-117729Y1390467D01*
Y1380945D01*
X-92337Y1399989D02*
Y1384119D01*
X-89163Y1380945D01*
X-82815D01*
X-79641Y1384119D01*
Y1399989D01*
X-73293Y1380945D02*
X-63772D01*
X-60598Y1384119D01*
X-63772Y1387293D01*
X-70119D01*
X-73293Y1390467D01*
X-70119Y1393641D01*
X-60598D01*
X-51076D02*
X-44728D01*
X-41554Y1390467D01*
Y1380945D01*
X-51076D01*
X-54250Y1384119D01*
X-51076Y1387293D01*
X-41554D01*
X-28858Y1374597D02*
X-25684D01*
X-22510Y1377771D01*
Y1393641D01*
X-32032D01*
X-35206Y1390467D01*
Y1384119D01*
X-32032Y1380945D01*
X-22510D01*
X-6640D02*
X-12988D01*
X-16162Y1384119D01*
Y1390467D01*
X-12988Y1393641D01*
X-6640D01*
X-3466Y1390467D01*
Y1387293D01*
X-16162D01*
X40970Y1390467D02*
X53666D01*
X79057Y1399989D02*
Y1384119D01*
X82231Y1380945D01*
X88579D01*
X91753Y1384119D01*
Y1399989D01*
X98101Y1380945D02*
X107623D01*
X110797Y1384119D01*
X107623Y1387293D01*
X101275D01*
X98101Y1390467D01*
X101275Y1393641D01*
X110797D01*
X126667Y1380945D02*
X120319D01*
X117145Y1384119D01*
Y1390467D01*
X120319Y1393641D01*
X126667D01*
X129841Y1390467D01*
Y1387293D01*
X117145D01*
X155233Y1399989D02*
Y1380945D01*
X164755D01*
X167929Y1384119D01*
Y1387293D01*
X164755Y1390467D01*
X155233D01*
X164755D01*
X167929Y1393641D01*
Y1396815D01*
X164755Y1399989D01*
X155233D01*
X-501780Y1316700D02*
Y1335744D01*
X-511302Y1326222D01*
X-498606D01*
X-492258Y1316700D02*
Y1319874D01*
X-489084D01*
Y1316700D01*
X-492258D01*
X-444649Y1335744D02*
X-457344D01*
Y1326222D01*
X-450997D01*
X-457344D01*
Y1316700D01*
X-438301Y1335744D02*
X-431953D01*
X-435127D01*
Y1316700D01*
X-438301D01*
X-431953D01*
X-422431D02*
Y1335744D01*
X-409735Y1316700D01*
Y1335744D01*
X-403387D02*
X-397039D01*
X-400213D01*
Y1316700D01*
X-403387D01*
X-397039D01*
X-374821Y1332570D02*
X-377995Y1335744D01*
X-384343D01*
X-387517Y1332570D01*
Y1329396D01*
X-384343Y1326222D01*
X-377995D01*
X-374821Y1323048D01*
Y1319874D01*
X-377995Y1316700D01*
X-384343D01*
X-387517Y1319874D01*
X-368473Y1335744D02*
Y1316700D01*
Y1326222D01*
X-355777D01*
Y1335744D01*
Y1316700D01*
X-349429Y1329396D02*
X-346255D01*
Y1326222D01*
X-349429D01*
Y1329396D01*
Y1319874D02*
X-346255D01*
Y1316700D01*
X-349429D01*
Y1319874D01*
X-295472Y1335744D02*
X-289124D01*
X-292298D01*
Y1316700D01*
X-295472D01*
X-289124D01*
X-279602D02*
Y1335744D01*
X-273254Y1329396D01*
X-266906Y1335744D01*
Y1316700D01*
X-260558D02*
Y1335744D01*
X-254210Y1329396D01*
X-247862Y1335744D01*
Y1316700D01*
X-228818Y1335744D02*
X-241514D01*
Y1316700D01*
X-228818D01*
X-241514Y1326222D02*
X-235166D01*
X-222470Y1316700D02*
Y1335744D01*
X-212948D01*
X-209774Y1332570D01*
Y1326222D01*
X-212948Y1323048D01*
X-222470D01*
X-216122D02*
X-209774Y1316700D01*
X-190730Y1332570D02*
X-193904Y1335744D01*
X-200252D01*
X-203426Y1332570D01*
Y1329396D01*
X-200252Y1326222D01*
X-193904D01*
X-190730Y1323048D01*
Y1319874D01*
X-193904Y1316700D01*
X-200252D01*
X-203426Y1319874D01*
X-184383Y1335744D02*
X-178035D01*
X-181209D01*
Y1316700D01*
X-184383D01*
X-178035D01*
X-158991Y1335744D02*
X-165339D01*
X-168513Y1332570D01*
Y1319874D01*
X-165339Y1316700D01*
X-158991D01*
X-155817Y1319874D01*
Y1332570D01*
X-158991Y1335744D01*
X-149469Y1316700D02*
Y1335744D01*
X-136773Y1316700D01*
Y1335744D01*
X-98685Y1332570D02*
X-101859Y1335744D01*
X-108207D01*
X-111381Y1332570D01*
Y1319874D01*
X-108207Y1316700D01*
X-101859D01*
X-98685Y1319874D01*
Y1326222D01*
X-105033D01*
X-82815Y1335744D02*
X-89163D01*
X-92337Y1332570D01*
Y1319874D01*
X-89163Y1316700D01*
X-82815D01*
X-79641Y1319874D01*
Y1332570D01*
X-82815Y1335744D01*
X-73293D02*
Y1316700D01*
X-60598D01*
X-54250Y1335744D02*
Y1316700D01*
X-44728D01*
X-41554Y1319874D01*
Y1332570D01*
X-44728Y1335744D01*
X-54250D01*
X-511302Y1258803D02*
Y1271498D01*
X-504954Y1277847D01*
X-498606Y1271498D01*
Y1258803D01*
Y1268325D01*
X-511302D01*
X-492258Y1277847D02*
Y1258803D01*
X-479562D01*
X-473214Y1277847D02*
Y1258803D01*
X-460518D01*
X-422431Y1277847D02*
X-435127D01*
Y1258803D01*
X-422431D01*
X-435127Y1268325D02*
X-428779D01*
X-416083Y1277847D02*
X-403387Y1258803D01*
Y1277847D02*
X-416083Y1258803D01*
X-397039D02*
Y1277847D01*
X-387517D01*
X-384343Y1274672D01*
Y1268325D01*
X-387517Y1265151D01*
X-397039D01*
X-368473Y1277847D02*
X-374821D01*
X-377995Y1274672D01*
Y1261977D01*
X-374821Y1258803D01*
X-368473D01*
X-365299Y1261977D01*
Y1274672D01*
X-368473Y1277847D01*
X-346255Y1274672D02*
X-349429Y1277847D01*
X-355777D01*
X-358951Y1274672D01*
Y1271498D01*
X-355777Y1268325D01*
X-349429D01*
X-346255Y1265151D01*
Y1261977D01*
X-349429Y1258803D01*
X-355777D01*
X-358951Y1261977D01*
X-327211Y1277847D02*
X-339907D01*
Y1258803D01*
X-327211D01*
X-339907Y1268325D02*
X-333559D01*
X-320863Y1277847D02*
Y1258803D01*
X-311341D01*
X-308168Y1261977D01*
Y1274672D01*
X-311341Y1277847D01*
X-320863D01*
X-270080Y1274672D02*
X-273254Y1277847D01*
X-279602D01*
X-282776Y1274672D01*
Y1261977D01*
X-279602Y1258803D01*
X-273254D01*
X-270080Y1261977D01*
X-254210Y1277847D02*
X-260558D01*
X-263732Y1274672D01*
Y1261977D01*
X-260558Y1258803D01*
X-254210D01*
X-251036Y1261977D01*
Y1274672D01*
X-254210Y1277847D01*
X-244688Y1258803D02*
Y1277847D01*
X-231992Y1258803D01*
Y1277847D01*
X-225644D02*
Y1258803D01*
X-216122D01*
X-212948Y1261977D01*
Y1274672D01*
X-216122Y1277847D01*
X-225644D01*
X-206600D02*
Y1261977D01*
X-203426Y1258803D01*
X-197078D01*
X-193904Y1261977D01*
Y1277847D01*
X-174861Y1274672D02*
X-178035Y1277847D01*
X-184382D01*
X-187556Y1274672D01*
Y1261977D01*
X-184382Y1258803D01*
X-178035D01*
X-174861Y1261977D01*
X-168513Y1277847D02*
X-155817D01*
X-162165D01*
Y1258803D01*
X-149469Y1277847D02*
X-143121D01*
X-146295D01*
Y1258803D01*
X-149469D01*
X-143121D01*
X-133599Y1277847D02*
Y1265151D01*
X-127251Y1258803D01*
X-120903Y1265151D01*
Y1277847D01*
X-101859D02*
X-114555D01*
Y1258803D01*
X-101859D01*
X-114555Y1268325D02*
X-108207D01*
X-76467Y1258803D02*
Y1277847D01*
X-66945D01*
X-63772Y1274672D01*
Y1268325D01*
X-66945Y1265151D01*
X-76467D01*
X-57424Y1258803D02*
Y1271498D01*
X-51076Y1277847D01*
X-44728Y1271498D01*
Y1258803D01*
Y1268325D01*
X-57424D01*
X-38380Y1277847D02*
X-25684D01*
X-32032D01*
Y1258803D01*
X-19336Y1277847D02*
X-6640D01*
X-12988D01*
Y1258803D01*
X12404Y1277847D02*
X-292D01*
Y1258803D01*
X12404D01*
X-292Y1268325D02*
X6056D01*
X18752Y1258803D02*
Y1277847D01*
X28274D01*
X31448Y1274672D01*
Y1268325D01*
X28274Y1265151D01*
X18752D01*
X25100D02*
X31448Y1258803D01*
X37796D02*
Y1277847D01*
X50492Y1258803D01*
Y1277847D01*
X75883Y1258803D02*
Y1271498D01*
X82231Y1277847D01*
X88579Y1271498D01*
Y1258803D01*
Y1268325D01*
X75883D01*
X94927Y1258803D02*
Y1277847D01*
X104449D01*
X107623Y1274672D01*
Y1268325D01*
X104449Y1265151D01*
X94927D01*
X101275D02*
X107623Y1258803D01*
X126667Y1277847D02*
X113971D01*
Y1258803D01*
X126667D01*
X113971Y1268325D02*
X120319D01*
X133015Y1258803D02*
Y1271498D01*
X139363Y1277847D01*
X145711Y1271498D01*
Y1258803D01*
Y1268325D01*
X133015D01*
X164755Y1274672D02*
X161581Y1277847D01*
X155233D01*
X152059Y1274672D01*
Y1271498D01*
X155233Y1268325D01*
X161581D01*
X164755Y1265151D01*
Y1261977D01*
X161581Y1258803D01*
X155233D01*
X152059Y1261977D01*
X190147Y1258803D02*
Y1277847D01*
X202843Y1258803D01*
Y1277847D01*
X218712D02*
X212364D01*
X209190Y1274672D01*
Y1261977D01*
X212364Y1258803D01*
X218712D01*
X221886Y1261977D01*
Y1274672D01*
X218712Y1277847D01*
X228234D02*
X240930D01*
X234582D01*
Y1258803D01*
X279018Y1274672D02*
X275844Y1277847D01*
X269496D01*
X266322Y1274672D01*
Y1261977D01*
X269496Y1258803D01*
X275844D01*
X279018Y1261977D01*
X294888Y1277847D02*
X288540D01*
X285366Y1274672D01*
Y1261977D01*
X288540Y1258803D01*
X294888D01*
X298062Y1261977D01*
Y1274672D01*
X294888Y1277847D01*
X304410D02*
Y1265151D01*
X310758Y1258803D01*
X317106Y1265151D01*
Y1277847D01*
X336149D02*
X323454D01*
Y1258803D01*
X336149D01*
X323454Y1268325D02*
X329801D01*
X342497Y1258803D02*
Y1277847D01*
X352019D01*
X355193Y1274672D01*
Y1268325D01*
X352019Y1265151D01*
X342497D01*
X348845D02*
X355193Y1258803D01*
X374237Y1277847D02*
X361541D01*
Y1258803D01*
X374237D01*
X361541Y1268325D02*
X367889D01*
X380585Y1277847D02*
Y1258803D01*
X390107D01*
X393281Y1261977D01*
Y1274672D01*
X390107Y1277847D01*
X380585D01*
X418673D02*
Y1258803D01*
X425021Y1265151D01*
X431369Y1258803D01*
Y1277847D01*
X437717D02*
X444065D01*
X440891D01*
Y1258803D01*
X437717D01*
X444065D01*
X453587Y1277847D02*
X466282D01*
X459935D01*
Y1258803D01*
X472630Y1277847D02*
Y1258803D01*
Y1268325D01*
X485326D01*
Y1277847D01*
Y1258803D01*
X523414Y1274672D02*
X520240Y1277847D01*
X513892D01*
X510718Y1274672D01*
Y1261977D01*
X513892Y1258803D01*
X520240D01*
X523414Y1261977D01*
X539284Y1277847D02*
X532936D01*
X529762Y1274672D01*
Y1261977D01*
X532936Y1258803D01*
X539284D01*
X542458Y1261977D01*
Y1274672D01*
X539284Y1277847D01*
X548806D02*
Y1265151D01*
X555154Y1258803D01*
X561502Y1265151D01*
Y1277847D01*
X580546D02*
X567850D01*
Y1258803D01*
X580546D01*
X567850Y1268325D02*
X574198D01*
X586894Y1258803D02*
Y1277847D01*
X596415D01*
X599589Y1274672D01*
Y1268325D01*
X596415Y1265151D01*
X586894D01*
X593242D02*
X599589Y1258803D01*
X605937Y1277847D02*
Y1258803D01*
X618633D01*
X624981D02*
Y1271498D01*
X631329Y1277847D01*
X637677Y1271498D01*
Y1258803D01*
Y1268325D01*
X624981D01*
X644025Y1277847D02*
Y1274672D01*
X650373Y1268325D01*
X656721Y1274672D01*
Y1277847D01*
X650373Y1268325D02*
Y1258803D01*
X682113D02*
Y1277847D01*
X688461Y1271498D01*
X694809Y1277847D01*
Y1258803D01*
X701157D02*
Y1271498D01*
X707505Y1277847D01*
X713852Y1271498D01*
Y1258803D01*
Y1268325D01*
X701157D01*
X720201Y1277847D02*
X732896D01*
X726548D01*
Y1258803D01*
X751940Y1277847D02*
X739244D01*
Y1258803D01*
X751940D01*
X739244Y1268325D02*
X745592D01*
X758288Y1258803D02*
Y1277847D01*
X767810D01*
X770984Y1274672D01*
Y1268325D01*
X767810Y1265151D01*
X758288D01*
X764636D02*
X770984Y1258803D01*
X777332Y1277847D02*
X783680D01*
X780506D01*
Y1258803D01*
X777332D01*
X783680D01*
X793202D02*
Y1271498D01*
X799550Y1277847D01*
X805898Y1271498D01*
Y1258803D01*
Y1268325D01*
X793202D01*
X812246Y1277847D02*
Y1258803D01*
X824942D01*
X859855Y1277847D02*
X853508D01*
X850333Y1274672D01*
Y1261977D01*
X853508Y1258803D01*
X859855D01*
X863029Y1261977D01*
Y1274672D01*
X859855Y1277847D01*
X869377Y1258803D02*
Y1277847D01*
X878899D01*
X882073Y1274672D01*
Y1268325D01*
X878899Y1265151D01*
X869377D01*
X875725D02*
X882073Y1258803D01*
X916987Y1277847D02*
X910639D01*
X907465Y1274672D01*
Y1261977D01*
X910639Y1258803D01*
X916987D01*
X920161Y1261977D01*
Y1274672D01*
X916987Y1277847D01*
X926509D02*
X939205D01*
X932857D01*
Y1258803D01*
X945553Y1277847D02*
Y1258803D01*
Y1268325D01*
X958249D01*
Y1277847D01*
Y1258803D01*
X977292Y1277847D02*
X964597D01*
Y1258803D01*
X977292D01*
X964597Y1268325D02*
X970945D01*
X983641Y1258803D02*
Y1277847D01*
X993162D01*
X996336Y1274672D01*
Y1268325D01*
X993162Y1265151D01*
X983641D01*
X989988D02*
X996336Y1258803D01*
X1021728D02*
Y1277847D01*
X1031250D01*
X1034424Y1274672D01*
Y1268325D01*
X1031250Y1265151D01*
X1021728D01*
X1040772Y1277847D02*
Y1258803D01*
X1053468D01*
X1059816D02*
Y1271498D01*
X1066164Y1277847D01*
X1072512Y1271498D01*
Y1258803D01*
Y1268325D01*
X1059816D01*
X1078860Y1277847D02*
X1091556D01*
X1085208D01*
Y1258803D01*
X1097904Y1277847D02*
X1104251D01*
X1101078D01*
Y1258803D01*
X1097904D01*
X1104251D01*
X1113773D02*
Y1277847D01*
X1126469Y1258803D01*
Y1277847D01*
X1145513Y1274672D02*
X1142339Y1277847D01*
X1135991D01*
X1132817Y1274672D01*
Y1261977D01*
X1135991Y1258803D01*
X1142339D01*
X1145513Y1261977D01*
Y1268325D01*
X1139165D01*
X-498606Y1245724D02*
X-501780Y1248898D01*
X-508128D01*
X-511302Y1245724D01*
Y1242550D01*
X-508128Y1239376D01*
X-501780D01*
X-498606Y1236202D01*
Y1233028D01*
X-501780Y1229854D01*
X-508128D01*
X-511302Y1233028D01*
X-492258Y1248898D02*
Y1229854D01*
Y1239376D01*
X-479562D01*
Y1248898D01*
Y1229854D01*
X-473214D02*
Y1242550D01*
X-466866Y1248898D01*
X-460518Y1242550D01*
Y1229854D01*
Y1239376D01*
X-473214D01*
X-454170Y1248898D02*
Y1229854D01*
X-441475D01*
X-435127Y1248898D02*
Y1229854D01*
X-422431D01*
X-397039Y1248898D02*
Y1229854D01*
X-387517D01*
X-384343Y1233028D01*
Y1236202D01*
X-387517Y1239376D01*
X-397039D01*
X-387517D01*
X-384343Y1242550D01*
Y1245724D01*
X-387517Y1248898D01*
X-397039D01*
X-365299D02*
X-377995D01*
Y1229854D01*
X-365299D01*
X-377995Y1239376D02*
X-371647D01*
X-339907Y1248898D02*
X-333559D01*
X-336733D01*
Y1229854D01*
X-339907D01*
X-333559D01*
X-324038D02*
Y1248898D01*
X-317689Y1242550D01*
X-311342Y1248898D01*
Y1229854D01*
X-304994D02*
Y1248898D01*
X-298646Y1242550D01*
X-292298Y1248898D01*
Y1229854D01*
X-273254Y1248898D02*
X-285950D01*
Y1229854D01*
X-273254D01*
X-285950Y1239376D02*
X-279602D01*
X-266906Y1229854D02*
Y1248898D01*
X-257384D01*
X-254210Y1245724D01*
Y1239376D01*
X-257384Y1236202D01*
X-266906D01*
X-260558D02*
X-254210Y1229854D01*
X-235166Y1245724D02*
X-238340Y1248898D01*
X-244688D01*
X-247862Y1245724D01*
Y1242550D01*
X-244688Y1239376D01*
X-238340D01*
X-235166Y1236202D01*
Y1233028D01*
X-238340Y1229854D01*
X-244688D01*
X-247862Y1233028D01*
X-228818Y1248898D02*
X-222470D01*
X-225644D01*
Y1229854D01*
X-228818D01*
X-222470D01*
X-203426Y1248898D02*
X-209774D01*
X-212948Y1245724D01*
Y1233028D01*
X-209774Y1229854D01*
X-203426D01*
X-200252Y1233028D01*
Y1245724D01*
X-203426Y1248898D01*
X-193904Y1229854D02*
Y1248898D01*
X-181209Y1229854D01*
Y1248898D01*
X-143121Y1245724D02*
X-146295Y1248898D01*
X-152643D01*
X-155817Y1245724D01*
Y1233028D01*
X-152643Y1229854D01*
X-146295D01*
X-143121Y1233028D01*
Y1239376D01*
X-149469D01*
X-127251Y1248898D02*
X-133599D01*
X-136773Y1245724D01*
Y1233028D01*
X-133599Y1229854D01*
X-127251D01*
X-124077Y1233028D01*
Y1245724D01*
X-127251Y1248898D01*
X-117729D02*
Y1229854D01*
X-105033D01*
X-98685Y1248898D02*
Y1229854D01*
X-89163D01*
X-85989Y1233028D01*
Y1245724D01*
X-89163Y1248898D01*
X-98685D01*
X-54250Y1229854D02*
X-60598Y1236202D01*
Y1242550D01*
X-54250Y1248898D01*
X-44728Y1245724D02*
X-41554Y1248898D01*
X-35206D01*
X-32032Y1245724D01*
Y1233028D01*
X-35206Y1229854D01*
X-41554D01*
X-44728Y1233028D01*
Y1245724D01*
X-25684Y1229854D02*
Y1233028D01*
X-22510D01*
Y1229854D01*
X-25684D01*
X-9814Y1245724D02*
X-6640Y1248898D01*
X-292D01*
X2882Y1245724D01*
Y1233028D01*
X-292Y1229854D01*
X-6640D01*
X-9814Y1233028D01*
Y1245724D01*
X9230D02*
X12404Y1248898D01*
X18752D01*
X21926Y1245724D01*
Y1233028D01*
X18752Y1229854D01*
X12404D01*
X9230Y1233028D01*
Y1245724D01*
X28274D02*
X31448Y1248898D01*
X37796D01*
X40970Y1245724D01*
Y1233028D01*
X37796Y1229854D01*
X31448D01*
X28274Y1233028D01*
Y1245724D01*
X47318D02*
X50492Y1248898D01*
X56840D01*
X60013Y1245724D01*
Y1233028D01*
X56840Y1229854D01*
X50492D01*
X47318Y1233028D01*
Y1245724D01*
X66361D02*
X69535Y1248898D01*
X75883D01*
X79057Y1245724D01*
Y1242550D01*
X75883Y1239376D01*
X72709D01*
X75883D01*
X79057Y1236202D01*
Y1233028D01*
X75883Y1229854D01*
X69535D01*
X66361Y1233028D01*
X85405Y1245724D02*
X88579Y1248898D01*
X94927D01*
X98101Y1245724D01*
Y1233028D01*
X94927Y1229854D01*
X88579D01*
X85405Y1233028D01*
Y1245724D01*
X104449Y1239376D02*
X117145D01*
X123493Y1245724D02*
X126667Y1248898D01*
X133015D01*
X136189Y1245724D01*
Y1233028D01*
X133015Y1229854D01*
X126667D01*
X123493Y1233028D01*
Y1245724D01*
X142537Y1229854D02*
Y1233028D01*
X145711D01*
Y1229854D01*
X142537D01*
X158407Y1245724D02*
X161581Y1248898D01*
X167929D01*
X171103Y1245724D01*
Y1233028D01*
X167929Y1229854D01*
X161581D01*
X158407Y1233028D01*
Y1245724D01*
X177451D02*
X180625Y1248898D01*
X186973D01*
X190147Y1245724D01*
Y1233028D01*
X186973Y1229854D01*
X180625D01*
X177451Y1233028D01*
Y1245724D01*
X196495D02*
X199669Y1248898D01*
X206016D01*
X209190Y1245724D01*
Y1233028D01*
X206016Y1229854D01*
X199669D01*
X196495Y1233028D01*
Y1245724D01*
X215538D02*
X218712Y1248898D01*
X225060D01*
X228234Y1245724D01*
Y1233028D01*
X225060Y1229854D01*
X218712D01*
X215538Y1233028D01*
Y1245724D01*
X234582Y1233028D02*
X237756Y1229854D01*
X244104D01*
X247278Y1233028D01*
Y1245724D01*
X244104Y1248898D01*
X237756D01*
X234582Y1245724D01*
Y1242550D01*
X237756Y1239376D01*
X247278D01*
X253626Y1245724D02*
X256800Y1248898D01*
X263148D01*
X266322Y1245724D01*
Y1233028D01*
X263148Y1229854D01*
X256800D01*
X253626Y1233028D01*
Y1245724D01*
X291714Y1229854D02*
Y1242550D01*
X294888D01*
X298062Y1239376D01*
Y1229854D01*
Y1239376D01*
X301236Y1242550D01*
X304410Y1239376D01*
Y1229854D01*
X310758D02*
Y1242550D01*
X313932D01*
X317106Y1239376D01*
Y1229854D01*
Y1239376D01*
X320280Y1242550D01*
X323453Y1239376D01*
Y1229854D01*
X329801D02*
X336149Y1236202D01*
Y1242550D01*
X329801Y1248898D01*
X374237D02*
X367889D01*
X364715Y1245724D01*
Y1233028D01*
X367889Y1229854D01*
X374237D01*
X377411Y1233028D01*
Y1245724D01*
X374237Y1248898D01*
X383759D02*
Y1236202D01*
X390107Y1229854D01*
X396455Y1236202D01*
Y1248898D01*
X415499D02*
X402803D01*
Y1229854D01*
X415499D01*
X402803Y1239376D02*
X409151D01*
X421847Y1229854D02*
Y1248898D01*
X431369D01*
X434543Y1245724D01*
Y1239376D01*
X431369Y1236202D01*
X421847D01*
X428195D02*
X434543Y1229854D01*
X472630Y1248898D02*
X459935D01*
Y1229854D01*
X472630D01*
X459935Y1239376D02*
X466282D01*
X478978Y1248898D02*
Y1229854D01*
X491674D01*
X510718Y1248898D02*
X498022D01*
Y1229854D01*
X510718D01*
X498022Y1239376D02*
X504370D01*
X529762Y1245724D02*
X526588Y1248898D01*
X520240D01*
X517066Y1245724D01*
Y1233028D01*
X520240Y1229854D01*
X526588D01*
X529762Y1233028D01*
X536110Y1248898D02*
X548806D01*
X542458D01*
Y1229854D01*
X555154D02*
Y1248898D01*
X564676D01*
X567850Y1245724D01*
Y1239376D01*
X564676Y1236202D01*
X555154D01*
X561502D02*
X567850Y1229854D01*
X583719Y1248898D02*
X577372D01*
X574198Y1245724D01*
Y1233028D01*
X577372Y1229854D01*
X583719D01*
X586894Y1233028D01*
Y1245724D01*
X583719Y1248898D01*
X593241D02*
Y1229854D01*
X605937D01*
X624981Y1248898D02*
X612285D01*
Y1229854D01*
X624981D01*
X612285Y1239376D02*
X618633D01*
X644025Y1245724D02*
X640851Y1248898D01*
X634503D01*
X631329Y1245724D01*
Y1242550D01*
X634503Y1239376D01*
X640851D01*
X644025Y1236202D01*
Y1233028D01*
X640851Y1229854D01*
X634503D01*
X631329Y1233028D01*
X663069Y1245724D02*
X659895Y1248898D01*
X653547D01*
X650373Y1245724D01*
Y1242550D01*
X653547Y1239376D01*
X659895D01*
X663069Y1236202D01*
Y1233028D01*
X659895Y1229854D01*
X653547D01*
X650373Y1233028D01*
X688461Y1229854D02*
Y1248898D01*
X701157Y1229854D01*
Y1248898D01*
X707505D02*
X713852D01*
X710678D01*
Y1229854D01*
X707505D01*
X713852D01*
X736070Y1245724D02*
X732896Y1248898D01*
X726548D01*
X723374Y1245724D01*
Y1233028D01*
X726548Y1229854D01*
X732896D01*
X736070Y1233028D01*
X742418Y1248898D02*
Y1229854D01*
Y1236202D01*
X755114Y1248898D01*
X745592Y1239376D01*
X755114Y1229854D01*
X774158Y1248898D02*
X761462D01*
Y1229854D01*
X774158D01*
X761462Y1239376D02*
X767810D01*
X780506Y1248898D02*
Y1229854D01*
X793202D01*
X824942D02*
X818594Y1236202D01*
Y1242550D01*
X824942Y1248898D01*
X834464Y1245724D02*
X837637Y1248898D01*
X843986D01*
X847159Y1245724D01*
Y1233028D01*
X843986Y1229854D01*
X837637D01*
X834464Y1233028D01*
Y1245724D01*
X853507Y1229854D02*
Y1233028D01*
X856681D01*
Y1229854D01*
X853507D01*
X869377Y1245724D02*
X872551Y1248898D01*
X878899D01*
X882073Y1245724D01*
Y1233028D01*
X878899Y1229854D01*
X872551D01*
X869377Y1233028D01*
Y1245724D01*
X888421D02*
X891595Y1248898D01*
X897943D01*
X901117Y1245724D01*
Y1233028D01*
X897943Y1229854D01*
X891595D01*
X888421Y1233028D01*
Y1245724D01*
X907465Y1229854D02*
X913813D01*
X910639D01*
Y1248898D01*
X907465Y1245724D01*
X923335Y1239376D02*
X936031D01*
X942379Y1245724D02*
X945553Y1248898D01*
X951901D01*
X955075Y1245724D01*
Y1233028D01*
X951901Y1229854D01*
X945553D01*
X942379Y1233028D01*
Y1245724D01*
X961423Y1229854D02*
Y1233028D01*
X964596D01*
Y1229854D01*
X961423D01*
X977292Y1245724D02*
X980466Y1248898D01*
X986814D01*
X989988Y1245724D01*
Y1233028D01*
X986814Y1229854D01*
X980466D01*
X977292Y1233028D01*
Y1245724D01*
X996336D02*
X999510Y1248898D01*
X1005858D01*
X1009032Y1245724D01*
Y1233028D01*
X1005858Y1229854D01*
X999510D01*
X996336Y1233028D01*
Y1245724D01*
X1028076Y1248898D02*
X1021728Y1245724D01*
X1015380Y1239376D01*
Y1233028D01*
X1018554Y1229854D01*
X1024902D01*
X1028076Y1233028D01*
Y1236202D01*
X1024902Y1239376D01*
X1015380D01*
X1053468Y1229854D02*
Y1242550D01*
X1056642D01*
X1059816Y1239376D01*
Y1229854D01*
Y1239376D01*
X1062990Y1242550D01*
X1066164Y1239376D01*
Y1229854D01*
X1072512D02*
Y1242550D01*
X1075686D01*
X1078860Y1239376D01*
Y1229854D01*
Y1239376D01*
X1082034Y1242550D01*
X1085208Y1239376D01*
Y1229854D01*
X1091556D02*
X1097904Y1236202D01*
Y1242550D01*
X1091556Y1248898D01*
X1107425Y1229854D02*
Y1233028D01*
X1110599D01*
Y1229854D01*
X1107425D01*
X-498606Y1191001D02*
X-511302D01*
Y1181479D01*
X-504954Y1184653D01*
X-501780D01*
X-498606Y1181479D01*
Y1175131D01*
X-501780Y1171957D01*
X-508128D01*
X-511302Y1175131D01*
X-492258Y1171957D02*
Y1175131D01*
X-489084D01*
Y1171957D01*
X-492258D01*
X-457344Y1191001D02*
Y1171957D01*
X-444649D01*
X-425605Y1191001D02*
X-438301D01*
Y1171957D01*
X-425605D01*
X-438301Y1181479D02*
X-431953D01*
X-406561Y1187827D02*
X-409735Y1191001D01*
X-416083D01*
X-419257Y1187827D01*
Y1175131D01*
X-416083Y1171957D01*
X-409735D01*
X-406561Y1175131D01*
Y1181479D01*
X-412909D01*
X-387517Y1191001D02*
X-400213D01*
Y1171957D01*
X-387517D01*
X-400213Y1181479D02*
X-393865D01*
X-381169Y1171957D02*
Y1191001D01*
X-368473Y1171957D01*
Y1191001D01*
X-362125D02*
Y1171957D01*
X-352603D01*
X-349429Y1175131D01*
Y1187827D01*
X-352603Y1191001D01*
X-362125D01*
X-311342Y1187827D02*
X-314515Y1191001D01*
X-320863D01*
X-324038Y1187827D01*
Y1184653D01*
X-320863Y1181479D01*
X-314515D01*
X-311342Y1178305D01*
Y1175131D01*
X-314515Y1171957D01*
X-320863D01*
X-324038Y1175131D01*
X-304994Y1191001D02*
Y1171957D01*
Y1181479D01*
X-292298D01*
Y1191001D01*
Y1171957D01*
X-285950D02*
Y1184653D01*
X-279602Y1191001D01*
X-273254Y1184653D01*
Y1171957D01*
Y1181479D01*
X-285950D01*
X-266906Y1191001D02*
Y1171957D01*
X-254210D01*
X-247862Y1191001D02*
Y1171957D01*
X-235166D01*
X-209774Y1191001D02*
Y1171957D01*
X-200252D01*
X-197078Y1175131D01*
Y1178305D01*
X-200252Y1181479D01*
X-209774D01*
X-200252D01*
X-197078Y1184653D01*
Y1187827D01*
X-200252Y1191001D01*
X-209774D01*
X-178035D02*
X-190730D01*
Y1171957D01*
X-178035D01*
X-190730Y1181479D02*
X-184382D01*
X-152643Y1191001D02*
Y1171957D01*
X-146295Y1178305D01*
X-139947Y1171957D01*
Y1191001D01*
X-133599D02*
Y1171957D01*
Y1181479D01*
X-120903D01*
Y1191001D01*
Y1171957D01*
X-114555Y1191001D02*
X-108207D01*
X-111381D01*
Y1171957D01*
X-114555D01*
X-108207D01*
X-98685Y1191001D02*
X-85989D01*
X-92337D01*
Y1171957D01*
X-66946Y1191001D02*
X-79641D01*
Y1171957D01*
X-66946D01*
X-79641Y1181479D02*
X-73293D01*
X-57424Y1168783D02*
X-54250Y1171957D01*
Y1175131D01*
X-57424D01*
Y1171957D01*
X-54250D01*
X-57424Y1168783D01*
X-60598Y1165609D01*
X-22510Y1171957D02*
Y1191001D01*
X-12988D01*
X-9814Y1187827D01*
Y1181479D01*
X-12988Y1178305D01*
X-22510D01*
X9230Y1191001D02*
X-3466D01*
Y1171957D01*
X9230D01*
X-3466Y1181479D02*
X2882D01*
X15578Y1171957D02*
Y1191001D01*
X25100D01*
X28274Y1187827D01*
Y1181479D01*
X25100Y1178305D01*
X15578D01*
X21926D02*
X28274Y1171957D01*
X34622D02*
Y1191001D01*
X40970Y1184653D01*
X47318Y1191001D01*
Y1171957D01*
X53666D02*
Y1184653D01*
X60014Y1191001D01*
X66361Y1184653D01*
Y1171957D01*
Y1181479D01*
X53666D01*
X72709Y1171957D02*
Y1191001D01*
X85405Y1171957D01*
Y1191001D01*
X104449D02*
X91753D01*
Y1171957D01*
X104449D01*
X91753Y1181479D02*
X98101D01*
X110797Y1171957D02*
Y1191001D01*
X123493Y1171957D01*
Y1191001D01*
X129841D02*
X142537D01*
X136189D01*
Y1171957D01*
X152059Y1168783D02*
X155233Y1171957D01*
Y1175131D01*
X152059D01*
Y1171957D01*
X155233D01*
X152059Y1168783D01*
X148885Y1165609D01*
X196495Y1191001D02*
X190147D01*
X186973Y1187827D01*
Y1175131D01*
X190147Y1171957D01*
X196495D01*
X199669Y1175131D01*
Y1187827D01*
X196495Y1191001D01*
X206017Y1171957D02*
Y1191001D01*
X215538D01*
X218712Y1187827D01*
Y1181479D01*
X215538Y1178305D01*
X206017D01*
X212364D02*
X218712Y1171957D01*
X237756Y1187827D02*
X234582Y1191001D01*
X228234D01*
X225060Y1187827D01*
Y1175131D01*
X228234Y1171957D01*
X234582D01*
X237756Y1175131D01*
Y1181479D01*
X231408D01*
X244104Y1171957D02*
Y1184653D01*
X250452Y1191001D01*
X256800Y1184653D01*
Y1171957D01*
Y1181479D01*
X244104D01*
X263148Y1171957D02*
Y1191001D01*
X275844Y1171957D01*
Y1191001D01*
X282192D02*
X288540D01*
X285366D01*
Y1171957D01*
X282192D01*
X288540D01*
X310758Y1187827D02*
X307584Y1191001D01*
X301236D01*
X298062Y1187827D01*
Y1175131D01*
X301236Y1171957D01*
X307584D01*
X310758Y1175131D01*
X320280Y1168783D02*
X323453Y1171957D01*
Y1175131D01*
X320280D01*
Y1171957D01*
X323453D01*
X320280Y1168783D01*
X317106Y1165609D01*
X355193Y1171957D02*
Y1191001D01*
X367889Y1171957D01*
Y1191001D01*
X383759D02*
X377411D01*
X374237Y1187827D01*
Y1175131D01*
X377411Y1171957D01*
X383759D01*
X386933Y1175131D01*
Y1187827D01*
X383759Y1191001D01*
X393281Y1171957D02*
Y1191001D01*
X405977Y1171957D01*
Y1191001D01*
X412325Y1181479D02*
X425021D01*
X444065Y1187827D02*
X440891Y1191001D01*
X434543D01*
X431369Y1187827D01*
Y1175131D01*
X434543Y1171957D01*
X440891D01*
X444065Y1175131D01*
X459935Y1191001D02*
X453587D01*
X450413Y1187827D01*
Y1175131D01*
X453587Y1171957D01*
X459935D01*
X463108Y1175131D01*
Y1187827D01*
X459935Y1191001D01*
X469456Y1171957D02*
Y1191001D01*
X482152Y1171957D01*
Y1191001D01*
X488500D02*
Y1171957D01*
X498022D01*
X501196Y1175131D01*
Y1187827D01*
X498022Y1191001D01*
X488500D01*
X507544D02*
Y1175131D01*
X510718Y1171957D01*
X517066D01*
X520240Y1175131D01*
Y1191001D01*
X539284Y1187827D02*
X536110Y1191001D01*
X529762D01*
X526588Y1187827D01*
Y1175131D01*
X529762Y1171957D01*
X536110D01*
X539284Y1175131D01*
X545632Y1191001D02*
X558328D01*
X551980D01*
Y1171957D01*
X564676Y1191001D02*
X571024D01*
X567850D01*
Y1171957D01*
X564676D01*
X571024D01*
X580546Y1191001D02*
Y1178305D01*
X586894Y1171957D01*
X593241Y1178305D01*
Y1191001D01*
X612285D02*
X599589D01*
Y1171957D01*
X612285D01*
X599589Y1181479D02*
X605937D01*
X637677Y1191001D02*
Y1175131D01*
X640851Y1171957D01*
X647199D01*
X650373Y1175131D01*
Y1191001D01*
X656721D02*
Y1178305D01*
X663069Y1171957D01*
X669417Y1178305D01*
Y1191001D01*
X704331D02*
X697983D01*
X694809Y1187827D01*
Y1175131D01*
X697983Y1171957D01*
X704331D01*
X707505Y1175131D01*
Y1187827D01*
X704331Y1191001D01*
X713852Y1171957D02*
Y1191001D01*
X723374D01*
X726548Y1187827D01*
Y1181479D01*
X723374Y1178305D01*
X713852D01*
X720201D02*
X726548Y1171957D01*
X764636Y1191001D02*
X751940D01*
Y1171957D01*
X764636D01*
X751940Y1181479D02*
X758288D01*
X770984Y1171957D02*
Y1191001D01*
X780506D01*
X783680Y1187827D01*
Y1181479D01*
X780506Y1178305D01*
X770984D01*
X799550Y1191001D02*
X793202D01*
X790028Y1187827D01*
Y1175131D01*
X793202Y1171957D01*
X799550D01*
X802724Y1175131D01*
Y1187827D01*
X799550Y1191001D01*
X809072D02*
X821768Y1171957D01*
Y1191001D02*
X809072Y1171957D01*
X828116Y1191001D02*
Y1187827D01*
X834464Y1181479D01*
X840811Y1187827D01*
Y1191001D01*
X834464Y1181479D02*
Y1171957D01*
X866203Y1191001D02*
X878899D01*
X872551D01*
Y1171957D01*
X885247Y1191001D02*
Y1187827D01*
X891595Y1181479D01*
X897943Y1187827D01*
Y1191001D01*
X891595Y1181479D02*
Y1171957D01*
X904291D02*
Y1191001D01*
X913813D01*
X916987Y1187827D01*
Y1181479D01*
X913813Y1178305D01*
X904291D01*
X936031Y1191001D02*
X923335D01*
Y1171957D01*
X936031D01*
X923335Y1181479D02*
X929683D01*
X961423Y1191001D02*
X967771D01*
X964597D01*
Y1171957D01*
X961423D01*
X967771D01*
X977292D02*
Y1191001D01*
X989988Y1171957D01*
Y1191001D01*
X996336D02*
Y1171957D01*
Y1178305D01*
X1009032Y1191001D01*
X999510Y1181479D01*
X1009032Y1171957D01*
X1034424D02*
Y1184653D01*
X1040772Y1191001D01*
X1047120Y1184653D01*
Y1171957D01*
Y1181479D01*
X1034424D01*
X1053468Y1171957D02*
Y1191001D01*
X1062990D01*
X1066164Y1187827D01*
Y1181479D01*
X1062990Y1178305D01*
X1053468D01*
X1072512Y1171957D02*
Y1191001D01*
X1082034D01*
X1085208Y1187827D01*
Y1181479D01*
X1082034Y1178305D01*
X1072512D01*
X1091556Y1191001D02*
Y1171957D01*
X1104251D01*
X1110600Y1191001D02*
X1116947D01*
X1113773D01*
Y1171957D01*
X1110600D01*
X1116947D01*
X1139165Y1191001D02*
X1126469D01*
Y1171957D01*
X1139165D01*
X1126469Y1181479D02*
X1132817D01*
X1145513Y1191001D02*
Y1171957D01*
X1155035D01*
X1158209Y1175131D01*
Y1187827D01*
X1155035Y1191001D01*
X1145513D01*
X-511302Y1162052D02*
X-498606D01*
X-504954D01*
Y1143008D01*
X-482736Y1162052D02*
X-489084D01*
X-492258Y1158878D01*
Y1146182D01*
X-489084Y1143008D01*
X-482736D01*
X-479562Y1146182D01*
Y1158878D01*
X-482736Y1162052D01*
X-454170D02*
X-441475D01*
X-447822D01*
Y1143008D01*
X-435127Y1162052D02*
Y1143008D01*
Y1152530D01*
X-422431D01*
Y1162052D01*
Y1143008D01*
X-403387Y1162052D02*
X-416083D01*
Y1143008D01*
X-403387D01*
X-416083Y1152530D02*
X-409735D01*
X-377995Y1162052D02*
X-365299D01*
X-371647D01*
Y1143008D01*
X-349429Y1162052D02*
X-355777D01*
X-358951Y1158878D01*
Y1146182D01*
X-355777Y1143008D01*
X-349429D01*
X-346255Y1146182D01*
Y1158878D01*
X-349429Y1162052D01*
X-339907Y1143008D02*
Y1162052D01*
X-330385D01*
X-327211Y1158878D01*
Y1152530D01*
X-330385Y1149356D01*
X-339907D01*
X-289124Y1158878D02*
X-292298Y1162052D01*
X-298646D01*
X-301820Y1158878D01*
Y1155704D01*
X-298646Y1152530D01*
X-292298D01*
X-289124Y1149356D01*
Y1146182D01*
X-292298Y1143008D01*
X-298646D01*
X-301820Y1146182D01*
X-282776Y1162052D02*
X-276428D01*
X-279602D01*
Y1143008D01*
X-282776D01*
X-276428D01*
X-266906Y1162052D02*
Y1143008D01*
X-257384D01*
X-254210Y1146182D01*
Y1158878D01*
X-257384Y1162052D01*
X-266906D01*
X-235166D02*
X-247862D01*
Y1143008D01*
X-235166D01*
X-247862Y1152530D02*
X-241514D01*
X-200252Y1162052D02*
X-206600D01*
X-209774Y1158878D01*
Y1146182D01*
X-206600Y1143008D01*
X-200252D01*
X-197078Y1146182D01*
Y1158878D01*
X-200252Y1162052D01*
X-178035D02*
X-190730D01*
Y1152530D01*
X-184382D01*
X-190730D01*
Y1143008D01*
X-152643Y1162052D02*
X-139947D01*
X-146295D01*
Y1143008D01*
X-133599Y1162052D02*
Y1143008D01*
Y1152530D01*
X-120903D01*
Y1162052D01*
Y1143008D01*
X-101859Y1162052D02*
X-114555D01*
Y1143008D01*
X-101859D01*
X-114555Y1152530D02*
X-108207D01*
X-76467Y1162052D02*
Y1143008D01*
X-66945D01*
X-63772Y1146182D01*
Y1149356D01*
X-66945Y1152530D01*
X-76467D01*
X-66945D01*
X-63772Y1155704D01*
Y1158878D01*
X-66945Y1162052D01*
X-76467D01*
X-47902D02*
X-54250D01*
X-57424Y1158878D01*
Y1146182D01*
X-54250Y1143008D01*
X-47902D01*
X-44728Y1146182D01*
Y1158878D01*
X-47902Y1162052D01*
X-38380Y1143008D02*
Y1155704D01*
X-32032Y1162052D01*
X-25684Y1155704D01*
Y1143008D01*
Y1152530D01*
X-38380D01*
X-19336Y1143008D02*
Y1162052D01*
X-9814D01*
X-6640Y1158878D01*
Y1152530D01*
X-9814Y1149356D01*
X-19336D01*
X-12988D02*
X-6640Y1143008D01*
X-292Y1162052D02*
Y1143008D01*
X9230D01*
X12404Y1146182D01*
Y1158878D01*
X9230Y1162052D01*
X-292D01*
X18752Y1143008D02*
Y1146182D01*
X21926D01*
Y1143008D01*
X18752D01*
X53666Y1162052D02*
X66361D01*
X60014D01*
Y1143008D01*
X72709Y1162052D02*
Y1143008D01*
Y1152530D01*
X85405D01*
Y1162052D01*
Y1143008D01*
X104449Y1162052D02*
X91753D01*
Y1143008D01*
X104449D01*
X91753Y1152530D02*
X98101D01*
X110797Y1143008D02*
Y1162052D01*
X120319D01*
X123493Y1158878D01*
Y1152530D01*
X120319Y1149356D01*
X110797D01*
X117145D02*
X123493Y1143008D01*
X142537Y1162052D02*
X129841D01*
Y1143008D01*
X142537D01*
X129841Y1152530D02*
X136189D01*
X180625Y1158878D02*
X177451Y1162052D01*
X171103D01*
X167929Y1158878D01*
Y1155704D01*
X171103Y1152530D01*
X177451D01*
X180625Y1149356D01*
Y1146182D01*
X177451Y1143008D01*
X171103D01*
X167929Y1146182D01*
X186973Y1162052D02*
Y1143008D01*
Y1152530D01*
X199669D01*
Y1162052D01*
Y1143008D01*
X206017D02*
Y1155704D01*
X212364Y1162052D01*
X218712Y1155704D01*
Y1143008D01*
Y1152530D01*
X206017D01*
X225060Y1162052D02*
Y1143008D01*
X237756D01*
X244104Y1162052D02*
Y1143008D01*
X256800D01*
X282192Y1162052D02*
Y1143008D01*
X291714D01*
X294888Y1146182D01*
Y1149356D01*
X291714Y1152530D01*
X282192D01*
X291714D01*
X294888Y1155704D01*
Y1158878D01*
X291714Y1162052D01*
X282192D01*
X313932D02*
X301236D01*
Y1143008D01*
X313932D01*
X301236Y1152530D02*
X307584D01*
X339323Y1143008D02*
Y1162052D01*
X352019Y1143008D01*
Y1162052D01*
X367889D02*
X361541D01*
X358367Y1158878D01*
Y1146182D01*
X361541Y1143008D01*
X367889D01*
X371063Y1146182D01*
Y1158878D01*
X367889Y1162052D01*
X396455D02*
Y1143008D01*
X409151D01*
X428195Y1162052D02*
X415499D01*
Y1143008D01*
X428195D01*
X415499Y1152530D02*
X421847D01*
X447239Y1158878D02*
X444065Y1162052D01*
X437717D01*
X434543Y1158878D01*
Y1146182D01*
X437717Y1143008D01*
X444065D01*
X447239Y1146182D01*
Y1152530D01*
X440891D01*
X466282Y1162052D02*
X453587D01*
Y1143008D01*
X466282D01*
X453587Y1152530D02*
X459935D01*
X472630Y1143008D02*
Y1162052D01*
X485326Y1143008D01*
Y1162052D01*
X491674D02*
Y1143008D01*
X501196D01*
X504370Y1146182D01*
Y1158878D01*
X501196Y1162052D01*
X491674D01*
X539284D02*
X532936D01*
X529762Y1158878D01*
Y1146182D01*
X532936Y1143008D01*
X539284D01*
X542458Y1146182D01*
Y1158878D01*
X539284Y1162052D01*
X548806Y1143008D02*
Y1162052D01*
X561502Y1143008D01*
Y1162052D01*
X586894Y1143008D02*
Y1155704D01*
X593242Y1162052D01*
X599589Y1155704D01*
Y1143008D01*
Y1152530D01*
X586894D01*
X605937Y1143008D02*
Y1162052D01*
X618633Y1143008D01*
Y1162052D01*
X624981D02*
Y1158878D01*
X631329Y1152530D01*
X637677Y1158878D01*
Y1162052D01*
X631329Y1152530D02*
Y1143008D01*
X675765Y1158878D02*
X672591Y1162052D01*
X666243D01*
X663069Y1158878D01*
Y1155704D01*
X666243Y1152530D01*
X672591D01*
X675765Y1149356D01*
Y1146182D01*
X672591Y1143008D01*
X666243D01*
X663069Y1146182D01*
X691635Y1162052D02*
X685287D01*
X682113Y1158878D01*
Y1146182D01*
X685287Y1143008D01*
X691635D01*
X694809Y1146182D01*
Y1158878D01*
X691635Y1162052D01*
X701157D02*
Y1143008D01*
X713852D01*
X720201Y1162052D02*
Y1143008D01*
X729722D01*
X732896Y1146182D01*
Y1158878D01*
X729722Y1162052D01*
X720201D01*
X751940D02*
X739244D01*
Y1143008D01*
X751940D01*
X739244Y1152530D02*
X745592D01*
X758288Y1143008D02*
Y1162052D01*
X767810D01*
X770984Y1158878D01*
Y1152530D01*
X767810Y1149356D01*
X758288D01*
X764636D02*
X770984Y1143008D01*
X777332D02*
Y1155704D01*
X783680Y1162052D01*
X790028Y1155704D01*
Y1143008D01*
Y1152530D01*
X777332D01*
X796376Y1162052D02*
Y1143008D01*
X805898D01*
X809072Y1146182D01*
Y1149356D01*
X805898Y1152530D01*
X796376D01*
X805898D01*
X809072Y1155704D01*
Y1158878D01*
X805898Y1162052D01*
X796376D01*
X815420D02*
Y1143008D01*
X828116D01*
X847160Y1162052D02*
X834464D01*
Y1143008D01*
X847160D01*
X834464Y1152530D02*
X840812D01*
X885247Y1158878D02*
X882073Y1162052D01*
X875725D01*
X872551Y1158878D01*
Y1146182D01*
X875725Y1143008D01*
X882073D01*
X885247Y1146182D01*
X901117Y1162052D02*
X894769D01*
X891595Y1158878D01*
Y1146182D01*
X894769Y1143008D01*
X901117D01*
X904291Y1146182D01*
Y1158878D01*
X901117Y1162052D01*
X910639Y1143008D02*
Y1162052D01*
X916987Y1155704D01*
X923335Y1162052D01*
Y1143008D01*
X929683D02*
Y1162052D01*
X939205D01*
X942379Y1158878D01*
Y1152530D01*
X939205Y1149356D01*
X929683D01*
X958249Y1162052D02*
X951901D01*
X948727Y1158878D01*
Y1146182D01*
X951901Y1143008D01*
X958249D01*
X961423Y1146182D01*
Y1158878D01*
X958249Y1162052D01*
X967771Y1143008D02*
Y1162052D01*
X980467Y1143008D01*
Y1162052D01*
X999510D02*
X986814D01*
Y1143008D01*
X999510D01*
X986814Y1152530D02*
X993162D01*
X1005858Y1143008D02*
Y1162052D01*
X1018554Y1143008D01*
Y1162052D01*
X1024902D02*
X1037598D01*
X1031250D01*
Y1143008D01*
X1062990Y1162052D02*
Y1143008D01*
X1075686D01*
X1082034D02*
Y1155704D01*
X1088382Y1162052D01*
X1094730Y1155704D01*
Y1143008D01*
Y1152530D01*
X1082034D01*
X1101078Y1143008D02*
Y1162052D01*
X1113773Y1143008D01*
Y1162052D01*
X1120121D02*
Y1143008D01*
X1129643D01*
X1132817Y1146182D01*
Y1158878D01*
X1129643Y1162052D01*
X1120121D01*
X1139165Y1143008D02*
Y1146182D01*
X1142339D01*
Y1143008D01*
X1139165D01*
X-498606Y1104155D02*
X-504954Y1100981D01*
X-511302Y1094633D01*
Y1088285D01*
X-508128Y1085111D01*
X-501780D01*
X-498606Y1088285D01*
Y1091459D01*
X-501780Y1094633D01*
X-511302D01*
X-492258Y1085111D02*
Y1088285D01*
X-489084D01*
Y1085111D01*
X-492258D01*
X-457344D02*
Y1097807D01*
X-450997Y1104155D01*
X-444649Y1097807D01*
Y1085111D01*
Y1094633D01*
X-457344D01*
X-438301Y1104155D02*
Y1085111D01*
X-425605D01*
X-419257Y1104155D02*
Y1085111D01*
X-406561D01*
X-381169D02*
Y1097807D01*
X-374821Y1104155D01*
X-368473Y1097807D01*
Y1085111D01*
Y1094633D01*
X-381169D01*
X-349429Y1100981D02*
X-352603Y1104155D01*
X-358951D01*
X-362125Y1100981D01*
Y1097807D01*
X-358951Y1094633D01*
X-352603D01*
X-349429Y1091459D01*
Y1088285D01*
X-352603Y1085111D01*
X-358951D01*
X-362125Y1088285D01*
X-330385Y1100981D02*
X-333559Y1104155D01*
X-339907D01*
X-343081Y1100981D01*
Y1097807D01*
X-339907Y1094633D01*
X-333559D01*
X-330385Y1091459D01*
Y1088285D01*
X-333559Y1085111D01*
X-339907D01*
X-343081Y1088285D01*
X-311342Y1104155D02*
X-324038D01*
Y1085111D01*
X-311342D01*
X-324038Y1094633D02*
X-317689D01*
X-304994Y1085111D02*
Y1104155D01*
X-298646Y1097807D01*
X-292298Y1104155D01*
Y1085111D01*
X-285950Y1104155D02*
Y1085111D01*
X-276428D01*
X-273254Y1088285D01*
Y1091459D01*
X-276428Y1094633D01*
X-285950D01*
X-276428D01*
X-273254Y1097807D01*
Y1100981D01*
X-276428Y1104155D01*
X-285950D01*
X-266906D02*
Y1085111D01*
X-254210D01*
X-247862Y1104155D02*
Y1100981D01*
X-241514Y1094633D01*
X-235166Y1100981D01*
Y1104155D01*
X-241514Y1094633D02*
Y1085111D01*
X-209774D02*
Y1104155D01*
X-203426Y1097807D01*
X-197078Y1104155D01*
Y1085111D01*
X-190730D02*
Y1097807D01*
X-184382Y1104155D01*
X-178035Y1097807D01*
Y1085111D01*
Y1094633D01*
X-190730D01*
X-171687Y1104155D02*
X-158991D01*
X-165339D01*
Y1085111D01*
X-139947Y1104155D02*
X-152643D01*
Y1085111D01*
X-139947D01*
X-152643Y1094633D02*
X-146295D01*
X-133599Y1085111D02*
Y1104155D01*
X-124077D01*
X-120903Y1100981D01*
Y1094633D01*
X-124077Y1091459D01*
X-133599D01*
X-127251D02*
X-120903Y1085111D01*
X-114555Y1104155D02*
X-108207D01*
X-111381D01*
Y1085111D01*
X-114555D01*
X-108207D01*
X-98685D02*
Y1097807D01*
X-92337Y1104155D01*
X-85989Y1097807D01*
Y1085111D01*
Y1094633D01*
X-98685D01*
X-79641Y1104155D02*
Y1085111D01*
X-66946D01*
X-47902Y1100981D02*
X-51076Y1104155D01*
X-57424D01*
X-60598Y1100981D01*
Y1097807D01*
X-57424Y1094633D01*
X-51076D01*
X-47902Y1091459D01*
Y1088285D01*
X-51076Y1085111D01*
X-57424D01*
X-60598Y1088285D01*
X-22510Y1104155D02*
X-9814D01*
X-16162D01*
Y1085111D01*
X6056Y1104155D02*
X-292D01*
X-3466Y1100981D01*
Y1088285D01*
X-292Y1085111D01*
X6056D01*
X9230Y1088285D01*
Y1100981D01*
X6056Y1104155D01*
X34622D02*
Y1085111D01*
X44144D01*
X47318Y1088285D01*
Y1091459D01*
X44144Y1094633D01*
X34622D01*
X44144D01*
X47318Y1097807D01*
Y1100981D01*
X44144Y1104155D01*
X34622D01*
X66361D02*
X53666D01*
Y1085111D01*
X66361D01*
X53666Y1094633D02*
X60014D01*
X91753Y1085111D02*
Y1104155D01*
X101275D01*
X104449Y1100981D01*
Y1094633D01*
X101275Y1091459D01*
X91753D01*
X98101D02*
X104449Y1085111D01*
X113971D02*
X120319D01*
X123493Y1088285D01*
Y1094633D01*
X120319Y1097807D01*
X113971D01*
X110797Y1094633D01*
Y1088285D01*
X113971Y1085111D01*
X129841Y1104155D02*
Y1085111D01*
Y1094633D01*
X142537D01*
Y1104155D01*
Y1085111D01*
X161581Y1100981D02*
X158407Y1104155D01*
X152059D01*
X148885Y1100981D01*
Y1097807D01*
X152059Y1094633D01*
X158407D01*
X161581Y1091459D01*
Y1088285D01*
X158407Y1085111D01*
X152059D01*
X148885Y1088285D01*
X199669Y1100981D02*
X196495Y1104155D01*
X190147D01*
X186973Y1100981D01*
Y1088285D01*
X190147Y1085111D01*
X196495D01*
X199669Y1088285D01*
X215538Y1104155D02*
X209190D01*
X206017Y1100981D01*
Y1088285D01*
X209190Y1085111D01*
X215538D01*
X218712Y1088285D01*
Y1100981D01*
X215538Y1104155D01*
X225060Y1085111D02*
Y1104155D01*
X231408Y1097807D01*
X237756Y1104155D01*
Y1085111D01*
X244104D02*
Y1104155D01*
X253626D01*
X256800Y1100981D01*
Y1094633D01*
X253626Y1091459D01*
X244104D01*
X263148Y1104155D02*
Y1085111D01*
X275844D01*
X282192Y1104155D02*
X288540D01*
X285366D01*
Y1085111D01*
X282192D01*
X288540D01*
X298062D02*
Y1097807D01*
X304410Y1104155D01*
X310758Y1097807D01*
Y1085111D01*
Y1094633D01*
X298062D01*
X317106Y1085111D02*
Y1104155D01*
X329801Y1085111D01*
Y1104155D01*
X336149D02*
X348845D01*
X342497D01*
Y1085111D01*
X355193D02*
Y1088285D01*
X358367D01*
Y1085111D01*
X355193D01*
X-511302Y1043083D02*
X-498606D01*
Y1039910D01*
X-511302Y1027214D01*
Y1024040D01*
X-492258D02*
Y1027214D01*
X-489084D01*
Y1024040D01*
X-492258D01*
X-457344Y1043083D02*
X-444649D01*
X-450997D01*
Y1024040D01*
X-438301Y1043083D02*
Y1024040D01*
Y1033561D01*
X-425605D01*
Y1043083D01*
Y1024040D01*
X-419257Y1043083D02*
X-412909D01*
X-416083D01*
Y1024040D01*
X-419257D01*
X-412909D01*
X-390691Y1039910D02*
X-393865Y1043083D01*
X-400213D01*
X-403387Y1039910D01*
Y1036736D01*
X-400213Y1033561D01*
X-393865D01*
X-390691Y1030388D01*
Y1027214D01*
X-393865Y1024040D01*
X-400213D01*
X-403387Y1027214D01*
X-365299Y1043083D02*
X-358951D01*
X-362125D01*
Y1024040D01*
X-365299D01*
X-358951D01*
X-336733Y1039910D02*
X-339907Y1043083D01*
X-346255D01*
X-349429Y1039910D01*
Y1036736D01*
X-346255Y1033561D01*
X-339907D01*
X-336733Y1030388D01*
Y1027214D01*
X-339907Y1024040D01*
X-346255D01*
X-349429Y1027214D01*
X-311342Y1024040D02*
Y1036736D01*
X-304994Y1043083D01*
X-298646Y1036736D01*
Y1024040D01*
Y1033561D01*
X-311342D01*
X-273254Y1024040D02*
Y1043083D01*
X-260558Y1024040D01*
Y1043083D01*
X-244688D02*
X-251036D01*
X-254210Y1039910D01*
Y1027214D01*
X-251036Y1024040D01*
X-244688D01*
X-241514Y1027214D01*
Y1039910D01*
X-244688Y1043083D01*
X-235166Y1024040D02*
Y1043083D01*
X-222470Y1024040D01*
Y1043083D01*
X-216122Y1033561D02*
X-203426D01*
X-197078Y1043083D02*
Y1024040D01*
X-190730Y1030388D01*
X-184383Y1024040D01*
Y1043083D01*
X-178035Y1024040D02*
Y1036736D01*
X-171687Y1043083D01*
X-165339Y1036736D01*
Y1024040D01*
Y1033561D01*
X-178035D01*
X-146295Y1039910D02*
X-149469Y1043083D01*
X-155817D01*
X-158991Y1039910D01*
Y1036736D01*
X-155817Y1033561D01*
X-149469D01*
X-146295Y1030388D01*
Y1027214D01*
X-149469Y1024040D01*
X-155817D01*
X-158991Y1027214D01*
X-139947Y1043083D02*
Y1024040D01*
Y1033561D01*
X-127251D01*
Y1043083D01*
Y1024040D01*
X-120903D02*
Y1036736D01*
X-114555Y1043083D01*
X-108207Y1036736D01*
Y1024040D01*
Y1033561D01*
X-120903D01*
X-101859Y1043083D02*
Y1024040D01*
X-92337D01*
X-89163Y1027214D01*
Y1030388D01*
X-92337Y1033561D01*
X-101859D01*
X-92337D01*
X-89163Y1036736D01*
Y1039910D01*
X-92337Y1043083D01*
X-101859D01*
X-82815D02*
Y1024040D01*
X-70119D01*
X-51076Y1043083D02*
X-63772D01*
Y1024040D01*
X-51076D01*
X-63772Y1033561D02*
X-57424D01*
X-25684Y1024040D02*
Y1036736D01*
X-19336Y1043083D01*
X-12988Y1036736D01*
Y1024040D01*
Y1033561D01*
X-25684D01*
X6056Y1039910D02*
X2882Y1043083D01*
X-3466D01*
X-6640Y1039910D01*
Y1036736D01*
X-3466Y1033561D01*
X2882D01*
X6056Y1030388D01*
Y1027214D01*
X2882Y1024040D01*
X-3466D01*
X-6640Y1027214D01*
X25100Y1039910D02*
X21926Y1043083D01*
X15578D01*
X12404Y1039910D01*
Y1036736D01*
X15578Y1033561D01*
X21926D01*
X25100Y1030388D01*
Y1027214D01*
X21926Y1024040D01*
X15578D01*
X12404Y1027214D01*
X44144Y1043083D02*
X31448D01*
Y1024040D01*
X44144D01*
X31448Y1033561D02*
X37796D01*
X50492Y1024040D02*
Y1043083D01*
X56840Y1036736D01*
X63187Y1043083D01*
Y1024040D01*
X69535Y1043083D02*
Y1024040D01*
X79057D01*
X82231Y1027214D01*
Y1030388D01*
X79057Y1033561D01*
X69535D01*
X79057D01*
X82231Y1036736D01*
Y1039910D01*
X79057Y1043083D01*
X69535D01*
X88579D02*
Y1024040D01*
X101275D01*
X107623Y1043083D02*
Y1039910D01*
X113971Y1033561D01*
X120319Y1039910D01*
Y1043083D01*
X113971Y1033561D02*
Y1024040D01*
X126667Y1030388D02*
Y1046257D01*
Y1027214D02*
Y1024040D01*
X-511302Y982012D02*
X-508128Y985186D01*
X-501780D01*
X-498606Y982012D01*
Y978838D01*
X-501780Y975664D01*
X-498606Y972490D01*
Y969316D01*
X-501780Y966142D01*
X-508128D01*
X-511302Y969316D01*
Y972490D01*
X-508128Y975664D01*
X-511302Y978838D01*
Y982012D01*
X-508128Y975664D02*
X-501780D01*
X-492258Y966142D02*
Y969316D01*
X-489084D01*
Y966142D01*
X-492258D01*
X-457344D02*
Y978838D01*
X-450997Y985186D01*
X-444649Y978838D01*
Y966142D01*
Y975664D01*
X-457344D01*
X-438301Y966142D02*
Y985186D01*
X-425605Y966142D01*
Y985186D01*
X-419257D02*
Y982012D01*
X-412909Y975664D01*
X-406561Y982012D01*
Y985186D01*
X-412909Y975664D02*
Y966142D01*
X-381169Y985186D02*
Y966142D01*
X-368473D01*
X-362125D02*
Y978838D01*
X-355777Y985186D01*
X-349429Y978838D01*
Y966142D01*
Y975664D01*
X-362125D01*
X-343081Y985186D02*
Y966142D01*
X-333559D01*
X-330385Y969316D01*
Y972490D01*
X-333559Y975664D01*
X-343081D01*
X-333559D01*
X-330385Y978838D01*
Y982012D01*
X-333559Y985186D01*
X-343081D01*
X-311342D02*
X-324038D01*
Y966142D01*
X-311342D01*
X-324038Y975664D02*
X-317689D01*
X-304994Y985186D02*
Y966142D01*
X-292298D01*
X-273254Y982012D02*
X-276428Y985186D01*
X-282776D01*
X-285950Y982012D01*
Y978838D01*
X-282776Y975664D01*
X-276428D01*
X-273254Y972490D01*
Y969316D01*
X-276428Y966142D01*
X-282776D01*
X-285950Y969316D01*
X-238340Y985186D02*
X-244688D01*
X-247862Y982012D01*
Y969316D01*
X-244688Y966142D01*
X-238340D01*
X-235166Y969316D01*
Y982012D01*
X-238340Y985186D01*
X-228818Y966142D02*
Y985186D01*
X-219296D01*
X-216122Y982012D01*
Y975664D01*
X-219296Y972490D01*
X-228818D01*
X-222470D02*
X-216122Y966142D01*
X-178035Y982012D02*
X-181209Y985186D01*
X-187556D01*
X-190730Y982012D01*
Y969316D01*
X-187556Y966142D01*
X-181209D01*
X-178035Y969316D01*
X-162165Y985186D02*
X-168513D01*
X-171687Y982012D01*
Y969316D01*
X-168513Y966142D01*
X-162165D01*
X-158991Y969316D01*
Y982012D01*
X-162165Y985186D01*
X-152643Y966142D02*
Y985186D01*
X-146295Y978838D01*
X-139947Y985186D01*
Y966142D01*
X-133599D02*
Y985186D01*
X-124077D01*
X-120903Y982012D01*
Y975664D01*
X-124077Y972490D01*
X-133599D01*
X-105033Y985186D02*
X-111381D01*
X-114555Y982012D01*
Y969316D01*
X-111381Y966142D01*
X-105033D01*
X-101859Y969316D01*
Y982012D01*
X-105033Y985186D01*
X-82815Y982012D02*
X-85989Y985186D01*
X-92337D01*
X-95511Y982012D01*
Y978838D01*
X-92337Y975664D01*
X-85989D01*
X-82815Y972490D01*
Y969316D01*
X-85989Y966142D01*
X-92337D01*
X-95511Y969316D01*
X-76467Y985186D02*
X-70119D01*
X-73293D01*
Y966142D01*
X-76467D01*
X-70119D01*
X-60598Y985186D02*
X-47902D01*
X-54250D01*
Y966142D01*
X-41554Y985186D02*
X-35206D01*
X-38380D01*
Y966142D01*
X-41554D01*
X-35206D01*
X-16162Y985186D02*
X-22510D01*
X-25684Y982012D01*
Y969316D01*
X-22510Y966142D01*
X-16162D01*
X-12988Y969316D01*
Y982012D01*
X-16162Y985186D01*
X-6640Y966142D02*
Y985186D01*
X6056Y966142D01*
Y985186D01*
X40970D02*
X34622D01*
X31448Y982012D01*
Y969316D01*
X34622Y966142D01*
X40970D01*
X44144Y969316D01*
Y982012D01*
X40970Y985186D01*
X63187D02*
X50492D01*
Y975664D01*
X56840D01*
X50492D01*
Y966142D01*
X72709Y962968D02*
X75883Y966142D01*
Y969316D01*
X72709D01*
Y966142D01*
X75883D01*
X72709Y962968D01*
X69535Y959794D01*
X107623Y966142D02*
Y978838D01*
X113971Y985186D01*
X120319Y978838D01*
Y966142D01*
Y975664D01*
X107623D01*
X126667Y966142D02*
Y985186D01*
X136189D01*
X139363Y982012D01*
Y975664D01*
X136189Y972490D01*
X126667D01*
X145711Y966142D02*
Y985186D01*
X155233D01*
X158407Y982012D01*
Y975664D01*
X155233Y972490D01*
X145711D01*
X164755Y985186D02*
Y966142D01*
X177451D01*
X183799Y985186D02*
X190147D01*
X186973D01*
Y966142D01*
X183799D01*
X190147D01*
X212364Y985186D02*
X199669D01*
Y966142D01*
X212364D01*
X199669Y975664D02*
X206016D01*
X218712Y985186D02*
Y966142D01*
X228234D01*
X231408Y969316D01*
Y982012D01*
X228234Y985186D01*
X218712D01*
X256800D02*
X269496D01*
X263148D01*
Y966142D01*
X285366Y985186D02*
X279018D01*
X275844Y982012D01*
Y969316D01*
X279018Y966142D01*
X285366D01*
X288540Y969316D01*
Y982012D01*
X285366Y985186D01*
X313932D02*
X326628D01*
X320280D01*
Y966142D01*
X332976Y985186D02*
Y966142D01*
Y975664D01*
X345671D01*
Y985186D01*
Y966142D01*
X364715Y985186D02*
X352019D01*
Y966142D01*
X364715D01*
X352019Y975664D02*
X358367D01*
X390107Y985186D02*
Y966142D01*
X399629D01*
X402803Y969316D01*
Y972490D01*
X399629Y975664D01*
X390107D01*
X399629D01*
X402803Y978838D01*
Y982012D01*
X399629Y985186D01*
X390107D01*
X418673D02*
X412325D01*
X409151Y982012D01*
Y969316D01*
X412325Y966142D01*
X418673D01*
X421847Y969316D01*
Y982012D01*
X418673Y985186D01*
X428195Y966142D02*
Y978838D01*
X434543Y985186D01*
X440891Y978838D01*
Y966142D01*
Y975664D01*
X428195D01*
X447239Y966142D02*
Y985186D01*
X456760D01*
X459935Y982012D01*
Y975664D01*
X456760Y972490D01*
X447239D01*
X453587D02*
X459935Y966142D01*
X466282Y985186D02*
Y966142D01*
X475804D01*
X478978Y969316D01*
Y982012D01*
X475804Y985186D01*
X466282D01*
X504370Y966142D02*
Y985186D01*
X517066Y966142D01*
Y985186D01*
X536110D02*
X523414D01*
Y966142D01*
X536110D01*
X523414Y975664D02*
X529762D01*
X555154Y985186D02*
X542458D01*
Y966142D01*
X555154D01*
X542458Y975664D02*
X548806D01*
X561502Y985186D02*
Y966142D01*
X571024D01*
X574198Y969316D01*
Y982012D01*
X571024Y985186D01*
X561502D01*
X599589D02*
X612285D01*
X605937D01*
Y966142D01*
X628155Y985186D02*
X621807D01*
X618633Y982012D01*
Y969316D01*
X621807Y966142D01*
X628155D01*
X631329Y969316D01*
Y982012D01*
X628155Y985186D01*
X656721D02*
Y966142D01*
X666243D01*
X669417Y969316D01*
Y972490D01*
X666243Y975664D01*
X656721D01*
X666243D01*
X669417Y978838D01*
Y982012D01*
X666243Y985186D01*
X656721D01*
X688461D02*
X675765D01*
Y966142D01*
X688461D01*
X675765Y975664D02*
X682113D01*
X713852Y966142D02*
Y978838D01*
X720201Y985186D01*
X726548Y978838D01*
Y966142D01*
Y975664D01*
X713852D01*
X732896Y966142D02*
Y985186D01*
X742418D01*
X745592Y982012D01*
Y975664D01*
X742418Y972490D01*
X732896D01*
X751940Y966142D02*
Y985186D01*
X761462D01*
X764636Y982012D01*
Y975664D01*
X761462Y972490D01*
X751940D01*
X770984Y966142D02*
Y985186D01*
X780506D01*
X783680Y982012D01*
Y975664D01*
X780506Y972490D01*
X770984D01*
X777332D02*
X783680Y966142D01*
X799550Y985186D02*
X793202D01*
X790028Y982012D01*
Y969316D01*
X793202Y966142D01*
X799550D01*
X802724Y969316D01*
Y982012D01*
X799550Y985186D01*
X809072D02*
Y972490D01*
X815420Y966142D01*
X821768Y972490D01*
Y985186D01*
X828116D02*
X834464D01*
X831290D01*
Y966142D01*
X828116D01*
X834464D01*
X856681Y985186D02*
X843986D01*
Y966142D01*
X856681D01*
X843986Y975664D02*
X850333D01*
X863029Y985186D02*
Y966142D01*
X872551D01*
X875725Y969316D01*
Y982012D01*
X872551Y985186D01*
X863029D01*
X901117D02*
Y966142D01*
X910639D01*
X913813Y969316D01*
Y972490D01*
X910639Y975664D01*
X901117D01*
X910639D01*
X913813Y978838D01*
Y982012D01*
X910639Y985186D01*
X901117D01*
X920161D02*
Y982012D01*
X926509Y975664D01*
X932857Y982012D01*
Y985186D01*
X926509Y975664D02*
Y966142D01*
X958249D02*
Y978838D01*
X964597Y985186D01*
X970945Y978838D01*
Y966142D01*
Y975664D01*
X958249D01*
X977292Y985186D02*
X983640D01*
X980467D01*
Y966142D01*
X977292D01*
X983640D01*
X993162D02*
Y985186D01*
X1002684D01*
X1005858Y982012D01*
Y975664D01*
X1002684Y972490D01*
X993162D01*
X999510D02*
X1005858Y966142D01*
X1012206Y985186D02*
X1024902D01*
Y982012D01*
X1012206Y969316D01*
Y966142D01*
X1024902D01*
X1031250D02*
Y978838D01*
X1037598Y985186D01*
X1043946Y978838D01*
Y966142D01*
Y975664D01*
X1031250D01*
X1050294Y985186D02*
X1056642D01*
X1053468D01*
Y966142D01*
X1050294D01*
X1056642D01*
X-511302Y908245D02*
X-504954D01*
X-508128D01*
Y927289D01*
X-511302Y924115D01*
X-485910Y908245D02*
Y927289D01*
X-495432Y917767D01*
X-482736D01*
X-476388Y908245D02*
Y911419D01*
X-473214D01*
Y908245D01*
X-476388D01*
X-441475D02*
Y927289D01*
X-435127Y920941D01*
X-428779Y927289D01*
Y908245D01*
X-422431Y927289D02*
X-416083D01*
X-419257D01*
Y908245D01*
X-422431D01*
X-416083D01*
X-406561D02*
Y927289D01*
X-393865Y908245D01*
Y927289D01*
X-387517D02*
X-381169D01*
X-384343D01*
Y908245D01*
X-387517D01*
X-381169D01*
X-371647D02*
Y927289D01*
X-365299Y920941D01*
X-358951Y927289D01*
Y908245D01*
X-352603Y927289D02*
Y911419D01*
X-349429Y908245D01*
X-343081D01*
X-339907Y911419D01*
Y927289D01*
X-333559Y908245D02*
Y927289D01*
X-327211Y920941D01*
X-320863Y927289D01*
Y908245D01*
X-295472Y927289D02*
X-282776D01*
X-289124D01*
Y908245D01*
X-276428D02*
Y927289D01*
X-266906D01*
X-263732Y924115D01*
Y917767D01*
X-266906Y914593D01*
X-276428D01*
X-270080D02*
X-263732Y908245D01*
X-257384D02*
Y920941D01*
X-251036Y927289D01*
X-244688Y920941D01*
Y908245D01*
Y917767D01*
X-257384D01*
X-225644Y924115D02*
X-228818Y927289D01*
X-235166D01*
X-238340Y924115D01*
Y911419D01*
X-235166Y908245D01*
X-228818D01*
X-225644Y911419D01*
X-206600Y927289D02*
X-219296D01*
Y908245D01*
X-206600D01*
X-219296Y917767D02*
X-212948D01*
X-181209Y927289D02*
Y908245D01*
X-174861Y914593D01*
X-168513Y908245D01*
Y927289D01*
X-162165D02*
X-155817D01*
X-158991D01*
Y908245D01*
X-162165D01*
X-155817D01*
X-146295Y927289D02*
Y908245D01*
X-136773D01*
X-133599Y911419D01*
Y924115D01*
X-136773Y927289D01*
X-146295D01*
X-127251D02*
X-114555D01*
X-120903D01*
Y908245D01*
X-108207Y927289D02*
Y908245D01*
Y917767D01*
X-95511D01*
Y927289D01*
Y908245D01*
X-76467Y924115D02*
X-79641Y927289D01*
X-85989D01*
X-89163Y924115D01*
Y920941D01*
X-85989Y917767D01*
X-79641D01*
X-76467Y914593D01*
Y911419D01*
X-79641Y908245D01*
X-85989D01*
X-89163Y911419D01*
X-70119Y920941D02*
X-66946D01*
Y917767D01*
X-70119D01*
Y920941D01*
Y911419D02*
X-66946D01*
Y908245D01*
X-70119D01*
Y911419D01*
X-308168Y898340D02*
X-320863D01*
Y879296D01*
X-308168D01*
X-320863Y888818D02*
X-314515D01*
X-301820Y898340D02*
X-289124Y879296D01*
Y898340D02*
X-301820Y879296D01*
X-282776Y898340D02*
X-270080D01*
X-276428D01*
Y879296D01*
X-251036Y898340D02*
X-263732D01*
Y879296D01*
X-251036D01*
X-263732Y888818D02*
X-257384D01*
X-244688Y879296D02*
Y898340D01*
X-235166D01*
X-231992Y895166D01*
Y888818D01*
X-235166Y885644D01*
X-244688D01*
X-238340D02*
X-231992Y879296D01*
X-225644D02*
Y898340D01*
X-212948Y879296D01*
Y898340D01*
X-206600Y879296D02*
Y891992D01*
X-200252Y898340D01*
X-193904Y891992D01*
Y879296D01*
Y888818D01*
X-206600D01*
X-187556Y898340D02*
Y879296D01*
X-174861D01*
X-168513Y891992D02*
X-165339D01*
Y888818D01*
X-168513D01*
Y891992D01*
Y882470D02*
X-165339D01*
Y879296D01*
X-168513D01*
Y882470D01*
X-133599Y895166D02*
X-130425Y898340D01*
X-124077D01*
X-120903Y895166D01*
Y882470D01*
X-124077Y879296D01*
X-130425D01*
X-133599Y882470D01*
Y895166D01*
X-114555Y879296D02*
Y882470D01*
X-111381D01*
Y879296D01*
X-114555D01*
X-85989D02*
X-98685D01*
X-85989Y891992D01*
Y895166D01*
X-89163Y898340D01*
X-95511D01*
X-98685Y895166D01*
X-79641D02*
X-76467Y898340D01*
X-70119D01*
X-66946Y895166D01*
Y882470D01*
X-70119Y879296D01*
X-76467D01*
X-79641Y882470D01*
Y895166D01*
X-60598D02*
X-57424Y898340D01*
X-51076D01*
X-47902Y895166D01*
Y891992D01*
X-51076Y888818D01*
X-54250D01*
X-51076D01*
X-47902Y885644D01*
Y882470D01*
X-51076Y879296D01*
X-57424D01*
X-60598Y882470D01*
X-22510Y879296D02*
Y891992D01*
X-19336D01*
X-16162Y888818D01*
Y879296D01*
Y888818D01*
X-12988Y891992D01*
X-9814Y888818D01*
Y879296D01*
X-3466D02*
Y891992D01*
X-292D01*
X2882Y888818D01*
Y879296D01*
Y888818D01*
X6056Y891992D01*
X9230Y888818D01*
Y879296D01*
X53666Y898340D02*
X60014D01*
X56840D01*
Y879296D01*
X53666D01*
X60014D01*
X69535D02*
Y898340D01*
X82231Y879296D01*
Y898340D01*
X88579D02*
X101275D01*
X94927D01*
Y879296D01*
X120319Y898340D02*
X107623D01*
Y879296D01*
X120319D01*
X107623Y888818D02*
X113971D01*
X126667Y879296D02*
Y898340D01*
X136189D01*
X139363Y895166D01*
Y888818D01*
X136189Y885644D01*
X126667D01*
X133015D02*
X139363Y879296D01*
X145711D02*
Y898340D01*
X158407Y879296D01*
Y898340D01*
X164755Y879296D02*
Y891992D01*
X171103Y898340D01*
X177451Y891992D01*
Y879296D01*
Y888818D01*
X164755D01*
X183799Y898340D02*
Y879296D01*
X196495D01*
X202843Y891992D02*
X206017D01*
Y888818D01*
X202843D01*
Y891992D01*
Y882470D02*
X206017D01*
Y879296D01*
X202843D01*
Y882470D01*
X237756Y879296D02*
Y898340D01*
X250452Y879296D01*
Y898340D01*
X256800Y879296D02*
X269496Y891992D01*
X275844Y879296D02*
Y891992D01*
X282192Y898340D01*
X288540Y891992D01*
Y879296D01*
Y888818D01*
X275844D01*
X-511302Y821399D02*
X-504954D01*
X-508128D01*
Y840443D01*
X-511302Y837269D01*
X-482736Y840443D02*
X-495432D01*
Y830921D01*
X-489084Y834095D01*
X-485910D01*
X-482736Y830921D01*
Y824573D01*
X-485910Y821399D01*
X-492258D01*
X-495432Y824573D01*
X-476388Y821399D02*
Y824573D01*
X-473214D01*
Y821399D01*
X-476388D01*
X-441475D02*
Y840443D01*
X-435127Y834095D01*
X-428779Y840443D01*
Y821399D01*
X-422431Y840443D02*
X-416083D01*
X-419257D01*
Y821399D01*
X-422431D01*
X-416083D01*
X-406561D02*
Y840443D01*
X-393865Y821399D01*
Y840443D01*
X-387517D02*
X-381169D01*
X-384343D01*
Y821399D01*
X-387517D01*
X-381169D01*
X-371647D02*
Y840443D01*
X-365299Y834095D01*
X-358951Y840443D01*
Y821399D01*
X-352603Y840443D02*
Y824573D01*
X-349429Y821399D01*
X-343081D01*
X-339907Y824573D01*
Y840443D01*
X-333559Y821399D02*
Y840443D01*
X-327211Y834095D01*
X-320863Y840443D01*
Y821399D01*
X-282776Y837269D02*
X-285950Y840443D01*
X-292298D01*
X-295472Y837269D01*
Y834095D01*
X-292298Y830921D01*
X-285950D01*
X-282776Y827747D01*
Y824573D01*
X-285950Y821399D01*
X-292298D01*
X-295472Y824573D01*
X-276428Y821399D02*
Y840443D01*
X-266906D01*
X-263732Y837269D01*
Y830921D01*
X-266906Y827747D01*
X-276428D01*
X-257384Y821399D02*
Y834095D01*
X-251036Y840443D01*
X-244688Y834095D01*
Y821399D01*
Y830921D01*
X-257384D01*
X-225644Y837269D02*
X-228818Y840443D01*
X-235166D01*
X-238340Y837269D01*
Y824573D01*
X-235166Y821399D01*
X-228818D01*
X-225644Y824573D01*
X-206600Y840443D02*
X-219296D01*
Y821399D01*
X-206600D01*
X-219296Y830921D02*
X-212948D01*
X-181209Y840443D02*
Y821399D01*
X-171687D01*
X-168513Y824573D01*
Y827747D01*
X-171687Y830921D01*
X-181209D01*
X-171687D01*
X-168513Y834095D01*
Y837269D01*
X-171687Y840443D01*
X-181209D01*
X-149469D02*
X-162165D01*
Y821399D01*
X-149469D01*
X-162165Y830921D02*
X-155817D01*
X-143121Y840443D02*
X-130425D01*
X-136773D01*
Y821399D01*
X-124077Y840443D02*
Y821399D01*
X-117729Y827747D01*
X-111381Y821399D01*
Y840443D01*
X-92337D02*
X-105033D01*
Y821399D01*
X-92337D01*
X-105033Y830921D02*
X-98685D01*
X-73293Y840443D02*
X-85989D01*
Y821399D01*
X-73293D01*
X-85989Y830921D02*
X-79641D01*
X-66946Y821399D02*
Y840443D01*
X-54250Y821399D01*
Y840443D01*
X-16162D02*
X-28858D01*
Y830921D01*
X-22510D01*
X-28858D01*
Y821399D01*
X2882Y840443D02*
X-9814D01*
Y821399D01*
X2882D01*
X-9814Y830921D02*
X-3466D01*
X9230Y821399D02*
Y834095D01*
X15578Y840443D01*
X21926Y834095D01*
Y821399D01*
Y830921D01*
X9230D01*
X28274Y840443D02*
X40970D01*
X34622D01*
Y821399D01*
X47318Y840443D02*
Y824573D01*
X50492Y821399D01*
X56840D01*
X60013Y824573D01*
Y840443D01*
X66361Y821399D02*
Y840443D01*
X75883D01*
X79057Y837269D01*
Y830921D01*
X75883Y827747D01*
X66361D01*
X72709D02*
X79057Y821399D01*
X98101Y840443D02*
X85405D01*
Y821399D01*
X98101D01*
X85405Y830921D02*
X91753D01*
X117145Y837269D02*
X113971Y840443D01*
X107623D01*
X104449Y837269D01*
Y834095D01*
X107623Y830921D01*
X113971D01*
X117145Y827747D01*
Y824573D01*
X113971Y821399D01*
X107623D01*
X104449Y824573D01*
X123493Y834095D02*
X126667D01*
Y830921D01*
X123493D01*
Y834095D01*
Y824573D02*
X126667D01*
Y821399D01*
X123493D01*
Y824573D01*
X-327211Y811494D02*
X-339907D01*
Y792450D01*
X-327211D01*
X-339907Y801973D02*
X-333559D01*
X-320863Y811494D02*
X-308168Y792450D01*
Y811494D02*
X-320863Y792450D01*
X-301820Y811494D02*
X-289124D01*
X-295472D01*
Y792450D01*
X-270080Y811494D02*
X-282776D01*
Y792450D01*
X-270080D01*
X-282776Y801973D02*
X-276428D01*
X-263732Y792450D02*
Y811494D01*
X-254210D01*
X-251036Y808320D01*
Y801973D01*
X-254210Y798799D01*
X-263732D01*
X-257384D02*
X-251036Y792450D01*
X-244688D02*
Y811494D01*
X-231992Y792450D01*
Y811494D01*
X-225644Y792450D02*
Y805146D01*
X-219296Y811494D01*
X-212948Y805146D01*
Y792450D01*
Y801973D01*
X-225644D01*
X-206600Y811494D02*
Y792450D01*
X-193904D01*
X-187556Y805146D02*
X-184382D01*
Y801973D01*
X-187556D01*
Y805146D01*
Y795624D02*
X-184382D01*
Y792450D01*
X-187556D01*
Y795624D01*
X-152643Y808320D02*
X-149469Y811494D01*
X-143121D01*
X-139947Y808320D01*
Y795624D01*
X-143121Y792450D01*
X-149469D01*
X-152643Y795624D01*
Y808320D01*
X-133599Y792450D02*
Y795624D01*
X-130425D01*
Y792450D01*
X-133599D01*
X-105033D02*
X-117729D01*
X-105033Y805146D01*
Y808320D01*
X-108207Y811494D01*
X-114555D01*
X-117729Y808320D01*
X-98685D02*
X-95511Y811494D01*
X-89163D01*
X-85989Y808320D01*
Y795624D01*
X-89163Y792450D01*
X-95511D01*
X-98685Y795624D01*
Y808320D01*
X-79641D02*
X-76467Y811494D01*
X-70119D01*
X-66946Y808320D01*
Y805146D01*
X-70119Y801973D01*
X-73293D01*
X-70119D01*
X-66946Y798799D01*
Y795624D01*
X-70119Y792450D01*
X-76467D01*
X-79641Y795624D01*
X-60598Y792450D02*
Y805146D01*
X-57424D01*
X-54250Y801973D01*
Y792450D01*
Y801973D01*
X-51076Y805146D01*
X-47902Y801973D01*
Y792450D01*
X-41554D02*
Y805146D01*
X-38380D01*
X-35206Y801973D01*
Y792450D01*
Y801973D01*
X-32032Y805146D01*
X-28858Y801973D01*
Y792450D01*
X15578Y811494D02*
X21926D01*
X18752D01*
Y792450D01*
X15578D01*
X21926D01*
X31448D02*
Y811494D01*
X44144Y792450D01*
Y811494D01*
X50492D02*
X63187D01*
X56840D01*
Y792450D01*
X82231Y811494D02*
X69535D01*
Y792450D01*
X82231D01*
X69535Y801973D02*
X75883D01*
X88579Y792450D02*
Y811494D01*
X98101D01*
X101275Y808320D01*
Y801973D01*
X98101Y798799D01*
X88579D01*
X94927D02*
X101275Y792450D01*
X107623D02*
Y811494D01*
X120319Y792450D01*
Y811494D01*
X126667Y792450D02*
Y805146D01*
X133015Y811494D01*
X139363Y805146D01*
Y792450D01*
Y801973D01*
X126667D01*
X145711Y811494D02*
Y792450D01*
X158407D01*
X164755Y805146D02*
X167929D01*
Y801973D01*
X164755D01*
Y805146D01*
Y795624D02*
X167929D01*
Y792450D01*
X164755D01*
Y795624D01*
X199669Y792450D02*
Y811494D01*
X212364Y792450D01*
Y811494D01*
X218712Y792450D02*
X231408Y805146D01*
X237756Y792450D02*
Y805146D01*
X244104Y811494D01*
X250452Y805146D01*
Y792450D01*
Y801973D01*
X237756D01*
X-511302Y734553D02*
X-504954D01*
X-508128D01*
Y753597D01*
X-511302Y750423D01*
X-482736Y753597D02*
X-489084Y750423D01*
X-495432Y744075D01*
Y737727D01*
X-492258Y734553D01*
X-485910D01*
X-482736Y737727D01*
Y740901D01*
X-485910Y744075D01*
X-495432D01*
X-476388Y734553D02*
Y737727D01*
X-473214D01*
Y734553D01*
X-476388D01*
X-431953Y753597D02*
X-438301D01*
X-441475Y750423D01*
Y737727D01*
X-438301Y734553D01*
X-431953D01*
X-428779Y737727D01*
Y750423D01*
X-431953Y753597D01*
X-422431Y747249D02*
X-416083Y734553D01*
X-409735Y747249D01*
X-393865Y734553D02*
X-400213D01*
X-403387Y737727D01*
Y744075D01*
X-400213Y747249D01*
X-393865D01*
X-390691Y744075D01*
Y740901D01*
X-403387D01*
X-384343Y747249D02*
Y734553D01*
Y740901D01*
X-381169Y744075D01*
X-377995Y747249D01*
X-374821D01*
X-362125D02*
X-355777D01*
X-352603Y744075D01*
Y734553D01*
X-362125D01*
X-365299Y737727D01*
X-362125Y740901D01*
X-352603D01*
X-346255Y734553D02*
X-339907D01*
X-343081D01*
Y753597D01*
X-346255D01*
X-330385Y734553D02*
X-324038D01*
X-327211D01*
Y753597D01*
X-330385D01*
X-295472D02*
Y734553D01*
X-285950D01*
X-282776Y737727D01*
Y740901D01*
X-285950Y744075D01*
X-295472D01*
X-285950D01*
X-282776Y747249D01*
Y750423D01*
X-285950Y753597D01*
X-295472D01*
X-273254Y734553D02*
X-266906D01*
X-263732Y737727D01*
Y744075D01*
X-266906Y747249D01*
X-273254D01*
X-276428Y744075D01*
Y737727D01*
X-273254Y734553D01*
X-254210Y747249D02*
X-247862D01*
X-244688Y744075D01*
Y734553D01*
X-254210D01*
X-257384Y737727D01*
X-254210Y740901D01*
X-244688D01*
X-238340Y747249D02*
Y734553D01*
Y740901D01*
X-235166Y744075D01*
X-231992Y747249D01*
X-228818D01*
X-206600Y753597D02*
Y734553D01*
X-216122D01*
X-219296Y737727D01*
Y744075D01*
X-216122Y747249D01*
X-206600D01*
X-181209Y753597D02*
X-168513D01*
X-174861D01*
Y734553D01*
X-162165Y753597D02*
Y734553D01*
Y744075D01*
X-158991Y747249D01*
X-152643D01*
X-149469Y744075D01*
Y734553D01*
X-143121D02*
X-136773D01*
X-139947D01*
Y747249D01*
X-143121D01*
X-114555D02*
X-124077D01*
X-127251Y744075D01*
Y737727D01*
X-124077Y734553D01*
X-114555D01*
X-108207D02*
Y753597D01*
Y740901D02*
X-98685Y747249D01*
X-108207Y740901D02*
X-98685Y734553D01*
X-89163D02*
Y747249D01*
X-79641D01*
X-76467Y744075D01*
Y734553D01*
X-60598D02*
X-66946D01*
X-70119Y737727D01*
Y744075D01*
X-66946Y747249D01*
X-60598D01*
X-57424Y744075D01*
Y740901D01*
X-70119D01*
X-51076Y734553D02*
X-41554D01*
X-38380Y737727D01*
X-41554Y740901D01*
X-47902D01*
X-51076Y744075D01*
X-47902Y747249D01*
X-38380D01*
X-32032Y734553D02*
X-22510D01*
X-19336Y737727D01*
X-22510Y740901D01*
X-28858D01*
X-32032Y744075D01*
X-28858Y747249D01*
X-19336D01*
X-12988D02*
X-9814D01*
Y744075D01*
X-12988D01*
Y747249D01*
Y737727D02*
X-9814D01*
Y734553D01*
X-12988D01*
Y737727D01*
X21926Y750423D02*
X25100Y753597D01*
X31448D01*
X34622Y750423D01*
Y747249D01*
X31448Y744075D01*
X28274D01*
X31448D01*
X34622Y740901D01*
Y737727D01*
X31448Y734553D01*
X25100D01*
X21926Y737727D01*
X40970Y750423D02*
X44144Y753597D01*
X50492D01*
X53666Y750423D01*
Y747249D01*
X50492Y744075D01*
X53666Y740901D01*
Y737727D01*
X50492Y734553D01*
X44144D01*
X40970Y737727D01*
Y740901D01*
X44144Y744075D01*
X40970Y747249D01*
Y750423D01*
X44144Y744075D02*
X50492D01*
X79057Y734553D02*
Y747249D01*
X82231D01*
X85405Y744075D01*
Y734553D01*
Y744075D01*
X88579Y747249D01*
X91753Y744075D01*
Y734553D01*
X98101D02*
X104449D01*
X101275D01*
Y747249D01*
X98101D01*
X113971Y734553D02*
X120319D01*
X117145D01*
Y753597D01*
X113971D01*
X129841Y734553D02*
X139363D01*
X142537Y737727D01*
X139363Y740901D01*
X133015D01*
X129841Y744075D01*
X133015Y747249D01*
X142537D01*
X2324354Y-416052D02*
Y-383563D01*
X2340599D01*
X2346014Y-388977D01*
Y-399807D01*
X2340599Y-405222D01*
X2324354D01*
X2356844Y-383563D02*
Y-416052D01*
X2367673Y-405222D01*
X2378503Y-416052D01*
Y-383563D01*
X2389333D02*
Y-416052D01*
X2405578D01*
X2410993Y-410637D01*
Y-405222D01*
X2405578Y-399807D01*
X2389333D01*
X2405578D01*
X2410993Y-394392D01*
Y-388977D01*
X2405578Y-383563D01*
X2389333D01*
X2475972D02*
X2465142Y-388977D01*
X2454312Y-399807D01*
Y-410637D01*
X2459727Y-416052D01*
X2470557D01*
X2475972Y-410637D01*
Y-405222D01*
X2470557Y-399807D01*
X2454312D01*
X2486801Y-388977D02*
X2492216Y-383563D01*
X2503046D01*
X2508461Y-388977D01*
Y-410637D01*
X2503046Y-416052D01*
X2492216D01*
X2486801Y-410637D01*
Y-388977D01*
X2540951Y-416052D02*
X2519291D01*
X2540951Y-394392D01*
Y-388977D01*
X2535536Y-383563D01*
X2524706D01*
X2519291Y-388977D01*
X2551781Y-399807D02*
X2573440D01*
X2584270Y-388977D02*
X2589685Y-383563D01*
X2600515D01*
X2605930Y-388977D01*
Y-410637D01*
X2600515Y-416052D01*
X2589685D01*
X2584270Y-410637D01*
Y-388977D01*
X2616760D02*
X2622174Y-383563D01*
X2633004D01*
X2638419Y-388977D01*
Y-410637D01*
X2633004Y-416052D01*
X2622174D01*
X2616760Y-410637D01*
Y-388977D01*
X2670909Y-416052D02*
X2649249D01*
X2670909Y-394392D01*
Y-388977D01*
X2665494Y-383563D01*
X2654664D01*
X2649249Y-388977D01*
X2697983Y-416052D02*
Y-383563D01*
X2681739Y-399807D01*
X2703398D01*
X2746718Y-416052D02*
Y-383563D01*
X2762962D01*
X2768377Y-388977D01*
Y-399807D01*
X2762962Y-405222D01*
X2746718D01*
X2757547D02*
X2768377Y-416052D01*
X2795452D02*
X2784622D01*
X2779207Y-410637D01*
Y-399807D01*
X2784622Y-394392D01*
X2795452D01*
X2800867Y-399807D01*
Y-405222D01*
X2779207D01*
X2811696Y-394392D02*
X2822526Y-416052D01*
X2833356Y-394392D01*
X2876675Y-383563D02*
Y-416052D01*
X2892920D01*
X2898335Y-410637D01*
Y-405222D01*
X2892920Y-399807D01*
X2876675D01*
X2892920D01*
X2898335Y-394392D01*
Y-388977D01*
X2892920Y-383563D01*
X2876675D01*
X1756555Y1498653D02*
Y1483418D01*
X1766711D01*
X1774329Y1493575D02*
X1779407D01*
X1781947Y1491036D01*
Y1483418D01*
X1774329D01*
X1771790Y1485957D01*
X1774329Y1488496D01*
X1781947D01*
X1787025Y1493575D02*
Y1485957D01*
X1789564Y1483418D01*
X1797182D01*
Y1480879D01*
X1794642Y1478340D01*
X1792103D01*
X1797182Y1483418D02*
Y1493575D01*
X1809877Y1483418D02*
X1804799D01*
X1802260Y1485957D01*
Y1491036D01*
X1804799Y1493575D01*
X1809877D01*
X1812417Y1491036D01*
Y1488496D01*
X1802260D01*
X1817495Y1493575D02*
Y1483418D01*
Y1488496D01*
X1820034Y1491036D01*
X1822573Y1493575D01*
X1825112D01*
X1756555Y1148138D02*
X1761633D01*
X1759094D01*
Y1163373D01*
X1756555Y1160834D01*
X1769251Y1148138D02*
X1774329D01*
X1771790D01*
Y1163373D01*
X1769251Y1160834D01*
X1756555Y1178618D02*
X1761633D01*
X1759094D01*
Y1193853D01*
X1756555Y1191314D01*
X1769251D02*
X1771790Y1193853D01*
X1776868D01*
X1779407Y1191314D01*
Y1181157D01*
X1776868Y1178618D01*
X1771790D01*
X1769251Y1181157D01*
Y1191314D01*
X1756555Y1211637D02*
X1759094Y1209098D01*
X1764172D01*
X1766711Y1211637D01*
Y1221794D01*
X1764172Y1224333D01*
X1759094D01*
X1756555Y1221794D01*
Y1219255D01*
X1759094Y1216716D01*
X1766711D01*
X1756555Y1252274D02*
X1759094Y1254813D01*
X1764172D01*
X1766711Y1252274D01*
Y1249735D01*
X1764172Y1247196D01*
X1766711Y1244656D01*
Y1242117D01*
X1764172Y1239578D01*
X1759094D01*
X1756555Y1242117D01*
Y1244656D01*
X1759094Y1247196D01*
X1756555Y1249735D01*
Y1252274D01*
X1759094Y1247196D02*
X1764172D01*
X1756555Y1285293D02*
X1766711D01*
Y1282754D01*
X1756555Y1272597D01*
Y1270058D01*
X1766711Y1315773D02*
X1761633Y1313234D01*
X1756555Y1308156D01*
Y1303077D01*
X1759094Y1300538D01*
X1764172D01*
X1766711Y1303077D01*
Y1305616D01*
X1764172Y1308156D01*
X1756555D01*
X1766711Y1346253D02*
X1756555D01*
Y1338636D01*
X1761633Y1341175D01*
X1764172D01*
X1766711Y1338636D01*
Y1333557D01*
X1764172Y1331018D01*
X1759094D01*
X1756555Y1333557D01*
X1764172Y1361498D02*
Y1376733D01*
X1756555Y1369116D01*
X1766711D01*
X1756555Y1404674D02*
X1759094Y1407213D01*
X1764172D01*
X1766711Y1404674D01*
Y1402135D01*
X1764172Y1399596D01*
X1761633D01*
X1764172D01*
X1766711Y1397056D01*
Y1394517D01*
X1764172Y1391978D01*
X1759094D01*
X1756555Y1394517D01*
X1766711Y1422458D02*
X1756555D01*
X1766711Y1432615D01*
Y1435154D01*
X1764172Y1437693D01*
X1759094D01*
X1756555Y1435154D01*
Y1452938D02*
X1761633D01*
X1759094D01*
Y1468173D01*
X1756555Y1465634D01*
X1860672Y1483418D02*
Y1498653D01*
X1870829Y1483418D01*
Y1498653D01*
X1878447Y1493575D02*
X1883525D01*
X1886064Y1491036D01*
Y1483418D01*
X1878447D01*
X1875908Y1485957D01*
X1878447Y1488496D01*
X1886064D01*
X1891143Y1483418D02*
Y1493575D01*
X1893682D01*
X1896221Y1491036D01*
Y1483418D01*
Y1491036D01*
X1898760Y1493575D01*
X1901299Y1491036D01*
Y1483418D01*
X1913995D02*
X1908917D01*
X1906378Y1485957D01*
Y1491036D01*
X1908917Y1493575D01*
X1913995D01*
X1916534Y1491036D01*
Y1488496D01*
X1906378D01*
X1860672Y1163373D02*
Y1148138D01*
X1868290D01*
X1870829Y1150677D01*
Y1153216D01*
X1868290Y1155756D01*
X1860672D01*
X1868290D01*
X1870829Y1158295D01*
Y1160834D01*
X1868290Y1163373D01*
X1860672D01*
X1878447Y1148138D02*
X1883525D01*
X1886064Y1150677D01*
Y1155756D01*
X1883525Y1158295D01*
X1878447D01*
X1875908Y1155756D01*
Y1150677D01*
X1878447Y1148138D01*
X1893682Y1160834D02*
Y1158295D01*
X1891143D01*
X1896221D01*
X1893682D01*
Y1150677D01*
X1896221Y1148138D01*
X1906378Y1160834D02*
Y1158295D01*
X1903839D01*
X1908917D01*
X1906378D01*
Y1150677D01*
X1908917Y1148138D01*
X1919074D02*
X1924152D01*
X1926691Y1150677D01*
Y1155756D01*
X1924152Y1158295D01*
X1919074D01*
X1916534Y1155756D01*
Y1150677D01*
X1919074Y1148138D01*
X1931770D02*
Y1158295D01*
X1934309D01*
X1936848Y1155756D01*
Y1148138D01*
Y1155756D01*
X1939387Y1158295D01*
X1941926Y1155756D01*
Y1148138D01*
X1969857Y1163373D02*
X1964779D01*
X1962240Y1160834D01*
Y1150677D01*
X1964779Y1148138D01*
X1969857D01*
X1972396Y1150677D01*
Y1160834D01*
X1969857Y1163373D01*
X1977475Y1158295D02*
X1982553Y1148138D01*
X1987632Y1158295D01*
X2000327Y1148138D02*
X1995249D01*
X1992710Y1150677D01*
Y1155756D01*
X1995249Y1158295D01*
X2000327D01*
X2002867Y1155756D01*
Y1153216D01*
X1992710D01*
X2007945Y1158295D02*
Y1148138D01*
Y1153216D01*
X2010484Y1155756D01*
X2013023Y1158295D01*
X2015562D01*
X2023180Y1148138D02*
X2028258D01*
X2025719D01*
Y1163373D01*
X2023180D01*
X2038415Y1158295D02*
X2043493D01*
X2046033Y1155756D01*
Y1148138D01*
X2038415D01*
X2035876Y1150677D01*
X2038415Y1153216D01*
X2046033D01*
X2051111Y1158295D02*
Y1150677D01*
X2053650Y1148138D01*
X2061268D01*
Y1145599D01*
X2058728Y1143060D01*
X2056189D01*
X2061268Y1148138D02*
Y1158295D01*
X1860672Y1193853D02*
Y1178618D01*
X1868290D01*
X1870829Y1181157D01*
Y1183696D01*
X1868290Y1186236D01*
X1860672D01*
X1868290D01*
X1870829Y1188775D01*
Y1191314D01*
X1868290Y1193853D01*
X1860672D01*
X1878447Y1178618D02*
X1883525D01*
X1886064Y1181157D01*
Y1186236D01*
X1883525Y1188775D01*
X1878447D01*
X1875908Y1186236D01*
Y1181157D01*
X1878447Y1178618D01*
X1893682Y1191314D02*
Y1188775D01*
X1891143D01*
X1896221D01*
X1893682D01*
Y1181157D01*
X1896221Y1178618D01*
X1906378Y1191314D02*
Y1188775D01*
X1903839D01*
X1908917D01*
X1906378D01*
Y1181157D01*
X1908917Y1178618D01*
X1919074D02*
X1924152D01*
X1926691Y1181157D01*
Y1186236D01*
X1924152Y1188775D01*
X1919074D01*
X1916534Y1186236D01*
Y1181157D01*
X1919074Y1178618D01*
X1931770D02*
Y1188775D01*
X1934309D01*
X1936848Y1186236D01*
Y1178618D01*
Y1186236D01*
X1939387Y1188775D01*
X1941926Y1186236D01*
Y1178618D01*
X1972396Y1191314D02*
X1969857Y1193853D01*
X1964779D01*
X1962240Y1191314D01*
Y1188775D01*
X1964779Y1186236D01*
X1969857D01*
X1972396Y1183696D01*
Y1181157D01*
X1969857Y1178618D01*
X1964779D01*
X1962240Y1181157D01*
X1980014Y1178618D02*
X1985092D01*
X1987632Y1181157D01*
Y1186236D01*
X1985092Y1188775D01*
X1980014D01*
X1977475Y1186236D01*
Y1181157D01*
X1980014Y1178618D01*
X1992710D02*
X1997788D01*
X1995249D01*
Y1193853D01*
X1992710D01*
X2015562D02*
Y1178618D01*
X2007945D01*
X2005406Y1181157D01*
Y1186236D01*
X2007945Y1188775D01*
X2015562D01*
X2028258Y1178618D02*
X2023180D01*
X2020641Y1181157D01*
Y1186236D01*
X2023180Y1188775D01*
X2028258D01*
X2030797Y1186236D01*
Y1183696D01*
X2020641D01*
X2035876Y1188775D02*
Y1178618D01*
Y1183696D01*
X2038415Y1186236D01*
X2040954Y1188775D01*
X2043493D01*
X1860672Y1224333D02*
Y1209098D01*
X1868290D01*
X1870829Y1211637D01*
Y1214176D01*
X1868290Y1216716D01*
X1860672D01*
X1868290D01*
X1870829Y1219255D01*
Y1221794D01*
X1868290Y1224333D01*
X1860672D01*
X1878447Y1209098D02*
X1883525D01*
X1886064Y1211637D01*
Y1216716D01*
X1883525Y1219255D01*
X1878447D01*
X1875908Y1216716D01*
Y1211637D01*
X1878447Y1209098D01*
X1893682Y1221794D02*
Y1219255D01*
X1891143D01*
X1896221D01*
X1893682D01*
Y1211637D01*
X1896221Y1209098D01*
X1906378Y1221794D02*
Y1219255D01*
X1903839D01*
X1908917D01*
X1906378D01*
Y1211637D01*
X1908917Y1209098D01*
X1919074D02*
X1924152D01*
X1926691Y1211637D01*
Y1216716D01*
X1924152Y1219255D01*
X1919074D01*
X1916534Y1216716D01*
Y1211637D01*
X1919074Y1209098D01*
X1931770D02*
Y1219255D01*
X1934309D01*
X1936848Y1216716D01*
Y1209098D01*
Y1216716D01*
X1939387Y1219255D01*
X1941926Y1216716D01*
Y1209098D01*
X1962240Y1224333D02*
Y1209098D01*
X1972396D01*
X1980014Y1219255D02*
X1985092D01*
X1987632Y1216716D01*
Y1209098D01*
X1980014D01*
X1977475Y1211637D01*
X1980014Y1214176D01*
X1987632D01*
X1992710Y1219255D02*
Y1211637D01*
X1995249Y1209098D01*
X2002867D01*
Y1206559D01*
X2000327Y1204020D01*
X1997788D01*
X2002867Y1209098D02*
Y1219255D01*
X2015562Y1209098D02*
X2010484D01*
X2007945Y1211637D01*
Y1216716D01*
X2010484Y1219255D01*
X2015562D01*
X2018102Y1216716D01*
Y1214176D01*
X2007945D01*
X2023180Y1219255D02*
Y1209098D01*
Y1214176D01*
X2025719Y1216716D01*
X2028258Y1219255D01*
X2030797D01*
X1860672Y1254813D02*
Y1239578D01*
X1868290D01*
X1870829Y1242117D01*
Y1252274D01*
X1868290Y1254813D01*
X1860672D01*
X1875908Y1239578D02*
X1880986D01*
X1878447D01*
Y1249735D01*
X1875908D01*
X1896221Y1239578D02*
X1891143D01*
X1888604Y1242117D01*
Y1247196D01*
X1891143Y1249735D01*
X1896221D01*
X1898760Y1247196D01*
Y1244656D01*
X1888604D01*
X1903839Y1239578D02*
X1908917D01*
X1906378D01*
Y1254813D01*
X1903839D01*
X1924152Y1239578D02*
X1919074D01*
X1916534Y1242117D01*
Y1247196D01*
X1919074Y1249735D01*
X1924152D01*
X1926691Y1247196D01*
Y1244656D01*
X1916534D01*
X1941926Y1249735D02*
X1934309D01*
X1931770Y1247196D01*
Y1242117D01*
X1934309Y1239578D01*
X1941926D01*
X1949544Y1252274D02*
Y1249735D01*
X1947005D01*
X1952083D01*
X1949544D01*
Y1242117D01*
X1952083Y1239578D01*
X1959700Y1249735D02*
Y1239578D01*
Y1244656D01*
X1962240Y1247196D01*
X1964779Y1249735D01*
X1967318D01*
X1974935Y1239578D02*
X1980014D01*
X1977475D01*
Y1249735D01*
X1974935D01*
X1997788D02*
X1990171D01*
X1987631Y1247196D01*
Y1242117D01*
X1990171Y1239578D01*
X1997788D01*
X2002867Y1252274D02*
X2005406Y1254813D01*
X2010484D01*
X2013023Y1252274D01*
Y1249735D01*
X2010484Y1247196D01*
X2007945D01*
X2010484D01*
X2013023Y1244656D01*
Y1242117D01*
X2010484Y1239578D01*
X2005406D01*
X2002867Y1242117D01*
X1860672Y1270058D02*
Y1285293D01*
X1865751Y1280215D01*
X1870829Y1285293D01*
Y1270058D01*
X1875908D02*
X1880986D01*
X1878447D01*
Y1280215D01*
X1875908D01*
X1898760Y1285293D02*
Y1270058D01*
X1891143D01*
X1888604Y1272597D01*
Y1277676D01*
X1891143Y1280215D01*
X1898760D01*
X1903839Y1285293D02*
Y1270058D01*
X1913995D01*
X1921613Y1280215D02*
X1926691D01*
X1929230Y1277676D01*
Y1270058D01*
X1921613D01*
X1919074Y1272597D01*
X1921613Y1275136D01*
X1929230D01*
X1934309Y1280215D02*
Y1272597D01*
X1936848Y1270058D01*
X1944465D01*
Y1267519D01*
X1941926Y1264980D01*
X1939387D01*
X1944465Y1270058D02*
Y1280215D01*
X1957161Y1270058D02*
X1952083D01*
X1949544Y1272597D01*
Y1277676D01*
X1952083Y1280215D01*
X1957161D01*
X1959700Y1277676D01*
Y1275136D01*
X1949544D01*
X1964779Y1280215D02*
Y1270058D01*
Y1275136D01*
X1967318Y1277676D01*
X1969857Y1280215D01*
X1972396D01*
X1990171Y1270058D02*
X1980014D01*
X1990171Y1280215D01*
Y1282754D01*
X1987632Y1285293D01*
X1982553D01*
X1980014Y1282754D01*
X1860672Y1315773D02*
Y1300538D01*
X1868290D01*
X1870829Y1303077D01*
Y1313234D01*
X1868290Y1315773D01*
X1860672D01*
X1875908Y1300538D02*
X1880986D01*
X1878447D01*
Y1310695D01*
X1875908D01*
X1896221Y1300538D02*
X1891143D01*
X1888604Y1303077D01*
Y1308156D01*
X1891143Y1310695D01*
X1896221D01*
X1898760Y1308156D01*
Y1305616D01*
X1888604D01*
X1903839Y1300538D02*
X1908917D01*
X1906378D01*
Y1315773D01*
X1903839D01*
X1924152Y1300538D02*
X1919074D01*
X1916534Y1303077D01*
Y1308156D01*
X1919074Y1310695D01*
X1924152D01*
X1926691Y1308156D01*
Y1305616D01*
X1916534D01*
X1941926Y1310695D02*
X1934309D01*
X1931770Y1308156D01*
Y1303077D01*
X1934309Y1300538D01*
X1941926D01*
X1949544Y1313234D02*
Y1310695D01*
X1947005D01*
X1952083D01*
X1949544D01*
Y1303077D01*
X1952083Y1300538D01*
X1959700Y1310695D02*
Y1300538D01*
Y1305616D01*
X1962240Y1308156D01*
X1964779Y1310695D01*
X1967318D01*
X1974935Y1300538D02*
X1980014D01*
X1977475D01*
Y1310695D01*
X1974935D01*
X1997788D02*
X1990171D01*
X1987631Y1308156D01*
Y1303077D01*
X1990171Y1300538D01*
X1997788D01*
X2013023D02*
X2002867D01*
X2013023Y1310695D01*
Y1313234D01*
X2010484Y1315773D01*
X2005406D01*
X2002867Y1313234D01*
X1860672Y1331018D02*
Y1346253D01*
X1865751Y1341175D01*
X1870829Y1346253D01*
Y1331018D01*
X1875908D02*
X1880986D01*
X1878447D01*
Y1341175D01*
X1875908D01*
X1898760Y1346253D02*
Y1331018D01*
X1891143D01*
X1888604Y1333557D01*
Y1338636D01*
X1891143Y1341175D01*
X1898760D01*
X1903839Y1346253D02*
Y1331018D01*
X1913995D01*
X1921613Y1341175D02*
X1926691D01*
X1929230Y1338636D01*
Y1331018D01*
X1921613D01*
X1919074Y1333557D01*
X1921613Y1336096D01*
X1929230D01*
X1934309Y1341175D02*
Y1333557D01*
X1936848Y1331018D01*
X1944465D01*
Y1328479D01*
X1941926Y1325940D01*
X1939387D01*
X1944465Y1331018D02*
Y1341175D01*
X1957161Y1331018D02*
X1952083D01*
X1949544Y1333557D01*
Y1338636D01*
X1952083Y1341175D01*
X1957161D01*
X1959700Y1338636D01*
Y1336096D01*
X1949544D01*
X1964779Y1341175D02*
Y1331018D01*
Y1336096D01*
X1967318Y1338636D01*
X1969857Y1341175D01*
X1972396D01*
X1980014Y1331018D02*
X1985092D01*
X1982553D01*
Y1346253D01*
X1980014Y1343714D01*
X1860672Y1376733D02*
Y1361498D01*
X1868290D01*
X1870829Y1364037D01*
Y1374194D01*
X1868290Y1376733D01*
X1860672D01*
X1875908Y1361498D02*
X1880986D01*
X1878447D01*
Y1371655D01*
X1875908D01*
X1896221Y1361498D02*
X1891143D01*
X1888604Y1364037D01*
Y1369116D01*
X1891143Y1371655D01*
X1896221D01*
X1898760Y1369116D01*
Y1366576D01*
X1888604D01*
X1903839Y1361498D02*
X1908917D01*
X1906378D01*
Y1376733D01*
X1903839D01*
X1924152Y1361498D02*
X1919074D01*
X1916534Y1364037D01*
Y1369116D01*
X1919074Y1371655D01*
X1924152D01*
X1926691Y1369116D01*
Y1366576D01*
X1916534D01*
X1941926Y1371655D02*
X1934309D01*
X1931770Y1369116D01*
Y1364037D01*
X1934309Y1361498D01*
X1941926D01*
X1949544Y1374194D02*
Y1371655D01*
X1947005D01*
X1952083D01*
X1949544D01*
Y1364037D01*
X1952083Y1361498D01*
X1959700Y1371655D02*
Y1361498D01*
Y1366576D01*
X1962240Y1369116D01*
X1964779Y1371655D01*
X1967318D01*
X1974935Y1361498D02*
X1980014D01*
X1977475D01*
Y1371655D01*
X1974935D01*
X1997788D02*
X1990171D01*
X1987631Y1369116D01*
Y1364037D01*
X1990171Y1361498D01*
X1997788D01*
X2002867D02*
X2007945D01*
X2005406D01*
Y1376733D01*
X2002867Y1374194D01*
X1860672Y1407213D02*
X1870829D01*
X1865751D01*
Y1391978D01*
X1878447D02*
X1883525D01*
X1886064Y1394517D01*
Y1399596D01*
X1883525Y1402135D01*
X1878447D01*
X1875908Y1399596D01*
Y1394517D01*
X1878447Y1391978D01*
X1891143Y1386900D02*
Y1402135D01*
X1898760D01*
X1901299Y1399596D01*
Y1394517D01*
X1898760Y1391978D01*
X1891143D01*
X1921613Y1407213D02*
Y1391978D01*
X1931770D01*
X1939387Y1402135D02*
X1944465D01*
X1947005Y1399596D01*
Y1391978D01*
X1939387D01*
X1936848Y1394517D01*
X1939387Y1397056D01*
X1947005D01*
X1952083Y1402135D02*
Y1394517D01*
X1954622Y1391978D01*
X1962240D01*
Y1389439D01*
X1959700Y1386900D01*
X1957161D01*
X1962240Y1391978D02*
Y1402135D01*
X1974936Y1391978D02*
X1969857D01*
X1967318Y1394517D01*
Y1399596D01*
X1969857Y1402135D01*
X1974936D01*
X1977475Y1399596D01*
Y1397056D01*
X1967318D01*
X1982553Y1402135D02*
Y1391978D01*
Y1397056D01*
X1985092Y1399596D01*
X1987632Y1402135D01*
X1990171D01*
X1860672Y1437693D02*
X1870829D01*
X1865751D01*
Y1422458D01*
X1878447D02*
X1883525D01*
X1886064Y1424997D01*
Y1430076D01*
X1883525Y1432615D01*
X1878447D01*
X1875908Y1430076D01*
Y1424997D01*
X1878447Y1422458D01*
X1891143Y1417380D02*
Y1432615D01*
X1898760D01*
X1901299Y1430076D01*
Y1424997D01*
X1898760Y1422458D01*
X1891143D01*
X1931770Y1435154D02*
X1929230Y1437693D01*
X1924152D01*
X1921613Y1435154D01*
Y1432615D01*
X1924152Y1430076D01*
X1929230D01*
X1931770Y1427536D01*
Y1424997D01*
X1929230Y1422458D01*
X1924152D01*
X1921613Y1424997D01*
X1939387Y1422458D02*
X1944465D01*
X1947005Y1424997D01*
Y1430076D01*
X1944465Y1432615D01*
X1939387D01*
X1936848Y1430076D01*
Y1424997D01*
X1939387Y1422458D01*
X1952083D02*
X1957161D01*
X1954622D01*
Y1437693D01*
X1952083D01*
X1974936D02*
Y1422458D01*
X1967318D01*
X1964779Y1424997D01*
Y1430076D01*
X1967318Y1432615D01*
X1974936D01*
X1987632Y1422458D02*
X1982553D01*
X1980014Y1424997D01*
Y1430076D01*
X1982553Y1432615D01*
X1987632D01*
X1990171Y1430076D01*
Y1427536D01*
X1980014D01*
X1995249Y1432615D02*
Y1422458D01*
Y1427536D01*
X1997788Y1430076D01*
X2000327Y1432615D01*
X2002867D01*
X1860672Y1468173D02*
X1870829D01*
X1865751D01*
Y1452938D01*
X1878447D02*
X1883525D01*
X1886064Y1455477D01*
Y1460556D01*
X1883525Y1463095D01*
X1878447D01*
X1875908Y1460556D01*
Y1455477D01*
X1878447Y1452938D01*
X1891143Y1447860D02*
Y1463095D01*
X1898760D01*
X1901299Y1460556D01*
Y1455477D01*
X1898760Y1452938D01*
X1891143D01*
X1929230Y1468173D02*
X1924152D01*
X1921613Y1465634D01*
Y1455477D01*
X1924152Y1452938D01*
X1929230D01*
X1931770Y1455477D01*
Y1465634D01*
X1929230Y1468173D01*
X1936848Y1463095D02*
X1941926Y1452938D01*
X1947005Y1463095D01*
X1959700Y1452938D02*
X1954622D01*
X1952083Y1455477D01*
Y1460556D01*
X1954622Y1463095D01*
X1959700D01*
X1962240Y1460556D01*
Y1458016D01*
X1952083D01*
X1967318Y1463095D02*
Y1452938D01*
Y1458016D01*
X1969857Y1460556D01*
X1972396Y1463095D01*
X1974936D01*
X1982553Y1452938D02*
X1987632D01*
X1985092D01*
Y1468173D01*
X1982553D01*
X1997788Y1463095D02*
X2002867D01*
X2005406Y1460556D01*
Y1452938D01*
X1997788D01*
X1995249Y1455477D01*
X1997788Y1458016D01*
X2005406D01*
X2010484Y1463095D02*
Y1455477D01*
X2013023Y1452938D01*
X2020641D01*
Y1450399D01*
X2018102Y1447860D01*
X2015562D01*
X2020641Y1452938D02*
Y1463095D01*
X2096828Y1483418D02*
Y1498653D01*
X2101906Y1493575D01*
X2106984Y1498653D01*
Y1483418D01*
X2114602Y1493575D02*
X2119680D01*
X2122219Y1491036D01*
Y1483418D01*
X2114602D01*
X2112063Y1485957D01*
X2114602Y1488496D01*
X2122219D01*
X2129837Y1496114D02*
Y1493575D01*
X2127298D01*
X2132376D01*
X2129837D01*
Y1485957D01*
X2132376Y1483418D01*
X2147611D02*
X2142533D01*
X2139994Y1485957D01*
Y1491036D01*
X2142533Y1493575D01*
X2147611D01*
X2150150Y1491036D01*
Y1488496D01*
X2139994D01*
X2155229Y1493575D02*
Y1483418D01*
Y1488496D01*
X2157768Y1491036D01*
X2160307Y1493575D01*
X2162846D01*
X2170464Y1483418D02*
X2175542D01*
X2173003D01*
Y1493575D01*
X2170464D01*
X2185699D02*
X2190777D01*
X2193316Y1491036D01*
Y1483418D01*
X2185699D01*
X2183160Y1485957D01*
X2185699Y1488496D01*
X2193316D01*
X2198395Y1483418D02*
X2203473D01*
X2200934D01*
Y1498653D01*
X2198395D01*
X2106984Y1191314D02*
X2104445Y1193853D01*
X2099367D01*
X2096828Y1191314D01*
Y1188775D01*
X2099367Y1186236D01*
X2104445D01*
X2106984Y1183696D01*
Y1181157D01*
X2104445Y1178618D01*
X2099367D01*
X2096828Y1181157D01*
X2114602Y1178618D02*
X2119680D01*
X2122219Y1181157D01*
Y1186236D01*
X2119680Y1188775D01*
X2114602D01*
X2112063Y1186236D01*
Y1181157D01*
X2114602Y1178618D01*
X2127298D02*
X2132376D01*
X2129837D01*
Y1193853D01*
X2127298D01*
X2150150D02*
Y1178618D01*
X2142533D01*
X2139994Y1181157D01*
Y1186236D01*
X2142533Y1188775D01*
X2150150D01*
X2162846Y1178618D02*
X2157768D01*
X2155229Y1181157D01*
Y1186236D01*
X2157768Y1188775D01*
X2162846D01*
X2165385Y1186236D01*
Y1183696D01*
X2155229D01*
X2170464Y1188775D02*
Y1178618D01*
Y1183696D01*
X2173003Y1186236D01*
X2175542Y1188775D01*
X2178081D01*
X2200934Y1178618D02*
Y1193853D01*
X2208551D01*
X2211091Y1191314D01*
Y1186236D01*
X2208551Y1183696D01*
X2200934D01*
X2206012D02*
X2211091Y1178618D01*
X2223787D02*
X2218708D01*
X2216169Y1181157D01*
Y1186236D01*
X2218708Y1188775D01*
X2223787D01*
X2226326Y1186236D01*
Y1183696D01*
X2216169D01*
X2231404Y1178618D02*
X2239022D01*
X2241561Y1181157D01*
X2239022Y1183696D01*
X2233943D01*
X2231404Y1186236D01*
X2233943Y1188775D01*
X2241561D01*
X2246639Y1178618D02*
X2251718D01*
X2249178D01*
Y1188775D01*
X2246639D01*
X2259335Y1178618D02*
X2266953D01*
X2269492Y1181157D01*
X2266953Y1183696D01*
X2261874D01*
X2259335Y1186236D01*
X2261874Y1188775D01*
X2269492D01*
X2277109Y1191314D02*
Y1188775D01*
X2274570D01*
X2279648D01*
X2277109D01*
Y1181157D01*
X2279648Y1178618D01*
X2106984Y1221794D02*
X2104445Y1224333D01*
X2099367D01*
X2096828Y1221794D01*
Y1211637D01*
X2099367Y1209098D01*
X2104445D01*
X2106984Y1211637D01*
X2114602Y1209098D02*
X2119680D01*
X2122219Y1211637D01*
Y1216716D01*
X2119680Y1219255D01*
X2114602D01*
X2112063Y1216716D01*
Y1211637D01*
X2114602Y1209098D01*
X2127298Y1204020D02*
Y1219255D01*
X2134915D01*
X2137455Y1216716D01*
Y1211637D01*
X2134915Y1209098D01*
X2127298D01*
X2142533Y1204020D02*
Y1219255D01*
X2150150D01*
X2152690Y1216716D01*
Y1211637D01*
X2150150Y1209098D01*
X2142533D01*
X2165385D02*
X2160307D01*
X2157768Y1211637D01*
Y1216716D01*
X2160307Y1219255D01*
X2165385D01*
X2167925Y1216716D01*
Y1214176D01*
X2157768D01*
X2173003Y1219255D02*
Y1209098D01*
Y1214176D01*
X2175542Y1216716D01*
X2178081Y1219255D01*
X2180621D01*
X2106984Y1254813D02*
X2096828D01*
Y1247196D01*
X2101906D01*
X2096828D01*
Y1239578D01*
X2112063D02*
Y1254813D01*
X2119680D01*
X2122219Y1252274D01*
Y1247196D01*
X2119680Y1244656D01*
X2112063D01*
X2117141D02*
X2122219Y1239578D01*
X2127298Y1247196D02*
X2137455D01*
X2150150Y1239578D02*
Y1254813D01*
X2142533Y1247196D01*
X2152690D01*
X2106984Y1282754D02*
X2104445Y1285293D01*
X2099367D01*
X2096828Y1282754D01*
Y1272597D01*
X2099367Y1270058D01*
X2104445D01*
X2106984Y1272597D01*
X2114602Y1270058D02*
X2119680D01*
X2122219Y1272597D01*
Y1277676D01*
X2119680Y1280215D01*
X2114602D01*
X2112063Y1277676D01*
Y1272597D01*
X2114602Y1270058D01*
X2127298Y1264980D02*
Y1280215D01*
X2134915D01*
X2137455Y1277676D01*
Y1272597D01*
X2134915Y1270058D01*
X2127298D01*
X2142533Y1264980D02*
Y1280215D01*
X2150150D01*
X2152690Y1277676D01*
Y1272597D01*
X2150150Y1270058D01*
X2142533D01*
X2165385D02*
X2160307D01*
X2157768Y1272597D01*
Y1277676D01*
X2160307Y1280215D01*
X2165385D01*
X2167925Y1277676D01*
Y1275136D01*
X2157768D01*
X2173003Y1280215D02*
Y1270058D01*
Y1275136D01*
X2175542Y1277676D01*
X2178081Y1280215D01*
X2180621D01*
X2106984Y1315773D02*
X2096828D01*
Y1308156D01*
X2101906D01*
X2096828D01*
Y1300538D01*
X2112063D02*
Y1315773D01*
X2119680D01*
X2122219Y1313234D01*
Y1308156D01*
X2119680Y1305616D01*
X2112063D01*
X2117141D02*
X2122219Y1300538D01*
X2127298Y1308156D02*
X2137455D01*
X2150150Y1300538D02*
Y1315773D01*
X2142533Y1308156D01*
X2152690D01*
X2106984Y1343714D02*
X2104445Y1346253D01*
X2099367D01*
X2096828Y1343714D01*
Y1333557D01*
X2099367Y1331018D01*
X2104445D01*
X2106984Y1333557D01*
X2114602Y1331018D02*
X2119680D01*
X2122219Y1333557D01*
Y1338636D01*
X2119680Y1341175D01*
X2114602D01*
X2112063Y1338636D01*
Y1333557D01*
X2114602Y1331018D01*
X2127298Y1325940D02*
Y1341175D01*
X2134915D01*
X2137455Y1338636D01*
Y1333557D01*
X2134915Y1331018D01*
X2127298D01*
X2142533Y1325940D02*
Y1341175D01*
X2150150D01*
X2152690Y1338636D01*
Y1333557D01*
X2150150Y1331018D01*
X2142533D01*
X2165385D02*
X2160307D01*
X2157768Y1333557D01*
Y1338636D01*
X2160307Y1341175D01*
X2165385D01*
X2167925Y1338636D01*
Y1336096D01*
X2157768D01*
X2173003Y1341175D02*
Y1331018D01*
Y1336096D01*
X2175542Y1338636D01*
X2178081Y1341175D01*
X2180621D01*
X2106984Y1376733D02*
X2096828D01*
Y1369116D01*
X2101906D01*
X2096828D01*
Y1361498D01*
X2112063D02*
Y1376733D01*
X2119680D01*
X2122219Y1374194D01*
Y1369116D01*
X2119680Y1366576D01*
X2112063D01*
X2117141D02*
X2122219Y1361498D01*
X2127298Y1369116D02*
X2137455D01*
X2150150Y1361498D02*
Y1376733D01*
X2142533Y1369116D01*
X2152690D01*
X2106984Y1404674D02*
X2104445Y1407213D01*
X2099367D01*
X2096828Y1404674D01*
Y1394517D01*
X2099367Y1391978D01*
X2104445D01*
X2106984Y1394517D01*
X2114602Y1391978D02*
X2119680D01*
X2122219Y1394517D01*
Y1399596D01*
X2119680Y1402135D01*
X2114602D01*
X2112063Y1399596D01*
Y1394517D01*
X2114602Y1391978D01*
X2127298Y1386900D02*
Y1402135D01*
X2134915D01*
X2137455Y1399596D01*
Y1394517D01*
X2134915Y1391978D01*
X2127298D01*
X2142533Y1386900D02*
Y1402135D01*
X2150150D01*
X2152690Y1399596D01*
Y1394517D01*
X2150150Y1391978D01*
X2142533D01*
X2165385D02*
X2160307D01*
X2157768Y1394517D01*
Y1399596D01*
X2160307Y1402135D01*
X2165385D01*
X2167925Y1399596D01*
Y1397056D01*
X2157768D01*
X2173003Y1402135D02*
Y1391978D01*
Y1397056D01*
X2175542Y1399596D01*
X2178081Y1402135D01*
X2180621D01*
X2106984Y1435154D02*
X2104445Y1437693D01*
X2099367D01*
X2096828Y1435154D01*
Y1432615D01*
X2099367Y1430076D01*
X2104445D01*
X2106984Y1427536D01*
Y1424997D01*
X2104445Y1422458D01*
X2099367D01*
X2096828Y1424997D01*
X2114602Y1422458D02*
X2119680D01*
X2122219Y1424997D01*
Y1430076D01*
X2119680Y1432615D01*
X2114602D01*
X2112063Y1430076D01*
Y1424997D01*
X2114602Y1422458D01*
X2127298D02*
X2132376D01*
X2129837D01*
Y1437693D01*
X2127298D01*
X2150150D02*
Y1422458D01*
X2142533D01*
X2139994Y1424997D01*
Y1430076D01*
X2142533Y1432615D01*
X2150150D01*
X2162846Y1422458D02*
X2157768D01*
X2155229Y1424997D01*
Y1430076D01*
X2157768Y1432615D01*
X2162846D01*
X2165385Y1430076D01*
Y1427536D01*
X2155229D01*
X2170464Y1432615D02*
Y1422458D01*
Y1427536D01*
X2173003Y1430076D01*
X2175542Y1432615D01*
X2178081D01*
X2200934Y1422458D02*
Y1437693D01*
X2208551D01*
X2211091Y1435154D01*
Y1430076D01*
X2208551Y1427536D01*
X2200934D01*
X2206012D02*
X2211091Y1422458D01*
X2223787D02*
X2218708D01*
X2216169Y1424997D01*
Y1430076D01*
X2218708Y1432615D01*
X2223787D01*
X2226326Y1430076D01*
Y1427536D01*
X2216169D01*
X2231404Y1422458D02*
X2239022D01*
X2241561Y1424997D01*
X2239022Y1427536D01*
X2233943D01*
X2231404Y1430076D01*
X2233943Y1432615D01*
X2241561D01*
X2246639Y1422458D02*
X2251718D01*
X2249178D01*
Y1432615D01*
X2246639D01*
X2259335Y1422458D02*
X2266953D01*
X2269492Y1424997D01*
X2266953Y1427536D01*
X2261874D01*
X2259335Y1430076D01*
X2261874Y1432615D01*
X2269492D01*
X2277109Y1435154D02*
Y1432615D01*
X2274570D01*
X2279648D01*
X2277109D01*
Y1424997D01*
X2279648Y1422458D01*
X2315208Y1498653D02*
X2325365D01*
X2320287D01*
Y1483418D01*
X2330444Y1498653D02*
Y1483418D01*
Y1491036D01*
X2332983Y1493575D01*
X2338061D01*
X2340600Y1491036D01*
Y1483418D01*
X2345679D02*
X2350757D01*
X2348218D01*
Y1493575D01*
X2345679D01*
X2368531D02*
X2360914D01*
X2358374Y1491036D01*
Y1485957D01*
X2360914Y1483418D01*
X2368531D01*
X2373610D02*
Y1498653D01*
Y1488496D02*
X2381227Y1493575D01*
X2373610Y1488496D02*
X2381227Y1483418D01*
X2388845D02*
Y1493575D01*
X2396462D01*
X2399001Y1491036D01*
Y1483418D01*
X2411697D02*
X2406619D01*
X2404080Y1485957D01*
Y1491036D01*
X2406619Y1493575D01*
X2411697D01*
X2414236Y1491036D01*
Y1488496D01*
X2404080D01*
X2419315Y1483418D02*
X2426932D01*
X2429471Y1485957D01*
X2426932Y1488496D01*
X2421854D01*
X2419315Y1491036D01*
X2421854Y1493575D01*
X2429471D01*
X2434550Y1483418D02*
X2442167D01*
X2444707Y1485957D01*
X2442167Y1488496D01*
X2437089D01*
X2434550Y1491036D01*
X2437089Y1493575D01*
X2444707D01*
X2315208Y1178618D02*
X2320287D01*
X2317748D01*
Y1193853D01*
X2315208Y1191314D01*
X2327904Y1178618D02*
Y1181157D01*
X2330444D01*
Y1178618D01*
X2327904D01*
X2340600Y1181157D02*
X2343139Y1178618D01*
X2348218D01*
X2350757Y1181157D01*
Y1191314D01*
X2348218Y1193853D01*
X2343139D01*
X2340600Y1191314D01*
Y1188775D01*
X2343139Y1186236D01*
X2350757D01*
X2355835Y1193853D02*
X2365992D01*
Y1191314D01*
X2355835Y1181157D01*
Y1178618D01*
X2371070D02*
Y1188775D01*
X2373610D01*
X2376149Y1186236D01*
Y1178618D01*
Y1186236D01*
X2378688Y1188775D01*
X2381227Y1186236D01*
Y1178618D01*
X2386306D02*
X2391384D01*
X2388845D01*
Y1188775D01*
X2386306D01*
X2399001Y1178618D02*
X2404080D01*
X2401541D01*
Y1193853D01*
X2399001D01*
X2315208Y1209098D02*
X2320287D01*
X2317748D01*
Y1224333D01*
X2315208Y1221794D01*
X2327904Y1209098D02*
Y1211637D01*
X2330444D01*
Y1209098D01*
X2327904D01*
X2348218D02*
Y1224333D01*
X2340600Y1216716D01*
X2350757D01*
X2355835Y1221794D02*
X2358374Y1224333D01*
X2363453D01*
X2365992Y1221794D01*
Y1211637D01*
X2363453Y1209098D01*
X2358374D01*
X2355835Y1211637D01*
Y1221794D01*
X2371070Y1209098D02*
Y1219255D01*
X2373610D01*
X2376149Y1216716D01*
Y1209098D01*
Y1216716D01*
X2378688Y1219255D01*
X2381227Y1216716D01*
Y1209098D01*
X2386306D02*
X2391384D01*
X2388845D01*
Y1219255D01*
X2386306D01*
X2399001Y1209098D02*
X2404080D01*
X2401541D01*
Y1224333D01*
X2399001D01*
X2325365Y1254813D02*
X2315208D01*
Y1247196D01*
X2320287Y1249735D01*
X2322826D01*
X2325365Y1247196D01*
Y1242117D01*
X2322826Y1239578D01*
X2317748D01*
X2315208Y1242117D01*
X2330444Y1239578D02*
Y1242117D01*
X2332983D01*
Y1239578D01*
X2330444D01*
X2353296D02*
X2343139D01*
X2353296Y1249735D01*
Y1252274D01*
X2350757Y1254813D01*
X2345679D01*
X2343139Y1252274D01*
X2358374D02*
X2360914Y1254813D01*
X2365992D01*
X2368531Y1252274D01*
Y1242117D01*
X2365992Y1239578D01*
X2360914D01*
X2358374Y1242117D01*
Y1252274D01*
X2373610Y1239578D02*
Y1249735D01*
X2376149D01*
X2378688Y1247196D01*
Y1239578D01*
Y1247196D01*
X2381227Y1249735D01*
X2383766Y1247196D01*
Y1239578D01*
X2388845D02*
X2393923D01*
X2391384D01*
Y1249735D01*
X2388845D01*
X2401541Y1239578D02*
X2406619D01*
X2404080D01*
Y1254813D01*
X2401541D01*
X2315208Y1270058D02*
X2320287D01*
X2317748D01*
Y1285293D01*
X2315208Y1282754D01*
X2327904Y1270058D02*
Y1272597D01*
X2330444D01*
Y1270058D01*
X2327904D01*
X2348218D02*
Y1285293D01*
X2340600Y1277676D01*
X2350757D01*
X2355835Y1282754D02*
X2358374Y1285293D01*
X2363453D01*
X2365992Y1282754D01*
Y1272597D01*
X2363453Y1270058D01*
X2358374D01*
X2355835Y1272597D01*
Y1282754D01*
X2371070Y1270058D02*
Y1280215D01*
X2373610D01*
X2376149Y1277676D01*
Y1270058D01*
Y1277676D01*
X2378688Y1280215D01*
X2381227Y1277676D01*
Y1270058D01*
X2386306D02*
X2391384D01*
X2388845D01*
Y1280215D01*
X2386306D01*
X2399001Y1270058D02*
X2404080D01*
X2401541D01*
Y1285293D01*
X2399001D01*
X2315208Y1300538D02*
X2320287D01*
X2317748D01*
Y1315773D01*
X2315208Y1313234D01*
X2327904Y1300538D02*
X2332983D01*
X2330444D01*
Y1315773D01*
X2327904Y1313234D01*
X2340600Y1300538D02*
Y1303077D01*
X2343139D01*
Y1300538D01*
X2340600D01*
X2353296Y1313234D02*
X2355835Y1315773D01*
X2360914D01*
X2363453Y1313234D01*
Y1310695D01*
X2360914Y1308156D01*
X2363453Y1305616D01*
Y1303077D01*
X2360914Y1300538D01*
X2355835D01*
X2353296Y1303077D01*
Y1305616D01*
X2355835Y1308156D01*
X2353296Y1310695D01*
Y1313234D01*
X2355835Y1308156D02*
X2360914D01*
X2368531Y1300538D02*
X2373610D01*
X2371070D01*
Y1315773D01*
X2368531Y1313234D01*
X2381227Y1300538D02*
Y1310695D01*
X2383766D01*
X2386305Y1308156D01*
Y1300538D01*
Y1308156D01*
X2388845Y1310695D01*
X2391384Y1308156D01*
Y1300538D01*
X2396462D02*
X2401541D01*
X2399001D01*
Y1310695D01*
X2396462D01*
X2409158Y1300538D02*
X2414236D01*
X2411697D01*
Y1315773D01*
X2409158D01*
X2315208Y1331018D02*
X2320287D01*
X2317748D01*
Y1346253D01*
X2315208Y1343714D01*
X2327904Y1331018D02*
Y1333557D01*
X2330444D01*
Y1331018D01*
X2327904D01*
X2348218D02*
Y1346253D01*
X2340600Y1338636D01*
X2350757D01*
X2355835Y1343714D02*
X2358374Y1346253D01*
X2363453D01*
X2365992Y1343714D01*
Y1333557D01*
X2363453Y1331018D01*
X2358374D01*
X2355835Y1333557D01*
Y1343714D01*
X2371070Y1331018D02*
Y1341175D01*
X2373610D01*
X2376149Y1338636D01*
Y1331018D01*
Y1338636D01*
X2378688Y1341175D01*
X2381227Y1338636D01*
Y1331018D01*
X2386306D02*
X2391384D01*
X2388845D01*
Y1341175D01*
X2386306D01*
X2399001Y1331018D02*
X2404080D01*
X2401541D01*
Y1346253D01*
X2399001D01*
X2325365Y1376733D02*
X2315208D01*
Y1369116D01*
X2320287Y1371655D01*
X2322826D01*
X2325365Y1369116D01*
Y1364037D01*
X2322826Y1361498D01*
X2317748D01*
X2315208Y1364037D01*
X2330444Y1361498D02*
Y1364037D01*
X2332983D01*
Y1361498D01*
X2330444D01*
X2353296D02*
X2343139D01*
X2353296Y1371655D01*
Y1374194D01*
X2350757Y1376733D01*
X2345679D01*
X2343139Y1374194D01*
X2358374D02*
X2360914Y1376733D01*
X2365992D01*
X2368531Y1374194D01*
Y1364037D01*
X2365992Y1361498D01*
X2360914D01*
X2358374Y1364037D01*
Y1374194D01*
X2373610Y1361498D02*
Y1371655D01*
X2376149D01*
X2378688Y1369116D01*
Y1361498D01*
Y1369116D01*
X2381227Y1371655D01*
X2383766Y1369116D01*
Y1361498D01*
X2388845D02*
X2393923D01*
X2391384D01*
Y1371655D01*
X2388845D01*
X2401541Y1361498D02*
X2406619D01*
X2404080D01*
Y1376733D01*
X2401541D01*
X2315208Y1391978D02*
X2320287D01*
X2317748D01*
Y1407213D01*
X2315208Y1404674D01*
X2327904Y1391978D02*
Y1394517D01*
X2330444D01*
Y1391978D01*
X2327904D01*
X2348218D02*
Y1407213D01*
X2340600Y1399596D01*
X2350757D01*
X2355835Y1404674D02*
X2358374Y1407213D01*
X2363453D01*
X2365992Y1404674D01*
Y1394517D01*
X2363453Y1391978D01*
X2358374D01*
X2355835Y1394517D01*
Y1404674D01*
X2371070Y1391978D02*
Y1402135D01*
X2373610D01*
X2376149Y1399596D01*
Y1391978D01*
Y1399596D01*
X2378688Y1402135D01*
X2381227Y1399596D01*
Y1391978D01*
X2386306D02*
X2391384D01*
X2388845D01*
Y1402135D01*
X2386306D01*
X2399001Y1391978D02*
X2404080D01*
X2401541D01*
Y1407213D01*
X2399001D01*
X2315208Y1422458D02*
X2320287D01*
X2317748D01*
Y1437693D01*
X2315208Y1435154D01*
X2327904Y1422458D02*
Y1424997D01*
X2330444D01*
Y1422458D01*
X2327904D01*
X2340600Y1424997D02*
X2343139Y1422458D01*
X2348218D01*
X2350757Y1424997D01*
Y1435154D01*
X2348218Y1437693D01*
X2343139D01*
X2340600Y1435154D01*
Y1432615D01*
X2343139Y1430076D01*
X2350757D01*
X2355835Y1437693D02*
X2365992D01*
Y1435154D01*
X2355835Y1424997D01*
Y1422458D01*
X2371070D02*
Y1432615D01*
X2373610D01*
X2376149Y1430076D01*
Y1422458D01*
Y1430076D01*
X2378688Y1432615D01*
X2381227Y1430076D01*
Y1422458D01*
X2386306D02*
X2391384D01*
X2388845D01*
Y1432615D01*
X2386306D01*
X2399001Y1422458D02*
X2404080D01*
X2401541D01*
Y1437693D01*
X2399001D01*
X2490423Y1496114D02*
X2487884Y1498653D01*
X2482806D01*
X2480267Y1496114D01*
Y1485957D01*
X2482806Y1483418D01*
X2487884D01*
X2490423Y1485957D01*
X2498041Y1483418D02*
X2503119D01*
X2505658Y1485957D01*
Y1491036D01*
X2503119Y1493575D01*
X2498041D01*
X2495502Y1491036D01*
Y1485957D01*
X2498041Y1483418D01*
X2510737D02*
Y1493575D01*
X2518354D01*
X2520894Y1491036D01*
Y1483418D01*
X2525972D02*
X2533589D01*
X2536129Y1485957D01*
X2533589Y1488496D01*
X2528511D01*
X2525972Y1491036D01*
X2528511Y1493575D01*
X2536129D01*
X2543746Y1496114D02*
Y1493575D01*
X2541207D01*
X2546285D01*
X2543746D01*
Y1485957D01*
X2546285Y1483418D01*
X2556442Y1493575D02*
X2561520D01*
X2564059Y1491036D01*
Y1483418D01*
X2556442D01*
X2553903Y1485957D01*
X2556442Y1488496D01*
X2564059D01*
X2569138Y1483418D02*
Y1493575D01*
X2576755D01*
X2579295Y1491036D01*
Y1483418D01*
X2586912Y1496114D02*
Y1493575D01*
X2584373D01*
X2589451D01*
X2586912D01*
Y1485957D01*
X2589451Y1483418D01*
X2480267Y1191314D02*
X2482806Y1193853D01*
X2487884D01*
X2490423Y1191314D01*
Y1188775D01*
X2487884Y1186236D01*
X2485345D01*
X2487884D01*
X2490423Y1183696D01*
Y1181157D01*
X2487884Y1178618D01*
X2482806D01*
X2480267Y1181157D01*
X2495502Y1178618D02*
Y1181157D01*
X2498041D01*
Y1178618D01*
X2495502D01*
X2518354Y1193853D02*
X2508197D01*
Y1186236D01*
X2513276Y1188775D01*
X2515815D01*
X2518354Y1186236D01*
Y1181157D01*
X2515815Y1178618D01*
X2510737D01*
X2508197Y1181157D01*
X2487884Y1239578D02*
Y1254813D01*
X2480267Y1247196D01*
X2490423D01*
X2495502Y1239578D02*
Y1242117D01*
X2498041D01*
Y1239578D01*
X2495502D01*
X2508197Y1252274D02*
X2510737Y1254813D01*
X2515815D01*
X2518354Y1252274D01*
Y1249735D01*
X2515815Y1247196D01*
X2518354Y1244656D01*
Y1242117D01*
X2515815Y1239578D01*
X2510737D01*
X2508197Y1242117D01*
Y1244656D01*
X2510737Y1247196D01*
X2508197Y1249735D01*
Y1252274D01*
X2510737Y1247196D02*
X2515815D01*
X2487884Y1300538D02*
Y1315773D01*
X2480267Y1308156D01*
X2490423D01*
X2495502Y1300538D02*
Y1303077D01*
X2498041D01*
Y1300538D01*
X2495502D01*
X2508197Y1313234D02*
X2510737Y1315773D01*
X2515815D01*
X2518354Y1313234D01*
Y1310695D01*
X2515815Y1308156D01*
X2518354Y1305616D01*
Y1303077D01*
X2515815Y1300538D01*
X2510737D01*
X2508197Y1303077D01*
Y1305616D01*
X2510737Y1308156D01*
X2508197Y1310695D01*
Y1313234D01*
X2510737Y1308156D02*
X2515815D01*
X2487884Y1361498D02*
Y1376733D01*
X2480267Y1369116D01*
X2490423D01*
X2495502Y1361498D02*
Y1364037D01*
X2498041D01*
Y1361498D01*
X2495502D01*
X2508197Y1374194D02*
X2510737Y1376733D01*
X2515815D01*
X2518354Y1374194D01*
Y1371655D01*
X2515815Y1369116D01*
X2518354Y1366576D01*
Y1364037D01*
X2515815Y1361498D01*
X2510737D01*
X2508197Y1364037D01*
Y1366576D01*
X2510737Y1369116D01*
X2508197Y1371655D01*
Y1374194D01*
X2510737Y1369116D02*
X2515815D01*
X2480267Y1435154D02*
X2482806Y1437693D01*
X2487884D01*
X2490423Y1435154D01*
Y1432615D01*
X2487884Y1430076D01*
X2485345D01*
X2487884D01*
X2490423Y1427536D01*
Y1424997D01*
X2487884Y1422458D01*
X2482806D01*
X2480267Y1424997D01*
X2495502Y1422458D02*
Y1424997D01*
X2498041D01*
Y1422458D01*
X2495502D01*
X2518354Y1437693D02*
X2508197D01*
Y1430076D01*
X2513276Y1432615D01*
X2515815D01*
X2518354Y1430076D01*
Y1424997D01*
X2515815Y1422458D01*
X2510737D01*
X2508197Y1424997D01*
X2625011Y1498653D02*
Y1483418D01*
X2632629D01*
X2635168Y1485957D01*
Y1488496D01*
X2632629Y1491036D01*
X2625011D01*
X2632629D01*
X2635168Y1493575D01*
Y1496114D01*
X2632629Y1498653D01*
X2625011D01*
X2642786Y1483418D02*
X2647864D01*
X2650403Y1485957D01*
Y1491036D01*
X2647864Y1493575D01*
X2642786D01*
X2640246Y1491036D01*
Y1485957D01*
X2642786Y1483418D01*
X2658021Y1493575D02*
X2663099D01*
X2665638Y1491036D01*
Y1483418D01*
X2658021D01*
X2655481Y1485957D01*
X2658021Y1488496D01*
X2665638D01*
X2670717Y1493575D02*
Y1483418D01*
Y1488496D01*
X2673256Y1491036D01*
X2675795Y1493575D01*
X2678334D01*
X2696108Y1498653D02*
Y1483418D01*
X2688491D01*
X2685952Y1485957D01*
Y1491036D01*
X2688491Y1493575D01*
X2696108D01*
X2716422Y1498653D02*
Y1483418D01*
X2726578D01*
X2734196Y1493575D02*
X2739274D01*
X2741813Y1491036D01*
Y1483418D01*
X2734196D01*
X2731657Y1485957D01*
X2734196Y1488496D01*
X2741813D01*
X2746892Y1493575D02*
Y1485957D01*
X2749431Y1483418D01*
X2757049D01*
Y1480879D01*
X2754509Y1478340D01*
X2751970D01*
X2757049Y1483418D02*
Y1493575D01*
X2769744Y1483418D02*
X2764666D01*
X2762127Y1485957D01*
Y1491036D01*
X2764666Y1493575D01*
X2769744D01*
X2772284Y1491036D01*
Y1488496D01*
X2762127D01*
X2777362Y1493575D02*
Y1483418D01*
Y1488496D01*
X2779901Y1491036D01*
X2782440Y1493575D01*
X2784980D01*
X2817989Y1496114D02*
X2815450Y1498653D01*
X2810371D01*
X2807832Y1496114D01*
Y1493575D01*
X2810371Y1491036D01*
X2815450D01*
X2817989Y1488496D01*
Y1485957D01*
X2815450Y1483418D01*
X2810371D01*
X2807832Y1485957D01*
X2825606Y1496114D02*
Y1493575D01*
X2823067D01*
X2828146D01*
X2825606D01*
Y1485957D01*
X2828146Y1483418D01*
X2838302Y1493575D02*
X2843381D01*
X2845920Y1491036D01*
Y1483418D01*
X2838302D01*
X2835763Y1485957D01*
X2838302Y1488496D01*
X2845920D01*
X2861155Y1493575D02*
X2853537D01*
X2850998Y1491036D01*
Y1485957D01*
X2853537Y1483418D01*
X2861155D01*
X2866233D02*
Y1498653D01*
Y1488496D02*
X2873851Y1493575D01*
X2866233Y1488496D02*
X2873851Y1483418D01*
D16*
X-29238Y20553D02*
G03*
X5403Y-39447I34641J-20000D01*
G01*
X425762Y688636D02*
G03*
X356480Y688636I-34641J-20000D01*
G01*
X776839Y-39447D02*
G03*
X811480Y20553I0J40000D01*
G01*
X-29238D02*
X356480Y688636D01*
X425762D02*
X811480Y20553D01*
X434675Y-39447D02*
X776839D01*
X5403D02*
X434675D01*
D97*
X-479052Y1802626D02*
X-504444D01*
Y1783582D01*
X-491748D01*
X-504444D01*
Y1764538D01*
X-466356D02*
Y1789930D01*
X-453660Y1802626D01*
X-440965Y1789930D01*
Y1764538D01*
Y1783582D01*
X-466356D01*
X-428269Y1802626D02*
Y1764538D01*
X-409225D01*
X-402877Y1770886D01*
Y1777234D01*
X-409225Y1783582D01*
X-428269D01*
X-409225D01*
X-402877Y1789930D01*
Y1796278D01*
X-409225Y1802626D01*
X-428269D01*
X-390181Y1764538D02*
Y1802626D01*
X-371137D01*
X-364789Y1796278D01*
Y1783582D01*
X-371137Y1777234D01*
X-390181D01*
X-377485D02*
X-364789Y1764538D01*
X-352093Y1802626D02*
X-339397D01*
X-345745D01*
Y1764538D01*
X-352093D01*
X-339397D01*
X-294962Y1796278D02*
X-301310Y1802626D01*
X-314006D01*
X-320354Y1796278D01*
Y1770886D01*
X-314006Y1764538D01*
X-301310D01*
X-294962Y1770886D01*
X-282266Y1764538D02*
Y1789930D01*
X-269570Y1802626D01*
X-256874Y1789930D01*
Y1764538D01*
Y1783582D01*
X-282266D01*
X-244178Y1802626D02*
X-218786D01*
X-231482D01*
Y1764538D01*
X-206091Y1802626D02*
X-193395D01*
X-199743D01*
Y1764538D01*
X-206091D01*
X-193395D01*
X-155307Y1802626D02*
X-168003D01*
X-174351Y1796278D01*
Y1770886D01*
X-168003Y1764538D01*
X-155307D01*
X-148959Y1770886D01*
Y1796278D01*
X-155307Y1802626D01*
X-136263Y1764538D02*
Y1802626D01*
X-110871Y1764538D01*
Y1802626D01*
X-60088Y1764538D02*
Y1802626D01*
X-34696Y1764538D01*
Y1802626D01*
X-2956D02*
X-15652D01*
X-22000Y1796278D01*
Y1770886D01*
X-15652Y1764538D01*
X-2956D01*
X3392Y1770886D01*
Y1796278D01*
X-2956Y1802626D01*
X16088D02*
X41479D01*
X28784D01*
Y1764538D01*
X79567Y1802626D02*
X54175D01*
Y1764538D01*
X79567D01*
X54175Y1783582D02*
X66871D01*
X117655Y1796278D02*
X111307Y1802626D01*
X98611D01*
X92263Y1796278D01*
Y1789930D01*
X98611Y1783582D01*
X111307D01*
X117655Y1777234D01*
Y1770886D01*
X111307Y1764538D01*
X98611D01*
X92263Y1770886D01*
D144*
X2878931Y1140518D02*
X2894171Y1155758D01*
X2863691Y1140518D02*
X2894171Y1170998D01*
X2848451Y1140518D02*
X2878931Y1170998D01*
X2833211Y1140518D02*
X2863691Y1170998D01*
X2817971Y1140518D02*
X2848451Y1170998D01*
X2802731Y1140518D02*
X2833211Y1170998D01*
X2787491Y1140518D02*
X2817971Y1170998D01*
X2772251Y1140518D02*
X2802731Y1170998D01*
X2757011Y1140518D02*
X2787491Y1170998D01*
X2741771Y1140518D02*
X2772251Y1170998D01*
X2726531Y1140518D02*
X2757011Y1170998D01*
X2711291Y1140518D02*
X2741771Y1170998D01*
X2696051Y1140518D02*
X2726531Y1170998D01*
X2680811Y1140518D02*
X2711291Y1170998D01*
X2665571Y1140518D02*
X2696051Y1170998D01*
X2650331Y1140518D02*
X2680811Y1170998D01*
X2635091Y1140518D02*
X2665571Y1170998D01*
X2619851Y1140518D02*
X2650331Y1170998D01*
X2609771Y1145679D02*
X2635091Y1170998D01*
X2609771Y1160919D02*
X2619851Y1170998D01*
X2878931D02*
X2894171Y1186238D01*
X2863691Y1170998D02*
X2894171Y1201478D01*
X2848451Y1170998D02*
X2878931Y1201478D01*
X2833211Y1170998D02*
X2863691Y1201478D01*
X2817971Y1170998D02*
X2848451Y1201478D01*
X2802731Y1170998D02*
X2833211Y1201478D01*
X2787491Y1170998D02*
X2817971Y1201478D01*
X2772251Y1170998D02*
X2802731Y1201478D01*
X2757011Y1170998D02*
X2787491Y1201478D01*
X2741771Y1170998D02*
X2772251Y1201478D01*
X2726531Y1170998D02*
X2757011Y1201478D01*
X2711291Y1170998D02*
X2741771Y1201478D01*
X2696051Y1170998D02*
X2726531Y1201478D01*
X2680811Y1170998D02*
X2711291Y1201478D01*
X2665571Y1170998D02*
X2696051Y1201478D01*
X2650331Y1170998D02*
X2680811Y1201478D01*
X2635091Y1170998D02*
X2665571Y1201478D01*
X2619851Y1170998D02*
X2650331Y1201478D01*
X2609771Y1176159D02*
X2635091Y1201478D01*
X2609771Y1191399D02*
X2619851Y1201478D01*
X2878931D02*
X2894171Y1216718D01*
X2863691Y1201478D02*
X2894171Y1231958D01*
X2848451Y1201478D02*
X2878931Y1231958D01*
X2833211Y1201478D02*
X2863691Y1231958D01*
X2817971Y1201478D02*
X2848451Y1231958D01*
X2802731Y1201478D02*
X2833211Y1231958D01*
X2787491Y1201478D02*
X2817971Y1231958D01*
X2772251Y1201478D02*
X2802731Y1231958D01*
X2757011Y1201478D02*
X2787491Y1231958D01*
X2741771Y1201478D02*
X2772251Y1231958D01*
X2726531Y1201478D02*
X2757011Y1231958D01*
X2711291Y1201478D02*
X2741771Y1231958D01*
X2696051Y1201478D02*
X2726531Y1231958D01*
X2680811Y1201478D02*
X2711291Y1231958D01*
X2665571Y1201478D02*
X2696051Y1231958D01*
X2650331Y1201478D02*
X2680811Y1231958D01*
X2635091Y1201478D02*
X2665571Y1231958D01*
X2619851Y1201478D02*
X2650331Y1231958D01*
X2609771Y1206639D02*
X2635091Y1231958D01*
X2609771Y1221879D02*
X2619851Y1231958D01*
X2878931D02*
X2894171Y1247198D01*
X2863691Y1231958D02*
X2894171Y1262438D01*
X2848451Y1231958D02*
X2878931Y1262438D01*
X2833211Y1231958D02*
X2863691Y1262438D01*
X2817971Y1231958D02*
X2848451Y1262438D01*
X2802731Y1231958D02*
X2833211Y1262438D01*
X2787491Y1231958D02*
X2817971Y1262438D01*
X2772251Y1231958D02*
X2802731Y1262438D01*
X2757011Y1231958D02*
X2787491Y1262438D01*
X2741771Y1231958D02*
X2772251Y1262438D01*
X2726531Y1231958D02*
X2757011Y1262438D01*
X2711291Y1231958D02*
X2741771Y1262438D01*
X2696051Y1231958D02*
X2726531Y1262438D01*
X2680811Y1231958D02*
X2711291Y1262438D01*
X2665571Y1231958D02*
X2696051Y1262438D01*
X2650331Y1231958D02*
X2680811Y1262438D01*
X2635091Y1231958D02*
X2665571Y1262438D01*
X2619851Y1231958D02*
X2650331Y1262438D01*
X2609771Y1237119D02*
X2635091Y1262438D01*
X2609771Y1252359D02*
X2619851Y1262438D01*
X2878931D02*
X2894171Y1277678D01*
X2863691Y1262438D02*
X2894171Y1292918D01*
X2848451Y1262438D02*
X2878931Y1292918D01*
X2833211Y1262438D02*
X2863691Y1292918D01*
X2817971Y1262438D02*
X2848451Y1292918D01*
X2802731Y1262438D02*
X2833211Y1292918D01*
X2787491Y1262438D02*
X2817971Y1292918D01*
X2772251Y1262438D02*
X2802731Y1292918D01*
X2757011Y1262438D02*
X2787491Y1292918D01*
X2741771Y1262438D02*
X2772251Y1292918D01*
X2726531Y1262438D02*
X2757011Y1292918D01*
X2711291Y1262438D02*
X2741771Y1292918D01*
X2696051Y1262438D02*
X2726531Y1292918D01*
X2680811Y1262438D02*
X2711291Y1292918D01*
X2665571Y1262438D02*
X2696051Y1292918D01*
X2650331Y1262438D02*
X2680811Y1292918D01*
X2635091Y1262438D02*
X2665571Y1292918D01*
X2619851Y1262438D02*
X2650331Y1292918D01*
X2609771Y1267599D02*
X2635091Y1292918D01*
X2609771Y1282839D02*
X2619851Y1292918D01*
X2878931D02*
X2894171Y1308158D01*
X2863691Y1292918D02*
X2894171Y1323398D01*
X2848451Y1292918D02*
X2878931Y1323398D01*
X2833211Y1292918D02*
X2863691Y1323398D01*
X2817971Y1292918D02*
X2848451Y1323398D01*
X2802731Y1292918D02*
X2833211Y1323398D01*
X2787491Y1292918D02*
X2817971Y1323398D01*
X2772251Y1292918D02*
X2802731Y1323398D01*
X2757011Y1292918D02*
X2787491Y1323398D01*
X2741771Y1292918D02*
X2772251Y1323398D01*
X2726531Y1292918D02*
X2757011Y1323398D01*
X2711291Y1292918D02*
X2741771Y1323398D01*
X2696051Y1292918D02*
X2726531Y1323398D01*
X2680811Y1292918D02*
X2711291Y1323398D01*
X2665571Y1292918D02*
X2696051Y1323398D01*
X2650331Y1292918D02*
X2680811Y1323398D01*
X2635091Y1292918D02*
X2665571Y1323398D01*
X2619851Y1292918D02*
X2650331Y1323398D01*
X2609771Y1298079D02*
X2635091Y1323398D01*
X2609771Y1313319D02*
X2619851Y1323398D01*
X2878931D02*
X2894171Y1338638D01*
X2863691Y1323398D02*
X2894171Y1353878D01*
X2848451Y1323398D02*
X2878931Y1353878D01*
X2833211Y1323398D02*
X2863691Y1353878D01*
X2817971Y1323398D02*
X2848451Y1353878D01*
X2802731Y1323398D02*
X2833211Y1353878D01*
X2787491Y1323398D02*
X2817971Y1353878D01*
X2772251Y1323398D02*
X2802731Y1353878D01*
X2757011Y1323398D02*
X2787491Y1353878D01*
X2741771Y1323398D02*
X2772251Y1353878D01*
X2726531Y1323398D02*
X2757011Y1353878D01*
X2711291Y1323398D02*
X2741771Y1353878D01*
X2696051Y1323398D02*
X2726531Y1353878D01*
X2680811Y1323398D02*
X2711291Y1353878D01*
X2665571Y1323398D02*
X2696051Y1353878D01*
X2650331Y1323398D02*
X2680811Y1353878D01*
X2635091Y1323398D02*
X2665571Y1353878D01*
X2619851Y1323398D02*
X2650331Y1353878D01*
X2609771Y1328559D02*
X2635091Y1353878D01*
X2609771Y1343799D02*
X2619851Y1353878D01*
X2878931D02*
X2894171Y1369118D01*
X2863691Y1353878D02*
X2894171Y1384358D01*
X2848451Y1353878D02*
X2878931Y1384358D01*
X2833211Y1353878D02*
X2863691Y1384358D01*
X2817971Y1353878D02*
X2848451Y1384358D01*
X2802731Y1353878D02*
X2833211Y1384358D01*
X2787491Y1353878D02*
X2817971Y1384358D01*
X2772251Y1353878D02*
X2802731Y1384358D01*
X2757011Y1353878D02*
X2787491Y1384358D01*
X2741771Y1353878D02*
X2772251Y1384358D01*
X2726531Y1353878D02*
X2757011Y1384358D01*
X2711291Y1353878D02*
X2741771Y1384358D01*
X2696051Y1353878D02*
X2726531Y1384358D01*
X2680811Y1353878D02*
X2711291Y1384358D01*
X2665571Y1353878D02*
X2696051Y1384358D01*
X2650331Y1353878D02*
X2680811Y1384358D01*
X2635091Y1353878D02*
X2665571Y1384358D01*
X2619851Y1353878D02*
X2650331Y1384358D01*
X2609771Y1359039D02*
X2635091Y1384358D01*
X2609771Y1374279D02*
X2619851Y1384358D01*
X2878931D02*
X2894171Y1399598D01*
X2863691Y1384358D02*
X2894171Y1414838D01*
X2848451Y1384358D02*
X2878931Y1414838D01*
X2833211Y1384358D02*
X2863691Y1414838D01*
X2817971Y1384358D02*
X2848451Y1414838D01*
X2802731Y1384358D02*
X2833211Y1414838D01*
X2787491Y1384358D02*
X2817971Y1414838D01*
X2772251Y1384358D02*
X2802731Y1414838D01*
X2757011Y1384358D02*
X2787491Y1414838D01*
X2741771Y1384358D02*
X2772251Y1414838D01*
X2726531Y1384358D02*
X2757011Y1414838D01*
X2711291Y1384358D02*
X2741771Y1414838D01*
X2696051Y1384358D02*
X2726531Y1414838D01*
X2680811Y1384358D02*
X2711291Y1414838D01*
X2665571Y1384358D02*
X2696051Y1414838D01*
X2650331Y1384358D02*
X2680811Y1414838D01*
X2635091Y1384358D02*
X2665571Y1414838D01*
X2619851Y1384358D02*
X2650331Y1414838D01*
X2609771Y1389519D02*
X2635091Y1414838D01*
X2609771Y1404759D02*
X2619851Y1414838D01*
X2878931D02*
X2894171Y1430078D01*
X2863691Y1414838D02*
X2894171Y1445318D01*
X2848451Y1414838D02*
X2878931Y1445318D01*
X2833211Y1414838D02*
X2863691Y1445318D01*
X2817971Y1414838D02*
X2848451Y1445318D01*
X2802731Y1414838D02*
X2833211Y1445318D01*
X2787491Y1414838D02*
X2817971Y1445318D01*
X2772251Y1414838D02*
X2802731Y1445318D01*
X2757011Y1414838D02*
X2787491Y1445318D01*
X2741771Y1414838D02*
X2772251Y1445318D01*
X2726531Y1414838D02*
X2757011Y1445318D01*
X2711291Y1414838D02*
X2741771Y1445318D01*
X2696051Y1414838D02*
X2726531Y1445318D01*
X2680811Y1414838D02*
X2711291Y1445318D01*
X2665571Y1414838D02*
X2696051Y1445318D01*
X2650331Y1414838D02*
X2680811Y1445318D01*
X2635091Y1414838D02*
X2665571Y1445318D01*
X2619851Y1414838D02*
X2650331Y1445318D01*
X2609771Y1419999D02*
X2635091Y1445318D01*
X2609771Y1435239D02*
X2619851Y1445318D01*
X2878931D02*
X2894171Y1460558D01*
X2863691Y1445318D02*
X2894171Y1475798D01*
X2848451Y1445318D02*
X2878931Y1475798D01*
X2833211Y1445318D02*
X2863691Y1475798D01*
X2817971Y1445318D02*
X2848451Y1475798D01*
X2802731Y1445318D02*
X2833211Y1475798D01*
X2787491Y1445318D02*
X2817971Y1475798D01*
X2772251Y1445318D02*
X2802731Y1475798D01*
X2757011Y1445318D02*
X2787491Y1475798D01*
X2741771Y1445318D02*
X2772251Y1475798D01*
X2726531Y1445318D02*
X2757011Y1475798D01*
X2711291Y1445318D02*
X2741771Y1475798D01*
X2696051Y1445318D02*
X2726531Y1475798D01*
X2680811Y1445318D02*
X2711291Y1475798D01*
X2665571Y1445318D02*
X2696051Y1475798D01*
X2650331Y1445318D02*
X2680811Y1475798D01*
X2635091Y1445318D02*
X2665571Y1475798D01*
X2619851Y1445318D02*
X2650331Y1475798D01*
X2609771Y1450479D02*
X2635091Y1475798D01*
X2609771Y1465719D02*
X2619851Y1475798D01*
X2848969Y120501D02*
X2893459Y164991D01*
X2833073Y119846D02*
X2893816Y180588D01*
X2817834Y119846D02*
X2890928Y192940D01*
X2802593Y119846D02*
X2885909Y203161D01*
X2787354Y119846D02*
X2880331Y212823D01*
X2772114Y119846D02*
X2874753Y222484D01*
X2756873Y119846D02*
X2869174Y232146D01*
X2741634Y119846D02*
X2863596Y241808D01*
X2726393Y119846D02*
X2858018Y251470D01*
X2711154Y119846D02*
X2852440Y261131D01*
X2695913Y119846D02*
X2846861Y270793D01*
X2680674Y119846D02*
X2841283Y280455D01*
X2665433Y119846D02*
X2835705Y290117D01*
X2650193Y119846D02*
X2830127Y299778D01*
X2634954Y119846D02*
X2824548Y309440D01*
X2619713Y119846D02*
X2818970Y319102D01*
X2604474Y119846D02*
X2813392Y328764D01*
X2589233Y119846D02*
X2807814Y338426D01*
X2573994Y119846D02*
X2802235Y348087D01*
X2558754Y119846D02*
X2796657Y357749D01*
X2543513Y119846D02*
X2791079Y367411D01*
X2528273Y119846D02*
X2785501Y377073D01*
X2513033Y119846D02*
X2779922Y386735D01*
X2497793Y119846D02*
X2774344Y396396D01*
X2482554Y119846D02*
X2768766Y406058D01*
X2467314Y119846D02*
X2763188Y415720D01*
X2452074Y119846D02*
X2757610Y425382D01*
X2436833Y119846D02*
X2752031Y435043D01*
X2421593Y119846D02*
X2746453Y444705D01*
X2406353Y119846D02*
X2740875Y454367D01*
X2391113Y119846D02*
X2735297Y464029D01*
X2375874Y119846D02*
X2729718Y473690D01*
X2360634Y119846D02*
X2724140Y483352D01*
X2345394Y119846D02*
X2718562Y493014D01*
X2330154Y119846D02*
X2712984Y502676D01*
X2314913Y119846D02*
X2707405Y512337D01*
X2299673Y119846D02*
X2701827Y521999D01*
X2284433Y119846D02*
X2696249Y531661D01*
X2269194Y119846D02*
X2690671Y541323D01*
X2253954Y119846D02*
X2685092Y550985D01*
X2238714Y119846D02*
X2679514Y560646D01*
X2223474Y119846D02*
X2673936Y570308D01*
X2208233Y119846D02*
X2668358Y579970D01*
X2192993Y119846D02*
X2662780Y589632D01*
X2177753Y119846D02*
X2657202Y599294D01*
X2162513Y119846D02*
X2651623Y608955D01*
X2147274Y119846D02*
X2646045Y618617D01*
X2132034Y119846D02*
X2640467Y628279D01*
X2116794Y119846D02*
X2634889Y637941D01*
X2101553Y119846D02*
X2629310Y647602D01*
X2086313Y119846D02*
X2623732Y657264D01*
X2071073Y119846D02*
X2618154Y666926D01*
X2055833Y119846D02*
X2612576Y676588D01*
X2040594Y119846D02*
X2606997Y686249D01*
X2025354Y119846D02*
X2601419Y695911D01*
X2010114Y119846D02*
X2595841Y705573D01*
X1994874Y119846D02*
X2590263Y715235D01*
X1979633Y119846D02*
X2584684Y724896D01*
X1964393Y119846D02*
X2579106Y734558D01*
X1949153Y119846D02*
X2573528Y744220D01*
X1933914Y119846D02*
X2567950Y753882D01*
X1918674Y119846D02*
X2562372Y763544D01*
X1903434Y119846D02*
X2556793Y773205D01*
X1888194Y119846D02*
X2551215Y782867D01*
X1872953Y119846D02*
X2545637Y792529D01*
X1857713Y119846D02*
X2540059Y802191D01*
X1842473Y119846D02*
X2534480Y811852D01*
X1827233Y119846D02*
X2528902Y821514D01*
X1811994Y119846D02*
X2523324Y831176D01*
X1796754Y119846D02*
X2517746Y840838D01*
X1782912Y121244D02*
X2512168Y850500D01*
X1771631Y125203D02*
X2506589Y860161D01*
X1762314Y131126D02*
X2501011Y869823D01*
X1754426Y138477D02*
X2495433Y879485D01*
X1748207Y147499D02*
X2489855Y889147D01*
X1743633Y158165D02*
X2484276Y898809D01*
X1741315Y171087D02*
X2478698Y908470D01*
X1743093Y188105D02*
X2473120Y918132D01*
X1758685Y218937D02*
X2467542Y927794D01*
X1779503Y254995D02*
X2461964Y937456D01*
X1800321Y291053D02*
X2456385Y947117D01*
X1821140Y327112D02*
X2450807Y956779D01*
X1841958Y363170D02*
X2445229Y966441D01*
X1862776Y399228D02*
X2439651Y976103D01*
X1883594Y435286D02*
X2434072Y985764D01*
X1904413Y471345D02*
X2428494Y995426D01*
X1925231Y507403D02*
X2422916Y1005088D01*
X1946049Y543461D02*
X2417338Y1014750D01*
X1966867Y579519D02*
X2411759Y1024411D01*
X1987686Y615578D02*
X2406181Y1034073D01*
X2008504Y651636D02*
X2400603Y1043735D01*
X2029322Y687694D02*
X2395025Y1053397D01*
X2050140Y723752D02*
X2389447Y1063059D01*
X2070958Y759810D02*
X2383868Y1072720D01*
X2091777Y795869D02*
X2378290Y1082382D01*
X2112595Y831927D02*
X2372712Y1092044D01*
X2133413Y867985D02*
X2367134Y1101706D01*
X2154231Y904043D02*
X2361310Y1111122D01*
X2175049Y940101D02*
X2354109Y1119161D01*
X2195868Y976160D02*
X2345280Y1125572D01*
X2216686Y1012218D02*
X2334879Y1130412D01*
X2237504Y1048276D02*
X2322201Y1132973D01*
X2258322Y1084334D02*
X2305788Y1131800D01*
D145*
X2320076Y-307847D02*
Y-347834D01*
X2340069D01*
X2346734Y-341170D01*
Y-334505D01*
X2340069Y-327840D01*
X2320076D01*
X2340069D01*
X2346734Y-321176D01*
Y-314511D01*
X2340069Y-307847D01*
X2320076D01*
X2360063Y-347834D02*
Y-321176D01*
X2373392Y-307847D01*
X2386721Y-321176D01*
Y-347834D01*
Y-327840D01*
X2360063D01*
X2426708Y-314511D02*
X2420044Y-307847D01*
X2406715D01*
X2400050Y-314511D01*
Y-321176D01*
X2406715Y-327840D01*
X2420044D01*
X2426708Y-334505D01*
Y-341170D01*
X2420044Y-347834D01*
X2406715D01*
X2400050Y-341170D01*
X2466695Y-307847D02*
X2440037D01*
Y-347834D01*
X2466695D01*
X2440037Y-327840D02*
X2453366D01*
X2520011Y-307847D02*
Y-347834D01*
X2540005D01*
X2546669Y-341170D01*
Y-334505D01*
X2540005Y-327840D01*
X2520011D01*
X2540005D01*
X2546669Y-321176D01*
Y-314511D01*
X2540005Y-307847D01*
X2520011D01*
X2579992D02*
X2566663D01*
X2559998Y-314511D01*
Y-341170D01*
X2566663Y-347834D01*
X2579992D01*
X2586656Y-341170D01*
Y-314511D01*
X2579992Y-307847D01*
X2599985Y-347834D02*
Y-321176D01*
X2613315Y-307847D01*
X2626643Y-321176D01*
Y-347834D01*
Y-327840D01*
X2599985D01*
X2639973Y-347834D02*
Y-307847D01*
X2659966D01*
X2666631Y-314511D01*
Y-327840D01*
X2659966Y-334505D01*
X2639973D01*
X2653302D02*
X2666631Y-347834D01*
X2679960Y-307847D02*
Y-347834D01*
X2699953D01*
X2706618Y-341170D01*
Y-314511D01*
X2699953Y-307847D01*
X2679960D01*
M02*
