G04*
G04 #@! TF.GenerationSoftware,Altium Limited,Altium Designer,19.0.12 (326)*
G04*
G04 Layer_Color=8388736*
%FSLAX44Y44*%
%MOMM*%
G71*
G01*
G75*
%ADD16C,0.1270*%
%ADD27R,0.5000X0.4000*%
G04:AMPARAMS|DCode=51|XSize=0.8mm|YSize=0.8mm|CornerRadius=0.049mm|HoleSize=0mm|Usage=FLASHONLY|Rotation=0.000|XOffset=0mm|YOffset=0mm|HoleType=Round|Shape=RoundedRectangle|*
%AMROUNDEDRECTD51*
21,1,0.8000,0.7020,0,0,0.0*
21,1,0.7020,0.8000,0,0,0.0*
1,1,0.0980,0.3510,-0.3510*
1,1,0.0980,-0.3510,-0.3510*
1,1,0.0980,-0.3510,0.3510*
1,1,0.0980,0.3510,0.3510*
%
%ADD51ROUNDEDRECTD51*%
G04:AMPARAMS|DCode=52|XSize=0.8mm|YSize=0.8mm|CornerRadius=0.049mm|HoleSize=0mm|Usage=FLASHONLY|Rotation=90.000|XOffset=0mm|YOffset=0mm|HoleType=Round|Shape=RoundedRectangle|*
%AMROUNDEDRECTD52*
21,1,0.8000,0.7020,0,0,90.0*
21,1,0.7020,0.8000,0,0,90.0*
1,1,0.0980,0.3510,0.3510*
1,1,0.0980,0.3510,-0.3510*
1,1,0.0980,-0.3510,-0.3510*
1,1,0.0980,-0.3510,0.3510*
%
%ADD52ROUNDEDRECTD52*%
%ADD55R,1.2032X1.1532*%
%ADD56R,1.1532X1.2032*%
%ADD57R,1.0032X0.8032*%
%ADD58R,0.8032X1.0032*%
%ADD59R,1.9032X1.3032*%
%ADD60R,1.1032X0.5032*%
%ADD61R,0.7620X0.7620*%
%ADD62R,1.2032X1.8034*%
%ADD63R,1.9032X1.2032*%
%ADD64R,0.4532X0.7532*%
%ADD65R,0.5032X1.6032*%
%ADD66R,1.8032X2.4032*%
%ADD67C,2.0000*%
%ADD68R,1.3032X1.8032*%
G04:AMPARAMS|DCode=69|XSize=0.8032mm|YSize=1.2032mm|CornerRadius=0.2516mm|HoleSize=0mm|Usage=FLASHONLY|Rotation=180.000|XOffset=0mm|YOffset=0mm|HoleType=Round|Shape=RoundedRectangle|*
%AMROUNDEDRECTD69*
21,1,0.8032,0.7000,0,0,180.0*
21,1,0.3000,1.2032,0,0,180.0*
1,1,0.5032,-0.1500,0.3500*
1,1,0.5032,0.1500,0.3500*
1,1,0.5032,0.1500,-0.3500*
1,1,0.5032,-0.1500,-0.3500*
%
%ADD69ROUNDEDRECTD69*%
%ADD70R,0.6532X1.0532*%
%ADD71R,1.8032X1.3032*%
%ADD72R,1.0532X0.6532*%
%ADD73R,1.2032X0.9032*%
%ADD74R,1.0032X1.0032*%
%ADD75R,0.5032X1.4032*%
%ADD76R,0.4032X1.2032*%
%ADD77R,0.7532X0.6032*%
%ADD78R,0.9032X0.7032*%
%ADD79R,1.8034X1.4732*%
G04:AMPARAMS|DCode=80|XSize=2mm|YSize=2mm|CornerRadius=0.05mm|HoleSize=0mm|Usage=FLASHONLY|Rotation=90.000|XOffset=0mm|YOffset=0mm|HoleType=Round|Shape=RoundedRectangle|*
%AMROUNDEDRECTD80*
21,1,2.0000,1.9000,0,0,90.0*
21,1,1.9000,2.0000,0,0,90.0*
1,1,0.1000,0.9500,0.9500*
1,1,0.1000,0.9500,-0.9500*
1,1,0.1000,-0.9500,-0.9500*
1,1,0.1000,-0.9500,0.9500*
%
%ADD80ROUNDEDRECTD80*%
G04:AMPARAMS|DCode=81|XSize=0.4532mm|YSize=0.7032mm|CornerRadius=0.1516mm|HoleSize=0mm|Usage=FLASHONLY|Rotation=270.000|XOffset=0mm|YOffset=0mm|HoleType=Round|Shape=RoundedRectangle|*
%AMROUNDEDRECTD81*
21,1,0.4532,0.4000,0,0,270.0*
21,1,0.1500,0.7032,0,0,270.0*
1,1,0.3032,-0.2000,-0.0750*
1,1,0.3032,-0.2000,0.0750*
1,1,0.3032,0.2000,0.0750*
1,1,0.3032,0.2000,-0.0750*
%
%ADD81ROUNDEDRECTD81*%
G04:AMPARAMS|DCode=82|XSize=1.1032mm|YSize=1.8032mm|CornerRadius=0.1511mm|HoleSize=0mm|Usage=FLASHONLY|Rotation=180.000|XOffset=0mm|YOffset=0mm|HoleType=Round|Shape=RoundedRectangle|*
%AMROUNDEDRECTD82*
21,1,1.1032,1.5010,0,0,180.0*
21,1,0.8010,1.8032,0,0,180.0*
1,1,0.3022,-0.4005,0.7505*
1,1,0.3022,0.4005,0.7505*
1,1,0.3022,0.4005,-0.7505*
1,1,0.3022,-0.4005,-0.7505*
%
%ADD82ROUNDEDRECTD82*%
%ADD83R,1.4732X1.8034*%
%ADD84C,2.7432*%
%ADD85R,1.2532X1.2532*%
%ADD86C,1.2532*%
%ADD87O,1.2032X1.8032*%
%ADD88C,0.8532*%
G36*
X352350Y229824D02*
Y229725D01*
X352274Y229541D01*
X352133Y229400D01*
X351950Y229324D01*
X351850D01*
D01*
X342557D01*
X342508D01*
X342411Y229343D01*
X342320Y229381D01*
X342238Y229436D01*
X342204Y229471D01*
X342204D01*
X342203D01*
X332496Y239178D01*
X332462Y239212D01*
X332407Y239294D01*
X332369Y239385D01*
X332350Y239482D01*
Y239531D01*
X332350D01*
Y248824D01*
Y248923D01*
X332426Y249107D01*
X332567Y249248D01*
X332751Y249324D01*
X332850D01*
D01*
X351850D01*
X351950D01*
X352133Y249248D01*
X352274Y249107D01*
X352350Y248923D01*
Y248824D01*
D01*
Y229824D01*
D02*
G37*
D16*
X-29238Y20553D02*
G03*
X5403Y-39447I34641J-20000D01*
G01*
X425762Y688636D02*
G03*
X356480Y688636I-34641J-20000D01*
G01*
X776839Y-39447D02*
G03*
X811480Y20553I0J40000D01*
G01*
X-29238D02*
X356480Y688636D01*
X425762D02*
X811480Y20553D01*
X434675Y-39447D02*
X776839D01*
X5403D02*
X434675D01*
D27*
X399390Y142390D02*
D03*
Y135890D02*
D03*
Y129390D02*
D03*
X380390D02*
D03*
Y135890D02*
D03*
Y142390D02*
D03*
D51*
X292110Y347824D02*
D03*
Y335124D02*
D03*
Y322424D02*
D03*
Y309724D02*
D03*
Y297024D02*
D03*
Y284324D02*
D03*
Y271624D02*
D03*
Y258924D02*
D03*
Y246224D02*
D03*
Y233524D02*
D03*
Y220824D02*
D03*
X482590D02*
D03*
Y233524D02*
D03*
Y246224D02*
D03*
Y258924D02*
D03*
Y271624D02*
D03*
Y284324D02*
D03*
Y297024D02*
D03*
Y309724D02*
D03*
Y322424D02*
D03*
Y335124D02*
D03*
Y347824D02*
D03*
D52*
Y203824D02*
D03*
X469900D02*
D03*
X457200D02*
D03*
X444500D02*
D03*
X431800D02*
D03*
X419100D02*
D03*
X406400D02*
D03*
X393700D02*
D03*
X381000D02*
D03*
X368300D02*
D03*
X355600D02*
D03*
X342900D02*
D03*
X330200D02*
D03*
X317500D02*
D03*
X304800D02*
D03*
X292110D02*
D03*
Y364824D02*
D03*
X304800D02*
D03*
X317500D02*
D03*
X330200D02*
D03*
X342900D02*
D03*
X355600D02*
D03*
X368300D02*
D03*
X381000D02*
D03*
X393700D02*
D03*
X406400D02*
D03*
X419100D02*
D03*
X431800D02*
D03*
X444500D02*
D03*
X457200D02*
D03*
X469900D02*
D03*
X482590D02*
D03*
D55*
X193930Y271624D02*
D03*
X209930D02*
D03*
X193930Y291846D02*
D03*
X209930D02*
D03*
X149478Y179324D02*
D03*
X133478D02*
D03*
D56*
X571246Y188596D02*
D03*
Y204596D02*
D03*
X613156Y188596D02*
D03*
Y204596D02*
D03*
X592582Y188596D02*
D03*
Y204596D02*
D03*
X206756Y177164D02*
D03*
Y161164D02*
D03*
X206756Y211962D02*
D03*
Y195962D02*
D03*
X231902Y-15244D02*
D03*
Y756D02*
D03*
D57*
X262286Y272700D02*
D03*
X250286D02*
D03*
X606210Y108664D02*
D03*
X594210D02*
D03*
X606298Y147068D02*
D03*
X594298D02*
D03*
X594044Y134112D02*
D03*
X606044D02*
D03*
X594298Y121412D02*
D03*
X606298D02*
D03*
X364056Y129794D02*
D03*
X352056D02*
D03*
X364056Y143438D02*
D03*
X352056D02*
D03*
X263048Y229055D02*
D03*
X251048D02*
D03*
X263066Y216101D02*
D03*
X251066D02*
D03*
X263048Y202543D02*
D03*
X251048D02*
D03*
X262299Y298958D02*
D03*
X250299D02*
D03*
X262286Y286004D02*
D03*
X250286D02*
D03*
X262286Y259588D02*
D03*
X250286D02*
D03*
X533050Y217879D02*
D03*
X521050D02*
D03*
X518318Y320802D02*
D03*
X506318D02*
D03*
X415452Y82042D02*
D03*
X427452D02*
D03*
X247492Y160528D02*
D03*
X259492D02*
D03*
X247492Y173736D02*
D03*
X259492D02*
D03*
X521050Y200861D02*
D03*
X533050D02*
D03*
X681386Y181610D02*
D03*
X669386D02*
D03*
X547274Y321056D02*
D03*
X535274D02*
D03*
X387446Y82042D02*
D03*
X399446D02*
D03*
X333852Y105410D02*
D03*
X345852D02*
D03*
X642462Y181610D02*
D03*
X654462D02*
D03*
X235300Y40488D02*
D03*
X247300D02*
D03*
X42068Y-11430D02*
D03*
X30068D02*
D03*
X154020Y241300D02*
D03*
X166020D02*
D03*
X154020Y254508D02*
D03*
X166020D02*
D03*
D58*
X556768Y87692D02*
D03*
Y75692D02*
D03*
X595630Y88042D02*
D03*
Y76042D02*
D03*
X582676Y88042D02*
D03*
Y76042D02*
D03*
X569976Y87788D02*
D03*
Y75788D02*
D03*
X543902Y87534D02*
D03*
Y75534D02*
D03*
X531016Y87280D02*
D03*
Y75280D02*
D03*
X507238Y73817D02*
D03*
Y61817D02*
D03*
X494036Y73817D02*
D03*
Y61817D02*
D03*
X504444Y335630D02*
D03*
Y347630D02*
D03*
X258366Y325471D02*
D03*
Y313471D02*
D03*
Y342654D02*
D03*
Y354654D02*
D03*
X606795Y255340D02*
D03*
Y243340D02*
D03*
X658622Y207614D02*
D03*
Y219614D02*
D03*
X549656Y347630D02*
D03*
Y335630D02*
D03*
X317246Y159354D02*
D03*
Y171354D02*
D03*
X331216Y72548D02*
D03*
Y60548D02*
D03*
X235712Y272700D02*
D03*
Y260700D02*
D03*
X245412Y342908D02*
D03*
Y354908D02*
D03*
X590296Y255015D02*
D03*
Y243015D02*
D03*
X672592Y219614D02*
D03*
Y207614D02*
D03*
X535432Y335630D02*
D03*
Y347630D02*
D03*
X290830Y159100D02*
D03*
Y171100D02*
D03*
X506830Y284130D02*
D03*
Y272130D02*
D03*
X28911Y20449D02*
D03*
Y8449D02*
D03*
X36785Y45437D02*
D03*
Y57437D02*
D03*
X64979Y45437D02*
D03*
Y57437D02*
D03*
X117348Y190088D02*
D03*
Y202088D02*
D03*
X50755Y45437D02*
D03*
Y57437D02*
D03*
X329946Y159100D02*
D03*
Y171100D02*
D03*
X303784Y159100D02*
D03*
Y171100D02*
D03*
D59*
X486410Y94958D02*
D03*
Y121958D02*
D03*
X423074Y96520D02*
D03*
Y123520D02*
D03*
X485648Y166916D02*
D03*
Y139916D02*
D03*
X423164Y167170D02*
D03*
Y140170D02*
D03*
D60*
X576356Y141818D02*
D03*
Y136818D02*
D03*
Y131818D02*
D03*
Y126818D02*
D03*
X547356D02*
D03*
Y131818D02*
D03*
Y136818D02*
D03*
Y141818D02*
D03*
D61*
X566174Y154892D02*
D03*
X576842D02*
D03*
X649986Y56896D02*
D03*
X639318D02*
D03*
Y36068D02*
D03*
X649986D02*
D03*
X639318Y46482D02*
D03*
X649986D02*
D03*
X639318Y25654D02*
D03*
X649986D02*
D03*
X639318Y15240D02*
D03*
X649986D02*
D03*
D62*
X464566Y119634D02*
D03*
X444754D02*
D03*
X464312Y143510D02*
D03*
X444500D02*
D03*
D63*
X50501Y17473D02*
D03*
D64*
X43001Y5723D02*
D03*
X48001D02*
D03*
X53001D02*
D03*
X58001D02*
D03*
X43001Y29223D02*
D03*
X48001D02*
D03*
X53001D02*
D03*
X58001D02*
D03*
D65*
X581830Y44254D02*
D03*
X576830D02*
D03*
X571830D02*
D03*
X566830D02*
D03*
X561830D02*
D03*
X556830D02*
D03*
X551830D02*
D03*
X546830D02*
D03*
X541830D02*
D03*
X536830D02*
D03*
X486830D02*
D03*
X491830D02*
D03*
X496830D02*
D03*
X501830D02*
D03*
X506830D02*
D03*
X511830D02*
D03*
X516830D02*
D03*
X521830D02*
D03*
X526830D02*
D03*
X531830D02*
D03*
D66*
X460330Y12754D02*
D03*
X608330D02*
D03*
D67*
X390652Y675894D02*
D03*
X0Y0D02*
D03*
X780034Y-254D02*
D03*
D68*
X662922Y-3810D02*
D03*
X628922D02*
D03*
D69*
X178562Y183100D02*
D03*
X188062Y159100D02*
D03*
X169062D02*
D03*
X178054Y223582D02*
D03*
X187554Y199582D02*
D03*
X168554D02*
D03*
X133502D02*
D03*
X152502D02*
D03*
X143002Y223582D02*
D03*
D70*
X131064Y91832D02*
D03*
Y77332D02*
D03*
D71*
X151638Y57524D02*
D03*
Y91524D02*
D03*
X176276Y91874D02*
D03*
Y57874D02*
D03*
D72*
X346848Y90678D02*
D03*
X332348D02*
D03*
D73*
X641858Y220876D02*
D03*
Y207876D02*
D03*
X519430Y346098D02*
D03*
Y333098D02*
D03*
D74*
X250698Y-12314D02*
D03*
Y4186D02*
D03*
D75*
X362136Y61332D02*
D03*
X367136D02*
D03*
X372136D02*
D03*
X377136D02*
D03*
X382136D02*
D03*
X387136D02*
D03*
X397136D02*
D03*
X402136D02*
D03*
X407136D02*
D03*
X392136D02*
D03*
X412136D02*
D03*
X417136D02*
D03*
D76*
X389636Y-15468D02*
D03*
Y15532D02*
D03*
D77*
X293650Y-18426D02*
D03*
Y-3926D02*
D03*
X280150Y-18426D02*
D03*
Y-3926D02*
D03*
D78*
X294400Y-11176D02*
D03*
X279400D02*
D03*
D79*
X225298Y63348D02*
D03*
Y83668D02*
D03*
X295656Y43282D02*
D03*
Y63602D02*
D03*
X200914Y63348D02*
D03*
Y83668D02*
D03*
D80*
X342350Y299324D02*
D03*
Y269324D02*
D03*
X372350Y299324D02*
D03*
Y269324D02*
D03*
Y239324D02*
D03*
X402350D02*
D03*
Y269324D02*
D03*
Y299324D02*
D03*
D81*
X273660Y60674D02*
D03*
Y65674D02*
D03*
Y70674D02*
D03*
Y75674D02*
D03*
X254660D02*
D03*
Y70674D02*
D03*
Y65674D02*
D03*
Y60674D02*
D03*
D82*
X264160Y68174D02*
D03*
D83*
X268224Y94742D02*
D03*
X247904D02*
D03*
D84*
X80010Y137414D02*
D03*
X746506Y12446D02*
D03*
X391121Y640588D02*
D03*
D85*
X681990Y86868D02*
D03*
X554482Y242824D02*
D03*
D86*
X681990Y99568D02*
D03*
Y112268D02*
D03*
Y124968D02*
D03*
Y137668D02*
D03*
X669290Y86868D02*
D03*
Y99568D02*
D03*
Y112268D02*
D03*
Y124968D02*
D03*
Y137668D02*
D03*
X541782Y293624D02*
D03*
Y280924D02*
D03*
Y268224D02*
D03*
Y255524D02*
D03*
Y242824D02*
D03*
X554482Y293624D02*
D03*
Y280924D02*
D03*
Y268224D02*
D03*
Y255524D02*
D03*
D87*
X346936Y-9968D02*
D03*
Y37332D02*
D03*
X432336Y-9968D02*
D03*
Y37332D02*
D03*
D88*
X361636Y48832D02*
D03*
X381636Y41832D02*
D03*
X365636D02*
D03*
X369636Y48832D02*
D03*
X373636Y41832D02*
D03*
X377636Y48832D02*
D03*
X385636D02*
D03*
X397636Y41832D02*
D03*
X405636D02*
D03*
X393636Y48832D02*
D03*
X401636D02*
D03*
X409636D02*
D03*
X413636Y41832D02*
D03*
X417636Y48832D02*
D03*
M02*
