G04*
G04 #@! TF.GenerationSoftware,Altium Limited,Altium Designer,19.0.12 (326)*
G04*
G04 Layer_Physical_Order=2*
G04 Layer_Color=36540*
%FSLAX44Y44*%
%MOMM*%
G71*
G01*
G75*
%ADD16C,0.1270*%
%ADD128R,1.0500X1.0500*%
%ADD129C,1.0500*%
%ADD131C,0.6500*%
%ADD132C,0.5080*%
%ADD134C,0.5000*%
G36*
X324612Y377524D02*
X601645D01*
X808650Y18980D01*
X808631Y18908D01*
X808631Y18908D01*
X809638Y17265D01*
X811849Y11929D01*
X813197Y6312D01*
X813650Y553D01*
X813197Y-5205D01*
X811849Y-10822D01*
X809638Y-16159D01*
X806620Y-21084D01*
X802868Y-25476D01*
X798476Y-29228D01*
X793551Y-32246D01*
X788214Y-34457D01*
X782598Y-35805D01*
X778098Y-36159D01*
X776839Y-36209D01*
X776839Y-36210D01*
X775587Y-36210D01*
X103124D01*
Y96012D01*
X19336D01*
X18701Y97112D01*
X180597Y377524D01*
X324612Y377524D01*
D02*
G37*
%LPC*%
G36*
X533100Y373989D02*
Y370332D01*
X536757D01*
X536615Y371044D01*
X535492Y372724D01*
X533812Y373847D01*
X533100Y373989D01*
D02*
G37*
G36*
X530560D02*
X529848Y373847D01*
X528167Y372724D01*
X527044Y371044D01*
X526903Y370332D01*
X530560D01*
Y373989D01*
D02*
G37*
G36*
X518668D02*
Y370332D01*
X522325D01*
X522183Y371044D01*
X521060Y372724D01*
X519380Y373847D01*
X518668Y373989D01*
D02*
G37*
G36*
X516128D02*
X515416Y373847D01*
X513736Y372724D01*
X512613Y371044D01*
X512471Y370332D01*
X516128D01*
Y373989D01*
D02*
G37*
G36*
X504698D02*
Y370332D01*
X508355D01*
X508213Y371044D01*
X507090Y372724D01*
X505410Y373847D01*
X504698Y373989D01*
D02*
G37*
G36*
X502158D02*
X501446Y373847D01*
X499766Y372724D01*
X498643Y371044D01*
X498501Y370332D01*
X502158D01*
Y373989D01*
D02*
G37*
G36*
X269748D02*
Y370332D01*
X273405D01*
X273263Y371044D01*
X272141Y372724D01*
X270460Y373847D01*
X269748Y373989D01*
D02*
G37*
G36*
X267208D02*
X266496Y373847D01*
X264816Y372724D01*
X263693Y371044D01*
X263551Y370332D01*
X267208D01*
Y373989D01*
D02*
G37*
G36*
X253492D02*
Y370332D01*
X257149D01*
X257007Y371044D01*
X255884Y372724D01*
X254204Y373847D01*
X253492Y373989D01*
D02*
G37*
G36*
X250952D02*
X250240Y373847D01*
X248559Y372724D01*
X247437Y371044D01*
X247295Y370332D01*
X250952D01*
Y373989D01*
D02*
G37*
G36*
X235966D02*
Y370332D01*
X239623D01*
X239481Y371044D01*
X238358Y372724D01*
X236678Y373847D01*
X235966Y373989D01*
D02*
G37*
G36*
X233426D02*
X232714Y373847D01*
X231033Y372724D01*
X229911Y371044D01*
X229769Y370332D01*
X233426D01*
Y373989D01*
D02*
G37*
G36*
X220218D02*
Y370332D01*
X223875D01*
X223733Y371044D01*
X222610Y372724D01*
X220930Y373847D01*
X220218Y373989D01*
D02*
G37*
G36*
X217678D02*
X216966Y373847D01*
X215285Y372724D01*
X214163Y371044D01*
X214021Y370332D01*
X217678D01*
Y373989D01*
D02*
G37*
G36*
X202692D02*
Y370332D01*
X206349D01*
X206207Y371044D01*
X205084Y372724D01*
X203404Y373847D01*
X202692Y373989D01*
D02*
G37*
G36*
X200152D02*
X199440Y373847D01*
X197759Y372724D01*
X196637Y371044D01*
X196495Y370332D01*
X200152D01*
Y373989D01*
D02*
G37*
G36*
X185674D02*
Y370332D01*
X189331D01*
X189189Y371044D01*
X188067Y372724D01*
X186386Y373847D01*
X185674Y373989D01*
D02*
G37*
G36*
X183134D02*
X182422Y373847D01*
X180742Y372724D01*
X179619Y371044D01*
X179477Y370332D01*
X183134D01*
Y373989D01*
D02*
G37*
G36*
X581660Y373735D02*
Y370078D01*
X585317D01*
X585175Y370790D01*
X584053Y372471D01*
X582372Y373593D01*
X581660Y373735D01*
D02*
G37*
G36*
X579120D02*
X578408Y373593D01*
X576727Y372471D01*
X575605Y370790D01*
X575463Y370078D01*
X579120D01*
Y373735D01*
D02*
G37*
G36*
X550008D02*
Y370078D01*
X553665D01*
X553523Y370790D01*
X552400Y372471D01*
X550720Y373593D01*
X550008Y373735D01*
D02*
G37*
G36*
X547467D02*
X546755Y373593D01*
X545075Y372471D01*
X543952Y370790D01*
X543811Y370078D01*
X547467D01*
Y373735D01*
D02*
G37*
G36*
X565912Y373481D02*
Y369824D01*
X569569D01*
X569427Y370536D01*
X568304Y372216D01*
X566624Y373339D01*
X565912Y373481D01*
D02*
G37*
G36*
X563372D02*
X562660Y373339D01*
X560979Y372216D01*
X559857Y370536D01*
X559715Y369824D01*
X563372D01*
Y373481D01*
D02*
G37*
G36*
X599186Y373227D02*
Y369570D01*
X602843D01*
X602701Y370282D01*
X601578Y371963D01*
X599898Y373085D01*
X599186Y373227D01*
D02*
G37*
G36*
X596646D02*
X595934Y373085D01*
X594254Y371963D01*
X593131Y370282D01*
X592989Y369570D01*
X596646D01*
Y373227D01*
D02*
G37*
G36*
X283972Y369925D02*
Y366268D01*
X287629D01*
X287487Y366980D01*
X286364Y368661D01*
X284684Y369783D01*
X283972Y369925D01*
D02*
G37*
G36*
X281432D02*
X280720Y369783D01*
X279039Y368661D01*
X277917Y366980D01*
X277775Y366268D01*
X281432D01*
Y369925D01*
D02*
G37*
G36*
X491490Y369671D02*
X490778Y369529D01*
X489098Y368406D01*
X487975Y366726D01*
X487833Y366014D01*
X491490D01*
Y369671D01*
D02*
G37*
G36*
X536757Y367792D02*
X533100D01*
Y364135D01*
X533812Y364277D01*
X535492Y365400D01*
X536615Y367080D01*
X536757Y367792D01*
D02*
G37*
G36*
X530560D02*
X526903D01*
X527044Y367080D01*
X528167Y365400D01*
X529848Y364277D01*
X530560Y364135D01*
Y367792D01*
D02*
G37*
G36*
X522325D02*
X518668D01*
Y364135D01*
X519380Y364277D01*
X521060Y365400D01*
X522183Y367080D01*
X522325Y367792D01*
D02*
G37*
G36*
X516128D02*
X512471D01*
X512613Y367080D01*
X513736Y365400D01*
X515416Y364277D01*
X516128Y364135D01*
Y367792D01*
D02*
G37*
G36*
X508355D02*
X504698D01*
Y364135D01*
X505410Y364277D01*
X507090Y365400D01*
X508213Y367080D01*
X508355Y367792D01*
D02*
G37*
G36*
X494030Y369671D02*
Y366014D01*
X497687D01*
X497627Y366314D01*
X498824Y366809D01*
X499109Y366382D01*
X499766Y365400D01*
X501446Y364277D01*
X502158Y364135D01*
Y367792D01*
X498501D01*
X498561Y367492D01*
X497364Y366997D01*
X497079Y367424D01*
X496423Y368406D01*
X494742Y369529D01*
X494030Y369671D01*
D02*
G37*
G36*
X273405Y367792D02*
X269748D01*
Y364135D01*
X270460Y364277D01*
X272141Y365400D01*
X273263Y367080D01*
X273405Y367792D01*
D02*
G37*
G36*
X267208D02*
X263551D01*
X263693Y367080D01*
X264816Y365400D01*
X266496Y364277D01*
X267208Y364135D01*
Y367792D01*
D02*
G37*
G36*
X257149D02*
X253492D01*
Y364135D01*
X254204Y364277D01*
X255884Y365400D01*
X257007Y367080D01*
X257149Y367792D01*
D02*
G37*
G36*
X250952D02*
X247295D01*
X247437Y367080D01*
X248559Y365400D01*
X250240Y364277D01*
X250952Y364135D01*
Y367792D01*
D02*
G37*
G36*
X239623D02*
X235966D01*
Y364135D01*
X236678Y364277D01*
X238358Y365400D01*
X239481Y367080D01*
X239623Y367792D01*
D02*
G37*
G36*
X233426D02*
X229769D01*
X229911Y367080D01*
X231033Y365400D01*
X232714Y364277D01*
X233426Y364135D01*
Y367792D01*
D02*
G37*
G36*
X223875D02*
X220218D01*
Y364135D01*
X220930Y364277D01*
X222610Y365400D01*
X223733Y367080D01*
X223875Y367792D01*
D02*
G37*
G36*
X217678D02*
X214021D01*
X214163Y367080D01*
X215285Y365400D01*
X216966Y364277D01*
X217678Y364135D01*
Y367792D01*
D02*
G37*
G36*
X206349D02*
X202692D01*
Y364135D01*
X203404Y364277D01*
X205084Y365400D01*
X206207Y367080D01*
X206349Y367792D01*
D02*
G37*
G36*
X200152D02*
X196495D01*
X196637Y367080D01*
X197759Y365400D01*
X199440Y364277D01*
X200152Y364135D01*
Y367792D01*
D02*
G37*
G36*
X189331D02*
X185674D01*
Y364135D01*
X186386Y364277D01*
X188067Y365400D01*
X189189Y367080D01*
X189331Y367792D01*
D02*
G37*
G36*
X183134D02*
X179477D01*
X179619Y367080D01*
X180742Y365400D01*
X182422Y364277D01*
X183134Y364135D01*
Y367792D01*
D02*
G37*
G36*
X585317Y367538D02*
X581660D01*
Y363881D01*
X582372Y364023D01*
X584053Y365145D01*
X585175Y366826D01*
X585317Y367538D01*
D02*
G37*
G36*
X579120D02*
X575463D01*
X575605Y366826D01*
X576727Y365145D01*
X578408Y364023D01*
X579120Y363881D01*
Y367538D01*
D02*
G37*
G36*
X553665D02*
X550008D01*
Y363881D01*
X550720Y364023D01*
X552400Y365145D01*
X553523Y366826D01*
X553665Y367538D01*
D02*
G37*
G36*
X547467D02*
X543811D01*
X543952Y366826D01*
X545075Y365145D01*
X546755Y364023D01*
X547467Y363881D01*
Y367538D01*
D02*
G37*
G36*
X569569Y367284D02*
X565912D01*
Y363627D01*
X566624Y363769D01*
X568304Y364892D01*
X569427Y366572D01*
X569569Y367284D01*
D02*
G37*
G36*
X563372D02*
X559715D01*
X559857Y366572D01*
X560979Y364892D01*
X562660Y363769D01*
X563372Y363627D01*
Y367284D01*
D02*
G37*
G36*
X602843Y367030D02*
X599186D01*
Y363373D01*
X599898Y363515D01*
X601578Y364637D01*
X602701Y366318D01*
X602843Y367030D01*
D02*
G37*
G36*
X596646D02*
X592989D01*
X593131Y366318D01*
X594254Y364637D01*
X595934Y363515D01*
X596646Y363373D01*
Y367030D01*
D02*
G37*
G36*
X287629Y363728D02*
X283972D01*
Y360071D01*
X284684Y360213D01*
X286364Y361335D01*
X287487Y363016D01*
X287629Y363728D01*
D02*
G37*
G36*
X281432D02*
X277775D01*
X277917Y363016D01*
X279039Y361335D01*
X280720Y360213D01*
X281432Y360071D01*
Y363728D01*
D02*
G37*
G36*
X497687Y363474D02*
X494030D01*
Y359817D01*
X494742Y359959D01*
X496423Y361082D01*
X497545Y362762D01*
X497687Y363474D01*
D02*
G37*
G36*
X491490D02*
X487833D01*
X487975Y362762D01*
X489098Y361082D01*
X490778Y359959D01*
X491490Y359817D01*
Y363474D01*
D02*
G37*
G36*
X177213Y359257D02*
Y355600D01*
X180870D01*
X180728Y356312D01*
X179605Y357993D01*
X177925Y359115D01*
X177213Y359257D01*
D02*
G37*
G36*
X174673D02*
X173961Y359115D01*
X172280Y357993D01*
X171157Y356312D01*
X171016Y355600D01*
X174673D01*
Y359257D01*
D02*
G37*
G36*
X607647Y358495D02*
Y354838D01*
X611304D01*
X611162Y355550D01*
X610040Y357230D01*
X608359Y358353D01*
X607647Y358495D01*
D02*
G37*
G36*
X605107D02*
X604395Y358353D01*
X602715Y357230D01*
X601592Y355550D01*
X601450Y354838D01*
X605107D01*
Y358495D01*
D02*
G37*
G36*
X538734Y362304D02*
X536752Y361909D01*
X535071Y360787D01*
X533949Y359106D01*
X533554Y357124D01*
X533949Y355142D01*
X535071Y353461D01*
X536752Y352339D01*
X538734Y351945D01*
X540716Y352339D01*
X542397Y353461D01*
X543519Y355142D01*
X543913Y357124D01*
X543519Y359106D01*
X542397Y360787D01*
X540716Y361909D01*
X538734Y362304D01*
D02*
G37*
G36*
X504444Y362049D02*
X502462Y361655D01*
X500782Y360532D01*
X499659Y358852D01*
X499264Y356870D01*
X499659Y354888D01*
X500782Y353208D01*
X502462Y352085D01*
X504444Y351690D01*
X506426Y352085D01*
X508106Y353208D01*
X509229Y354888D01*
X509623Y356870D01*
X509229Y358852D01*
X508106Y360532D01*
X506426Y361655D01*
X504444Y362049D01*
D02*
G37*
G36*
X342852Y361541D02*
X340870Y361147D01*
X339190Y360024D01*
X338067Y358344D01*
X337673Y356362D01*
X338067Y354380D01*
X339190Y352700D01*
X340870Y351577D01*
X342852Y351183D01*
X344834Y351577D01*
X346515Y352700D01*
X347637Y354380D01*
X348032Y356362D01*
X347637Y358344D01*
X346515Y360024D01*
X344834Y361147D01*
X342852Y361541D01*
D02*
G37*
G36*
X393700Y361034D02*
X391718Y360639D01*
X390037Y359516D01*
X388915Y357836D01*
X388521Y355854D01*
X388915Y353872D01*
X390037Y352192D01*
X391718Y351069D01*
X393700Y350675D01*
X395682Y351069D01*
X397363Y352192D01*
X398485Y353872D01*
X398880Y355854D01*
X398485Y357836D01*
X397363Y359516D01*
X395682Y360639D01*
X393700Y361034D01*
D02*
G37*
G36*
X381000D02*
X379018Y360639D01*
X377337Y359516D01*
X376215Y357836D01*
X375821Y355854D01*
X376215Y353872D01*
X377337Y352192D01*
X379018Y351069D01*
X381000Y350675D01*
X382982Y351069D01*
X384663Y352192D01*
X385785Y353872D01*
X386180Y355854D01*
X385785Y357836D01*
X384663Y359516D01*
X382982Y360639D01*
X381000Y361034D01*
D02*
G37*
G36*
X406400Y360018D02*
X404418Y359623D01*
X402738Y358501D01*
X401615Y356820D01*
X401221Y354838D01*
X401615Y352856D01*
X402738Y351175D01*
X404418Y350053D01*
X406400Y349659D01*
X408382Y350053D01*
X410062Y351175D01*
X411185Y352856D01*
X411580Y354838D01*
X411185Y356820D01*
X410062Y358501D01*
X408382Y359623D01*
X406400Y360018D01*
D02*
G37*
G36*
X180870Y353060D02*
X177213D01*
Y349403D01*
X177925Y349545D01*
X179605Y350667D01*
X180728Y352348D01*
X180870Y353060D01*
D02*
G37*
G36*
X174673D02*
X171016D01*
X171157Y352348D01*
X172280Y350667D01*
X173961Y349545D01*
X174673Y349403D01*
Y353060D01*
D02*
G37*
G36*
X312166Y359510D02*
X310184Y359115D01*
X308503Y357993D01*
X307381Y356312D01*
X306987Y354330D01*
X307381Y352348D01*
X308503Y350667D01*
X310184Y349545D01*
X312166Y349151D01*
X314148Y349545D01*
X315828Y350667D01*
X316951Y352348D01*
X317346Y354330D01*
X316951Y356312D01*
X315828Y357993D01*
X314148Y359115D01*
X312166Y359510D01*
D02*
G37*
G36*
X611304Y352298D02*
X607647D01*
Y348641D01*
X608359Y348783D01*
X610040Y349906D01*
X611162Y351586D01*
X611304Y352298D01*
D02*
G37*
G36*
X605107D02*
X601450D01*
X601592Y351586D01*
X602715Y349906D01*
X604395Y348783D01*
X605107Y348641D01*
Y352298D01*
D02*
G37*
G36*
X557530Y352556D02*
X555548Y352161D01*
X553867Y351038D01*
X552745Y349358D01*
X552351Y347376D01*
X552745Y345394D01*
X553867Y343713D01*
X555548Y342591D01*
X557530Y342196D01*
X559512Y342591D01*
X561193Y343713D01*
X562315Y345394D01*
X562710Y347376D01*
X562315Y349358D01*
X561193Y351038D01*
X559512Y352161D01*
X557530Y352556D01*
D02*
G37*
G36*
X168051Y343763D02*
Y340106D01*
X171708D01*
X171566Y340818D01*
X170444Y342499D01*
X168763Y343621D01*
X168051Y343763D01*
D02*
G37*
G36*
X165511D02*
X164799Y343621D01*
X163119Y342499D01*
X161996Y340818D01*
X161854Y340106D01*
X165511D01*
Y343763D01*
D02*
G37*
G36*
X570738Y346301D02*
X568756Y345907D01*
X567076Y344785D01*
X565953Y343104D01*
X565559Y341122D01*
X565594Y340941D01*
X564696Y340043D01*
X563880Y340205D01*
X561898Y339811D01*
X560218Y338689D01*
X559095Y337008D01*
X558700Y335026D01*
X558752Y334768D01*
X557672Y333688D01*
X556830Y333856D01*
X554848Y333461D01*
X553167Y332338D01*
X552045Y330658D01*
X551651Y328676D01*
X552045Y326694D01*
X553167Y325014D01*
X554848Y323891D01*
X556830Y323497D01*
X558812Y323891D01*
X560493Y325014D01*
X561615Y326694D01*
X562010Y328676D01*
X561958Y328934D01*
X563038Y330014D01*
X563880Y329846D01*
X565862Y330241D01*
X567542Y331363D01*
X568665Y333044D01*
X569059Y335026D01*
X569024Y335207D01*
X569922Y336105D01*
X570738Y335942D01*
X572720Y336337D01*
X574400Y337459D01*
X575523Y339140D01*
X575918Y341122D01*
X575523Y343104D01*
X574400Y344785D01*
X572720Y345907D01*
X570738Y346301D01*
D02*
G37*
G36*
X616809Y343001D02*
Y339344D01*
X620466D01*
X620324Y340056D01*
X619201Y341736D01*
X617521Y342859D01*
X616809Y343001D01*
D02*
G37*
G36*
X614269D02*
X613557Y342859D01*
X611876Y341736D01*
X610754Y340056D01*
X610612Y339344D01*
X614269D01*
Y343001D01*
D02*
G37*
G36*
X278384Y345793D02*
X276402Y345399D01*
X274722Y344277D01*
X273599Y342596D01*
X273204Y340614D01*
X273599Y338632D01*
X274722Y336951D01*
X276402Y335829D01*
X278384Y335434D01*
X280366Y335829D01*
X282047Y336951D01*
X283169Y338632D01*
X283563Y340614D01*
X283169Y342596D01*
X282047Y344277D01*
X280366Y345399D01*
X278384Y345793D01*
D02*
G37*
G36*
X171708Y337566D02*
X168051D01*
Y333909D01*
X168763Y334051D01*
X170444Y335173D01*
X171566Y336854D01*
X171708Y337566D01*
D02*
G37*
G36*
X165511D02*
X161854D01*
X161996Y336854D01*
X163119Y335173D01*
X164799Y334051D01*
X165511Y333909D01*
Y337566D01*
D02*
G37*
G36*
X620466Y336804D02*
X616809D01*
Y333147D01*
X617521Y333289D01*
X619201Y334412D01*
X620324Y336092D01*
X620466Y336804D01*
D02*
G37*
G36*
X614269D02*
X610612D01*
X610754Y336092D01*
X611876Y334412D01*
X613557Y333289D01*
X614269Y333147D01*
Y336804D01*
D02*
G37*
G36*
X157988Y326999D02*
Y323342D01*
X161645D01*
X161503Y324054D01*
X160380Y325734D01*
X158700Y326857D01*
X157988Y326999D01*
D02*
G37*
G36*
X155448D02*
X154736Y326857D01*
X153055Y325734D01*
X151933Y324054D01*
X151791Y323342D01*
X155448D01*
Y326999D01*
D02*
G37*
G36*
X626872Y326237D02*
Y322580D01*
X630529D01*
X630387Y323292D01*
X629264Y324972D01*
X627584Y326095D01*
X626872Y326237D01*
D02*
G37*
G36*
X624332D02*
X623620Y326095D01*
X621940Y324972D01*
X620817Y323292D01*
X620675Y322580D01*
X624332D01*
Y326237D01*
D02*
G37*
G36*
X248714Y330746D02*
X246732Y330352D01*
X245051Y329229D01*
X243929Y327549D01*
X243534Y325567D01*
X243929Y323585D01*
X245051Y321904D01*
X246732Y320782D01*
X248714Y320387D01*
X250696Y320782D01*
X252376Y321904D01*
X253499Y323585D01*
X253893Y325567D01*
X253499Y327549D01*
X252376Y329229D01*
X250696Y330352D01*
X248714Y330746D01*
D02*
G37*
G36*
X161645Y320802D02*
X157988D01*
Y317145D01*
X158700Y317287D01*
X160380Y318410D01*
X161503Y320090D01*
X161645Y320802D01*
D02*
G37*
G36*
X155448D02*
X151791D01*
X151933Y320090D01*
X153055Y318410D01*
X154736Y317287D01*
X155448Y317145D01*
Y320802D01*
D02*
G37*
G36*
X496824Y327252D02*
X494842Y326857D01*
X493162Y325734D01*
X492039Y324054D01*
X491645Y322072D01*
X492039Y320090D01*
X493162Y318410D01*
X494842Y317287D01*
X496824Y316893D01*
X498806Y317287D01*
X500486Y318410D01*
X501609Y320090D01*
X502004Y322072D01*
X501609Y324054D01*
X500486Y325734D01*
X498806Y326857D01*
X496824Y327252D01*
D02*
G37*
G36*
X630529Y320040D02*
X626872D01*
Y316383D01*
X627584Y316525D01*
X629264Y317647D01*
X630387Y319328D01*
X630529Y320040D01*
D02*
G37*
G36*
X624332D02*
X620675D01*
X620817Y319328D01*
X621940Y317647D01*
X623620Y316525D01*
X624332Y316383D01*
Y320040D01*
D02*
G37*
G36*
X247492Y316583D02*
X245510Y316189D01*
X243830Y315067D01*
X242707Y313386D01*
X242313Y311404D01*
X242468Y310620D01*
X241570Y309722D01*
X241554Y309725D01*
X239572Y309331D01*
X237892Y308209D01*
X236769Y306528D01*
X236374Y304546D01*
X236769Y302564D01*
X237892Y300884D01*
X239572Y299761D01*
X241554Y299366D01*
X243536Y299761D01*
X245217Y300884D01*
X246339Y302564D01*
X246733Y304546D01*
X246578Y305330D01*
X247476Y306228D01*
X247492Y306224D01*
X249474Y306619D01*
X251154Y307742D01*
X252277Y309422D01*
X252672Y311404D01*
X252277Y313386D01*
X251154Y315067D01*
X249474Y316189D01*
X247492Y316583D01*
D02*
G37*
G36*
X403620Y310710D02*
Y307094D01*
X407236D01*
X407098Y307791D01*
X405984Y309458D01*
X404317Y310572D01*
X403620Y310710D01*
D02*
G37*
G36*
X401080D02*
X400384Y310572D01*
X398717Y309458D01*
X397603Y307791D01*
X397464Y307094D01*
X401080D01*
Y310710D01*
D02*
G37*
G36*
X373620D02*
Y307094D01*
X377236D01*
X377097Y307791D01*
X375983Y309458D01*
X374316Y310572D01*
X373620Y310710D01*
D02*
G37*
G36*
X371080D02*
X370383Y310572D01*
X368716Y309458D01*
X367602Y307791D01*
X367464Y307094D01*
X371080D01*
Y310710D01*
D02*
G37*
G36*
X343620D02*
Y307094D01*
X347236D01*
X347097Y307791D01*
X345984Y309458D01*
X344316Y310572D01*
X343620Y310710D01*
D02*
G37*
G36*
X341080D02*
X340383Y310572D01*
X338716Y309458D01*
X337602Y307791D01*
X337464Y307094D01*
X341080D01*
Y310710D01*
D02*
G37*
G36*
X282194Y327604D02*
X280212Y327209D01*
X278531Y326087D01*
X277409Y324406D01*
X277015Y322424D01*
X277409Y320442D01*
X278531Y318762D01*
X280212Y317639D01*
X280932Y317496D01*
X281200Y316147D01*
X280310Y315553D01*
X279187Y313872D01*
X278792Y311890D01*
X279187Y309908D01*
X280310Y308228D01*
X281990Y307105D01*
X283972Y306710D01*
X285954Y307105D01*
X287635Y308228D01*
X288757Y309908D01*
X289151Y311890D01*
X288757Y313872D01*
X287635Y315553D01*
X285954Y316675D01*
X285234Y316818D01*
X284966Y318167D01*
X285856Y318762D01*
X286979Y320442D01*
X287374Y322424D01*
X286979Y324406D01*
X285856Y326087D01*
X284176Y327209D01*
X282194Y327604D01*
D02*
G37*
G36*
X148253Y309207D02*
Y305550D01*
X151910D01*
X151768Y306262D01*
X150646Y307943D01*
X148965Y309065D01*
X148253Y309207D01*
D02*
G37*
G36*
X145713D02*
X145001Y309065D01*
X143321Y307943D01*
X142198Y306262D01*
X142056Y305550D01*
X145713D01*
Y309207D01*
D02*
G37*
G36*
X523555Y315567D02*
X521573Y315173D01*
X519893Y314051D01*
X518770Y312370D01*
X518376Y310388D01*
X518770Y308406D01*
X519893Y306726D01*
X521573Y305603D01*
X523555Y305208D01*
X525537Y305603D01*
X527217Y306726D01*
X528340Y308406D01*
X528735Y310388D01*
X528340Y312370D01*
X527217Y314051D01*
X525537Y315173D01*
X523555Y315567D01*
D02*
G37*
G36*
X636607Y308445D02*
Y304788D01*
X640264D01*
X640122Y305500D01*
X638999Y307181D01*
X637319Y308303D01*
X636607Y308445D01*
D02*
G37*
G36*
X634067D02*
X633355Y308303D01*
X631674Y307181D01*
X630552Y305500D01*
X630410Y304788D01*
X634067D01*
Y308445D01*
D02*
G37*
G36*
X473202Y314904D02*
X471220Y314509D01*
X469539Y313386D01*
X468417Y311706D01*
X468022Y309724D01*
X468417Y307742D01*
X469539Y306062D01*
X471220Y304939D01*
X473202Y304545D01*
X475184Y304939D01*
X476865Y306062D01*
X477987Y307742D01*
X478382Y309724D01*
X477987Y311706D01*
X476865Y313386D01*
X475184Y314509D01*
X473202Y314904D01*
D02*
G37*
G36*
X410120Y304210D02*
Y300594D01*
X413736D01*
X413598Y301291D01*
X412484Y302958D01*
X410817Y304072D01*
X410120Y304210D01*
D02*
G37*
G36*
X394580D02*
X393883Y304072D01*
X392216Y302958D01*
X391102Y301291D01*
X390964Y300594D01*
X394580D01*
Y304210D01*
D02*
G37*
G36*
X380120D02*
Y300594D01*
X383736D01*
X383598Y301291D01*
X382484Y302958D01*
X380817Y304072D01*
X380120Y304210D01*
D02*
G37*
G36*
X364580D02*
X363883Y304072D01*
X362216Y302958D01*
X361102Y301291D01*
X360964Y300594D01*
X364580D01*
Y304210D01*
D02*
G37*
G36*
X350120D02*
Y300594D01*
X353736D01*
X353598Y301291D01*
X352484Y302958D01*
X350817Y304072D01*
X350120Y304210D01*
D02*
G37*
G36*
X334580D02*
X333884Y304072D01*
X332216Y302958D01*
X331102Y301291D01*
X330964Y300594D01*
X334580D01*
Y304210D01*
D02*
G37*
G36*
X151910Y303010D02*
X148253D01*
Y299353D01*
X148965Y299495D01*
X150646Y300618D01*
X151768Y302298D01*
X151910Y303010D01*
D02*
G37*
G36*
X145713D02*
X142056D01*
X142198Y302298D01*
X143321Y300618D01*
X145001Y299495D01*
X145713Y299353D01*
Y303010D01*
D02*
G37*
G36*
X210058Y310361D02*
X207828Y309917D01*
X205938Y308654D01*
X204675Y306764D01*
X204231Y304534D01*
X204675Y302304D01*
X205938Y300414D01*
X207828Y299151D01*
X210058Y298707D01*
X212288Y299151D01*
X214178Y300414D01*
X215441Y302304D01*
X215885Y304534D01*
X215441Y306764D01*
X214178Y308654D01*
X212288Y309917D01*
X210058Y310361D01*
D02*
G37*
G36*
X640264Y302248D02*
X636607D01*
Y298591D01*
X637319Y298733D01*
X638999Y299856D01*
X640122Y301536D01*
X640264Y302248D01*
D02*
G37*
G36*
X634067D02*
X630410D01*
X630552Y301536D01*
X631674Y299856D01*
X633355Y298733D01*
X634067Y298591D01*
Y302248D01*
D02*
G37*
G36*
X185674Y306424D02*
X183692Y306029D01*
X182011Y304907D01*
X180889Y303226D01*
X180494Y301244D01*
X180889Y299262D01*
X182011Y297582D01*
X183692Y296459D01*
X185674Y296065D01*
X187656Y296459D01*
X189336Y297582D01*
X190459Y299262D01*
X190853Y301244D01*
X190459Y303226D01*
X189336Y304907D01*
X187656Y306029D01*
X185674Y306424D01*
D02*
G37*
G36*
X555752Y301314D02*
Y294894D01*
X562172D01*
X562071Y295658D01*
X561287Y297553D01*
X560038Y299180D01*
X558411Y300429D01*
X556516Y301213D01*
X555752Y301314D01*
D02*
G37*
G36*
X413736Y298054D02*
X410120D01*
Y294438D01*
X410817Y294577D01*
X412484Y295691D01*
X413598Y297358D01*
X413736Y298054D01*
D02*
G37*
G36*
X394580D02*
X390964D01*
X391102Y297358D01*
X392216Y295691D01*
X393883Y294577D01*
X394580Y294438D01*
Y298054D01*
D02*
G37*
G36*
X383736D02*
X380120D01*
Y294438D01*
X380817Y294577D01*
X382484Y295691D01*
X383598Y297358D01*
X383736Y298054D01*
D02*
G37*
G36*
X364580D02*
X360964D01*
X361102Y297358D01*
X362216Y295691D01*
X363883Y294577D01*
X364580Y294438D01*
Y298054D01*
D02*
G37*
G36*
X353736D02*
X350120D01*
Y294438D01*
X350817Y294577D01*
X352484Y295691D01*
X353598Y297358D01*
X353736Y298054D01*
D02*
G37*
G36*
X334580D02*
X330964D01*
X331102Y297358D01*
X332216Y295691D01*
X333884Y294577D01*
X334580Y294438D01*
Y298054D01*
D02*
G37*
G36*
X407580Y304554D02*
X397120D01*
Y299324D01*
Y294094D01*
X407580D01*
Y299324D01*
Y304554D01*
D02*
G37*
G36*
X377580D02*
X367120D01*
Y299324D01*
Y294094D01*
X377580D01*
Y299324D01*
Y304554D01*
D02*
G37*
G36*
X347580D02*
X337120D01*
Y299324D01*
Y294094D01*
X347580D01*
Y299324D01*
Y304554D01*
D02*
G37*
G36*
X507846Y297027D02*
Y293370D01*
X511503D01*
X511361Y294082D01*
X510239Y295763D01*
X508558Y296885D01*
X507846Y297027D01*
D02*
G37*
G36*
X505306D02*
X504594Y296885D01*
X502914Y295763D01*
X501791Y294082D01*
X501649Y293370D01*
X505306D01*
Y297027D01*
D02*
G37*
G36*
X283464Y303629D02*
X281482Y303235D01*
X279802Y302113D01*
X278679Y300432D01*
X278284Y298450D01*
X278679Y296468D01*
X279802Y294788D01*
X281482Y293665D01*
X283464Y293270D01*
X285446Y293665D01*
X287127Y294788D01*
X288249Y296468D01*
X288643Y298450D01*
X288249Y300432D01*
X287127Y302113D01*
X285446Y303235D01*
X283464Y303629D01*
D02*
G37*
G36*
X138700Y292201D02*
Y288544D01*
X142357D01*
X142215Y289256D01*
X141092Y290937D01*
X139412Y292059D01*
X138700Y292201D01*
D02*
G37*
G36*
X136159D02*
X135447Y292059D01*
X133767Y290937D01*
X132644Y289256D01*
X132503Y288544D01*
X136159D01*
Y292201D01*
D02*
G37*
G36*
X407236Y291554D02*
X403620D01*
Y287938D01*
X404317Y288076D01*
X405984Y289190D01*
X407098Y290857D01*
X407236Y291554D01*
D02*
G37*
G36*
X401080D02*
X397464D01*
X397603Y290857D01*
X398717Y289190D01*
X400384Y288076D01*
X401080Y287938D01*
Y291554D01*
D02*
G37*
G36*
X377236D02*
X373620D01*
Y287938D01*
X374316Y288076D01*
X375983Y289190D01*
X377097Y290857D01*
X377236Y291554D01*
D02*
G37*
G36*
X371080D02*
X367464D01*
X367602Y290857D01*
X368716Y289190D01*
X370383Y288076D01*
X371080Y287938D01*
Y291554D01*
D02*
G37*
G36*
X347236D02*
X343620D01*
Y287938D01*
X344316Y288076D01*
X345984Y289190D01*
X347097Y290857D01*
X347236Y291554D01*
D02*
G37*
G36*
X341080D02*
X337464D01*
X337602Y290857D01*
X338716Y289190D01*
X340383Y288076D01*
X341080Y287938D01*
Y291554D01*
D02*
G37*
G36*
X646161Y291439D02*
Y287782D01*
X649817D01*
X649676Y288494D01*
X648553Y290175D01*
X646873Y291297D01*
X646161Y291439D01*
D02*
G37*
G36*
X643621D02*
X642908Y291297D01*
X641228Y290175D01*
X640105Y288494D01*
X639963Y287782D01*
X643621D01*
Y291439D01*
D02*
G37*
G36*
X511503Y290830D02*
X507846D01*
Y287173D01*
X508558Y287315D01*
X510239Y288438D01*
X511361Y290118D01*
X511503Y290830D01*
D02*
G37*
G36*
X505306D02*
X501649D01*
X501791Y290118D01*
X502914Y288438D01*
X504594Y287315D01*
X505306Y287173D01*
Y290830D01*
D02*
G37*
G36*
X237490Y296518D02*
X235508Y296123D01*
X233827Y295000D01*
X232705Y293320D01*
X232311Y291338D01*
X232705Y289356D01*
X233827Y287675D01*
X235508Y286553D01*
X237490Y286159D01*
X239472Y286553D01*
X241152Y287675D01*
X242275Y289356D01*
X242670Y291338D01*
X242275Y293320D01*
X241152Y295000D01*
X239472Y296123D01*
X237490Y296518D01*
D02*
G37*
G36*
X165608Y295501D02*
X163626Y295107D01*
X161945Y293985D01*
X160823Y292304D01*
X160429Y290322D01*
X160823Y288340D01*
X161945Y286660D01*
X163626Y285537D01*
X165608Y285142D01*
X167590Y285537D01*
X169270Y286660D01*
X170393Y288340D01*
X170788Y290322D01*
X170393Y292304D01*
X169270Y293985D01*
X167590Y295107D01*
X165608Y295501D01*
D02*
G37*
G36*
X473964Y302614D02*
X471982Y302219D01*
X470302Y301096D01*
X469179Y299416D01*
X468784Y297434D01*
X469179Y295452D01*
X469578Y294855D01*
X469696Y293583D01*
X469226Y293269D01*
X468016Y292460D01*
X466893Y290780D01*
X466498Y288798D01*
X466893Y286816D01*
X468016Y285135D01*
X469696Y284013D01*
X471678Y283619D01*
X473660Y284013D01*
X475340Y285135D01*
X476463Y286816D01*
X476857Y288798D01*
X476463Y290780D01*
X476064Y291377D01*
X475946Y292649D01*
X476416Y292963D01*
X477626Y293771D01*
X478749Y295452D01*
X479143Y297434D01*
X478749Y299416D01*
X477626Y301096D01*
X475946Y302219D01*
X473964Y302614D01*
D02*
G37*
G36*
X142357Y286004D02*
X138700D01*
Y282347D01*
X139412Y282489D01*
X141092Y283612D01*
X142215Y285292D01*
X142357Y286004D01*
D02*
G37*
G36*
X136159D02*
X132503D01*
X132644Y285292D01*
X133767Y283612D01*
X135447Y282489D01*
X136159Y282347D01*
Y286004D01*
D02*
G37*
G36*
X649817Y285242D02*
X646161D01*
Y281585D01*
X646873Y281727D01*
X648553Y282850D01*
X649676Y284530D01*
X649817Y285242D01*
D02*
G37*
G36*
X643621D02*
X639963D01*
X640105Y284530D01*
X641228Y282850D01*
X642908Y281727D01*
X643621Y281585D01*
Y285242D01*
D02*
G37*
G36*
X283210Y289405D02*
X281228Y289011D01*
X279548Y287889D01*
X278425Y286208D01*
X278030Y284226D01*
X278425Y282244D01*
X279548Y280564D01*
X281228Y279441D01*
X283210Y279046D01*
X285192Y279441D01*
X286873Y280564D01*
X287995Y282244D01*
X288389Y284226D01*
X287995Y286208D01*
X286873Y287889D01*
X285192Y289011D01*
X283210Y289405D01*
D02*
G37*
G36*
X403620Y280710D02*
Y277094D01*
X407236D01*
X407098Y277791D01*
X405984Y279458D01*
X404317Y280572D01*
X403620Y280710D01*
D02*
G37*
G36*
X401080D02*
X400384Y280572D01*
X398717Y279458D01*
X397603Y277791D01*
X397464Y277094D01*
X401080D01*
Y280710D01*
D02*
G37*
G36*
X373620D02*
Y277094D01*
X377236D01*
X377097Y277791D01*
X375983Y279458D01*
X374316Y280572D01*
X373620Y280710D01*
D02*
G37*
G36*
X371080D02*
X370383Y280572D01*
X368716Y279458D01*
X367602Y277791D01*
X367464Y277094D01*
X371080D01*
Y280710D01*
D02*
G37*
G36*
X343620D02*
Y277094D01*
X347236D01*
X347097Y277791D01*
X345984Y279458D01*
X344316Y280572D01*
X343620Y280710D01*
D02*
G37*
G36*
X341080D02*
X340383Y280572D01*
X338716Y279458D01*
X337602Y277791D01*
X337464Y277094D01*
X341080D01*
Y280710D01*
D02*
G37*
G36*
X129834Y277627D02*
Y273970D01*
X133491D01*
X133349Y274682D01*
X132226Y276362D01*
X130546Y277485D01*
X129834Y277627D01*
D02*
G37*
G36*
X127294D02*
X126582Y277485D01*
X124902Y276362D01*
X123779Y274682D01*
X123637Y273970D01*
X127294D01*
Y277627D01*
D02*
G37*
G36*
X229482Y277469D02*
Y273812D01*
X233139D01*
X232997Y274524D01*
X231874Y276205D01*
X230194Y277327D01*
X229482Y277469D01*
D02*
G37*
G36*
X226942D02*
X226230Y277327D01*
X224549Y276205D01*
X223427Y274524D01*
X223285Y273812D01*
X226942D01*
Y277469D01*
D02*
G37*
G36*
X655026Y276865D02*
Y273208D01*
X658683D01*
X658541Y273920D01*
X657419Y275600D01*
X655738Y276723D01*
X655026Y276865D01*
D02*
G37*
G36*
X652486D02*
X651774Y276723D01*
X650094Y275600D01*
X648971Y273920D01*
X648829Y273208D01*
X652486D01*
Y276865D01*
D02*
G37*
G36*
X243332Y283309D02*
X241350Y282915D01*
X239669Y281793D01*
X238547Y280112D01*
X238153Y278130D01*
X238547Y276148D01*
X239669Y274468D01*
X241350Y273345D01*
X243332Y272950D01*
X245314Y273345D01*
X246994Y274468D01*
X248117Y276148D01*
X248512Y278130D01*
X248117Y280112D01*
X246994Y281793D01*
X245314Y282915D01*
X243332Y283309D01*
D02*
G37*
G36*
X410120Y274210D02*
Y270594D01*
X413736D01*
X413598Y271290D01*
X412484Y272957D01*
X410817Y274071D01*
X410120Y274210D01*
D02*
G37*
G36*
X394580D02*
X393883Y274071D01*
X392216Y272957D01*
X391102Y271290D01*
X390964Y270594D01*
X394580D01*
Y274210D01*
D02*
G37*
G36*
X364580D02*
X363883Y274071D01*
X362216Y272957D01*
X361102Y271290D01*
X360964Y270594D01*
X364580D01*
Y274210D01*
D02*
G37*
G36*
X350120D02*
Y270594D01*
X353736D01*
X353598Y271290D01*
X352484Y272957D01*
X350817Y274071D01*
X350120Y274210D01*
D02*
G37*
G36*
X334580D02*
X333884Y274071D01*
X332216Y272957D01*
X331102Y271290D01*
X330964Y270594D01*
X334580D01*
Y274210D01*
D02*
G37*
G36*
X380120Y273960D02*
Y270344D01*
X383736D01*
X383598Y271040D01*
X382484Y272708D01*
X380817Y273821D01*
X380120Y273960D01*
D02*
G37*
G36*
X133491Y271430D02*
X129834D01*
Y267773D01*
X130546Y267915D01*
X132226Y269038D01*
X133349Y270718D01*
X133491Y271430D01*
D02*
G37*
G36*
X127294D02*
X123637D01*
X123779Y270718D01*
X124902Y269038D01*
X126582Y267915D01*
X127294Y267773D01*
Y271430D01*
D02*
G37*
G36*
X233139Y271272D02*
X229482D01*
Y267615D01*
X230194Y267757D01*
X231874Y268880D01*
X232997Y270560D01*
X233139Y271272D01*
D02*
G37*
G36*
X226942D02*
X223285D01*
X223427Y270560D01*
X224549Y268880D01*
X226230Y267757D01*
X226942Y267615D01*
Y271272D01*
D02*
G37*
G36*
X282082Y277722D02*
X280100Y277327D01*
X278420Y276204D01*
X277297Y274524D01*
X276903Y272542D01*
X277297Y270560D01*
X278420Y268880D01*
X280100Y267757D01*
X282082Y267362D01*
X284064Y267757D01*
X285744Y268880D01*
X286867Y270560D01*
X287262Y272542D01*
X286867Y274524D01*
X285744Y276204D01*
X284064Y277327D01*
X282082Y277722D01*
D02*
G37*
G36*
X658683Y270668D02*
X655026D01*
Y267011D01*
X655738Y267153D01*
X657419Y268276D01*
X658541Y269956D01*
X658683Y270668D01*
D02*
G37*
G36*
X652486D02*
X648829D01*
X648971Y269956D01*
X650094Y268276D01*
X651774Y267153D01*
X652486Y267011D01*
Y270668D01*
D02*
G37*
G36*
X472186Y276705D02*
X470204Y276311D01*
X468523Y275189D01*
X467401Y273508D01*
X467006Y271526D01*
X467401Y269544D01*
X468523Y267864D01*
X470204Y266741D01*
X472186Y266346D01*
X474168Y266741D01*
X475849Y267864D01*
X476971Y269544D01*
X477365Y271526D01*
X476971Y273508D01*
X475849Y275189D01*
X474168Y276311D01*
X472186Y276705D01*
D02*
G37*
G36*
X615696Y268325D02*
Y264668D01*
X619353D01*
X619211Y265380D01*
X618088Y267061D01*
X616408Y268183D01*
X615696Y268325D01*
D02*
G37*
G36*
X613156D02*
X612444Y268183D01*
X610764Y267061D01*
X609641Y265380D01*
X609499Y264668D01*
X613156D01*
Y268325D01*
D02*
G37*
G36*
X413736Y268054D02*
X410120D01*
Y264438D01*
X410817Y264576D01*
X412484Y265690D01*
X413598Y267357D01*
X413736Y268054D01*
D02*
G37*
G36*
X394580D02*
X390964D01*
X391102Y267357D01*
X392216Y265690D01*
X393883Y264576D01*
X394580Y264438D01*
Y268054D01*
D02*
G37*
G36*
X364580D02*
X360964D01*
X361102Y267357D01*
X362216Y265690D01*
X363883Y264576D01*
X364580Y264438D01*
Y268054D01*
D02*
G37*
G36*
X353736D02*
X350120D01*
Y264438D01*
X350817Y264576D01*
X352484Y265690D01*
X353598Y267357D01*
X353736Y268054D01*
D02*
G37*
G36*
X334580D02*
X330964D01*
X331102Y267357D01*
X332216Y265690D01*
X333884Y264576D01*
X334580Y264438D01*
Y268054D01*
D02*
G37*
G36*
X383736Y267804D02*
X380120D01*
Y264188D01*
X380817Y264326D01*
X382484Y265440D01*
X383598Y267107D01*
X383736Y267804D01*
D02*
G37*
G36*
X407580Y274554D02*
X397120D01*
Y269324D01*
Y264094D01*
X407580D01*
Y269324D01*
Y274554D01*
D02*
G37*
G36*
X347580D02*
X337120D01*
Y269324D01*
Y264094D01*
X347580D01*
Y269324D01*
Y274554D01*
D02*
G37*
G36*
X182928Y272388D02*
X180946Y271993D01*
X179265Y270871D01*
X178143Y269190D01*
X177748Y267208D01*
X178143Y265226D01*
X179265Y263546D01*
X180946Y262423D01*
X182928Y262029D01*
X184910Y262423D01*
X186590Y263546D01*
X187713Y265226D01*
X188107Y267208D01*
X187713Y269190D01*
X186590Y270871D01*
X184910Y271993D01*
X182928Y272388D01*
D02*
G37*
G36*
X121666Y262991D02*
Y259334D01*
X125323D01*
X125181Y260046D01*
X124059Y261726D01*
X122378Y262849D01*
X121666Y262991D01*
D02*
G37*
G36*
X119126D02*
X118414Y262849D01*
X116734Y261726D01*
X115611Y260046D01*
X115469Y259334D01*
X119126D01*
Y262991D01*
D02*
G37*
G36*
X663194Y262229D02*
Y258572D01*
X666851D01*
X666709Y259284D01*
X665586Y260965D01*
X663906Y262087D01*
X663194Y262229D01*
D02*
G37*
G36*
X660654D02*
X659942Y262087D01*
X658261Y260965D01*
X657139Y259284D01*
X656997Y258572D01*
X660654D01*
Y262229D01*
D02*
G37*
G36*
X619353Y262128D02*
X615696D01*
Y258471D01*
X616408Y258613D01*
X618088Y259736D01*
X619211Y261416D01*
X619353Y262128D01*
D02*
G37*
G36*
X613156D02*
X609499D01*
X609641Y261416D01*
X610764Y259736D01*
X612444Y258613D01*
X613156Y258471D01*
Y262128D01*
D02*
G37*
G36*
X407236Y261554D02*
X403620D01*
Y257938D01*
X404317Y258076D01*
X405984Y259190D01*
X407098Y260858D01*
X407236Y261554D01*
D02*
G37*
G36*
X401080D02*
X397464D01*
X397603Y260858D01*
X398717Y259190D01*
X400384Y258076D01*
X401080Y257938D01*
Y261554D01*
D02*
G37*
G36*
X377580Y274554D02*
X367120D01*
Y269324D01*
Y264094D01*
X372350D01*
Y262824D01*
X373620D01*
Y257938D01*
X374316Y258076D01*
X375983Y259190D01*
X377097Y260858D01*
X377489Y262824D01*
X377425Y263142D01*
X377580Y263297D01*
Y269074D01*
Y274554D01*
D02*
G37*
G36*
X371080Y261554D02*
X367464D01*
X367602Y260858D01*
X368716Y259190D01*
X370383Y258076D01*
X371080Y257938D01*
Y261554D01*
D02*
G37*
G36*
X347236D02*
X343620D01*
Y257938D01*
X344316Y258076D01*
X345984Y259190D01*
X347097Y260858D01*
X347236Y261554D01*
D02*
G37*
G36*
X341080D02*
X337464D01*
X337602Y260858D01*
X338716Y259190D01*
X340383Y258076D01*
X341080Y257938D01*
Y261554D01*
D02*
G37*
G36*
X583344Y267910D02*
X581362Y267515D01*
X579682Y266392D01*
X578559Y264712D01*
X578164Y262730D01*
X578559Y260748D01*
X579682Y259067D01*
X581362Y257945D01*
X583344Y257551D01*
X585326Y257945D01*
X587006Y259067D01*
X588129Y260748D01*
X588523Y262730D01*
X588129Y264712D01*
X587006Y266392D01*
X585326Y267515D01*
X583344Y267910D01*
D02*
G37*
G36*
X279360Y264104D02*
X277378Y263709D01*
X275697Y262586D01*
X274575Y260906D01*
X274180Y258924D01*
X274575Y256942D01*
X275697Y255262D01*
X277378Y254139D01*
X279360Y253745D01*
X281342Y254139D01*
X283022Y255262D01*
X284145Y256942D01*
X284539Y258924D01*
X284145Y260906D01*
X283022Y262586D01*
X281342Y263709D01*
X279360Y264104D01*
D02*
G37*
G36*
X125323Y256794D02*
X121666D01*
Y253137D01*
X122378Y253279D01*
X124059Y254401D01*
X125181Y256082D01*
X125323Y256794D01*
D02*
G37*
G36*
X119126D02*
X115469D01*
X115611Y256082D01*
X116734Y254401D01*
X118414Y253279D01*
X119126Y253137D01*
Y256794D01*
D02*
G37*
G36*
X666851Y256032D02*
X663194D01*
Y252375D01*
X663906Y252517D01*
X665586Y253640D01*
X666709Y255320D01*
X666851Y256032D01*
D02*
G37*
G36*
X660654D02*
X656997D01*
X657139Y255320D01*
X658261Y253640D01*
X659942Y252517D01*
X660654Y252375D01*
Y256032D01*
D02*
G37*
G36*
X403620Y250710D02*
Y247094D01*
X407236D01*
X407098Y247791D01*
X405984Y249458D01*
X404317Y250572D01*
X403620Y250710D01*
D02*
G37*
G36*
X401080D02*
X400384Y250572D01*
X398717Y249458D01*
X397603Y247791D01*
X397464Y247094D01*
X401080D01*
Y250710D01*
D02*
G37*
G36*
X373620D02*
Y247094D01*
X377236D01*
X377097Y247791D01*
X375983Y249458D01*
X374316Y250572D01*
X373620Y250710D01*
D02*
G37*
G36*
X371080D02*
X370383Y250572D01*
X368716Y249458D01*
X367602Y247791D01*
X367464Y247094D01*
X371080D01*
Y250710D01*
D02*
G37*
G36*
X343620D02*
Y247094D01*
X347236D01*
X347097Y247791D01*
X345984Y249458D01*
X344316Y250572D01*
X343620Y250710D01*
D02*
G37*
G36*
X341080D02*
X340383Y250572D01*
X338716Y249458D01*
X337602Y247791D01*
X337464Y247094D01*
X341080D01*
Y250710D01*
D02*
G37*
G36*
X249997Y256894D02*
X248015Y256499D01*
X246335Y255376D01*
X245212Y253696D01*
X244818Y251714D01*
X245212Y249732D01*
X246335Y248051D01*
X248015Y246929D01*
X249997Y246535D01*
X251979Y246929D01*
X253659Y248051D01*
X254782Y249732D01*
X255177Y251714D01*
X254782Y253696D01*
X253659Y255376D01*
X251979Y256499D01*
X249997Y256894D01*
D02*
G37*
G36*
X235712Y255877D02*
X233730Y255483D01*
X232050Y254361D01*
X230927Y252680D01*
X230533Y250698D01*
X230927Y248716D01*
X232050Y247036D01*
X233730Y245913D01*
X235712Y245518D01*
X237694Y245913D01*
X239375Y247036D01*
X240497Y248716D01*
X240892Y250698D01*
X240497Y252680D01*
X239375Y254361D01*
X237694Y255483D01*
X235712Y255877D01*
D02*
G37*
G36*
X113466Y248513D02*
Y244856D01*
X117123D01*
X116982Y245568D01*
X115859Y247248D01*
X114178Y248371D01*
X113466Y248513D01*
D02*
G37*
G36*
X110926D02*
X110214Y248371D01*
X108534Y247248D01*
X107411Y245568D01*
X107269Y244856D01*
X110926D01*
Y248513D01*
D02*
G37*
G36*
X671394Y247751D02*
Y244094D01*
X675051D01*
X674909Y244806D01*
X673786Y246486D01*
X672106Y247609D01*
X671394Y247751D01*
D02*
G37*
G36*
X668854D02*
X668141Y247609D01*
X666461Y246486D01*
X665338Y244806D01*
X665197Y244094D01*
X668854D01*
Y247751D01*
D02*
G37*
G36*
X473964Y251404D02*
X471982Y251009D01*
X470302Y249886D01*
X469179Y248206D01*
X468784Y246224D01*
X469179Y244242D01*
X470302Y242562D01*
X471982Y241439D01*
X473964Y241045D01*
X475946Y241439D01*
X477626Y242562D01*
X478749Y244242D01*
X479143Y246224D01*
X478749Y248206D01*
X477626Y249886D01*
X475946Y251009D01*
X473964Y251404D01*
D02*
G37*
G36*
X281530D02*
X279548Y251009D01*
X277868Y249886D01*
X276745Y248206D01*
X276350Y246224D01*
X276745Y244242D01*
X277868Y242562D01*
X279548Y241439D01*
X281530Y241045D01*
X283512Y241439D01*
X285193Y242562D01*
X286315Y244242D01*
X286710Y246224D01*
X286315Y248206D01*
X285193Y249886D01*
X283512Y251009D01*
X281530Y251404D01*
D02*
G37*
G36*
X521208Y245972D02*
X519226Y245577D01*
X517546Y244454D01*
X516423Y242774D01*
X516029Y240792D01*
X515131Y240634D01*
X515112Y240637D01*
X513130Y240243D01*
X511450Y239121D01*
X510908Y238310D01*
X509560Y238578D01*
X509483Y238964D01*
X508360Y240644D01*
X506680Y241767D01*
X504698Y242162D01*
X502716Y241767D01*
X501035Y240644D01*
X499913Y238964D01*
X499519Y236982D01*
X499913Y235000D01*
X500501Y234120D01*
X499585Y233204D01*
X499314Y233385D01*
X497332Y233780D01*
X495350Y233385D01*
X493670Y232262D01*
X492547Y230582D01*
X492152Y228600D01*
X492547Y226618D01*
X493670Y224937D01*
X495211Y223908D01*
X494579Y222962D01*
X494184Y220980D01*
X494579Y218998D01*
X495701Y217318D01*
X497382Y216195D01*
X499364Y215800D01*
X501346Y216195D01*
X503027Y217318D01*
X504149Y218998D01*
X504543Y220980D01*
X504149Y222962D01*
X503027Y224643D01*
X501485Y225672D01*
X502117Y226618D01*
X502511Y228600D01*
X502117Y230582D01*
X501529Y231462D01*
X502445Y232378D01*
X502716Y232197D01*
X504698Y231803D01*
X506680Y232197D01*
X508360Y233319D01*
X508902Y234130D01*
X510250Y233862D01*
X510327Y233476D01*
X511450Y231796D01*
X513130Y230673D01*
X515112Y230278D01*
X517094Y230673D01*
X518774Y231796D01*
X519897Y233476D01*
X520291Y235458D01*
X521189Y235616D01*
X521208Y235613D01*
X523190Y236007D01*
X524870Y237129D01*
X525993Y238810D01*
X526387Y240792D01*
X525993Y242774D01*
X524870Y244454D01*
X523190Y245577D01*
X521208Y245972D01*
D02*
G37*
G36*
X410120Y244210D02*
Y240594D01*
X413736D01*
X413598Y241290D01*
X412484Y242957D01*
X410817Y244071D01*
X410120Y244210D01*
D02*
G37*
G36*
X394580D02*
X393883Y244071D01*
X392216Y242957D01*
X391102Y241290D01*
X390964Y240594D01*
X394580D01*
Y244210D01*
D02*
G37*
G36*
X364580D02*
X363883Y244071D01*
X362216Y242957D01*
X361102Y241290D01*
X360964Y240594D01*
X364580D01*
Y244210D01*
D02*
G37*
G36*
X350120D02*
Y240594D01*
X353736D01*
X353598Y241290D01*
X352484Y242957D01*
X350817Y244071D01*
X350120Y244210D01*
D02*
G37*
G36*
X334580D02*
X333884Y244071D01*
X332216Y242957D01*
X331102Y241290D01*
X330964Y240594D01*
X334580D01*
Y244210D01*
D02*
G37*
G36*
X380120Y243960D02*
Y240344D01*
X383736D01*
X383598Y241040D01*
X382484Y242708D01*
X380817Y243822D01*
X380120Y243960D01*
D02*
G37*
G36*
X117123Y242316D02*
X113466D01*
Y238659D01*
X114178Y238801D01*
X115859Y239923D01*
X116982Y241604D01*
X117123Y242316D01*
D02*
G37*
G36*
X110926D02*
X107269D01*
X107411Y241604D01*
X108534Y239923D01*
X110214Y238801D01*
X110926Y238659D01*
Y242316D01*
D02*
G37*
G36*
X675051Y241554D02*
X671394D01*
Y237897D01*
X672106Y238039D01*
X673786Y239161D01*
X674909Y240842D01*
X675051Y241554D01*
D02*
G37*
G36*
X668854D02*
X665197D01*
X665338Y240842D01*
X666461Y239161D01*
X668141Y238039D01*
X668854Y237897D01*
Y241554D01*
D02*
G37*
G36*
X541782Y301481D02*
X539748Y301213D01*
X537853Y300429D01*
X536226Y299180D01*
X534977Y297553D01*
X534193Y295658D01*
X533925Y293624D01*
X534193Y291590D01*
X534977Y289695D01*
X536220Y288076D01*
X536433Y287787D01*
Y286761D01*
X536220Y286472D01*
X534977Y284853D01*
X534193Y282958D01*
X533925Y280924D01*
X534193Y278890D01*
X534977Y276995D01*
X536220Y275376D01*
X536433Y275087D01*
Y274061D01*
X536220Y273772D01*
X534977Y272153D01*
X534193Y270258D01*
X533925Y268224D01*
X534193Y266190D01*
X534977Y264295D01*
X536220Y262676D01*
X536433Y262387D01*
Y261361D01*
X536220Y261072D01*
X534977Y259453D01*
X534193Y257558D01*
X533925Y255524D01*
X534193Y253490D01*
X534977Y251595D01*
X536226Y249968D01*
X536433Y249809D01*
Y248539D01*
X536226Y248380D01*
X534977Y246753D01*
X534193Y244858D01*
X533925Y242824D01*
X534193Y240790D01*
X534977Y238895D01*
X536226Y237268D01*
X537853Y236019D01*
X539748Y235235D01*
X541782Y234967D01*
X543816Y235235D01*
X545422Y235900D01*
X546692Y235341D01*
Y235034D01*
X562272D01*
Y250614D01*
X561964D01*
X561406Y251884D01*
X562071Y253490D01*
X562172Y254254D01*
X554482D01*
Y256794D01*
X562172D01*
X562071Y257558D01*
X561287Y259453D01*
X560044Y261072D01*
X559831Y261361D01*
Y262387D01*
X560044Y262676D01*
X561287Y264295D01*
X562071Y266190D01*
X562172Y266954D01*
X554482D01*
Y269494D01*
X562172D01*
X562071Y270258D01*
X561287Y272153D01*
X560044Y273772D01*
X559831Y274061D01*
Y275087D01*
X560044Y275376D01*
X561287Y276995D01*
X562071Y278890D01*
X562172Y279654D01*
X554482D01*
Y282194D01*
X562172D01*
X562071Y282958D01*
X561287Y284853D01*
X560044Y286472D01*
X559831Y286761D01*
Y287787D01*
X560044Y288076D01*
X561287Y289695D01*
X562071Y291590D01*
X562172Y292354D01*
X554482D01*
Y293624D01*
X553212D01*
Y301314D01*
X552448Y301213D01*
X550553Y300429D01*
X548934Y299186D01*
X548645Y298973D01*
X547619D01*
X547330Y299186D01*
X545711Y300429D01*
X543816Y301213D01*
X541782Y301481D01*
D02*
G37*
G36*
X257556Y245010D02*
X255574Y244615D01*
X253894Y243493D01*
X252771Y241812D01*
X252376Y239830D01*
X252771Y237848D01*
X253894Y236168D01*
X255574Y235045D01*
X257556Y234651D01*
X259538Y235045D01*
X261218Y236168D01*
X262341Y237848D01*
X262736Y239830D01*
X262341Y241812D01*
X261218Y243493D01*
X259538Y244615D01*
X257556Y245010D01*
D02*
G37*
G36*
X413736Y238054D02*
X410120D01*
Y234438D01*
X410817Y234576D01*
X412484Y235690D01*
X413598Y237357D01*
X413736Y238054D01*
D02*
G37*
G36*
X394580D02*
X390964D01*
X391102Y237357D01*
X392216Y235690D01*
X393883Y234576D01*
X394580Y234438D01*
Y238054D01*
D02*
G37*
G36*
X364580D02*
X360964D01*
X361102Y237357D01*
X362216Y235690D01*
X363883Y234576D01*
X364580Y234438D01*
Y238054D01*
D02*
G37*
G36*
X353736D02*
X350120D01*
Y234438D01*
X350817Y234576D01*
X352484Y235690D01*
X353598Y237357D01*
X353736Y238054D01*
D02*
G37*
G36*
X334580D02*
X330964D01*
X331102Y237357D01*
X332216Y235690D01*
X333884Y234576D01*
X334580Y234438D01*
Y238054D01*
D02*
G37*
G36*
X383736Y237804D02*
X380120D01*
Y234188D01*
X380817Y234326D01*
X382484Y235440D01*
X383598Y237108D01*
X383736Y237804D01*
D02*
G37*
G36*
X407580Y244554D02*
X397120D01*
Y239324D01*
Y234094D01*
X407580D01*
Y239324D01*
Y244554D01*
D02*
G37*
G36*
X347580D02*
X337120D01*
Y239324D01*
Y234094D01*
X347580D01*
Y239324D01*
Y244554D01*
D02*
G37*
G36*
X674116Y234035D02*
Y230378D01*
X677773D01*
X677631Y231090D01*
X676508Y232771D01*
X674828Y233893D01*
X674116Y234035D01*
D02*
G37*
G36*
X671576D02*
X670864Y233893D01*
X669184Y232771D01*
X668061Y231090D01*
X667919Y230378D01*
X671576D01*
Y234035D01*
D02*
G37*
G36*
X105156Y233751D02*
Y230094D01*
X108813D01*
X108671Y230806D01*
X107549Y232486D01*
X105868Y233609D01*
X105156Y233751D01*
D02*
G37*
G36*
X102616D02*
X101904Y233609D01*
X100224Y232486D01*
X99101Y230806D01*
X98959Y230094D01*
X102616D01*
Y233751D01*
D02*
G37*
G36*
X282322Y238704D02*
X280340Y238309D01*
X278660Y237187D01*
X277537Y235506D01*
X277143Y233524D01*
X277537Y231542D01*
X278660Y229862D01*
X280340Y228739D01*
X282322Y228344D01*
X284304Y228739D01*
X285984Y229862D01*
X287107Y231542D01*
X287502Y233524D01*
X287107Y235506D01*
X285984Y237187D01*
X284304Y238309D01*
X282322Y238704D01*
D02*
G37*
G36*
X407236Y231554D02*
X403620D01*
Y227938D01*
X404317Y228076D01*
X405984Y229190D01*
X407098Y230858D01*
X407236Y231554D01*
D02*
G37*
G36*
X401080D02*
X397464D01*
X397603Y230858D01*
X398717Y229190D01*
X400384Y228076D01*
X401080Y227938D01*
Y231554D01*
D02*
G37*
G36*
X377580Y244554D02*
X367120D01*
Y239324D01*
Y234094D01*
X372350D01*
Y232824D01*
X373620D01*
Y227938D01*
X374316Y228076D01*
X375983Y229190D01*
X377097Y230858D01*
X377489Y232824D01*
X377425Y233142D01*
X377580Y233297D01*
Y239074D01*
Y244554D01*
D02*
G37*
G36*
X371080Y231554D02*
X367464D01*
X367602Y230858D01*
X368716Y229190D01*
X370383Y228076D01*
X371080Y227938D01*
Y231554D01*
D02*
G37*
G36*
X347236D02*
X343620D01*
Y227938D01*
X344316Y228076D01*
X345984Y229190D01*
X347097Y230858D01*
X347236Y231554D01*
D02*
G37*
G36*
X341080D02*
X337464D01*
X337602Y230858D01*
X338716Y229190D01*
X340383Y228076D01*
X341080Y227938D01*
Y231554D01*
D02*
G37*
G36*
X677773Y227838D02*
X674116D01*
Y224181D01*
X674828Y224323D01*
X676508Y225445D01*
X677631Y227126D01*
X677773Y227838D01*
D02*
G37*
G36*
X671576D02*
X667919D01*
X668061Y227126D01*
X669184Y225445D01*
X670864Y224323D01*
X671576Y224181D01*
Y227838D01*
D02*
G37*
G36*
X108813Y227554D02*
X105156D01*
Y223897D01*
X105868Y224039D01*
X107549Y225161D01*
X108671Y226842D01*
X108813Y227554D01*
D02*
G37*
G36*
X102616D02*
X98959D01*
X99101Y226842D01*
X100224Y225161D01*
X101904Y224039D01*
X102616Y223897D01*
Y227554D01*
D02*
G37*
G36*
X242824Y234156D02*
X240842Y233762D01*
X239161Y232639D01*
X238039Y230958D01*
X237645Y228976D01*
X238039Y226994D01*
X239161Y225314D01*
X240842Y224191D01*
X242824Y223797D01*
X244806Y224191D01*
X246486Y225314D01*
X247609Y226994D01*
X248004Y228976D01*
X247609Y230958D01*
X246486Y232639D01*
X244806Y233762D01*
X242824Y234156D01*
D02*
G37*
G36*
X536194Y232764D02*
X534212Y232369D01*
X532532Y231246D01*
X531409Y229566D01*
X531015Y227584D01*
X531409Y225602D01*
X532532Y223922D01*
X534212Y222799D01*
X536194Y222404D01*
X538176Y222799D01*
X539856Y223922D01*
X540979Y225602D01*
X541373Y227584D01*
X540979Y229566D01*
X539856Y231246D01*
X538176Y232369D01*
X536194Y232764D01*
D02*
G37*
G36*
X97028Y219646D02*
Y215989D01*
X100685D01*
X100543Y216701D01*
X99420Y218382D01*
X97740Y219504D01*
X97028Y219646D01*
D02*
G37*
G36*
X94488D02*
X93776Y219504D01*
X92095Y218382D01*
X90973Y216701D01*
X90831Y215989D01*
X94488D01*
Y219646D01*
D02*
G37*
G36*
X687832Y218884D02*
Y215227D01*
X691489D01*
X691347Y215939D01*
X690225Y217619D01*
X688544Y218742D01*
X687832Y218884D01*
D02*
G37*
G36*
X685292D02*
X684580Y218742D01*
X682899Y217619D01*
X681777Y215939D01*
X681635Y215227D01*
X685292D01*
Y218884D01*
D02*
G37*
G36*
X592582Y221334D02*
X590600Y220939D01*
X588919Y219816D01*
X587797Y218136D01*
X587402Y216154D01*
X587797Y214172D01*
X588919Y212492D01*
X590600Y211369D01*
X592582Y210975D01*
X594564Y211369D01*
X596245Y212492D01*
X597367Y214172D01*
X597761Y216154D01*
X597367Y218136D01*
X596245Y219816D01*
X594564Y220939D01*
X592582Y221334D01*
D02*
G37*
G36*
X613156Y220445D02*
X611174Y220050D01*
X609493Y218927D01*
X608371Y217247D01*
X607976Y215265D01*
X608371Y213283D01*
X609493Y211602D01*
X611174Y210480D01*
X613156Y210086D01*
X615138Y210480D01*
X616819Y211602D01*
X617941Y213283D01*
X618335Y215265D01*
X617941Y217247D01*
X616819Y218927D01*
X615138Y220050D01*
X613156Y220445D01*
D02*
G37*
G36*
X280849Y220317D02*
X278867Y219923D01*
X277186Y218801D01*
X276064Y217120D01*
X275669Y215138D01*
X276064Y213156D01*
X277186Y211476D01*
X278867Y210353D01*
X280849Y209958D01*
X282831Y210353D01*
X284511Y211476D01*
X285634Y213156D01*
X286028Y215138D01*
X285634Y217120D01*
X284511Y218801D01*
X282831Y219923D01*
X280849Y220317D01*
D02*
G37*
G36*
X100685Y213449D02*
X97028D01*
Y209792D01*
X97740Y209934D01*
X99420Y211056D01*
X100543Y212737D01*
X100685Y213449D01*
D02*
G37*
G36*
X94488D02*
X90831D01*
X90973Y212737D01*
X92095Y211056D01*
X93776Y209934D01*
X94488Y209792D01*
Y213449D01*
D02*
G37*
G36*
X691489Y212687D02*
X687832D01*
Y209030D01*
X688544Y209172D01*
X690225Y210294D01*
X691347Y211975D01*
X691489Y212687D01*
D02*
G37*
G36*
X685292D02*
X681635D01*
X681777Y211975D01*
X682899Y210294D01*
X684580Y209172D01*
X685292Y209030D01*
Y212687D01*
D02*
G37*
G36*
X117094Y218286D02*
X115112Y217891D01*
X113432Y216768D01*
X112309Y215088D01*
X111915Y213106D01*
X112309Y211124D01*
X113432Y209443D01*
X115112Y208321D01*
X117094Y207927D01*
X119076Y208321D01*
X120757Y209443D01*
X121879Y211124D01*
X122274Y213106D01*
X121879Y215088D01*
X120757Y216768D01*
X119076Y217891D01*
X117094Y218286D01*
D02*
G37*
G36*
X242412Y221280D02*
X240430Y220886D01*
X238750Y219763D01*
X237627Y218083D01*
X237232Y216101D01*
X237627Y214119D01*
X238750Y212438D01*
X240328Y211384D01*
X239309Y209858D01*
X238915Y207876D01*
X239309Y205894D01*
X240431Y204214D01*
X242112Y203091D01*
X244094Y202697D01*
X246076Y203091D01*
X247757Y204214D01*
X248879Y205894D01*
X249273Y207876D01*
X248879Y209858D01*
X247757Y211539D01*
X246178Y212593D01*
X247197Y214119D01*
X247591Y216101D01*
X247197Y218083D01*
X246075Y219763D01*
X244394Y220886D01*
X242412Y221280D01*
D02*
G37*
G36*
X542798Y206041D02*
Y202384D01*
X546455D01*
X546313Y203096D01*
X545191Y204777D01*
X543510Y205899D01*
X542798Y206041D01*
D02*
G37*
G36*
X540258D02*
X539546Y205899D01*
X537865Y204777D01*
X536743Y203096D01*
X536601Y202384D01*
X540258D01*
Y206041D01*
D02*
G37*
G36*
X88646Y205587D02*
Y201930D01*
X92303D01*
X92161Y202642D01*
X91039Y204322D01*
X89358Y205445D01*
X88646Y205587D01*
D02*
G37*
G36*
X86106D02*
X85394Y205445D01*
X83714Y204322D01*
X82591Y202642D01*
X82449Y201930D01*
X86106D01*
Y205587D01*
D02*
G37*
G36*
X696214Y204825D02*
Y201168D01*
X699871D01*
X699729Y201880D01*
X698606Y203561D01*
X696926Y204683D01*
X696214Y204825D01*
D02*
G37*
G36*
X693674D02*
X692962Y204683D01*
X691282Y203561D01*
X690159Y201880D01*
X690017Y201168D01*
X693674D01*
Y204825D01*
D02*
G37*
G36*
X654304D02*
Y201168D01*
X657961D01*
X657819Y201880D01*
X656696Y203561D01*
X655016Y204683D01*
X654304Y204825D01*
D02*
G37*
G36*
X651764D02*
X651052Y204683D01*
X649371Y203561D01*
X648249Y201880D01*
X648107Y201168D01*
X651764D01*
Y204825D01*
D02*
G37*
G36*
X282448D02*
Y201168D01*
X286105D01*
X285963Y201880D01*
X284841Y203561D01*
X283160Y204683D01*
X282448Y204825D01*
D02*
G37*
G36*
X279908D02*
X279196Y204683D01*
X277516Y203561D01*
X276393Y201880D01*
X276251Y201168D01*
X279908D01*
Y204825D01*
D02*
G37*
G36*
X181356D02*
Y201168D01*
X185013D01*
X184871Y201880D01*
X183748Y203561D01*
X182068Y204683D01*
X181356Y204825D01*
D02*
G37*
G36*
X178816D02*
X178104Y204683D01*
X176423Y203561D01*
X175301Y201880D01*
X175159Y201168D01*
X178816D01*
Y204825D01*
D02*
G37*
G36*
X546455Y199844D02*
X542798D01*
Y196187D01*
X543510Y196329D01*
X545191Y197452D01*
X546313Y199132D01*
X546455Y199844D01*
D02*
G37*
G36*
X540258D02*
X536601D01*
X536743Y199132D01*
X537865Y197452D01*
X539546Y196329D01*
X540258Y196187D01*
Y199844D01*
D02*
G37*
G36*
X495808Y206348D02*
X493826Y205953D01*
X492146Y204830D01*
X491023Y203150D01*
X490629Y201168D01*
X491023Y199186D01*
X492146Y197505D01*
X493826Y196383D01*
X495808Y195989D01*
X497790Y196383D01*
X499470Y197505D01*
X500593Y199186D01*
X500988Y201168D01*
X500593Y203150D01*
X499470Y204830D01*
X497790Y205953D01*
X495808Y206348D01*
D02*
G37*
G36*
X92303Y199390D02*
X88646D01*
Y195733D01*
X89358Y195875D01*
X91039Y196998D01*
X92161Y198678D01*
X92303Y199390D01*
D02*
G37*
G36*
X86106D02*
X82449D01*
X82591Y198678D01*
X83714Y196998D01*
X85394Y195875D01*
X86106Y195733D01*
Y199390D01*
D02*
G37*
G36*
X185013Y198628D02*
X181356D01*
Y194971D01*
X182068Y195113D01*
X183748Y196236D01*
X184871Y197916D01*
X185013Y198628D01*
D02*
G37*
G36*
X178816D02*
X175159D01*
X175301Y197916D01*
X176423Y196236D01*
X178104Y195113D01*
X178816Y194971D01*
Y198628D01*
D02*
G37*
G36*
X699871D02*
X696214D01*
Y194971D01*
X696926Y195113D01*
X698606Y196236D01*
X699729Y197916D01*
X699871Y198628D01*
D02*
G37*
G36*
X693674D02*
X690017D01*
X690159Y197916D01*
X691282Y196236D01*
X692962Y195113D01*
X693674Y194971D01*
Y198628D01*
D02*
G37*
G36*
X657961D02*
X654304D01*
Y194971D01*
X655016Y195113D01*
X656696Y196236D01*
X657819Y197916D01*
X657961Y198628D01*
D02*
G37*
G36*
X651764D02*
X648107D01*
X648249Y197916D01*
X649371Y196236D01*
X651052Y195113D01*
X651764Y194971D01*
Y198628D01*
D02*
G37*
G36*
X286105D02*
X282448D01*
Y194971D01*
X283160Y195113D01*
X284841Y196236D01*
X285963Y197916D01*
X286105Y198628D01*
D02*
G37*
G36*
X279908D02*
X276251D01*
X276393Y197916D01*
X277516Y196236D01*
X279196Y195113D01*
X279908Y194971D01*
Y198628D01*
D02*
G37*
G36*
X155795Y194919D02*
Y191262D01*
X159452D01*
X159310Y191974D01*
X158188Y193654D01*
X156507Y194777D01*
X155795Y194919D01*
D02*
G37*
G36*
X153255D02*
X152543Y194777D01*
X150863Y193654D01*
X149740Y191974D01*
X149598Y191262D01*
X153255D01*
Y194919D01*
D02*
G37*
G36*
X444500Y199235D02*
X442518Y198841D01*
X440838Y197719D01*
X439715Y196038D01*
X439320Y194056D01*
X439715Y192074D01*
X440838Y190394D01*
X442518Y189271D01*
X444500Y188876D01*
X446482Y189271D01*
X448162Y190394D01*
X449285Y192074D01*
X449679Y194056D01*
X449285Y196038D01*
X448162Y197719D01*
X446482Y198841D01*
X444500Y199235D01*
D02*
G37*
G36*
X457200Y198981D02*
X455218Y198587D01*
X453537Y197465D01*
X452415Y195784D01*
X452020Y193802D01*
X452415Y191820D01*
X453537Y190140D01*
X455218Y189017D01*
X457200Y188622D01*
X459182Y189017D01*
X460863Y190140D01*
X461985Y191820D01*
X462379Y193802D01*
X461985Y195784D01*
X460863Y197465D01*
X459182Y198587D01*
X457200Y198981D01*
D02*
G37*
G36*
X470408Y198473D02*
X468426Y198079D01*
X466745Y196957D01*
X465623Y195276D01*
X465229Y193294D01*
X465623Y191312D01*
X466745Y189632D01*
X468426Y188509D01*
X470408Y188114D01*
X472390Y188509D01*
X474071Y189632D01*
X475193Y191312D01*
X475588Y193294D01*
X475193Y195276D01*
X474071Y196957D01*
X472390Y198079D01*
X470408Y198473D01*
D02*
G37*
G36*
X419100D02*
X417118Y198079D01*
X415438Y196957D01*
X414315Y195276D01*
X413921Y193294D01*
X414315Y191312D01*
X415438Y189632D01*
X417118Y188509D01*
X419100Y188114D01*
X421082Y188509D01*
X422762Y189632D01*
X423885Y191312D01*
X424280Y193294D01*
X423885Y195276D01*
X422762Y196957D01*
X421082Y198079D01*
X419100Y198473D01*
D02*
G37*
G36*
X80010Y191109D02*
Y187452D01*
X83667D01*
X83525Y188164D01*
X82402Y189844D01*
X80722Y190967D01*
X80010Y191109D01*
D02*
G37*
G36*
X77470D02*
X76758Y190967D01*
X75078Y189844D01*
X73955Y188164D01*
X73813Y187452D01*
X77470D01*
Y191109D01*
D02*
G37*
G36*
X704850Y190347D02*
Y186690D01*
X708507D01*
X708365Y187402D01*
X707243Y189083D01*
X705562Y190205D01*
X704850Y190347D01*
D02*
G37*
G36*
X702310D02*
X701598Y190205D01*
X699918Y189083D01*
X698795Y187402D01*
X698653Y186690D01*
X702310D01*
Y190347D01*
D02*
G37*
G36*
X301244Y190345D02*
X299262Y189951D01*
X297582Y188829D01*
X296459Y187148D01*
X296445Y187078D01*
X294959Y186117D01*
X294132Y186282D01*
X292150Y185887D01*
X290469Y184764D01*
X289347Y183084D01*
X288953Y181102D01*
X289347Y179120D01*
X290469Y177439D01*
X292150Y176317D01*
X294132Y175923D01*
X296114Y176317D01*
X297794Y177439D01*
X298917Y179120D01*
X298931Y179191D01*
X300417Y180151D01*
X301244Y179986D01*
X303226Y180381D01*
X304907Y181504D01*
X306029Y183184D01*
X306423Y185166D01*
X306029Y187148D01*
X304907Y188829D01*
X303226Y189951D01*
X301244Y190345D01*
D02*
G37*
G36*
X159452Y188722D02*
X155795D01*
Y185065D01*
X156507Y185207D01*
X158188Y186329D01*
X159310Y188010D01*
X159452Y188722D01*
D02*
G37*
G36*
X153255D02*
X149598D01*
X149740Y188010D01*
X150863Y186329D01*
X152543Y185207D01*
X153255Y185065D01*
Y188722D01*
D02*
G37*
G36*
X83667Y184912D02*
X80010D01*
Y181255D01*
X80722Y181397D01*
X82402Y182519D01*
X83525Y184200D01*
X83667Y184912D01*
D02*
G37*
G36*
X77470D02*
X73813D01*
X73955Y184200D01*
X75078Y182519D01*
X76758Y181397D01*
X77470Y181255D01*
Y184912D01*
D02*
G37*
G36*
X346202Y194156D02*
X344220Y193761D01*
X342539Y192638D01*
X341417Y190958D01*
X341022Y188976D01*
X341417Y186994D01*
X342539Y185313D01*
X344220Y184191D01*
X346202Y183797D01*
X348184Y184191D01*
X349365Y184980D01*
X350750Y184527D01*
X350815Y184200D01*
X351937Y182519D01*
X353618Y181397D01*
X355600Y181003D01*
X357582Y181397D01*
X359263Y182519D01*
X360385Y184200D01*
X360779Y186182D01*
X360385Y188164D01*
X359263Y189844D01*
X357582Y190967D01*
X355600Y191362D01*
X353618Y190967D01*
X352437Y190178D01*
X351052Y190632D01*
X350987Y190958D01*
X349865Y192638D01*
X348184Y193761D01*
X346202Y194156D01*
D02*
G37*
G36*
X320548Y191362D02*
X318566Y190967D01*
X316886Y189844D01*
X315763Y188164D01*
X315368Y186182D01*
X315557Y185233D01*
X313740Y184871D01*
X312059Y183748D01*
X310937Y182068D01*
X310543Y180086D01*
X310937Y178104D01*
X312059Y176423D01*
X313740Y175301D01*
X315722Y174907D01*
X317704Y175301D01*
X319384Y176423D01*
X320507Y178104D01*
X320901Y180086D01*
X320713Y181035D01*
X322530Y181397D01*
X324211Y182519D01*
X324527Y182993D01*
X325797D01*
X326283Y182265D01*
X327964Y181143D01*
X329946Y180749D01*
X331928Y181143D01*
X333609Y182265D01*
X334731Y183946D01*
X335126Y185928D01*
X334731Y187910D01*
X333609Y189590D01*
X331928Y190713D01*
X329946Y191108D01*
X327964Y190713D01*
X326283Y189590D01*
X325967Y189117D01*
X324697D01*
X324211Y189844D01*
X322530Y190967D01*
X320548Y191362D01*
D02*
G37*
G36*
X708507Y184150D02*
X704850D01*
Y180493D01*
X705562Y180635D01*
X707243Y181758D01*
X708365Y183438D01*
X708507Y184150D01*
D02*
G37*
G36*
X702310D02*
X698653D01*
X698795Y183438D01*
X699918Y181758D01*
X701598Y180635D01*
X702310Y180493D01*
Y184150D01*
D02*
G37*
G36*
X532130Y190345D02*
X530148Y189951D01*
X528467Y188829D01*
X527345Y187148D01*
X526950Y185166D01*
X527345Y183184D01*
X528467Y181504D01*
X530148Y180381D01*
X532130Y179986D01*
X534112Y180381D01*
X535793Y181504D01*
X536915Y183184D01*
X537309Y185166D01*
X536915Y187148D01*
X535793Y188829D01*
X534112Y189951D01*
X532130Y190345D01*
D02*
G37*
G36*
X234442Y195933D02*
X232460Y195539D01*
X230779Y194417D01*
X229657Y192736D01*
X229263Y190754D01*
X229657Y188772D01*
X230779Y187092D01*
X232460Y185969D01*
X234442Y185574D01*
X234999Y184391D01*
X234851Y183642D01*
X235245Y181660D01*
X236367Y179979D01*
X238048Y178857D01*
X240030Y178463D01*
X242012Y178857D01*
X243692Y179979D01*
X244815Y181660D01*
X245210Y183642D01*
X244815Y185624D01*
X243692Y187304D01*
X242012Y188427D01*
X240030Y188822D01*
X239473Y190005D01*
X239622Y190754D01*
X239227Y192736D01*
X238104Y194417D01*
X236424Y195539D01*
X234442Y195933D01*
D02*
G37*
G36*
X122174Y183741D02*
X120192Y183347D01*
X118511Y182225D01*
X117389Y180544D01*
X116994Y178562D01*
X117389Y176580D01*
X118511Y174900D01*
X120192Y173777D01*
X122174Y173382D01*
X124156Y173777D01*
X125836Y174900D01*
X126959Y176580D01*
X127353Y178562D01*
X126959Y180544D01*
X125836Y182225D01*
X124156Y183347D01*
X122174Y183741D01*
D02*
G37*
G36*
X72136Y177001D02*
Y173344D01*
X75793D01*
X75651Y174056D01*
X74528Y175736D01*
X72848Y176859D01*
X72136Y177001D01*
D02*
G37*
G36*
X69596D02*
X68884Y176859D01*
X67203Y175736D01*
X66081Y174056D01*
X65939Y173344D01*
X69596D01*
Y177001D01*
D02*
G37*
G36*
X712724Y176239D02*
Y172582D01*
X716381D01*
X716239Y173294D01*
X715117Y174974D01*
X713436Y176097D01*
X712724Y176239D01*
D02*
G37*
G36*
X710184D02*
X709472Y176097D01*
X707792Y174974D01*
X706669Y173294D01*
X706527Y172582D01*
X710184D01*
Y176239D01*
D02*
G37*
G36*
X189332Y173075D02*
Y169418D01*
X192989D01*
X192847Y170130D01*
X191725Y171810D01*
X190044Y172933D01*
X189332Y173075D01*
D02*
G37*
G36*
X186792D02*
X186080Y172933D01*
X184400Y171810D01*
X183277Y170130D01*
X183135Y169418D01*
X186792D01*
Y173075D01*
D02*
G37*
G36*
X628142Y179170D02*
X626160Y178775D01*
X624479Y177652D01*
X623357Y175972D01*
X622962Y173990D01*
X623357Y172008D01*
X624479Y170327D01*
X626160Y169205D01*
X628142Y168811D01*
X630124Y169205D01*
X631805Y170327D01*
X632927Y172008D01*
X633321Y173990D01*
X632927Y175972D01*
X631805Y177652D01*
X630124Y178775D01*
X628142Y179170D01*
D02*
G37*
G36*
X655922Y178314D02*
X653940Y177919D01*
X652260Y176796D01*
X651137Y175116D01*
X650742Y173134D01*
X651137Y171152D01*
X652260Y169471D01*
X653940Y168349D01*
X655922Y167955D01*
X657904Y168349D01*
X659585Y169471D01*
X660707Y171152D01*
X661102Y173134D01*
X660707Y175116D01*
X659585Y176796D01*
X657904Y177919D01*
X655922Y178314D01*
D02*
G37*
G36*
X75793Y170804D02*
X72136D01*
Y167147D01*
X72848Y167289D01*
X74528Y168411D01*
X75651Y170092D01*
X75793Y170804D01*
D02*
G37*
G36*
X69596D02*
X65939D01*
X66081Y170092D01*
X67203Y168411D01*
X68884Y167289D01*
X69596Y167147D01*
Y170804D01*
D02*
G37*
G36*
X681228Y177138D02*
X679246Y176743D01*
X677566Y175620D01*
X676443Y173940D01*
X676049Y171958D01*
X676443Y169976D01*
X677566Y168295D01*
X679246Y167173D01*
X681228Y166779D01*
X683210Y167173D01*
X684891Y168295D01*
X686013Y169976D01*
X686407Y171958D01*
X686013Y173940D01*
X684891Y175620D01*
X683210Y176743D01*
X681228Y177138D01*
D02*
G37*
G36*
X716381Y170042D02*
X712724D01*
Y166385D01*
X713436Y166527D01*
X715117Y167649D01*
X716239Y169330D01*
X716381Y170042D01*
D02*
G37*
G36*
X710184D02*
X706527D01*
X706669Y169330D01*
X707792Y167649D01*
X709472Y166527D01*
X710184Y166385D01*
Y170042D01*
D02*
G37*
G36*
X370343Y175487D02*
X368361Y175092D01*
X366680Y173969D01*
X365558Y172289D01*
X365163Y170307D01*
X365558Y168325D01*
X366680Y166644D01*
X368361Y165522D01*
X370343Y165128D01*
X372325Y165522D01*
X374005Y166644D01*
X375128Y168325D01*
X375522Y170307D01*
X375128Y172289D01*
X374005Y173969D01*
X372325Y175092D01*
X370343Y175487D01*
D02*
G37*
G36*
X564642Y168503D02*
Y164846D01*
X568299D01*
X568157Y165558D01*
X567034Y167239D01*
X565354Y168361D01*
X564642Y168503D01*
D02*
G37*
G36*
X562102D02*
X561390Y168361D01*
X559710Y167239D01*
X558587Y165558D01*
X558445Y164846D01*
X562102D01*
Y168503D01*
D02*
G37*
G36*
X192989Y166878D02*
X189332D01*
Y163221D01*
X190044Y163363D01*
X191725Y164485D01*
X192847Y166166D01*
X192989Y166878D01*
D02*
G37*
G36*
X186792D02*
X183135D01*
X183277Y166166D01*
X184400Y164485D01*
X186080Y163363D01*
X186792Y163221D01*
Y166878D01*
D02*
G37*
G36*
X501396Y166217D02*
Y162560D01*
X505053D01*
X504911Y163272D01*
X503788Y164953D01*
X502108Y166075D01*
X501396Y166217D01*
D02*
G37*
G36*
X498856D02*
X498144Y166075D01*
X496464Y164953D01*
X495341Y163272D01*
X495199Y162560D01*
X498856D01*
Y166217D01*
D02*
G37*
G36*
X471424Y165963D02*
Y162306D01*
X475081D01*
X474939Y163018D01*
X473816Y164699D01*
X472136Y165821D01*
X471424Y165963D01*
D02*
G37*
G36*
X468884D02*
X468172Y165821D01*
X466492Y164699D01*
X465369Y163018D01*
X465227Y162306D01*
X468884D01*
Y165963D01*
D02*
G37*
G36*
X576842Y169503D02*
X574860Y169109D01*
X573180Y167987D01*
X572057Y166306D01*
X571662Y164324D01*
X572057Y162342D01*
X573180Y160662D01*
X574860Y159539D01*
X576842Y159144D01*
X578824Y159539D01*
X580504Y160662D01*
X581627Y162342D01*
X582021Y164324D01*
X581627Y166306D01*
X580504Y167987D01*
X578824Y169109D01*
X576842Y169503D01*
D02*
G37*
G36*
X568299Y162306D02*
X564642D01*
Y158649D01*
X565354Y158791D01*
X567034Y159914D01*
X568157Y161594D01*
X568299Y162306D01*
D02*
G37*
G36*
X562102D02*
X558445D01*
X558587Y161594D01*
X559710Y159914D01*
X561390Y158791D01*
X562102Y158649D01*
Y162306D01*
D02*
G37*
G36*
X63500Y161645D02*
Y157988D01*
X67157D01*
X67015Y158700D01*
X65893Y160380D01*
X64212Y161503D01*
X63500Y161645D01*
D02*
G37*
G36*
X60960D02*
X60248Y161503D01*
X58568Y160380D01*
X57445Y158700D01*
X57303Y157988D01*
X60960D01*
Y161645D01*
D02*
G37*
G36*
X721360Y160883D02*
Y157226D01*
X725017D01*
X724875Y157938D01*
X723753Y159619D01*
X722072Y160741D01*
X721360Y160883D01*
D02*
G37*
G36*
X718820D02*
X718108Y160741D01*
X716428Y159619D01*
X715305Y157938D01*
X715163Y157226D01*
X718820D01*
Y160883D01*
D02*
G37*
G36*
X505053Y160020D02*
X501396D01*
Y156363D01*
X502108Y156505D01*
X503788Y157627D01*
X504911Y159308D01*
X505053Y160020D01*
D02*
G37*
G36*
X498856D02*
X495199D01*
X495341Y159308D01*
X496464Y157627D01*
X498144Y156505D01*
X498856Y156363D01*
Y160020D01*
D02*
G37*
G36*
X475081Y159766D02*
X471424D01*
Y156109D01*
X472136Y156251D01*
X473816Y157374D01*
X474939Y159054D01*
X475081Y159766D01*
D02*
G37*
G36*
X468884D02*
X465227D01*
X465369Y159054D01*
X466492Y157374D01*
X468172Y156251D01*
X468884Y156109D01*
Y159766D01*
D02*
G37*
G36*
X383794Y167994D02*
X381812Y167599D01*
X380131Y166476D01*
X379009Y164796D01*
X378615Y162814D01*
X379009Y160832D01*
X380131Y159151D01*
X381812Y158029D01*
X383794Y157634D01*
X385776Y158029D01*
X387457Y159151D01*
X387616Y159389D01*
X388861Y159142D01*
X388915Y158872D01*
X390037Y157191D01*
X391718Y156069D01*
X393700Y155674D01*
X395682Y156069D01*
X397363Y157191D01*
X398485Y158872D01*
X398880Y160854D01*
X398485Y162836D01*
X397363Y164517D01*
X395682Y165639D01*
X393700Y166033D01*
X391718Y165639D01*
X390037Y164517D01*
X389879Y164279D01*
X388633Y164526D01*
X388579Y164796D01*
X387457Y166476D01*
X385776Y167599D01*
X383794Y167994D01*
D02*
G37*
G36*
X406400Y164438D02*
X404418Y164043D01*
X402738Y162920D01*
X401615Y161240D01*
X401221Y159258D01*
X401615Y157276D01*
X402738Y155596D01*
X404418Y154473D01*
X406400Y154079D01*
X408382Y154473D01*
X410062Y155596D01*
X411185Y157276D01*
X411580Y159258D01*
X411185Y161240D01*
X410062Y162920D01*
X408382Y164043D01*
X406400Y164438D01*
D02*
G37*
G36*
X67157Y155448D02*
X63500D01*
Y151791D01*
X64212Y151933D01*
X65893Y153055D01*
X67015Y154736D01*
X67157Y155448D01*
D02*
G37*
G36*
X60960D02*
X57303D01*
X57445Y154736D01*
X58568Y153055D01*
X60248Y151933D01*
X60960Y151791D01*
Y155448D01*
D02*
G37*
G36*
X725017Y154686D02*
X721360D01*
Y151029D01*
X722072Y151171D01*
X723753Y152294D01*
X724875Y153974D01*
X725017Y154686D01*
D02*
G37*
G36*
X718820D02*
X715163D01*
X715305Y153974D01*
X716428Y152294D01*
X718108Y151171D01*
X718820Y151029D01*
Y154686D01*
D02*
G37*
G36*
X593598Y160072D02*
X591616Y159677D01*
X589935Y158554D01*
X588813Y156874D01*
X588419Y154892D01*
X588813Y152910D01*
X589935Y151229D01*
X591616Y150107D01*
X593598Y149712D01*
X595580Y150107D01*
X597261Y151229D01*
X598383Y152910D01*
X598778Y154892D01*
X598383Y156874D01*
X597261Y158554D01*
X595580Y159677D01*
X593598Y160072D01*
D02*
G37*
G36*
X226314Y159611D02*
X224332Y159217D01*
X222652Y158094D01*
X221529Y156414D01*
X221134Y154432D01*
X221529Y152450D01*
X222652Y150769D01*
X224332Y149647D01*
X226314Y149252D01*
X228296Y149647D01*
X229977Y150769D01*
X231099Y152450D01*
X231493Y154432D01*
X231099Y156414D01*
X229977Y158094D01*
X228296Y159217D01*
X226314Y159611D01*
D02*
G37*
G36*
X606795Y159358D02*
X604813Y158963D01*
X603133Y157840D01*
X602010Y156160D01*
X601616Y154178D01*
X602010Y152196D01*
X603133Y150515D01*
X604813Y149393D01*
X606795Y148998D01*
X608778Y149393D01*
X610458Y150515D01*
X611581Y152196D01*
X611975Y154178D01*
X611581Y156160D01*
X610458Y157840D01*
X608778Y158963D01*
X606795Y159358D01*
D02*
G37*
G36*
X247492Y156516D02*
X245510Y156121D01*
X243829Y154999D01*
X242707Y153318D01*
X242313Y151336D01*
X242707Y149354D01*
X243829Y147674D01*
X245510Y146551D01*
X247492Y146157D01*
X249474Y146551D01*
X251154Y147674D01*
X252277Y149354D01*
X252672Y151336D01*
X252277Y153318D01*
X251154Y154999D01*
X249474Y156121D01*
X247492Y156516D01*
D02*
G37*
G36*
X55880Y148945D02*
Y145288D01*
X59537D01*
X59395Y146000D01*
X58273Y147681D01*
X56592Y148803D01*
X55880Y148945D01*
D02*
G37*
G36*
X53340D02*
X52628Y148803D01*
X50947Y147681D01*
X49825Y146000D01*
X49683Y145288D01*
X53340D01*
Y148945D01*
D02*
G37*
G36*
X728980Y148183D02*
Y144526D01*
X732637D01*
X732495Y145238D01*
X731373Y146918D01*
X729692Y148041D01*
X728980Y148183D01*
D02*
G37*
G36*
X726440D02*
X725728Y148041D01*
X724047Y146918D01*
X722925Y145238D01*
X722783Y144526D01*
X726440D01*
Y148183D01*
D02*
G37*
G36*
X266446Y154451D02*
X264464Y154057D01*
X262784Y152934D01*
X261661Y151254D01*
X261266Y149272D01*
X261661Y147290D01*
X262784Y145609D01*
X264464Y144487D01*
X266446Y144092D01*
X268428Y144487D01*
X270109Y145609D01*
X271231Y147290D01*
X271625Y149272D01*
X271231Y151254D01*
X270109Y152934D01*
X268428Y154057D01*
X266446Y154451D01*
D02*
G37*
G36*
X681990Y145525D02*
X679956Y145257D01*
X678061Y144472D01*
X676434Y143224D01*
X676275Y143017D01*
X675005D01*
X674846Y143224D01*
X673218Y144472D01*
X671323Y145257D01*
X669290Y145525D01*
X667256Y145257D01*
X665361Y144472D01*
X663734Y143224D01*
X662485Y141596D01*
X661700Y139701D01*
X661433Y137668D01*
X661700Y135634D01*
X662485Y133739D01*
X663728Y132120D01*
X663941Y131831D01*
Y130805D01*
X663728Y130516D01*
X662485Y128897D01*
X661700Y127001D01*
X661433Y124968D01*
X661700Y122934D01*
X662485Y121039D01*
X663728Y119420D01*
X663941Y119131D01*
Y118105D01*
X663728Y117816D01*
X662485Y116196D01*
X661700Y114302D01*
X661433Y112268D01*
X661700Y110234D01*
X662485Y108339D01*
X663728Y106720D01*
X663941Y106431D01*
Y105405D01*
X663728Y105116D01*
X662485Y103497D01*
X661700Y101601D01*
X661433Y99568D01*
X661700Y97534D01*
X662485Y95639D01*
X663728Y94020D01*
X663941Y93731D01*
Y92705D01*
X663728Y92416D01*
X662485Y90796D01*
X661700Y88902D01*
X661433Y86868D01*
X661700Y84834D01*
X662485Y82939D01*
X663734Y81312D01*
X665361Y80063D01*
X667256Y79278D01*
X669290Y79011D01*
X671323Y79278D01*
X672930Y79944D01*
X674200Y79385D01*
Y79078D01*
X680720D01*
Y86868D01*
X681990D01*
Y88138D01*
X689780D01*
Y94658D01*
X689472D01*
X688914Y95928D01*
X689579Y97534D01*
X689847Y99568D01*
X689579Y101601D01*
X688794Y103497D01*
X687552Y105116D01*
X687338Y105405D01*
Y106431D01*
X687552Y106720D01*
X688794Y108339D01*
X689579Y110234D01*
X689847Y112268D01*
X689579Y114302D01*
X688794Y116196D01*
X687552Y117816D01*
X687338Y118105D01*
Y119131D01*
X687552Y119420D01*
X688794Y121039D01*
X689579Y122934D01*
X689847Y124968D01*
X689579Y127001D01*
X688794Y128897D01*
X687552Y130516D01*
X687338Y130805D01*
Y131831D01*
X687552Y132120D01*
X688794Y133739D01*
X689579Y135634D01*
X689847Y137668D01*
X689579Y139701D01*
X688794Y141596D01*
X687546Y143224D01*
X685918Y144472D01*
X684023Y145257D01*
X681990Y145525D01*
D02*
G37*
G36*
X539432Y146659D02*
Y143002D01*
X543089D01*
X542947Y143714D01*
X541824Y145394D01*
X540144Y146517D01*
X539432Y146659D01*
D02*
G37*
G36*
X536892D02*
X536180Y146517D01*
X534500Y145394D01*
X533377Y143714D01*
X533235Y143002D01*
X536892D01*
Y146659D01*
D02*
G37*
G36*
X343154Y150213D02*
X341172Y149819D01*
X339492Y148696D01*
X338369Y147016D01*
X337975Y145034D01*
X338369Y143052D01*
X339492Y141371D01*
X341172Y140249D01*
X343154Y139854D01*
X345136Y140249D01*
X346816Y141371D01*
X347939Y143052D01*
X348334Y145034D01*
X347939Y147016D01*
X346816Y148696D01*
X345136Y149819D01*
X343154Y150213D01*
D02*
G37*
G36*
X59537Y142748D02*
X55880D01*
Y139091D01*
X56592Y139233D01*
X58273Y140356D01*
X59395Y142036D01*
X59537Y142748D01*
D02*
G37*
G36*
X53340D02*
X49683D01*
X49825Y142036D01*
X50947Y140356D01*
X52628Y139233D01*
X53340Y139091D01*
Y142748D01*
D02*
G37*
G36*
X732637Y141986D02*
X728980D01*
Y138329D01*
X729692Y138471D01*
X731373Y139593D01*
X732495Y141274D01*
X732637Y141986D01*
D02*
G37*
G36*
X726440D02*
X722783D01*
X722925Y141274D01*
X724047Y139593D01*
X725728Y138471D01*
X726440Y138329D01*
Y141986D01*
D02*
G37*
G36*
X375209Y140563D02*
Y136906D01*
X378866D01*
X378725Y137618D01*
X377602Y139298D01*
X375921Y140421D01*
X375209Y140563D01*
D02*
G37*
G36*
X372669D02*
X371957Y140421D01*
X370277Y139298D01*
X369154Y137618D01*
X369012Y136906D01*
X372669D01*
Y140563D01*
D02*
G37*
G36*
X543089Y140462D02*
X539432D01*
Y136805D01*
X540144Y136947D01*
X541824Y138069D01*
X542947Y139750D01*
X543089Y140462D01*
D02*
G37*
G36*
X536892D02*
X533235D01*
X533377Y139750D01*
X534500Y138069D01*
X536180Y136947D01*
X536892Y136805D01*
Y140462D01*
D02*
G37*
G36*
X226314Y146150D02*
X224332Y145755D01*
X222652Y144633D01*
X221529Y142952D01*
X221134Y140970D01*
X221529Y138988D01*
X222652Y137308D01*
X224332Y136185D01*
X226314Y135791D01*
X228296Y136185D01*
X229977Y137308D01*
X231099Y138988D01*
X231493Y140970D01*
X231099Y142952D01*
X229977Y144633D01*
X228296Y145755D01*
X226314Y146150D01*
D02*
G37*
G36*
X408178Y144497D02*
X406196Y144103D01*
X404515Y142980D01*
X403393Y141300D01*
X402999Y139318D01*
X403393Y137336D01*
X404515Y135655D01*
X406196Y134533D01*
X408178Y134138D01*
X410160Y134533D01*
X411841Y135655D01*
X412963Y137336D01*
X413358Y139318D01*
X412963Y141300D01*
X411841Y142980D01*
X410160Y144103D01*
X408178Y144497D01*
D02*
G37*
G36*
X48544Y135229D02*
Y131572D01*
X52200D01*
X52059Y132284D01*
X50936Y133965D01*
X49256Y135087D01*
X48544Y135229D01*
D02*
G37*
G36*
X46004D02*
X45292Y135087D01*
X43611Y133965D01*
X42488Y132284D01*
X42347Y131572D01*
X46004D01*
Y135229D01*
D02*
G37*
G36*
X736316Y134467D02*
Y130810D01*
X739973D01*
X739832Y131522D01*
X738709Y133202D01*
X737029Y134325D01*
X736316Y134467D01*
D02*
G37*
G36*
X733776D02*
X733064Y134325D01*
X731384Y133202D01*
X730261Y131522D01*
X730119Y130810D01*
X733776D01*
Y134467D01*
D02*
G37*
G36*
X378866Y134366D02*
X375209D01*
Y130709D01*
X375921Y130851D01*
X377602Y131973D01*
X378725Y133654D01*
X378866Y134366D01*
D02*
G37*
G36*
X372669D02*
X369012D01*
X369154Y133654D01*
X370277Y131973D01*
X371957Y130851D01*
X372669Y130709D01*
Y134366D01*
D02*
G37*
G36*
X617776Y139497D02*
X615794Y139103D01*
X614114Y137980D01*
X612991Y136300D01*
X612597Y134318D01*
X612991Y132336D01*
X614114Y130655D01*
X615794Y129533D01*
X617776Y129138D01*
X619758Y129533D01*
X621438Y130655D01*
X622561Y132336D01*
X622956Y134318D01*
X622561Y136300D01*
X621438Y137980D01*
X619758Y139103D01*
X617776Y139497D01*
D02*
G37*
G36*
X505206Y137514D02*
X503224Y137119D01*
X501544Y135997D01*
X500421Y134316D01*
X500027Y132334D01*
X500421Y130352D01*
X501544Y128672D01*
X503224Y127549D01*
X505206Y127155D01*
X507188Y127549D01*
X508868Y128672D01*
X509991Y130352D01*
X510386Y132334D01*
X509991Y134316D01*
X508868Y135997D01*
X507188Y137119D01*
X505206Y137514D01*
D02*
G37*
G36*
X52200Y129032D02*
X48544D01*
Y125375D01*
X49256Y125517D01*
X50936Y126639D01*
X52059Y128320D01*
X52200Y129032D01*
D02*
G37*
G36*
X46004D02*
X42347D01*
X42488Y128320D01*
X43611Y126639D01*
X45292Y125517D01*
X46004Y125375D01*
Y129032D01*
D02*
G37*
G36*
X342365Y135227D02*
X340383Y134833D01*
X338703Y133710D01*
X337580Y132030D01*
X337186Y130048D01*
X337580Y128066D01*
X338703Y126385D01*
X340383Y125263D01*
X342365Y124868D01*
X344348Y125263D01*
X346028Y126385D01*
X347151Y128066D01*
X347545Y130048D01*
X347151Y132030D01*
X346028Y133710D01*
X344348Y134833D01*
X342365Y135227D01*
D02*
G37*
G36*
X739973Y128270D02*
X736316D01*
Y124613D01*
X737029Y124755D01*
X738709Y125878D01*
X739832Y127558D01*
X739973Y128270D01*
D02*
G37*
G36*
X733776D02*
X730119D01*
X730261Y127558D01*
X731384Y125878D01*
X733064Y124755D01*
X733776Y124613D01*
Y128270D01*
D02*
G37*
G36*
X558011Y127355D02*
Y123698D01*
X561668D01*
X561526Y124410D01*
X560403Y126090D01*
X558723Y127213D01*
X558011Y127355D01*
D02*
G37*
G36*
X555471D02*
X554758Y127213D01*
X553078Y126090D01*
X551955Y124410D01*
X551814Y123698D01*
X555471D01*
Y127355D01*
D02*
G37*
G36*
X80010Y152728D02*
X77022Y152434D01*
X74150Y151562D01*
X71502Y150147D01*
X69181Y148243D01*
X67277Y145922D01*
X65862Y143274D01*
X64991Y140402D01*
X64696Y137414D01*
X64991Y134426D01*
X65862Y131554D01*
X67277Y128906D01*
X69181Y126586D01*
X71502Y124681D01*
X74150Y123266D01*
X77022Y122395D01*
X80010Y122100D01*
X82998Y122395D01*
X85870Y123266D01*
X88518Y124681D01*
X90838Y126586D01*
X92743Y128906D01*
X94158Y131554D01*
X95029Y134426D01*
X95324Y137414D01*
X95029Y140402D01*
X94158Y143274D01*
X92743Y145922D01*
X90838Y148243D01*
X88518Y150147D01*
X85870Y151562D01*
X82998Y152434D01*
X80010Y152728D01*
D02*
G37*
G36*
X41402Y123037D02*
Y119380D01*
X45059D01*
X44917Y120092D01*
X43794Y121772D01*
X42114Y122895D01*
X41402Y123037D01*
D02*
G37*
G36*
X38862D02*
X38150Y122895D01*
X36470Y121772D01*
X35347Y120092D01*
X35205Y119380D01*
X38862D01*
Y123037D01*
D02*
G37*
G36*
X743458Y122275D02*
Y118618D01*
X747115D01*
X746973Y119330D01*
X745851Y121011D01*
X744170Y122133D01*
X743458Y122275D01*
D02*
G37*
G36*
X740918D02*
X740206Y122133D01*
X738525Y121011D01*
X737403Y119330D01*
X737261Y118618D01*
X740918D01*
Y122275D01*
D02*
G37*
G36*
X409194Y128700D02*
X407212Y128305D01*
X405532Y127183D01*
X404409Y125502D01*
X404015Y123520D01*
X404409Y121538D01*
X405532Y119858D01*
X407212Y118735D01*
X409194Y118341D01*
X411176Y118735D01*
X412856Y119858D01*
X413979Y121538D01*
X414374Y123520D01*
X413979Y125502D01*
X412856Y127183D01*
X411176Y128305D01*
X409194Y128700D01*
D02*
G37*
G36*
X561668Y121158D02*
X558011D01*
Y117501D01*
X558723Y117643D01*
X560403Y118765D01*
X561526Y120446D01*
X561668Y121158D01*
D02*
G37*
G36*
X555471D02*
X551814D01*
X551955Y120446D01*
X553078Y118765D01*
X554758Y117643D01*
X555471Y117501D01*
Y121158D01*
D02*
G37*
G36*
X153416Y125576D02*
X151434Y125181D01*
X149754Y124059D01*
X148631Y122378D01*
X148237Y120396D01*
X148631Y118414D01*
X148954Y117931D01*
X147935Y117200D01*
X146254Y118323D01*
X144272Y118717D01*
X142290Y118323D01*
X140610Y117200D01*
X139487Y115520D01*
X139093Y113538D01*
X139487Y111556D01*
X140610Y109875D01*
X142290Y108753D01*
X144272Y108358D01*
X146254Y108753D01*
X147935Y109875D01*
X149057Y111556D01*
X149452Y113538D01*
X149057Y115520D01*
X148734Y116003D01*
X149754Y116734D01*
X151434Y115611D01*
X153416Y115217D01*
X155398Y115611D01*
X157079Y116734D01*
X158201Y118414D01*
X158596Y120396D01*
X158201Y122378D01*
X157079Y124059D01*
X155398Y125181D01*
X153416Y125576D01*
D02*
G37*
G36*
X616966Y127353D02*
X614984Y126959D01*
X613303Y125836D01*
X612181Y124156D01*
X611786Y122174D01*
X612181Y120192D01*
X613303Y118511D01*
X614984Y117389D01*
X616966Y116994D01*
X618948Y117389D01*
X620629Y118511D01*
X621751Y120192D01*
X622146Y122174D01*
X621751Y124156D01*
X620629Y125836D01*
X618948Y126959D01*
X616966Y127353D01*
D02*
G37*
G36*
X576856Y125576D02*
X574874Y125181D01*
X573194Y124059D01*
X572071Y122378D01*
X571676Y120396D01*
X572071Y118414D01*
X573194Y116734D01*
X574874Y115611D01*
X576856Y115217D01*
X578838Y115611D01*
X580518Y116734D01*
X581641Y118414D01*
X582035Y120396D01*
X581641Y122378D01*
X580518Y124059D01*
X578838Y125181D01*
X576856Y125576D01*
D02*
G37*
G36*
X175006D02*
X173024Y125181D01*
X171343Y124059D01*
X170221Y122378D01*
X169827Y120396D01*
X170221Y118414D01*
X171343Y116734D01*
X173024Y115611D01*
X175006Y115217D01*
X176988Y115611D01*
X178668Y116734D01*
X179791Y118414D01*
X180186Y120396D01*
X179791Y122378D01*
X178668Y124059D01*
X176988Y125181D01*
X175006Y125576D01*
D02*
G37*
G36*
X133604D02*
X131622Y125181D01*
X129942Y124059D01*
X128819Y122378D01*
X128425Y120396D01*
X128819Y118414D01*
X129942Y116734D01*
X131622Y115611D01*
X133604Y115217D01*
X135586Y115611D01*
X137267Y116734D01*
X138389Y118414D01*
X138784Y120396D01*
X138389Y122378D01*
X137267Y124059D01*
X135586Y125181D01*
X133604Y125576D01*
D02*
G37*
G36*
X45059Y116840D02*
X41402D01*
Y113183D01*
X42114Y113325D01*
X43794Y114447D01*
X44917Y116128D01*
X45059Y116840D01*
D02*
G37*
G36*
X38862D02*
X35205D01*
X35347Y116128D01*
X36470Y114447D01*
X38150Y113325D01*
X38862Y113183D01*
Y116840D01*
D02*
G37*
G36*
X747115Y116078D02*
X743458D01*
Y112421D01*
X744170Y112563D01*
X745851Y113686D01*
X746973Y115366D01*
X747115Y116078D01*
D02*
G37*
G36*
X740918D02*
X737261D01*
X737403Y115366D01*
X738525Y113686D01*
X740206Y112563D01*
X740918Y112421D01*
Y116078D01*
D02*
G37*
G36*
X185928Y118972D02*
X183946Y118577D01*
X182265Y117455D01*
X181143Y115774D01*
X180749Y113792D01*
X181143Y111810D01*
X182265Y110129D01*
X183946Y109007D01*
X185928Y108612D01*
X187910Y109007D01*
X189590Y110129D01*
X190713Y111810D01*
X191108Y113792D01*
X190713Y115774D01*
X189590Y117455D01*
X187910Y118577D01*
X185928Y118972D01*
D02*
G37*
G36*
X164592Y118717D02*
X162610Y118323D01*
X160930Y117200D01*
X159807Y115520D01*
X159412Y113538D01*
X159807Y111556D01*
X160930Y109875D01*
X162610Y108753D01*
X164592Y108358D01*
X166574Y108753D01*
X168255Y109875D01*
X169377Y111556D01*
X169771Y113538D01*
X169377Y115520D01*
X168255Y117200D01*
X166574Y118323D01*
X164592Y118717D01*
D02*
G37*
G36*
X502412Y118463D02*
X500430Y118069D01*
X498750Y116946D01*
X497627Y115266D01*
X497233Y113284D01*
X497627Y111302D01*
X498750Y109621D01*
X500430Y108499D01*
X502412Y108104D01*
X504394Y108499D01*
X506074Y109621D01*
X507197Y111302D01*
X507592Y113284D01*
X507197Y115266D01*
X506074Y116946D01*
X504394Y118069D01*
X502412Y118463D01*
D02*
G37*
G36*
X697230Y117569D02*
X695248Y117174D01*
X693568Y116052D01*
X692445Y114371D01*
X692050Y112389D01*
X692445Y110407D01*
X693568Y108727D01*
X695248Y107604D01*
X697230Y107210D01*
X699212Y107604D01*
X700892Y108727D01*
X702015Y110407D01*
X702410Y112389D01*
X702015Y114371D01*
X700892Y116052D01*
X699212Y117174D01*
X697230Y117569D01*
D02*
G37*
G36*
X33843Y110083D02*
Y106426D01*
X37500D01*
X37358Y107138D01*
X36235Y108819D01*
X34555Y109941D01*
X33843Y110083D01*
D02*
G37*
G36*
X31303D02*
X30591Y109941D01*
X28911Y108819D01*
X27788Y107138D01*
X27646Y106426D01*
X31303D01*
Y110083D01*
D02*
G37*
G36*
X51308Y109829D02*
Y106172D01*
X54965D01*
X54823Y106884D01*
X53700Y108565D01*
X52020Y109687D01*
X51308Y109829D01*
D02*
G37*
G36*
X48768D02*
X48056Y109687D01*
X46375Y108565D01*
X45253Y106884D01*
X45111Y106172D01*
X48768D01*
Y109829D01*
D02*
G37*
G36*
X113466Y109575D02*
Y105918D01*
X117123D01*
X116982Y106630D01*
X115859Y108310D01*
X114178Y109433D01*
X113466Y109575D01*
D02*
G37*
G36*
X110926D02*
X110214Y109433D01*
X108534Y108310D01*
X107411Y106630D01*
X107269Y105918D01*
X110926D01*
Y109575D01*
D02*
G37*
G36*
X68773D02*
Y105918D01*
X72430D01*
X72288Y106630D01*
X71165Y108310D01*
X69485Y109433D01*
X68773Y109575D01*
D02*
G37*
G36*
X66233D02*
X65521Y109433D01*
X63840Y108310D01*
X62718Y106630D01*
X62576Y105918D01*
X66233D01*
Y109575D01*
D02*
G37*
G36*
X751017Y109321D02*
Y105664D01*
X754674D01*
X754532Y106376D01*
X753409Y108056D01*
X751729Y109179D01*
X751017Y109321D01*
D02*
G37*
G36*
X748477D02*
X747765Y109179D01*
X746085Y108056D01*
X744962Y106376D01*
X744820Y105664D01*
X748477D01*
Y109321D01*
D02*
G37*
G36*
X613664Y114399D02*
X611682Y114005D01*
X610001Y112882D01*
X608879Y111202D01*
X608484Y109220D01*
X608879Y107238D01*
X610001Y105557D01*
X611682Y104435D01*
X613664Y104040D01*
X615646Y104435D01*
X617327Y105557D01*
X618449Y107238D01*
X618843Y109220D01*
X618449Y111202D01*
X617327Y112882D01*
X615646Y114005D01*
X613664Y114399D01*
D02*
G37*
G36*
X175514Y112875D02*
X173532Y112481D01*
X171852Y111358D01*
X170729Y109678D01*
X170334Y107696D01*
X170729Y105714D01*
X171852Y104033D01*
X173532Y102911D01*
X175514Y102516D01*
X177496Y102911D01*
X179177Y104033D01*
X180299Y105714D01*
X180693Y107696D01*
X180299Y109678D01*
X179177Y111358D01*
X177496Y112481D01*
X175514Y112875D01*
D02*
G37*
G36*
X154178Y112621D02*
X152196Y112227D01*
X150515Y111104D01*
X149393Y109424D01*
X148998Y107442D01*
X149393Y105460D01*
X150515Y103779D01*
X152196Y102657D01*
X154178Y102262D01*
X156160Y102657D01*
X157840Y103779D01*
X158963Y105460D01*
X159358Y107442D01*
X158963Y109424D01*
X157840Y111104D01*
X156160Y112227D01*
X154178Y112621D01*
D02*
G37*
G36*
X134112D02*
X132130Y112227D01*
X130449Y111104D01*
X129327Y109424D01*
X128933Y107442D01*
X129327Y105460D01*
X130449Y103779D01*
X132130Y102657D01*
X134112Y102262D01*
X136094Y102657D01*
X137774Y103779D01*
X138897Y105460D01*
X139291Y107442D01*
X138897Y109424D01*
X137774Y111104D01*
X136094Y112227D01*
X134112Y112621D01*
D02*
G37*
G36*
X37500Y103886D02*
X33843D01*
Y100229D01*
X34555Y100371D01*
X36235Y101494D01*
X37358Y103174D01*
X37500Y103886D01*
D02*
G37*
G36*
X31303D02*
X27646D01*
X27788Y103174D01*
X28911Y101494D01*
X30591Y100371D01*
X31303Y100229D01*
Y103886D01*
D02*
G37*
G36*
X54965Y103632D02*
X51308D01*
Y99975D01*
X52020Y100117D01*
X53700Y101240D01*
X54823Y102920D01*
X54965Y103632D01*
D02*
G37*
G36*
X48768D02*
X45111D01*
X45253Y102920D01*
X46375Y101240D01*
X48056Y100117D01*
X48768Y99975D01*
Y103632D01*
D02*
G37*
G36*
X117123Y103378D02*
X113466D01*
Y99721D01*
X114178Y99863D01*
X115859Y100985D01*
X116982Y102666D01*
X117123Y103378D01*
D02*
G37*
G36*
X110926D02*
X107269D01*
X107411Y102666D01*
X108534Y100985D01*
X110214Y99863D01*
X110926Y99721D01*
Y103378D01*
D02*
G37*
G36*
X72430D02*
X68773D01*
Y99721D01*
X69485Y99863D01*
X71165Y100985D01*
X72288Y102666D01*
X72430Y103378D01*
D02*
G37*
G36*
X66233D02*
X62576D01*
X62718Y102666D01*
X63840Y100985D01*
X65521Y99863D01*
X66233Y99721D01*
Y103378D01*
D02*
G37*
G36*
X754674Y103124D02*
X751017D01*
Y99467D01*
X751729Y99609D01*
X753409Y100731D01*
X754532Y102412D01*
X754674Y103124D01*
D02*
G37*
G36*
X748477D02*
X744820D01*
X744962Y102412D01*
X746085Y100731D01*
X747765Y99609D01*
X748477Y99467D01*
Y103124D01*
D02*
G37*
G36*
X473964Y98707D02*
Y95050D01*
X477621D01*
X477479Y95762D01*
X476357Y97443D01*
X474676Y98565D01*
X473964Y98707D01*
D02*
G37*
G36*
X471424D02*
X470712Y98565D01*
X469031Y97443D01*
X467909Y95762D01*
X467767Y95050D01*
X471424D01*
Y98707D01*
D02*
G37*
G36*
X556260Y103986D02*
X554278Y103591D01*
X552598Y102469D01*
X551475Y100788D01*
X551081Y98806D01*
X551475Y96824D01*
X552598Y95143D01*
X554278Y94021D01*
X556260Y93626D01*
X558242Y94021D01*
X559922Y95143D01*
X561045Y96824D01*
X561440Y98806D01*
X561045Y100788D01*
X559922Y102469D01*
X558242Y103591D01*
X556260Y103986D01*
D02*
G37*
G36*
X530606Y103223D02*
X528624Y102829D01*
X526944Y101706D01*
X525821Y100026D01*
X525426Y98044D01*
X525821Y96062D01*
X526944Y94382D01*
X528624Y93259D01*
X530606Y92865D01*
X532588Y93259D01*
X534268Y94382D01*
X535391Y96062D01*
X535785Y98044D01*
X535391Y100026D01*
X534268Y101706D01*
X532588Y102829D01*
X530606Y103223D01*
D02*
G37*
G36*
X758576Y96367D02*
Y92710D01*
X762233D01*
X762091Y93422D01*
X760968Y95103D01*
X759288Y96225D01*
X758576Y96367D01*
D02*
G37*
G36*
X756036D02*
X755324Y96225D01*
X753643Y95103D01*
X752521Y93422D01*
X752379Y92710D01*
X756036D01*
Y96367D01*
D02*
G37*
G36*
X411480D02*
Y92710D01*
X415137D01*
X414995Y93422D01*
X413872Y95103D01*
X412192Y96225D01*
X411480Y96367D01*
D02*
G37*
G36*
X408940D02*
X408228Y96225D01*
X406548Y95103D01*
X405425Y93422D01*
X405283Y92710D01*
X408940D01*
Y96367D01*
D02*
G37*
G36*
X569976Y102970D02*
X567994Y102575D01*
X566314Y101453D01*
X565191Y99772D01*
X564796Y97790D01*
X565191Y95808D01*
X566314Y94128D01*
X567994Y93005D01*
X569976Y92611D01*
X571958Y93005D01*
X573638Y94128D01*
X574761Y95808D01*
X575155Y97790D01*
X574761Y99772D01*
X573638Y101453D01*
X571958Y102575D01*
X569976Y102970D01*
D02*
G37*
G36*
X543402Y102716D02*
X541420Y102321D01*
X539739Y101199D01*
X538617Y99518D01*
X538223Y97536D01*
X538617Y95554D01*
X539739Y93874D01*
X541420Y92751D01*
X543402Y92357D01*
X545384Y92751D01*
X547065Y93874D01*
X548187Y95554D01*
X548582Y97536D01*
X548187Y99518D01*
X547065Y101199D01*
X545384Y102321D01*
X543402Y102716D01*
D02*
G37*
G36*
X582930Y101699D02*
X580948Y101305D01*
X579268Y100183D01*
X578145Y98502D01*
X577751Y96520D01*
X578145Y94538D01*
X579268Y92858D01*
X580948Y91735D01*
X582930Y91341D01*
X584912Y91735D01*
X586592Y92858D01*
X587715Y94538D01*
X588110Y96520D01*
X587715Y98502D01*
X586592Y100183D01*
X584912Y101305D01*
X582930Y101699D01*
D02*
G37*
G36*
X113792Y92419D02*
Y88762D01*
X117449D01*
X117307Y89474D01*
X116185Y91154D01*
X114504Y92277D01*
X113792Y92419D01*
D02*
G37*
G36*
X111252D02*
X110540Y92277D01*
X108860Y91154D01*
X107737Y89474D01*
X107595Y88762D01*
X111252D01*
Y92419D01*
D02*
G37*
G36*
X317500Y91793D02*
X315518Y91399D01*
X313838Y90276D01*
X312715Y88596D01*
X312459Y87310D01*
X312432Y87177D01*
X311138D01*
X311111Y87310D01*
X310855Y88596D01*
X309732Y90276D01*
X308052Y91399D01*
X306070Y91793D01*
X304088Y91399D01*
X302407Y90276D01*
X301285Y88596D01*
X300891Y86614D01*
X301285Y84632D01*
X302407Y82951D01*
X304088Y81829D01*
X306070Y81434D01*
X306762Y81572D01*
X307526Y80429D01*
X306873Y79452D01*
X306479Y77470D01*
X306873Y75488D01*
X307409Y74686D01*
X307083Y74020D01*
X306689Y73477D01*
X304850Y73111D01*
X303169Y71989D01*
X302047Y70308D01*
X301653Y68326D01*
X302047Y66344D01*
X303169Y64664D01*
X304850Y63541D01*
X306832Y63147D01*
X307168Y63213D01*
X307864Y62057D01*
X307495Y60198D01*
X307889Y58216D01*
X309011Y56536D01*
X310692Y55413D01*
X312674Y55019D01*
X314656Y55413D01*
X316336Y56536D01*
X317459Y58216D01*
X317854Y60198D01*
X317459Y62180D01*
X317355Y62337D01*
X318118Y63480D01*
X318516Y63401D01*
X320498Y63795D01*
X322178Y64917D01*
X323301Y66598D01*
X323695Y68580D01*
X323301Y70562D01*
X322178Y72242D01*
X320498Y73365D01*
X318516Y73759D01*
X316555Y73369D01*
X316483Y73420D01*
X315652Y74303D01*
X316443Y75488D01*
X316838Y77470D01*
X316443Y79452D01*
X315751Y80487D01*
X316515Y81630D01*
X317500Y81434D01*
X319482Y81829D01*
X321162Y82951D01*
X322285Y84632D01*
X322679Y86614D01*
X322285Y88596D01*
X321162Y90276D01*
X319482Y91399D01*
X317500Y91793D01*
D02*
G37*
G36*
X762233Y90170D02*
X758576D01*
Y86513D01*
X759288Y86655D01*
X760968Y87778D01*
X762091Y89458D01*
X762233Y90170D01*
D02*
G37*
G36*
X756036D02*
X752379D01*
X752521Y89458D01*
X753643Y87778D01*
X755324Y86655D01*
X756036Y86513D01*
Y90170D01*
D02*
G37*
G36*
X477621Y92510D02*
X467767D01*
X467909Y91798D01*
X469031Y90118D01*
X470047Y89439D01*
X470712Y88995D01*
X470370Y87812D01*
X469941Y87169D01*
X469799Y86457D01*
X479653D01*
X479511Y87169D01*
X478388Y88849D01*
X477374Y89528D01*
X476708Y89972D01*
X477050Y91155D01*
X477479Y91798D01*
X477621Y92510D01*
D02*
G37*
G36*
X267970Y86715D02*
X267258Y86573D01*
X265578Y85450D01*
X265176Y84850D01*
X263906D01*
X263505Y85450D01*
X261824Y86573D01*
X261112Y86715D01*
Y81788D01*
X259842D01*
Y80518D01*
X254915D01*
X255057Y79806D01*
X256180Y78126D01*
X257860Y77003D01*
X259666Y76644D01*
X260056Y75974D01*
X260251Y75395D01*
X259412Y74141D01*
X259274Y73444D01*
X269046D01*
X268908Y74141D01*
X267953Y75570D01*
X267970Y75609D01*
Y81788D01*
Y86715D01*
D02*
G37*
G36*
X605536Y93826D02*
X603554Y93431D01*
X601874Y92309D01*
X600751Y90628D01*
X600356Y88646D01*
X600751Y86664D01*
X601874Y84984D01*
X603554Y83861D01*
X605536Y83467D01*
X607518Y83861D01*
X609198Y84984D01*
X610321Y86664D01*
X610715Y88646D01*
X610321Y90628D01*
X609198Y92309D01*
X607518Y93431D01*
X605536Y93826D01*
D02*
G37*
G36*
X415137Y90170D02*
X405283D01*
X405425Y89458D01*
X406214Y88277D01*
X405760Y86892D01*
X405434Y86827D01*
X403754Y85704D01*
X402631Y84024D01*
X402489Y83312D01*
X412343D01*
X412201Y84024D01*
X411412Y85205D01*
X411866Y86590D01*
X412192Y86655D01*
X413872Y87778D01*
X414995Y89458D01*
X415137Y90170D01*
D02*
G37*
G36*
X270510Y86715D02*
Y83058D01*
X274167D01*
X274025Y83770D01*
X272903Y85450D01*
X271222Y86573D01*
X270510Y86715D01*
D02*
G37*
G36*
X258572D02*
X257860Y86573D01*
X256180Y85450D01*
X255057Y83770D01*
X254915Y83058D01*
X258572D01*
Y86715D01*
D02*
G37*
G36*
X117449Y86222D02*
X113792D01*
Y82565D01*
X114504Y82707D01*
X116185Y83829D01*
X117307Y85510D01*
X117449Y86222D01*
D02*
G37*
G36*
X111252D02*
X107595D01*
X107737Y85510D01*
X108860Y83829D01*
X110540Y82707D01*
X111252Y82565D01*
Y86222D01*
D02*
G37*
G36*
X479653Y83917D02*
X475996D01*
Y80260D01*
X476708Y80402D01*
X478388Y81524D01*
X479511Y83205D01*
X479653Y83917D01*
D02*
G37*
G36*
X473456D02*
X469799D01*
X469941Y83205D01*
X471063Y81524D01*
X472744Y80402D01*
X473456Y80260D01*
Y83917D01*
D02*
G37*
G36*
X766135Y83413D02*
Y79756D01*
X769792D01*
X769650Y80468D01*
X768527Y82149D01*
X766847Y83271D01*
X766135Y83413D01*
D02*
G37*
G36*
X763595D02*
X762883Y83271D01*
X761202Y82149D01*
X760080Y80468D01*
X759938Y79756D01*
X763595D01*
Y83413D01*
D02*
G37*
G36*
X689780Y85598D02*
X683260D01*
Y79078D01*
X689780D01*
Y85598D01*
D02*
G37*
G36*
X412343Y80772D02*
X408686D01*
Y77115D01*
X409398Y77257D01*
X411078Y78380D01*
X412201Y80060D01*
X412343Y80772D01*
D02*
G37*
G36*
X406146D02*
X402489D01*
X402631Y80060D01*
X403754Y78380D01*
X405434Y77257D01*
X406146Y77115D01*
Y80772D01*
D02*
G37*
G36*
X274167Y80518D02*
X270510D01*
Y76861D01*
X271222Y77003D01*
X272903Y78126D01*
X274025Y79806D01*
X274167Y80518D01*
D02*
G37*
G36*
X769792Y77216D02*
X766135D01*
Y73559D01*
X766847Y73701D01*
X768527Y74823D01*
X769650Y76504D01*
X769792Y77216D01*
D02*
G37*
G36*
X763595D02*
X759938D01*
X760080Y76504D01*
X761202Y74823D01*
X762883Y73701D01*
X763595Y73559D01*
Y77216D01*
D02*
G37*
G36*
X113792Y76301D02*
Y72644D01*
X117449D01*
X117307Y73356D01*
X116185Y75037D01*
X114504Y76159D01*
X113792Y76301D01*
D02*
G37*
G36*
X111252D02*
X110540Y76159D01*
X108860Y75037D01*
X107737Y73356D01*
X107595Y72644D01*
X111252D01*
Y76301D01*
D02*
G37*
G36*
X180388Y73095D02*
X179676Y72953D01*
X177995Y71831D01*
X177132Y70539D01*
X177022Y70502D01*
X175831D01*
X175721Y70539D01*
X174858Y71831D01*
X173178Y72953D01*
X172466Y73095D01*
Y68168D01*
Y63241D01*
X173178Y63383D01*
X174858Y64506D01*
X175721Y65797D01*
X175831Y65834D01*
X177022D01*
X177132Y65797D01*
X177995Y64506D01*
X179676Y63383D01*
X180388Y63241D01*
Y68168D01*
Y73095D01*
D02*
G37*
G36*
X155750Y72745D02*
X155038Y72603D01*
X153357Y71480D01*
X152494Y70189D01*
X152384Y70152D01*
X151193D01*
X151083Y70189D01*
X150220Y71480D01*
X148540Y72603D01*
X147828Y72745D01*
Y67818D01*
Y62891D01*
X148540Y63033D01*
X150220Y64156D01*
X151083Y65447D01*
X151193Y65484D01*
X152384D01*
X152494Y65447D01*
X153357Y64156D01*
X155038Y63033D01*
X155750Y62891D01*
Y67818D01*
Y72745D01*
D02*
G37*
G36*
X132336Y73507D02*
Y69850D01*
X135992D01*
X135851Y70562D01*
X134728Y72242D01*
X133048Y73365D01*
X132336Y73507D01*
D02*
G37*
G36*
X129796D02*
X129083Y73365D01*
X127403Y72242D01*
X126280Y70562D01*
X126139Y69850D01*
X129796D01*
Y73507D01*
D02*
G37*
G36*
X182928Y73095D02*
Y69438D01*
X186585D01*
X186443Y70150D01*
X185320Y71831D01*
X183640Y72953D01*
X182928Y73095D01*
D02*
G37*
G36*
X169926D02*
X169214Y72953D01*
X167533Y71831D01*
X166411Y70150D01*
X166269Y69438D01*
X169926D01*
Y73095D01*
D02*
G37*
G36*
X158290Y72745D02*
Y69088D01*
X161947D01*
X161805Y69800D01*
X160682Y71480D01*
X159002Y72603D01*
X158290Y72745D01*
D02*
G37*
G36*
X145288D02*
X144576Y72603D01*
X142895Y71480D01*
X141773Y69800D01*
X141631Y69088D01*
X145288D01*
Y72745D01*
D02*
G37*
G36*
X356870Y71144D02*
Y67487D01*
X360527D01*
X360385Y68199D01*
X359263Y69879D01*
X357582Y71002D01*
X356870Y71144D01*
D02*
G37*
G36*
X354330D02*
X353618Y71002D01*
X351937Y69879D01*
X350815Y68199D01*
X350673Y67487D01*
X354330D01*
Y71144D01*
D02*
G37*
G36*
X773694Y70459D02*
Y66802D01*
X777351D01*
X777209Y67514D01*
X776086Y69194D01*
X774406Y70317D01*
X773694Y70459D01*
D02*
G37*
G36*
X771154D02*
X770442Y70317D01*
X768761Y69194D01*
X767638Y67514D01*
X767497Y66802D01*
X771154D01*
Y70459D01*
D02*
G37*
G36*
X117449Y70104D02*
X113792D01*
Y66447D01*
X114504Y66589D01*
X116185Y67712D01*
X117307Y69392D01*
X117449Y70104D01*
D02*
G37*
G36*
X111252D02*
X107595D01*
X107737Y69392D01*
X108860Y67712D01*
X110540Y66589D01*
X111252Y66447D01*
Y70104D01*
D02*
G37*
G36*
X426972Y76300D02*
X424990Y75905D01*
X423310Y74783D01*
X422187Y73102D01*
X421792Y71120D01*
X422187Y69138D01*
X423310Y67457D01*
X424990Y66335D01*
X426972Y65940D01*
X428954Y66335D01*
X430634Y67457D01*
X431757Y69138D01*
X432151Y71120D01*
X431757Y73102D01*
X430634Y74783D01*
X428954Y75905D01*
X426972Y76300D01*
D02*
G37*
G36*
X269046Y70904D02*
X259274D01*
X259412Y70208D01*
X260159Y69090D01*
X260422Y68174D01*
X260159Y67258D01*
X259412Y66140D01*
X259274Y65444D01*
X269046D01*
X268908Y66140D01*
X268161Y67258D01*
X267899Y68174D01*
X268161Y69090D01*
X268908Y70208D01*
X269046Y70904D01*
D02*
G37*
G36*
X135992Y67310D02*
X132336D01*
Y63653D01*
X133048Y63795D01*
X134728Y64917D01*
X135851Y66598D01*
X135992Y67310D01*
D02*
G37*
G36*
X129796D02*
X126139D01*
X126280Y66598D01*
X127403Y64917D01*
X129083Y63795D01*
X129796Y63653D01*
Y67310D01*
D02*
G37*
G36*
X186585Y66898D02*
X182928D01*
Y63241D01*
X183640Y63383D01*
X185320Y64506D01*
X186443Y66186D01*
X186585Y66898D01*
D02*
G37*
G36*
X169926D02*
X166269D01*
X166411Y66186D01*
X167533Y64506D01*
X169214Y63383D01*
X169926Y63241D01*
Y66898D01*
D02*
G37*
G36*
X161947Y66548D02*
X158290D01*
Y62891D01*
X159002Y63033D01*
X160682Y64156D01*
X161805Y65836D01*
X161947Y66548D01*
D02*
G37*
G36*
X145288D02*
X141631D01*
X141773Y65836D01*
X142895Y64156D01*
X144576Y63033D01*
X145288Y62891D01*
Y66548D01*
D02*
G37*
G36*
X732536Y65633D02*
Y61976D01*
X736193D01*
X736051Y62688D01*
X734929Y64369D01*
X733248Y65491D01*
X732536Y65633D01*
D02*
G37*
G36*
X729996D02*
X729284Y65491D01*
X727604Y64369D01*
X726481Y62688D01*
X726339Y61976D01*
X729996D01*
Y65633D01*
D02*
G37*
G36*
X360527Y64947D02*
X356870D01*
Y61290D01*
X357582Y61431D01*
X359263Y62554D01*
X360385Y64235D01*
X360527Y64947D01*
D02*
G37*
G36*
X354330D02*
X350673D01*
X350815Y64235D01*
X351937Y62554D01*
X353618Y61431D01*
X354330Y61290D01*
Y64947D01*
D02*
G37*
G36*
X777351Y64262D02*
X773694D01*
Y60605D01*
X774406Y60747D01*
X776086Y61870D01*
X777209Y63550D01*
X777351Y64262D01*
D02*
G37*
G36*
X771154D02*
X767497D01*
X767638Y63550D01*
X768761Y61870D01*
X770442Y60747D01*
X771154Y60605D01*
Y64262D01*
D02*
G37*
G36*
X189992Y63163D02*
Y59506D01*
X193649D01*
X193507Y60218D01*
X192384Y61898D01*
X190704Y63021D01*
X189992Y63163D01*
D02*
G37*
G36*
X187452D02*
X186740Y63021D01*
X185060Y61898D01*
X183937Y60218D01*
X183795Y59506D01*
X187452D01*
Y63163D01*
D02*
G37*
G36*
X269046Y62904D02*
X265430D01*
Y59288D01*
X266126Y59426D01*
X267794Y60540D01*
X268908Y62207D01*
X269046Y62904D01*
D02*
G37*
G36*
X262890D02*
X259274D01*
X259412Y62207D01*
X260526Y60540D01*
X262194Y59426D01*
X262890Y59288D01*
Y62904D01*
D02*
G37*
G36*
X165354Y62306D02*
Y58649D01*
X169011D01*
X168869Y59361D01*
X167747Y61042D01*
X166066Y62164D01*
X165354Y62306D01*
D02*
G37*
G36*
X162814D02*
X162102Y62164D01*
X160422Y61042D01*
X159299Y59361D01*
X159157Y58649D01*
X162814D01*
Y62306D01*
D02*
G37*
G36*
X140716Y61956D02*
Y58299D01*
X144373D01*
X144231Y59011D01*
X143109Y60691D01*
X141428Y61814D01*
X140716Y61956D01*
D02*
G37*
G36*
X138176D02*
X137464Y61814D01*
X135784Y60691D01*
X134661Y59011D01*
X134519Y58299D01*
X138176D01*
Y61956D01*
D02*
G37*
G36*
X658622Y61681D02*
Y58024D01*
X662279D01*
X662137Y58736D01*
X661014Y60416D01*
X659334Y61539D01*
X658622Y61681D01*
D02*
G37*
G36*
X656082D02*
X655370Y61539D01*
X653689Y60416D01*
X652567Y58736D01*
X652425Y58024D01*
X656082D01*
Y61681D01*
D02*
G37*
G36*
X114046Y60045D02*
Y56388D01*
X117703D01*
X117561Y57100D01*
X116439Y58780D01*
X114758Y59903D01*
X114046Y60045D01*
D02*
G37*
G36*
X111506D02*
X110794Y59903D01*
X109114Y58780D01*
X107991Y57100D01*
X107849Y56388D01*
X111506D01*
Y60045D01*
D02*
G37*
G36*
X736193Y59436D02*
X732536D01*
Y55779D01*
X733248Y55921D01*
X734929Y57043D01*
X736051Y58724D01*
X736193Y59436D01*
D02*
G37*
G36*
X729996D02*
X726339D01*
X726481Y58724D01*
X727604Y57043D01*
X729284Y55921D01*
X729996Y55779D01*
Y59436D01*
D02*
G37*
G36*
X267208Y58013D02*
X266496Y57871D01*
X264816Y56748D01*
X264077Y55643D01*
X262597Y55572D01*
X261980Y56494D01*
X260300Y57617D01*
X259588Y57759D01*
Y52832D01*
X258318D01*
Y51562D01*
X253391D01*
X253533Y50850D01*
X254655Y49170D01*
X256336Y48047D01*
X257800Y47755D01*
X258467Y46878D01*
X258557Y46409D01*
X258471Y45974D01*
X263398D01*
Y43434D01*
X258471D01*
X258613Y42722D01*
X258773Y42481D01*
X258189Y41070D01*
X257098Y40853D01*
X255417Y39731D01*
X254295Y38050D01*
X254153Y37338D01*
X259080D01*
Y36068D01*
X260350D01*
Y31141D01*
X261062Y31283D01*
X262743Y32406D01*
X263865Y34086D01*
X264046Y34994D01*
X265341D01*
X265471Y34340D01*
X266593Y32659D01*
X267887Y31795D01*
X267412Y30693D01*
X266700Y30835D01*
Y25908D01*
Y20360D01*
X267157Y19777D01*
X267107Y19525D01*
X276961D01*
X276859Y20040D01*
X276859Y20297D01*
X277583Y21380D01*
X278842Y21631D01*
X280522Y22754D01*
X281645Y24434D01*
X281787Y25146D01*
X276860D01*
Y26416D01*
X275590D01*
Y31343D01*
X274878Y31201D01*
X273197Y30078D01*
X272075Y28398D01*
X271771Y26869D01*
X271742Y26725D01*
X270447D01*
X270428Y26820D01*
X270215Y27890D01*
X269093Y29571D01*
X267799Y30435D01*
X268274Y31537D01*
X268986Y31395D01*
Y36322D01*
X270256D01*
Y37592D01*
X275183D01*
X275041Y38304D01*
X274506Y39105D01*
X275082Y39966D01*
Y45212D01*
Y50139D01*
X274370Y49997D01*
X273794Y49613D01*
X272879Y50528D01*
X273263Y51104D01*
X273405Y51816D01*
X268478D01*
Y53086D01*
X267208D01*
Y58013D01*
D02*
G37*
G36*
X269748D02*
Y54356D01*
X273405D01*
X273263Y55068D01*
X272141Y56748D01*
X270460Y57871D01*
X269748Y58013D01*
D02*
G37*
G36*
X257048Y57759D02*
X256336Y57617D01*
X254655Y56494D01*
X253533Y54814D01*
X253391Y54102D01*
X257048D01*
Y57759D01*
D02*
G37*
G36*
X781253Y57505D02*
Y53848D01*
X784910D01*
X784768Y54560D01*
X783645Y56241D01*
X781965Y57363D01*
X781253Y57505D01*
D02*
G37*
G36*
X778713D02*
X778001Y57363D01*
X776320Y56241D01*
X775197Y54560D01*
X775056Y53848D01*
X778713D01*
Y57505D01*
D02*
G37*
G36*
X340614Y63666D02*
X338632Y63271D01*
X336951Y62148D01*
X335829Y60468D01*
X335434Y58486D01*
X335829Y56504D01*
X336951Y54824D01*
X338632Y53701D01*
X340614Y53306D01*
X342596Y53701D01*
X344277Y54824D01*
X345399Y56504D01*
X345793Y58486D01*
X345399Y60468D01*
X344277Y62148D01*
X342596Y63271D01*
X340614Y63666D01*
D02*
G37*
G36*
X417636Y54735D02*
X415377Y54286D01*
X413636Y53123D01*
X411895Y54286D01*
X409636Y54735D01*
X407377Y54286D01*
X405636Y53123D01*
X403895Y54286D01*
X401636Y54735D01*
X399377Y54286D01*
X397636Y53123D01*
X395895Y54286D01*
X393636Y54735D01*
X391377Y54286D01*
X389636Y53123D01*
X387895Y54286D01*
X385636Y54735D01*
X383377Y54286D01*
X381636Y53123D01*
X379895Y54286D01*
X377636Y54735D01*
X375377Y54286D01*
X373636Y53123D01*
X371895Y54286D01*
X369636Y54735D01*
X367377Y54286D01*
X365636Y53123D01*
X363895Y54286D01*
X362906Y54483D01*
Y48832D01*
X361636D01*
Y47562D01*
X355985D01*
X356182Y46573D01*
X357462Y44658D01*
X359377Y43378D01*
X360015Y43251D01*
X359733Y41832D01*
X360182Y39573D01*
X361462Y37658D01*
X363377Y36378D01*
X365636Y35929D01*
X367895Y36378D01*
X369636Y37541D01*
X371377Y36378D01*
X373636Y35929D01*
X375895Y36378D01*
X377636Y37541D01*
X379377Y36378D01*
X381636Y35929D01*
X383895Y36378D01*
X385810Y37658D01*
X387090Y39573D01*
X387539Y41832D01*
X387257Y43251D01*
X387895Y43378D01*
X389636Y44541D01*
X391377Y43378D01*
X392015Y43251D01*
X391732Y41832D01*
X392182Y39573D01*
X393462Y37658D01*
X395377Y36378D01*
X397636Y35929D01*
X399895Y36378D01*
X401636Y37541D01*
X403377Y36378D01*
X405636Y35929D01*
X407895Y36378D01*
X409636Y37541D01*
X411377Y36378D01*
X413636Y35929D01*
X415895Y36378D01*
X417810Y37658D01*
X419090Y39573D01*
X419539Y41832D01*
X419257Y43251D01*
X419895Y43378D01*
X421810Y44658D01*
X423090Y46573D01*
X423539Y48832D01*
X423090Y51091D01*
X421810Y53006D01*
X419895Y54286D01*
X417636Y54735D01*
D02*
G37*
G36*
X473456Y56489D02*
Y52832D01*
X477113D01*
X476971Y53544D01*
X475849Y55224D01*
X474168Y56347D01*
X473456Y56489D01*
D02*
G37*
G36*
X470916D02*
X470204Y56347D01*
X468523Y55224D01*
X467401Y53544D01*
X467259Y52832D01*
X470916D01*
Y56489D01*
D02*
G37*
G36*
X169011Y56109D02*
X165354D01*
Y52452D01*
X166066Y52594D01*
X167747Y53717D01*
X168869Y55397D01*
X169011Y56109D01*
D02*
G37*
G36*
X162814D02*
X159157D01*
X159299Y55397D01*
X160422Y53717D01*
X162102Y52594D01*
X162814Y52452D01*
Y56109D01*
D02*
G37*
G36*
X144373Y55759D02*
X140716D01*
Y52102D01*
X141428Y52244D01*
X143109Y53367D01*
X144231Y55047D01*
X144373Y55759D01*
D02*
G37*
G36*
X138176D02*
X134519D01*
X134661Y55047D01*
X135784Y53367D01*
X137464Y52244D01*
X138176Y52102D01*
Y55759D01*
D02*
G37*
G36*
X526830Y62330D02*
X524848Y61935D01*
X523168Y60813D01*
X522045Y59132D01*
X521651Y57150D01*
X522045Y55168D01*
X523168Y53488D01*
X524848Y52365D01*
X526830Y51971D01*
X528812Y52365D01*
X530493Y53488D01*
X531615Y55168D01*
X532010Y57150D01*
X531615Y59132D01*
X530493Y60813D01*
X528812Y61935D01*
X526830Y62330D01*
D02*
G37*
G36*
X117703Y53848D02*
X114046D01*
Y50191D01*
X114758Y50333D01*
X116439Y51455D01*
X117561Y53136D01*
X117703Y53848D01*
D02*
G37*
G36*
X111506D02*
X107849D01*
X107991Y53136D01*
X109114Y51455D01*
X110794Y50333D01*
X111506Y50191D01*
Y53848D01*
D02*
G37*
G36*
X360366Y54483D02*
X359377Y54286D01*
X357462Y53006D01*
X356182Y51091D01*
X355985Y50102D01*
X360366D01*
Y54483D01*
D02*
G37*
G36*
X193649Y56966D02*
X183795D01*
X183937Y56254D01*
X185060Y54573D01*
X186740Y53451D01*
X188296Y53141D01*
X188885Y52124D01*
X188939Y51817D01*
X188269Y50814D01*
X188127Y50102D01*
X197981D01*
X197840Y50814D01*
X196717Y52495D01*
X195036Y53617D01*
X193480Y53927D01*
X192891Y54944D01*
X192837Y55251D01*
X193507Y56254D01*
X193649Y56966D01*
D02*
G37*
G36*
X177546Y52679D02*
Y49022D01*
X181203D01*
X181061Y49734D01*
X179939Y51414D01*
X178258Y52537D01*
X177546Y52679D01*
D02*
G37*
G36*
X175006D02*
X174294Y52537D01*
X172614Y51414D01*
X171491Y49734D01*
X171349Y49022D01*
X175006D01*
Y52679D01*
D02*
G37*
G36*
X152400D02*
Y49022D01*
X156057D01*
X155915Y49734D01*
X154792Y51414D01*
X153112Y52537D01*
X152400Y52679D01*
D02*
G37*
G36*
X149860D02*
X149148Y52537D01*
X147467Y51414D01*
X146345Y49734D01*
X146203Y49022D01*
X149860D01*
Y52679D01*
D02*
G37*
G36*
X662279Y55484D02*
X652425D01*
X652567Y54772D01*
X653689Y53092D01*
X654689Y52424D01*
X654702Y50905D01*
X653943Y50399D01*
X652821Y48718D01*
X652679Y48006D01*
X662533D01*
X662391Y48718D01*
X661268Y50399D01*
X660269Y51066D01*
X660256Y52585D01*
X661014Y53092D01*
X662137Y54772D01*
X662279Y55484D01*
D02*
G37*
G36*
X784910Y51308D02*
X781253D01*
Y47651D01*
X781965Y47793D01*
X783645Y48916D01*
X784768Y50596D01*
X784910Y51308D01*
D02*
G37*
G36*
X778713D02*
X775056D01*
X775197Y50596D01*
X776320Y48916D01*
X778001Y47793D01*
X778713Y47651D01*
Y51308D01*
D02*
G37*
G36*
X470916Y50292D02*
X467259D01*
X467401Y49580D01*
X468523Y47899D01*
X470204Y46777D01*
X470916Y46635D01*
Y50292D01*
D02*
G37*
G36*
X277622Y50139D02*
Y46482D01*
X281279D01*
X281137Y47194D01*
X280014Y48875D01*
X278334Y49997D01*
X277622Y50139D01*
D02*
G37*
G36*
X579120Y61568D02*
X577138Y61173D01*
X575457Y60051D01*
X574335Y58370D01*
X573941Y56388D01*
X574335Y54406D01*
X575457Y52726D01*
X577138Y51603D01*
X579120Y51209D01*
X581102Y51603D01*
X582783Y52726D01*
X583905Y54406D01*
X584027Y55020D01*
X585322D01*
X585511Y54072D01*
X586633Y52392D01*
X588314Y51269D01*
X589021Y51128D01*
Y49833D01*
X588568Y49743D01*
X586888Y48621D01*
X585765Y46940D01*
X585370Y44958D01*
X585765Y42976D01*
X586888Y41295D01*
X588568Y40173D01*
X590550Y39778D01*
X592532Y40173D01*
X594212Y41295D01*
X595335Y42976D01*
X595729Y44958D01*
X595335Y46940D01*
X596400Y47600D01*
X596539Y47392D01*
X598220Y46269D01*
X600202Y45875D01*
X602184Y46269D01*
X603865Y47392D01*
X604987Y49072D01*
X605382Y51054D01*
X604987Y53036D01*
X603865Y54717D01*
X602184Y55839D01*
X600202Y56234D01*
X598220Y55839D01*
X596539Y54717D01*
X596489Y54641D01*
X595293Y55137D01*
X595476Y56054D01*
X595081Y58036D01*
X593959Y59717D01*
X592278Y60839D01*
X590296Y61234D01*
X588314Y60839D01*
X586633Y59717D01*
X585511Y58036D01*
X585389Y57422D01*
X584094D01*
X583905Y58370D01*
X582783Y60051D01*
X581102Y61173D01*
X579120Y61568D01*
D02*
G37*
G36*
X481838Y48909D02*
Y45252D01*
X485495D01*
X485353Y45964D01*
X484230Y47645D01*
X482550Y48767D01*
X481838Y48909D01*
D02*
G37*
G36*
X477113Y50292D02*
X473456D01*
Y46635D01*
X474168Y46777D01*
X475307Y47537D01*
X476222Y46622D01*
X475783Y45964D01*
X475641Y45252D01*
X479298D01*
Y48909D01*
X478586Y48767D01*
X477447Y48007D01*
X476532Y48922D01*
X476971Y49580D01*
X477113Y50292D01*
D02*
G37*
G36*
X197981Y47562D02*
X194324D01*
Y43905D01*
X195036Y44047D01*
X196717Y45170D01*
X197840Y46850D01*
X197981Y47562D01*
D02*
G37*
G36*
X191784D02*
X188127D01*
X188269Y46850D01*
X189392Y45170D01*
X191072Y44047D01*
X191784Y43905D01*
Y47562D01*
D02*
G37*
G36*
X680974Y46583D02*
Y42926D01*
X684631D01*
X684489Y43638D01*
X683366Y45318D01*
X681686Y46441D01*
X680974Y46583D01*
D02*
G37*
G36*
X678434D02*
X677722Y46441D01*
X676041Y45318D01*
X674919Y43638D01*
X674777Y42926D01*
X678434D01*
Y46583D01*
D02*
G37*
G36*
X181203Y46482D02*
X177546D01*
Y42825D01*
X178258Y42967D01*
X179939Y44089D01*
X181061Y45770D01*
X181203Y46482D01*
D02*
G37*
G36*
X175006D02*
X171349D01*
X171491Y45770D01*
X172614Y44089D01*
X174294Y42967D01*
X175006Y42825D01*
Y46482D01*
D02*
G37*
G36*
X156057D02*
X152400D01*
Y42825D01*
X153112Y42967D01*
X154792Y44089D01*
X155915Y45770D01*
X156057Y46482D01*
D02*
G37*
G36*
X149860D02*
X146203D01*
X146345Y45770D01*
X147467Y44089D01*
X149148Y42967D01*
X149860Y42825D01*
Y46482D01*
D02*
G37*
G36*
X743204Y45821D02*
Y42164D01*
X746861D01*
X746719Y42876D01*
X745596Y44556D01*
X743916Y45679D01*
X743204Y45821D01*
D02*
G37*
G36*
X740664D02*
X739952Y45679D01*
X738271Y44556D01*
X737149Y42876D01*
X737007Y42164D01*
X740664D01*
Y45821D01*
D02*
G37*
G36*
X788812Y44551D02*
Y40894D01*
X792468D01*
X792327Y41606D01*
X791204Y43286D01*
X789524Y44409D01*
X788812Y44551D01*
D02*
G37*
G36*
X786272D02*
X785559Y44409D01*
X783879Y43286D01*
X782756Y41606D01*
X782615Y40894D01*
X786272D01*
Y44551D01*
D02*
G37*
G36*
X281279Y43942D02*
X277622D01*
Y40285D01*
X278334Y40427D01*
X280014Y41550D01*
X281137Y43230D01*
X281279Y43942D01*
D02*
G37*
G36*
X114300Y43535D02*
Y39878D01*
X117957D01*
X117815Y40590D01*
X116692Y42270D01*
X115012Y43393D01*
X114300Y43535D01*
D02*
G37*
G36*
X111760D02*
X111048Y43393D01*
X109368Y42270D01*
X108245Y40590D01*
X108103Y39878D01*
X111760D01*
Y43535D01*
D02*
G37*
G36*
X610870Y61059D02*
X608888Y60665D01*
X607207Y59542D01*
X606085Y57862D01*
X605690Y55880D01*
X606085Y53898D01*
X607207Y52217D01*
X608888Y51095D01*
X610050Y50864D01*
Y49569D01*
X609650Y49489D01*
X607970Y48366D01*
X606847Y46686D01*
X606452Y44704D01*
X606847Y42722D01*
X607970Y41041D01*
X609650Y39919D01*
X611632Y39525D01*
X613614Y39919D01*
X615294Y41041D01*
X616417Y42722D01*
X616811Y44704D01*
X616417Y46686D01*
X615294Y48366D01*
X613614Y49489D01*
X612452Y49720D01*
Y51015D01*
X612852Y51095D01*
X614533Y52217D01*
X615655Y53898D01*
X616049Y55880D01*
X615655Y57862D01*
X614533Y59542D01*
X612852Y60665D01*
X610870Y61059D01*
D02*
G37*
G36*
X485495Y42712D02*
X474945D01*
X474456Y42159D01*
X472998Y41869D01*
X471317Y40746D01*
X470195Y39066D01*
X470053Y38354D01*
X480603D01*
X481092Y38907D01*
X482550Y39197D01*
X484230Y40319D01*
X485353Y42000D01*
X485495Y42712D01*
D02*
G37*
G36*
X662533Y45466D02*
X652679D01*
X652821Y44754D01*
X653943Y43074D01*
X654859Y42462D01*
Y40934D01*
X654197Y40493D01*
X653075Y38812D01*
X652933Y38100D01*
X662787D01*
X662645Y38812D01*
X661523Y40493D01*
X660607Y41104D01*
Y42632D01*
X661268Y43074D01*
X662391Y44754D01*
X662533Y45466D01*
D02*
G37*
G36*
X684631Y40386D02*
X680974D01*
Y36729D01*
X681686Y36871D01*
X683366Y37994D01*
X684489Y39674D01*
X684631Y40386D01*
D02*
G37*
G36*
X678434D02*
X674777D01*
X674919Y39674D01*
X676041Y37994D01*
X677722Y36871D01*
X678434Y36729D01*
Y40386D01*
D02*
G37*
G36*
X600456Y43534D02*
X598474Y43139D01*
X596794Y42017D01*
X595671Y40336D01*
X595276Y38354D01*
X595519Y37137D01*
X594792Y36648D01*
X594349Y36507D01*
X592786Y37551D01*
X590804Y37945D01*
X588822Y37551D01*
X587141Y36428D01*
X586019Y34748D01*
X585625Y32766D01*
X586019Y30784D01*
X587141Y29104D01*
X588822Y27981D01*
X590804Y27587D01*
X592786Y27981D01*
X594467Y29104D01*
X595589Y30784D01*
X595984Y32766D01*
X595741Y33983D01*
X596468Y34472D01*
X596911Y34613D01*
X598474Y33569D01*
X600456Y33175D01*
X601441Y33370D01*
X602205Y32227D01*
X601513Y31192D01*
X601119Y29210D01*
X601513Y27228D01*
X602635Y25547D01*
X604316Y24425D01*
X606298Y24030D01*
X608280Y24425D01*
X609961Y25547D01*
X611083Y27228D01*
X611478Y29210D01*
X611083Y31192D01*
X609961Y32873D01*
X608280Y33995D01*
X606298Y34390D01*
X605313Y34194D01*
X604549Y35337D01*
X605241Y36372D01*
X605635Y38354D01*
X605241Y40336D01*
X604118Y42017D01*
X602438Y43139D01*
X600456Y43534D01*
D02*
G37*
G36*
X746861Y39624D02*
X743204D01*
Y35967D01*
X743916Y36109D01*
X745596Y37232D01*
X746719Y38912D01*
X746861Y39624D01*
D02*
G37*
G36*
X740664D02*
X737007D01*
X737149Y38912D01*
X738271Y37232D01*
X739952Y36109D01*
X740664Y35967D01*
Y39624D01*
D02*
G37*
G36*
X792468Y38354D02*
X788812D01*
Y34697D01*
X789524Y34839D01*
X791204Y35961D01*
X792327Y37642D01*
X792468Y38354D01*
D02*
G37*
G36*
X786272D02*
X782615D01*
X782756Y37642D01*
X783879Y35961D01*
X785559Y34839D01*
X786272Y34697D01*
Y38354D01*
D02*
G37*
G36*
X701052Y37439D02*
Y33782D01*
X704709D01*
X704567Y34494D01*
X703445Y36174D01*
X701764Y37297D01*
X701052Y37439D01*
D02*
G37*
G36*
X698512D02*
X697800Y37297D01*
X696120Y36174D01*
X694997Y34494D01*
X694855Y33782D01*
X698512D01*
Y37439D01*
D02*
G37*
G36*
X117957Y37338D02*
X114300D01*
Y33681D01*
X115012Y33823D01*
X116692Y34945D01*
X117815Y36626D01*
X117957Y37338D01*
D02*
G37*
G36*
X111760D02*
X108103D01*
X108245Y36626D01*
X109368Y34945D01*
X111048Y33823D01*
X111760Y33681D01*
Y37338D01*
D02*
G37*
G36*
X487426Y36677D02*
Y33020D01*
X491083D01*
X490941Y33732D01*
X489818Y35412D01*
X488138Y36535D01*
X487426Y36677D01*
D02*
G37*
G36*
X484886D02*
X484174Y36535D01*
X482494Y35412D01*
X481371Y33732D01*
X481229Y33020D01*
X484886D01*
Y36677D01*
D02*
G37*
G36*
X479907Y35814D02*
X476250D01*
Y32157D01*
X476962Y32299D01*
X478643Y33421D01*
X479765Y35102D01*
X479907Y35814D01*
D02*
G37*
G36*
X473710D02*
X470053D01*
X470195Y35102D01*
X471317Y33421D01*
X472998Y32299D01*
X473710Y32157D01*
Y35814D01*
D02*
G37*
G36*
X275183Y35052D02*
X271526D01*
Y31395D01*
X272238Y31537D01*
X273918Y32659D01*
X275041Y34340D01*
X275183Y35052D01*
D02*
G37*
G36*
X257810Y34798D02*
X254153D01*
X254295Y34086D01*
X255417Y32406D01*
X257098Y31283D01*
X257810Y31141D01*
Y34798D01*
D02*
G37*
G36*
X796371Y31597D02*
Y27940D01*
X800027D01*
X799886Y28652D01*
X798763Y30333D01*
X797083Y31455D01*
X796371Y31597D01*
D02*
G37*
G36*
X793831D02*
X793119Y31455D01*
X791438Y30333D01*
X790315Y28652D01*
X790174Y27940D01*
X793831D01*
Y31597D01*
D02*
G37*
G36*
X278130Y31343D02*
Y27686D01*
X281787D01*
X281645Y28398D01*
X280522Y30078D01*
X278842Y31201D01*
X278130Y31343D01*
D02*
G37*
G36*
X704709Y31242D02*
X701052D01*
Y27585D01*
X701764Y27727D01*
X703445Y28849D01*
X704567Y30530D01*
X704709Y31242D01*
D02*
G37*
G36*
X698512D02*
X694855D01*
X694997Y30530D01*
X696120Y28849D01*
X697800Y27727D01*
X698512Y27585D01*
Y31242D01*
D02*
G37*
G36*
X264160Y30835D02*
X263448Y30693D01*
X261768Y29571D01*
X260645Y27890D01*
X260503Y27178D01*
X264160D01*
Y30835D01*
D02*
G37*
G36*
X662787Y35560D02*
X652933D01*
X653075Y34848D01*
X654197Y33168D01*
X655878Y32045D01*
X656659Y31889D01*
Y30595D01*
X655878Y30439D01*
X654197Y29316D01*
X653075Y27636D01*
X652933Y26924D01*
X662787D01*
X662645Y27636D01*
X661523Y29316D01*
X659842Y30439D01*
X659061Y30595D01*
Y31889D01*
X659842Y32045D01*
X661523Y33168D01*
X662645Y34848D01*
X662787Y35560D01*
D02*
G37*
G36*
X234696Y37183D02*
X232714Y36789D01*
X231033Y35666D01*
X229911Y33986D01*
X229517Y32004D01*
X229911Y30022D01*
X231033Y28342D01*
X232714Y27219D01*
X234696Y26825D01*
X236678Y27219D01*
X238358Y28342D01*
X239481Y30022D01*
X239876Y32004D01*
X239481Y33986D01*
X238358Y35666D01*
X236678Y36789D01*
X234696Y37183D01*
D02*
G37*
G36*
X491083Y30480D02*
X487426D01*
Y26823D01*
X488138Y26965D01*
X489818Y28087D01*
X490941Y29768D01*
X491083Y30480D01*
D02*
G37*
G36*
X484886D02*
X481229D01*
X481371Y29768D01*
X482494Y28087D01*
X484174Y26965D01*
X484886Y26823D01*
Y30480D01*
D02*
G37*
G36*
X432336Y47937D02*
X430368Y47678D01*
X428533Y46918D01*
X426958Y45710D01*
X425750Y44134D01*
X424990Y42300D01*
X424731Y40332D01*
Y34332D01*
X424990Y32364D01*
X425750Y30529D01*
X426958Y28954D01*
X428533Y27746D01*
X430368Y26986D01*
X432336Y26727D01*
X434304Y26986D01*
X436138Y27746D01*
X437714Y28954D01*
X438922Y30529D01*
X439682Y32364D01*
X439941Y34332D01*
Y40332D01*
X439682Y42300D01*
X438922Y44134D01*
X437714Y45710D01*
X436138Y46918D01*
X434304Y47678D01*
X432336Y47937D01*
D02*
G37*
G36*
X346936D02*
X344968Y47678D01*
X343134Y46918D01*
X341558Y45710D01*
X340350Y44134D01*
X339590Y42300D01*
X339331Y40332D01*
Y34332D01*
X339590Y32364D01*
X340350Y30529D01*
X341558Y28954D01*
X343134Y27746D01*
X344968Y26986D01*
X346936Y26727D01*
X348904Y26986D01*
X350739Y27746D01*
X352314Y28954D01*
X353522Y30529D01*
X354282Y32364D01*
X354541Y34332D01*
Y40332D01*
X354282Y42300D01*
X353522Y44134D01*
X352314Y45710D01*
X350739Y46918D01*
X348904Y47678D01*
X346936Y47937D01*
D02*
G37*
G36*
X114554Y29057D02*
Y25400D01*
X118211D01*
X118069Y26112D01*
X116946Y27792D01*
X115266Y28915D01*
X114554Y29057D01*
D02*
G37*
G36*
X112014D02*
X111302Y28915D01*
X109621Y27792D01*
X108499Y26112D01*
X108357Y25400D01*
X112014D01*
Y29057D01*
D02*
G37*
G36*
X573278Y32866D02*
X571296Y32471D01*
X569616Y31349D01*
X568493Y29668D01*
X568098Y27686D01*
X568493Y25704D01*
X569616Y24023D01*
X571296Y22901D01*
X573278Y22506D01*
X575260Y22901D01*
X576940Y24023D01*
X578063Y25704D01*
X578457Y27686D01*
X578063Y29668D01*
X576940Y31349D01*
X575260Y32471D01*
X573278Y32866D01*
D02*
G37*
G36*
X681736Y25755D02*
Y22098D01*
X685393D01*
X685251Y22810D01*
X684128Y24490D01*
X682448Y25613D01*
X681736Y25755D01*
D02*
G37*
G36*
X679196D02*
X678484Y25613D01*
X676804Y24490D01*
X675681Y22810D01*
X675539Y22098D01*
X679196D01*
Y25755D01*
D02*
G37*
G36*
X800027Y25400D02*
X796371D01*
Y21743D01*
X797083Y21885D01*
X798763Y23008D01*
X799886Y24688D01*
X800027Y25400D01*
D02*
G37*
G36*
X793831D02*
X790174D01*
X790315Y24688D01*
X791438Y23008D01*
X793119Y21885D01*
X793831Y21743D01*
Y25400D01*
D02*
G37*
G36*
X264160Y24638D02*
X260503D01*
X260645Y23926D01*
X261768Y22246D01*
X263448Y21123D01*
X264160Y20981D01*
Y24638D01*
D02*
G37*
G36*
X118211Y22860D02*
X114554D01*
Y19203D01*
X115266Y19345D01*
X116946Y20468D01*
X118069Y22148D01*
X118211Y22860D01*
D02*
G37*
G36*
X112014D02*
X108357D01*
X108499Y22148D01*
X109621Y20468D01*
X111302Y19345D01*
X112014Y19203D01*
Y22860D01*
D02*
G37*
G36*
X531622Y33628D02*
X529640Y33233D01*
X527960Y32111D01*
X526837Y30430D01*
X526442Y28448D01*
X526837Y26466D01*
X527960Y24785D01*
X529640Y23663D01*
X531622Y23268D01*
X532423Y23428D01*
X533554Y22606D01*
X533949Y20624D01*
X535071Y18944D01*
X536752Y17821D01*
X538734Y17427D01*
X540716Y17821D01*
X542397Y18944D01*
X543519Y20624D01*
X543913Y22606D01*
X543519Y24588D01*
X542397Y26268D01*
X540716Y27391D01*
X538734Y27785D01*
X537933Y27626D01*
X536801Y28448D01*
X536407Y30430D01*
X535285Y32111D01*
X533604Y33233D01*
X531622Y33628D01*
D02*
G37*
G36*
X662787Y24384D02*
X652933D01*
X653075Y23672D01*
X654197Y21992D01*
X655387Y21197D01*
X655499Y19798D01*
X655474Y19728D01*
X654452Y19045D01*
X653329Y17364D01*
X653187Y16652D01*
X663041D01*
X662899Y17364D01*
X661777Y19045D01*
X660587Y19839D01*
X660475Y21238D01*
X660500Y21309D01*
X661523Y21992D01*
X662645Y23672D01*
X662787Y24384D01*
D02*
G37*
G36*
X685393Y19558D02*
X681736D01*
Y15901D01*
X682448Y16043D01*
X684128Y17165D01*
X685251Y18846D01*
X685393Y19558D01*
D02*
G37*
G36*
X679196D02*
X675539D01*
X675681Y18846D01*
X676804Y17165D01*
X678484Y16043D01*
X679196Y15901D01*
Y19558D01*
D02*
G37*
G36*
X802640Y17681D02*
Y14024D01*
X806297D01*
X806155Y14736D01*
X805033Y16416D01*
X803352Y17539D01*
X802640Y17681D01*
D02*
G37*
G36*
X800100D02*
X799388Y17539D01*
X797708Y16416D01*
X796585Y14736D01*
X796443Y14024D01*
X800100D01*
Y17681D01*
D02*
G37*
G36*
X276961Y16985D02*
X273304D01*
Y13328D01*
X274016Y13470D01*
X275697Y14593D01*
X276819Y16273D01*
X276961Y16985D01*
D02*
G37*
G36*
X270764D02*
X267107D01*
X267249Y16273D01*
X268372Y14593D01*
X270052Y13470D01*
X270764Y13328D01*
Y16985D01*
D02*
G37*
G36*
X499364Y30479D02*
X497382Y30085D01*
X495701Y28962D01*
X494579Y27282D01*
X494184Y25300D01*
X494579Y23318D01*
X495701Y21637D01*
X497382Y20515D01*
X499364Y20120D01*
X499472Y20142D01*
X500369Y19244D01*
X500280Y18796D01*
X500675Y16814D01*
X501797Y15134D01*
X503478Y14011D01*
X505460Y13616D01*
X507191Y13961D01*
X507533Y12242D01*
X508656Y10561D01*
X510336Y9439D01*
X512318Y9044D01*
X514300Y9439D01*
X515980Y10561D01*
X517103Y12242D01*
X517303Y13246D01*
X518160Y13076D01*
X520142Y13470D01*
X521823Y14593D01*
X522945Y16273D01*
X523340Y18255D01*
X522945Y20238D01*
X521823Y21918D01*
X520142Y23041D01*
X518160Y23435D01*
X516178Y23041D01*
X514497Y21918D01*
X513375Y20238D01*
X513175Y19233D01*
X512318Y19404D01*
X510587Y19059D01*
X510245Y20778D01*
X509123Y22459D01*
X507442Y23581D01*
X505460Y23976D01*
X505353Y23954D01*
X504454Y24852D01*
X504543Y25300D01*
X504149Y27282D01*
X503027Y28962D01*
X501346Y30085D01*
X499364Y30479D01*
D02*
G37*
G36*
X708406Y16611D02*
Y12954D01*
X712063D01*
X711921Y13666D01*
X710798Y15346D01*
X709118Y16469D01*
X708406Y16611D01*
D02*
G37*
G36*
X705866D02*
X705154Y16469D01*
X703474Y15346D01*
X702351Y13666D01*
X702209Y12954D01*
X705866D01*
Y16611D01*
D02*
G37*
G36*
X568960Y20878D02*
X566978Y20483D01*
X565298Y19361D01*
X564175Y17680D01*
X563781Y15698D01*
X564175Y13716D01*
X565298Y12036D01*
X566978Y10913D01*
X568960Y10519D01*
X570942Y10913D01*
X572622Y12036D01*
X573745Y13716D01*
X574140Y15698D01*
X573745Y17680D01*
X572622Y19361D01*
X570942Y20483D01*
X568960Y20878D01*
D02*
G37*
G36*
X663041Y14112D02*
X659384D01*
Y10455D01*
X660096Y10597D01*
X661777Y11720D01*
X662899Y13400D01*
X663041Y14112D01*
D02*
G37*
G36*
X656844D02*
X653187D01*
X653329Y13400D01*
X654452Y11720D01*
X656132Y10597D01*
X656844Y10455D01*
Y14112D01*
D02*
G37*
G36*
X626872Y61856D02*
X624890Y61461D01*
X623209Y60339D01*
X622087Y58658D01*
X621693Y56676D01*
X622087Y54694D01*
X623209Y53014D01*
X624890Y51891D01*
X624959Y51877D01*
X624987Y51806D01*
X625093Y50556D01*
X623717Y49637D01*
X622595Y47956D01*
X622201Y45974D01*
X622595Y43992D01*
X623717Y42312D01*
X625398Y41189D01*
X625540Y41160D01*
Y39866D01*
X625398Y39837D01*
X623717Y38714D01*
X622595Y37034D01*
X622201Y35052D01*
X622595Y33070D01*
X623717Y31390D01*
X625398Y30267D01*
X625413Y30264D01*
Y28969D01*
X625144Y28915D01*
X623464Y27792D01*
X622341Y26112D01*
X621946Y24130D01*
X622341Y22148D01*
X623464Y20468D01*
X624719Y19629D01*
X624737Y19581D01*
Y18265D01*
X624719Y18217D01*
X623464Y17378D01*
X622341Y15698D01*
X621946Y13716D01*
X622341Y11734D01*
X623464Y10053D01*
X625144Y8931D01*
X627126Y8536D01*
X629108Y8931D01*
X630788Y10053D01*
X631911Y11734D01*
X632305Y13716D01*
X631911Y15698D01*
X630788Y17378D01*
X629533Y18217D01*
X629515Y18265D01*
Y19581D01*
X629533Y19629D01*
X630788Y20468D01*
X631911Y22148D01*
X632305Y24130D01*
X631911Y26112D01*
X630788Y27792D01*
X629108Y28915D01*
X629093Y28918D01*
Y30213D01*
X629362Y30267D01*
X631043Y31390D01*
X632165Y33070D01*
X632560Y35052D01*
X632165Y37034D01*
X631043Y38714D01*
X629362Y39837D01*
X629220Y39866D01*
Y41160D01*
X629362Y41189D01*
X631043Y42312D01*
X632165Y43992D01*
X632560Y45974D01*
X632165Y47956D01*
X631043Y49637D01*
X629362Y50759D01*
X629293Y50773D01*
X629265Y50844D01*
X629159Y52094D01*
X630535Y53014D01*
X631657Y54694D01*
X632052Y56676D01*
X631657Y58658D01*
X630535Y60339D01*
X628854Y61461D01*
X626872Y61856D01*
D02*
G37*
G36*
X806297Y11484D02*
X802640D01*
Y7827D01*
X803352Y7969D01*
X805033Y9091D01*
X806155Y10772D01*
X806297Y11484D01*
D02*
G37*
G36*
X800100D02*
X796443D01*
X796585Y10772D01*
X797708Y9091D01*
X799388Y7969D01*
X800100Y7827D01*
Y11484D01*
D02*
G37*
G36*
X712063Y10414D02*
X708406D01*
Y6757D01*
X709118Y6899D01*
X710798Y8022D01*
X711921Y9702D01*
X712063Y10414D01*
D02*
G37*
G36*
X705866D02*
X702209D01*
X702351Y9702D01*
X703474Y8022D01*
X705154Y6899D01*
X705866Y6757D01*
Y10414D01*
D02*
G37*
G36*
X675640Y8737D02*
Y5080D01*
X679297D01*
X679155Y5792D01*
X678033Y7473D01*
X676352Y8595D01*
X675640Y8737D01*
D02*
G37*
G36*
X673100D02*
X672388Y8595D01*
X670707Y7473D01*
X669585Y5792D01*
X669443Y5080D01*
X673100D01*
Y8737D01*
D02*
G37*
G36*
X115218Y8143D02*
Y4486D01*
X118875D01*
X118733Y5198D01*
X117610Y6879D01*
X115930Y8001D01*
X115218Y8143D01*
D02*
G37*
G36*
X112678D02*
X111966Y8001D01*
X110285Y6879D01*
X109163Y5198D01*
X109021Y4486D01*
X112678D01*
Y8143D01*
D02*
G37*
G36*
X654392Y7213D02*
Y3556D01*
X658049D01*
X657907Y4268D01*
X656784Y5949D01*
X655104Y7071D01*
X654392Y7213D01*
D02*
G37*
G36*
X651852D02*
X651140Y7071D01*
X649459Y5949D01*
X648337Y4268D01*
X648195Y3556D01*
X651852D01*
Y7213D01*
D02*
G37*
G36*
X679297Y2540D02*
X675640D01*
Y-1117D01*
X676352Y-975D01*
X678033Y148D01*
X679155Y1828D01*
X679297Y2540D01*
D02*
G37*
G36*
X673100D02*
X669443D01*
X669585Y1828D01*
X670707Y148D01*
X672388Y-975D01*
X673100Y-1117D01*
Y2540D01*
D02*
G37*
G36*
X118875Y1946D02*
X115218D01*
Y-1711D01*
X115930Y-1569D01*
X117610Y-446D01*
X118733Y1234D01*
X118875Y1946D01*
D02*
G37*
G36*
X112678D02*
X109021D01*
X109163Y1234D01*
X110285Y-446D01*
X111966Y-1569D01*
X112678Y-1711D01*
Y1946D01*
D02*
G37*
G36*
X280150Y8482D02*
X278168Y8087D01*
X276487Y6964D01*
X275364Y5284D01*
X274970Y3302D01*
X275364Y1320D01*
X276487Y-360D01*
X278168Y-1483D01*
X280150Y-1877D01*
X282132Y-1483D01*
X283812Y-360D01*
X284935Y1320D01*
X285329Y3302D01*
X284935Y5284D01*
X283812Y6964D01*
X282132Y8087D01*
X280150Y8482D01*
D02*
G37*
G36*
X805180Y1625D02*
Y-2032D01*
X808837D01*
X808695Y-1320D01*
X807572Y360D01*
X805892Y1483D01*
X805180Y1625D01*
D02*
G37*
G36*
X802640D02*
X801928Y1483D01*
X800247Y360D01*
X799125Y-1320D01*
X798983Y-2032D01*
X802640D01*
Y1625D01*
D02*
G37*
G36*
X293370Y7973D02*
X291388Y7579D01*
X289708Y6457D01*
X288585Y4776D01*
X288190Y2794D01*
X288585Y812D01*
X289708Y-869D01*
X291388Y-1991D01*
X293370Y-2386D01*
X295352Y-1991D01*
X297033Y-869D01*
X298155Y812D01*
X298549Y2794D01*
X298155Y4776D01*
X297033Y6457D01*
X295352Y7579D01*
X293370Y7973D01*
D02*
G37*
G36*
X746506Y27760D02*
X743518Y27466D01*
X740646Y26594D01*
X737998Y25179D01*
X735677Y23275D01*
X733773Y20954D01*
X732358Y18306D01*
X731487Y15434D01*
X731192Y12446D01*
X731487Y9458D01*
X732358Y6586D01*
X733773Y3938D01*
X735677Y1618D01*
X737998Y-287D01*
X740646Y-1702D01*
X743518Y-2573D01*
X746506Y-2868D01*
X749494Y-2573D01*
X752366Y-1702D01*
X755014Y-287D01*
X757335Y1618D01*
X759239Y3938D01*
X760654Y6586D01*
X761525Y9458D01*
X761820Y12446D01*
X761525Y15434D01*
X760654Y18306D01*
X759239Y20954D01*
X757335Y23275D01*
X755014Y25179D01*
X752366Y26594D01*
X749494Y27466D01*
X746506Y27760D01*
D02*
G37*
G36*
X622808Y6957D02*
X620826Y6563D01*
X619146Y5440D01*
X618023Y3760D01*
X617629Y1778D01*
X618023Y-204D01*
X619146Y-1884D01*
X620826Y-3007D01*
X622808Y-3401D01*
X624790Y-3007D01*
X626470Y-1884D01*
X627593Y-204D01*
X627988Y1778D01*
X627593Y3760D01*
X626470Y5440D01*
X624790Y6563D01*
X622808Y6957D01*
D02*
G37*
G36*
X658049Y1016D02*
X648195D01*
X648337Y304D01*
X649459Y-1376D01*
X650382Y-1993D01*
Y-3520D01*
X649625Y-4026D01*
X648503Y-5706D01*
X648361Y-6418D01*
X658215D01*
X658073Y-5706D01*
X656951Y-4026D01*
X656028Y-3409D01*
Y-1882D01*
X656784Y-1376D01*
X657907Y304D01*
X658049Y1016D01*
D02*
G37*
G36*
X808837Y-4572D02*
X805180D01*
Y-8229D01*
X805892Y-8087D01*
X807572Y-6964D01*
X808695Y-5284D01*
X808837Y-4572D01*
D02*
G37*
G36*
X802640D02*
X798983D01*
X799125Y-5284D01*
X800247Y-6964D01*
X801928Y-8087D01*
X802640Y-8229D01*
Y-4572D01*
D02*
G37*
G36*
X658215Y-8958D02*
X654558D01*
Y-12615D01*
X655270Y-12474D01*
X656951Y-11351D01*
X658073Y-9671D01*
X658215Y-8958D01*
D02*
G37*
G36*
X652018D02*
X648361D01*
X648503Y-9671D01*
X649625Y-11351D01*
X651306Y-12474D01*
X652018Y-12615D01*
Y-8958D01*
D02*
G37*
G36*
X664156Y-12599D02*
Y-16256D01*
X667813D01*
X667671Y-15544D01*
X666549Y-13864D01*
X664868Y-12741D01*
X664156Y-12599D01*
D02*
G37*
G36*
X661616D02*
X660904Y-12741D01*
X659224Y-13864D01*
X658101Y-15544D01*
X657959Y-16256D01*
X661616D01*
Y-12599D01*
D02*
G37*
G36*
X114808Y-6251D02*
X112826Y-6645D01*
X111145Y-7768D01*
X110023Y-9448D01*
X109628Y-11430D01*
X110023Y-13412D01*
X111145Y-15093D01*
X112826Y-16215D01*
X114808Y-16609D01*
X116790Y-16215D01*
X118470Y-15093D01*
X119593Y-13412D01*
X119987Y-11430D01*
X119593Y-9448D01*
X118470Y-7768D01*
X116790Y-6645D01*
X114808Y-6251D01*
D02*
G37*
G36*
X798322Y-13107D02*
Y-16764D01*
X801979D01*
X801837Y-16052D01*
X800714Y-14372D01*
X799034Y-13249D01*
X798322Y-13107D01*
D02*
G37*
G36*
X795782D02*
X795070Y-13249D01*
X793390Y-14372D01*
X792267Y-16052D01*
X792125Y-16764D01*
X795782D01*
Y-13107D01*
D02*
G37*
G36*
X220726Y-10060D02*
X218744Y-10455D01*
X217064Y-11578D01*
X215941Y-13258D01*
X215546Y-15240D01*
X215941Y-17222D01*
X217064Y-18902D01*
X218744Y-20025D01*
X220726Y-20419D01*
X222708Y-20025D01*
X224389Y-18902D01*
X225511Y-17222D01*
X225905Y-15240D01*
X225511Y-13258D01*
X224389Y-11578D01*
X222708Y-10455D01*
X220726Y-10060D01*
D02*
G37*
G36*
X432336Y637D02*
X430368Y378D01*
X428533Y-382D01*
X426958Y-1590D01*
X425750Y-3165D01*
X424990Y-5000D01*
X424731Y-6968D01*
Y-12968D01*
X424990Y-14936D01*
X425750Y-16770D01*
X426958Y-18346D01*
X428533Y-19554D01*
X430368Y-20314D01*
X432336Y-20573D01*
X434304Y-20314D01*
X436138Y-19554D01*
X437714Y-18346D01*
X438922Y-16770D01*
X439682Y-14936D01*
X439941Y-12968D01*
Y-6968D01*
X439682Y-5000D01*
X438922Y-3165D01*
X437714Y-1590D01*
X436138Y-382D01*
X434304Y378D01*
X432336Y637D01*
D02*
G37*
G36*
X346936D02*
X344968Y378D01*
X343134Y-382D01*
X341558Y-1590D01*
X340350Y-3165D01*
X339590Y-5000D01*
X339331Y-6968D01*
Y-12968D01*
X339590Y-14936D01*
X340350Y-16770D01*
X341558Y-18346D01*
X343134Y-19554D01*
X344968Y-20314D01*
X346936Y-20573D01*
X348904Y-20314D01*
X350739Y-19554D01*
X352314Y-18346D01*
X353522Y-16770D01*
X354282Y-14936D01*
X354541Y-12968D01*
Y-6968D01*
X354282Y-5000D01*
X353522Y-3165D01*
X352314Y-1590D01*
X350739Y-382D01*
X348904Y378D01*
X346936Y637D01*
D02*
G37*
G36*
X667813Y-18796D02*
X664156D01*
Y-22453D01*
X664868Y-22311D01*
X666549Y-21188D01*
X667671Y-19508D01*
X667813Y-18796D01*
D02*
G37*
G36*
X661616D02*
X657959D01*
X658101Y-19508D01*
X659224Y-21188D01*
X660904Y-22311D01*
X661616Y-22453D01*
Y-18796D01*
D02*
G37*
G36*
X801979Y-19304D02*
X798322D01*
Y-22961D01*
X799034Y-22819D01*
X800714Y-21697D01*
X801837Y-20016D01*
X801979Y-19304D01*
D02*
G37*
G36*
X795782D02*
X792125D01*
X792267Y-20016D01*
X793390Y-21697D01*
X795070Y-22819D01*
X795782Y-22961D01*
Y-19304D01*
D02*
G37*
G36*
X304442Y-5997D02*
X302460Y-6391D01*
X300779Y-7513D01*
X299656Y-9194D01*
X299262Y-11176D01*
X299656Y-13158D01*
X300779Y-14839D01*
X302460Y-15961D01*
X302922Y-16053D01*
X303688Y-17500D01*
X303431Y-18796D01*
X303825Y-20778D01*
X304947Y-22459D01*
X305823Y-23044D01*
X306021Y-23176D01*
X305525Y-24372D01*
X305236Y-24314D01*
X305078Y-24283D01*
Y-27940D01*
X308735D01*
X308593Y-27228D01*
X307470Y-25547D01*
X306595Y-24962D01*
X306397Y-24830D01*
X306893Y-23634D01*
X307182Y-23691D01*
X308610Y-23976D01*
X310592Y-23581D01*
X312272Y-22459D01*
X313395Y-20778D01*
X313790Y-18796D01*
X313395Y-16814D01*
X312272Y-15134D01*
X310592Y-14011D01*
X310130Y-13919D01*
X309363Y-12471D01*
X309621Y-11176D01*
X309227Y-9194D01*
X308104Y-7513D01*
X306424Y-6391D01*
X304442Y-5997D01*
D02*
G37*
G36*
X251460Y-20727D02*
Y-24384D01*
X255117D01*
X254975Y-23672D01*
X253853Y-21992D01*
X252172Y-20869D01*
X251460Y-20727D01*
D02*
G37*
G36*
X248920D02*
X248208Y-20869D01*
X246528Y-21992D01*
X245405Y-23672D01*
X245263Y-24384D01*
X248920D01*
Y-20727D01*
D02*
G37*
G36*
X785876Y-22251D02*
Y-25908D01*
X789533D01*
X789391Y-25196D01*
X788269Y-23516D01*
X786588Y-22393D01*
X785876Y-22251D01*
D02*
G37*
G36*
X783336D02*
X782624Y-22393D01*
X780944Y-23516D01*
X779821Y-25196D01*
X779679Y-25908D01*
X783336D01*
Y-22251D01*
D02*
G37*
G36*
X768604Y-24029D02*
Y-27686D01*
X772261D01*
X772119Y-26974D01*
X770996Y-25294D01*
X769316Y-24171D01*
X768604Y-24029D01*
D02*
G37*
G36*
X766064D02*
X765352Y-24171D01*
X763671Y-25294D01*
X762549Y-26974D01*
X762407Y-27686D01*
X766064D01*
Y-24029D01*
D02*
G37*
G36*
X749300Y-24283D02*
Y-27940D01*
X752957D01*
X752815Y-27228D01*
X751693Y-25547D01*
X750012Y-24425D01*
X749300Y-24283D01*
D02*
G37*
G36*
X746760D02*
X746048Y-24425D01*
X744368Y-25547D01*
X743245Y-27228D01*
X743103Y-27940D01*
X746760D01*
Y-24283D01*
D02*
G37*
G36*
X339598D02*
Y-27940D01*
X343255D01*
X343113Y-27228D01*
X341991Y-25547D01*
X340310Y-24425D01*
X339598Y-24283D01*
D02*
G37*
G36*
X337058D02*
X336346Y-24425D01*
X334665Y-25547D01*
X333543Y-27228D01*
X333401Y-27940D01*
X337058D01*
Y-24283D01*
D02*
G37*
G36*
X322338D02*
Y-27940D01*
X325995D01*
X325853Y-27228D01*
X324730Y-25547D01*
X323050Y-24425D01*
X322338Y-24283D01*
D02*
G37*
G36*
X319798D02*
X319086Y-24425D01*
X317405Y-25547D01*
X316283Y-27228D01*
X316141Y-27940D01*
X319798D01*
Y-24283D01*
D02*
G37*
G36*
X302538D02*
X301826Y-24425D01*
X300145Y-25547D01*
X299023Y-27228D01*
X298881Y-27940D01*
X302538D01*
Y-24283D01*
D02*
G37*
G36*
X287818D02*
Y-27940D01*
X291475D01*
X291333Y-27228D01*
X290210Y-25547D01*
X288530Y-24425D01*
X287818Y-24283D01*
D02*
G37*
G36*
X285278D02*
X284566Y-24425D01*
X282885Y-25547D01*
X281763Y-27228D01*
X281621Y-27940D01*
X285278D01*
Y-24283D01*
D02*
G37*
G36*
X270558D02*
Y-27940D01*
X274215D01*
X274073Y-27228D01*
X272950Y-25547D01*
X271270Y-24425D01*
X270558Y-24283D01*
D02*
G37*
G36*
X268018D02*
X267306Y-24425D01*
X265625Y-25547D01*
X264503Y-27228D01*
X264361Y-27940D01*
X268018D01*
Y-24283D01*
D02*
G37*
G36*
X236038D02*
Y-27940D01*
X239695D01*
X239553Y-27228D01*
X238430Y-25547D01*
X236750Y-24425D01*
X236038Y-24283D01*
D02*
G37*
G36*
X233498D02*
X232786Y-24425D01*
X231105Y-25547D01*
X229983Y-27228D01*
X229841Y-27940D01*
X233498D01*
Y-24283D01*
D02*
G37*
G36*
X218778D02*
Y-27940D01*
X222435D01*
X222293Y-27228D01*
X221170Y-25547D01*
X219490Y-24425D01*
X218778Y-24283D01*
D02*
G37*
G36*
X216238D02*
X215526Y-24425D01*
X213845Y-25547D01*
X212723Y-27228D01*
X212581Y-27940D01*
X216238D01*
Y-24283D01*
D02*
G37*
G36*
X201518D02*
Y-27940D01*
X205175D01*
X205033Y-27228D01*
X203910Y-25547D01*
X202230Y-24425D01*
X201518Y-24283D01*
D02*
G37*
G36*
X198978D02*
X198266Y-24425D01*
X196585Y-25547D01*
X195463Y-27228D01*
X195321Y-27940D01*
X198978D01*
Y-24283D01*
D02*
G37*
G36*
X184258D02*
Y-27940D01*
X187915D01*
X187773Y-27228D01*
X186650Y-25547D01*
X184970Y-24425D01*
X184258Y-24283D01*
D02*
G37*
G36*
X181718D02*
X181006Y-24425D01*
X179325Y-25547D01*
X178203Y-27228D01*
X178061Y-27940D01*
X181718D01*
Y-24283D01*
D02*
G37*
G36*
X166998D02*
Y-27940D01*
X170655D01*
X170513Y-27228D01*
X169390Y-25547D01*
X167710Y-24425D01*
X166998Y-24283D01*
D02*
G37*
G36*
X164458D02*
X163746Y-24425D01*
X162065Y-25547D01*
X160943Y-27228D01*
X160801Y-27940D01*
X164458D01*
Y-24283D01*
D02*
G37*
G36*
X149738D02*
Y-27940D01*
X153395D01*
X153253Y-27228D01*
X152130Y-25547D01*
X150450Y-24425D01*
X149738Y-24283D01*
D02*
G37*
G36*
X147198D02*
X146486Y-24425D01*
X144805Y-25547D01*
X143683Y-27228D01*
X143541Y-27940D01*
X147198D01*
Y-24283D01*
D02*
G37*
G36*
X132478D02*
Y-27940D01*
X136135D01*
X135993Y-27228D01*
X134870Y-25547D01*
X133190Y-24425D01*
X132478Y-24283D01*
D02*
G37*
G36*
X129938D02*
X129226Y-24425D01*
X127545Y-25547D01*
X126423Y-27228D01*
X126281Y-27940D01*
X129938D01*
Y-24283D01*
D02*
G37*
G36*
X115218D02*
Y-27940D01*
X118875D01*
X118733Y-27228D01*
X117610Y-25547D01*
X115930Y-24425D01*
X115218Y-24283D01*
D02*
G37*
G36*
X112678D02*
X111966Y-24425D01*
X110285Y-25547D01*
X109163Y-27228D01*
X109021Y-27940D01*
X112678D01*
Y-24283D01*
D02*
G37*
G36*
X731266Y-24537D02*
Y-28194D01*
X734923D01*
X734781Y-27482D01*
X733659Y-25801D01*
X731978Y-24679D01*
X731266Y-24537D01*
D02*
G37*
G36*
X728726D02*
X728014Y-24679D01*
X726333Y-25801D01*
X725211Y-27482D01*
X725069Y-28194D01*
X728726D01*
Y-24537D01*
D02*
G37*
G36*
X712470D02*
Y-28194D01*
X716127D01*
X715985Y-27482D01*
X714863Y-25801D01*
X713182Y-24679D01*
X712470Y-24537D01*
D02*
G37*
G36*
X709930D02*
X709218Y-24679D01*
X707538Y-25801D01*
X706415Y-27482D01*
X706273Y-28194D01*
X709930D01*
Y-24537D01*
D02*
G37*
G36*
X693674D02*
Y-28194D01*
X697331D01*
X697189Y-27482D01*
X696067Y-25801D01*
X694386Y-24679D01*
X693674Y-24537D01*
D02*
G37*
G36*
X691134D02*
X690422Y-24679D01*
X688742Y-25801D01*
X687619Y-27482D01*
X687477Y-28194D01*
X691134D01*
Y-24537D01*
D02*
G37*
G36*
X674878D02*
Y-28194D01*
X678535D01*
X678393Y-27482D01*
X677271Y-25801D01*
X675590Y-24679D01*
X674878Y-24537D01*
D02*
G37*
G36*
X672338D02*
X671626Y-24679D01*
X669946Y-25801D01*
X668823Y-27482D01*
X668681Y-28194D01*
X672338D01*
Y-24537D01*
D02*
G37*
G36*
X656082D02*
Y-28194D01*
X659739D01*
X659597Y-27482D01*
X658475Y-25801D01*
X656794Y-24679D01*
X656082Y-24537D01*
D02*
G37*
G36*
X653542D02*
X652830Y-24679D01*
X651150Y-25801D01*
X650027Y-27482D01*
X649885Y-28194D01*
X653542D01*
Y-24537D01*
D02*
G37*
G36*
X637286D02*
Y-28194D01*
X640943D01*
X640801Y-27482D01*
X639678Y-25801D01*
X637998Y-24679D01*
X637286Y-24537D01*
D02*
G37*
G36*
X634746D02*
X634034Y-24679D01*
X632354Y-25801D01*
X631231Y-27482D01*
X631089Y-28194D01*
X634746D01*
Y-24537D01*
D02*
G37*
G36*
X618490D02*
Y-28194D01*
X622147D01*
X622005Y-27482D01*
X620882Y-25801D01*
X619202Y-24679D01*
X618490Y-24537D01*
D02*
G37*
G36*
X615950D02*
X615238Y-24679D01*
X613558Y-25801D01*
X612435Y-27482D01*
X612293Y-28194D01*
X615950D01*
Y-24537D01*
D02*
G37*
G36*
X599694D02*
Y-28194D01*
X603351D01*
X603209Y-27482D01*
X602086Y-25801D01*
X600406Y-24679D01*
X599694Y-24537D01*
D02*
G37*
G36*
X597154D02*
X596442Y-24679D01*
X594762Y-25801D01*
X593639Y-27482D01*
X593497Y-28194D01*
X597154D01*
Y-24537D01*
D02*
G37*
G36*
X580898D02*
Y-28194D01*
X584555D01*
X584413Y-27482D01*
X583290Y-25801D01*
X581610Y-24679D01*
X580898Y-24537D01*
D02*
G37*
G36*
X578358D02*
X577646Y-24679D01*
X575965Y-25801D01*
X574843Y-27482D01*
X574701Y-28194D01*
X578358D01*
Y-24537D01*
D02*
G37*
G36*
X562102D02*
Y-28194D01*
X565759D01*
X565617Y-27482D01*
X564495Y-25801D01*
X562814Y-24679D01*
X562102Y-24537D01*
D02*
G37*
G36*
X559562D02*
X558850Y-24679D01*
X557169Y-25801D01*
X556047Y-27482D01*
X555905Y-28194D01*
X559562D01*
Y-24537D01*
D02*
G37*
G36*
X543306D02*
Y-28194D01*
X546963D01*
X546821Y-27482D01*
X545699Y-25801D01*
X544018Y-24679D01*
X543306Y-24537D01*
D02*
G37*
G36*
X540766D02*
X540054Y-24679D01*
X538373Y-25801D01*
X537251Y-27482D01*
X537109Y-28194D01*
X540766D01*
Y-24537D01*
D02*
G37*
G36*
X524510D02*
Y-28194D01*
X528167D01*
X528025Y-27482D01*
X526903Y-25801D01*
X525222Y-24679D01*
X524510Y-24537D01*
D02*
G37*
G36*
X521970D02*
X521258Y-24679D01*
X519577Y-25801D01*
X518455Y-27482D01*
X518313Y-28194D01*
X521970D01*
Y-24537D01*
D02*
G37*
G36*
X505714D02*
Y-28194D01*
X509371D01*
X509229Y-27482D01*
X508106Y-25801D01*
X506426Y-24679D01*
X505714Y-24537D01*
D02*
G37*
G36*
X503174D02*
X502462Y-24679D01*
X500782Y-25801D01*
X499659Y-27482D01*
X499517Y-28194D01*
X503174D01*
Y-24537D01*
D02*
G37*
G36*
X486918D02*
Y-28194D01*
X490575D01*
X490433Y-27482D01*
X489310Y-25801D01*
X487630Y-24679D01*
X486918Y-24537D01*
D02*
G37*
G36*
X484378D02*
X483666Y-24679D01*
X481986Y-25801D01*
X480863Y-27482D01*
X480721Y-28194D01*
X484378D01*
Y-24537D01*
D02*
G37*
G36*
X468122D02*
Y-28194D01*
X471779D01*
X471637Y-27482D01*
X470514Y-25801D01*
X468834Y-24679D01*
X468122Y-24537D01*
D02*
G37*
G36*
X465582D02*
X464870Y-24679D01*
X463190Y-25801D01*
X462067Y-27482D01*
X461925Y-28194D01*
X465582D01*
Y-24537D01*
D02*
G37*
G36*
X449326D02*
Y-28194D01*
X452983D01*
X452841Y-27482D01*
X451718Y-25801D01*
X450038Y-24679D01*
X449326Y-24537D01*
D02*
G37*
G36*
X446786D02*
X446074Y-24679D01*
X444394Y-25801D01*
X443271Y-27482D01*
X443129Y-28194D01*
X446786D01*
Y-24537D01*
D02*
G37*
G36*
X255117Y-26924D02*
X251460D01*
Y-30581D01*
X252172Y-30439D01*
X253853Y-29316D01*
X254975Y-27636D01*
X255117Y-26924D01*
D02*
G37*
G36*
X248920D02*
X245263D01*
X245405Y-27636D01*
X246528Y-29316D01*
X248208Y-30439D01*
X248920Y-30581D01*
Y-26924D01*
D02*
G37*
G36*
X789533Y-28448D02*
X785876D01*
Y-32105D01*
X786588Y-31963D01*
X788269Y-30840D01*
X789391Y-29160D01*
X789533Y-28448D01*
D02*
G37*
G36*
X783336D02*
X779679D01*
X779821Y-29160D01*
X780944Y-30840D01*
X782624Y-31963D01*
X783336Y-32105D01*
Y-28448D01*
D02*
G37*
G36*
X772261Y-30226D02*
X768604D01*
Y-33883D01*
X769316Y-33741D01*
X770996Y-32619D01*
X772119Y-30938D01*
X772261Y-30226D01*
D02*
G37*
G36*
X766064D02*
X762407D01*
X762549Y-30938D01*
X763671Y-32619D01*
X765352Y-33741D01*
X766064Y-33883D01*
Y-30226D01*
D02*
G37*
G36*
X752957Y-30480D02*
X749300D01*
Y-34137D01*
X750012Y-33995D01*
X751693Y-32873D01*
X752815Y-31192D01*
X752957Y-30480D01*
D02*
G37*
G36*
X746760D02*
X743103D01*
X743245Y-31192D01*
X744368Y-32873D01*
X746048Y-33995D01*
X746760Y-34137D01*
Y-30480D01*
D02*
G37*
G36*
X343255D02*
X339598D01*
Y-34137D01*
X340310Y-33995D01*
X341991Y-32873D01*
X343113Y-31192D01*
X343255Y-30480D01*
D02*
G37*
G36*
X337058D02*
X333401D01*
X333543Y-31192D01*
X334665Y-32873D01*
X336346Y-33995D01*
X337058Y-34137D01*
Y-30480D01*
D02*
G37*
G36*
X325995D02*
X322338D01*
Y-34137D01*
X323050Y-33995D01*
X324730Y-32873D01*
X325853Y-31192D01*
X325995Y-30480D01*
D02*
G37*
G36*
X319798D02*
X316141D01*
X316283Y-31192D01*
X317405Y-32873D01*
X319086Y-33995D01*
X319798Y-34137D01*
Y-30480D01*
D02*
G37*
G36*
X308735D02*
X305078D01*
Y-34137D01*
X305790Y-33995D01*
X307470Y-32873D01*
X308593Y-31192D01*
X308735Y-30480D01*
D02*
G37*
G36*
X302538D02*
X298881D01*
X299023Y-31192D01*
X300145Y-32873D01*
X301826Y-33995D01*
X302538Y-34137D01*
Y-30480D01*
D02*
G37*
G36*
X291475D02*
X287818D01*
Y-34137D01*
X288530Y-33995D01*
X290210Y-32873D01*
X291333Y-31192D01*
X291475Y-30480D01*
D02*
G37*
G36*
X285278D02*
X281621D01*
X281763Y-31192D01*
X282885Y-32873D01*
X284566Y-33995D01*
X285278Y-34137D01*
Y-30480D01*
D02*
G37*
G36*
X274215D02*
X270558D01*
Y-34137D01*
X271270Y-33995D01*
X272950Y-32873D01*
X274073Y-31192D01*
X274215Y-30480D01*
D02*
G37*
G36*
X268018D02*
X264361D01*
X264503Y-31192D01*
X265625Y-32873D01*
X267306Y-33995D01*
X268018Y-34137D01*
Y-30480D01*
D02*
G37*
G36*
X239695D02*
X236038D01*
Y-34137D01*
X236750Y-33995D01*
X238430Y-32873D01*
X239553Y-31192D01*
X239695Y-30480D01*
D02*
G37*
G36*
X233498D02*
X229841D01*
X229983Y-31192D01*
X231105Y-32873D01*
X232786Y-33995D01*
X233498Y-34137D01*
Y-30480D01*
D02*
G37*
G36*
X222435D02*
X218778D01*
Y-34137D01*
X219490Y-33995D01*
X221170Y-32873D01*
X222293Y-31192D01*
X222435Y-30480D01*
D02*
G37*
G36*
X216238D02*
X212581D01*
X212723Y-31192D01*
X213845Y-32873D01*
X215526Y-33995D01*
X216238Y-34137D01*
Y-30480D01*
D02*
G37*
G36*
X205175D02*
X201518D01*
Y-34137D01*
X202230Y-33995D01*
X203910Y-32873D01*
X205033Y-31192D01*
X205175Y-30480D01*
D02*
G37*
G36*
X198978D02*
X195321D01*
X195463Y-31192D01*
X196585Y-32873D01*
X198266Y-33995D01*
X198978Y-34137D01*
Y-30480D01*
D02*
G37*
G36*
X187915D02*
X184258D01*
Y-34137D01*
X184970Y-33995D01*
X186650Y-32873D01*
X187773Y-31192D01*
X187915Y-30480D01*
D02*
G37*
G36*
X181718D02*
X178061D01*
X178203Y-31192D01*
X179325Y-32873D01*
X181006Y-33995D01*
X181718Y-34137D01*
Y-30480D01*
D02*
G37*
G36*
X170655D02*
X166998D01*
Y-34137D01*
X167710Y-33995D01*
X169390Y-32873D01*
X170513Y-31192D01*
X170655Y-30480D01*
D02*
G37*
G36*
X164458D02*
X160801D01*
X160943Y-31192D01*
X162065Y-32873D01*
X163746Y-33995D01*
X164458Y-34137D01*
Y-30480D01*
D02*
G37*
G36*
X153395D02*
X149738D01*
Y-34137D01*
X150450Y-33995D01*
X152130Y-32873D01*
X153253Y-31192D01*
X153395Y-30480D01*
D02*
G37*
G36*
X147198D02*
X143541D01*
X143683Y-31192D01*
X144805Y-32873D01*
X146486Y-33995D01*
X147198Y-34137D01*
Y-30480D01*
D02*
G37*
G36*
X136135D02*
X132478D01*
Y-34137D01*
X133190Y-33995D01*
X134870Y-32873D01*
X135993Y-31192D01*
X136135Y-30480D01*
D02*
G37*
G36*
X129938D02*
X126281D01*
X126423Y-31192D01*
X127545Y-32873D01*
X129226Y-33995D01*
X129938Y-34137D01*
Y-30480D01*
D02*
G37*
G36*
X118875D02*
X115218D01*
Y-34137D01*
X115930Y-33995D01*
X117610Y-32873D01*
X118733Y-31192D01*
X118875Y-30480D01*
D02*
G37*
G36*
X112678D02*
X109021D01*
X109163Y-31192D01*
X110285Y-32873D01*
X111966Y-33995D01*
X112678Y-34137D01*
Y-30480D01*
D02*
G37*
G36*
X734923Y-30734D02*
X731266D01*
Y-34391D01*
X731978Y-34249D01*
X733659Y-33126D01*
X734781Y-31446D01*
X734923Y-30734D01*
D02*
G37*
G36*
X728726D02*
X725069D01*
X725211Y-31446D01*
X726333Y-33126D01*
X728014Y-34249D01*
X728726Y-34391D01*
Y-30734D01*
D02*
G37*
G36*
X716127D02*
X712470D01*
Y-34391D01*
X713182Y-34249D01*
X714863Y-33126D01*
X715985Y-31446D01*
X716127Y-30734D01*
D02*
G37*
G36*
X709930D02*
X706273D01*
X706415Y-31446D01*
X707538Y-33126D01*
X709218Y-34249D01*
X709930Y-34391D01*
Y-30734D01*
D02*
G37*
G36*
X697331D02*
X693674D01*
Y-34391D01*
X694386Y-34249D01*
X696067Y-33126D01*
X697189Y-31446D01*
X697331Y-30734D01*
D02*
G37*
G36*
X691134D02*
X687477D01*
X687619Y-31446D01*
X688742Y-33126D01*
X690422Y-34249D01*
X691134Y-34391D01*
Y-30734D01*
D02*
G37*
G36*
X678535D02*
X674878D01*
Y-34391D01*
X675590Y-34249D01*
X677271Y-33126D01*
X678393Y-31446D01*
X678535Y-30734D01*
D02*
G37*
G36*
X672338D02*
X668681D01*
X668823Y-31446D01*
X669946Y-33126D01*
X671626Y-34249D01*
X672338Y-34391D01*
Y-30734D01*
D02*
G37*
G36*
X659739D02*
X656082D01*
Y-34391D01*
X656794Y-34249D01*
X658475Y-33126D01*
X659597Y-31446D01*
X659739Y-30734D01*
D02*
G37*
G36*
X653542D02*
X649885D01*
X650027Y-31446D01*
X651150Y-33126D01*
X652830Y-34249D01*
X653542Y-34391D01*
Y-30734D01*
D02*
G37*
G36*
X640943D02*
X637286D01*
Y-34391D01*
X637998Y-34249D01*
X639678Y-33126D01*
X640801Y-31446D01*
X640943Y-30734D01*
D02*
G37*
G36*
X634746D02*
X631089D01*
X631231Y-31446D01*
X632354Y-33126D01*
X634034Y-34249D01*
X634746Y-34391D01*
Y-30734D01*
D02*
G37*
G36*
X622147D02*
X618490D01*
Y-34391D01*
X619202Y-34249D01*
X620882Y-33126D01*
X622005Y-31446D01*
X622147Y-30734D01*
D02*
G37*
G36*
X615950D02*
X612293D01*
X612435Y-31446D01*
X613558Y-33126D01*
X615238Y-34249D01*
X615950Y-34391D01*
Y-30734D01*
D02*
G37*
G36*
X603351D02*
X599694D01*
Y-34391D01*
X600406Y-34249D01*
X602086Y-33126D01*
X603209Y-31446D01*
X603351Y-30734D01*
D02*
G37*
G36*
X597154D02*
X593497D01*
X593639Y-31446D01*
X594762Y-33126D01*
X596442Y-34249D01*
X597154Y-34391D01*
Y-30734D01*
D02*
G37*
G36*
X584555D02*
X580898D01*
Y-34391D01*
X581610Y-34249D01*
X583290Y-33126D01*
X584413Y-31446D01*
X584555Y-30734D01*
D02*
G37*
G36*
X578358D02*
X574701D01*
X574843Y-31446D01*
X575965Y-33126D01*
X577646Y-34249D01*
X578358Y-34391D01*
Y-30734D01*
D02*
G37*
G36*
X565759D02*
X562102D01*
Y-34391D01*
X562814Y-34249D01*
X564495Y-33126D01*
X565617Y-31446D01*
X565759Y-30734D01*
D02*
G37*
G36*
X559562D02*
X555905D01*
X556047Y-31446D01*
X557169Y-33126D01*
X558850Y-34249D01*
X559562Y-34391D01*
Y-30734D01*
D02*
G37*
G36*
X546963D02*
X543306D01*
Y-34391D01*
X544018Y-34249D01*
X545699Y-33126D01*
X546821Y-31446D01*
X546963Y-30734D01*
D02*
G37*
G36*
X540766D02*
X537109D01*
X537251Y-31446D01*
X538373Y-33126D01*
X540054Y-34249D01*
X540766Y-34391D01*
Y-30734D01*
D02*
G37*
G36*
X528167D02*
X524510D01*
Y-34391D01*
X525222Y-34249D01*
X526903Y-33126D01*
X528025Y-31446D01*
X528167Y-30734D01*
D02*
G37*
G36*
X521970D02*
X518313D01*
X518455Y-31446D01*
X519577Y-33126D01*
X521258Y-34249D01*
X521970Y-34391D01*
Y-30734D01*
D02*
G37*
G36*
X509371D02*
X505714D01*
Y-34391D01*
X506426Y-34249D01*
X508106Y-33126D01*
X509229Y-31446D01*
X509371Y-30734D01*
D02*
G37*
G36*
X503174D02*
X499517D01*
X499659Y-31446D01*
X500782Y-33126D01*
X502462Y-34249D01*
X503174Y-34391D01*
Y-30734D01*
D02*
G37*
G36*
X490575D02*
X486918D01*
Y-34391D01*
X487630Y-34249D01*
X489310Y-33126D01*
X490433Y-31446D01*
X490575Y-30734D01*
D02*
G37*
G36*
X484378D02*
X480721D01*
X480863Y-31446D01*
X481986Y-33126D01*
X483666Y-34249D01*
X484378Y-34391D01*
Y-30734D01*
D02*
G37*
G36*
X471779D02*
X468122D01*
Y-34391D01*
X468834Y-34249D01*
X470514Y-33126D01*
X471637Y-31446D01*
X471779Y-30734D01*
D02*
G37*
G36*
X465582D02*
X461925D01*
X462067Y-31446D01*
X463190Y-33126D01*
X464870Y-34249D01*
X465582Y-34391D01*
Y-30734D01*
D02*
G37*
G36*
X452983D02*
X449326D01*
Y-34391D01*
X450038Y-34249D01*
X451718Y-33126D01*
X452841Y-31446D01*
X452983Y-30734D01*
D02*
G37*
G36*
X446786D02*
X443129D01*
X443271Y-31446D01*
X444394Y-33126D01*
X446074Y-34249D01*
X446786Y-34391D01*
Y-30734D01*
D02*
G37*
%LPD*%
D16*
X-29238Y20553D02*
G03*
X5403Y-39447I34641J-20000D01*
G01*
X425762Y688636D02*
G03*
X356480Y688636I-34641J-20000D01*
G01*
X776839Y-39447D02*
G03*
X811480Y20553I0J40000D01*
G01*
X-29238D02*
X356480Y688636D01*
X425762D02*
X811480Y20553D01*
X434675Y-39447D02*
X776839D01*
X5403D02*
X434675D01*
D128*
X681990Y86868D02*
D03*
D129*
X554482Y293624D02*
D03*
Y280924D02*
D03*
Y268224D02*
D03*
Y255524D02*
D03*
D131*
X361636Y48832D02*
D03*
D132*
X741934Y40894D02*
D03*
X707136Y11684D02*
D03*
X731266Y60706D02*
D03*
X699782Y32512D02*
D03*
X679704Y41656D02*
D03*
X680466Y20828D02*
D03*
X113948Y3216D02*
D03*
X113284Y24130D02*
D03*
X113030Y38608D02*
D03*
X112776Y55118D02*
D03*
X112522Y71374D02*
D03*
Y87492D02*
D03*
X112196Y104648D02*
D03*
X67503D02*
D03*
X50038Y104902D02*
D03*
X113948Y-29210D02*
D03*
X131208D02*
D03*
X148468D02*
D03*
X165728D02*
D03*
X182988D02*
D03*
X200248D02*
D03*
X217508D02*
D03*
X234768D02*
D03*
X269288D02*
D03*
X286548D02*
D03*
X303808D02*
D03*
X321068D02*
D03*
X338328D02*
D03*
X448056Y-29464D02*
D03*
X466852D02*
D03*
X485648D02*
D03*
X504444D02*
D03*
X523240D02*
D03*
X542036D02*
D03*
X560832D02*
D03*
X579628D02*
D03*
X598424D02*
D03*
X617220D02*
D03*
X636016D02*
D03*
X654812D02*
D03*
X673608D02*
D03*
X692404D02*
D03*
X711200D02*
D03*
X729996D02*
D03*
X748030Y-29210D02*
D03*
X767334Y-28956D02*
D03*
X784606Y-27178D02*
D03*
X797052Y-18034D02*
D03*
X803910Y-3302D02*
D03*
X801370Y12754D02*
D03*
X795101Y26670D02*
D03*
X787542Y39624D02*
D03*
X779983Y52578D02*
D03*
X772424Y65532D02*
D03*
X764865Y78486D02*
D03*
X757306Y91440D02*
D03*
X606377Y353568D02*
D03*
X615539Y338074D02*
D03*
X625602Y321310D02*
D03*
X635337Y303518D02*
D03*
X644891Y286512D02*
D03*
X653756Y271938D02*
D03*
X661924Y257302D02*
D03*
X670124Y242824D02*
D03*
X686562Y213957D02*
D03*
X694944Y199898D02*
D03*
X703580Y185420D02*
D03*
X711454Y171312D02*
D03*
X720090Y155956D02*
D03*
X727710Y143256D02*
D03*
X735046Y129540D02*
D03*
X742188Y117348D02*
D03*
X749747Y104394D02*
D03*
X32573Y105156D02*
D03*
X40132Y118110D02*
D03*
X47274Y130302D02*
D03*
X54610Y144018D02*
D03*
X62230Y156718D02*
D03*
X70866Y172074D02*
D03*
X78740Y186182D02*
D03*
X87376Y200660D02*
D03*
X95758Y214719D02*
D03*
X103886Y228824D02*
D03*
X112196Y243586D02*
D03*
X120396Y258064D02*
D03*
X128564Y272700D02*
D03*
X137430Y287274D02*
D03*
X146983Y304280D02*
D03*
X156718Y322072D02*
D03*
X166781Y338836D02*
D03*
X175943Y354330D02*
D03*
X597916Y368300D02*
D03*
X580390Y368808D02*
D03*
X564642Y368554D02*
D03*
X548737Y368808D02*
D03*
X531830Y369062D02*
D03*
X517398D02*
D03*
X503428D02*
D03*
X184404D02*
D03*
X201422D02*
D03*
X218948D02*
D03*
X234696D02*
D03*
X252222D02*
D03*
X268478D02*
D03*
X474980Y37084D02*
D03*
X480568Y43982D02*
D03*
X486156Y31750D02*
D03*
X373939Y135636D02*
D03*
X500126Y161290D02*
D03*
X470154Y161036D02*
D03*
X410210Y91440D02*
D03*
X472694Y93780D02*
D03*
X474726Y85187D02*
D03*
X556741Y122428D02*
D03*
X538162Y141732D02*
D03*
X563372Y163576D02*
D03*
X281178Y199898D02*
D03*
X662886Y-17526D02*
D03*
X674370Y3810D02*
D03*
X653288Y-7688D02*
D03*
X653122Y2286D02*
D03*
X658114Y15382D02*
D03*
X657860Y25654D02*
D03*
Y36830D02*
D03*
X657606Y46736D02*
D03*
X657352Y56754D02*
D03*
X151130Y47752D02*
D03*
X193054Y48832D02*
D03*
X188722Y58236D02*
D03*
X139446Y57029D02*
D03*
X176276Y47752D02*
D03*
X164084Y57379D02*
D03*
X272034Y18255D02*
D03*
X265430Y25908D02*
D03*
X276860Y26416D02*
D03*
X250190Y-25654D02*
D03*
X188062Y168148D02*
D03*
X154525Y189992D02*
D03*
X180086Y199898D02*
D03*
X228212Y272542D02*
D03*
X131066Y68580D02*
D03*
X171196Y68168D02*
D03*
X181658D02*
D03*
X157020Y67818D02*
D03*
X146558D02*
D03*
X407416Y82042D02*
D03*
X541528Y201114D02*
D03*
X653034Y199898D02*
D03*
X672846Y229108D02*
D03*
X614426Y263398D02*
D03*
X282702Y364998D02*
D03*
X270256Y36322D02*
D03*
X259080Y36068D02*
D03*
X276352Y45212D02*
D03*
X263398Y44704D02*
D03*
X268478Y53086D02*
D03*
X258318Y52832D02*
D03*
X259842Y81788D02*
D03*
X355600Y66217D02*
D03*
X269240Y81788D02*
D03*
X472186Y51562D02*
D03*
X506576Y292100D02*
D03*
X492760Y364744D02*
D03*
D134*
X365850Y239324D02*
D03*
X372350Y232824D02*
D03*
X348850Y239324D02*
D03*
X342350Y245824D02*
D03*
X408850Y239324D02*
D03*
X402350Y232824D02*
D03*
Y245824D02*
D03*
X395850Y239324D02*
D03*
X408850Y269324D02*
D03*
X402350Y262824D02*
D03*
Y275824D02*
D03*
X395850Y269324D02*
D03*
X372350Y262824D02*
D03*
X365850Y269324D02*
D03*
X372350Y292824D02*
D03*
X378850Y269074D02*
D03*
X408850Y299324D02*
D03*
X402350Y305824D02*
D03*
Y292824D02*
D03*
X395850Y299324D02*
D03*
X348850D02*
D03*
X365850D02*
D03*
X342350Y305824D02*
D03*
X335850Y299324D02*
D03*
X372350Y275824D02*
D03*
X335850Y239324D02*
D03*
X348850Y269324D02*
D03*
X342350Y275824D02*
D03*
X335850Y269324D02*
D03*
X342350Y292824D02*
D03*
X378850Y299324D02*
D03*
X372350Y305824D02*
D03*
Y245824D02*
D03*
X342350Y232824D02*
D03*
X378850Y239074D02*
D03*
X342350Y262824D02*
D03*
X264160Y72174D02*
D03*
Y64174D02*
D03*
M02*
