G04*
G04 #@! TF.GenerationSoftware,Altium Limited,Altium Designer,19.0.12 (326)*
G04*
G04 Layer_Color=16711935*
%FSLAX44Y44*%
%MOMM*%
G71*
G01*
G75*
%ADD16C,0.1270*%
%ADD141C,0.0127*%
%ADD142R,1.2500X3.1063*%
%ADD143R,1.2540X3.1178*%
G36*
X816839Y-132073D02*
X806839Y-134215D01*
Y-129930D01*
X816839Y-132073D01*
D02*
G37*
G36*
X434821Y-132073D02*
X424821Y-134216D01*
Y-129930D01*
X434821Y-132073D01*
D02*
G37*
G36*
Y-220570D02*
X424821Y-222713D01*
Y-218428D01*
X434821Y-220570D01*
D02*
G37*
G36*
X347421D02*
X337421Y-222713D01*
Y-218428D01*
X347421Y-220570D01*
D02*
G37*
G36*
X816839Y-333596D02*
X806839Y-335738D01*
Y-331453D01*
X816839Y-333596D01*
D02*
G37*
G36*
X-34597D02*
X-44597Y-335738D01*
Y-331453D01*
X-34597Y-333596D01*
D02*
G37*
G36*
X-145146Y-39447D02*
X-155146Y-41590D01*
Y-37304D01*
X-145146Y-39447D01*
D02*
G37*
G36*
X-34597Y-125640D02*
X-44597Y-127782D01*
Y-123497D01*
X-34597Y-125640D01*
D02*
G37*
G36*
X-145146Y708636D02*
X-155146Y706494D01*
Y710779D01*
X-145146Y708636D01*
D02*
G37*
G36*
X347421Y-125640D02*
X337421Y-127782D01*
Y-123497D01*
X347421Y-125640D01*
D02*
G37*
G36*
X813543Y16454D02*
X803543Y14311D01*
Y18597D01*
X813543Y16454D01*
D02*
G37*
G36*
X403503Y706672D02*
X393503Y704529D01*
Y708814D01*
X403503Y706672D01*
D02*
G37*
D16*
X488102Y116502D02*
X488948Y117349D01*
Y119042D01*
X488102Y119888D01*
X484716D01*
X483870Y119042D01*
Y117349D01*
X484716Y116502D01*
X483870Y114810D02*
Y113117D01*
Y113963D01*
X488948D01*
X488102Y114810D01*
X488948Y110578D02*
Y107192D01*
X488102D01*
X484716Y110578D01*
X483870D01*
X424766Y118064D02*
X425612Y118911D01*
Y120604D01*
X424766Y121450D01*
X421380D01*
X420534Y120604D01*
Y118911D01*
X421380Y118064D01*
X420534Y113833D02*
X425612D01*
X423073Y116372D01*
Y112986D01*
X483956Y145372D02*
X483110Y144525D01*
Y142832D01*
X483956Y141986D01*
X487342D01*
X488188Y142832D01*
Y144525D01*
X487342Y145372D01*
X488188Y147064D02*
Y148757D01*
Y147911D01*
X483110D01*
X483956Y147064D01*
X487342Y151296D02*
X488188Y152143D01*
Y153835D01*
X487342Y154682D01*
X483956D01*
X483110Y153835D01*
Y152143D01*
X483956Y151296D01*
X484802D01*
X485649Y152143D01*
Y154682D01*
X421472Y145626D02*
X420626Y144779D01*
Y143086D01*
X421472Y142240D01*
X424858D01*
X425704Y143086D01*
Y144779D01*
X424858Y145626D01*
X425704Y147318D02*
Y149011D01*
Y148165D01*
X420626D01*
X421472Y147318D01*
Y151550D02*
X420626Y152397D01*
Y154089D01*
X421472Y154936D01*
X422318D01*
X423165Y154089D01*
X424011Y154936D01*
X424858D01*
X425704Y154089D01*
Y152397D01*
X424858Y151550D01*
X424011D01*
X423165Y152397D01*
X422318Y151550D01*
X421472D01*
X423165Y152397D02*
Y154089D01*
X-29238Y20553D02*
G03*
X5403Y-39447I34641J-20000D01*
G01*
X425762Y688636D02*
G03*
X356480Y688636I-34641J-20000D01*
G01*
X776839Y-39447D02*
G03*
X811480Y20553I0J40000D01*
G01*
X-29238D02*
X356480Y688636D01*
X425762D02*
X811480Y20553D01*
X434675Y-39447D02*
X776839D01*
X5403D02*
X434675D01*
D141*
X425762Y688636D02*
G03*
X356480Y688636I-34641J-20000D01*
G01*
X776839Y-39447D02*
G03*
X811480Y20553I0J40000D01*
G01*
X-29238D02*
G03*
X5403Y-39447I34641J-20000D01*
G01*
X347549Y-44269D02*
G03*
X347566Y-43837I-5482J437D01*
G01*
X378621Y-9267D02*
G03*
X368621Y-9267I-5000J-607D01*
G01*
X347548Y-44264D02*
G03*
X347435Y-44837I2873J-863D01*
G01*
X347401Y43284D02*
G03*
X345421Y40463I1020J-2821D01*
G01*
Y34463D02*
G03*
X347401Y31642I3000J0D01*
G01*
Y-4016D02*
G03*
X345421Y-6837I1020J-2821D01*
G01*
Y-12837D02*
G03*
X347401Y-15658I3000J0D01*
G01*
X413621Y-9267D02*
G03*
X403621Y-9267I-5000J-607D01*
G01*
X434807Y-44837D02*
G03*
X434694Y-44264I-2986J-290D01*
G01*
X436821Y-6837D02*
G03*
X434841Y-4016I-3000J0D01*
G01*
X434841Y-15658D02*
G03*
X436821Y-12837I-1020J2821D01*
G01*
Y40463D02*
G03*
X434841Y43284I-3000J0D01*
G01*
Y31642D02*
G03*
X436821Y34463I-1020J2821D01*
G01*
X405632Y-8609D02*
G03*
X405590Y-9058I6557J-846D01*
G01*
X405668Y-8387D02*
G03*
X405632Y-8609I3933J-750D01*
G01*
X405720Y-8168D02*
G03*
X405668Y-8387I2226J-643D01*
G01*
X405804Y-7959D02*
G03*
X405720Y-8168I872J-471D01*
G01*
X408036Y-7337D02*
G03*
X405804Y-7959I69J-4561D01*
G01*
X410365Y-7505D02*
G03*
X408036Y-7337I-1744J-7961D01*
G01*
X411438Y-7959D02*
G03*
X410365Y-7505I-1628J-2351D01*
G01*
X411574Y-8387D02*
G03*
X411438Y-7959I-1494J-238D01*
G01*
X411610Y-8609D02*
G03*
X411574Y-8387I-3969J-527D01*
G01*
X411635Y-8833D02*
G03*
X411610Y-8609I-5420J-492D01*
G01*
X411652Y-9058D02*
G03*
X411635Y-8833I-8391J-536D01*
G01*
X434782Y-44819D02*
G03*
X434796Y-44837I24J6D01*
G01*
X434773Y-44799D02*
G03*
X434781Y-44819I193J67D01*
G01*
X434770Y-44788D02*
G03*
X434773Y-44799I345J108D01*
G01*
X434728Y-44582D02*
G03*
X434770Y-44788I1279J154D01*
G01*
X434693Y-44269D02*
G03*
X434728Y-44582I4971J393D01*
G01*
X434675Y-43837D02*
G03*
X434693Y-44269I5537J6D01*
G01*
X370632Y-8609D02*
G03*
X370590Y-9058I6557J-846D01*
G01*
X370668Y-8387D02*
G03*
X370632Y-8609I3933J-750D01*
G01*
X370720Y-8168D02*
G03*
X370668Y-8387I2226J-643D01*
G01*
X370804Y-7959D02*
G03*
X370720Y-8168I872J-471D01*
G01*
X373036Y-7337D02*
G03*
X370804Y-7959I69J-4561D01*
G01*
X375365Y-7505D02*
G03*
X373036Y-7337I-1744J-7961D01*
G01*
X376438Y-7959D02*
G03*
X375365Y-7505I-1628J-2351D01*
G01*
X376574Y-8387D02*
G03*
X376438Y-7959I-1494J-238D01*
G01*
X376610Y-8609D02*
G03*
X376574Y-8387I-3969J-527D01*
G01*
X376635Y-8833D02*
G03*
X376610Y-8609I-5420J-492D01*
G01*
X376652Y-9058D02*
G03*
X376635Y-8833I-8391J-536D01*
G01*
X347509Y-44616D02*
G03*
X347549Y-44269I-4455J688D01*
G01*
X347487Y-44730D02*
G03*
X347509Y-44616I-1897J419D01*
G01*
X347445Y-44837D02*
G03*
X347488Y-44730I-196J139D01*
G01*
X347532Y-28729D02*
G03*
X347445Y-28337I-1264J-74D01*
G01*
X347551Y-28931D02*
G03*
X347532Y-28729I-5307J-392D01*
G01*
X347566Y-29337D02*
G03*
X347551Y-28931I-5482J-4D01*
G01*
X434738Y-28528D02*
G03*
X434675Y-29337I5143J-803D01*
G01*
X434796Y-28337D02*
G03*
X434738Y-28528I447J-242D01*
G01*
X376581Y-9932D02*
G03*
X376438Y-9838I-255J-235D01*
G01*
X376607Y-9965D02*
G03*
X376581Y-9932I-268J-182D01*
G01*
X376652Y-10058D02*
G03*
X376607Y-9965I-349J-112D01*
G01*
X370707Y-9890D02*
G03*
X370590Y-10058I210J-270D01*
G01*
X370804Y-9838D02*
G03*
X370707Y-9890I118J-340D01*
G01*
X376438Y-9838D02*
G03*
X374206Y-9216I-2300J-3939D01*
G01*
D02*
G03*
X371877Y-9384I-585J-8128D01*
G01*
Y-9384D02*
G03*
X370804Y-9838I555J-2806D01*
G01*
X411581Y-9932D02*
G03*
X411438Y-9838I-255J-235D01*
G01*
X411607Y-9965D02*
G03*
X411581Y-9932I-268J-182D01*
G01*
X411652Y-10058D02*
G03*
X411607Y-9965I-349J-112D01*
G01*
X405707Y-9890D02*
G03*
X405590Y-10058I210J-270D01*
G01*
X405804Y-9838D02*
G03*
X405707Y-9890I118J-340D01*
G01*
X411438Y-9838D02*
G03*
X409206Y-9216I-2300J-3939D01*
G01*
D02*
G03*
X406877Y-9384I-585J-8128D01*
G01*
D02*
G03*
X405804Y-9838I555J-2806D01*
G01*
X344915Y-44269D02*
G03*
X344932Y-43837I-5482J437D01*
G01*
X375987Y-9267D02*
G03*
X365986Y-9267I-5000J-607D01*
G01*
X344913Y-44264D02*
G03*
X344800Y-44837I2873J-863D01*
G01*
X344766Y43284D02*
G03*
X342786Y40463I1020J-2821D01*
G01*
Y34463D02*
G03*
X344766Y31642I3000J0D01*
G01*
Y-4016D02*
G03*
X342786Y-6837I1020J-2821D01*
G01*
Y-12837D02*
G03*
X344766Y-15658I3000J0D01*
G01*
X410987Y-9267D02*
G03*
X400986Y-9267I-5000J-607D01*
G01*
X432172Y-44837D02*
G03*
X432060Y-44264I-2986J-290D01*
G01*
X434186Y-6837D02*
G03*
X432207Y-4016I-3000J0D01*
G01*
X432207Y-15658D02*
G03*
X434186Y-12837I-1020J2821D01*
G01*
Y40463D02*
G03*
X432207Y43284I-3000J0D01*
G01*
Y31642D02*
G03*
X434186Y34463I-1020J2821D01*
G01*
X402998Y-8609D02*
G03*
X402955Y-9058I6557J-846D01*
G01*
X403034Y-8387D02*
G03*
X402998Y-8609I3933J-750D01*
G01*
X403086Y-8168D02*
G03*
X403034Y-8387I2226J-643D01*
G01*
X403170Y-7959D02*
G03*
X403086Y-8168I872J-471D01*
G01*
X405401Y-7337D02*
G03*
X403170Y-7959I69J-4561D01*
G01*
X407730Y-7505D02*
G03*
X405401Y-7337I-1744J-7961D01*
G01*
X408803Y-7959D02*
G03*
X407730Y-7505I-1628J-2351D01*
G01*
X408939Y-8387D02*
G03*
X408803Y-7959I-1494J-238D01*
G01*
X408975Y-8609D02*
G03*
X408939Y-8387I-3969J-527D01*
G01*
X409000Y-8833D02*
G03*
X408975Y-8609I-5420J-492D01*
G01*
X409017Y-9058D02*
G03*
X409000Y-8833I-8391J-536D01*
G01*
X432147Y-44819D02*
G03*
X432162Y-44837I24J6D01*
G01*
X432139Y-44799D02*
G03*
X432147Y-44819I193J67D01*
G01*
X432135Y-44788D02*
G03*
X432139Y-44799I345J108D01*
G01*
X432093Y-44582D02*
G03*
X432135Y-44788I1279J154D01*
G01*
X432058Y-44269D02*
G03*
X432093Y-44582I4971J393D01*
G01*
X432041Y-43837D02*
G03*
X432058Y-44269I5537J6D01*
G01*
X367998Y-8609D02*
G03*
X367955Y-9058I6557J-846D01*
G01*
X368034Y-8387D02*
G03*
X367998Y-8609I3933J-750D01*
G01*
X368086Y-8168D02*
G03*
X368034Y-8387I2226J-643D01*
G01*
X368170Y-7959D02*
G03*
X368086Y-8168I872J-471D01*
G01*
X370401Y-7337D02*
G03*
X368170Y-7959I69J-4561D01*
G01*
X372730Y-7505D02*
G03*
X370401Y-7337I-1744J-7961D01*
G01*
X373803Y-7959D02*
G03*
X372730Y-7505I-1628J-2351D01*
G01*
X373939Y-8387D02*
G03*
X373803Y-7959I-1494J-238D01*
G01*
X373975Y-8609D02*
G03*
X373939Y-8387I-3969J-527D01*
G01*
X374000Y-8833D02*
G03*
X373975Y-8609I-5420J-492D01*
G01*
X374018Y-9058D02*
G03*
X374000Y-8833I-8391J-536D01*
G01*
X344875Y-44616D02*
G03*
X344915Y-44269I-4455J688D01*
G01*
X344853Y-44730D02*
G03*
X344875Y-44616I-1897J419D01*
G01*
X344811Y-44837D02*
G03*
X344853Y-44730I-196J139D01*
G01*
X344898Y-28729D02*
G03*
X344811Y-28337I-1264J-74D01*
G01*
X344917Y-28931D02*
G03*
X344898Y-28729I-5307J-392D01*
G01*
X344932Y-29337D02*
G03*
X344917Y-28931I-5482J-4D01*
G01*
X432103Y-28528D02*
G03*
X432041Y-29337I5143J-803D01*
G01*
X432162Y-28337D02*
G03*
X432103Y-28528I447J-242D01*
G01*
X373946Y-9932D02*
G03*
X373803Y-9838I-255J-235D01*
G01*
X373973Y-9965D02*
G03*
X373946Y-9932I-268J-182D01*
G01*
X374017Y-10058D02*
G03*
X373973Y-9965I-349J-112D01*
G01*
X368072Y-9890D02*
G03*
X367955Y-10058I210J-270D01*
G01*
X368170Y-9838D02*
G03*
X368072Y-9890I118J-340D01*
G01*
X373803Y-9838D02*
G03*
X371572Y-9216I-2300J-3939D01*
G01*
D02*
G03*
X369242Y-9384I-585J-8128D01*
G01*
Y-9384D02*
G03*
X368170Y-9838I555J-2806D01*
G01*
X408946Y-9932D02*
G03*
X408803Y-9838I-255J-235D01*
G01*
X408973Y-9965D02*
G03*
X408946Y-9932I-268J-182D01*
G01*
X409017Y-10058D02*
G03*
X408973Y-9965I-349J-112D01*
G01*
X403072Y-9890D02*
G03*
X402955Y-10058I210J-270D01*
G01*
X403170Y-9838D02*
G03*
X403072Y-9890I118J-340D01*
G01*
X408803Y-9838D02*
G03*
X406572Y-9216I-2300J-3939D01*
G01*
D02*
G03*
X404242Y-9384I-585J-8128D01*
G01*
D02*
G03*
X403170Y-9838I555J-2806D01*
G01*
X425762Y688636D02*
X811480Y20553D01*
X-29238D02*
X356480Y688636D01*
X434675Y-39447D02*
X776839D01*
X5403D02*
X347566D01*
X-34597Y-348596D02*
Y-9447D01*
X816839Y-348596D02*
Y-9447D01*
X-34597Y-333596D02*
X391121D01*
X816839D01*
X-160146Y-39447D02*
X-4597D01*
X-160146Y708636D02*
X381121D01*
X-145146Y-39447D02*
Y334595D01*
Y708636D01*
X403503Y706672D02*
X441340Y822894D01*
X813543Y16454D02*
X959229Y79566D01*
X347421Y-235570D02*
Y-63837D01*
X434821Y-63837D02*
X434821Y-235570D01*
X297421Y-220570D02*
X347421D01*
X297421D02*
X391121D01*
X434821D02*
X626745D01*
X391121D02*
X626745D01*
X434821Y-63837D02*
X434821Y-147073D01*
X816839Y-147073D02*
Y-9447D01*
X434821Y-132073D02*
X625830D01*
X816839Y-132073D01*
X347421Y-63837D02*
X347421Y-140640D01*
X-34597Y-140640D02*
Y-9447D01*
X156412Y-125640D02*
X347421D01*
X-34597Y-125640D02*
X156412Y-125640D01*
X347421Y-53837D02*
X434821Y-53837D01*
X434733Y-44613D02*
X434775Y-44606D01*
X347421Y-44837D02*
X347436D01*
X434806D02*
X434821D01*
X368101Y-29938D02*
X379141D01*
X403101D02*
X414141D01*
Y-29837D02*
X416121D01*
X401121D02*
X403101D01*
X379141D02*
X381121D01*
X366121D02*
X368101D01*
X403133Y-29504D02*
X414109D01*
X368133D02*
X379109D01*
X367121Y-26837D02*
X368462D01*
X413779Y-26837D02*
X415121D01*
X413673Y-25971D02*
X415021D01*
X367221D02*
X368569D01*
X347467Y-44606D02*
X347509Y-44613D01*
X405570Y-10395D02*
X411672D01*
X370570D02*
X376672D01*
X370804Y-9838D02*
X376438D01*
X405804D02*
X411438D01*
X376652Y-9337D02*
X378121D01*
X369121D02*
X370590D01*
X404121D02*
X405590D01*
X411652D02*
X413121D01*
X404897Y-6537D02*
X412345D01*
X369897D02*
X377345D01*
X347421Y52163D02*
X434821D01*
X362221Y56163D02*
X365021D01*
X367221D02*
X370021D01*
X372221D02*
X375021D01*
X382221D02*
X385021D01*
X377221D02*
X380021D01*
X387221D02*
X390021D01*
X392221D02*
X395021D01*
X397221D02*
X400021D01*
X402221D02*
X405021D01*
X407221D02*
X410021D01*
X412221D02*
X415021D01*
X417221D02*
X420021D01*
X365021Y58153D02*
X367221D01*
X360314D02*
X362221D01*
X370021D02*
X372221D01*
X375021D02*
X377221D01*
X380021D02*
X382221D01*
X385021D02*
X387221D01*
X390021D02*
X392221D01*
X395021D02*
X397221D01*
X400021D02*
X402221D01*
X405021D02*
X407221D01*
X410021D02*
X412221D01*
X415021D02*
X417221D01*
X420021D02*
X421914D01*
X417221Y59263D02*
X420021D01*
X407221D02*
X410021D01*
X412221D02*
X415021D01*
X402221D02*
X405021D01*
X397221D02*
X400021D01*
X392221D02*
X395021D01*
X387221D02*
X390021D01*
X382221D02*
X385021D01*
X377221D02*
X380021D01*
X372221D02*
X375021D01*
X367221D02*
X370021D01*
X362221D02*
X365021D01*
X362621Y59763D02*
X364621D01*
X367621D02*
X369621D01*
X372621D02*
X374621D01*
X382621D02*
X384621D01*
X377621D02*
X379621D01*
X387621D02*
X389621D01*
X392621D02*
X394621D01*
X397621D02*
X399621D01*
X402621D02*
X404621D01*
X407621D02*
X409621D01*
X412621D02*
X414621D01*
X417621D02*
X419621D01*
X417621Y64100D02*
X419621D01*
X407621D02*
X409621D01*
X412621D02*
X414621D01*
X402621D02*
X404621D01*
X397621D02*
X399621D01*
X392621D02*
X394621D01*
X387621D02*
X389621D01*
X382621D02*
X384621D01*
X377621D02*
X379621D01*
X372621D02*
X374621D01*
X367621D02*
X369621D01*
X362621D02*
X364621D01*
X367221Y-25971D02*
X367721Y-26837D01*
X345421Y-12837D02*
Y-6837D01*
Y34463D02*
Y40463D01*
X347421Y52163D02*
X347421Y-28337D01*
Y-53837D02*
Y-44837D01*
X347566Y-43837D02*
Y-29337D01*
X357421Y52163D02*
X357421Y-53837D01*
X376672Y-9759D02*
X379109Y-29504D01*
X378621Y-9267D02*
X381121Y-29837D01*
X360314Y52163D02*
Y58153D01*
X362221Y52163D02*
Y59263D01*
X362621D02*
Y64100D01*
X364621Y59263D02*
Y64100D01*
X365021Y52163D02*
Y59263D01*
X367121Y-26837D02*
Y-21609D01*
X367221Y-25971D02*
Y-20786D01*
Y52163D02*
Y59263D01*
X367621D02*
Y64100D01*
X368101Y-29938D02*
Y-29837D01*
X368121Y-29938D02*
Y-29720D01*
X369121Y-9337D02*
Y-7688D01*
X369621Y59263D02*
Y64100D01*
X370021Y52163D02*
Y59263D01*
Y-14207D02*
Y-9337D01*
X370121Y-13397D02*
Y-9337D01*
X370570Y-10395D02*
Y-9759D01*
X370590Y-10395D02*
Y-9058D01*
X370804Y-9838D02*
Y-7959D01*
X372221Y52163D02*
Y59263D01*
X372621D02*
Y64100D01*
X373121Y-7336D02*
Y-6537D01*
X374121Y-7336D02*
Y-6537D01*
X374621Y59263D02*
Y64100D01*
X375021Y52163D02*
Y59263D01*
X376438Y-9838D02*
Y-7959D01*
X376652Y-10395D02*
Y-9058D01*
X376672Y-10395D02*
Y-9759D01*
X377121Y-13397D02*
Y-9337D01*
X377221Y-14207D02*
Y-9337D01*
Y52163D02*
Y59263D01*
X377621D02*
Y64100D01*
X378121Y-9337D02*
Y-7688D01*
X379121Y-29938D02*
Y-29720D01*
X379141Y-29938D02*
Y-29837D01*
X379621Y59263D02*
Y64100D01*
X380021Y52163D02*
Y59263D01*
Y-29837D02*
Y-20786D01*
X380121Y-29837D02*
Y-21609D01*
X382221Y52163D02*
Y59263D01*
X382621D02*
Y64100D01*
X384621Y59263D02*
Y64100D01*
X385021Y52163D02*
Y59263D01*
X387221Y52163D02*
Y59263D01*
X387621D02*
Y64100D01*
X389621Y59263D02*
Y64100D01*
X390021Y52163D02*
Y59263D01*
X392221Y52163D02*
Y59263D01*
X392621D02*
Y64100D01*
X394621Y59263D02*
Y64100D01*
X395021Y52163D02*
Y59263D01*
X411672Y-9759D02*
X414109Y-29504D01*
X413621Y-9267D02*
X416121Y-29837D01*
X397221Y52163D02*
Y59263D01*
X397621D02*
Y64100D01*
X399621Y59263D02*
Y64100D01*
X400021Y52163D02*
Y59263D01*
X402121Y-29837D02*
Y-21609D01*
X402221Y-29837D02*
Y-20786D01*
Y52163D02*
Y59263D01*
X402621D02*
Y64100D01*
X403101Y-29938D02*
Y-29837D01*
X403121Y-29938D02*
Y-29720D01*
X404121Y-9337D02*
Y-7688D01*
X404621Y59263D02*
Y64100D01*
X405021Y52163D02*
Y59263D01*
Y-14207D02*
Y-9337D01*
X405121Y-13397D02*
Y-9337D01*
X405570Y-10395D02*
Y-9759D01*
X405590Y-10395D02*
Y-9058D01*
X405804Y-9838D02*
Y-7959D01*
X407221Y52163D02*
Y59263D01*
X407621D02*
Y64100D01*
X408121Y-7336D02*
Y-6537D01*
X409121Y-7336D02*
Y-6537D01*
X409621Y59263D02*
Y64100D01*
X410021Y52163D02*
Y59263D01*
X411438Y-9838D02*
Y-7959D01*
X411652Y-10395D02*
Y-9058D01*
X411672Y-10395D02*
Y-9759D01*
X412121Y-13397D02*
Y-9337D01*
X412221Y-14207D02*
Y-9337D01*
Y52163D02*
Y59263D01*
X412621D02*
Y64100D01*
X413121Y-9337D02*
Y-7688D01*
X414121Y-29938D02*
Y-29720D01*
X414141Y-29938D02*
Y-29837D01*
X414621Y59263D02*
Y64100D01*
X415021Y52163D02*
Y59263D01*
Y-25971D02*
Y-20786D01*
X415121Y-26837D02*
Y-21609D01*
X417221Y52163D02*
Y59263D01*
X417621D02*
Y64100D01*
X419621Y59263D02*
Y64100D01*
X420021Y52163D02*
Y59263D01*
X421914Y52163D02*
Y58153D01*
X424821Y-53837D02*
Y52163D01*
X366121Y-29837D02*
X368621Y-9267D01*
X368133Y-29504D02*
X370570Y-9759D01*
X434675Y-43837D02*
Y-29337D01*
X434821Y-53837D02*
Y-44837D01*
X434821Y52163D02*
X434821Y-28337D01*
X436821Y34463D02*
Y40463D01*
Y-12837D02*
Y-6837D01*
X401121Y-29837D02*
X403621Y-9267D01*
X403133Y-29504D02*
X405570Y-9759D01*
X414521Y-26837D02*
X415021Y-25971D01*
X414109Y-29504D02*
X414121Y-29720D01*
X403121D02*
X403133Y-29504D01*
X379109D02*
X379121Y-29720D01*
X368121D02*
X368133Y-29504D01*
X344786Y-53837D02*
X432187Y-53837D01*
X432099Y-44613D02*
X432141Y-44606D01*
X344786Y-44837D02*
X344802D01*
X432171D02*
X432187D01*
X365466Y-29938D02*
X376507D01*
X400466D02*
X411506D01*
Y-29837D02*
X413486D01*
X398487D02*
X400466D01*
X376507D02*
X378486D01*
X363486D02*
X365466D01*
X400499Y-29504D02*
X411474D01*
X365499D02*
X376474D01*
X364486Y-26837D02*
X365828D01*
X411145Y-26837D02*
X412486D01*
X411038Y-25971D02*
X412386D01*
X364586D02*
X365935D01*
X344832Y-44606D02*
X344874Y-44613D01*
X402935Y-10395D02*
X409038D01*
X367935D02*
X374038D01*
X368170Y-9838D02*
X373803D01*
X403170D02*
X408803D01*
X374017Y-9337D02*
X375486D01*
X366486D02*
X367955D01*
X401486D02*
X402955D01*
X409017D02*
X410486D01*
X402263Y-6537D02*
X409710D01*
X367263D02*
X374710D01*
X344786Y52163D02*
X432186D01*
X359586Y56163D02*
X362386D01*
X364586D02*
X367386D01*
X369586D02*
X372387D01*
X379586D02*
X382386D01*
X374586D02*
X377386D01*
X384586D02*
X387386D01*
X389586D02*
X392386D01*
X394586D02*
X397387D01*
X399586D02*
X402386D01*
X404586D02*
X407386D01*
X409586D02*
X412386D01*
X414586D02*
X417386D01*
X362386Y58153D02*
X364586D01*
X357680D02*
X359586D01*
X367386D02*
X369586D01*
X372387D02*
X374586D01*
X377386D02*
X379586D01*
X382386D02*
X384586D01*
X387386D02*
X389586D01*
X392386D02*
X394586D01*
X397387D02*
X399586D01*
X402386D02*
X404586D01*
X407386D02*
X409586D01*
X412386D02*
X414586D01*
X417386D02*
X419280D01*
X414586Y59263D02*
X417386D01*
X404586D02*
X407386D01*
X409586D02*
X412386D01*
X399586D02*
X402386D01*
X394586D02*
X397387D01*
X389586D02*
X392386D01*
X384586D02*
X387386D01*
X379586D02*
X382386D01*
X374586D02*
X377386D01*
X369586D02*
X372387D01*
X364586D02*
X367386D01*
X359586D02*
X362386D01*
X359986Y59763D02*
X361986D01*
X364986D02*
X366986D01*
X369986D02*
X371987D01*
X379986D02*
X381986D01*
X374986D02*
X376986D01*
X384986D02*
X386986D01*
X389986D02*
X391986D01*
X394986D02*
X396987D01*
X399986D02*
X401986D01*
X404986D02*
X406986D01*
X409986D02*
X411987D01*
X414986D02*
X416986D01*
X414986Y64100D02*
X416986D01*
X404986D02*
X406986D01*
X409986D02*
X411987D01*
X399986D02*
X401986D01*
X394986D02*
X396987D01*
X389986D02*
X391986D01*
X384986D02*
X386986D01*
X379986D02*
X381986D01*
X374986D02*
X376986D01*
X369986D02*
X371987D01*
X364986D02*
X366986D01*
X359986D02*
X361986D01*
X364586Y-25971D02*
X365086Y-26837D01*
X342786Y-12837D02*
Y-6837D01*
Y34463D02*
Y40463D01*
X344786Y52163D02*
X344786Y-28337D01*
Y-53837D02*
Y-44837D01*
X344932Y-43837D02*
Y-29337D01*
X354786Y52163D02*
X354786Y-53837D01*
X374038Y-9759D02*
X376474Y-29504D01*
X375987Y-9267D02*
X378486Y-29837D01*
X357680Y52163D02*
Y58153D01*
X359586Y52163D02*
Y59263D01*
X359986D02*
Y64100D01*
X361986Y59263D02*
Y64100D01*
X362386Y52163D02*
Y59263D01*
X364486Y-26837D02*
Y-21609D01*
X364586Y-25971D02*
Y-20786D01*
Y52163D02*
Y59263D01*
X364986D02*
Y64100D01*
X365466Y-29938D02*
Y-29837D01*
X365486Y-29938D02*
Y-29720D01*
X366486Y-9337D02*
Y-7688D01*
X366986Y59263D02*
Y64100D01*
X367386Y52163D02*
Y59263D01*
Y-14207D02*
Y-9337D01*
X367486Y-13397D02*
Y-9337D01*
X367935Y-10395D02*
Y-9759D01*
X367955Y-10395D02*
Y-9058D01*
X368170Y-9838D02*
Y-7959D01*
X369586Y52163D02*
Y59263D01*
X369986D02*
Y64100D01*
X370486Y-7336D02*
Y-6537D01*
X371487Y-7336D02*
Y-6537D01*
X371987Y59263D02*
Y64100D01*
X372387Y52163D02*
Y59263D01*
X373803Y-9838D02*
Y-7959D01*
X374017Y-10395D02*
Y-9058D01*
X374038Y-10395D02*
Y-9759D01*
X374486Y-13397D02*
Y-9337D01*
X374586Y-14207D02*
Y-9337D01*
Y52163D02*
Y59263D01*
X374986D02*
Y64100D01*
X375486Y-9337D02*
Y-7688D01*
X376486Y-29938D02*
Y-29720D01*
X376507Y-29938D02*
Y-29837D01*
X376986Y59263D02*
Y64100D01*
X377386Y52163D02*
Y59263D01*
Y-29837D02*
Y-20786D01*
X377486Y-29837D02*
Y-21609D01*
X379586Y52163D02*
Y59263D01*
X379986D02*
Y64100D01*
X381986Y59263D02*
Y64100D01*
X382386Y52163D02*
Y59263D01*
X384586Y52163D02*
Y59263D01*
X384986D02*
Y64100D01*
X386986Y59263D02*
Y64100D01*
X387386Y52163D02*
Y59263D01*
X389586Y52163D02*
Y59263D01*
X389986D02*
Y64100D01*
X391986Y59263D02*
Y64100D01*
X392386Y52163D02*
Y59263D01*
X409038Y-9759D02*
X411474Y-29504D01*
X410987Y-9267D02*
X413486Y-29837D01*
X394586Y52163D02*
Y59263D01*
X394986D02*
Y64100D01*
X396987Y59263D02*
Y64100D01*
X397387Y52163D02*
Y59263D01*
X399487Y-29837D02*
Y-21609D01*
X399586Y-29837D02*
Y-20786D01*
Y52163D02*
Y59263D01*
X399986D02*
Y64100D01*
X400466Y-29938D02*
Y-29837D01*
X400486Y-29938D02*
Y-29720D01*
X401486Y-9337D02*
Y-7688D01*
X401986Y59263D02*
Y64100D01*
X402386Y52163D02*
Y59263D01*
Y-14207D02*
Y-9337D01*
X402486Y-13397D02*
Y-9337D01*
X402935Y-10395D02*
Y-9759D01*
X402955Y-10395D02*
Y-9058D01*
X403170Y-9838D02*
Y-7959D01*
X404586Y52163D02*
Y59263D01*
X404986D02*
Y64100D01*
X405486Y-7336D02*
Y-6537D01*
X406487Y-7336D02*
Y-6537D01*
X406986Y59263D02*
Y64100D01*
X407386Y52163D02*
Y59263D01*
X408803Y-9838D02*
Y-7959D01*
X409017Y-10395D02*
Y-9058D01*
X409038Y-10395D02*
Y-9759D01*
X409487Y-13397D02*
Y-9337D01*
X409586Y-14207D02*
Y-9337D01*
Y52163D02*
Y59263D01*
X409986D02*
Y64100D01*
X410486Y-9337D02*
Y-7688D01*
X411487Y-29938D02*
Y-29720D01*
X411506Y-29938D02*
Y-29837D01*
X411987Y59263D02*
Y64100D01*
X412386Y52163D02*
Y59263D01*
Y-25971D02*
Y-20786D01*
X412486Y-26837D02*
Y-21609D01*
X414586Y52163D02*
Y59263D01*
X414986D02*
Y64100D01*
X416986Y59263D02*
Y64100D01*
X417386Y52163D02*
Y59263D01*
X419280Y52163D02*
Y58153D01*
X422187Y-53837D02*
Y52163D01*
X363486Y-29837D02*
X365986Y-9267D01*
X365499Y-29504D02*
X367935Y-9759D01*
X432041Y-43837D02*
Y-29337D01*
X432187Y-53837D02*
Y-44837D01*
X432186Y52163D02*
X432187Y-28337D01*
X434186Y34463D02*
Y40463D01*
Y-12837D02*
Y-6837D01*
X398487Y-29837D02*
X400986Y-9267D01*
X400499Y-29504D02*
X402935Y-9759D01*
X411886Y-26837D02*
X412386Y-25971D01*
X411474Y-29504D02*
X411487Y-29720D01*
X400486D02*
X400499Y-29504D01*
X376474D02*
X376486Y-29720D01*
X365486D02*
X365499Y-29504D01*
X391121Y-260688D02*
X396952Y-254857D01*
X408615D01*
X414447Y-260688D01*
Y-266520D01*
X408615Y-272351D01*
X414447Y-278183D01*
Y-284014D01*
X408615Y-289846D01*
X396952D01*
X391121Y-284014D01*
Y-278183D01*
X396952Y-272351D01*
X391121Y-266520D01*
Y-260688D01*
X396952Y-272351D02*
X408615D01*
X449435Y-254857D02*
X426110D01*
Y-272351D01*
X437772Y-266520D01*
X443604D01*
X449435Y-272351D01*
Y-284014D01*
X443604Y-289846D01*
X431941D01*
X426110Y-284014D01*
X466930Y-295677D02*
X472761Y-289846D01*
Y-284014D01*
X466930D01*
Y-289846D01*
X472761D01*
X466930Y-295677D01*
X461098Y-301508D01*
X496087Y-289846D02*
X507750D01*
X501918D01*
Y-254857D01*
X496087Y-260688D01*
X542739Y-289846D02*
Y-254857D01*
X525244Y-272351D01*
X548570D01*
X-223885Y413906D02*
Y437232D01*
X-218053D01*
X-194727Y413906D01*
X-188896D01*
Y466390D02*
X-223885D01*
X-206390Y448895D01*
Y472221D01*
X-183064Y489715D02*
X-188896Y495547D01*
X-194727D01*
Y489715D01*
X-188896D01*
Y495547D01*
X-183064Y489715D01*
X-177233Y483884D01*
X-218053Y518872D02*
X-223885Y524704D01*
Y536367D01*
X-218053Y542198D01*
X-212222D01*
X-206390Y536367D01*
X-200559Y542198D01*
X-194727D01*
X-188896Y536367D01*
Y524704D01*
X-194727Y518872D01*
X-200559D01*
X-206390Y524704D01*
X-212222Y518872D01*
X-218053D01*
X-206390Y524704D02*
Y536367D01*
X-188896Y553861D02*
Y565524D01*
Y559693D01*
X-223885D01*
X-218053Y553861D01*
X381320Y779859D02*
X348050Y790691D01*
X353465Y807326D01*
X360816Y811066D01*
X371906Y807455D01*
X375645Y800105D01*
X370230Y783470D01*
X373840Y794560D02*
X388541Y802039D01*
X397566Y829765D02*
X364296Y840596D01*
X375516Y818545D01*
X382737Y840725D01*
X887241Y96059D02*
X873333Y128165D01*
X889385Y135119D01*
X897054Y132086D01*
X901691Y121384D01*
X898658Y113715D01*
X882605Y106761D01*
X893307Y111397D02*
X908645Y105331D01*
X935399Y116922D02*
X921491Y149027D01*
X912392Y126020D01*
X933796Y135293D01*
X507745Y-147663D02*
X513576Y-141832D01*
X525239D01*
X531071Y-147663D01*
Y-153495D01*
X525239Y-159326D01*
X531071Y-165157D01*
Y-170989D01*
X525239Y-176820D01*
X513576D01*
X507745Y-170989D01*
Y-165157D01*
X513576Y-159326D01*
X507745Y-153495D01*
Y-147663D01*
X513576Y-159326D02*
X525239D01*
X548565Y-182652D02*
X554396Y-176820D01*
Y-170989D01*
X548565D01*
Y-176820D01*
X554396D01*
X548565Y-182652D01*
X542733Y-188483D01*
X577722Y-141832D02*
X601048D01*
Y-147663D01*
X577722Y-170989D01*
Y-176820D01*
X630205D02*
Y-141832D01*
X612711Y-159326D01*
X636037D01*
X625830Y-59165D02*
X631661Y-53334D01*
X643324D01*
X649156Y-59165D01*
Y-64997D01*
X643324Y-70828D01*
X637493D01*
X643324D01*
X649156Y-76660D01*
Y-82491D01*
X643324Y-88323D01*
X631661D01*
X625830Y-82491D01*
X660819Y-59165D02*
X666650Y-53334D01*
X678313D01*
X684144Y-59165D01*
Y-64997D01*
X678313Y-70828D01*
X684144Y-76660D01*
Y-82491D01*
X678313Y-88323D01*
X666650D01*
X660819Y-82491D01*
Y-76660D01*
X666650Y-70828D01*
X660819Y-64997D01*
Y-59165D01*
X666650Y-70828D02*
X678313D01*
X701639Y-94154D02*
X707470Y-88323D01*
Y-82491D01*
X701639D01*
Y-88323D01*
X707470D01*
X701639Y-94154D01*
X695807Y-99986D01*
X754122Y-88323D02*
X730796D01*
X754122Y-64997D01*
Y-59165D01*
X748290Y-53334D01*
X736628D01*
X730796Y-59165D01*
D142*
X594079Y8221D02*
D03*
D143*
X474560Y8343D02*
D03*
M02*
