G04*
G04 #@! TF.GenerationSoftware,Altium Limited,Altium Designer,19.0.12 (326)*
G04*
G04 Layer_Color=16711935*
%FSLAX44Y44*%
%MOMM*%
G71*
G01*
G75*
%ADD16C,0.1270*%
%ADD38C,1.0000*%
%ADD84C,2.7432*%
%ADD85R,1.2532X1.2532*%
%ADD86C,1.2532*%
%ADD87O,1.2032X1.8032*%
%ADD88C,0.8532*%
D16*
X-29238Y20553D02*
G03*
X5403Y-39447I34641J-20000D01*
G01*
X425762Y688636D02*
G03*
X356480Y688636I-34641J-20000D01*
G01*
X776839Y-39447D02*
G03*
X811480Y20553I0J40000D01*
G01*
X-29238D02*
X356480Y688636D01*
X425762D02*
X811480Y20553D01*
X434675Y-39447D02*
X776839D01*
X5403D02*
X434675D01*
D38*
X272542Y229154D02*
D03*
X272004Y244094D02*
D03*
X501650Y171704D02*
D03*
X486156D02*
D03*
X501650Y189484D02*
D03*
X470662Y171704D02*
D03*
X127762Y93726D02*
D03*
X290068Y93726D02*
D03*
X240030Y171704D02*
D03*
X257302Y171958D02*
D03*
X577596Y18288D02*
D03*
X597916D02*
D03*
X165608Y302514D02*
D03*
X271649Y212379D02*
D03*
X270256Y275590D02*
D03*
X271018Y259080D02*
D03*
X270002Y290830D02*
D03*
X690372Y156846D02*
D03*
X498792Y138748D02*
D03*
X515874Y350774D02*
D03*
X505206Y329692D02*
D03*
X532638Y350774D02*
D03*
X547116Y351028D02*
D03*
X315468Y171450D02*
D03*
X299720Y171196D02*
D03*
X538226Y218114D02*
D03*
X234188Y322834D02*
D03*
X498792Y121324D02*
D03*
X270002Y320802D02*
D03*
X270256Y305816D02*
D03*
Y337820D02*
D03*
X234188Y338836D02*
D03*
X47760Y4973D02*
D03*
X210312Y322976D02*
D03*
X357632Y148045D02*
D03*
X358140Y130302D02*
D03*
X391414Y150170D02*
D03*
X408178Y149606D02*
D03*
X356870Y171704D02*
D03*
X370470Y159766D02*
D03*
X383794Y171704D02*
D03*
X435102D02*
D03*
X210312Y339598D02*
D03*
X127762Y55372D02*
D03*
X532638Y330200D02*
D03*
X272542Y194310D02*
D03*
X679450Y-3810D02*
D03*
X261112Y93726D02*
D03*
X633222Y95657D02*
D03*
X643382Y112268D02*
D03*
X589280Y2286D02*
D03*
X709422Y112268D02*
D03*
X726948Y94996D02*
D03*
X425952Y123444D02*
D03*
Y141693D02*
D03*
X564896Y143764D02*
D03*
X565238Y127048D02*
D03*
D84*
X80010Y137414D02*
D03*
X746506Y12446D02*
D03*
X391121Y640588D02*
D03*
D85*
X681990Y86868D02*
D03*
X554482Y242824D02*
D03*
D86*
X681990Y99568D02*
D03*
Y112268D02*
D03*
Y124968D02*
D03*
Y137668D02*
D03*
X669290Y86868D02*
D03*
Y99568D02*
D03*
Y112268D02*
D03*
Y124968D02*
D03*
Y137668D02*
D03*
X541782Y293624D02*
D03*
Y280924D02*
D03*
Y268224D02*
D03*
Y255524D02*
D03*
Y242824D02*
D03*
X554482Y293624D02*
D03*
Y280924D02*
D03*
Y268224D02*
D03*
Y255524D02*
D03*
D87*
X346936Y-9968D02*
D03*
Y37332D02*
D03*
X432336Y-9968D02*
D03*
Y37332D02*
D03*
D88*
X361636Y48832D02*
D03*
X381636Y41832D02*
D03*
X365636D02*
D03*
X369636Y48832D02*
D03*
X373636Y41832D02*
D03*
X377636Y48832D02*
D03*
X385636D02*
D03*
X397636Y41832D02*
D03*
X405636D02*
D03*
X393636Y48832D02*
D03*
X401636D02*
D03*
X409636D02*
D03*
X413636Y41832D02*
D03*
X417636Y48832D02*
D03*
M02*
