M48
;Layer_Color=9474304
;FILE_FORMAT=4:4
METRIC,TZ
;TYPE=PLATED
T1F00S00C0.2032
T2F00S00C0.2540
%
T01
X1657350Y-48768
X1662498Y-45750
X1672848Y-44704
T02
X38227Y7796
X69935Y12368
X113227Y7796
X144935Y12368
X188227Y7796
X219935Y12368
X263226Y7795
X294430Y12367
X338226Y7795
X369934Y12367
X413226Y7795
X444406Y12367
X488226Y7795
X519934Y12367
X563226Y7795
X594416Y12367
X638226Y7795
X669934Y12367
X713227Y7796
X744431Y12368
X788226Y7795
X819934Y12367
X863227Y7796
X894431Y12368
X938226Y7795
X969934Y12367
X1013226Y7795
X1044430Y12367
X1088226Y7795
X1119934Y12367
X1163226Y7795
X1194430Y12367
X1238253Y7796
X1269961Y12368
X1313226Y7795
X1344430Y13129
X1388480Y8557
X1419934Y13129
X1463226Y7795
X1493708Y12954
X1537720Y8382
X1569174Y12954
X1666752Y-40640
M30
