G04*
G04 #@! TF.GenerationSoftware,Altium Limited,Altium Designer,19.0.12 (326)*
G04*
G04 Layer_Color=16711935*
%FSLAX44Y44*%
%MOMM*%
G71*
G01*
G75*
%ADD11C,0.2540*%
%ADD21C,0.1270*%
%ADD34C,0.2000*%
%ADD35C,0.5000*%
D11*
X-1011936Y-192373D02*
Y-172380D01*
X-998607Y-192373D01*
Y-172380D01*
X-981946D02*
X-988610D01*
X-991942Y-175712D01*
Y-189041D01*
X-988610Y-192373D01*
X-981946D01*
X-978613Y-189041D01*
Y-175712D01*
X-981946Y-172380D01*
X-971949D02*
X-958620D01*
X-965284D01*
Y-192373D01*
X-938626Y-172380D02*
X-951955D01*
Y-192373D01*
X-938626D01*
X-951955Y-182377D02*
X-945291D01*
X-918633Y-175712D02*
X-921965Y-172380D01*
X-928630D01*
X-931962Y-175712D01*
Y-179044D01*
X-928630Y-182377D01*
X-921965D01*
X-918633Y-185709D01*
Y-189041D01*
X-921965Y-192373D01*
X-928630D01*
X-931962Y-189041D01*
X-911968Y-179044D02*
X-908636D01*
Y-182377D01*
X-911968D01*
Y-179044D01*
Y-189041D02*
X-908636D01*
Y-192373D01*
X-911968D01*
Y-189041D01*
X-1011936Y-252550D02*
X-1005272D01*
X-1008604D01*
Y-232556D01*
X-1011936Y-235889D01*
X-995275Y-252550D02*
Y-249218D01*
X-991943D01*
Y-252550D01*
X-995275D01*
X-958620D02*
Y-239221D01*
X-951955Y-232556D01*
X-945291Y-239221D01*
Y-252550D01*
Y-242553D01*
X-958620D01*
X-938626Y-232556D02*
Y-252550D01*
X-925297D01*
X-918633Y-232556D02*
Y-252550D01*
X-905304D01*
X-878646D02*
Y-239221D01*
X-871981Y-232556D01*
X-865317Y-239221D01*
Y-252550D01*
Y-242553D01*
X-878646D01*
X-845323Y-235889D02*
X-848655Y-232556D01*
X-855320D01*
X-858652Y-235889D01*
Y-239221D01*
X-855320Y-242553D01*
X-848655D01*
X-845323Y-245885D01*
Y-249218D01*
X-848655Y-252550D01*
X-855320D01*
X-858652Y-249218D01*
X-825330Y-235889D02*
X-828662Y-232556D01*
X-835326D01*
X-838659Y-235889D01*
Y-239221D01*
X-835326Y-242553D01*
X-828662D01*
X-825330Y-245885D01*
Y-249218D01*
X-828662Y-252550D01*
X-835326D01*
X-838659Y-249218D01*
X-805336Y-232556D02*
X-818665D01*
Y-252550D01*
X-805336D01*
X-818665Y-242553D02*
X-812001D01*
X-798671Y-252550D02*
Y-232556D01*
X-792007Y-239221D01*
X-785342Y-232556D01*
Y-252550D01*
X-778678Y-232556D02*
Y-252550D01*
X-768681D01*
X-765349Y-249218D01*
Y-245885D01*
X-768681Y-242553D01*
X-778678D01*
X-768681D01*
X-765349Y-239221D01*
Y-235889D01*
X-768681Y-232556D01*
X-778678D01*
X-758684D02*
Y-252550D01*
X-745355D01*
X-738691Y-232556D02*
Y-235889D01*
X-732026Y-242553D01*
X-725362Y-235889D01*
Y-232556D01*
X-732026Y-242553D02*
Y-252550D01*
X-698704D02*
Y-232556D01*
X-692039Y-239221D01*
X-685375Y-232556D01*
Y-252550D01*
X-678710D02*
Y-239221D01*
X-672046Y-232556D01*
X-665381Y-239221D01*
Y-252550D01*
Y-242553D01*
X-678710D01*
X-658717Y-232556D02*
X-645387D01*
X-652052D01*
Y-252550D01*
X-625394Y-232556D02*
X-638723D01*
Y-252550D01*
X-625394D01*
X-638723Y-242553D02*
X-632058D01*
X-618729Y-252550D02*
Y-232556D01*
X-608733D01*
X-605400Y-235889D01*
Y-242553D01*
X-608733Y-245885D01*
X-618729D01*
X-612065D02*
X-605400Y-252550D01*
X-598736Y-232556D02*
X-592071D01*
X-595404D01*
Y-252550D01*
X-598736D01*
X-592071D01*
X-582075D02*
Y-239221D01*
X-575410Y-232556D01*
X-568745Y-239221D01*
Y-252550D01*
Y-242553D01*
X-582075D01*
X-562081Y-232556D02*
Y-252550D01*
X-548752D01*
X-528758Y-235889D02*
X-532091Y-232556D01*
X-538755D01*
X-542087Y-235889D01*
Y-239221D01*
X-538755Y-242553D01*
X-532091D01*
X-528758Y-245885D01*
Y-249218D01*
X-532091Y-252550D01*
X-538755D01*
X-542087Y-249218D01*
X-502100Y-232556D02*
X-488771D01*
X-495436D01*
Y-252550D01*
X-472110Y-232556D02*
X-478774D01*
X-482107Y-235889D01*
Y-249218D01*
X-478774Y-252550D01*
X-472110D01*
X-468778Y-249218D01*
Y-235889D01*
X-472110Y-232556D01*
X-442120D02*
Y-252550D01*
X-432123D01*
X-428791Y-249218D01*
Y-245885D01*
X-432123Y-242553D01*
X-442120D01*
X-432123D01*
X-428791Y-239221D01*
Y-235889D01*
X-432123Y-232556D01*
X-442120D01*
X-408797D02*
X-422126D01*
Y-252550D01*
X-408797D01*
X-422126Y-242553D02*
X-415462D01*
X-382139Y-252550D02*
Y-232556D01*
X-372142D01*
X-368810Y-235889D01*
Y-242553D01*
X-372142Y-245885D01*
X-382139D01*
X-375474D02*
X-368810Y-252550D01*
X-358813D02*
X-352149D01*
X-348816Y-249218D01*
Y-242553D01*
X-352149Y-239221D01*
X-358813D01*
X-362145Y-242553D01*
Y-249218D01*
X-358813Y-252550D01*
X-342152Y-232556D02*
Y-252550D01*
Y-242553D01*
X-328823D01*
Y-232556D01*
Y-252550D01*
X-308829Y-235889D02*
X-312162Y-232556D01*
X-318826D01*
X-322158Y-235889D01*
Y-239221D01*
X-318826Y-242553D01*
X-312162D01*
X-308829Y-245885D01*
Y-249218D01*
X-312162Y-252550D01*
X-318826D01*
X-322158Y-249218D01*
X-268842Y-235889D02*
X-272174Y-232556D01*
X-278839D01*
X-282171Y-235889D01*
Y-249218D01*
X-278839Y-252550D01*
X-272174D01*
X-268842Y-249218D01*
X-252181Y-232556D02*
X-258845D01*
X-262178Y-235889D01*
Y-249218D01*
X-258845Y-252550D01*
X-252181D01*
X-248848Y-249218D01*
Y-235889D01*
X-252181Y-232556D01*
X-242184Y-252550D02*
Y-232556D01*
X-235520Y-239221D01*
X-228855Y-232556D01*
Y-252550D01*
X-222190D02*
Y-232556D01*
X-212194D01*
X-208861Y-235889D01*
Y-242553D01*
X-212194Y-245885D01*
X-222190D01*
X-202197Y-232556D02*
Y-252550D01*
X-188868D01*
X-182203Y-232556D02*
X-175539D01*
X-178871D01*
Y-252550D01*
X-182203D01*
X-175539D01*
X-165542D02*
Y-239221D01*
X-158878Y-232556D01*
X-152213Y-239221D01*
Y-252550D01*
Y-242553D01*
X-165542D01*
X-145548Y-252550D02*
Y-232556D01*
X-132219Y-252550D01*
Y-232556D01*
X-125555D02*
X-112226D01*
X-118890D01*
Y-252550D01*
X-105561D02*
Y-249218D01*
X-102229D01*
Y-252550D01*
X-105561D01*
X-998607Y-312726D02*
X-1011936D01*
X-998607Y-299397D01*
Y-296065D01*
X-1001939Y-292733D01*
X-1008604D01*
X-1011936Y-296065D01*
X-991942Y-312726D02*
Y-309394D01*
X-988610D01*
Y-312726D01*
X-991942D01*
X-955288D02*
Y-292733D01*
X-948623Y-299397D01*
X-941959Y-292733D01*
Y-312726D01*
X-935294D02*
Y-299397D01*
X-928630Y-292733D01*
X-921965Y-299397D01*
Y-312726D01*
Y-302730D01*
X-935294D01*
X-915301Y-292733D02*
X-901971D01*
X-908636D01*
Y-312726D01*
X-881978Y-292733D02*
X-895307D01*
Y-312726D01*
X-881978D01*
X-895307Y-302730D02*
X-888642D01*
X-875313Y-312726D02*
Y-292733D01*
X-865317D01*
X-861984Y-296065D01*
Y-302730D01*
X-865317Y-306062D01*
X-875313D01*
X-868649D02*
X-861984Y-312726D01*
X-855320Y-292733D02*
X-848655D01*
X-851988D01*
Y-312726D01*
X-855320D01*
X-848655D01*
X-838659D02*
Y-299397D01*
X-831994Y-292733D01*
X-825330Y-299397D01*
Y-312726D01*
Y-302730D01*
X-838659D01*
X-818665Y-292733D02*
Y-312726D01*
X-805336D01*
X-798671Y-299397D02*
X-795339D01*
Y-302730D01*
X-798671D01*
Y-299397D01*
Y-309394D02*
X-795339D01*
Y-312726D01*
X-798671D01*
Y-309394D01*
X-808668Y-346147D02*
X-802004D01*
X-798671Y-342815D01*
Y-336150D01*
X-802004Y-332818D01*
X-808668D01*
X-812000Y-336150D01*
Y-342815D01*
X-808668Y-346147D01*
Y-322821D02*
X-802004Y-326153D01*
X-758684D02*
X-772013D01*
Y-336150D01*
X-765349D01*
X-772013D01*
Y-346147D01*
X-752020Y-326153D02*
Y-346147D01*
X-738691D01*
X-718697Y-326153D02*
X-732026D01*
Y-346147D01*
X-718697D01*
X-732026Y-336150D02*
X-725362D01*
X-712033Y-326153D02*
X-698704Y-346147D01*
Y-326153D02*
X-712033Y-346147D01*
X-692039Y-326153D02*
X-685375D01*
X-688707D01*
Y-346147D01*
X-692039D01*
X-685375D01*
X-675378Y-326153D02*
Y-346147D01*
X-665381D01*
X-662049Y-342815D01*
Y-339482D01*
X-665381Y-336150D01*
X-675378D01*
X-665381D01*
X-662049Y-332818D01*
Y-329486D01*
X-665381Y-326153D01*
X-675378D01*
X-655384D02*
Y-346147D01*
X-642055D01*
X-622062Y-326153D02*
X-635391D01*
Y-346147D01*
X-622062D01*
X-635391Y-336150D02*
X-628726D01*
X-595404Y-346147D02*
Y-326153D01*
X-588739Y-332818D01*
X-582075Y-326153D01*
Y-346147D01*
X-562081Y-326153D02*
X-575410D01*
Y-346147D01*
X-562081D01*
X-575410Y-336150D02*
X-568745D01*
X-555416Y-326153D02*
X-542087D01*
X-548752D01*
Y-346147D01*
X-535423D02*
Y-332818D01*
X-528758Y-326153D01*
X-522094Y-332818D01*
Y-346147D01*
Y-336150D01*
X-535423D01*
X-515429Y-326153D02*
Y-346147D01*
X-502100D01*
X-462113Y-329486D02*
X-465445Y-326153D01*
X-472110D01*
X-475442Y-329486D01*
Y-342815D01*
X-472110Y-346147D01*
X-465445D01*
X-462113Y-342815D01*
X-455449Y-326153D02*
Y-346147D01*
X-442120D01*
X-435455D02*
Y-332818D01*
X-428791Y-326153D01*
X-422126Y-332818D01*
Y-346147D01*
Y-336150D01*
X-435455D01*
X-415462Y-326153D02*
Y-346147D01*
X-405465D01*
X-402132Y-342815D01*
Y-329486D01*
X-405465Y-326153D01*
X-415462D01*
X-375474D02*
Y-346147D01*
X-365478D01*
X-362145Y-342815D01*
Y-329486D01*
X-365478Y-326153D01*
X-375474D01*
X-355481D02*
X-348816D01*
X-352149D01*
Y-346147D01*
X-355481D01*
X-348816D01*
X-325490Y-326153D02*
X-338820D01*
Y-346147D01*
X-325490D01*
X-338820Y-336150D02*
X-332155D01*
X-318826Y-326153D02*
Y-346147D01*
X-305497D01*
X-285503Y-326153D02*
X-298832D01*
Y-346147D01*
X-285503D01*
X-298832Y-336150D02*
X-292168D01*
X-265510Y-329486D02*
X-268842Y-326153D01*
X-275507D01*
X-278839Y-329486D01*
Y-342815D01*
X-275507Y-346147D01*
X-268842D01*
X-265510Y-342815D01*
X-258845Y-326153D02*
X-245516D01*
X-252181D01*
Y-346147D01*
X-238852D02*
Y-326153D01*
X-228855D01*
X-225523Y-329486D01*
Y-336150D01*
X-228855Y-339482D01*
X-238852D01*
X-232187D02*
X-225523Y-346147D01*
X-218858Y-326153D02*
X-212194D01*
X-215526D01*
Y-346147D01*
X-218858D01*
X-212194D01*
X-188868Y-329486D02*
X-192200Y-326153D01*
X-198865D01*
X-202197Y-329486D01*
Y-342815D01*
X-198865Y-346147D01*
X-192200D01*
X-188868Y-342815D01*
X-162210Y-326153D02*
X-155545D01*
X-158877D01*
Y-346147D01*
X-162210D01*
X-155545D01*
X-145548D02*
Y-332818D01*
X-138884Y-326153D01*
X-132219Y-332818D01*
Y-346147D01*
Y-336150D01*
X-145548D01*
X-125555Y-326153D02*
Y-346147D01*
X-118890Y-339482D01*
X-112226Y-346147D01*
Y-326153D01*
X-772013Y-356242D02*
X-765349D01*
X-768681D01*
Y-376235D01*
X-772013D01*
X-765349D01*
X-755352D02*
Y-356242D01*
X-745355D01*
X-742023Y-359574D01*
Y-366239D01*
X-745355Y-369571D01*
X-755352D01*
X-722029Y-359574D02*
X-725362Y-356242D01*
X-732026D01*
X-735358Y-359574D01*
Y-372903D01*
X-732026Y-376235D01*
X-725362D01*
X-722029Y-372903D01*
X-715365Y-366239D02*
X-702036D01*
X-685375Y-376235D02*
Y-356242D01*
X-695371Y-366239D01*
X-682042D01*
X-662049Y-376235D02*
X-675378D01*
X-662049Y-362906D01*
Y-359574D01*
X-665381Y-356242D01*
X-672046D01*
X-675378Y-359574D01*
X-655384D02*
X-652052Y-356242D01*
X-645387D01*
X-642055Y-359574D01*
Y-372903D01*
X-645387Y-376235D01*
X-652052D01*
X-655384Y-372903D01*
Y-359574D01*
X-625394Y-376235D02*
Y-356242D01*
X-635391Y-366239D01*
X-622062D01*
X-615397Y-376235D02*
X-602068Y-362906D01*
X-595404Y-376235D02*
X-588739D01*
X-592071D01*
Y-356242D01*
X-595404Y-359574D01*
X-578742Y-376235D02*
X-572078D01*
X-575410D01*
Y-356242D01*
X-578742Y-359574D01*
X-528758Y-356242D02*
X-542087D01*
Y-376235D01*
X-528758D01*
X-542087Y-366239D02*
X-535423D01*
X-522094Y-376235D02*
X-515429D01*
X-518762D01*
Y-356242D01*
X-522094Y-359574D01*
X-492104Y-356242D02*
X-505433D01*
Y-376235D01*
X-492104D01*
X-505433Y-366239D02*
X-498768D01*
X-472110Y-376235D02*
X-485439D01*
X-472110Y-362906D01*
Y-359574D01*
X-475442Y-356242D01*
X-482107D01*
X-485439Y-359574D01*
X-435455Y-356242D02*
X-442120D01*
X-445452Y-359574D01*
Y-372903D01*
X-442120Y-376235D01*
X-435455D01*
X-432123Y-372903D01*
Y-359574D01*
X-435455Y-356242D01*
X-425458Y-359574D02*
X-422126Y-356242D01*
X-415462D01*
X-412129Y-359574D01*
Y-372903D01*
X-415462Y-376235D01*
X-422126D01*
X-425458Y-372903D01*
Y-359574D01*
X-405465Y-376235D02*
X-392136Y-362906D01*
X-385471Y-359574D02*
X-382139Y-356242D01*
X-375474D01*
X-372142Y-359574D01*
Y-372903D01*
X-375474Y-376235D01*
X-382139D01*
X-385471Y-372903D01*
Y-359574D01*
X-332155D02*
X-335487Y-356242D01*
X-342152D01*
X-345484Y-359574D01*
Y-372903D01*
X-342152Y-376235D01*
X-335487D01*
X-332155Y-372903D01*
X-325490Y-356242D02*
Y-372903D01*
X-322158Y-376235D01*
X-315494D01*
X-312162Y-372903D01*
Y-356242D01*
X-285503D02*
Y-376235D01*
X-278839Y-369571D01*
X-272174Y-376235D01*
Y-356242D01*
X-265510D02*
X-252181D01*
Y-359574D01*
X-265510Y-372903D01*
Y-376235D01*
X-225523Y-356242D02*
X-212194D01*
X-218858D01*
Y-376235D01*
X-205529D02*
X-192200Y-362906D01*
X-185536Y-356242D02*
X-172207D01*
X-178871D01*
Y-376235D01*
X-808668Y-409656D02*
X-802004D01*
X-798671Y-406324D01*
Y-399659D01*
X-802004Y-396327D01*
X-808668D01*
X-812000Y-399659D01*
Y-406324D01*
X-808668Y-409656D01*
Y-386330D02*
X-802004Y-389662D01*
X-758684Y-392994D02*
X-762017Y-389662D01*
X-768681D01*
X-772013Y-392994D01*
Y-396327D01*
X-768681Y-399659D01*
X-762017D01*
X-758684Y-402991D01*
Y-406324D01*
X-762017Y-409656D01*
X-768681D01*
X-772013Y-406324D01*
X-752020Y-389662D02*
X-738691D01*
X-745355D01*
Y-409656D01*
X-732026Y-389662D02*
X-725362D01*
X-728694D01*
Y-409656D01*
X-732026D01*
X-725362D01*
X-702036Y-389662D02*
X-715365D01*
Y-399659D01*
X-708700D01*
X-715365D01*
Y-409656D01*
X-682042Y-389662D02*
X-695371D01*
Y-399659D01*
X-688707D01*
X-695371D01*
Y-409656D01*
X-662049Y-389662D02*
X-675378D01*
Y-409656D01*
X-662049D01*
X-675378Y-399659D02*
X-668713D01*
X-655384Y-409656D02*
Y-389662D01*
X-642055Y-409656D01*
Y-389662D01*
X-622062D02*
X-635391D01*
Y-409656D01*
X-622062D01*
X-635391Y-399659D02*
X-628726D01*
X-615397Y-409656D02*
Y-389662D01*
X-605400D01*
X-602068Y-392994D01*
Y-399659D01*
X-605400Y-402991D01*
X-615397D01*
X-608733D02*
X-602068Y-409656D01*
X-575410Y-389662D02*
X-568745D01*
X-572078D01*
Y-409656D01*
X-575410D01*
X-568745D01*
X-558749D02*
Y-396327D01*
X-552084Y-389662D01*
X-545420Y-396327D01*
Y-409656D01*
Y-399659D01*
X-558749D01*
X-538755Y-389662D02*
Y-409656D01*
X-532091Y-402991D01*
X-525426Y-409656D01*
Y-389662D01*
X-498768D02*
X-492104D01*
X-495436D01*
Y-409656D01*
X-498768D01*
X-492104D01*
X-482107D02*
Y-389662D01*
X-472110D01*
X-468778Y-392994D01*
Y-399659D01*
X-472110Y-402991D01*
X-482107D01*
X-448784Y-392994D02*
X-452116Y-389662D01*
X-458781D01*
X-462113Y-392994D01*
Y-406324D01*
X-458781Y-409656D01*
X-452116D01*
X-448784Y-406324D01*
X-442120Y-399659D02*
X-428791D01*
X-412129Y-409656D02*
Y-389662D01*
X-422126Y-399659D01*
X-408797D01*
X-388803Y-409656D02*
X-402132D01*
X-388803Y-396327D01*
Y-392994D01*
X-392136Y-389662D01*
X-398800D01*
X-402132Y-392994D01*
X-382139D02*
X-378807Y-389662D01*
X-372142D01*
X-368810Y-392994D01*
Y-406324D01*
X-372142Y-409656D01*
X-378807D01*
X-382139Y-406324D01*
Y-392994D01*
X-362145D02*
X-358813Y-389662D01*
X-352149D01*
X-348816Y-392994D01*
Y-396327D01*
X-352149Y-399659D01*
X-355481D01*
X-352149D01*
X-348816Y-402991D01*
Y-406324D01*
X-352149Y-409656D01*
X-358813D01*
X-362145Y-406324D01*
X-342152Y-409656D02*
X-328823Y-396327D01*
X-322158Y-409656D02*
X-315494D01*
X-318826D01*
Y-389662D01*
X-322158Y-392994D01*
X-305497Y-399659D02*
X-292168D01*
X-272174Y-389662D02*
X-285503D01*
Y-409656D01*
X-272174D01*
X-285503Y-399659D02*
X-278839D01*
X-265510Y-409656D02*
X-258845D01*
X-262178D01*
Y-389662D01*
X-265510Y-392994D01*
X-235520Y-389662D02*
X-248849D01*
Y-409656D01*
X-235520D01*
X-248849Y-399659D02*
X-242184D01*
X-228855Y-392994D02*
X-225523Y-389662D01*
X-218858D01*
X-215526Y-392994D01*
Y-396327D01*
X-218858Y-399659D01*
X-215526Y-402991D01*
Y-406324D01*
X-218858Y-409656D01*
X-225523D01*
X-228855Y-406324D01*
Y-402991D01*
X-225523Y-399659D01*
X-228855Y-396327D01*
Y-392994D01*
X-225523Y-399659D02*
X-218858D01*
X-208862Y-409656D02*
Y-389662D01*
X-202197Y-396327D01*
X-195532Y-389662D01*
Y-409656D01*
X-188868D02*
X-182203D01*
X-185536D01*
Y-389662D01*
X-188868Y-392994D01*
X-1011936Y-453171D02*
X-1008604Y-449839D01*
X-1001939D01*
X-998607Y-453171D01*
Y-456503D01*
X-1001939Y-459836D01*
X-1005272D01*
X-1001939D01*
X-998607Y-463168D01*
Y-466500D01*
X-1001939Y-469832D01*
X-1008604D01*
X-1011936Y-466500D01*
X-991942Y-469832D02*
Y-466500D01*
X-988610D01*
Y-469832D01*
X-991942D01*
X-941959Y-449839D02*
X-955288D01*
Y-459836D01*
X-948623D01*
X-955288D01*
Y-469832D01*
X-935294Y-449839D02*
X-928630D01*
X-931962D01*
Y-469832D01*
X-935294D01*
X-928630D01*
X-918633D02*
Y-449839D01*
X-905304Y-469832D01*
Y-449839D01*
X-898639D02*
X-891975D01*
X-895307D01*
Y-469832D01*
X-898639D01*
X-891975D01*
X-868649Y-453171D02*
X-871981Y-449839D01*
X-878646D01*
X-881978Y-453171D01*
Y-456503D01*
X-878646Y-459836D01*
X-871981D01*
X-868649Y-463168D01*
Y-466500D01*
X-871981Y-469832D01*
X-878646D01*
X-881978Y-466500D01*
X-861984Y-449839D02*
Y-469832D01*
Y-459836D01*
X-848655D01*
Y-449839D01*
Y-469832D01*
X-841991Y-456503D02*
X-838659D01*
Y-459836D01*
X-841991D01*
Y-456503D01*
Y-466500D02*
X-838659D01*
Y-469832D01*
X-841991D01*
Y-466500D01*
X-785342Y-449839D02*
X-778678D01*
X-782010D01*
Y-469832D01*
X-785342D01*
X-778678D01*
X-768681D02*
Y-449839D01*
X-762017Y-456503D01*
X-755352Y-449839D01*
Y-469832D01*
X-748688D02*
Y-449839D01*
X-742023Y-456503D01*
X-735359Y-449839D01*
Y-469832D01*
X-715365Y-449839D02*
X-728694D01*
Y-469832D01*
X-715365D01*
X-728694Y-459836D02*
X-722029D01*
X-708700Y-469832D02*
Y-449839D01*
X-698704D01*
X-695371Y-453171D01*
Y-459836D01*
X-698704Y-463168D01*
X-708700D01*
X-702036D02*
X-695371Y-469832D01*
X-675378Y-453171D02*
X-678710Y-449839D01*
X-685375D01*
X-688707Y-453171D01*
Y-456503D01*
X-685375Y-459836D01*
X-678710D01*
X-675378Y-463168D01*
Y-466500D01*
X-678710Y-469832D01*
X-685375D01*
X-688707Y-466500D01*
X-668713Y-449839D02*
X-662049D01*
X-665381D01*
Y-469832D01*
X-668713D01*
X-662049D01*
X-642055Y-449839D02*
X-648720D01*
X-652052Y-453171D01*
Y-466500D01*
X-648720Y-469832D01*
X-642055D01*
X-638723Y-466500D01*
Y-453171D01*
X-642055Y-449839D01*
X-632058Y-469832D02*
Y-449839D01*
X-618729Y-469832D01*
Y-449839D01*
X-578742Y-453171D02*
X-582075Y-449839D01*
X-588739D01*
X-592071Y-453171D01*
Y-466500D01*
X-588739Y-469832D01*
X-582075D01*
X-578742Y-466500D01*
Y-459836D01*
X-585407D01*
X-562081Y-449839D02*
X-568745D01*
X-572078Y-453171D01*
Y-466500D01*
X-568745Y-469832D01*
X-562081D01*
X-558749Y-466500D01*
Y-453171D01*
X-562081Y-449839D01*
X-552084D02*
Y-469832D01*
X-538755D01*
X-532091Y-449839D02*
Y-469832D01*
X-522094D01*
X-518762Y-466500D01*
Y-453171D01*
X-522094Y-449839D01*
X-532091D01*
X-1011936Y-530009D02*
Y-516680D01*
X-1005272Y-510015D01*
X-998607Y-516680D01*
Y-530009D01*
Y-520012D01*
X-1011936D01*
X-991942Y-510015D02*
Y-530009D01*
X-978613D01*
X-971949Y-510015D02*
Y-530009D01*
X-958620D01*
X-918633Y-510015D02*
X-931962D01*
Y-530009D01*
X-918633D01*
X-931962Y-520012D02*
X-925297D01*
X-911968Y-510015D02*
X-898639Y-530009D01*
Y-510015D02*
X-911968Y-530009D01*
X-891975D02*
Y-510015D01*
X-881978D01*
X-878646Y-513348D01*
Y-520012D01*
X-881978Y-523344D01*
X-891975D01*
X-861984Y-510015D02*
X-868649D01*
X-871981Y-513348D01*
Y-526677D01*
X-868649Y-530009D01*
X-861984D01*
X-858652Y-526677D01*
Y-513348D01*
X-861984Y-510015D01*
X-838659Y-513348D02*
X-841991Y-510015D01*
X-848655D01*
X-851988Y-513348D01*
Y-516680D01*
X-848655Y-520012D01*
X-841991D01*
X-838659Y-523344D01*
Y-526677D01*
X-841991Y-530009D01*
X-848655D01*
X-851988Y-526677D01*
X-818665Y-510015D02*
X-831994D01*
Y-530009D01*
X-818665D01*
X-831994Y-520012D02*
X-825330D01*
X-812000Y-510015D02*
Y-530009D01*
X-802004D01*
X-798671Y-526677D01*
Y-513348D01*
X-802004Y-510015D01*
X-812000D01*
X-758684Y-513348D02*
X-762017Y-510015D01*
X-768681D01*
X-772013Y-513348D01*
Y-526677D01*
X-768681Y-530009D01*
X-762017D01*
X-758684Y-526677D01*
X-742023Y-510015D02*
X-748688D01*
X-752020Y-513348D01*
Y-526677D01*
X-748688Y-530009D01*
X-742023D01*
X-738691Y-526677D01*
Y-513348D01*
X-742023Y-510015D01*
X-732026Y-530009D02*
Y-510015D01*
X-718697Y-530009D01*
Y-510015D01*
X-712033D02*
Y-530009D01*
X-702036D01*
X-698704Y-526677D01*
Y-513348D01*
X-702036Y-510015D01*
X-712033D01*
X-692039D02*
Y-526677D01*
X-688707Y-530009D01*
X-682042D01*
X-678710Y-526677D01*
Y-510015D01*
X-658717Y-513348D02*
X-662049Y-510015D01*
X-668713D01*
X-672046Y-513348D01*
Y-526677D01*
X-668713Y-530009D01*
X-662049D01*
X-658717Y-526677D01*
X-652052Y-510015D02*
X-638723D01*
X-645387D01*
Y-530009D01*
X-632058Y-510015D02*
X-625394D01*
X-628726D01*
Y-530009D01*
X-632058D01*
X-625394D01*
X-615397Y-510015D02*
Y-523344D01*
X-608733Y-530009D01*
X-602068Y-523344D01*
Y-510015D01*
X-582075D02*
X-595404D01*
Y-530009D01*
X-582075D01*
X-595404Y-520012D02*
X-588739D01*
X-555416Y-530009D02*
Y-510015D01*
X-545420D01*
X-542087Y-513348D01*
Y-520012D01*
X-545420Y-523344D01*
X-555416D01*
X-535423Y-530009D02*
Y-516680D01*
X-528758Y-510015D01*
X-522094Y-516680D01*
Y-530009D01*
Y-520012D01*
X-535423D01*
X-515429Y-510015D02*
X-502100D01*
X-508765D01*
Y-530009D01*
X-495436Y-510015D02*
X-482107D01*
X-488771D01*
Y-530009D01*
X-462113Y-510015D02*
X-475442D01*
Y-530009D01*
X-462113D01*
X-475442Y-520012D02*
X-468778D01*
X-455449Y-530009D02*
Y-510015D01*
X-445452D01*
X-442120Y-513348D01*
Y-520012D01*
X-445452Y-523344D01*
X-455449D01*
X-448784D02*
X-442120Y-530009D01*
X-435455D02*
Y-510015D01*
X-422126Y-530009D01*
Y-510015D01*
X-395468Y-530009D02*
Y-516680D01*
X-388803Y-510015D01*
X-382139Y-516680D01*
Y-530009D01*
Y-520012D01*
X-395468D01*
X-375474Y-530009D02*
Y-510015D01*
X-365478D01*
X-362145Y-513348D01*
Y-520012D01*
X-365478Y-523344D01*
X-375474D01*
X-368810D02*
X-362145Y-530009D01*
X-342152Y-510015D02*
X-355481D01*
Y-530009D01*
X-342152D01*
X-355481Y-520012D02*
X-348816D01*
X-335487Y-530009D02*
Y-516680D01*
X-328823Y-510015D01*
X-322158Y-516680D01*
Y-530009D01*
Y-520012D01*
X-335487D01*
X-302165Y-513348D02*
X-305497Y-510015D01*
X-312162D01*
X-315494Y-513348D01*
Y-516680D01*
X-312162Y-520012D01*
X-305497D01*
X-302165Y-523344D01*
Y-526677D01*
X-305497Y-530009D01*
X-312162D01*
X-315494Y-526677D01*
X-275507Y-530009D02*
Y-510015D01*
X-262178Y-530009D01*
Y-510015D01*
X-245516D02*
X-252181D01*
X-255513Y-513348D01*
Y-526677D01*
X-252181Y-530009D01*
X-245516D01*
X-242184Y-526677D01*
Y-513348D01*
X-245516Y-510015D01*
X-235520D02*
X-222190D01*
X-228855D01*
Y-530009D01*
X-182203Y-513348D02*
X-185536Y-510015D01*
X-192200D01*
X-195532Y-513348D01*
Y-526677D01*
X-192200Y-530009D01*
X-185536D01*
X-182203Y-526677D01*
X-165542Y-510015D02*
X-172206D01*
X-175539Y-513348D01*
Y-526677D01*
X-172206Y-530009D01*
X-165542D01*
X-162210Y-526677D01*
Y-513348D01*
X-165542Y-510015D01*
X-155545D02*
Y-523344D01*
X-148881Y-530009D01*
X-142216Y-523344D01*
Y-510015D01*
X-122223D02*
X-135552D01*
Y-530009D01*
X-122223D01*
X-135552Y-520012D02*
X-128887D01*
X-115558Y-530009D02*
Y-510015D01*
X-105561D01*
X-102229Y-513348D01*
Y-520012D01*
X-105561Y-523344D01*
X-115558D01*
X-108894D02*
X-102229Y-530009D01*
X-82235Y-510015D02*
X-95565D01*
Y-530009D01*
X-82235D01*
X-95565Y-520012D02*
X-88900D01*
X-75571Y-510015D02*
Y-530009D01*
X-65574D01*
X-62242Y-526677D01*
Y-513348D01*
X-65574Y-510015D01*
X-75571D01*
X-35584D02*
Y-530009D01*
X-28919Y-523344D01*
X-22255Y-530009D01*
Y-510015D01*
X-15590D02*
X-8926D01*
X-12258D01*
Y-530009D01*
X-15590D01*
X-8926D01*
X1071Y-510015D02*
X14400D01*
X7735D01*
Y-530009D01*
X21065Y-510015D02*
Y-530009D01*
Y-520012D01*
X34394D01*
Y-510015D01*
Y-530009D01*
X74381Y-513348D02*
X71048Y-510015D01*
X64384D01*
X61052Y-513348D01*
Y-526677D01*
X64384Y-530009D01*
X71048D01*
X74381Y-526677D01*
X91042Y-510015D02*
X84377D01*
X81045Y-513348D01*
Y-526677D01*
X84377Y-530009D01*
X91042D01*
X94374Y-526677D01*
Y-513348D01*
X91042Y-510015D01*
X101039D02*
Y-523344D01*
X107703Y-530009D01*
X114368Y-523344D01*
Y-510015D01*
X134361D02*
X121032D01*
Y-530009D01*
X134361D01*
X121032Y-520012D02*
X127697D01*
X141026Y-530009D02*
Y-510015D01*
X151023D01*
X154355Y-513348D01*
Y-520012D01*
X151023Y-523344D01*
X141026D01*
X147690D02*
X154355Y-530009D01*
X161019Y-510015D02*
Y-530009D01*
X174349D01*
X181013D02*
Y-516680D01*
X187677Y-510015D01*
X194342Y-516680D01*
Y-530009D01*
Y-520012D01*
X181013D01*
X201007Y-510015D02*
Y-513348D01*
X207671Y-520012D01*
X214336Y-513348D01*
Y-510015D01*
X207671Y-520012D02*
Y-530009D01*
X240994D02*
Y-510015D01*
X247658Y-516680D01*
X254323Y-510015D01*
Y-530009D01*
X260987D02*
Y-516680D01*
X267652Y-510015D01*
X274316Y-516680D01*
Y-530009D01*
Y-520012D01*
X260987D01*
X280981Y-510015D02*
X294310D01*
X287645D01*
Y-530009D01*
X314303Y-510015D02*
X300974D01*
Y-530009D01*
X314303D01*
X300974Y-520012D02*
X307639D01*
X320968Y-530009D02*
Y-510015D01*
X330965D01*
X334297Y-513348D01*
Y-520012D01*
X330965Y-523344D01*
X320968D01*
X327632D02*
X334297Y-530009D01*
X340961Y-510015D02*
X347626D01*
X344294D01*
Y-530009D01*
X340961D01*
X347626D01*
X357623D02*
Y-516680D01*
X364287Y-510015D01*
X370952Y-516680D01*
Y-530009D01*
Y-520012D01*
X357623D01*
X377616Y-510015D02*
Y-530009D01*
X390945D01*
X427600Y-510015D02*
X420936D01*
X417603Y-513348D01*
Y-526677D01*
X420936Y-530009D01*
X427600D01*
X430933Y-526677D01*
Y-513348D01*
X427600Y-510015D01*
X437597Y-530009D02*
Y-510015D01*
X447594D01*
X450926Y-513348D01*
Y-520012D01*
X447594Y-523344D01*
X437597D01*
X444262D02*
X450926Y-530009D01*
X487581Y-510015D02*
X480916D01*
X477584Y-513348D01*
Y-526677D01*
X480916Y-530009D01*
X487581D01*
X490913Y-526677D01*
Y-513348D01*
X487581Y-510015D01*
X497578D02*
X510907D01*
X504242D01*
Y-530009D01*
X517571Y-510015D02*
Y-530009D01*
Y-520012D01*
X530900D01*
Y-510015D01*
Y-530009D01*
X550894Y-510015D02*
X537565D01*
Y-530009D01*
X550894D01*
X537565Y-520012D02*
X544229D01*
X557558Y-530009D02*
Y-510015D01*
X567555D01*
X570887Y-513348D01*
Y-520012D01*
X567555Y-523344D01*
X557558D01*
X564223D02*
X570887Y-530009D01*
X597546D02*
Y-510015D01*
X607542D01*
X610874Y-513348D01*
Y-520012D01*
X607542Y-523344D01*
X597546D01*
X617539Y-510015D02*
Y-530009D01*
X630868D01*
X637533D02*
Y-516680D01*
X644197Y-510015D01*
X650862Y-516680D01*
Y-530009D01*
Y-520012D01*
X637533D01*
X657526Y-510015D02*
X670855D01*
X664191D01*
Y-530009D01*
X677520Y-510015D02*
X684184D01*
X680852D01*
Y-530009D01*
X677520D01*
X684184D01*
X694181D02*
Y-510015D01*
X707510Y-530009D01*
Y-510015D01*
X727504Y-513348D02*
X724171Y-510015D01*
X717507D01*
X714174Y-513348D01*
Y-526677D01*
X717507Y-530009D01*
X724171D01*
X727504Y-526677D01*
Y-520012D01*
X720839D01*
X-998607Y-543436D02*
X-1001939Y-540104D01*
X-1008604D01*
X-1011936Y-543436D01*
Y-546768D01*
X-1008604Y-550100D01*
X-1001939D01*
X-998607Y-553433D01*
Y-556765D01*
X-1001939Y-560097D01*
X-1008604D01*
X-1011936Y-556765D01*
X-991942Y-540104D02*
Y-560097D01*
Y-550100D01*
X-978613D01*
Y-540104D01*
Y-560097D01*
X-971949D02*
Y-546768D01*
X-965284Y-540104D01*
X-958620Y-546768D01*
Y-560097D01*
Y-550100D01*
X-971949D01*
X-951955Y-540104D02*
Y-560097D01*
X-938626D01*
X-931962Y-540104D02*
Y-560097D01*
X-918633D01*
X-891975Y-540104D02*
Y-560097D01*
X-881978D01*
X-878646Y-556765D01*
Y-553433D01*
X-881978Y-550100D01*
X-891975D01*
X-881978D01*
X-878646Y-546768D01*
Y-543436D01*
X-881978Y-540104D01*
X-891975D01*
X-858652D02*
X-871981D01*
Y-560097D01*
X-858652D01*
X-871981Y-550100D02*
X-865317D01*
X-831994Y-540104D02*
X-825330D01*
X-828662D01*
Y-560097D01*
X-831994D01*
X-825330D01*
X-815333D02*
Y-540104D01*
X-808668Y-546768D01*
X-802004Y-540104D01*
Y-560097D01*
X-795339D02*
Y-540104D01*
X-788675Y-546768D01*
X-782010Y-540104D01*
Y-560097D01*
X-762017Y-540104D02*
X-775346D01*
Y-560097D01*
X-762017D01*
X-775346Y-550100D02*
X-768681D01*
X-755352Y-560097D02*
Y-540104D01*
X-745355D01*
X-742023Y-543436D01*
Y-550100D01*
X-745355Y-553433D01*
X-755352D01*
X-748688D02*
X-742023Y-560097D01*
X-722029Y-543436D02*
X-725362Y-540104D01*
X-732026D01*
X-735358Y-543436D01*
Y-546768D01*
X-732026Y-550100D01*
X-725362D01*
X-722029Y-553433D01*
Y-556765D01*
X-725362Y-560097D01*
X-732026D01*
X-735358Y-556765D01*
X-715365Y-540104D02*
X-708700D01*
X-712033D01*
Y-560097D01*
X-715365D01*
X-708700D01*
X-688707Y-540104D02*
X-695371D01*
X-698704Y-543436D01*
Y-556765D01*
X-695371Y-560097D01*
X-688707D01*
X-685375Y-556765D01*
Y-543436D01*
X-688707Y-540104D01*
X-678710Y-560097D02*
Y-540104D01*
X-665381Y-560097D01*
Y-540104D01*
X-625394Y-543436D02*
X-628726Y-540104D01*
X-635391D01*
X-638723Y-543436D01*
Y-556765D01*
X-635391Y-560097D01*
X-628726D01*
X-625394Y-556765D01*
Y-550100D01*
X-632058D01*
X-608733Y-540104D02*
X-615397D01*
X-618729Y-543436D01*
Y-556765D01*
X-615397Y-560097D01*
X-608733D01*
X-605400Y-556765D01*
Y-543436D01*
X-608733Y-540104D01*
X-598736D02*
Y-560097D01*
X-585407D01*
X-578742Y-540104D02*
Y-560097D01*
X-568745D01*
X-565413Y-556765D01*
Y-543436D01*
X-568745Y-540104D01*
X-578742D01*
X-532091Y-560097D02*
X-538755Y-553433D01*
Y-546768D01*
X-532091Y-540104D01*
X-522094Y-543436D02*
X-518762Y-540104D01*
X-512097D01*
X-508765Y-543436D01*
Y-556765D01*
X-512097Y-560097D01*
X-518762D01*
X-522094Y-556765D01*
Y-543436D01*
X-502100Y-560097D02*
Y-556765D01*
X-498768D01*
Y-560097D01*
X-502100D01*
X-485439Y-543436D02*
X-482107Y-540104D01*
X-475442D01*
X-472110Y-543436D01*
Y-556765D01*
X-475442Y-560097D01*
X-482107D01*
X-485439Y-556765D01*
Y-543436D01*
X-465445D02*
X-462113Y-540104D01*
X-455449D01*
X-452116Y-543436D01*
Y-556765D01*
X-455449Y-560097D01*
X-462113D01*
X-465445Y-556765D01*
Y-543436D01*
X-445452D02*
X-442120Y-540104D01*
X-435455D01*
X-432123Y-543436D01*
Y-556765D01*
X-435455Y-560097D01*
X-442120D01*
X-445452Y-556765D01*
Y-543436D01*
X-425458D02*
X-422126Y-540104D01*
X-415462D01*
X-412129Y-543436D01*
Y-556765D01*
X-415462Y-560097D01*
X-422126D01*
X-425458Y-556765D01*
Y-543436D01*
X-405465D02*
X-402132Y-540104D01*
X-395468D01*
X-392136Y-543436D01*
Y-546768D01*
X-395468Y-550100D01*
X-398800D01*
X-395468D01*
X-392136Y-553433D01*
Y-556765D01*
X-395468Y-560097D01*
X-402132D01*
X-405465Y-556765D01*
X-385471Y-543436D02*
X-382139Y-540104D01*
X-375474D01*
X-372142Y-543436D01*
Y-556765D01*
X-375474Y-560097D01*
X-382139D01*
X-385471Y-556765D01*
Y-543436D01*
X-365478Y-550100D02*
X-352149D01*
X-345484Y-543436D02*
X-342152Y-540104D01*
X-335487D01*
X-332155Y-543436D01*
Y-556765D01*
X-335487Y-560097D01*
X-342152D01*
X-345484Y-556765D01*
Y-543436D01*
X-325490Y-560097D02*
Y-556765D01*
X-322158D01*
Y-560097D01*
X-325490D01*
X-308829Y-543436D02*
X-305497Y-540104D01*
X-298832D01*
X-295500Y-543436D01*
Y-556765D01*
X-298832Y-560097D01*
X-305497D01*
X-308829Y-556765D01*
Y-543436D01*
X-288836D02*
X-285503Y-540104D01*
X-278839D01*
X-275507Y-543436D01*
Y-556765D01*
X-278839Y-560097D01*
X-285503D01*
X-288836Y-556765D01*
Y-543436D01*
X-268842D02*
X-265510Y-540104D01*
X-258845D01*
X-255513Y-543436D01*
Y-556765D01*
X-258845Y-560097D01*
X-265510D01*
X-268842Y-556765D01*
Y-543436D01*
X-248849D02*
X-245516Y-540104D01*
X-238852D01*
X-235520Y-543436D01*
Y-556765D01*
X-238852Y-560097D01*
X-245516D01*
X-248849Y-556765D01*
Y-543436D01*
X-228855Y-556765D02*
X-225523Y-560097D01*
X-218858D01*
X-215526Y-556765D01*
Y-543436D01*
X-218858Y-540104D01*
X-225523D01*
X-228855Y-543436D01*
Y-546768D01*
X-225523Y-550100D01*
X-215526D01*
X-208862Y-543436D02*
X-205529Y-540104D01*
X-198865D01*
X-195532Y-543436D01*
Y-556765D01*
X-198865Y-560097D01*
X-205529D01*
X-208862Y-556765D01*
Y-543436D01*
X-168874Y-560097D02*
Y-546768D01*
X-165542D01*
X-162210Y-550100D01*
Y-560097D01*
Y-550100D01*
X-158878Y-546768D01*
X-155545Y-550100D01*
Y-560097D01*
X-148881D02*
Y-546768D01*
X-145548D01*
X-142216Y-550100D01*
Y-560097D01*
Y-550100D01*
X-138884Y-546768D01*
X-135552Y-550100D01*
Y-560097D01*
X-128887D02*
X-122223Y-553433D01*
Y-546768D01*
X-128887Y-540104D01*
X-82236D02*
X-88900D01*
X-92232Y-543436D01*
Y-556765D01*
X-88900Y-560097D01*
X-82236D01*
X-78903Y-556765D01*
Y-543436D01*
X-82236Y-540104D01*
X-72239D02*
Y-553433D01*
X-65574Y-560097D01*
X-58910Y-553433D01*
Y-540104D01*
X-38916D02*
X-52245D01*
Y-560097D01*
X-38916D01*
X-52245Y-550100D02*
X-45581D01*
X-32252Y-560097D02*
Y-540104D01*
X-22255D01*
X-18923Y-543436D01*
Y-550100D01*
X-22255Y-553433D01*
X-32252D01*
X-25587D02*
X-18923Y-560097D01*
X21064Y-540104D02*
X7735D01*
Y-560097D01*
X21064D01*
X7735Y-550100D02*
X14400D01*
X27729Y-540104D02*
Y-560097D01*
X41058D01*
X61052Y-540104D02*
X47723D01*
Y-560097D01*
X61052D01*
X47723Y-550100D02*
X54387D01*
X81045Y-543436D02*
X77713Y-540104D01*
X71048D01*
X67716Y-543436D01*
Y-556765D01*
X71048Y-560097D01*
X77713D01*
X81045Y-556765D01*
X87710Y-540104D02*
X101039D01*
X94374D01*
Y-560097D01*
X107703D02*
Y-540104D01*
X117700D01*
X121032Y-543436D01*
Y-550100D01*
X117700Y-553433D01*
X107703D01*
X114368D02*
X121032Y-560097D01*
X137694Y-540104D02*
X131029D01*
X127697Y-543436D01*
Y-556765D01*
X131029Y-560097D01*
X137694D01*
X141026Y-556765D01*
Y-543436D01*
X137694Y-540104D01*
X147690D02*
Y-560097D01*
X161019D01*
X181013Y-540104D02*
X167684D01*
Y-560097D01*
X181013D01*
X167684Y-550100D02*
X174348D01*
X201007Y-543436D02*
X197674Y-540104D01*
X191010D01*
X187677Y-543436D01*
Y-546768D01*
X191010Y-550100D01*
X197674D01*
X201007Y-553433D01*
Y-556765D01*
X197674Y-560097D01*
X191010D01*
X187677Y-556765D01*
X221000Y-543436D02*
X217668Y-540104D01*
X211003D01*
X207671Y-543436D01*
Y-546768D01*
X211003Y-550100D01*
X217668D01*
X221000Y-553433D01*
Y-556765D01*
X217668Y-560097D01*
X211003D01*
X207671Y-556765D01*
X247658Y-560097D02*
Y-540104D01*
X260987Y-560097D01*
Y-540104D01*
X267652D02*
X274316D01*
X270984D01*
Y-560097D01*
X267652D01*
X274316D01*
X297642Y-543436D02*
X294310Y-540104D01*
X287645D01*
X284313Y-543436D01*
Y-556765D01*
X287645Y-560097D01*
X294310D01*
X297642Y-556765D01*
X304307Y-540104D02*
Y-560097D01*
Y-553433D01*
X317636Y-540104D01*
X307639Y-550100D01*
X317636Y-560097D01*
X337629Y-540104D02*
X324300D01*
Y-560097D01*
X337629D01*
X324300Y-550100D02*
X330965D01*
X344294Y-540104D02*
Y-560097D01*
X357623D01*
X390945D02*
X384281Y-553433D01*
Y-546768D01*
X390945Y-540104D01*
X400942Y-543436D02*
X404274Y-540104D01*
X410939D01*
X414271Y-543436D01*
Y-556765D01*
X410939Y-560097D01*
X404274D01*
X400942Y-556765D01*
Y-543436D01*
X420936Y-560097D02*
Y-556765D01*
X424268D01*
Y-560097D01*
X420936D01*
X437597Y-543436D02*
X440929Y-540104D01*
X447594D01*
X450926Y-543436D01*
Y-556765D01*
X447594Y-560097D01*
X440929D01*
X437597Y-556765D01*
Y-543436D01*
X457590D02*
X460923Y-540104D01*
X467587D01*
X470919Y-543436D01*
Y-556765D01*
X467587Y-560097D01*
X460923D01*
X457590Y-556765D01*
Y-543436D01*
X477584Y-560097D02*
X484249D01*
X480916D01*
Y-540104D01*
X477584Y-543436D01*
X494245Y-550100D02*
X507574D01*
X514239Y-543436D02*
X517571Y-540104D01*
X524236D01*
X527568Y-543436D01*
Y-556765D01*
X524236Y-560097D01*
X517571D01*
X514239Y-556765D01*
Y-543436D01*
X534232Y-560097D02*
Y-556765D01*
X537565D01*
Y-560097D01*
X534232D01*
X550894Y-543436D02*
X554226Y-540104D01*
X560891D01*
X564223Y-543436D01*
Y-556765D01*
X560891Y-560097D01*
X554226D01*
X550894Y-556765D01*
Y-543436D01*
X570887D02*
X574220Y-540104D01*
X580884D01*
X584216Y-543436D01*
Y-556765D01*
X580884Y-560097D01*
X574220D01*
X570887Y-556765D01*
Y-543436D01*
X604210Y-540104D02*
X597545Y-543436D01*
X590881Y-550100D01*
Y-556765D01*
X594213Y-560097D01*
X600878D01*
X604210Y-556765D01*
Y-553433D01*
X600878Y-550100D01*
X590881D01*
X630868Y-560097D02*
Y-546768D01*
X634200D01*
X637532Y-550100D01*
Y-560097D01*
Y-550100D01*
X640865Y-546768D01*
X644197Y-550100D01*
Y-560097D01*
X650862D02*
Y-546768D01*
X654194D01*
X657526Y-550100D01*
Y-560097D01*
Y-550100D01*
X660858Y-546768D01*
X664191Y-550100D01*
Y-560097D01*
X670855D02*
X677520Y-553433D01*
Y-546768D01*
X670855Y-540104D01*
X687516Y-560097D02*
Y-556765D01*
X690849D01*
Y-560097D01*
X687516D01*
X-1001939Y-620274D02*
Y-600280D01*
X-1011936Y-610277D01*
X-998607D01*
X-991942Y-620274D02*
Y-616941D01*
X-988610D01*
Y-620274D01*
X-991942D01*
X-955288Y-600280D02*
Y-620274D01*
X-941959D01*
X-921965Y-600280D02*
X-935294D01*
Y-620274D01*
X-921965D01*
X-935294Y-610277D02*
X-928630D01*
X-901971Y-603613D02*
X-905304Y-600280D01*
X-911968D01*
X-915301Y-603613D01*
Y-616941D01*
X-911968Y-620274D01*
X-905304D01*
X-901971Y-616941D01*
Y-610277D01*
X-908636D01*
X-881978Y-600280D02*
X-895307D01*
Y-620274D01*
X-881978D01*
X-895307Y-610277D02*
X-888642D01*
X-875313Y-620274D02*
Y-600280D01*
X-861984Y-620274D01*
Y-600280D01*
X-855320D02*
Y-620274D01*
X-845323D01*
X-841991Y-616941D01*
Y-603613D01*
X-845323Y-600280D01*
X-855320D01*
X-802004Y-603613D02*
X-805336Y-600280D01*
X-812000D01*
X-815333Y-603613D01*
Y-606945D01*
X-812000Y-610277D01*
X-805336D01*
X-802004Y-613609D01*
Y-616941D01*
X-805336Y-620274D01*
X-812000D01*
X-815333Y-616941D01*
X-795339Y-600280D02*
Y-620274D01*
Y-610277D01*
X-782010D01*
Y-600280D01*
Y-620274D01*
X-775346D02*
Y-606945D01*
X-768681Y-600280D01*
X-762017Y-606945D01*
Y-620274D01*
Y-610277D01*
X-775346D01*
X-755352Y-600280D02*
Y-620274D01*
X-742023D01*
X-735358Y-600280D02*
Y-620274D01*
X-722029D01*
X-695371Y-600280D02*
Y-620274D01*
X-685375D01*
X-682042Y-616941D01*
Y-613609D01*
X-685375Y-610277D01*
X-695371D01*
X-685375D01*
X-682042Y-606945D01*
Y-603613D01*
X-685375Y-600280D01*
X-695371D01*
X-662049D02*
X-675378D01*
Y-620274D01*
X-662049D01*
X-675378Y-610277D02*
X-668713D01*
X-635391Y-600280D02*
Y-620274D01*
X-628726Y-613609D01*
X-622062Y-620274D01*
Y-600280D01*
X-615397D02*
Y-620274D01*
Y-610277D01*
X-602068D01*
Y-600280D01*
Y-620274D01*
X-595404Y-600280D02*
X-588739D01*
X-592071D01*
Y-620274D01*
X-595404D01*
X-588739D01*
X-578742Y-600280D02*
X-565413D01*
X-572078D01*
Y-620274D01*
X-545420Y-600280D02*
X-558749D01*
Y-620274D01*
X-545420D01*
X-558749Y-610277D02*
X-552084D01*
X-535423Y-623606D02*
X-532091Y-620274D01*
Y-616941D01*
X-535423D01*
Y-620274D01*
X-532091D01*
X-535423Y-623606D01*
X-538755Y-626938D01*
X-498768Y-620274D02*
Y-600280D01*
X-488771D01*
X-485439Y-603613D01*
Y-610277D01*
X-488771Y-613609D01*
X-498768D01*
X-465445Y-600280D02*
X-478774D01*
Y-620274D01*
X-465445D01*
X-478774Y-610277D02*
X-472110D01*
X-458781Y-620274D02*
Y-600280D01*
X-448784D01*
X-445452Y-603613D01*
Y-610277D01*
X-448784Y-613609D01*
X-458781D01*
X-452116D02*
X-445452Y-620274D01*
X-438787D02*
Y-600280D01*
X-432123Y-606945D01*
X-425458Y-600280D01*
Y-620274D01*
X-418794D02*
Y-606945D01*
X-412129Y-600280D01*
X-405465Y-606945D01*
Y-620274D01*
Y-610277D01*
X-418794D01*
X-398800Y-620274D02*
Y-600280D01*
X-385471Y-620274D01*
Y-600280D01*
X-365478D02*
X-378807D01*
Y-620274D01*
X-365478D01*
X-378807Y-610277D02*
X-372142D01*
X-358813Y-620274D02*
Y-600280D01*
X-345484Y-620274D01*
Y-600280D01*
X-338820D02*
X-325490D01*
X-332155D01*
Y-620274D01*
X-315494Y-623606D02*
X-312162Y-620274D01*
Y-616941D01*
X-315494D01*
Y-620274D01*
X-312162D01*
X-315494Y-623606D01*
X-318826Y-626938D01*
X-268842Y-600280D02*
X-275507D01*
X-278839Y-603613D01*
Y-616941D01*
X-275507Y-620274D01*
X-268842D01*
X-265510Y-616941D01*
Y-603613D01*
X-268842Y-600280D01*
X-258845Y-620274D02*
Y-600280D01*
X-248848D01*
X-245516Y-603613D01*
Y-610277D01*
X-248848Y-613609D01*
X-258845D01*
X-252181D02*
X-245516Y-620274D01*
X-225523Y-603613D02*
X-228855Y-600280D01*
X-235520D01*
X-238852Y-603613D01*
Y-616941D01*
X-235520Y-620274D01*
X-228855D01*
X-225523Y-616941D01*
Y-610277D01*
X-232187D01*
X-218858Y-620274D02*
Y-606945D01*
X-212194Y-600280D01*
X-205529Y-606945D01*
Y-620274D01*
Y-610277D01*
X-218858D01*
X-198865Y-620274D02*
Y-600280D01*
X-185536Y-620274D01*
Y-600280D01*
X-178871D02*
X-172207D01*
X-175539D01*
Y-620274D01*
X-178871D01*
X-172207D01*
X-148881Y-603613D02*
X-152213Y-600280D01*
X-158877D01*
X-162210Y-603613D01*
Y-616941D01*
X-158877Y-620274D01*
X-152213D01*
X-148881Y-616941D01*
X-138884Y-623606D02*
X-135552Y-620274D01*
Y-616941D01*
X-138884D01*
Y-620274D01*
X-135552D01*
X-138884Y-623606D01*
X-142216Y-626938D01*
X-102229Y-620274D02*
Y-600280D01*
X-88900Y-620274D01*
Y-600280D01*
X-72239D02*
X-78903D01*
X-82235Y-603613D01*
Y-616941D01*
X-78903Y-620274D01*
X-72239D01*
X-68906Y-616941D01*
Y-603613D01*
X-72239Y-600280D01*
X-62242Y-620274D02*
Y-600280D01*
X-48913Y-620274D01*
Y-600280D01*
X-42248Y-610277D02*
X-28919D01*
X-8926Y-603613D02*
X-12258Y-600280D01*
X-18923D01*
X-22255Y-603613D01*
Y-616941D01*
X-18923Y-620274D01*
X-12258D01*
X-8926Y-616941D01*
X7735Y-600280D02*
X1071D01*
X-2261Y-603613D01*
Y-616941D01*
X1071Y-620274D01*
X7735D01*
X11068Y-616941D01*
Y-603613D01*
X7735Y-600280D01*
X17732Y-620274D02*
Y-600280D01*
X31061Y-620274D01*
Y-600280D01*
X37726D02*
Y-620274D01*
X47723D01*
X51055Y-616941D01*
Y-603613D01*
X47723Y-600280D01*
X37726D01*
X57719D02*
Y-616941D01*
X61052Y-620274D01*
X67716D01*
X71048Y-616941D01*
Y-600280D01*
X91042Y-603613D02*
X87710Y-600280D01*
X81045D01*
X77713Y-603613D01*
Y-616941D01*
X81045Y-620274D01*
X87710D01*
X91042Y-616941D01*
X97706Y-600280D02*
X111035D01*
X104371D01*
Y-620274D01*
X117700Y-600280D02*
X124365D01*
X121032D01*
Y-620274D01*
X117700D01*
X124365D01*
X134361Y-600280D02*
Y-613609D01*
X141026Y-620274D01*
X147690Y-613609D01*
Y-600280D01*
X167684D02*
X154355D01*
Y-620274D01*
X167684D01*
X154355Y-610277D02*
X161019D01*
X194342Y-600280D02*
Y-616941D01*
X197674Y-620274D01*
X204339D01*
X207671Y-616941D01*
Y-600280D01*
X214336D02*
Y-613609D01*
X221000Y-620274D01*
X227665Y-613609D01*
Y-600280D01*
X264319D02*
X257655D01*
X254323Y-603613D01*
Y-616941D01*
X257655Y-620274D01*
X264319D01*
X267652Y-616941D01*
Y-603613D01*
X264319Y-600280D01*
X274316Y-620274D02*
Y-600280D01*
X284313D01*
X287645Y-603613D01*
Y-610277D01*
X284313Y-613609D01*
X274316D01*
X280981D02*
X287645Y-620274D01*
X327632Y-600280D02*
X314303D01*
Y-620274D01*
X327632D01*
X314303Y-610277D02*
X320968D01*
X334297Y-620274D02*
Y-600280D01*
X344294D01*
X347626Y-603613D01*
Y-610277D01*
X344294Y-613609D01*
X334297D01*
X364287Y-600280D02*
X357623D01*
X354291Y-603613D01*
Y-616941D01*
X357623Y-620274D01*
X364287D01*
X367620Y-616941D01*
Y-603613D01*
X364287Y-600280D01*
X374284D02*
X387613Y-620274D01*
Y-600280D02*
X374284Y-620274D01*
X394278Y-600280D02*
Y-603613D01*
X400942Y-610277D01*
X407607Y-603613D01*
Y-600280D01*
X400942Y-610277D02*
Y-620274D01*
X434265Y-600280D02*
X447594D01*
X440929D01*
Y-620274D01*
X454258Y-600280D02*
Y-603613D01*
X460923Y-610277D01*
X467587Y-603613D01*
Y-600280D01*
X460923Y-610277D02*
Y-620274D01*
X474252D02*
Y-600280D01*
X484249D01*
X487581Y-603613D01*
Y-610277D01*
X484249Y-613609D01*
X474252D01*
X507574Y-600280D02*
X494245D01*
Y-620274D01*
X507574D01*
X494245Y-610277D02*
X500910D01*
X534232Y-600280D02*
X540897D01*
X537565D01*
Y-620274D01*
X534232D01*
X540897D01*
X550894D02*
Y-600280D01*
X564223Y-620274D01*
Y-600280D01*
X570887D02*
Y-620274D01*
Y-613609D01*
X584216Y-600280D01*
X574220Y-610277D01*
X584216Y-620274D01*
X610874D02*
Y-606945D01*
X617539Y-600280D01*
X624203Y-606945D01*
Y-620274D01*
Y-610277D01*
X610874D01*
X630868Y-620274D02*
Y-600280D01*
X640865D01*
X644197Y-603613D01*
Y-610277D01*
X640865Y-613609D01*
X630868D01*
X650862Y-620274D02*
Y-600280D01*
X660858D01*
X664191Y-603613D01*
Y-610277D01*
X660858Y-613609D01*
X650862D01*
X670855Y-600280D02*
Y-620274D01*
X684184D01*
X690849Y-600280D02*
X697513D01*
X694181D01*
Y-620274D01*
X690849D01*
X697513D01*
X720839Y-600280D02*
X707510D01*
Y-620274D01*
X720839D01*
X707510Y-610277D02*
X714174D01*
X727504Y-600280D02*
Y-620274D01*
X737500D01*
X740833Y-616941D01*
Y-603613D01*
X737500Y-600280D01*
X727504D01*
X-1011936Y-630368D02*
X-998607D01*
X-1005272D01*
Y-650362D01*
X-981946Y-630368D02*
X-988610D01*
X-991942Y-633701D01*
Y-647030D01*
X-988610Y-650362D01*
X-981946D01*
X-978613Y-647030D01*
Y-633701D01*
X-981946Y-630368D01*
X-951955D02*
X-938626D01*
X-945291D01*
Y-650362D01*
X-931962Y-630368D02*
Y-650362D01*
Y-640365D01*
X-918633D01*
Y-630368D01*
Y-650362D01*
X-898639Y-630368D02*
X-911968D01*
Y-650362D01*
X-898639D01*
X-911968Y-640365D02*
X-905304D01*
X-871981Y-630368D02*
X-858652D01*
X-865317D01*
Y-650362D01*
X-841991Y-630368D02*
X-848655D01*
X-851988Y-633701D01*
Y-647030D01*
X-848655Y-650362D01*
X-841991D01*
X-838659Y-647030D01*
Y-633701D01*
X-841991Y-630368D01*
X-831994Y-650362D02*
Y-630368D01*
X-821997D01*
X-818665Y-633701D01*
Y-640365D01*
X-821997Y-643698D01*
X-831994D01*
X-778678Y-633701D02*
X-782010Y-630368D01*
X-788675D01*
X-792007Y-633701D01*
Y-637033D01*
X-788675Y-640365D01*
X-782010D01*
X-778678Y-643698D01*
Y-647030D01*
X-782010Y-650362D01*
X-788675D01*
X-792007Y-647030D01*
X-772013Y-630368D02*
X-765349D01*
X-768681D01*
Y-650362D01*
X-772013D01*
X-765349D01*
X-755352Y-630368D02*
Y-650362D01*
X-745355D01*
X-742023Y-647030D01*
Y-633701D01*
X-745355Y-630368D01*
X-755352D01*
X-722029D02*
X-735358D01*
Y-650362D01*
X-722029D01*
X-735358Y-640365D02*
X-728694D01*
X-685375Y-630368D02*
X-692039D01*
X-695371Y-633701D01*
Y-647030D01*
X-692039Y-650362D01*
X-685375D01*
X-682042Y-647030D01*
Y-633701D01*
X-685375Y-630368D01*
X-662049D02*
X-675378D01*
Y-640365D01*
X-668713D01*
X-675378D01*
Y-650362D01*
X-635391Y-630368D02*
X-622062D01*
X-628726D01*
Y-650362D01*
X-615397Y-630368D02*
Y-650362D01*
Y-640365D01*
X-602068D01*
Y-630368D01*
Y-650362D01*
X-582075Y-630368D02*
X-595404D01*
Y-650362D01*
X-582075D01*
X-595404Y-640365D02*
X-588739D01*
X-555416Y-630368D02*
Y-650362D01*
X-545420D01*
X-542087Y-647030D01*
Y-643698D01*
X-545420Y-640365D01*
X-555416D01*
X-545420D01*
X-542087Y-637033D01*
Y-633701D01*
X-545420Y-630368D01*
X-555416D01*
X-525426D02*
X-532091D01*
X-535423Y-633701D01*
Y-647030D01*
X-532091Y-650362D01*
X-525426D01*
X-522094Y-647030D01*
Y-633701D01*
X-525426Y-630368D01*
X-515429Y-650362D02*
Y-637033D01*
X-508765Y-630368D01*
X-502100Y-637033D01*
Y-650362D01*
Y-640365D01*
X-515429D01*
X-495436Y-650362D02*
Y-630368D01*
X-485439D01*
X-482107Y-633701D01*
Y-640365D01*
X-485439Y-643698D01*
X-495436D01*
X-488771D02*
X-482107Y-650362D01*
X-475442Y-630368D02*
Y-650362D01*
X-465445D01*
X-462113Y-647030D01*
Y-633701D01*
X-465445Y-630368D01*
X-475442D01*
X-455449Y-650362D02*
Y-647030D01*
X-452116D01*
Y-650362D01*
X-455449D01*
X-418794Y-630368D02*
X-405465D01*
X-412129D01*
Y-650362D01*
X-398800Y-630368D02*
Y-650362D01*
Y-640365D01*
X-385471D01*
Y-630368D01*
Y-650362D01*
X-365478Y-630368D02*
X-378807D01*
Y-650362D01*
X-365478D01*
X-378807Y-640365D02*
X-372142D01*
X-358813Y-650362D02*
Y-630368D01*
X-348816D01*
X-345484Y-633701D01*
Y-640365D01*
X-348816Y-643698D01*
X-358813D01*
X-352149D02*
X-345484Y-650362D01*
X-325490Y-630368D02*
X-338820D01*
Y-650362D01*
X-325490D01*
X-338820Y-640365D02*
X-332155D01*
X-285503Y-633701D02*
X-288836Y-630368D01*
X-295500D01*
X-298832Y-633701D01*
Y-637033D01*
X-295500Y-640365D01*
X-288836D01*
X-285503Y-643698D01*
Y-647030D01*
X-288836Y-650362D01*
X-295500D01*
X-298832Y-647030D01*
X-278839Y-630368D02*
Y-650362D01*
Y-640365D01*
X-265510D01*
Y-630368D01*
Y-650362D01*
X-258845D02*
Y-637033D01*
X-252181Y-630368D01*
X-245516Y-637033D01*
Y-650362D01*
Y-640365D01*
X-258845D01*
X-238852Y-630368D02*
Y-650362D01*
X-225523D01*
X-218858Y-630368D02*
Y-650362D01*
X-205529D01*
X-178871Y-630368D02*
Y-650362D01*
X-168874D01*
X-165542Y-647030D01*
Y-643698D01*
X-168874Y-640365D01*
X-178871D01*
X-168874D01*
X-165542Y-637033D01*
Y-633701D01*
X-168874Y-630368D01*
X-178871D01*
X-145548D02*
X-158877D01*
Y-650362D01*
X-145548D01*
X-158877Y-640365D02*
X-152213D01*
X-118890Y-650362D02*
Y-630368D01*
X-105561Y-650362D01*
Y-630368D01*
X-88900D02*
X-95565D01*
X-98897Y-633701D01*
Y-647030D01*
X-95565Y-650362D01*
X-88900D01*
X-85568Y-647030D01*
Y-633701D01*
X-88900Y-630368D01*
X-58910D02*
Y-650362D01*
X-45581D01*
X-25587Y-630368D02*
X-38916D01*
Y-650362D01*
X-25587D01*
X-38916Y-640365D02*
X-32252D01*
X-5594Y-633701D02*
X-8926Y-630368D01*
X-15590D01*
X-18923Y-633701D01*
Y-647030D01*
X-15590Y-650362D01*
X-8926D01*
X-5594Y-647030D01*
Y-640365D01*
X-12258D01*
X14400Y-630368D02*
X1071D01*
Y-650362D01*
X14400D01*
X1071Y-640365D02*
X7735D01*
X21065Y-650362D02*
Y-630368D01*
X34394Y-650362D01*
Y-630368D01*
X41058D02*
Y-650362D01*
X51055D01*
X54387Y-647030D01*
Y-633701D01*
X51055Y-630368D01*
X41058D01*
X91042D02*
X84377D01*
X81045Y-633701D01*
Y-647030D01*
X84377Y-650362D01*
X91042D01*
X94374Y-647030D01*
Y-633701D01*
X91042Y-630368D01*
X101039Y-650362D02*
Y-630368D01*
X114368Y-650362D01*
Y-630368D01*
X141026Y-650362D02*
Y-637033D01*
X147690Y-630368D01*
X154355Y-637033D01*
Y-650362D01*
Y-640365D01*
X141026D01*
X161019Y-650362D02*
Y-630368D01*
X174349Y-650362D01*
Y-630368D01*
X181013D02*
Y-633701D01*
X187677Y-640365D01*
X194342Y-633701D01*
Y-630368D01*
X187677Y-640365D02*
Y-650362D01*
X234329Y-633701D02*
X230997Y-630368D01*
X224332D01*
X221000Y-633701D01*
Y-637033D01*
X224332Y-640365D01*
X230997D01*
X234329Y-643698D01*
Y-647030D01*
X230997Y-650362D01*
X224332D01*
X221000Y-647030D01*
X250991Y-630368D02*
X244326D01*
X240994Y-633701D01*
Y-647030D01*
X244326Y-650362D01*
X250991D01*
X254323Y-647030D01*
Y-633701D01*
X250991Y-630368D01*
X260987D02*
Y-650362D01*
X274316D01*
X280981Y-630368D02*
Y-650362D01*
X290978D01*
X294310Y-647030D01*
Y-633701D01*
X290978Y-630368D01*
X280981D01*
X314303D02*
X300974D01*
Y-650362D01*
X314303D01*
X300974Y-640365D02*
X307639D01*
X320968Y-650362D02*
Y-630368D01*
X330965D01*
X334297Y-633701D01*
Y-640365D01*
X330965Y-643698D01*
X320968D01*
X327632D02*
X334297Y-650362D01*
X340961D02*
Y-637033D01*
X347626Y-630368D01*
X354291Y-637033D01*
Y-650362D01*
Y-640365D01*
X340961D01*
X360955Y-630368D02*
Y-650362D01*
X370952D01*
X374284Y-647030D01*
Y-643698D01*
X370952Y-640365D01*
X360955D01*
X370952D01*
X374284Y-637033D01*
Y-633701D01*
X370952Y-630368D01*
X360955D01*
X380949D02*
Y-650362D01*
X394278D01*
X414271Y-630368D02*
X400942D01*
Y-650362D01*
X414271D01*
X400942Y-640365D02*
X407607D01*
X454258Y-633701D02*
X450926Y-630368D01*
X444262D01*
X440929Y-633701D01*
Y-647030D01*
X444262Y-650362D01*
X450926D01*
X454258Y-647030D01*
X470920Y-630368D02*
X464255D01*
X460923Y-633701D01*
Y-647030D01*
X464255Y-650362D01*
X470920D01*
X474252Y-647030D01*
Y-633701D01*
X470920Y-630368D01*
X480916Y-650362D02*
Y-630368D01*
X487581Y-637033D01*
X494245Y-630368D01*
Y-650362D01*
X500910D02*
Y-630368D01*
X510907D01*
X514239Y-633701D01*
Y-640365D01*
X510907Y-643698D01*
X500910D01*
X530900Y-630368D02*
X524236D01*
X520904Y-633701D01*
Y-647030D01*
X524236Y-650362D01*
X530900D01*
X534232Y-647030D01*
Y-633701D01*
X530900Y-630368D01*
X540897Y-650362D02*
Y-630368D01*
X554226Y-650362D01*
Y-630368D01*
X574220D02*
X560891D01*
Y-650362D01*
X574220D01*
X560891Y-640365D02*
X567555D01*
X580884Y-650362D02*
Y-630368D01*
X594213Y-650362D01*
Y-630368D01*
X600878D02*
X614207D01*
X607542D01*
Y-650362D01*
X640865Y-630368D02*
Y-650362D01*
X654194D01*
X660858D02*
Y-637033D01*
X667523Y-630368D01*
X674187Y-637033D01*
Y-650362D01*
Y-640365D01*
X660858D01*
X680852Y-650362D02*
Y-630368D01*
X694181Y-650362D01*
Y-630368D01*
X700845D02*
Y-650362D01*
X710842D01*
X714175Y-647030D01*
Y-633701D01*
X710842Y-630368D01*
X700845D01*
X720839Y-650362D02*
Y-647030D01*
X724171D01*
Y-650362D01*
X720839D01*
X-998607Y-690545D02*
X-1011936D01*
Y-700542D01*
X-1005272Y-697210D01*
X-1001939D01*
X-998607Y-700542D01*
Y-707206D01*
X-1001939Y-710539D01*
X-1008604D01*
X-1011936Y-707206D01*
X-991942Y-710539D02*
Y-707206D01*
X-988610D01*
Y-710539D01*
X-991942D01*
X-955288D02*
Y-697210D01*
X-948623Y-690545D01*
X-941959Y-697210D01*
Y-710539D01*
Y-700542D01*
X-955288D01*
X-935294Y-690545D02*
Y-710539D01*
X-921965D01*
X-915301Y-690545D02*
Y-710539D01*
X-901971D01*
X-875313D02*
Y-697210D01*
X-868649Y-690545D01*
X-861984Y-697210D01*
Y-710539D01*
Y-700542D01*
X-875313D01*
X-841991Y-693877D02*
X-845323Y-690545D01*
X-851988D01*
X-855320Y-693877D01*
Y-697210D01*
X-851988Y-700542D01*
X-845323D01*
X-841991Y-703874D01*
Y-707206D01*
X-845323Y-710539D01*
X-851988D01*
X-855320Y-707206D01*
X-821997Y-693877D02*
X-825330Y-690545D01*
X-831994D01*
X-835326Y-693877D01*
Y-697210D01*
X-831994Y-700542D01*
X-825330D01*
X-821997Y-703874D01*
Y-707206D01*
X-825330Y-710539D01*
X-831994D01*
X-835326Y-707206D01*
X-802004Y-690545D02*
X-815333D01*
Y-710539D01*
X-802004D01*
X-815333Y-700542D02*
X-808668D01*
X-795339Y-710539D02*
Y-690545D01*
X-788675Y-697210D01*
X-782010Y-690545D01*
Y-710539D01*
X-775346Y-690545D02*
Y-710539D01*
X-765349D01*
X-762017Y-707206D01*
Y-703874D01*
X-765349Y-700542D01*
X-775346D01*
X-765349D01*
X-762017Y-697210D01*
Y-693877D01*
X-765349Y-690545D01*
X-775346D01*
X-755352D02*
Y-710539D01*
X-742023D01*
X-735358Y-690545D02*
Y-693877D01*
X-728694Y-700542D01*
X-722029Y-693877D01*
Y-690545D01*
X-728694Y-700542D02*
Y-710539D01*
X-695371D02*
Y-690545D01*
X-688707Y-697210D01*
X-682042Y-690545D01*
Y-710539D01*
X-675378D02*
Y-697210D01*
X-668713Y-690545D01*
X-662049Y-697210D01*
Y-710539D01*
Y-700542D01*
X-675378D01*
X-655384Y-690545D02*
X-642055D01*
X-648720D01*
Y-710539D01*
X-622062Y-690545D02*
X-635391D01*
Y-710539D01*
X-622062D01*
X-635391Y-700542D02*
X-628726D01*
X-615397Y-710539D02*
Y-690545D01*
X-605400D01*
X-602068Y-693877D01*
Y-700542D01*
X-605400Y-703874D01*
X-615397D01*
X-608733D02*
X-602068Y-710539D01*
X-595404Y-690545D02*
X-588739D01*
X-592071D01*
Y-710539D01*
X-595404D01*
X-588739D01*
X-578742D02*
Y-697210D01*
X-572078Y-690545D01*
X-565413Y-697210D01*
Y-710539D01*
Y-700542D01*
X-578742D01*
X-558749Y-690545D02*
Y-710539D01*
X-545420D01*
X-525426Y-693877D02*
X-528758Y-690545D01*
X-535423D01*
X-538755Y-693877D01*
Y-697210D01*
X-535423Y-700542D01*
X-528758D01*
X-525426Y-703874D01*
Y-707206D01*
X-528758Y-710539D01*
X-535423D01*
X-538755Y-707206D01*
X-498768Y-690545D02*
X-485439D01*
X-492104D01*
Y-710539D01*
X-468778Y-690545D02*
X-475442D01*
X-478774Y-693877D01*
Y-707206D01*
X-475442Y-710539D01*
X-468778D01*
X-465445Y-707206D01*
Y-693877D01*
X-468778Y-690545D01*
X-438787D02*
Y-710539D01*
X-428791D01*
X-425458Y-707206D01*
Y-703874D01*
X-428791Y-700542D01*
X-438787D01*
X-428791D01*
X-425458Y-697210D01*
Y-693877D01*
X-428791Y-690545D01*
X-438787D01*
X-405465D02*
X-418794D01*
Y-710539D01*
X-405465D01*
X-418794Y-700542D02*
X-412129D01*
X-378807Y-710539D02*
Y-690545D01*
X-368810D01*
X-365478Y-693877D01*
Y-700542D01*
X-368810Y-703874D01*
X-378807D01*
X-372142D02*
X-365478Y-710539D01*
X-355481D02*
X-348816D01*
X-345484Y-707206D01*
Y-700542D01*
X-348816Y-697210D01*
X-355481D01*
X-358813Y-700542D01*
Y-707206D01*
X-355481Y-710539D01*
X-338820Y-690545D02*
Y-710539D01*
Y-700542D01*
X-325490D01*
Y-690545D01*
Y-710539D01*
X-305497Y-693877D02*
X-308829Y-690545D01*
X-315494D01*
X-318826Y-693877D01*
Y-697210D01*
X-315494Y-700542D01*
X-308829D01*
X-305497Y-703874D01*
Y-707206D01*
X-308829Y-710539D01*
X-315494D01*
X-318826Y-707206D01*
X-265510Y-693877D02*
X-268842Y-690545D01*
X-275507D01*
X-278839Y-693877D01*
Y-707206D01*
X-275507Y-710539D01*
X-268842D01*
X-265510Y-707206D01*
X-248848Y-690545D02*
X-255513D01*
X-258845Y-693877D01*
Y-707206D01*
X-255513Y-710539D01*
X-248848D01*
X-245516Y-707206D01*
Y-693877D01*
X-248848Y-690545D01*
X-238852Y-710539D02*
Y-690545D01*
X-232187Y-697210D01*
X-225523Y-690545D01*
Y-710539D01*
X-218858D02*
Y-690545D01*
X-208861D01*
X-205529Y-693877D01*
Y-700542D01*
X-208861Y-703874D01*
X-218858D01*
X-198865Y-690545D02*
Y-710539D01*
X-185536D01*
X-178871Y-690545D02*
X-172207D01*
X-175539D01*
Y-710539D01*
X-178871D01*
X-172207D01*
X-162210D02*
Y-697210D01*
X-155545Y-690545D01*
X-148881Y-697210D01*
Y-710539D01*
Y-700542D01*
X-162210D01*
X-142216Y-710539D02*
Y-690545D01*
X-128887Y-710539D01*
Y-690545D01*
X-122223D02*
X-108894D01*
X-115558D01*
Y-710539D01*
X-102229D02*
Y-707206D01*
X-98897D01*
Y-710539D01*
X-102229D01*
X-998607Y-750722D02*
X-1005272Y-754054D01*
X-1011936Y-760718D01*
Y-767383D01*
X-1008604Y-770715D01*
X-1001939D01*
X-998607Y-767383D01*
Y-764051D01*
X-1001939Y-760718D01*
X-1011936D01*
X-991942Y-770715D02*
Y-767383D01*
X-988610D01*
Y-770715D01*
X-991942D01*
X-955288D02*
Y-757386D01*
X-948623Y-750722D01*
X-941959Y-757386D01*
Y-770715D01*
Y-760718D01*
X-955288D01*
X-935294Y-770715D02*
Y-750722D01*
X-921965Y-770715D01*
Y-750722D01*
X-915301D02*
Y-754054D01*
X-908636Y-760718D01*
X-901971Y-754054D01*
Y-750722D01*
X-908636Y-760718D02*
Y-770715D01*
X-875313Y-750722D02*
Y-770715D01*
X-861984D01*
X-855320D02*
Y-757386D01*
X-848655Y-750722D01*
X-841991Y-757386D01*
Y-770715D01*
Y-760718D01*
X-855320D01*
X-835326Y-750722D02*
Y-770715D01*
X-825330D01*
X-821997Y-767383D01*
Y-764051D01*
X-825330Y-760718D01*
X-835326D01*
X-825330D01*
X-821997Y-757386D01*
Y-754054D01*
X-825330Y-750722D01*
X-835326D01*
X-802004D02*
X-815333D01*
Y-770715D01*
X-802004D01*
X-815333Y-760718D02*
X-808668D01*
X-795339Y-750722D02*
Y-770715D01*
X-782010D01*
X-762017Y-754054D02*
X-765349Y-750722D01*
X-772013D01*
X-775346Y-754054D01*
Y-757386D01*
X-772013Y-760718D01*
X-765349D01*
X-762017Y-764051D01*
Y-767383D01*
X-765349Y-770715D01*
X-772013D01*
X-775346Y-767383D01*
X-725362Y-750722D02*
X-732026D01*
X-735358Y-754054D01*
Y-767383D01*
X-732026Y-770715D01*
X-725362D01*
X-722029Y-767383D01*
Y-754054D01*
X-725362Y-750722D01*
X-715365Y-770715D02*
Y-750722D01*
X-705368D01*
X-702036Y-754054D01*
Y-760718D01*
X-705368Y-764051D01*
X-715365D01*
X-708700D02*
X-702036Y-770715D01*
X-662049Y-754054D02*
X-665381Y-750722D01*
X-672046D01*
X-675378Y-754054D01*
Y-767383D01*
X-672046Y-770715D01*
X-665381D01*
X-662049Y-767383D01*
X-645387Y-750722D02*
X-652052D01*
X-655384Y-754054D01*
Y-767383D01*
X-652052Y-770715D01*
X-645387D01*
X-642055Y-767383D01*
Y-754054D01*
X-645387Y-750722D01*
X-635391Y-770715D02*
Y-750722D01*
X-628726Y-757386D01*
X-622062Y-750722D01*
Y-770715D01*
X-615397D02*
Y-750722D01*
X-605400D01*
X-602068Y-754054D01*
Y-760718D01*
X-605400Y-764051D01*
X-615397D01*
X-585407Y-750722D02*
X-592071D01*
X-595404Y-754054D01*
Y-767383D01*
X-592071Y-770715D01*
X-585407D01*
X-582075Y-767383D01*
Y-754054D01*
X-585407Y-750722D01*
X-562081Y-754054D02*
X-565413Y-750722D01*
X-572078D01*
X-575410Y-754054D01*
Y-757386D01*
X-572078Y-760718D01*
X-565413D01*
X-562081Y-764051D01*
Y-767383D01*
X-565413Y-770715D01*
X-572078D01*
X-575410Y-767383D01*
X-555416Y-750722D02*
X-548752D01*
X-552084D01*
Y-770715D01*
X-555416D01*
X-548752D01*
X-538755Y-750722D02*
X-525426D01*
X-532091D01*
Y-770715D01*
X-518762Y-750722D02*
X-512097D01*
X-515429D01*
Y-770715D01*
X-518762D01*
X-512097D01*
X-492104Y-750722D02*
X-498768D01*
X-502100Y-754054D01*
Y-767383D01*
X-498768Y-770715D01*
X-492104D01*
X-488771Y-767383D01*
Y-754054D01*
X-492104Y-750722D01*
X-482107Y-770715D02*
Y-750722D01*
X-468778Y-770715D01*
Y-750722D01*
X-432123D02*
X-438787D01*
X-442120Y-754054D01*
Y-767383D01*
X-438787Y-770715D01*
X-432123D01*
X-428791Y-767383D01*
Y-754054D01*
X-432123Y-750722D01*
X-408797D02*
X-422126D01*
Y-760718D01*
X-415462D01*
X-422126D01*
Y-770715D01*
X-398800Y-774047D02*
X-395468Y-770715D01*
Y-767383D01*
X-398800D01*
Y-770715D01*
X-395468D01*
X-398800Y-774047D01*
X-402132Y-777380D01*
X-362145Y-770715D02*
Y-757386D01*
X-355481Y-750722D01*
X-348816Y-757386D01*
Y-770715D01*
Y-760718D01*
X-362145D01*
X-342152Y-770715D02*
Y-750722D01*
X-332155D01*
X-328823Y-754054D01*
Y-760718D01*
X-332155Y-764051D01*
X-342152D01*
X-322158Y-770715D02*
Y-750722D01*
X-312162D01*
X-308829Y-754054D01*
Y-760718D01*
X-312162Y-764051D01*
X-322158D01*
X-302165Y-750722D02*
Y-770715D01*
X-288836D01*
X-282171Y-750722D02*
X-275507D01*
X-278839D01*
Y-770715D01*
X-282171D01*
X-275507D01*
X-252181Y-750722D02*
X-265510D01*
Y-770715D01*
X-252181D01*
X-265510Y-760718D02*
X-258845D01*
X-245516Y-750722D02*
Y-770715D01*
X-235520D01*
X-232187Y-767383D01*
Y-754054D01*
X-235520Y-750722D01*
X-245516D01*
X-205529D02*
X-192200D01*
X-198865D01*
Y-770715D01*
X-175539Y-750722D02*
X-182203D01*
X-185536Y-754054D01*
Y-767383D01*
X-182203Y-770715D01*
X-175539D01*
X-172207Y-767383D01*
Y-754054D01*
X-175539Y-750722D01*
X-145548D02*
X-132219D01*
X-138884D01*
Y-770715D01*
X-125555Y-750722D02*
Y-770715D01*
Y-760718D01*
X-112226D01*
Y-750722D01*
Y-770715D01*
X-92232Y-750722D02*
X-105561D01*
Y-770715D01*
X-92232D01*
X-105561Y-760718D02*
X-98897D01*
X-65574Y-750722D02*
Y-770715D01*
X-55578D01*
X-52245Y-767383D01*
Y-764051D01*
X-55578Y-760718D01*
X-65574D01*
X-55578D01*
X-52245Y-757386D01*
Y-754054D01*
X-55578Y-750722D01*
X-65574D01*
X-35584D02*
X-42249D01*
X-45581Y-754054D01*
Y-767383D01*
X-42249Y-770715D01*
X-35584D01*
X-32252Y-767383D01*
Y-754054D01*
X-35584Y-750722D01*
X-25587Y-770715D02*
Y-757386D01*
X-18923Y-750722D01*
X-12258Y-757386D01*
Y-770715D01*
Y-760718D01*
X-25587D01*
X-5594Y-770715D02*
Y-750722D01*
X4403D01*
X7735Y-754054D01*
Y-760718D01*
X4403Y-764051D01*
X-5594D01*
X1071D02*
X7735Y-770715D01*
X14400Y-750722D02*
Y-770715D01*
X24397D01*
X27729Y-767383D01*
Y-754054D01*
X24397Y-750722D01*
X14400D01*
X54387Y-770715D02*
Y-750722D01*
X67716Y-770715D01*
Y-750722D01*
X87710D02*
X74381D01*
Y-770715D01*
X87710D01*
X74381Y-760718D02*
X81045D01*
X107703Y-750722D02*
X94374D01*
Y-770715D01*
X107703D01*
X94374Y-760718D02*
X101039D01*
X114368Y-750722D02*
Y-770715D01*
X124365D01*
X127697Y-767383D01*
Y-754054D01*
X124365Y-750722D01*
X114368D01*
X154355D02*
X167684D01*
X161019D01*
Y-770715D01*
X184345Y-750722D02*
X177681D01*
X174348Y-754054D01*
Y-767383D01*
X177681Y-770715D01*
X184345D01*
X187677Y-767383D01*
Y-754054D01*
X184345Y-750722D01*
X214336D02*
Y-770715D01*
X224332D01*
X227665Y-767383D01*
Y-764051D01*
X224332Y-760718D01*
X214336D01*
X224332D01*
X227665Y-757386D01*
Y-754054D01*
X224332Y-750722D01*
X214336D01*
X247658D02*
X234329D01*
Y-770715D01*
X247658D01*
X234329Y-760718D02*
X240994D01*
X274316Y-770715D02*
Y-757386D01*
X280981Y-750722D01*
X287645Y-757386D01*
Y-770715D01*
Y-760718D01*
X274316D01*
X294310Y-770715D02*
Y-750722D01*
X304307D01*
X307639Y-754054D01*
Y-760718D01*
X304307Y-764051D01*
X294310D01*
X314303Y-770715D02*
Y-750722D01*
X324300D01*
X327632Y-754054D01*
Y-760718D01*
X324300Y-764051D01*
X314303D01*
X334297Y-770715D02*
Y-750722D01*
X344294D01*
X347626Y-754054D01*
Y-760718D01*
X344294Y-764051D01*
X334297D01*
X340961D02*
X347626Y-770715D01*
X364287Y-750722D02*
X357623D01*
X354291Y-754054D01*
Y-767383D01*
X357623Y-770715D01*
X364287D01*
X367620Y-767383D01*
Y-754054D01*
X364287Y-750722D01*
X374284D02*
Y-764051D01*
X380948Y-770715D01*
X387613Y-764051D01*
Y-750722D01*
X394278D02*
X400942D01*
X397610D01*
Y-770715D01*
X394278D01*
X400942D01*
X424268Y-750722D02*
X410939D01*
Y-770715D01*
X424268D01*
X410939Y-760718D02*
X417603D01*
X430932Y-750722D02*
Y-770715D01*
X440929D01*
X444262Y-767383D01*
Y-754054D01*
X440929Y-750722D01*
X430932D01*
X470920D02*
Y-770715D01*
X480916D01*
X484249Y-767383D01*
Y-764051D01*
X480916Y-760718D01*
X470920D01*
X480916D01*
X484249Y-757386D01*
Y-754054D01*
X480916Y-750722D01*
X470920D01*
X490913D02*
Y-754054D01*
X497578Y-760718D01*
X504242Y-754054D01*
Y-750722D01*
X497578Y-760718D02*
Y-770715D01*
X530900D02*
Y-757386D01*
X537565Y-750722D01*
X544229Y-757386D01*
Y-770715D01*
Y-760718D01*
X530900D01*
X550894Y-750722D02*
X557558D01*
X554226D01*
Y-770715D01*
X550894D01*
X557558D01*
X567555D02*
Y-750722D01*
X577552D01*
X580884Y-754054D01*
Y-760718D01*
X577552Y-764051D01*
X567555D01*
X574220D02*
X580884Y-770715D01*
X587549Y-750722D02*
X600878D01*
Y-754054D01*
X587549Y-767383D01*
Y-770715D01*
X600878D01*
X607542D02*
Y-757386D01*
X614207Y-750722D01*
X620871Y-757386D01*
Y-770715D01*
Y-760718D01*
X607542D01*
X627536Y-750722D02*
X634200D01*
X630868D01*
Y-770715D01*
X627536D01*
X634200D01*
X-1011936Y-810898D02*
X-998607D01*
Y-814230D01*
X-1011936Y-827560D01*
Y-830892D01*
X-991942D02*
Y-827560D01*
X-988610D01*
Y-830892D01*
X-991942D01*
X-955288D02*
Y-810898D01*
X-948623Y-817563D01*
X-941959Y-810898D01*
Y-830892D01*
X-935294Y-810898D02*
X-928630D01*
X-931962D01*
Y-830892D01*
X-935294D01*
X-928630D01*
X-918633D02*
Y-810898D01*
X-905304Y-830892D01*
Y-810898D01*
X-898639D02*
X-891975D01*
X-895307D01*
Y-830892D01*
X-898639D01*
X-891975D01*
X-881978D02*
Y-810898D01*
X-875313Y-817563D01*
X-868649Y-810898D01*
Y-830892D01*
X-861984Y-810898D02*
Y-827560D01*
X-858652Y-830892D01*
X-851988D01*
X-848655Y-827560D01*
Y-810898D01*
X-841991Y-830892D02*
Y-810898D01*
X-835326Y-817563D01*
X-828662Y-810898D01*
Y-830892D01*
X-802004Y-810898D02*
X-788675D01*
X-795339D01*
Y-830892D01*
X-782010D02*
Y-810898D01*
X-772013D01*
X-768681Y-814230D01*
Y-820895D01*
X-772013Y-824227D01*
X-782010D01*
X-775346D02*
X-768681Y-830892D01*
X-762017D02*
Y-817563D01*
X-755352Y-810898D01*
X-748688Y-817563D01*
Y-830892D01*
Y-820895D01*
X-762017D01*
X-728694Y-814230D02*
X-732026Y-810898D01*
X-738691D01*
X-742023Y-814230D01*
Y-827560D01*
X-738691Y-830892D01*
X-732026D01*
X-728694Y-827560D01*
X-708700Y-810898D02*
X-722029D01*
Y-830892D01*
X-708700D01*
X-722029Y-820895D02*
X-715365D01*
X-682042Y-810898D02*
Y-830892D01*
X-675378Y-824227D01*
X-668713Y-830892D01*
Y-810898D01*
X-662049D02*
X-655384D01*
X-658717D01*
Y-830892D01*
X-662049D01*
X-655384D01*
X-645387Y-810898D02*
Y-830892D01*
X-635391D01*
X-632058Y-827560D01*
Y-814230D01*
X-635391Y-810898D01*
X-645387D01*
X-625394D02*
X-612065D01*
X-618729D01*
Y-830892D01*
X-605400Y-810898D02*
Y-830892D01*
Y-820895D01*
X-592071D01*
Y-810898D01*
Y-830892D01*
X-572078Y-814230D02*
X-575410Y-810898D01*
X-582075D01*
X-585407Y-814230D01*
Y-817563D01*
X-582075Y-820895D01*
X-575410D01*
X-572078Y-824227D01*
Y-827560D01*
X-575410Y-830892D01*
X-582075D01*
X-585407Y-827560D01*
X-565413Y-817563D02*
X-562081D01*
Y-820895D01*
X-565413D01*
Y-817563D01*
Y-827560D02*
X-562081D01*
Y-830892D01*
X-565413D01*
Y-827560D01*
X-798671Y-840986D02*
X-812000D01*
Y-860980D01*
X-798671D01*
X-812000Y-850983D02*
X-805336D01*
X-792007Y-840986D02*
X-778678Y-860980D01*
Y-840986D02*
X-792007Y-860980D01*
X-772013Y-840986D02*
X-758684D01*
X-765349D01*
Y-860980D01*
X-738691Y-840986D02*
X-752020D01*
Y-860980D01*
X-738691D01*
X-752020Y-850983D02*
X-745355D01*
X-732026Y-860980D02*
Y-840986D01*
X-722029D01*
X-718697Y-844319D01*
Y-850983D01*
X-722029Y-854315D01*
X-732026D01*
X-725362D02*
X-718697Y-860980D01*
X-712033D02*
Y-840986D01*
X-698704Y-860980D01*
Y-840986D01*
X-692039Y-860980D02*
Y-847651D01*
X-685375Y-840986D01*
X-678710Y-847651D01*
Y-860980D01*
Y-850983D01*
X-692039D01*
X-672046Y-840986D02*
Y-860980D01*
X-658717D01*
X-652052Y-847651D02*
X-648720D01*
Y-850983D01*
X-652052D01*
Y-847651D01*
Y-857648D02*
X-648720D01*
Y-860980D01*
X-652052D01*
Y-857648D01*
X-615397Y-844319D02*
X-612065Y-840986D01*
X-605400D01*
X-602068Y-844319D01*
Y-857648D01*
X-605400Y-860980D01*
X-612065D01*
X-615397Y-857648D01*
Y-844319D01*
X-595404Y-860980D02*
Y-857648D01*
X-592071D01*
Y-860980D01*
X-595404D01*
X-578742D02*
X-572078D01*
X-575410D01*
Y-840986D01*
X-578742Y-844319D01*
X-548752Y-840986D02*
X-562081D01*
Y-850983D01*
X-555416Y-847651D01*
X-552084D01*
X-548752Y-850983D01*
Y-857648D01*
X-552084Y-860980D01*
X-558749D01*
X-562081Y-857648D01*
X-528758Y-860980D02*
X-542087D01*
X-528758Y-847651D01*
Y-844319D01*
X-532091Y-840986D01*
X-538755D01*
X-542087Y-844319D01*
X-502100Y-860980D02*
Y-847651D01*
X-498768D01*
X-495436Y-850983D01*
Y-860980D01*
Y-850983D01*
X-492104Y-847651D01*
X-488771Y-850983D01*
Y-860980D01*
X-482107D02*
Y-847651D01*
X-478774D01*
X-475442Y-850983D01*
Y-860980D01*
Y-850983D01*
X-472110Y-847651D01*
X-468778Y-850983D01*
Y-860980D01*
X-422126Y-840986D02*
X-415462D01*
X-418794D01*
Y-860980D01*
X-422126D01*
X-415462D01*
X-405465D02*
Y-840986D01*
X-392136Y-860980D01*
Y-840986D01*
X-385471D02*
X-372142D01*
X-378807D01*
Y-860980D01*
X-352149Y-840986D02*
X-365478D01*
Y-860980D01*
X-352149D01*
X-365478Y-850983D02*
X-358813D01*
X-345484Y-860980D02*
Y-840986D01*
X-335487D01*
X-332155Y-844319D01*
Y-850983D01*
X-335487Y-854315D01*
X-345484D01*
X-338820D02*
X-332155Y-860980D01*
X-325490D02*
Y-840986D01*
X-312162Y-860980D01*
Y-840986D01*
X-305497Y-860980D02*
Y-847651D01*
X-298832Y-840986D01*
X-292168Y-847651D01*
Y-860980D01*
Y-850983D01*
X-305497D01*
X-285503Y-840986D02*
Y-860980D01*
X-272174D01*
X-265510Y-847651D02*
X-262178D01*
Y-850983D01*
X-265510D01*
Y-847651D01*
Y-857648D02*
X-262178D01*
Y-860980D01*
X-265510D01*
Y-857648D01*
X-228855Y-860980D02*
Y-840986D01*
X-215526Y-860980D01*
Y-840986D01*
X-208862Y-860980D02*
X-195532Y-847651D01*
X-188868Y-860980D02*
Y-847651D01*
X-182203Y-840986D01*
X-175539Y-847651D01*
Y-860980D01*
Y-850983D01*
X-188868D01*
X-1011936Y-904495D02*
X-1008604Y-901163D01*
X-1001939D01*
X-998607Y-904495D01*
Y-907828D01*
X-1001939Y-911160D01*
X-998607Y-914492D01*
Y-917824D01*
X-1001939Y-921157D01*
X-1008604D01*
X-1011936Y-917824D01*
Y-914492D01*
X-1008604Y-911160D01*
X-1011936Y-907828D01*
Y-904495D01*
X-1008604Y-911160D02*
X-1001939D01*
X-991942Y-921157D02*
Y-917824D01*
X-988610D01*
Y-921157D01*
X-991942D01*
X-955288D02*
Y-901163D01*
X-948623Y-907828D01*
X-941959Y-901163D01*
Y-921157D01*
X-935294Y-901163D02*
X-928630D01*
X-931962D01*
Y-921157D01*
X-935294D01*
X-928630D01*
X-918633D02*
Y-901163D01*
X-905304Y-921157D01*
Y-901163D01*
X-898639D02*
X-891975D01*
X-895307D01*
Y-921157D01*
X-898639D01*
X-891975D01*
X-881978D02*
Y-901163D01*
X-875313Y-907828D01*
X-868649Y-901163D01*
Y-921157D01*
X-861984Y-901163D02*
Y-917824D01*
X-858652Y-921157D01*
X-851988D01*
X-848655Y-917824D01*
Y-901163D01*
X-841991Y-921157D02*
Y-901163D01*
X-835326Y-907828D01*
X-828662Y-901163D01*
Y-921157D01*
X-788675Y-904495D02*
X-792007Y-901163D01*
X-798671D01*
X-802004Y-904495D01*
Y-907828D01*
X-798671Y-911160D01*
X-792007D01*
X-788675Y-914492D01*
Y-917824D01*
X-792007Y-921157D01*
X-798671D01*
X-802004Y-917824D01*
X-782010Y-921157D02*
Y-901163D01*
X-772013D01*
X-768681Y-904495D01*
Y-911160D01*
X-772013Y-914492D01*
X-782010D01*
X-762017Y-921157D02*
Y-907828D01*
X-755352Y-901163D01*
X-748688Y-907828D01*
Y-921157D01*
Y-911160D01*
X-762017D01*
X-728694Y-904495D02*
X-732026Y-901163D01*
X-738691D01*
X-742023Y-904495D01*
Y-917824D01*
X-738691Y-921157D01*
X-732026D01*
X-728694Y-917824D01*
X-708700Y-901163D02*
X-722029D01*
Y-921157D01*
X-708700D01*
X-722029Y-911160D02*
X-715365D01*
X-682042Y-901163D02*
Y-921157D01*
X-672046D01*
X-668713Y-917824D01*
Y-914492D01*
X-672046Y-911160D01*
X-682042D01*
X-672046D01*
X-668713Y-907828D01*
Y-904495D01*
X-672046Y-901163D01*
X-682042D01*
X-648720D02*
X-662049D01*
Y-921157D01*
X-648720D01*
X-662049Y-911160D02*
X-655384D01*
X-642055Y-901163D02*
X-628726D01*
X-635391D01*
Y-921157D01*
X-622062Y-901163D02*
Y-921157D01*
X-615397Y-914492D01*
X-608733Y-921157D01*
Y-901163D01*
X-588739D02*
X-602068D01*
Y-921157D01*
X-588739D01*
X-602068Y-911160D02*
X-595404D01*
X-568745Y-901163D02*
X-582075D01*
Y-921157D01*
X-568745D01*
X-582075Y-911160D02*
X-575410D01*
X-562081Y-921157D02*
Y-901163D01*
X-548752Y-921157D01*
Y-901163D01*
X-508765D02*
X-522094D01*
Y-911160D01*
X-515429D01*
X-522094D01*
Y-921157D01*
X-488771Y-901163D02*
X-502100D01*
Y-921157D01*
X-488771D01*
X-502100Y-911160D02*
X-495436D01*
X-482107Y-921157D02*
Y-907828D01*
X-475442Y-901163D01*
X-468778Y-907828D01*
Y-921157D01*
Y-911160D01*
X-482107D01*
X-462113Y-901163D02*
X-448784D01*
X-455449D01*
Y-921157D01*
X-442120Y-901163D02*
Y-917824D01*
X-438787Y-921157D01*
X-432123D01*
X-428791Y-917824D01*
Y-901163D01*
X-422126Y-921157D02*
Y-901163D01*
X-412129D01*
X-408797Y-904495D01*
Y-911160D01*
X-412129Y-914492D01*
X-422126D01*
X-415462D02*
X-408797Y-921157D01*
X-388803Y-901163D02*
X-402132D01*
Y-921157D01*
X-388803D01*
X-402132Y-911160D02*
X-395468D01*
X-368810Y-904495D02*
X-372142Y-901163D01*
X-378807D01*
X-382139Y-904495D01*
Y-907828D01*
X-378807Y-911160D01*
X-372142D01*
X-368810Y-914492D01*
Y-917824D01*
X-372142Y-921157D01*
X-378807D01*
X-382139Y-917824D01*
X-362145Y-907828D02*
X-358813D01*
Y-911160D01*
X-362145D01*
Y-907828D01*
Y-917824D02*
X-358813D01*
Y-921157D01*
X-362145D01*
Y-917824D01*
X-818665Y-931251D02*
X-831994D01*
Y-951245D01*
X-818665D01*
X-831994Y-941248D02*
X-825330D01*
X-812000Y-931251D02*
X-798671Y-951245D01*
Y-931251D02*
X-812000Y-951245D01*
X-792007Y-931251D02*
X-778678D01*
X-785342D01*
Y-951245D01*
X-758684Y-931251D02*
X-772013D01*
Y-951245D01*
X-758684D01*
X-772013Y-941248D02*
X-765349D01*
X-752020Y-951245D02*
Y-931251D01*
X-742023D01*
X-738691Y-934584D01*
Y-941248D01*
X-742023Y-944580D01*
X-752020D01*
X-745355D02*
X-738691Y-951245D01*
X-732026D02*
Y-931251D01*
X-718697Y-951245D01*
Y-931251D01*
X-712033Y-951245D02*
Y-937916D01*
X-705368Y-931251D01*
X-698704Y-937916D01*
Y-951245D01*
Y-941248D01*
X-712033D01*
X-692039Y-931251D02*
Y-951245D01*
X-678710D01*
X-672046Y-937916D02*
X-668713D01*
Y-941248D01*
X-672046D01*
Y-937916D01*
Y-947913D02*
X-668713D01*
Y-951245D01*
X-672046D01*
Y-947913D01*
X-635391Y-934584D02*
X-632058Y-931251D01*
X-625394D01*
X-622062Y-934584D01*
Y-947913D01*
X-625394Y-951245D01*
X-632058D01*
X-635391Y-947913D01*
Y-934584D01*
X-615397Y-951245D02*
Y-947913D01*
X-612065D01*
Y-951245D01*
X-615397D01*
X-598736D02*
X-592071D01*
X-595404D01*
Y-931251D01*
X-598736Y-934584D01*
X-568745Y-931251D02*
X-582075D01*
Y-941248D01*
X-575410Y-937916D01*
X-572078D01*
X-568745Y-941248D01*
Y-947913D01*
X-572078Y-951245D01*
X-578742D01*
X-582075Y-947913D01*
X-542087Y-951245D02*
Y-937916D01*
X-538755D01*
X-535423Y-941248D01*
Y-951245D01*
Y-941248D01*
X-532091Y-937916D01*
X-528758Y-941248D01*
Y-951245D01*
X-522094D02*
Y-937916D01*
X-518762D01*
X-515429Y-941248D01*
Y-951245D01*
Y-941248D01*
X-512097Y-937916D01*
X-508765Y-941248D01*
Y-951245D01*
X-462113Y-931251D02*
X-455449D01*
X-458781D01*
Y-951245D01*
X-462113D01*
X-455449D01*
X-445452D02*
Y-931251D01*
X-432123Y-951245D01*
Y-931251D01*
X-425458D02*
X-412129D01*
X-418794D01*
Y-951245D01*
X-392136Y-931251D02*
X-405465D01*
Y-951245D01*
X-392136D01*
X-405465Y-941248D02*
X-398800D01*
X-385471Y-951245D02*
Y-931251D01*
X-375474D01*
X-372142Y-934584D01*
Y-941248D01*
X-375474Y-944580D01*
X-385471D01*
X-378807D02*
X-372142Y-951245D01*
X-365478D02*
Y-931251D01*
X-352149Y-951245D01*
Y-931251D01*
X-345484Y-951245D02*
Y-937916D01*
X-338820Y-931251D01*
X-332155Y-937916D01*
Y-951245D01*
Y-941248D01*
X-345484D01*
X-325490Y-931251D02*
Y-951245D01*
X-312162D01*
X-305497Y-937916D02*
X-302165D01*
Y-941248D01*
X-305497D01*
Y-937916D01*
Y-947913D02*
X-302165D01*
Y-951245D01*
X-305497D01*
Y-947913D01*
X-268842Y-951245D02*
Y-931251D01*
X-255513Y-951245D01*
Y-931251D01*
X-248849Y-951245D02*
X-235520Y-937916D01*
X-228855Y-951245D02*
Y-937916D01*
X-222190Y-931251D01*
X-215526Y-937916D01*
Y-951245D01*
Y-941248D01*
X-228855D01*
X-1011936Y-1008089D02*
X-1008604Y-1011421D01*
X-1001939D01*
X-998607Y-1008089D01*
Y-994760D01*
X-1001939Y-991428D01*
X-1008604D01*
X-1011936Y-994760D01*
Y-998092D01*
X-1008604Y-1001425D01*
X-998607D01*
X-991942Y-1011421D02*
Y-1008089D01*
X-988610D01*
Y-1011421D01*
X-991942D01*
X-945291Y-991428D02*
X-951955D01*
X-955288Y-994760D01*
Y-1008089D01*
X-951955Y-1011421D01*
X-945291D01*
X-941959Y-1008089D01*
Y-994760D01*
X-945291Y-991428D01*
X-935294Y-998092D02*
X-928630Y-1011421D01*
X-921965Y-998092D01*
X-905304Y-1011421D02*
X-911968D01*
X-915301Y-1008089D01*
Y-1001425D01*
X-911968Y-998092D01*
X-905304D01*
X-901971Y-1001425D01*
Y-1004757D01*
X-915301D01*
X-895307Y-998092D02*
Y-1011421D01*
Y-1004757D01*
X-891975Y-1001425D01*
X-888642Y-998092D01*
X-885310D01*
X-871981D02*
X-865317D01*
X-861984Y-1001425D01*
Y-1011421D01*
X-871981D01*
X-875313Y-1008089D01*
X-871981Y-1004757D01*
X-861984D01*
X-855320Y-1011421D02*
X-848655D01*
X-851988D01*
Y-991428D01*
X-855320D01*
X-838659Y-1011421D02*
X-831994D01*
X-835326D01*
Y-991428D01*
X-838659D01*
X-802004D02*
Y-1011421D01*
X-792007D01*
X-788675Y-1008089D01*
Y-1004757D01*
X-792007Y-1001425D01*
X-802004D01*
X-792007D01*
X-788675Y-998092D01*
Y-994760D01*
X-792007Y-991428D01*
X-802004D01*
X-778678Y-1011421D02*
X-772013D01*
X-768681Y-1008089D01*
Y-1001425D01*
X-772013Y-998092D01*
X-778678D01*
X-782010Y-1001425D01*
Y-1008089D01*
X-778678Y-1011421D01*
X-758684Y-998092D02*
X-752020D01*
X-748688Y-1001425D01*
Y-1011421D01*
X-758684D01*
X-762017Y-1008089D01*
X-758684Y-1004757D01*
X-748688D01*
X-742023Y-998092D02*
Y-1011421D01*
Y-1004757D01*
X-738691Y-1001425D01*
X-735359Y-998092D01*
X-732026D01*
X-708700Y-991428D02*
Y-1011421D01*
X-718697D01*
X-722029Y-1008089D01*
Y-1001425D01*
X-718697Y-998092D01*
X-708700D01*
X-682042Y-991428D02*
X-668713D01*
X-675378D01*
Y-1011421D01*
X-662049Y-991428D02*
Y-1011421D01*
Y-1001425D01*
X-658717Y-998092D01*
X-652052D01*
X-648720Y-1001425D01*
Y-1011421D01*
X-642055D02*
X-635391D01*
X-638723D01*
Y-998092D01*
X-642055D01*
X-612065D02*
X-622062D01*
X-625394Y-1001425D01*
Y-1008089D01*
X-622062Y-1011421D01*
X-612065D01*
X-605400D02*
Y-991428D01*
Y-1004757D02*
X-595404Y-998092D01*
X-605400Y-1004757D02*
X-595404Y-1011421D01*
X-585407D02*
Y-998092D01*
X-575410D01*
X-572078Y-1001425D01*
Y-1011421D01*
X-555416D02*
X-562081D01*
X-565413Y-1008089D01*
Y-1001425D01*
X-562081Y-998092D01*
X-555416D01*
X-552084Y-1001425D01*
Y-1004757D01*
X-565413D01*
X-545420Y-1011421D02*
X-535423D01*
X-532091Y-1008089D01*
X-535423Y-1004757D01*
X-542087D01*
X-545420Y-1001425D01*
X-542087Y-998092D01*
X-532091D01*
X-525426Y-1011421D02*
X-515429D01*
X-512097Y-1008089D01*
X-515429Y-1004757D01*
X-522094D01*
X-525426Y-1001425D01*
X-522094Y-998092D01*
X-512097D01*
X-505433D02*
X-502100D01*
Y-1001425D01*
X-505433D01*
Y-998092D01*
Y-1008089D02*
X-502100D01*
Y-1011421D01*
X-505433D01*
Y-1008089D01*
X-468778Y-994760D02*
X-465446Y-991428D01*
X-458781D01*
X-455449Y-994760D01*
Y-1008089D01*
X-458781Y-1011421D01*
X-465446D01*
X-468778Y-1008089D01*
Y-994760D01*
X-448784Y-1011421D02*
Y-1008089D01*
X-445452D01*
Y-1011421D01*
X-448784D01*
X-432123D02*
X-425458D01*
X-428791D01*
Y-991428D01*
X-432123Y-994760D01*
X-415462Y-1011421D02*
Y-998092D01*
X-412129D01*
X-408797Y-1001425D01*
Y-1011421D01*
Y-1001425D01*
X-405465Y-998092D01*
X-402133Y-1001425D01*
Y-1011421D01*
X-395468D02*
Y-998092D01*
X-392136D01*
X-388803Y-1001425D01*
Y-1011421D01*
Y-1001425D01*
X-385471Y-998092D01*
X-382139Y-1001425D01*
Y-1011421D01*
X1908580Y-1046935D02*
Y-1014445D01*
X1924825D01*
X1930239Y-1019860D01*
Y-1030690D01*
X1924825Y-1036105D01*
X1908580D01*
X1941069Y-1014445D02*
Y-1046935D01*
X1951899Y-1036105D01*
X1962729Y-1046935D01*
Y-1014445D01*
X1973559Y-1046935D02*
Y-1025275D01*
X1984389Y-1014445D01*
X1995218Y-1025275D01*
Y-1046935D01*
Y-1030690D01*
X1973559D01*
X2006048D02*
X2027708D01*
X2038538Y-1019860D02*
X2043953Y-1014445D01*
X2054783D01*
X2060197Y-1019860D01*
Y-1041520D01*
X2054783Y-1046935D01*
X2043953D01*
X2038538Y-1041520D01*
Y-1019860D01*
X2092687Y-1046935D02*
X2071027D01*
X2092687Y-1025275D01*
Y-1019860D01*
X2087272Y-1014445D01*
X2076442D01*
X2071027Y-1019860D01*
X2103517D02*
X2108932Y-1014445D01*
X2119762D01*
X2125176Y-1019860D01*
Y-1041520D01*
X2119762Y-1046935D01*
X2108932D01*
X2103517Y-1041520D01*
Y-1019860D01*
X2157666Y-1046935D02*
X2136006D01*
X2157666Y-1025275D01*
Y-1019860D01*
X2152251Y-1014445D01*
X2141421D01*
X2136006Y-1019860D01*
X2168496Y-1046935D02*
X2179326D01*
X2173911D01*
Y-1014445D01*
X2168496Y-1019860D01*
X2195570D02*
X2200985Y-1014445D01*
X2211815D01*
X2217230Y-1019860D01*
Y-1025275D01*
X2211815Y-1030690D01*
X2217230Y-1036105D01*
Y-1041520D01*
X2211815Y-1046935D01*
X2200985D01*
X2195570Y-1041520D01*
Y-1036105D01*
X2200985Y-1030690D01*
X2195570Y-1025275D01*
Y-1019860D01*
X2200985Y-1030690D02*
X2211815D01*
X2228060D02*
X2249720D01*
X2260549Y-1019860D02*
X2265964Y-1014445D01*
X2276794D01*
X2282209Y-1019860D01*
Y-1041520D01*
X2276794Y-1046935D01*
X2265964D01*
X2260549Y-1041520D01*
Y-1019860D01*
X2293039D02*
X2298454Y-1014445D01*
X2309283D01*
X2314698Y-1019860D01*
Y-1041520D01*
X2309283Y-1046935D01*
X2298454D01*
X2293039Y-1041520D01*
Y-1019860D01*
X2325528Y-1046935D02*
X2336358D01*
X2330943D01*
Y-1014445D01*
X2325528Y-1019860D01*
D21*
X1559500Y666000D02*
G03*
X1554500Y671000I-5000J0D01*
G01*
X1584500Y714640D02*
G03*
X1578140Y721000I-6360J0D01*
G01*
X0Y671000D02*
Y721000D01*
Y671000D02*
X1554500D01*
X0Y721000D02*
X1474500D01*
X1559500D01*
Y514000D02*
Y666000D01*
X1554500Y671000D02*
X1554500D01*
X1559500Y721000D02*
X1578140D01*
X1584500Y514000D02*
Y714640D01*
X1559500Y514000D02*
X1584500D01*
X1559500Y409000D02*
G03*
X1554500Y414000I-5000J0D01*
G01*
X1584500Y457640D02*
G03*
X1578140Y464000I-6360J0D01*
G01*
X0Y414000D02*
Y464000D01*
Y414000D02*
X1554500D01*
X0Y464000D02*
X1474500D01*
X1559500D01*
Y257000D02*
Y409000D01*
X1554500Y414000D02*
X1554500D01*
X1559500Y464000D02*
X1578140D01*
X1584500Y257000D02*
Y457640D01*
X1559500Y257000D02*
X1584500D01*
X1559500Y152000D02*
G03*
X1554500Y157000I-5000J0D01*
G01*
X1584500Y200640D02*
G03*
X1578140Y207000I-6360J0D01*
G01*
X0Y157000D02*
Y207000D01*
Y157000D02*
X1554500D01*
X0Y207000D02*
X1474500D01*
X1559500D01*
Y0D02*
Y152000D01*
X1554500Y157000D02*
X1554500D01*
X1559500Y207000D02*
X1578140D01*
X1584500Y0D02*
Y200640D01*
X1559500Y0D02*
X1584500D01*
D34*
X2509977Y-1037685D02*
X2511406Y-1036970D01*
X2513548Y-1034828D01*
Y-1049825D01*
X2461977Y-1037685D02*
X2463406Y-1036970D01*
X2465548Y-1034828D01*
Y-1049825D01*
D35*
X1859304Y-973021D02*
Y-933034D01*
X1879297D01*
X1885962Y-939698D01*
Y-953027D01*
X1879297Y-959692D01*
X1859304D01*
X1899291Y-933034D02*
Y-973021D01*
X1912620Y-959692D01*
X1925949Y-973021D01*
Y-933034D01*
X1939278D02*
Y-973021D01*
X1959271D01*
X1965936Y-966356D01*
Y-959692D01*
X1959271Y-953027D01*
X1939278D01*
X1959271D01*
X1965936Y-946363D01*
Y-939698D01*
X1959271Y-933034D01*
X1939278D01*
X1985930Y-979685D02*
X1992594Y-973021D01*
Y-966356D01*
X1985930D01*
Y-973021D01*
X1992594D01*
X1985930Y-979685D01*
X1979265Y-986350D01*
X2059239Y-933034D02*
Y-973021D01*
X2085897D01*
X2125884Y-933034D02*
X2099226D01*
Y-973021D01*
X2125884D01*
X2099226Y-953027D02*
X2112555D01*
X2139213Y-933034D02*
Y-973021D01*
X2159207D01*
X2165871Y-966356D01*
Y-939698D01*
X2159207Y-933034D01*
X2139213D01*
X2245845Y-939698D02*
X2239181Y-933034D01*
X2225852D01*
X2219187Y-939698D01*
Y-946363D01*
X2225852Y-953027D01*
X2239181D01*
X2245845Y-959692D01*
Y-966356D01*
X2239181Y-973021D01*
X2225852D01*
X2219187Y-966356D01*
X2259174Y-933034D02*
X2285833D01*
X2272504D01*
Y-973021D01*
X2299162D02*
Y-933034D01*
X2319155D01*
X2325820Y-939698D01*
Y-953027D01*
X2319155Y-959692D01*
X2299162D01*
X2312491D02*
X2325820Y-973021D01*
X2339149Y-933034D02*
X2352478D01*
X2345813D01*
Y-973021D01*
X2339149D01*
X2352478D01*
X2372471D02*
Y-933034D01*
X2392465D01*
X2399129Y-939698D01*
Y-953027D01*
X2392465Y-959692D01*
X2372471D01*
X2479103Y-933034D02*
X2452445D01*
Y-953027D01*
X2465774D01*
X2452445D01*
Y-973021D01*
X2492432Y-933034D02*
Y-973021D01*
X2519090D01*
X2559077Y-933034D02*
X2532419D01*
Y-973021D01*
X2559077D01*
X2532419Y-953027D02*
X2545748D01*
X2572407Y-933034D02*
X2599065Y-973021D01*
Y-933034D02*
X2572407Y-973021D01*
M02*
