G04*
G04 #@! TF.GenerationSoftware,Altium Limited,Altium Designer,19.0.12 (326)*
G04*
G04 Layer_Physical_Order=1*
G04 Layer_Color=255*
%FSLAX44Y44*%
%MOMM*%
G71*
G01*
G75*
%ADD10C,0.2413*%
%ADD11C,0.2540*%
%ADD12C,0.1524*%
%ADD13R,0.3000X4.0000*%
%ADD14R,0.5000X0.8000*%
%ADD15R,0.3000X0.8000*%
%ADD16R,1.0000X0.3000*%
%ADD17R,0.6000X0.6000*%
%ADD18C,0.2032*%
%ADD19C,0.6350*%
%ADD20C,0.3048*%
%ADD21C,0.1270*%
%ADD22C,0.5080*%
%ADD23C,0.4064*%
D10*
X1580119Y714640D02*
G03*
X1578140Y716618I-1979J0D01*
G01*
X1435483Y712251D02*
G03*
X1433008Y713279I-2474J-2465D01*
G01*
X1435478Y712256D02*
G03*
X1433008Y713279I-2470J-2470D01*
G01*
X1402198D02*
G03*
X1399724Y712251I0J-3492D01*
G01*
X1402198Y713279D02*
G03*
X1399729Y712256I0J-3492D01*
G01*
X1305521Y713279D02*
G03*
X1303051Y712256I0J-3492D01*
G01*
X1335656Y712251D02*
G03*
X1333182Y713279I-2474J-2465D01*
G01*
X1335652Y712256D02*
G03*
X1333182Y713279I-2470J-2470D01*
G01*
X1236413Y712256D02*
G03*
X1233944Y713279I-2470J-2470D01*
G01*
X1305521Y713279D02*
G03*
X1303047Y712251I0J-3492D01*
G01*
X1216629Y713279D02*
G03*
X1214159Y712256I0J-3492D01*
G01*
X1216629Y713279D02*
G03*
X1214154Y712251I0J-3492D01*
G01*
X1236418D02*
G03*
X1233944Y713279I-2474J-2465D01*
G01*
X1135651Y712256D02*
G03*
X1133182Y713279I-2470J-2470D01*
G01*
X1135656Y712251D02*
G03*
X1133182Y713279I-2474J-2465D01*
G01*
X1115940D02*
G03*
X1113471Y712256I0J-3492D01*
G01*
X1115940Y713279D02*
G03*
X1113466Y712251I0J-3492D01*
G01*
X1016011Y713279D02*
G03*
X1013541Y712256I0J-3492D01*
G01*
X1016011Y713279D02*
G03*
X1013536Y712251I0J-3492D01*
G01*
X1035656D02*
G03*
X1033182Y713279I-2474J-2465D01*
G01*
X1035651Y712256D02*
G03*
X1033182Y713279I-2470J-2470D01*
G01*
X935651Y712256D02*
G03*
X933182Y713279I-2470J-2470D01*
G01*
X915131D02*
G03*
X912661Y712256I0J-3492D01*
G01*
X835651D02*
G03*
X833182Y713279I-2470J-2470D01*
G01*
X814950D02*
G03*
X812481Y712256I0J-3492D01*
G01*
X935656Y712251D02*
G03*
X933182Y713279I-2474J-2465D01*
G01*
X915131D02*
G03*
X912656Y712251I0J-3492D01*
G01*
X835656D02*
G03*
X833182Y713279I-2474J-2465D01*
G01*
X814950D02*
G03*
X812476Y712251I0J-3492D01*
G01*
X1458182Y681605D02*
G03*
X1458672Y683145I-4718J2350D01*
G01*
X1357937Y682113D02*
G03*
X1358206Y683145I-4938J1841D01*
G01*
X1578501Y599612D02*
G03*
X1578401Y600498I-4001J0D01*
G01*
Y600498D02*
G03*
X1578994Y602928I-4677J2430D01*
G01*
X1566288Y678296D02*
G03*
X1558299Y681605I-7988J-7988D01*
G01*
X1571375Y666015D02*
G03*
X1566288Y678296I-17368J0D01*
G01*
X1578501Y599612D02*
G03*
X1578401Y600498I-4001J0D01*
G01*
X1578994Y602928D02*
G03*
X1571375Y607646I-5271J0D01*
G01*
X1258807Y681526D02*
G03*
X1259433Y683321I-4583J2603D01*
G01*
X1158659Y682288D02*
G03*
X1158929Y683321I-4938J1841D01*
G01*
X960943Y684573D02*
G03*
X961506Y685270I-3008J3008D01*
G01*
X960935Y684565D02*
G03*
X961506Y685270I-3001J3016D01*
G01*
X861447Y684573D02*
G03*
X861957Y685190I-3008J3008D01*
G01*
X861439Y684565D02*
G03*
X861957Y685190I-3001J3016D01*
G01*
X1059163Y681526D02*
G03*
X1059433Y682559I-4938J1841D01*
G01*
X958659Y681526D02*
G03*
X958929Y682559I-4938J1841D01*
G01*
X859163Y681526D02*
G03*
X859433Y682559I-4938J1841D01*
G01*
X635656Y712251D02*
G03*
X633182Y713279I-2474J-2465D01*
G01*
X718430Y713279D02*
G03*
X715956Y712251I0J-3492D01*
G01*
X635651Y712256D02*
G03*
X633182Y713279I-2470J-2470D01*
G01*
X735651Y712256D02*
G03*
X733182Y713279I-2470J-2470D01*
G01*
X718430D02*
G03*
X715961Y712256I0J-3492D01*
G01*
X617846Y713279D02*
G03*
X615377Y712256I0J-3492D01*
G01*
X617846Y713279D02*
G03*
X615372Y712251I0J-3492D01*
G01*
X535656Y712251D02*
G03*
X533182Y713279I-2474J-2465D01*
G01*
X535652Y712256D02*
G03*
X533182Y713279I-2470J-2470D01*
G01*
X735656Y712251D02*
G03*
X733182Y713279I-2474J-2465D01*
G01*
X435656Y712251D02*
G03*
X433182Y713279I-2474J-2465D01*
G01*
X518024Y713279D02*
G03*
X515555Y712256I0J-3492D01*
G01*
X435651Y712256D02*
G03*
X433182Y713279I-2470J-2470D01*
G01*
X416424D02*
G03*
X413955Y712256I0J-3492D01*
G01*
X416424Y713279D02*
G03*
X413950Y712251I0J-3492D01*
G01*
X518024Y713279D02*
G03*
X515550Y712251I0J-3492D01*
G01*
X335652Y712256D02*
G03*
X333182Y713279I-2470J-2470D01*
G01*
X335656Y712251D02*
G03*
X333182Y713279I-2474J-2465D01*
G01*
X312514Y713279D02*
G03*
X310045Y712256I0J-3492D01*
G01*
X312514Y713279D02*
G03*
X310040Y712251I0J-3492D01*
G01*
X214494Y713279D02*
G03*
X212025Y712256I0J-3492D01*
G01*
X214494Y713279D02*
G03*
X212020Y712251I0J-3492D01*
G01*
X135651Y712256D02*
G03*
X133182Y713279I-2470J-2470D01*
G01*
X235651Y712256D02*
G03*
X233182Y713279I-2470J-2470D01*
G01*
X235656Y712251D02*
G03*
X233182Y713279I-2474J-2465D01*
G01*
X135656Y712251D02*
G03*
X133182Y713279I-2474J-2465D01*
G01*
X113402Y713279D02*
G03*
X110933Y712256I0J-3492D01*
G01*
X113402Y713279D02*
G03*
X110928Y712251I0J-3492D01*
G01*
X21025Y699739D02*
G03*
X18607Y698649I231J-3739D01*
G01*
X21025Y699739D02*
G03*
X18601Y698643I231J-3739D01*
G01*
X758659Y681526D02*
G03*
X758929Y682559I-4938J1841D01*
G01*
X659163Y681526D02*
G03*
X659433Y682559I-4938J1842D01*
G01*
X461439Y684566D02*
G03*
X461957Y685190I-3001J3016D01*
G01*
X461447Y684573D02*
G03*
X461957Y685190I-3008J3008D01*
G01*
X558659Y681526D02*
G03*
X558929Y682559I-4938J1841D01*
G01*
X459163Y681526D02*
G03*
X459433Y682559I-4938J1841D01*
G01*
X358659Y681526D02*
G03*
X358929Y682559I-4938J1841D01*
G01*
X160929Y684574D02*
G03*
X161439Y685189I-3008J3008D01*
G01*
X160921Y684566D02*
G03*
X161439Y685189I-3001J3016D01*
G01*
X158645Y681526D02*
G03*
X158915Y682559I-4938J1841D01*
G01*
X259163Y681526D02*
G03*
X259433Y682559I-4938J1842D01*
G01*
X60921Y684565D02*
G03*
X61891Y686053I-3001J3016D01*
G01*
X60929Y684573D02*
G03*
X61891Y686053I-3008J3008D01*
G01*
X15705Y695747D02*
G03*
X14607Y693098I2649J-2649D01*
G01*
X15711Y695753D02*
G03*
X14607Y693098I2643J-2655D01*
G01*
X58645Y681526D02*
G03*
X58914Y682559I-4938J1841D01*
G01*
X17246Y678768D02*
G03*
X18501Y675381I5270J27D01*
G01*
X14607Y682958D02*
G03*
X15705Y680309I3747J0D01*
G01*
X14607Y682958D02*
G03*
X15711Y680303I3747J0D01*
G01*
X1435599Y712135D02*
X1440082Y716618D01*
X1438666D02*
X1445423Y709862D01*
X1427890Y716618D02*
X1431230Y713279D01*
X1474500Y716618D02*
X1559500D01*
X1578140D01*
X1444102Y709862D02*
X1450859Y716618D01*
X1404414Y713279D02*
X1407753Y716618D01*
X1395561D02*
X1399828Y712352D01*
X1341679Y716618D02*
X1348436Y709862D01*
X1425966Y713279D02*
X1429306Y716618D01*
X1417114D02*
X1420453Y713279D01*
X1454268Y709252D02*
X1461635Y716618D01*
X1454268Y698475D02*
X1472411Y716618D01*
X1384785D02*
X1394438Y706965D01*
X1567982Y716618D02*
X1580119Y704482D01*
X1463300Y696731D02*
X1483188Y716618D01*
X1354268Y706238D02*
X1364648Y716618D01*
X1355537Y696731D02*
X1375425Y716618D01*
X1347116Y709862D02*
X1353872Y716618D01*
X1374008D02*
X1389050Y701577D01*
X1374008Y716618D02*
X1389050Y701577D01*
X1309350Y716618D02*
X1312690Y713279D01*
X1318203D02*
X1321543Y716618D01*
X1307427Y713279D02*
X1310767Y716618D01*
X1328979Y713279D02*
X1332319Y716618D01*
X1330903D02*
X1334502Y713020D01*
X1320127Y716618D02*
X1323466Y713279D01*
X1221216Y713279D02*
X1224556Y716618D01*
X1223140D02*
X1226480Y713279D01*
X1212364Y716618D02*
X1215803Y713179D01*
X1298574Y716618D02*
X1302994Y712198D01*
X1231993Y713279D02*
X1235333Y716618D01*
X1277021D02*
X1292218Y701422D01*
X1258724Y696905D02*
X1278438Y716618D01*
X1254306Y703263D02*
X1267662Y716618D01*
X1337192Y710715D02*
X1343096Y716618D01*
X1287798D02*
X1297606Y706810D01*
X1190811Y716618D02*
X1204667Y702763D01*
X1180035Y716618D02*
X1199278Y697375D01*
X1154268Y700212D02*
X1170675Y716618D01*
X1250129Y709862D02*
X1256885Y716618D01*
X1201587D02*
X1210055Y708151D01*
X1578917Y716459D02*
X1579959Y715417D01*
X1435483Y712251D02*
X1437503Y710231D01*
X1402198Y713279D02*
X1433008D01*
X1406337Y716618D02*
X1409677Y713279D01*
X1415190D02*
X1418530Y716618D01*
X1335656Y712251D02*
X1337677Y710231D01*
X1441287Y709862D02*
X1454268D01*
Y696731D02*
Y709862D01*
X1437503Y710231D02*
X1441287D01*
X1454268Y696731D02*
X1464885D01*
X1454268Y701016D02*
X1458554Y696731D01*
X1341287Y709862D02*
X1354268D01*
Y696731D02*
Y709862D01*
X1337677Y710231D02*
X1341287D01*
X1354268Y696731D02*
X1364419D01*
X1354268Y704029D02*
X1361567Y696731D01*
X1305521Y713279D02*
X1328817D01*
X1328846Y713279D02*
X1333182D01*
X1216629Y713279D02*
X1233944D01*
X1244693Y716618D02*
X1251449Y709862D01*
X1254306Y696905D02*
Y709862D01*
X1241286D02*
X1254306D01*
Y696905D02*
X1264884D01*
X1254306Y707005D02*
X1264407Y696905D01*
X1239721Y710230D02*
X1246109Y716618D01*
X1233916D02*
X1240304Y710230D01*
X1238438D02*
X1241286D01*
X1236418Y712251D02*
X1238438Y710230D01*
X1115377Y716618D02*
X1118717Y713279D01*
X1104601Y716618D02*
X1111217Y710002D01*
X1036324Y711583D02*
X1041359Y716618D01*
X1126153D02*
X1129493Y713279D01*
X1134672Y712945D02*
X1138346Y716618D01*
X1124230Y713279D02*
X1127570Y716618D01*
X1016467Y713279D02*
X1019807Y716618D01*
X1018390D02*
X1021730Y713279D01*
X1007614Y716618D02*
X1012759Y711473D01*
X1029166Y716618D02*
X1032506Y713279D01*
X1027243D02*
X1030583Y716618D01*
X1136929D02*
X1143686Y709862D01*
X1093824Y716618D02*
X1105829Y704614D01*
X1083048Y716618D02*
X1100441Y699226D01*
X1153142Y709862D02*
X1159899Y716618D01*
X1142366Y709862D02*
X1149122Y716618D01*
X1039943D02*
X1046699Y709862D01*
X1045379D02*
X1052135Y716618D01*
X996837D02*
X1007371Y706085D01*
X1054268Y697199D02*
X1073688Y716618D01*
X1054268Y707975D02*
X1062912Y716618D01*
X930256Y713279D02*
X933596Y716618D01*
X932180D02*
X938568Y710231D01*
X921403Y716618D02*
X924743Y713279D01*
X942956Y716618D02*
X949712Y709862D01*
X948392D02*
X955149Y716618D01*
X937984Y710231D02*
X944372Y716618D01*
X840998Y710231D02*
X847386Y716618D01*
X835193D02*
X841949Y709862D01*
X833268Y713278D02*
X836609Y716618D01*
X910627D02*
X914117Y713128D01*
X851406Y709862D02*
X858162Y716618D01*
X899851D02*
X908437Y708032D01*
X954230Y704924D02*
X965925Y716618D01*
X889074D02*
X903049Y702644D01*
X986061Y716618D02*
X1001982Y700697D01*
X956813Y696731D02*
X976701Y716618D01*
X845969D02*
X852726Y709862D01*
X802864Y716618D02*
X809854Y709629D01*
X792088Y716618D02*
X804465Y704241D01*
X878298Y716618D02*
X897661Y697255D01*
X854306Y701986D02*
X868938Y716618D01*
X1115940Y713279D02*
X1133182D01*
X1037676Y710231D02*
X1041287D01*
X1016011Y713279D02*
X1033182D01*
X1135656Y712251D02*
X1137676Y710230D01*
X1141286D01*
X1035656Y712251D02*
X1037676Y710231D01*
X1141286Y709862D02*
X1154268D01*
X1041287Y709862D02*
X1054268D01*
X941287D02*
X954230D01*
Y696731D02*
Y709862D01*
X937677Y710231D02*
X941287D01*
X954230Y696731D02*
X964885D01*
X954230Y705344D02*
X962844Y696731D01*
X919480Y713279D02*
X922820Y716618D01*
X915131Y713279D02*
X933182D01*
X822493D02*
X825833Y716618D01*
X824417D02*
X827757Y713279D01*
X813640Y716618D02*
X816980Y713279D01*
X814950D02*
X833182D01*
X935656Y712251D02*
X937677Y710231D01*
X854306Y696651D02*
X864885D01*
X854306D02*
Y709862D01*
X835656Y712251D02*
X837676Y710231D01*
X841287Y709862D02*
X854306D01*
X837676Y710231D02*
X841287D01*
X1557206Y716618D02*
X1580119Y693706D01*
X1546429Y716618D02*
X1580119Y682929D01*
X1523608Y681605D02*
X1558622Y716618D01*
X1545160Y681605D02*
X1579567Y716011D01*
X1555937Y681605D02*
X1580119Y705786D01*
X1534384Y681605D02*
X1569398Y716618D01*
X1480503Y681605D02*
X1515517Y716618D01*
X1481772D02*
X1516785Y681605D01*
X1469726D02*
X1504740Y716618D01*
X1514100D02*
X1549114Y681605D01*
X1512832D02*
X1547845Y716618D01*
X1535653D02*
X1580119Y672153D01*
Y518382D02*
Y714640D01*
X1524877Y716618D02*
X1560023Y681472D01*
X1569583Y673698D02*
X1580119Y684234D01*
X1564715Y679606D02*
X1580119Y695010D01*
X1491279Y681605D02*
X1526293Y716618D01*
X1492548D02*
X1527562Y681605D01*
X1470995Y716618D02*
X1506009Y681605D01*
X1503324Y716618D02*
X1538338Y681605D01*
X1502055D02*
X1537069Y716618D01*
X1364419Y694836D02*
X1386201Y716618D01*
X1464885Y687539D02*
X1493964Y716618D01*
X1363232D02*
X1383662Y696189D01*
X1460793Y685270D02*
X1464885D01*
Y696731D01*
X1458672Y683145D02*
X1460679Y685152D01*
X1364419Y693879D02*
X1372885Y685413D01*
X1364419Y685270D02*
Y696731D01*
X1352456Y716618D02*
X1378273Y690801D01*
X1360327Y685270D02*
X1364419D01*
X1358206Y683145D02*
X1360213Y685152D01*
X1460219Y716618D02*
X1495233Y681605D01*
X1464885Y690400D02*
X1473680Y681605D01*
X1449443Y716618D02*
X1484457Y681605D01*
X1460018Y684491D02*
X1462904Y681605D01*
X1458950D02*
X1462615Y685270D01*
X1362471Y682113D02*
X1396977Y716618D01*
X1369585Y682113D02*
X1399724Y712251D01*
X1362252Y685270D02*
X1365409Y682113D01*
X1578501Y596405D02*
X1580119Y598023D01*
X1578501Y587561D02*
X1580119Y585943D01*
X1578501Y598337D02*
X1580119Y596719D01*
X1578501Y576784D02*
X1580119Y575166D01*
X1578501Y564076D02*
X1580119Y565694D01*
X1578501Y585629D02*
X1580119Y587247D01*
X1578501Y556726D02*
Y599612D01*
Y566008D02*
X1580119Y564390D01*
X1578501Y574853D02*
X1580119Y576471D01*
X1578730Y553530D02*
X1580119Y554918D01*
X1578730Y544225D02*
X1580119Y542837D01*
X1578730Y555002D02*
X1580119Y553614D01*
X1578730Y533449D02*
X1580119Y532061D01*
X1578730Y542754D02*
X1580119Y544142D01*
X1578730Y531977D02*
X1580119Y533365D01*
X1578730Y522673D02*
X1580119Y521285D01*
X1578730Y518382D02*
Y556726D01*
Y518382D02*
X1580119D01*
X1578730Y521201D02*
X1580119Y522589D01*
X1571375Y653937D02*
X1580119Y662681D01*
X1571375Y659344D02*
X1580119Y650600D01*
X1570705Y670790D02*
X1580119Y661377D01*
X1571375Y648568D02*
X1580119Y639824D01*
X1571375Y643161D02*
X1580119Y651905D01*
X1458182Y681605D02*
X1558299D01*
X1357937Y682113D02*
X1369585D01*
X1571375Y664713D02*
X1580119Y673457D01*
X1571375Y637792D02*
X1580119Y629048D01*
X1571375Y621608D02*
X1580119Y630352D01*
X1571375Y632384D02*
X1580119Y641128D01*
X1571375Y610832D02*
X1580119Y619576D01*
X1571375Y627015D02*
X1580119Y618271D01*
X1571375Y616239D02*
X1580119Y607495D01*
X1577703Y606384D02*
X1580119Y608800D01*
X1571375Y607646D02*
Y666015D01*
X1169258Y716618D02*
X1193890Y691987D01*
X1165265Y689656D02*
X1192227Y716618D01*
X1158482D02*
X1188502Y686599D01*
X1266245Y716618D02*
X1286830Y696034D01*
X1264884Y692289D02*
X1289214Y716618D01*
X1255469D02*
X1281441Y690646D01*
X1160801Y695968D02*
X1181451Y716618D01*
X1072272D02*
X1095052Y693838D01*
X1065139Y686517D02*
X1095241Y716618D01*
X1154268Y699280D02*
X1157579Y695968D01*
X1154268D02*
Y709862D01*
X1264898Y681526D02*
X1299991Y716618D01*
X1272321Y681526D02*
X1303047Y712251D01*
X1179449Y682288D02*
X1213780Y716618D01*
X1264884Y685443D02*
Y696905D01*
X1184191Y682288D02*
X1214154Y712251D01*
X1147706Y716618D02*
X1182037Y682288D01*
X1168673D02*
X1203004Y716618D01*
X1081701Y681526D02*
X1116793Y716618D01*
X1082741Y681526D02*
X1113466Y712251D01*
X1070924Y681526D02*
X1106017Y716618D01*
X1063988Y696143D02*
X1084464Y716618D01*
X1061495D02*
X1089664Y688449D01*
X964509Y716618D02*
X991206Y689921D01*
X1054268Y696143D02*
Y709862D01*
Y702293D02*
X1060419Y696143D01*
X975285Y716618D02*
X996594Y695309D01*
X964885Y694026D02*
X987478Y716618D01*
X867522D02*
X892273Y691867D01*
X864885Y691012D02*
X890491Y716618D01*
X859747Y696651D02*
X879715Y716618D01*
X854306Y697505D02*
X855161Y696651D01*
X1050719Y716618D02*
X1084276Y683061D01*
X973938Y681526D02*
X1009030Y716618D01*
X953732D02*
X985818Y684533D01*
X982811Y681526D02*
X1013536Y712251D01*
X963161Y681526D02*
X998254Y716618D01*
X866175Y681526D02*
X901267Y716618D01*
X876951Y681526D02*
X912044Y716618D01*
X856746D02*
X886885Y686479D01*
X881932Y681526D02*
X912656Y712251D01*
X854306Y708281D02*
X881062Y681526D01*
X1264884Y696426D02*
X1276053Y685258D01*
X1165265Y684508D02*
Y695968D01*
X1154268D02*
X1165265D01*
X1261552Y685443D02*
X1264884D01*
X1259433Y683321D02*
X1261439Y685327D01*
X1160115Y684508D02*
X1165265D01*
X1061552Y684682D02*
X1065139D01*
Y696143D01*
X1059433Y682559D02*
X1061439Y684565D01*
X1158929Y683321D02*
X1160115Y684508D01*
X1158928Y683319D02*
X1160116Y684508D01*
X1264884Y685650D02*
X1269009Y681526D01*
X1165265Y688283D02*
X1171260Y682288D01*
X1258807Y681526D02*
X1272321D01*
X1158659Y682288D02*
X1184191D01*
X1061329Y684455D02*
X1064259Y681526D01*
X1065139Y691422D02*
X1075035Y681526D01*
X1060148D02*
X1063304Y684682D01*
X1159190Y683582D02*
X1160484Y682288D01*
X1054268Y696143D02*
X1065139D01*
X964885Y685270D02*
Y696731D01*
X961506Y685270D02*
X964885D01*
X861957Y685190D02*
X864885D01*
Y696651D01*
X958929Y682559D02*
X960935Y684565D01*
X964885Y694690D02*
X978049Y681526D01*
X963529Y685270D02*
X967272Y681526D01*
X1059163D02*
X1082741D01*
X958659D02*
X982811D01*
X864885Y686927D02*
X870285Y681526D01*
X859433Y682559D02*
X861439Y684565D01*
X859163Y681526D02*
X881932D01*
X716654Y716618D02*
X719993Y713279D01*
X725506D02*
X728846Y716618D01*
X636962Y710945D02*
X642636Y716618D01*
X735448Y712444D02*
X739623Y716618D01*
X743643Y709862D02*
X750399Y716618D01*
X727430D02*
X730770Y713279D01*
X619667Y716618D02*
X623007Y713279D01*
X617742Y713277D02*
X621083Y716618D01*
X608890D02*
X614315Y711194D01*
X630443Y716618D02*
X633847Y713215D01*
X628520Y713279D02*
X631860Y716618D01*
X738206D02*
X744962Y709862D01*
X754268Y709712D02*
X761175Y716618D01*
X705877D02*
X713100Y709395D01*
X781311Y716618D02*
X799077Y698852D01*
X754268Y698935D02*
X771952Y716618D01*
X646656Y709862D02*
X653412Y716618D01*
X654268Y706698D02*
X664188Y716618D01*
X641219D02*
X647976Y709862D01*
X695101Y716618D02*
X707712Y704007D01*
X684325Y716618D02*
X702324Y698619D01*
X522680Y716618D02*
X526020Y713279D01*
X531533D02*
X534873Y716618D01*
X452682Y709862D02*
X459439Y716618D01*
X533456D02*
X539844Y710230D01*
X539261D02*
X545649Y716618D01*
X4381D02*
X1474500D01*
X425693D02*
X429033Y713279D01*
X434347Y713079D02*
X437886Y716618D01*
X423770Y713279D02*
X427110Y716618D01*
X447246D02*
X454002Y709862D01*
X436470Y716618D02*
X443226Y709862D01*
X549669Y709862D02*
X556425Y716618D01*
X554230Y703647D02*
X567202Y716618D01*
X544233D02*
X550989Y709862D01*
X598114Y716618D02*
X608927Y705806D01*
X587338Y716618D02*
X603539Y700418D01*
X404141Y716618D02*
X411229Y709530D01*
X393364Y716618D02*
X405841Y704142D01*
X382588Y716618D02*
X400453Y698754D01*
X454306Y700710D02*
X470215Y716618D01*
X441906Y709862D02*
X448662Y716618D01*
X718430Y713279D02*
X733182D01*
X617846Y713279D02*
X633182D01*
X735656Y712251D02*
X737676Y710231D01*
X741287D01*
Y709862D02*
X754268D01*
X641287D02*
X654268D01*
X635656Y712251D02*
X637676Y710231D01*
X641287D01*
X535656Y712251D02*
X537677Y710230D01*
X541287Y709862D02*
X554230D01*
X537677Y710230D02*
X541287D01*
X520757Y713279D02*
X524096Y716618D01*
X511904D02*
X515936Y712586D01*
X518024Y713279D02*
X533182D01*
X416424Y713279D02*
X433182D01*
X414917Y716618D02*
X418257Y713279D01*
X501127Y716618D02*
X510522Y707224D01*
X490351Y716618D02*
X505134Y701835D01*
X461024Y696651D02*
X480991Y716618D01*
X454306Y696651D02*
X465057D01*
X437677Y710231D02*
X441287D01*
X454306Y696651D02*
Y709862D01*
X435656Y712251D02*
X437677Y710231D01*
X454306Y698782D02*
X456437Y696651D01*
X441287Y709862D02*
X454306D01*
X316007Y713279D02*
X319347Y716618D01*
X317930D02*
X321270Y713279D01*
X307154Y716618D02*
X310893Y712879D01*
X328707Y716618D02*
X332046Y713279D01*
X336094Y711814D02*
X340899Y716618D01*
X326783Y713279D02*
X330123Y716618D01*
X220944D02*
X224283Y713279D01*
X229796D02*
X233136Y716618D01*
X219020Y713279D02*
X222360Y716618D01*
X237600Y710306D02*
X243913Y716618D01*
X231720D02*
X238108Y710231D01*
X339483Y716618D02*
X346239Y709863D01*
X344920D02*
X351676Y716618D01*
X296378D02*
X305393Y707604D01*
X354268Y697658D02*
X373228Y716618D01*
X354268Y708435D02*
X362452Y716618D01*
X247932Y709862D02*
X254689Y716618D01*
X254268Y705421D02*
X265465Y716618D01*
X242496D02*
X249252Y709862D01*
X285601Y716618D02*
X300004Y702215D01*
X274825Y716618D02*
X294616Y696827D01*
X134733Y716618D02*
X141120Y710231D01*
X140538D02*
X146926Y716618D01*
X132810Y713279D02*
X136150Y716618D01*
X210167D02*
X213619Y713167D01*
X150946Y709863D02*
X157702Y716618D01*
X145509D02*
X152265Y709863D01*
X26970Y716618D02*
X33358Y710230D01*
X32775D02*
X39163Y716618D01*
X4381Y714166D02*
X6834Y716618D01*
X102404D02*
X108850Y710173D01*
X53959Y709862D02*
X60715Y716618D01*
X154216Y702356D02*
X168478Y716618D01*
X177838D02*
X197113Y697344D01*
X91628Y716618D02*
X103462Y704785D01*
X199391Y716618D02*
X207889Y708120D01*
X188615Y716618D02*
X202501Y702732D01*
X37746Y716618D02*
X44503Y709862D01*
X54216Y699343D02*
X71492Y716618D01*
X5417D02*
X21805Y700230D01*
X80851Y716618D02*
X98074Y699397D01*
X63164Y697514D02*
X82268Y716618D01*
X328108Y713279D02*
X333182D01*
X312514Y713279D02*
X328056D01*
X214494Y713279D02*
X233182D01*
X335656Y712251D02*
X337677Y710231D01*
X341287D01*
X237676Y710231D02*
X241287D01*
X341287Y709863D02*
X354268D01*
X241287Y709862D02*
X254268D01*
X235656Y712251D02*
X237676Y710231D01*
X135656Y712251D02*
X137676Y710231D01*
X141287Y709863D02*
X154216D01*
X137676Y710231D02*
X141287D01*
X123957Y716618D02*
X127296Y713279D01*
X122033Y713279D02*
X125373Y716618D01*
X123789Y713279D02*
X133182D01*
X113402Y713279D02*
X123741D01*
X113180Y716618D02*
X116520Y713279D01*
X33286Y710230D02*
X41287D01*
X22826D02*
X32826D01*
X41287Y709862D02*
X54216D01*
X43183D02*
X49939Y716618D01*
X16194D02*
X22826Y709987D01*
X54440Y697514D02*
X65901D01*
X54216Y700149D02*
X56851Y697514D01*
X21025Y700230D02*
X22466D01*
Y709710D01*
X4381Y703390D02*
X17610Y716618D01*
X770535D02*
X793689Y693464D01*
X764885Y687999D02*
X793504Y716618D01*
X759759D02*
X788301Y688076D01*
X754268Y696485D02*
Y709862D01*
X762594Y696485D02*
X782728Y716618D01*
X673548D02*
X696936Y693231D01*
X665139Y696016D02*
X685741Y716618D01*
X662772D02*
X691548Y687843D01*
X654697Y696351D02*
X674965Y716618D01*
X654268Y696351D02*
Y709862D01*
X576562Y716618D02*
X598150Y695030D01*
X769188Y681526D02*
X804280Y716618D01*
X779964Y681526D02*
X815057Y716618D01*
X682977Y681526D02*
X718070Y716618D01*
X781751Y681526D02*
X812476Y712251D01*
X748982Y716618D02*
X782913Y682688D01*
X665139Y685240D02*
X696517Y716618D01*
X672201Y681526D02*
X707294Y716618D01*
X651996D02*
X686160Y682455D01*
X685231Y681526D02*
X715956Y712251D01*
X584647Y681526D02*
X615372Y712251D01*
X479575Y716618D02*
X499746Y696447D01*
X468798Y716618D02*
X494358Y691059D01*
X465057Y689908D02*
X491768Y716618D01*
X565139Y693003D02*
X588754Y716618D01*
X565785D02*
X592762Y689641D01*
X557756Y696396D02*
X577978Y716618D01*
X363909Y696523D02*
X384005Y716618D01*
X365139Y686976D02*
X394781Y716618D01*
X361035D02*
X389676Y687978D01*
X458022Y716618D02*
X488970Y685671D01*
X371812Y716618D02*
X395065Y693366D01*
X564438Y681526D02*
X599531Y716618D01*
X575214Y681526D02*
X610307Y716618D01*
X555009D02*
X587374Y684253D01*
X484825Y681526D02*
X515550Y712251D01*
X478228Y681526D02*
X513320Y716618D01*
X381241Y681526D02*
X416333Y716618D01*
X467452Y681526D02*
X502544Y716618D01*
X350259D02*
X384288Y682589D01*
X383225Y681526D02*
X413950Y712251D01*
X370465Y681526D02*
X405557Y716618D01*
X754268Y696485D02*
X764885D01*
Y685024D02*
Y696485D01*
X754268Y700556D02*
X758340Y696485D01*
X761334Y685024D02*
X764885D01*
X758929Y682559D02*
X760935Y684565D01*
X654268Y696351D02*
X665139D01*
X654268Y703570D02*
X661487Y696351D01*
X665139Y684890D02*
Y696351D01*
X565139Y684936D02*
Y696396D01*
X661733Y684890D02*
X665139D01*
X659433Y682559D02*
X661439Y684566D01*
X760209Y683839D02*
X762523Y681526D01*
X764885Y689940D02*
X773299Y681526D01*
X758782Y681896D02*
X761909Y685024D01*
X758659Y681526D02*
X781751D01*
X662172Y684890D02*
X665536Y681526D01*
X665139Y692699D02*
X676312Y681526D01*
X661425D02*
X664789Y684890D01*
X659163Y681526D02*
X685231D01*
X554230Y706621D02*
X564455Y696396D01*
X554230D02*
X565139D01*
X554230D02*
Y709862D01*
X564455Y696396D02*
X565139Y695713D01*
X561266Y684936D02*
X565139D01*
X461957Y685190D02*
X465057D01*
Y696651D01*
X459433Y682559D02*
X461439Y684566D01*
X565139Y684936D02*
X568549Y681526D01*
X565139Y695713D02*
X579325Y681526D01*
X558929Y682559D02*
X560935Y684565D01*
X558659Y681526D02*
X584647D01*
X459593Y682719D02*
X460786Y681526D01*
X465057Y688031D02*
X471562Y681526D01*
X454306Y709558D02*
X482338Y681526D01*
X459163D02*
X484825D01*
X265139Y694739D02*
X287018Y716618D01*
X264049D02*
X289228Y691439D01*
X255590Y695967D02*
X276241Y716618D01*
X354268Y701833D02*
X359578Y696523D01*
X354268D02*
X365139D01*
X354268D02*
Y709863D01*
X254268Y695967D02*
Y709862D01*
X167062Y716618D02*
X191725Y691956D01*
X164995Y691582D02*
X190031Y716618D01*
X254268Y695967D02*
X265139D01*
X254268Y704847D02*
X263147Y695967D01*
X262701Y681526D02*
X297794Y716618D01*
X273478Y681526D02*
X308570Y716618D01*
X253272D02*
X283840Y686051D01*
X365139Y685062D02*
Y696523D01*
X279315Y681526D02*
X310040Y712251D01*
X165715Y681526D02*
X200807Y716618D01*
X176492Y681526D02*
X211584Y716618D01*
X165715Y681526D02*
X200807Y716618D01*
X181295Y681526D02*
X212020Y712251D01*
X164995Y685189D02*
Y696650D01*
X159286D02*
X179255Y716618D01*
X70075D02*
X92685Y694008D01*
X65901Y689475D02*
X93044Y716618D01*
X154216Y696650D02*
X164995D01*
X154216D02*
Y709863D01*
X4381Y692614D02*
X28386Y716618D01*
X54216Y691030D02*
Y709862D01*
X4381Y706878D02*
X15610Y695649D01*
X54440Y691383D02*
Y697514D01*
X15711Y695753D02*
X18601Y698643D01*
X156286Y716618D02*
X186336Y686568D01*
X79504Y681526D02*
X114597Y716618D01*
X68728Y681526D02*
X103820Y716618D01*
X154216Y707912D02*
X180602Y681526D01*
X80203Y681526D02*
X110928Y712251D01*
X59299Y716618D02*
X87297Y688620D01*
X48523Y716618D02*
X81909Y683232D01*
X4381Y675381D02*
Y716618D01*
X65901Y686053D02*
Y697514D01*
X4381Y696102D02*
X14607Y685876D01*
X361363Y685062D02*
X365139D01*
X359689Y681526D02*
X363224Y685062D01*
X265139Y684506D02*
Y695967D01*
X358929Y682559D02*
X360936Y684566D01*
X261380Y684506D02*
X265139D01*
X161439Y685189D02*
X164995D01*
X259433Y682559D02*
X261380Y684506D01*
X158915Y682559D02*
X160921Y684566D01*
X360847Y684478D02*
X363799Y681526D01*
X365139Y690963D02*
X374575Y681526D01*
X265139Y693976D02*
X277589Y681526D01*
X358659Y681526D02*
X383225D01*
X259163Y681526D02*
X279315D01*
X164995Y686357D02*
X169825Y681526D01*
X263832Y684506D02*
X266812Y681526D01*
X158645Y681526D02*
X181295D01*
X61891Y686053D02*
X65901D01*
X58901Y682475D02*
X62479Y686053D01*
X58914Y682559D02*
X60921Y684565D01*
X14607Y682958D02*
Y693098D01*
X4381Y681837D02*
X14607Y692063D01*
X59972Y683616D02*
X62063Y681526D01*
X65901Y688464D02*
X72839Y681526D01*
X58645D02*
X80203D01*
X4381Y675381D02*
X18501D01*
X4381Y685325D02*
X14325Y675381D01*
X15711Y680303D02*
X17246Y678768D01*
X8702Y675381D02*
X14879Y681558D01*
X1580119Y457640D02*
G03*
X1578140Y459618I-1979J0D01*
G01*
X1428192Y455251D02*
G03*
X1425718Y456278I-2474J-2465D01*
G01*
X1428188Y455256D02*
G03*
X1425718Y456278I-2470J-2470D01*
G01*
X1408478D02*
G03*
X1406004Y455251I0J-3492D01*
G01*
X1334749Y456278D02*
G03*
X1332280Y455256I0J-3492D01*
G01*
X1334749Y456278D02*
G03*
X1332275Y455251I0J-3492D01*
G01*
X1408478Y456278D02*
G03*
X1406008Y455256I0J-3492D01*
G01*
X1353361D02*
G03*
X1350892Y456278I-2470J-2470D01*
G01*
X1353366Y455251D02*
G03*
X1350892Y456278I-2474J-2465D01*
G01*
X1279123Y455256D02*
G03*
X1276654Y456278I-2470J-2470D01*
G01*
X1259025D02*
G03*
X1256556Y455256I0J-3492D01*
G01*
X1203361D02*
G03*
X1200892Y456278I-2470J-2470D01*
G01*
X1184813D02*
G03*
X1182344Y455256I0J-3492D01*
G01*
X1259025Y456278D02*
G03*
X1256551Y455251I0J-3492D01*
G01*
X1279128D02*
G03*
X1276654Y456278I-2474J-2465D01*
G01*
X1184813D02*
G03*
X1182339Y455251I0J-3492D01*
G01*
X1203366D02*
G03*
X1200892Y456278I-2474J-2465D01*
G01*
X1109787Y456279D02*
G03*
X1107318Y455256I0J-3492D01*
G01*
X1109787Y456279D02*
G03*
X1107313Y455251I0J-3492D01*
G01*
X1128392D02*
G03*
X1125918Y456279I-2474J-2465D01*
G01*
X1128388Y455256D02*
G03*
X1125918Y456279I-2470J-2470D01*
G01*
X1034787Y456278D02*
G03*
X1032318Y455256I0J-3492D01*
G01*
X1034787Y456278D02*
G03*
X1032313Y455251I0J-3492D01*
G01*
X978361Y455256D02*
G03*
X975892Y456278I-2470J-2470D01*
G01*
X1053361Y455256D02*
G03*
X1050892Y456278I-2470J-2470D01*
G01*
X1053366Y455251D02*
G03*
X1050892Y456278I-2474J-2465D01*
G01*
X959787D02*
G03*
X957318Y455256I0J-3492D01*
G01*
X959787Y456278D02*
G03*
X957313Y455251I0J-3492D01*
G01*
X903366D02*
G03*
X900892Y456278I-2474J-2465D01*
G01*
X978366Y455251D02*
G03*
X975892Y456278I-2474J-2465D01*
G01*
X884787D02*
G03*
X882317Y455256I0J-3492D01*
G01*
X884787Y456278D02*
G03*
X882313Y455251I0J-3492D01*
G01*
X828366D02*
G03*
X825892Y456278I-2474J-2465D01*
G01*
X903361Y455256D02*
G03*
X900892Y456278I-2470J-2470D01*
G01*
X1450892Y424604D02*
G03*
X1451382Y426145I-4718J2350D01*
G01*
X1578401Y343498D02*
G03*
X1578994Y345928I-4677J2430D01*
G01*
X1571375Y409015D02*
G03*
X1566288Y421296I-17368J0D01*
G01*
D02*
G03*
X1558299Y424604I-7988J-7988D01*
G01*
X1578994Y345928D02*
G03*
X1571375Y350646I-5271J0D01*
G01*
X1578501Y342612D02*
G03*
X1578401Y343498I-4001J0D01*
G01*
X1578501Y342612D02*
G03*
X1578401Y343498I-4001J0D01*
G01*
X809787Y456278D02*
G03*
X807318Y455256I0J-3492D01*
G01*
X753366Y455251D02*
G03*
X750892Y456279I-2474J-2465D01*
G01*
X753362Y455256D02*
G03*
X750892Y456279I-2470J-2470D01*
G01*
X828361Y455256D02*
G03*
X825892Y456278I-2470J-2470D01*
G01*
X734787Y456279D02*
G03*
X732318Y455256I0J-3492D01*
G01*
X678361Y455256D02*
G03*
X675892Y456278I-2470J-2470D01*
G01*
X659787D02*
G03*
X657318Y455256I0J-3492D01*
G01*
X809787Y456278D02*
G03*
X807313Y455251I0J-3492D01*
G01*
X734787Y456279D02*
G03*
X732313Y455251I0J-3492D01*
G01*
X678366Y455251D02*
G03*
X675892Y456278I-2474J-2465D01*
G01*
X659787D02*
G03*
X657313Y455251I0J-3492D01*
G01*
X584787Y456279D02*
G03*
X582318Y455256I0J-3492D01*
G01*
X584787Y456279D02*
G03*
X582313Y455251I0J-3492D01*
G01*
X603366D02*
G03*
X600892Y456279I-2474J-2465D01*
G01*
X603361Y455256D02*
G03*
X600892Y456279I-2470J-2470D01*
G01*
X509773Y456278D02*
G03*
X507304Y455256I0J-3492D01*
G01*
X509773Y456278D02*
G03*
X507299Y455251I0J-3492D01*
G01*
X528366D02*
G03*
X525892Y456278I-2474J-2465D01*
G01*
X528361Y455256D02*
G03*
X525892Y456278I-2470J-2470D01*
G01*
X434825D02*
G03*
X432355Y455256I0J-3492D01*
G01*
X434825Y456278D02*
G03*
X432351Y455251I0J-3492D01*
G01*
X378361Y455256D02*
G03*
X375892Y456278I-2470J-2470D01*
G01*
X453361Y455256D02*
G03*
X450892Y456278I-2470J-2470D01*
G01*
X303361Y455256D02*
G03*
X300892Y456278I-2470J-2470D01*
G01*
X284787D02*
G03*
X282317Y455256I0J-3492D01*
G01*
X359763Y456278D02*
G03*
X357294Y455256I0J-3492D01*
G01*
X453366Y455251D02*
G03*
X450892Y456278I-2474J-2465D01*
G01*
X378366Y455251D02*
G03*
X375892Y456278I-2474J-2465D01*
G01*
X359763D02*
G03*
X357289Y455251I0J-3492D01*
G01*
X303366D02*
G03*
X300892Y456278I-2474J-2465D01*
G01*
X228361Y455256D02*
G03*
X225892Y456278I-2470J-2470D01*
G01*
X209787D02*
G03*
X207318Y455256I0J-3492D01*
G01*
X284787Y456278D02*
G03*
X282313Y455251I0J-3492D01*
G01*
X228366D02*
G03*
X225892Y456278I-2474J-2465D01*
G01*
X134787D02*
G03*
X132318Y455256I0J-3492D01*
G01*
X134787Y456278D02*
G03*
X132313Y455251I0J-3492D01*
G01*
X209787Y456278D02*
G03*
X207313Y455251I0J-3492D01*
G01*
X153361Y455256D02*
G03*
X150892Y456278I-2470J-2470D01*
G01*
X153366Y455251D02*
G03*
X150892Y456278I-2474J-2465D01*
G01*
X63654Y442747D02*
G03*
X61005Y441649I0J-3747D01*
G01*
X63654Y442747D02*
G03*
X60999Y441643I0J-3747D01*
G01*
X59009Y439653D02*
G03*
X57906Y436998I2643J-2655D01*
G01*
X59003Y439647D02*
G03*
X57906Y436998I2649J-2649D01*
G01*
Y425370D02*
G03*
X59003Y422721I3747J0D01*
G01*
X57906Y425370D02*
G03*
X59009Y422715I3747J0D01*
G01*
X59956Y421768D02*
G03*
X61211Y418382I5270J28D01*
G01*
X1474500Y459618D02*
X1559500D01*
X1433694Y453231D02*
X1440082Y459618D01*
X1425958Y456270D02*
X1429306Y459618D01*
X1559500D02*
X1578140D01*
X1350532Y456278D02*
X1353872Y459618D01*
X1406337D02*
X1409677Y456278D01*
X1341679Y459618D02*
X1345019Y456278D01*
X1417114Y459618D02*
X1420454Y456278D01*
X1415190D02*
X1418530Y459618D01*
X1427890D02*
X1434646Y452862D01*
X1438666Y459618D02*
X1445423Y452862D01*
X1395561Y459618D02*
X1402966Y452213D01*
X1567982Y459618D02*
X1580119Y447482D01*
X1444102Y452862D02*
X1450859Y459618D01*
X1358260Y453231D02*
X1364648Y459618D01*
X1363232D02*
X1369988Y452862D01*
X1352456Y459618D02*
X1358844Y453231D01*
X1384785Y459618D02*
X1397578Y446825D01*
X1368668Y452862D02*
X1375425Y459618D01*
X1277021D02*
X1283409Y453231D01*
X1282826D02*
X1289214Y459618D01*
X1275098Y456278D02*
X1278438Y459618D01*
X1339756Y456278D02*
X1343096Y459618D01*
X1330903D02*
X1334275Y456246D01*
X1188887Y456278D02*
X1192227Y459618D01*
X1199664Y456278D02*
X1203004Y459618D01*
X1180035D02*
X1183594Y456059D01*
X1207392Y453231D02*
X1213780Y459618D01*
X1201587D02*
X1207975Y453231D01*
X1287798Y459618D02*
X1294554Y452862D01*
X1293234D02*
X1299991Y459618D01*
X1233916D02*
X1247417Y446117D01*
X1320127Y459618D02*
X1328385Y451361D01*
X1309350Y459618D02*
X1322996Y445972D01*
X1212364Y459618D02*
X1219120Y452862D01*
X1169258Y459618D02*
X1177982Y450894D01*
X1147004Y446724D02*
X1159899Y459618D01*
X1221978Y446264D02*
X1235333Y459618D01*
X1217800Y452862D02*
X1224556Y459618D01*
X1578917Y459459D02*
X1579959Y458417D01*
X1408478Y456278D02*
X1425718D01*
X1334749D02*
X1350892D01*
X1428192Y455251D02*
X1430213Y453231D01*
X1433996D01*
X1355386D02*
X1358996D01*
X1433996Y452862D02*
X1446978D01*
X1358996D02*
X1371978D01*
X1353366Y455251D02*
X1355386Y453231D01*
X1279128Y455251D02*
X1281148Y453231D01*
X1283996Y452862D02*
X1297016D01*
X1281148Y453231D02*
X1283996D01*
X1266245Y459618D02*
X1269585Y456278D01*
X1264322D02*
X1267662Y459618D01*
X1259025Y456278D02*
X1276654D01*
X1255469Y459618D02*
X1258815Y456272D01*
X1190811Y459618D02*
X1194151Y456278D01*
X1184813D02*
X1200892D01*
X1244693Y459618D02*
X1252805Y451506D01*
X1208997Y452862D02*
X1221978D01*
X1205386Y453231D02*
X1208997D01*
X1142366Y452862D02*
X1149122Y459618D01*
X1203366Y455251D02*
X1205386Y453231D01*
X1115377Y459618D02*
X1118717Y456279D01*
X1124230D02*
X1127570Y459618D01*
X1113453Y456279D02*
X1116793Y459618D01*
X1131958Y453231D02*
X1138346Y459618D01*
X1126153D02*
X1132541Y453231D01*
X1038019Y456278D02*
X1041359Y459618D01*
X1039943D02*
X1043283Y456278D01*
X1029166Y459618D02*
X1032999Y455786D01*
X1104601Y459618D02*
X1108282Y455937D01*
X1048795Y456278D02*
X1052135Y459618D01*
X1066932Y452862D02*
X1073688Y459618D01*
X1071940Y447094D02*
X1084464Y459618D01*
X1061495D02*
X1068252Y452862D01*
X1136929Y459618D02*
X1143686Y452862D01*
X1093824Y459618D02*
X1102752Y450690D01*
X1018390Y459618D02*
X1027535Y450473D01*
X997016Y447604D02*
X1009030Y459618D01*
X991497Y452862D02*
X998254Y459618D01*
X1056524Y453231D02*
X1062912Y459618D01*
X1050719D02*
X1057107Y453231D01*
X962585Y456278D02*
X965925Y459618D01*
X964509D02*
X967849Y456278D01*
X953732Y459618D02*
X957737Y455614D01*
X975285Y459618D02*
X981673Y453231D01*
X973361Y456278D02*
X976701Y459618D01*
X887151Y456278D02*
X890491Y459618D01*
X878298D02*
X882495Y455421D01*
X830304Y453313D02*
X836609Y459618D01*
X897927Y456278D02*
X901267Y459618D01*
X889074D02*
X892414Y456278D01*
X910627Y459618D02*
X917384Y452862D01*
X916063D02*
X922820Y459618D01*
X905656Y453231D02*
X912044Y459618D01*
X986061D02*
X992818Y452862D01*
X981090Y453231D02*
X987478Y459618D01*
X846978Y448434D02*
X858162Y459618D01*
X840629Y452862D02*
X847386Y459618D01*
X899851D02*
X906239Y453231D01*
X867522Y459618D02*
X877101Y450039D01*
X1109787Y456279D02*
X1125918D01*
X1034787Y456278D02*
X1050892D01*
X1128392Y455251D02*
X1130413Y453231D01*
X1134023D01*
X1055386Y453231D02*
X1058997D01*
X1134023Y452862D02*
X1147004D01*
X1058997Y452862D02*
X1071940D01*
X1053366Y455251D02*
X1055386Y453231D01*
X978366Y455251D02*
X980386Y453231D01*
X983997Y452862D02*
X997016D01*
X980386Y453231D02*
X983997D01*
X959787Y456278D02*
X975892D01*
X884787D02*
X900892D01*
X942956Y459618D02*
X952318Y450256D01*
X921978Y448000D02*
X933596Y459618D01*
X903366Y455251D02*
X905386Y453231D01*
X908997Y452862D02*
X921978D01*
X905386Y453231D02*
X908997D01*
X835193Y459618D02*
X841949Y452862D01*
X828366Y455251D02*
X830386Y453231D01*
X833997Y452862D02*
X846978D01*
X830386Y453231D02*
X833997D01*
X1557206Y459618D02*
X1580119Y436706D01*
X1546429Y459618D02*
X1580119Y425929D01*
X1534384Y424604D02*
X1569398Y459618D01*
X1555937Y424604D02*
X1580119Y448786D01*
X1545160Y424604D02*
X1579567Y459011D01*
X1481772Y459618D02*
X1516785Y424604D01*
X1512832D02*
X1547845Y459618D01*
X1480503Y424604D02*
X1515517Y459618D01*
X1523608Y424604D02*
X1558622Y459618D01*
X1514100D02*
X1549114Y424604D01*
X1535653Y459618D02*
X1580119Y415153D01*
Y261381D02*
Y457640D01*
X1524877Y459618D02*
X1560023Y424472D01*
X1569583Y416698D02*
X1580119Y427234D01*
X1564715Y422606D02*
X1580119Y438010D01*
X1491279Y424604D02*
X1526293Y459618D01*
X1492548D02*
X1527562Y424604D01*
X1470995Y459618D02*
X1506009Y424604D01*
X1503324Y459618D02*
X1538338Y424604D01*
X1502055D02*
X1537069Y459618D01*
X1452523Y439730D02*
X1472411Y459618D01*
X1457594Y434025D02*
X1483188Y459618D01*
X1446978Y444961D02*
X1461635Y459618D01*
X1453502Y428270D02*
X1457594D01*
X1446978Y439730D02*
X1457594D01*
X1446978D02*
Y452862D01*
X1382128Y431376D02*
X1406004Y455251D01*
X1382128Y433993D02*
X1407753Y459618D01*
X1457594Y428270D02*
Y439730D01*
X1446978Y440531D02*
X1447778Y439730D01*
X1458950Y424604D02*
X1493964Y459618D01*
X1460219D02*
X1495233Y424604D01*
X1449443Y459618D02*
X1484457Y424604D01*
X1469726D02*
X1504740Y459618D01*
X1450892Y424604D02*
X1558299D01*
X1451382Y426145D02*
X1453389Y428152D01*
X1457594Y429914D02*
X1462904Y424604D01*
X1446978Y451307D02*
X1473680Y424604D01*
X1451238Y425494D02*
X1452128Y424604D01*
X1578501Y339405D02*
X1580119Y341023D01*
X1578501Y330561D02*
X1580119Y328943D01*
X1578501Y341337D02*
X1580119Y339719D01*
X1578501Y319784D02*
X1580119Y318166D01*
X1578501Y328629D02*
X1580119Y330247D01*
X1578501Y317853D02*
X1580119Y319471D01*
X1578501Y299727D02*
Y342612D01*
Y307076D02*
X1580119Y308694D01*
X1578501Y309008D02*
X1580119Y307390D01*
X1578730Y296530D02*
X1580119Y297918D01*
X1578730Y287225D02*
X1580119Y285837D01*
X1578730Y298002D02*
X1580119Y296614D01*
X1578730Y276449D02*
X1580119Y275061D01*
X1578730Y285754D02*
X1580119Y287142D01*
X1578730Y274977D02*
X1580119Y276365D01*
X1578730Y265673D02*
X1580119Y264285D01*
X1578730Y261381D02*
Y299727D01*
Y261381D02*
X1580119D01*
X1578730Y264201D02*
X1580119Y265589D01*
X1571375Y386161D02*
X1580119Y394905D01*
X1571375Y391568D02*
X1580119Y382824D01*
X1571375Y402344D02*
X1580119Y393600D01*
X1571375Y380792D02*
X1580119Y372048D01*
X1571375Y375384D02*
X1580119Y384128D01*
X1571375Y407713D02*
X1580119Y416457D01*
X1571375Y396937D02*
X1580119Y405681D01*
X1570705Y413790D02*
X1580119Y404377D01*
X1571375Y370015D02*
X1580119Y361272D01*
X1571375Y353832D02*
X1580119Y362576D01*
X1571375Y364608D02*
X1580119Y373352D01*
X1577703Y349384D02*
X1580119Y351800D01*
X1571375Y359239D02*
X1580119Y350495D01*
X1571375Y350646D02*
Y409015D01*
X1371978Y445396D02*
X1386201Y459618D01*
X1301829Y439905D02*
X1321543Y459618D01*
X1298574D02*
X1317608Y440584D01*
X1374008Y459618D02*
X1392190Y441437D01*
X1374008Y459618D02*
X1392190Y441437D01*
X1158482Y459618D02*
X1172594Y445506D01*
X1147706Y459618D02*
X1167206Y440118D01*
X1083048Y459618D02*
X1097364Y445302D01*
X1297016Y445868D02*
X1310767Y459618D01*
X1223140D02*
X1242029Y440729D01*
X1377089Y439730D02*
X1396977Y459618D01*
X1307594Y434894D02*
X1332319Y459618D01*
X1232974Y435708D02*
X1256885Y459618D01*
X1307594Y430570D02*
X1332275Y455251D01*
X1232974Y431674D02*
X1256551Y455251D01*
X1225459Y438969D02*
X1246109Y459618D01*
X1157875Y436042D02*
X1181451Y459618D01*
X1150199Y439143D02*
X1170675Y459618D01*
X1157875Y430787D02*
X1182339Y455251D01*
X1147004Y439143D02*
Y452862D01*
X1007614Y459618D02*
X1022147Y445085D01*
X999838Y439650D02*
X1019807Y459618D01*
X996837D02*
X1016759Y439697D01*
X1075353Y439730D02*
X1095241Y459618D01*
X1072272D02*
X1091976Y439914D01*
X856746Y459618D02*
X871713Y444651D01*
X921403Y459618D02*
X941542Y439480D01*
X848670Y439351D02*
X868938Y459618D01*
X932180D02*
X946930Y444868D01*
X924238Y439484D02*
X944372Y459618D01*
X1082595Y436196D02*
X1106017Y459618D01*
X1082595Y430532D02*
X1107313Y455251D01*
X1007595Y436630D02*
X1030583Y459618D01*
X1007595Y430532D02*
X1032313Y455251D01*
X932595Y430532D02*
X957313Y455251D01*
X932595Y437064D02*
X955149Y459618D01*
X857849Y437752D02*
X879715Y459618D01*
X857849Y430787D02*
X882313Y455251D01*
X845969Y459618D02*
X866325Y439263D01*
X1297016Y439905D02*
Y452862D01*
X1371978Y439730D02*
Y452862D01*
X1297016Y450400D02*
X1307512Y439905D01*
X1371978Y439730D02*
X1382128D01*
X1297016Y439905D02*
X1307594D01*
X1147004Y449544D02*
X1157405Y439143D01*
X1221978Y438969D02*
Y452862D01*
X1081383Y439730D02*
X1082595Y438519D01*
X1221978Y438969D02*
X1232974D01*
X1147004Y439143D02*
X1157875D01*
X1371978Y450872D02*
X1386802Y436049D01*
X1307594Y430570D02*
Y439905D01*
X1221978Y450004D02*
X1236641Y435341D01*
X1382128Y431376D02*
Y439730D01*
X1307594Y439822D02*
X1312220Y435196D01*
X1232974Y431674D02*
Y438969D01*
X1157875Y430787D02*
Y439143D01*
X1082595Y430532D02*
Y439730D01*
X1157875Y438673D02*
X1161818Y434730D01*
X1082595Y438519D02*
X1086588Y434526D01*
X1071940Y449174D02*
X1081383Y439730D01*
X1071940D02*
Y452862D01*
X997016Y448664D02*
X1006029Y439650D01*
X1071940Y439730D02*
X1082595D01*
X997016Y439650D02*
X1007595D01*
X997016D02*
Y452862D01*
X921978Y439484D02*
Y452862D01*
X846978Y439351D02*
Y452862D01*
X921978Y439484D02*
X932595D01*
X921978Y448268D02*
X930761Y439484D01*
X1006029Y439650D02*
X1007595Y438085D01*
Y430532D02*
Y439650D01*
X932595Y430532D02*
Y439484D01*
X1007595Y438085D02*
X1011371Y434309D01*
X932595Y437651D02*
X936154Y434092D01*
X857849Y430787D02*
Y439351D01*
X846978Y447834D02*
X855461Y439351D01*
X857849Y436963D02*
X860937Y433875D01*
X846978Y439351D02*
X857849D01*
X747059Y456279D02*
X750399Y459618D01*
X811717Y456278D02*
X815057Y459618D01*
X738206D02*
X741546Y456279D01*
X822493Y456278D02*
X825833Y459618D01*
X813640D02*
X816980Y456278D01*
X662772Y459618D02*
X666112Y456278D01*
X671625D02*
X674965Y459618D01*
X660848Y456278D02*
X664188Y459618D01*
X736283Y456279D02*
X739623Y459618D01*
X673548D02*
X677106Y456060D01*
X759759Y459618D02*
X766515Y452862D01*
X765195D02*
X771952Y459618D01*
X755087Y453530D02*
X761175Y459618D01*
X824417D02*
X830805Y453231D01*
X802864Y459618D02*
X807272Y455210D01*
X679870Y453747D02*
X685741Y459618D01*
X684325D02*
X691081Y452862D01*
X651996Y459618D02*
X656838Y454776D01*
X748982Y459618D02*
X753153Y455448D01*
X727430Y459618D02*
X732055Y454993D01*
X587338Y459618D02*
X590678Y456279D01*
X596191D02*
X599531Y459618D01*
X585415Y456279D02*
X588754Y459618D01*
X598114D02*
X601509Y456224D01*
X4381Y459618D02*
X1474500D01*
X511904D02*
X515244Y456278D01*
X520756D02*
X524096Y459618D01*
X509980Y456278D02*
X513320Y459618D01*
X576562D02*
X581621Y454559D01*
X522680Y459618D02*
X526022Y456276D01*
X604653Y453964D02*
X610307Y459618D01*
X538893Y452862D02*
X545649Y459618D01*
X533456D02*
X540213Y452862D01*
X614327D02*
X621083Y459618D01*
X608890D02*
X615647Y452862D01*
X458022Y459618D02*
X464779Y452862D01*
X463458D02*
X470215Y459618D01*
X454218Y454398D02*
X459439Y459618D01*
X529436Y454181D02*
X534873Y459618D01*
X501127D02*
X506397Y454349D01*
X809787Y456278D02*
X825892D01*
X734787Y456279D02*
X750892D01*
X659787Y456278D02*
X675892D01*
X753366Y455251D02*
X755387Y453231D01*
X758997Y452862D02*
X771940D01*
X755387Y453231D02*
X758997D01*
X678366Y455251D02*
X680386Y453231D01*
X683997Y452862D02*
X697016D01*
X680386Y453231D02*
X683997D01*
X584787Y456279D02*
X600892D01*
X509773Y456278D02*
X525892D01*
X603366Y455251D02*
X605387Y453231D01*
X608997D01*
X530386D02*
X533997D01*
X608997Y452862D02*
X621978D01*
X533997D02*
X546978D01*
X528366Y455251D02*
X530386Y453231D01*
X453366Y455251D02*
X455386Y453231D01*
X458997Y452862D02*
X471926D01*
X455386Y453231D02*
X458997D01*
X436470Y459618D02*
X439810Y456278D01*
X434534Y456266D02*
X437886Y459618D01*
X371812D02*
X375152Y456278D01*
X447246Y459618D02*
X450586Y456278D01*
X445322D02*
X448662Y459618D01*
X294454Y456278D02*
X297794Y459618D01*
X296378D02*
X299718Y456278D01*
X285601Y459618D02*
X288941Y456278D01*
X369888D02*
X373228Y459618D01*
X361035D02*
X364375Y456278D01*
X379001Y454615D02*
X384005Y459618D01*
X382588D02*
X389344Y452862D01*
X359035Y456202D02*
X362452Y459618D01*
X425693D02*
X431206Y454106D01*
X388024Y452862D02*
X394781Y459618D01*
X303784Y454832D02*
X308570Y459618D01*
X307154D02*
X313910Y452862D01*
X283383Y455984D02*
X287018Y459618D01*
X350259D02*
X355958Y453920D01*
X312590Y452862D02*
X319347Y459618D01*
X219020Y456278D02*
X222360Y459618D01*
X220944D02*
X224284Y456278D01*
X210167Y459618D02*
X213507Y456278D01*
X274825Y459618D02*
X280753Y453691D01*
X228567Y455050D02*
X233136Y459618D01*
X134733D02*
X138073Y456278D01*
X143586D02*
X146926Y459618D01*
X4381Y457166D02*
X6834Y459618D01*
X153350Y455267D02*
X157702Y459618D01*
X145509D02*
X148849Y456278D01*
X199391Y459618D02*
X205536Y453474D01*
X123957Y459618D02*
X130319Y453256D01*
X86288Y452862D02*
X93044Y459618D01*
X237156Y452862D02*
X243913Y459618D01*
X231720D02*
X238476Y452862D01*
X70075Y459618D02*
X76463Y453231D01*
X59299Y459618D02*
X65687Y453231D01*
X80851Y459618D02*
X87608Y452862D01*
X75880Y453231D02*
X82268Y459618D01*
X434825Y456278D02*
X450892D01*
X284787D02*
X300892D01*
X359763D02*
X375892D01*
X378366Y455251D02*
X380386Y453231D01*
X383997Y452862D02*
X397040D01*
X380386Y453231D02*
X383997D01*
X303366Y455251D02*
X305386Y453231D01*
X308997Y452862D02*
X321978D01*
X305386Y453231D02*
X308997D01*
X209787Y456278D02*
X225892D01*
X134787D02*
X150892D01*
X228366Y455251D02*
X230386Y453231D01*
X233997D01*
X153366Y455251D02*
X155386Y453231D01*
X233997Y452862D02*
X246978D01*
X155386Y453231D02*
X158996D01*
X75997Y453231D02*
X83997D01*
Y452862D02*
X97016D01*
X65536Y453231D02*
X75536D01*
X716654Y459618D02*
X726667Y449605D01*
X771940Y448831D02*
X782728Y459618D01*
X705877D02*
X721279Y444217D01*
X792088Y459618D02*
X801884Y449822D01*
X781311Y459618D02*
X796496Y444434D01*
X621978Y449737D02*
X631860Y459618D01*
X641219D02*
X651450Y449388D01*
X565785Y459618D02*
X576233Y449171D01*
X697016Y449341D02*
X707294Y459618D01*
X689761Y452862D02*
X696517Y459618D01*
X770535D02*
X791108Y439046D01*
X707766Y438539D02*
X728846Y459618D01*
X698102Y439650D02*
X718070Y459618D01*
X782849Y438187D02*
X804280Y459618D01*
X773282Y439397D02*
X793504Y459618D01*
X630443D02*
X646062Y444000D01*
X622540Y439523D02*
X642636Y459618D01*
X619667D02*
X640674Y438612D01*
X695101Y459618D02*
X715891Y438829D01*
X632849Y439055D02*
X653412Y459618D01*
X490351D02*
X501009Y448961D01*
X479575Y459618D02*
X495621Y443573D01*
X471926Y450553D02*
X480991Y459618D01*
X555009D02*
X570845Y443783D01*
X546978Y450171D02*
X556425Y459618D01*
X397040Y451101D02*
X405557Y459618D01*
X339483D02*
X350570Y448532D01*
X328707Y459618D02*
X345182Y443144D01*
X414917Y459618D02*
X425818Y448718D01*
X404141Y459618D02*
X420430Y443330D01*
X482575Y439650D02*
X502544Y459618D01*
X544233D02*
X565457Y438395D01*
X471926Y439777D02*
X491768Y459618D01*
X557327Y438967D02*
X577978Y459618D01*
X546978Y439395D02*
X567202Y459618D01*
X332096Y440038D02*
X351676Y459618D01*
X393364D02*
X415041Y437942D01*
X317930Y459618D02*
X339793Y437755D01*
X407142Y439650D02*
X427110Y459618D01*
X397040Y440325D02*
X416333Y459618D01*
X771940Y447437D02*
X779981Y439397D01*
X771940D02*
Y452862D01*
X697016Y439650D02*
X707766D01*
X782849Y436529D02*
X785720Y433658D01*
X771940Y439397D02*
X782849D01*
X697016Y439650D02*
Y452862D01*
Y446927D02*
X704293Y439650D01*
X621978Y439523D02*
Y452862D01*
Y439523D02*
X632849D01*
X621978Y446531D02*
X628987Y439523D01*
X782849Y430786D02*
X807313Y455251D01*
X707766Y430704D02*
X732313Y455251D01*
X707766Y430704D02*
Y439650D01*
X782849Y430786D02*
Y439397D01*
X707766Y436177D02*
X710503Y433441D01*
X632849Y430787D02*
Y439523D01*
Y430787D02*
X657313Y455251D01*
X557849Y430787D02*
Y438967D01*
X632849Y435661D02*
X635285Y433223D01*
X557849Y435226D02*
X560068Y433006D01*
X546978Y446097D02*
X554108Y438967D01*
X546978D02*
Y452862D01*
X471926Y445715D02*
X477991Y439650D01*
X546978Y438967D02*
X557849D01*
X471926Y439650D02*
X482705D01*
X397040Y439650D02*
Y452862D01*
X471926Y439650D02*
Y452862D01*
X321978Y440697D02*
X340899Y459618D01*
X397040Y439650D02*
X407849D01*
X397040Y445167D02*
X402556Y439650D01*
X557849Y430787D02*
X582313Y455251D01*
X482705Y430657D02*
X507299Y455251D01*
X468798Y459618D02*
X490233Y438185D01*
X482705Y434936D02*
X484844Y432796D01*
X482705Y430657D02*
Y439650D01*
X407849Y430748D02*
X432351Y455251D01*
X332689Y430651D02*
X357289Y455251D01*
X407849Y434358D02*
X409653Y432553D01*
X407849Y430748D02*
Y439650D01*
X246978Y451908D02*
X254689Y459618D01*
X253272D02*
X269976Y442915D01*
X188615Y459618D02*
X200147Y448086D01*
X321978Y451474D02*
X330123Y459618D01*
X264049D02*
X275364Y448303D01*
X156286Y459618D02*
X163042Y452862D01*
X161722D02*
X168478Y459618D01*
X113180D02*
X124931Y447868D01*
X177838Y459618D02*
X194759Y442697D01*
X171940Y452303D02*
X179255Y459618D01*
X246978Y441131D02*
X265465Y459618D01*
X242496D02*
X264588Y437526D01*
X182848Y430883D02*
X211584Y459618D01*
X257848Y430787D02*
X282313Y455251D01*
X256273Y439650D02*
X276241Y459618D01*
X171940Y441527D02*
X190031Y459618D01*
X180973Y439785D02*
X200807Y459618D01*
X167062D02*
X189371Y437309D01*
X182848Y430787D02*
X207313Y455251D01*
X180973Y439785D02*
X200807Y459618D01*
X102404D02*
X119542Y442480D01*
X97016Y442038D02*
X114597Y459618D01*
X91628D02*
X114154Y437092D01*
X107959Y431428D02*
X136150Y459618D01*
X105779Y440025D02*
X125373Y459618D01*
X37746D02*
X58439Y438925D01*
X4381Y435614D02*
X28386Y459618D01*
X4381Y446390D02*
X17610Y459618D01*
X97016Y452814D02*
X103820Y459618D01*
X48523D02*
X64910Y443231D01*
X26970Y459618D02*
X57906Y428683D01*
X19478Y418382D02*
X60715Y459618D01*
X16194D02*
X57431Y418382D01*
X107959Y430897D02*
X132313Y455251D01*
X30255Y418382D02*
X71492Y459618D01*
X4381Y424837D02*
X39163Y459618D01*
X4381Y418382D02*
Y459618D01*
X8702Y418382D02*
X49939Y459618D01*
X5417D02*
X46654Y418382D01*
X321978Y444795D02*
X326734Y440038D01*
X321978D02*
Y452862D01*
X246978Y444360D02*
X251688Y439650D01*
X321978Y440038D02*
X332689D01*
X171940Y439785D02*
X182848D01*
X171940D02*
Y452862D01*
Y443965D02*
X176120Y439785D01*
X158996Y452862D02*
X171940D01*
X97016Y440025D02*
X107959D01*
X97016Y443454D02*
X100445Y440025D01*
X257848Y430787D02*
Y439650D01*
X332689Y430651D02*
Y440038D01*
X246978Y439650D02*
X257848D01*
X332689Y434084D02*
X334405Y432367D01*
X257848Y433490D02*
X259200Y432138D01*
X246978Y439650D02*
Y452862D01*
X182848Y430787D02*
Y439785D01*
X107959Y430897D02*
Y440025D01*
X182848Y433056D02*
X183983Y431921D01*
X107959Y432511D02*
X108766Y431704D01*
X65266Y443231D02*
Y452710D01*
X97016Y440025D02*
Y452862D01*
X63736Y443231D02*
X65266D01*
X59009Y439653D02*
X60999Y441643D01*
X57906Y425370D02*
Y436998D01*
X59009Y422715D02*
X59956Y421768D01*
X51807Y418382D02*
X57993Y424567D01*
X4381Y418382D02*
X61211D01*
X4381Y439102D02*
X25102Y418382D01*
X4381Y449878D02*
X35878Y418382D01*
X41031D02*
X57906Y435256D01*
X4381Y428326D02*
X14325Y418382D01*
X1580119Y200640D02*
G03*
X1578140Y202619I-1979J0D01*
G01*
X1415152Y199279D02*
G03*
X1412682Y198256I0J-3492D01*
G01*
X1415152Y199279D02*
G03*
X1412678Y198251I0J-3492D01*
G01*
X1378323Y198256D02*
G03*
X1375854Y199279I-2470J-2470D01*
G01*
X1378328Y198251D02*
G03*
X1375854Y199279I-2474J-2465D01*
G01*
X1428188Y198256D02*
G03*
X1425718Y199279I-2470J-2470D01*
G01*
X1428192Y198251D02*
G03*
X1425718Y199279I-2474J-2465D01*
G01*
X1329123Y198256D02*
G03*
X1326654Y199279I-2470J-2470D01*
G01*
X1315737D02*
G03*
X1313268Y198256I0J-3492D01*
G01*
X1366461Y199279D02*
G03*
X1363992Y198256I0J-3492D01*
G01*
X1329128Y198251D02*
G03*
X1326654Y199279I-2474J-2465D01*
G01*
X1366461D02*
G03*
X1363987Y198251I0J-3492D01*
G01*
X1315737Y199279D02*
G03*
X1313263Y198251I0J-3492D01*
G01*
X1266499Y199279D02*
G03*
X1264030Y198256I0J-3492D01*
G01*
X1228366Y198251D02*
G03*
X1225892Y199279I-2474J-2465D01*
G01*
X1228361Y198256D02*
G03*
X1225892Y199279I-2470J-2470D01*
G01*
X1278361Y198256D02*
G03*
X1275892Y199279I-2470J-2470D01*
G01*
X1278366Y198251D02*
G03*
X1275892Y199279I-2474J-2465D01*
G01*
X1166499D02*
G03*
X1164029Y198256I0J-3492D01*
G01*
X1166499Y199279D02*
G03*
X1164025Y198251I0J-3492D01*
G01*
X1216499Y199279D02*
G03*
X1214030Y198256I0J-3492D01*
G01*
X1178366Y198251D02*
G03*
X1175892Y199279I-2474J-2465D01*
G01*
X1178361Y198256D02*
G03*
X1175892Y199279I-2470J-2470D01*
G01*
X1266499D02*
G03*
X1264025Y198251I0J-3492D01*
G01*
X1216499Y199279D02*
G03*
X1214025Y198251I0J-3492D01*
G01*
X816499Y199279D02*
G03*
X814030Y198256I0J-3492D01*
G01*
X1078361Y198256D02*
G03*
X1075892Y199279I-2470J-2470D01*
G01*
X1066499D02*
G03*
X1064029Y198256I0J-3492D01*
G01*
X1028366Y198251D02*
G03*
X1025892Y199279I-2474J-2465D01*
G01*
X1128361Y198256D02*
G03*
X1125892Y199279I-2470J-2470D01*
G01*
X1116499D02*
G03*
X1114029Y198256I0J-3492D01*
G01*
X1016499Y199279D02*
G03*
X1014030Y198256I0J-3492D01*
G01*
X978366Y198251D02*
G03*
X975892Y199279I-2474J-2465D01*
G01*
X978362Y198256D02*
G03*
X975892Y199279I-2470J-2470D01*
G01*
X1028362Y198256D02*
G03*
X1025892Y199279I-2470J-2470D01*
G01*
X1016499D02*
G03*
X1014025Y198251I0J-3492D01*
G01*
X1116499Y199279D02*
G03*
X1114025Y198251I0J-3492D01*
G01*
X1128366D02*
G03*
X1125892Y199279I-2474J-2465D01*
G01*
X1066499D02*
G03*
X1064025Y198251I0J-3492D01*
G01*
X1078366D02*
G03*
X1075892Y199279I-2474J-2465D01*
G01*
X928361Y198256D02*
G03*
X925892Y199279I-2470J-2470D01*
G01*
X916499D02*
G03*
X914030Y198256I0J-3492D01*
G01*
X916499Y199279D02*
G03*
X914025Y198251I0J-3492D01*
G01*
X966499Y199279D02*
G03*
X964030Y198256I0J-3492D01*
G01*
X928366Y198251D02*
G03*
X925892Y199279I-2474J-2465D01*
G01*
X828362Y198256D02*
G03*
X825892Y199279I-2470J-2470D01*
G01*
X828366Y198251D02*
G03*
X825892Y199279I-2474J-2465D01*
G01*
X816499D02*
G03*
X814025Y198251I0J-3492D01*
G01*
X878361Y198256D02*
G03*
X875892Y199279I-2470J-2470D01*
G01*
X866499D02*
G03*
X864030Y198256I0J-3492D01*
G01*
X966499Y199279D02*
G03*
X964025Y198251I0J-3492D01*
G01*
X866499Y199279D02*
G03*
X864025Y198251I0J-3492D01*
G01*
X878366D02*
G03*
X875892Y199279I-2474J-2465D01*
G01*
X1405773Y191347D02*
G03*
X1404751Y188877I2470J-2470D01*
G01*
X1405778Y191351D02*
G03*
X1404751Y188877I2465J-2474D01*
G01*
X1356223Y190487D02*
G03*
X1355195Y188013I2465J-2474D01*
G01*
X1306666Y191654D02*
G03*
X1305638Y189179I2465J-2474D01*
G01*
X1306661Y191649D02*
G03*
X1305638Y189179I2470J-2470D01*
G01*
X1356218Y190483D02*
G03*
X1355195Y188013I2470J-2470D01*
G01*
X1578501Y85612D02*
G03*
X1578401Y86498I-4001J0D01*
G01*
X1578501Y85612D02*
G03*
X1578401Y86498I-4001J0D01*
G01*
Y86498D02*
G03*
X1578994Y88928I-4677J2430D01*
G01*
X1566288Y164296D02*
G03*
X1558299Y167605I-7988J-7988D01*
G01*
X1450892D02*
G03*
X1451382Y169145I-4718J2350D01*
G01*
X1571375Y152015D02*
G03*
X1566288Y164296I-17368J0D01*
G01*
X1578994Y88928D02*
G03*
X1571375Y93646I-5271J0D01*
G01*
X1256261Y190487D02*
G03*
X1255234Y188013I2465J-2474D01*
G01*
X1006262Y190487D02*
G03*
X1005234Y188013I2465J-2474D01*
G01*
X906261Y190487D02*
G03*
X905234Y188013I2465J-2474D01*
G01*
X856261Y190487D02*
G03*
X855234Y188013I2465J-2474D01*
G01*
X806262Y190487D02*
G03*
X805234Y188013I2465J-2474D01*
G01*
X956262Y190487D02*
G03*
X955234Y188013I2465J-2474D01*
G01*
X1206261Y190487D02*
G03*
X1205234Y188013I2465J-2474D01*
G01*
X1256256Y190483D02*
G03*
X1255234Y188013I2470J-2470D01*
G01*
X1206256Y190483D02*
G03*
X1205234Y188013I2470J-2470D01*
G01*
X1106261Y190487D02*
G03*
X1105234Y188013I2465J-2474D01*
G01*
X1156261Y190487D02*
G03*
X1155234Y188013I2465J-2474D01*
G01*
X1056261Y190487D02*
G03*
X1055234Y188013I2465J-2474D01*
G01*
X1106256Y190483D02*
G03*
X1105234Y188013I2470J-2470D01*
G01*
X1156256Y190483D02*
G03*
X1155234Y188013I2470J-2470D01*
G01*
X1056256Y190483D02*
G03*
X1055234Y188013I2470J-2470D01*
G01*
X956257Y190483D02*
G03*
X955234Y188013I2470J-2470D01*
G01*
X1006257Y190483D02*
G03*
X1005234Y188013I2470J-2470D01*
G01*
X906257Y190483D02*
G03*
X905234Y188013I2470J-2470D01*
G01*
X806257Y190483D02*
G03*
X805234Y188013I2470J-2470D01*
G01*
X856257Y190483D02*
G03*
X855234Y188013I2470J-2470D01*
G01*
X666499Y199279D02*
G03*
X664030Y198256I0J-3492D01*
G01*
X766513Y199279D02*
G03*
X764039Y198251I0J-3492D01*
G01*
X778380D02*
G03*
X775906Y199279I-2474J-2465D01*
G01*
X666499D02*
G03*
X664025Y198251I0J-3492D01*
G01*
X766513Y199279D02*
G03*
X764044Y198256I0J-3492D01*
G01*
X778375D02*
G03*
X775906Y199279I-2470J-2470D01*
G01*
X728337Y198256D02*
G03*
X725868Y199279I-2470J-2470D01*
G01*
X728342Y198251D02*
G03*
X725868Y199279I-2474J-2465D01*
G01*
X716475D02*
G03*
X714006Y198256I0J-3492D01*
G01*
X716475Y199279D02*
G03*
X714001Y198251I0J-3492D01*
G01*
X678361Y198256D02*
G03*
X675892Y199279I-2470J-2470D01*
G01*
X678366Y198251D02*
G03*
X675892Y199279I-2474J-2465D01*
G01*
X628366Y198251D02*
G03*
X625892Y199279I-2474J-2465D01*
G01*
X628361Y198256D02*
G03*
X625892Y199279I-2470J-2470D01*
G01*
X616499D02*
G03*
X614030Y198256I0J-3492D01*
G01*
X616499Y199279D02*
G03*
X614025Y198251I0J-3492D01*
G01*
X578362Y198256D02*
G03*
X575892Y199279I-2470J-2470D01*
G01*
X578366Y198251D02*
G03*
X575892Y199279I-2474J-2465D01*
G01*
X566499D02*
G03*
X564030Y198256I0J-3492D01*
G01*
X528361Y198256D02*
G03*
X525892Y199279I-2470J-2470D01*
G01*
X566499Y199279D02*
G03*
X564025Y198251I0J-3492D01*
G01*
X528366Y198251D02*
G03*
X525892Y199279I-2474J-2465D01*
G01*
X466499D02*
G03*
X464030Y198256I0J-3492D01*
G01*
X466499Y199279D02*
G03*
X464025Y198251I0J-3492D01*
G01*
X516499Y199279D02*
G03*
X514030Y198256I0J-3492D01*
G01*
X478361D02*
G03*
X475892Y199279I-2470J-2470D01*
G01*
X516499D02*
G03*
X514025Y198251I0J-3492D01*
G01*
X478366D02*
G03*
X475892Y199279I-2474J-2465D01*
G01*
X178361Y198256D02*
G03*
X175892Y199279I-2470J-2470D01*
G01*
X78361Y198256D02*
G03*
X75892Y199279I-2470J-2470D01*
G01*
X78366Y198251D02*
G03*
X75892Y199279I-2474J-2465D01*
G01*
X66499D02*
G03*
X64030Y198256I0J-3492D01*
G01*
X66499Y199279D02*
G03*
X64025Y198251I0J-3492D01*
G01*
X378361Y198256D02*
G03*
X375892Y199279I-2470J-2470D01*
G01*
X378366Y198251D02*
G03*
X375892Y199279I-2474J-2465D01*
G01*
X366499D02*
G03*
X364030Y198256I0J-3492D01*
G01*
X428361D02*
G03*
X425892Y199279I-2470J-2470D01*
G01*
X416499D02*
G03*
X414030Y198256I0J-3492D01*
G01*
X278361D02*
G03*
X275892Y199279I-2470J-2470D01*
G01*
X266499D02*
G03*
X264030Y198256I0J-3492D01*
G01*
X328361D02*
G03*
X325892Y199279I-2470J-2470D01*
G01*
X316499D02*
G03*
X314030Y198256I0J-3492D01*
G01*
X416499Y199279D02*
G03*
X414025Y198251I0J-3492D01*
G01*
X428366D02*
G03*
X425892Y199279I-2474J-2465D01*
G01*
X366499D02*
G03*
X364025Y198251I0J-3492D01*
G01*
X316499Y199279D02*
G03*
X314025Y198251I0J-3492D01*
G01*
X328366D02*
G03*
X325892Y199279I-2474J-2465D01*
G01*
X266499D02*
G03*
X264025Y198251I0J-3492D01*
G01*
X278366D02*
G03*
X275892Y199279I-2474J-2465D01*
G01*
X216499D02*
G03*
X214030Y198256I0J-3492D01*
G01*
X216499Y199279D02*
G03*
X214025Y198251I0J-3492D01*
G01*
X166499Y199279D02*
G03*
X164030Y198256I0J-3492D01*
G01*
X178366Y198251D02*
G03*
X175892Y199279I-2474J-2465D01*
G01*
X228361Y198256D02*
G03*
X225892Y199279I-2470J-2470D01*
G01*
X228366Y198251D02*
G03*
X225892Y199279I-2474J-2465D01*
G01*
X128361Y198256D02*
G03*
X125892Y199279I-2470J-2470D01*
G01*
X166499Y199279D02*
G03*
X164025Y198251I0J-3492D01*
G01*
X128366Y198251D02*
G03*
X125892Y199279I-2474J-2465D01*
G01*
X116499D02*
G03*
X114030Y198256I0J-3492D01*
G01*
X116499Y199279D02*
G03*
X114025Y198251I0J-3492D01*
G01*
X756275Y190487D02*
G03*
X755248Y188013I2465J-2474D01*
G01*
X656261Y190487D02*
G03*
X655234Y188013I2465J-2474D01*
G01*
X706237Y190487D02*
G03*
X705210Y188013I2465J-2474D01*
G01*
X756271Y190483D02*
G03*
X755248Y188013I2470J-2470D01*
G01*
X706232Y190483D02*
G03*
X705210Y188013I2470J-2470D01*
G01*
X606261Y190487D02*
G03*
X605233Y188013I2465J-2474D01*
G01*
X556261Y190487D02*
G03*
X555234Y188013I2465J-2474D01*
G01*
X656257Y190483D02*
G03*
X655234Y188013I2470J-2470D01*
G01*
X606256Y190483D02*
G03*
X605233Y188013I2470J-2470D01*
G01*
X556257Y190483D02*
G03*
X555234Y188013I2470J-2470D01*
G01*
X506261Y190487D02*
G03*
X505233Y188013I2465J-2474D01*
G01*
X506256Y190483D02*
G03*
X505233Y188013I2470J-2470D01*
G01*
X456261Y190487D02*
G03*
X455233Y188013I2465J-2474D01*
G01*
X456256Y190483D02*
G03*
X455233Y188013I2470J-2470D01*
G01*
X406261Y190487D02*
G03*
X405233Y188013I2465J-2474D01*
G01*
X406256Y190483D02*
G03*
X405233Y188013I2470J-2470D01*
G01*
X356261Y190487D02*
G03*
X355233Y188013I2465J-2474D01*
G01*
X356256Y190483D02*
G03*
X355233Y188013I2470J-2470D01*
G01*
X256261Y190487D02*
G03*
X255233Y188013I2465J-2474D01*
G01*
X306261Y190487D02*
G03*
X305233Y188013I2465J-2474D01*
G01*
X156261Y190487D02*
G03*
X155234Y188013I2465J-2474D01*
G01*
X206261Y190487D02*
G03*
X205233Y188013I2465J-2474D01*
G01*
X256256Y190483D02*
G03*
X255233Y188013I2470J-2470D01*
G01*
X306256Y190483D02*
G03*
X305233Y188013I2470J-2470D01*
G01*
X206256Y190483D02*
G03*
X205233Y188013I2470J-2470D01*
G01*
X156257Y190483D02*
G03*
X155234Y188013I2470J-2470D01*
G01*
X106256Y190483D02*
G03*
X105233Y188013I2470J-2470D01*
G01*
X106261Y190487D02*
G03*
X105233Y188013I2465J-2474D01*
G01*
X56257Y190483D02*
G03*
X55234Y188013I2470J-2470D01*
G01*
X56261Y190487D02*
G03*
X55234Y188013I2465J-2474D01*
G01*
X17996Y165354D02*
G03*
X19019Y162884I3492J0D01*
G01*
X17996Y165354D02*
G03*
X19024Y162879I3492J0D01*
G01*
X14513Y186231D02*
G03*
X14514Y177770I-3143J-4231D01*
G01*
X1559500Y202619D02*
X1578140D01*
X1474500D02*
X1559500D01*
X1415190Y199279D02*
X1418530Y202619D01*
X1578917Y202459D02*
X1579959Y201417D01*
X1425958Y199270D02*
X1429306Y202619D01*
X1417114D02*
X1420454Y199279D01*
X1320127Y202619D02*
X1323467Y199279D01*
X1328470Y198769D02*
X1332319Y202619D01*
X1318203Y199279D02*
X1321543Y202619D01*
X1372085Y199279D02*
X1375425Y202619D01*
X1406337D02*
X1411691Y197264D01*
X1363232Y202619D02*
X1366572Y199279D01*
X1390221Y195862D02*
X1396977Y202619D01*
X1427890D02*
X1434646Y195862D01*
X1380081Y196498D02*
X1386201Y202619D01*
X1384785D02*
X1391541Y195862D01*
X1438666Y202619D02*
X1445423Y195862D01*
X1444102D02*
X1450859Y202619D01*
X1433694Y196231D02*
X1440082Y202619D01*
X1336339Y195862D02*
X1343096Y202619D01*
X1347016Y195763D02*
X1353872Y202619D01*
X1330903D02*
X1337659Y195862D01*
X1374008Y202619D02*
X1380396Y196231D01*
X1374008Y202619D02*
X1380396Y196231D01*
X1352456Y202619D02*
X1360405Y194669D01*
X1223140Y202619D02*
X1226541Y199218D01*
X1229666Y196951D02*
X1235333Y202619D01*
X1221216Y199279D02*
X1224556Y202619D01*
X1212364D02*
X1215779Y199203D01*
X1275098Y199279D02*
X1278438Y202619D01*
X1309350D02*
X1313501Y198468D01*
X1266245Y202619D02*
X1269585Y199279D01*
X1158482Y202619D02*
X1163437Y197663D01*
X1131958Y196231D02*
X1138346Y202619D01*
X1126153D02*
X1132541Y196231D01*
X1169258Y202619D02*
X1172598Y199279D01*
X1177641Y198809D02*
X1181451Y202619D01*
X1167335Y199279D02*
X1170675Y202619D01*
X1277021D02*
X1283409Y196231D01*
X1255469Y202619D02*
X1261931Y196157D01*
X1233916Y202619D02*
X1240673Y195862D01*
X1239352D02*
X1246109Y202619D01*
X1287798D02*
X1294554Y195862D01*
X1293234D02*
X1299991Y202619D01*
X1282826Y196231D02*
X1289214Y202619D01*
X1142366Y195862D02*
X1149122Y202619D01*
X1180035D02*
X1186791Y195862D01*
X1136929Y202619D02*
X1143686Y195862D01*
X1196247D02*
X1203004Y202619D01*
X1201587D02*
X1209990Y194216D01*
X1185471Y195862D02*
X1192227Y202619D01*
X1415152Y199279D02*
X1425718D01*
X1315737D02*
X1326654D01*
X1366461D02*
X1375854D01*
X1428192Y198251D02*
X1430213Y196231D01*
X1433996D01*
X1378328Y198251D02*
X1380348Y196231D01*
X1383958Y195862D02*
X1396940D01*
X1433996D02*
X1446978D01*
X1380348Y196231D02*
X1383958D01*
X1329128Y198251D02*
X1331148Y196231D01*
X1333996D01*
X1283996Y195862D02*
X1296978D01*
X1333996D02*
X1347016D01*
X1280386Y196231D02*
X1283996D01*
X1216499Y199279D02*
X1225892D01*
X1266499D02*
X1275892D01*
X1166499D02*
X1175892D01*
X1278366Y198251D02*
X1280386Y196231D01*
X1230386D02*
X1233997D01*
Y195862D02*
X1246978D01*
X1228366Y198251D02*
X1230386Y196231D01*
X1178366Y198251D02*
X1180386Y196231D01*
X1183997D01*
X1128366Y198251D02*
X1130386Y196231D01*
X1133997Y195862D02*
X1147016D01*
X1183997D02*
X1196940D01*
X1130386Y196231D02*
X1133997D01*
X1070348Y199279D02*
X1073688Y202619D01*
X1072272D02*
X1075612Y199279D01*
X1027047Y199082D02*
X1030583Y202619D01*
X1061495D02*
X1065119Y198994D01*
X1115377Y202619D02*
X1118717Y199279D01*
X1124230D02*
X1127570Y202619D01*
X1079231Y197386D02*
X1084464Y202619D01*
X973362Y199279D02*
X976701Y202619D01*
X975285D02*
X981673Y196231D01*
X964509Y202619D02*
X967848Y199279D01*
X1018390Y202619D02*
X1021730Y199279D01*
X1016467Y199279D02*
X1019807Y202619D01*
X1007614D02*
X1013003Y197229D01*
X1083048Y202619D02*
X1089804Y195862D01*
X1050719Y202619D02*
X1059556Y193782D01*
X1039943Y202619D02*
X1046699Y195862D01*
X1045379D02*
X1052135Y202619D01*
X1104601D02*
X1111497Y195723D01*
X1096978Y193580D02*
X1106017Y202619D01*
X1088484Y195862D02*
X1095241Y202619D01*
X981090Y196231D02*
X987478Y202619D01*
X986061D02*
X992818Y195862D01*
X953732Y202619D02*
X961062Y195288D01*
X1029166Y202619D02*
X1035923Y195862D01*
X1034603D02*
X1041359Y202619D01*
X991497Y195862D02*
X998254Y202619D01*
X876345Y199249D02*
X879715Y202619D01*
X910627D02*
X914557Y198689D01*
X867522Y202619D02*
X870862Y199279D01*
X865431Y199111D02*
X868938Y202619D01*
X921403D02*
X924743Y199279D01*
X928797Y197820D02*
X933596Y202619D01*
X919480Y199279D02*
X922820Y202619D01*
X856746D02*
X862569Y196795D01*
X830304Y196313D02*
X836609Y202619D01*
X822493Y199279D02*
X825833Y202619D01*
X816499Y199279D02*
X825892D01*
X813640Y202619D02*
X816980Y199279D01*
X894511Y195862D02*
X901267Y202619D01*
X899851D02*
X909122Y193348D01*
X889074Y202619D02*
X895831Y195862D01*
X937616D02*
X944372Y202619D01*
X947016Y194486D02*
X955149Y202619D01*
X932180D02*
X938936Y195862D01*
X824417Y202619D02*
X830804Y196231D01*
X835193Y202619D02*
X841949Y195862D01*
X802864Y202619D02*
X810628Y194854D01*
X883997Y196124D02*
X890491Y202619D01*
X878298D02*
X885055Y195862D01*
X840629Y195862D02*
X847386Y202619D01*
X1066499Y199279D02*
X1075892D01*
X1116499D02*
X1125892D01*
X1016499Y199279D02*
X1025892D01*
X1080386Y196231D02*
X1083997D01*
Y195862D02*
X1096978D01*
X1078366Y198251D02*
X1080386Y196231D01*
X1028366Y198251D02*
X1030387Y196231D01*
X1033997D01*
X978366Y198251D02*
X980387Y196231D01*
X983997Y195862D02*
X996940D01*
X1033997D02*
X1046978D01*
X980387Y196231D02*
X983997D01*
X916499Y199279D02*
X925892D01*
X966499D02*
X975892D01*
X866499D02*
X875892D01*
X930386Y196231D02*
X933997D01*
X928366Y198251D02*
X930386Y196231D01*
X883997Y195862D02*
X896978D01*
X933997D02*
X947016D01*
X880387Y196231D02*
X883997D01*
X828366Y198251D02*
X830387Y196231D01*
X878366Y198251D02*
X880387Y196231D01*
X833997Y195862D02*
X846978D01*
X830387Y196231D02*
X833997D01*
X1567982Y202619D02*
X1580119Y190482D01*
X1557206Y202619D02*
X1580119Y179706D01*
X1546429Y202619D02*
X1580119Y168929D01*
X1523608Y167605D02*
X1558622Y202619D01*
X1545160Y167605D02*
X1579567Y202011D01*
X1555937Y167605D02*
X1580119Y191786D01*
X1534384Y167605D02*
X1569398Y202619D01*
X1512832Y167605D02*
X1547845Y202619D01*
X1514100D02*
X1549114Y167605D01*
X1503324Y202619D02*
X1538338Y167605D01*
X1452523Y182731D02*
X1472411Y202619D01*
X1457594Y177025D02*
X1483188Y202619D01*
X1446978Y183531D02*
X1447778Y182731D01*
X1524877Y202619D02*
X1560023Y167472D01*
X1535653Y202619D02*
X1580119Y158153D01*
X1481772Y202619D02*
X1516785Y167605D01*
X1502055D02*
X1537069Y202619D01*
X1492548D02*
X1527562Y167605D01*
X1580119Y4381D02*
Y200640D01*
X1491279Y167605D02*
X1526293Y202619D01*
X1458950Y167605D02*
X1493964Y202619D01*
X1460219D02*
X1495233Y167605D01*
X1449443Y202619D02*
X1484457Y167605D01*
X1470995Y202619D02*
X1506009Y167605D01*
X1480503D02*
X1515517Y202619D01*
X1469726Y167605D02*
X1504740Y202619D01*
X1396940Y191805D02*
X1407753Y202619D01*
X1405778Y191351D02*
X1412678Y198251D01*
X1395561Y202619D02*
X1406303Y191876D01*
X1356223Y190487D02*
X1363987Y198251D01*
X1298574Y202619D02*
X1308102Y193090D01*
X1341679Y202619D02*
X1355329Y188969D01*
X1296978Y188830D02*
X1310767Y202619D01*
X1306666Y191654D02*
X1313263Y198251D01*
X1446978Y182731D02*
Y195862D01*
Y194307D02*
X1473680Y167605D01*
X1446978Y187961D02*
X1461635Y202619D01*
X1398642Y182731D02*
X1404751Y188839D01*
Y182731D02*
Y188877D01*
X1396940Y190463D02*
X1404673Y182731D01*
X1347016Y184986D02*
X1364648Y202619D01*
X1396940Y182731D02*
Y195862D01*
X1347016Y182904D02*
Y195862D01*
X1355195Y182904D02*
Y188013D01*
X1347016Y186506D02*
X1350617Y182904D01*
X1571375Y134568D02*
X1580119Y125824D01*
X1577703Y92384D02*
X1580119Y94799D01*
X1571375Y145344D02*
X1580119Y136600D01*
X1571375Y129161D02*
X1580119Y137905D01*
X1578501Y62784D02*
X1580119Y61166D01*
X1578501Y60853D02*
X1580119Y62471D01*
X1578501Y84337D02*
X1580119Y82719D01*
X1578501Y73561D02*
X1580119Y71943D01*
X1578501Y71629D02*
X1580119Y73247D01*
X1578501Y82405D02*
X1580119Y84023D01*
X1578730Y41002D02*
X1580119Y39614D01*
X1578730Y39530D02*
X1580119Y40918D01*
X1578501Y52008D02*
X1580119Y50390D01*
X1578501Y50076D02*
X1580119Y51694D01*
X1578730Y28754D02*
X1580119Y30142D01*
X1578730Y7201D02*
X1580119Y8589D01*
X1578730Y30225D02*
X1580119Y28837D01*
X1578730Y19449D02*
X1580119Y18061D01*
X1578730Y4381D02*
Y42726D01*
X1578501D02*
Y85612D01*
X1578730Y8673D02*
X1580119Y7285D01*
X1578730Y4381D02*
X1580119D01*
X1578730Y17977D02*
X1580119Y19365D01*
X1457594Y171269D02*
Y182731D01*
X1564715Y165606D02*
X1580119Y181010D01*
X1446978Y182731D02*
X1457594D01*
Y172914D02*
X1462904Y167605D01*
X1569583Y159698D02*
X1580119Y170234D01*
X1450892Y167605D02*
X1558299D01*
X1396940Y182731D02*
X1404751D01*
X1453502Y171269D02*
X1457594D01*
X1347016Y182904D02*
X1355195D01*
X1451382Y169145D02*
X1453389Y171152D01*
X1451238Y168494D02*
X1452128Y167605D01*
X1571375Y150713D02*
X1580119Y159457D01*
X1571375Y139937D02*
X1580119Y148681D01*
X1570705Y156790D02*
X1580119Y147377D01*
X1571375Y123792D02*
X1580119Y115048D01*
X1571375Y107608D02*
X1580119Y116352D01*
X1571375Y118384D02*
X1580119Y127128D01*
X1571375Y113015D02*
X1580119Y104271D01*
X1571375Y93646D02*
Y152015D01*
Y102239D02*
X1580119Y93495D01*
X1571375Y96832D02*
X1580119Y105576D01*
X1246978Y192711D02*
X1256885Y202619D01*
X1256261Y190487D02*
X1264025Y198251D01*
X1244693Y202619D02*
X1256543Y190769D01*
X1190811Y202619D02*
X1205238Y188191D01*
X1206261Y190487D02*
X1214025Y198251D01*
X1156261Y190487D02*
X1164025Y198251D01*
X1147706Y202619D02*
X1158049Y192275D01*
X1147016Y189736D02*
X1159899Y202619D01*
X1093824D02*
X1106113Y190330D01*
X1056261Y190487D02*
X1064025Y198251D01*
X1106261Y190487D02*
X1114025Y198251D01*
X1006262Y190487D02*
X1014025Y198251D01*
X1247186Y182143D02*
X1267662Y202619D01*
X1296978Y181968D02*
Y195862D01*
X1196940Y185779D02*
X1213780Y202619D01*
X1246978Y182143D02*
Y195862D01*
X1296978Y193438D02*
X1305638Y184778D01*
X1196940Y182731D02*
Y195862D01*
X1147016Y192532D02*
X1155234Y184314D01*
X1096978Y182803D02*
X1116793Y202619D01*
X1147016Y182651D02*
Y195862D01*
X1046978Y186685D02*
X1062912Y202619D01*
X1096978Y182484D02*
Y195862D01*
X1046978Y182351D02*
Y195862D01*
Y195583D02*
X1055234Y187328D01*
X996837Y202619D02*
X1007615Y191841D01*
X996940Y190528D02*
X1009030Y202619D01*
X956262Y190487D02*
X964025Y198251D01*
X942956Y202619D02*
X955744Y189830D01*
X906261Y190487D02*
X914025Y198251D01*
X846978Y191435D02*
X858162Y202619D01*
X845969D02*
X857181Y191407D01*
X806262Y190487D02*
X814025Y198251D01*
X856261Y190487D02*
X864025Y198251D01*
X947016Y183710D02*
X965925Y202619D01*
X996940Y182397D02*
Y195862D01*
X896978Y187553D02*
X912044Y202619D01*
X996940Y191740D02*
X1005234Y183446D01*
X947016Y182651D02*
Y195862D01*
X796940Y184502D02*
X815057Y202619D01*
X846978Y181968D02*
Y195862D01*
X796940Y182650D02*
Y195862D01*
X896978Y194715D02*
X905234Y186459D01*
X896978Y182523D02*
Y195862D01*
X846978Y190833D02*
X855234Y182578D01*
X1205234Y182731D02*
Y188013D01*
X1196940Y185713D02*
X1199923Y182731D01*
X1204668D02*
X1205234Y183296D01*
X1196940Y182731D02*
X1205234D01*
X1300893Y181968D02*
X1305638Y186713D01*
Y181968D02*
Y189179D01*
X1246978Y189557D02*
X1254392Y182143D01*
X1255234D02*
Y188013D01*
X1296978Y181968D02*
X1305638D01*
X1296978Y182662D02*
X1297672Y181968D01*
X1246978Y182143D02*
X1255234D01*
X1155234Y182651D02*
Y188013D01*
X1105234Y182484D02*
Y188013D01*
X1096978Y188688D02*
X1103182Y182484D01*
X1147016Y182651D02*
X1155234D01*
X1150707D02*
X1155234Y187177D01*
X1096978Y182484D02*
X1105234D01*
X905234Y182523D02*
Y188013D01*
X947016Y187782D02*
X952148Y182651D01*
X955234D02*
Y188013D01*
X947016Y182651D02*
X955234D01*
X805234Y182650D02*
Y188013D01*
X796940Y182650D02*
X805234D01*
X896978Y182523D02*
X905234D01*
X796940Y186990D02*
X801280Y182650D01*
X1046978Y184807D02*
X1049434Y182351D01*
X1055234D02*
Y188013D01*
X999585Y182397D02*
X1005234Y188046D01*
X1046978Y182351D02*
X1055234D01*
X1053420D02*
X1055234Y184164D01*
X996940Y182397D02*
X1005234D01*
Y188013D01*
X855234Y181968D02*
Y188013D01*
X848287Y181968D02*
X855401Y189081D01*
X896978Y183939D02*
X898394Y182523D01*
X902724D02*
X905234Y185032D01*
X846978Y181968D02*
X855234D01*
X770535Y202619D02*
X773875Y199279D01*
X778370Y198261D02*
X782728Y202619D01*
X768612Y199279D02*
X771952Y202619D01*
X716654D02*
X719994Y199279D01*
X766513Y199279D02*
X775906D01*
X759759Y202619D02*
X764083Y198294D01*
X725506Y199279D02*
X728846Y202619D01*
X671625Y199279D02*
X674965Y202619D01*
X673548D02*
X677106Y199061D01*
X662772Y202619D02*
X666131Y199259D01*
X666499Y199279D02*
X675892D01*
X627891Y198650D02*
X631860Y202619D01*
X781311D02*
X788068Y195862D01*
X786748D02*
X793504Y202619D01*
X733235Y196231D02*
X739623Y202619D01*
X743643Y195862D02*
X750399Y202619D01*
X738206D02*
X744962Y195862D01*
X705877Y202619D02*
X712123Y196373D01*
X727430Y202619D02*
X733818Y196231D01*
X689761Y195862D02*
X696517Y202619D01*
X679870Y196747D02*
X685741Y202619D01*
X684325D02*
X691081Y195862D01*
X574638Y199279D02*
X577978Y202619D01*
X608890D02*
X613642Y197868D01*
X565785Y202619D02*
X569125Y199279D01*
X522680Y202619D02*
X526022Y199276D01*
X617743Y199279D02*
X621083Y202619D01*
X619667D02*
X623007Y199279D01*
X4381Y202619D02*
X1474500D01*
X466875Y199279D02*
X470215Y202619D01*
X468798D02*
X472138Y199279D01*
X458022Y202619D02*
X463207Y197433D01*
X520756Y199279D02*
X524096Y202619D01*
X511904D02*
X515416Y199106D01*
X477338Y198965D02*
X480991Y202619D01*
X555009D02*
X561701Y195927D01*
X538893Y195862D02*
X545649Y202619D01*
X533456D02*
X540213Y195862D01*
X582367Y196231D02*
X588754Y202619D01*
X592774Y195862D02*
X599531Y202619D01*
X576562D02*
X582949Y196231D01*
X431498Y196231D02*
X437886Y202619D01*
X436470D02*
X443226Y195862D01*
X425693Y202619D02*
X432081Y196231D01*
X529436Y197181D02*
X534873Y202619D01*
X485011Y195862D02*
X491768Y202619D01*
X441906Y195862D02*
X448662Y202619D01*
X716475Y199279D02*
X725868D01*
X616499D02*
X625892D01*
X778380Y198251D02*
X780400Y196231D01*
X784011D01*
X728342Y198251D02*
X730362Y196231D01*
X733972D01*
Y195862D02*
X747016D01*
X784011D02*
X796940D01*
X683997D02*
X696978D01*
X678366Y198251D02*
X680386Y196231D01*
X628366Y198251D02*
X630386Y196231D01*
X680386Y196231D02*
X683997D01*
X630386Y196231D02*
X633997D01*
X580387Y196231D02*
X583997D01*
X566499Y199279D02*
X575892D01*
X466499Y199279D02*
X475892D01*
X516499D02*
X525892D01*
X578366Y198251D02*
X580387Y196231D01*
X528366Y198251D02*
X530386Y196231D01*
X533997D01*
Y195862D02*
X547016D01*
X483997D02*
X496978D01*
X478366Y198251D02*
X480386Y196231D01*
X428366Y198251D02*
X430386Y196231D01*
X480386D02*
X483997D01*
X433997Y195862D02*
X446978D01*
X430386Y196231D02*
X433997D01*
X369888Y199279D02*
X373228Y202619D01*
X361035D02*
X364811Y198843D01*
X317930Y202619D02*
X321270Y199279D01*
X326690Y199186D02*
X330123Y202619D01*
X414917D02*
X418257Y199279D01*
X423770D02*
X427110Y202619D01*
X371812D02*
X375152Y199279D01*
X219020D02*
X222360Y202619D01*
X220944D02*
X224284Y199279D01*
X175915Y199279D02*
X179255Y202619D01*
X272901Y199279D02*
X276241Y202619D01*
X315966Y199237D02*
X319347Y202619D01*
X264049D02*
X267389Y199279D01*
X274825Y202619D02*
X281213Y196231D01*
X237156Y195862D02*
X243913Y202619D01*
X228567Y198050D02*
X233136Y202619D01*
X231720D02*
X238476Y195862D01*
X379001Y197615D02*
X384005Y202619D01*
X307154D02*
X312773Y196999D01*
X280630Y196231D02*
X287018Y202619D01*
X183643Y196231D02*
X190031Y202619D01*
X188615D02*
X195371Y195862D01*
X177838Y202619D02*
X184595Y195862D01*
X210167Y202619D02*
X214293Y198493D01*
X194051Y195862D02*
X200807Y202619D01*
X194051Y195862D02*
X200807Y202619D01*
X164532Y198672D02*
X168478Y202619D01*
X123957D02*
X128021Y198554D01*
X113180Y202619D02*
X116520Y199279D01*
X122033D02*
X125373Y202619D01*
X167062D02*
X170402Y199279D01*
X166499D02*
X175892D01*
X70075Y202619D02*
X73415Y199279D01*
X78123Y198473D02*
X82268Y202619D01*
X4381Y200166D02*
X6834Y202619D01*
X68152Y199279D02*
X71492Y202619D01*
X66499Y199279D02*
X75892D01*
X156286Y202619D02*
X162339Y196565D01*
X140169Y195862D02*
X146926Y202619D01*
X130074Y196543D02*
X136150Y202619D01*
X80851D02*
X87608Y195862D01*
X21999Y196231D02*
X28386Y202619D01*
X26970D02*
X33358Y196231D01*
X16194Y202619D02*
X22582Y196231D01*
X59299Y202619D02*
X63846Y198072D01*
X32775Y196231D02*
X39163Y202619D01*
X366499Y199279D02*
X375892D01*
X416499D02*
X425892D01*
X266499D02*
X275892D01*
X316499D02*
X325892D01*
X378366Y198251D02*
X380386Y196231D01*
X330386D02*
X333997D01*
X380386D02*
X383997D01*
X328366Y198251D02*
X330386Y196231D01*
X278366Y198251D02*
X280386Y196231D01*
X283997D01*
X216499Y199279D02*
X225892D01*
X116499D02*
X125892D01*
X180386Y196231D02*
X183997D01*
X228366Y198251D02*
X230386Y196231D01*
X178366Y198251D02*
X180386Y196231D01*
X230386Y196231D02*
X233997D01*
Y195862D02*
X246978D01*
X183997D02*
X196940D01*
X80386Y196231D02*
X83997D01*
X128366Y198251D02*
X130386Y196231D01*
X78366Y198251D02*
X80386Y196231D01*
X25997Y196231D02*
X33997D01*
X130386Y196231D02*
X133996D01*
X15536Y196231D02*
X25536D01*
X796940Y195278D02*
X804280Y202619D01*
X748982D02*
X758695Y192906D01*
X696978Y192303D02*
X707294Y202619D01*
X695101D02*
X706735Y190985D01*
X651996Y202619D02*
X660194Y194420D01*
X656261Y190487D02*
X664025Y198251D01*
X646656Y195862D02*
X653412Y202619D01*
X630443D02*
X637200Y195862D01*
X635879D02*
X642636Y202619D01*
X598114D02*
X608253Y192479D01*
X587338Y202619D02*
X594094Y195862D01*
X633997D02*
X646978D01*
X583997D02*
X596940D01*
X756275Y190487D02*
X764039Y198251D01*
X792088Y202619D02*
X805459Y189247D01*
X747016Y188459D02*
X761175Y202619D01*
X698490Y183039D02*
X718070Y202619D01*
X706237Y190487D02*
X714001Y198251D01*
X747016Y182651D02*
Y195862D01*
X696978Y183039D02*
Y195862D01*
X641219Y202619D02*
X655277Y188561D01*
X646978Y185408D02*
X664188Y202619D01*
X596940Y189252D02*
X610307Y202619D01*
X606261Y190487D02*
X614025Y198251D01*
X646978Y182651D02*
Y195862D01*
X596940Y182785D02*
Y195862D01*
X495787D02*
X502544Y202619D01*
X501127D02*
X509760Y193986D01*
X479575Y202619D02*
X486331Y195862D01*
X447246Y202619D02*
X457819Y192045D01*
X547016Y193209D02*
X556425Y202619D01*
X556261Y190487D02*
X564025Y198251D01*
X544233Y202619D02*
X556313Y190539D01*
X404141Y202619D02*
X411267Y195493D01*
X396940Y194001D02*
X405557Y202619D01*
X388024Y195862D02*
X394781Y202619D01*
X382588D02*
X389345Y195862D01*
X383997D02*
X396940D01*
X350259Y202619D02*
X359326Y193552D01*
X496978Y186276D02*
X513320Y202619D01*
X547608Y183025D02*
X567202Y202619D01*
X490351D02*
X505233Y187736D01*
X456261Y190487D02*
X464025Y198251D01*
X506261Y190487D02*
X514025Y198251D01*
X446978Y190158D02*
X459439Y202619D01*
X393364D02*
X405908Y190075D01*
X396940Y183225D02*
X416333Y202619D01*
X347016Y187183D02*
X362452Y202619D01*
X406261Y190487D02*
X414025Y198251D01*
X396940Y182556D02*
Y195862D01*
X356261Y190487D02*
X364025Y198251D01*
X747016Y193808D02*
X755248Y185577D01*
X696978Y183039D02*
X705210D01*
X596940Y193016D02*
X605233Y184723D01*
X705210Y183039D02*
Y188013D01*
X755248Y182651D02*
Y188013D01*
X696978Y189965D02*
X703904Y183039D01*
X655234Y182651D02*
Y188013D01*
X747016Y182651D02*
X755248D01*
X751983D02*
X755248Y185915D01*
X646978Y182651D02*
X655234D01*
X555234Y183025D02*
Y188013D01*
X605233Y182785D02*
Y188013D01*
X547016Y183025D02*
Y195862D01*
X601249Y182785D02*
X605233Y186769D01*
X646978Y186084D02*
X650411Y182651D01*
X596940Y182785D02*
X605233D01*
X446978Y192110D02*
X455233Y183855D01*
X547016Y189059D02*
X553050Y183025D01*
X547016D02*
X555234D01*
X353634D02*
X355233Y184624D01*
X347016Y183025D02*
X355233D01*
X496978Y182651D02*
Y195862D01*
X505233Y182651D02*
Y188013D01*
X455233Y182530D02*
Y188013D01*
X496978Y185215D02*
X499543Y182651D01*
X504128D02*
X505233Y183755D01*
X496978Y182651D02*
X505233D01*
X405233Y182556D02*
Y188013D01*
X446978Y182530D02*
Y195862D01*
X396940Y188267D02*
X402650Y182556D01*
X446978Y182530D02*
X455233D01*
X450126D02*
X455233Y187637D01*
X396940Y182556D02*
X405233D01*
X339483Y202619D02*
X346239Y195862D01*
X344919D02*
X351676Y202619D01*
X334143Y195862D02*
X340899Y202619D01*
X296378D02*
X307385Y191611D01*
X328707Y202619D02*
X335463Y195862D01*
X333997D02*
X347016D01*
X296978Y191026D02*
X308570Y202619D01*
X285601D02*
X292358Y195862D01*
X291038D02*
X297794Y202619D01*
X253272D02*
X260832Y195058D01*
X283997Y195862D02*
X296978D01*
X246978Y194908D02*
X254689Y202619D01*
X199391D02*
X208892Y193118D01*
X256261Y190487D02*
X264025Y198251D01*
X306261Y190487D02*
X314025Y198251D01*
X242496Y202619D02*
X255582Y189533D01*
X246978Y184131D02*
X265465Y202619D01*
X347016Y195085D02*
X355233Y186868D01*
X347016Y183025D02*
Y195862D01*
X296978Y182516D02*
Y195862D01*
X206261Y190487D02*
X214025Y198251D01*
X196940Y187975D02*
X211584Y202619D01*
X156261Y190487D02*
X164025Y198251D01*
X196940Y182787D02*
Y195862D01*
X246978Y182596D02*
Y195862D01*
X196940Y194293D02*
X205233Y186000D01*
X147016Y191932D02*
X157702Y202619D01*
X145509D02*
X156951Y191177D01*
X134733Y202619D02*
X141490Y195862D01*
X96978Y195776D02*
X103820Y202619D01*
X133996Y195862D02*
X147016D01*
X102404Y202619D02*
X110398Y194624D01*
X83997Y195862D02*
X96978D01*
X86288D02*
X93044Y202619D01*
X48523D02*
X58457Y192684D01*
X43182Y195862D02*
X49939Y202619D01*
X33997Y195862D02*
X46978D01*
X37746Y202619D02*
X44503Y195862D01*
X5417Y202619D02*
X15228Y192808D01*
X91628Y202619D02*
X105348Y188899D01*
X96978Y185000D02*
X114597Y202619D01*
X56261Y190487D02*
X64025Y198251D01*
X106261Y190487D02*
X114025Y198251D01*
X147016Y183118D02*
Y195862D01*
X96978Y182985D02*
Y195862D01*
X4381Y189390D02*
X17610Y202619D01*
X46978Y188881D02*
X60715Y202619D01*
X4381Y161381D02*
Y202619D01*
X46978Y193387D02*
X55234Y185131D01*
X46978Y182231D02*
Y195862D01*
X15228Y186231D02*
Y195710D01*
X147016Y190336D02*
X154233Y183118D01*
X148978D02*
X155841Y189981D01*
X155234Y183118D02*
Y188013D01*
X147016Y183118D02*
X155234D01*
X355233Y183025D02*
Y188013D01*
X305233Y182516D02*
Y188013D01*
X296978Y191242D02*
X305233Y182986D01*
X299245Y182516D02*
X305274Y188546D01*
X347016Y184309D02*
X348301Y183025D01*
X296978Y182516D02*
X305233D01*
X246978Y182596D02*
X255233D01*
X246978Y187360D02*
X251742Y182596D01*
X255233D02*
Y188013D01*
X205233Y182787D02*
Y188013D01*
X196940Y183517D02*
X197670Y182787D01*
X202528D02*
X205233Y185492D01*
X196940Y182787D02*
X205233D01*
X105233Y182985D02*
Y188013D01*
X96978Y182985D02*
X105233D01*
X96978Y186492D02*
X100485Y182985D01*
X51104Y182231D02*
X55234Y186360D01*
X12832Y187064D02*
X15228Y189460D01*
X55234Y182231D02*
Y188013D01*
X4381Y192878D02*
X10136Y187124D01*
X46978Y182231D02*
X55234D01*
X4381Y182102D02*
X6501Y179982D01*
X4381Y178614D02*
X6306Y180538D01*
X17996Y165354D02*
Y166826D01*
X15228D02*
X17996D01*
X19024Y162879D02*
X20521Y161381D01*
X4381D02*
X20521D01*
X15228Y166826D02*
Y177770D01*
X4381Y167837D02*
X13946Y177402D01*
X9352Y177131D02*
X15228Y171255D01*
X8702Y161381D02*
X15228Y167908D01*
X4381Y171325D02*
X14325Y161381D01*
D11*
X1575502Y694622D02*
G03*
X1560104Y701000I-15398J-15398D01*
G01*
X1579820Y684197D02*
G03*
X1575502Y694622I-14743J0D01*
G01*
X1459154Y701000D02*
X1560104D01*
X1579820Y598864D02*
Y684197D01*
X46764Y696000D02*
Y702913D01*
X1573724Y600388D02*
Y602928D01*
Y600388D02*
X1574500Y599612D01*
X1579500Y533996D02*
Y597466D01*
X1579528Y597495D01*
Y598572D01*
X1579820Y598864D01*
X1574500Y533996D02*
Y599612D01*
X1573724Y602928D02*
X1574210Y602442D01*
X1574500Y533996D02*
X1574500Y533996D01*
X146765Y696001D02*
Y702914D01*
X247052Y696400D02*
Y702913D01*
X346779Y696001D02*
Y702914D01*
X447053Y696400D02*
Y702914D01*
X546779Y696000D02*
Y702913D01*
X647053Y696400D02*
Y702914D01*
X746779Y696000D02*
Y702913D01*
X847053Y696400D02*
Y702913D01*
X1047053Y696400D02*
Y702913D01*
X946779Y696000D02*
Y702913D01*
X1146078Y696175D02*
X1146548D01*
X1146778Y696405D01*
Y703675D01*
X1247282Y696405D02*
Y703675D01*
X1247052Y696175D02*
X1247282Y696405D01*
X1446292Y696000D02*
X1446522Y696230D01*
Y703500D01*
X1346056Y696230D02*
Y703500D01*
X1345826Y696000D02*
X1346056Y696230D01*
X1345356Y696000D02*
X1345826D01*
X1579820Y341864D02*
Y357866D01*
X1573724Y343388D02*
Y345928D01*
Y343388D02*
X1574500Y342612D01*
X1579500Y276996D02*
Y340466D01*
X1579528Y340495D01*
Y341572D01*
X1579820Y341864D01*
X1574500Y276996D02*
Y342612D01*
X1573724Y345928D02*
X1574210Y345442D01*
X1574500Y276996D02*
X1574500Y276996D01*
X89763Y439400D02*
Y445913D01*
X164488Y439000D02*
Y445913D01*
X239762Y439400D02*
Y445913D01*
X314464Y439000D02*
Y445913D01*
X389762Y439400D02*
Y445913D01*
X464474Y439000D02*
Y445913D01*
X539762Y439400D02*
Y445913D01*
X614489Y439000D02*
Y445913D01*
X689762Y439400D02*
Y445913D01*
X764489Y439000D02*
Y445913D01*
X839762Y439400D02*
Y445913D01*
X914488Y439000D02*
Y445913D01*
X989762Y439400D02*
Y445913D01*
X1139789Y439400D02*
Y445913D01*
X1064488Y439000D02*
Y445913D01*
X1213788Y439175D02*
X1214258D01*
X1214488Y439405D01*
Y446675D01*
X1289992Y439405D02*
Y446675D01*
X1289762Y439175D02*
X1289992Y439405D01*
X1439002Y439000D02*
X1439232Y439230D01*
Y446500D01*
X1363766Y439230D02*
Y446500D01*
X1363536Y439000D02*
X1363766Y439230D01*
X1363066Y439000D02*
X1363536D01*
X1579820Y84864D02*
Y100866D01*
X1573724Y86388D02*
Y88928D01*
Y86388D02*
X1574500Y85612D01*
X1579500Y19996D02*
Y83466D01*
X1579528Y83495D01*
Y84572D01*
X1579820Y84864D01*
X1574500Y19996D02*
Y85612D01*
X1573724Y88928D02*
X1574210Y88442D01*
X1574500Y19996D02*
X1574500Y19996D01*
X39488Y182000D02*
Y188913D01*
X89488Y182000D02*
Y188913D01*
X139762Y182400D02*
Y188913D01*
X189488Y182000D02*
Y188913D01*
X239762Y182400D02*
Y188913D01*
X489488Y182000D02*
Y188913D01*
X539762Y182400D02*
Y188913D01*
X289488Y182000D02*
Y188913D01*
X339762Y182400D02*
Y188913D01*
X389488Y182000D02*
Y188913D01*
X439762Y182400D02*
Y188913D01*
X589488Y182000D02*
Y188913D01*
X639762Y182400D02*
Y188913D01*
X689464Y182000D02*
Y188913D01*
X739738Y182400D02*
Y188913D01*
X789489Y182000D02*
Y188913D01*
X839763Y182400D02*
Y188913D01*
X889489Y182000D02*
Y188913D01*
X939762Y182400D02*
Y188913D01*
X989489Y182000D02*
Y188913D01*
X1039763Y182400D02*
Y188913D01*
X1089488Y182000D02*
Y188913D01*
X1139762Y182400D02*
Y188913D01*
X1239762Y182400D02*
Y188913D01*
X1189488Y182000D02*
Y188913D01*
X1288788Y182175D02*
X1289258D01*
X1289488Y182405D01*
Y189675D01*
X1339992Y182405D02*
Y189675D01*
X1339762Y182175D02*
X1339992Y182405D01*
X1439002Y182000D02*
X1439232Y182230D01*
Y189500D01*
X1388728Y182230D02*
Y189500D01*
X1388498Y182000D02*
X1388728Y182230D01*
X1388028Y182000D02*
X1388498D01*
D12*
X1569500Y599443D02*
G03*
X1568898Y600896I-2055J0D01*
G01*
X1567882Y603349D02*
G03*
X1568898Y600896I3469J0D01*
G01*
X1567882Y666015D02*
G03*
X1563818Y675826I-13875J0D01*
G01*
D02*
G03*
X1558299Y678112I-5519J-5519D01*
G01*
X1561278Y673540D02*
G03*
X1557599Y675064I-3679J-3679D01*
G01*
X1564500Y665761D02*
G03*
X1561278Y673540I-11000J0D01*
G01*
X1216255Y703675D02*
X1228816D01*
X1188073Y675493D02*
X1216255Y703675D01*
X1133400Y675493D02*
X1188073D01*
X1216629Y709786D02*
X1233944D01*
X1185638Y678795D02*
X1216629Y709786D01*
X1139848Y678795D02*
X1185638D01*
X1114109Y702913D02*
X1128816D01*
X1085927Y674731D02*
X1114109Y702913D01*
X1033401Y674731D02*
X1085927D01*
X1115940Y709786D02*
X1133182D01*
X1084187Y678033D02*
X1115940Y709786D01*
X1039849Y678033D02*
X1084187D01*
X1015595Y702913D02*
X1028817D01*
X987413Y674731D02*
X1015595Y702913D01*
X933401Y674731D02*
X987413D01*
X1016011Y709786D02*
X1033182D01*
X984258Y678033D02*
X1016011Y709786D01*
X939849Y678033D02*
X984258D01*
X1332678Y675318D02*
X1374334D01*
X1402516Y703500D01*
X1339126Y678620D02*
X1371032D01*
X1402198Y709786D01*
X1305155Y702913D02*
X1328817D01*
X1276973Y674731D02*
X1305155Y702913D01*
X1233362Y674731D02*
X1276973D01*
X1328817Y709786D02*
X1333182D01*
X1305521Y709786D02*
X1328817D01*
X1273768Y678033D02*
X1305521Y709786D01*
X1239810Y678033D02*
X1273768D01*
X914249Y702913D02*
X928817D01*
X886067Y674731D02*
X914249Y702913D01*
X833401Y674731D02*
X886067D01*
X915131Y709786D02*
X933182D01*
X883378Y678033D02*
X915131Y709786D01*
X839849Y678033D02*
X883378D01*
X111943Y702914D02*
X128817D01*
X33386Y674731D02*
X83760D01*
X111943Y702914D01*
X123789Y709786D02*
X123789D01*
X113402D02*
X123789D01*
X123789Y709787D01*
X81649Y678033D02*
X113402Y709786D01*
X133182Y709787D02*
X137817Y705152D01*
X123789Y709787D02*
X133182D01*
X39834Y678033D02*
X81649D01*
X213717Y702913D02*
X228817D01*
X185536Y674732D02*
X213717Y702913D01*
X133387Y674732D02*
X185536D01*
X214494Y709786D02*
X233182D01*
X182742Y678034D02*
X214494Y709786D01*
X139835Y678034D02*
X182742D01*
X310892Y702914D02*
X328817D01*
X282709Y674731D02*
X310892Y702914D01*
X233400Y674731D02*
X282709D01*
X328108Y709787D02*
X333182D01*
X312514Y709786D02*
X328108D01*
X280762Y678033D02*
X312514Y709786D01*
X239848Y678033D02*
X280762D01*
X414632Y702914D02*
X428817D01*
X386450Y674732D02*
X414632Y702914D01*
X333401Y674732D02*
X386450D01*
X416424Y709786D02*
X433182D01*
X384672Y678034D02*
X416424Y709786D01*
X339849Y678034D02*
X384672D01*
X515723Y702913D02*
X528817D01*
X487542Y674732D02*
X515723Y702913D01*
X433401Y674732D02*
X487542D01*
X518024Y709786D02*
X533182D01*
X486272Y678034D02*
X518024Y709786D01*
X439849Y678034D02*
X486272D01*
X616308Y702914D02*
X628816D01*
X588125Y674731D02*
X616308Y702914D01*
X533401Y674731D02*
X588125D01*
X617846Y709786D02*
X633182D01*
X586093Y678033D02*
X617846Y709786D01*
X539849Y678033D02*
X586093D01*
X717145Y702913D02*
X728817D01*
X688963Y674731D02*
X717145Y702913D01*
X633400Y674731D02*
X688963D01*
X718430Y709786D02*
X733182D01*
X686677Y678033D02*
X718430Y709786D01*
X639848Y678033D02*
X686677D01*
X813919Y702913D02*
X828817D01*
X785737Y674731D02*
X813919Y702913D01*
X733401Y674731D02*
X785737D01*
X814950Y709786D02*
X833182D01*
X783197Y678033D02*
X814950Y709786D01*
X739849Y678033D02*
X783197D01*
X1402198Y709786D02*
X1433008D01*
X37042Y680826D02*
Y688500D01*
X28764Y679353D02*
X33386Y674731D01*
X28764Y679353D02*
Y687913D01*
X37042Y680826D02*
X39834Y678033D01*
X1569500Y597848D02*
Y599443D01*
X1567882Y603349D02*
Y666015D01*
X1569500Y533996D02*
Y597848D01*
X1564500Y533996D02*
Y665761D01*
X1440298Y678112D02*
X1558299D01*
X1437056Y681354D02*
X1440298Y678112D01*
X1437056Y681354D02*
Y688500D01*
X1428056Y680448D02*
Y688500D01*
Y680448D02*
X1433440Y675064D01*
Y675064D02*
X1557599D01*
X1237018Y680826D02*
Y688500D01*
X1337817Y703500D02*
Y705151D01*
X1333182Y709786D02*
X1337817Y705151D01*
X1228740Y679353D02*
Y687913D01*
Y679353D02*
X1233362Y674731D01*
X1237018Y680826D02*
X1239810Y678033D01*
X1037056Y680826D02*
Y688500D01*
X1137816Y703500D02*
Y705151D01*
X1133182Y709786D02*
X1137816Y705151D01*
X1028779Y679353D02*
Y687913D01*
Y679353D02*
X1033401Y674731D01*
X1037056Y680826D02*
X1039849Y678033D01*
X837056Y680826D02*
Y688500D01*
X937817Y703500D02*
Y705151D01*
X933182Y709786D02*
X937817Y705151D01*
X828779Y679353D02*
Y687913D01*
Y679353D02*
X833401Y674731D01*
X837056Y680826D02*
X839849Y678033D01*
X637056Y680826D02*
Y688500D01*
X737817Y703500D02*
Y705151D01*
X733182Y709786D02*
X737817Y705151D01*
X628778Y679353D02*
Y687913D01*
Y679353D02*
X633400Y674731D01*
X637056Y680826D02*
X639848Y678033D01*
X437056Y680826D02*
Y688500D01*
X537817Y703500D02*
Y705151D01*
X533182Y709786D02*
X537817Y705151D01*
X428779Y679354D02*
Y687914D01*
Y679354D02*
X433401Y674732D01*
X437056Y680826D02*
X439849Y678034D01*
X237056Y680826D02*
Y688500D01*
X337817Y703501D02*
Y705152D01*
X333182Y709787D02*
X337817Y705152D01*
X228778Y679353D02*
Y687913D01*
Y679353D02*
X233400Y674731D01*
X237056Y680826D02*
X239848Y678033D01*
X137817Y703501D02*
Y705152D01*
X1433008Y709786D02*
X1437056Y705738D01*
X1233944Y709786D02*
X1237816Y705913D01*
X137042Y680826D02*
X139835Y678034D01*
X128765Y679354D02*
X133387Y674732D01*
X128765Y679354D02*
Y687914D01*
X233182Y709786D02*
X237817Y705151D01*
Y703500D02*
Y705151D01*
X137042Y680826D02*
Y688501D01*
X337056Y680826D02*
X339849Y678034D01*
X328779Y679354D02*
X333401Y674732D01*
X328779Y679354D02*
Y687914D01*
X433182Y709786D02*
X437817Y705152D01*
Y703500D02*
Y705152D01*
X337056Y680826D02*
Y688501D01*
X537056Y680826D02*
X539849Y678033D01*
X528779Y679353D02*
X533401Y674731D01*
X528779Y679353D02*
Y687913D01*
X633182Y709786D02*
X637817Y705152D01*
Y703500D02*
Y705152D01*
X537056Y680826D02*
Y688500D01*
X737056Y680826D02*
X739849Y678033D01*
X728779Y679353D02*
X733401Y674731D01*
X728779Y679353D02*
Y687913D01*
X833182Y709786D02*
X837817Y705151D01*
Y703500D02*
Y705151D01*
X737056Y680826D02*
Y688500D01*
X937056Y680826D02*
Y688500D01*
X1137056Y681588D02*
Y688500D01*
X1037817Y703500D02*
Y705151D01*
X1033182Y709786D02*
X1037817Y705151D01*
X928779Y679353D02*
Y687913D01*
Y679353D02*
X933401Y674731D01*
X937056Y680826D02*
X939849Y678033D01*
X1128778Y680115D02*
Y688675D01*
Y680115D02*
X1133400Y675493D01*
X1137056Y681588D02*
X1139848Y678795D01*
X1237816Y703675D02*
Y705913D01*
X1437056Y703500D02*
Y705738D01*
X1337056Y680690D02*
X1339126Y678620D01*
X1337056Y680690D02*
Y688500D01*
X1328056Y679940D02*
X1332678Y675318D01*
X1328056Y679940D02*
Y688500D01*
X1402516Y703500D02*
X1428056D01*
X1569500Y342443D02*
G03*
X1568898Y343896I-2055J0D01*
G01*
X1567882Y346349D02*
G03*
X1568898Y343896I3469J0D01*
G01*
X1567882Y409015D02*
G03*
X1563818Y418826I-13875J0D01*
G01*
D02*
G03*
X1558299Y421112I-5519J-5519D01*
G01*
X1561278Y416540D02*
G03*
X1557599Y418064I-3679J-3679D01*
G01*
X1564500Y408761D02*
G03*
X1561278Y416540I-11000J0D01*
G01*
X132233Y445913D02*
X146526D01*
X104051Y417732D02*
X132233Y445913D01*
X134787Y452786D02*
X150892D01*
X103035Y421034D02*
X134787Y452786D01*
X179050Y417731D02*
X207232Y445913D01*
X221526D01*
X178034Y421033D02*
X209787Y452786D01*
X254050Y417732D02*
X261774Y425455D01*
X282225Y445913D02*
X296526D01*
X259957Y423645D02*
X282225Y445913D01*
X284787Y452786D02*
X300892D01*
X253034Y421034D02*
X284787Y452786D01*
X357209Y445913D02*
X371526D01*
X329026Y417731D02*
X357209Y445913D01*
X328010Y421033D02*
X359763Y452786D01*
X375892D01*
X432270Y445913D02*
X446526D01*
X404089Y417732D02*
X432270Y445913D01*
X403073Y421034D02*
X434825Y452786D01*
X507218Y445913D02*
X521526D01*
X479036Y417731D02*
X507218Y445913D01*
X509773Y452786D02*
X525892D01*
X478020Y421033D02*
X509773Y452786D01*
X582233Y445913D02*
X596527D01*
X554050Y417731D02*
X582233Y445913D01*
X584787Y452786D02*
X600892D01*
X553034Y421033D02*
X584787Y452786D01*
X657233Y445913D02*
X671526D01*
X629051Y417731D02*
X657233Y445913D01*
X628035Y421033D02*
X659787Y452786D01*
X732233Y445913D02*
X746527D01*
X704051Y417731D02*
X732233Y445913D01*
X703035Y421033D02*
X734787Y452786D01*
X807233Y445913D02*
X821526D01*
X779051Y417731D02*
X807233Y445913D01*
X778035Y421033D02*
X809787Y452786D01*
X882232Y445913D02*
X896526D01*
X854050Y417731D02*
X882232Y445913D01*
X884787Y452786D02*
X900892D01*
X853034Y421033D02*
X884787Y452786D01*
X957232Y445913D02*
X971526D01*
X929050Y417731D02*
X957232Y445913D01*
X959787Y452786D02*
X975892D01*
X928034Y421033D02*
X959787Y452786D01*
X1032232Y445913D02*
X1046526D01*
X1004050Y417731D02*
X1032232Y445913D01*
X1003034Y421033D02*
X1034787Y452786D01*
X1107233Y445913D02*
X1121553D01*
X1079050Y417731D02*
X1107233Y445913D01*
X1078034Y421033D02*
X1109787Y452786D01*
X1182259Y445913D02*
X1196526D01*
X1154077Y417731D02*
X1182259Y445913D01*
X1153061Y421033D02*
X1184813Y452786D01*
X1257232Y446675D02*
X1271526D01*
X1229050Y418493D02*
X1257232Y446675D01*
X1228034Y421795D02*
X1259025Y452786D01*
X1276654D01*
X1332194Y445913D02*
X1346526D01*
X1304012Y417731D02*
X1332194Y445913D01*
X1302996Y421033D02*
X1334749Y452786D01*
X1406510Y446500D02*
X1420766D01*
X1378328Y418318D02*
X1406510Y446500D01*
X1377312Y421620D02*
X1408478Y452786D01*
X1569500Y340848D02*
Y342443D01*
X1567882Y346349D02*
Y409015D01*
X1569500Y276996D02*
Y340848D01*
X1564500Y276996D02*
Y408761D01*
X1433008Y421112D02*
X1558299D01*
X1429766Y424354D02*
X1433008Y421112D01*
X1429766Y424354D02*
Y431500D01*
X1420766Y423448D02*
Y431500D01*
Y423448D02*
X1426150Y418064D01*
X1557599D01*
X1279728Y423826D02*
Y431500D01*
X1355526Y446500D02*
Y448151D01*
X1350892Y452786D02*
X1355526Y448151D01*
X1334749Y452786D02*
X1350892D01*
X1271450Y422353D02*
Y430913D01*
Y422353D02*
X1276072Y417731D01*
X1279728Y423826D02*
X1282520Y421033D01*
X1302996D01*
X1276072Y417731D02*
X1304012D01*
X1129792Y423826D02*
Y431500D01*
X1205526Y446500D02*
Y448151D01*
X1200892Y452786D02*
X1205526Y448151D01*
X1184813Y452786D02*
X1200892D01*
X1121515Y422353D02*
Y430913D01*
Y422353D02*
X1126137Y417731D01*
X1129792Y423826D02*
X1132585Y421033D01*
X1153061D01*
X1126137Y417731D02*
X1154077D01*
X979766Y423826D02*
Y431500D01*
X1055526Y446500D02*
Y448151D01*
X1050892Y452786D02*
X1055526Y448151D01*
X1034787Y452786D02*
X1050892D01*
X971488Y422353D02*
Y430913D01*
Y422353D02*
X976110Y417731D01*
X979766Y423826D02*
X982558Y421033D01*
X1003034D01*
X976110Y417731D02*
X1004050D01*
X829766Y423825D02*
Y431500D01*
X905526Y446500D02*
Y448151D01*
X900892Y452786D02*
X905526Y448151D01*
X821488Y422353D02*
Y430913D01*
Y422353D02*
X826110Y417731D01*
X829766Y423825D02*
X832558Y421033D01*
X853034D01*
X826110Y417731D02*
X854050D01*
X679766Y423826D02*
Y431500D01*
X755527Y446500D02*
Y448151D01*
X750892Y452786D02*
X755527Y448151D01*
X734787Y452786D02*
X750892D01*
X671488Y422353D02*
Y430913D01*
Y422353D02*
X676111Y417731D01*
X679766Y423826D02*
X682559Y421033D01*
X703035D01*
X676111Y417731D02*
X704051D01*
X529766Y423825D02*
Y431500D01*
X605527Y446500D02*
Y448151D01*
X600892Y452786D02*
X605527Y448151D01*
X521488Y422353D02*
Y430913D01*
Y422353D02*
X526110Y417731D01*
X529766Y423825D02*
X532558Y421033D01*
X553034D01*
X526110Y417731D02*
X554050D01*
X379804Y423826D02*
Y431500D01*
X455526Y446500D02*
Y448151D01*
X450892Y452786D02*
X455526Y448151D01*
X434825Y452786D02*
X450892D01*
X371526Y422354D02*
Y430914D01*
Y422354D02*
X376148Y417732D01*
X379804Y423826D02*
X382597Y421034D01*
X403073D01*
X376148Y417732D02*
X404089D01*
X229766Y423826D02*
Y431500D01*
X305526Y446500D02*
Y448151D01*
X300892Y452786D02*
X305526Y448151D01*
X221488Y422354D02*
Y430914D01*
Y422354D02*
X226110Y417732D01*
X229766Y423826D02*
X232558Y421034D01*
X253034D01*
X226110Y417732D02*
X254050D01*
X79767Y423826D02*
Y431500D01*
X155526Y446500D02*
Y448151D01*
X150892Y452786D02*
X155526Y448151D01*
X71489Y422354D02*
Y430914D01*
Y422354D02*
X76111Y417732D01*
X79767Y423826D02*
X82559Y421034D01*
X103035D01*
X76111Y417732D02*
X104051D01*
X1425718Y452786D02*
X1429766Y448738D01*
X1408478Y452786D02*
X1425718D01*
X1276654D02*
X1280526Y448913D01*
X80527Y446500D02*
Y448151D01*
X151110Y417731D02*
X179050D01*
X157558Y421033D02*
X178034D01*
X154766Y423825D02*
X157558Y421033D01*
X146488Y422353D02*
X151110Y417731D01*
X146488Y422353D02*
Y430913D01*
X209787Y452786D02*
X225892D01*
X230526Y448151D01*
Y446500D02*
Y448151D01*
X154766Y423825D02*
Y431500D01*
X301086Y417731D02*
X329026D01*
X307534Y421033D02*
X328010D01*
X304742Y423825D02*
X307534Y421033D01*
X296464Y422353D02*
X301086Y417731D01*
X296464Y422353D02*
Y430913D01*
X375892Y452786D02*
X380526Y448151D01*
Y446500D02*
Y448151D01*
X304742Y423825D02*
Y431500D01*
X451096Y417731D02*
X479036D01*
X457544Y421033D02*
X478020D01*
X454752Y423826D02*
X457544Y421033D01*
X446474Y422353D02*
X451096Y417731D01*
X446474Y422353D02*
Y430913D01*
X525892Y452786D02*
X530526Y448151D01*
Y446500D02*
Y448151D01*
X454752Y423826D02*
Y431500D01*
X601111Y417731D02*
X629051D01*
X607559Y421033D02*
X628035D01*
X604766Y423826D02*
X607559Y421033D01*
X596489Y422353D02*
X601111Y417731D01*
X596489Y422353D02*
Y430913D01*
X659787Y452786D02*
X675892D01*
X680526Y448151D01*
Y446500D02*
Y448151D01*
X604766Y423826D02*
Y431500D01*
X751111Y417731D02*
X779051D01*
X757559Y421033D02*
X778035D01*
X754766Y423826D02*
X757559Y421033D01*
X746489Y422353D02*
X751111Y417731D01*
X746489Y422353D02*
Y430913D01*
X809787Y452786D02*
X825892D01*
X830526Y448151D01*
Y446500D02*
Y448151D01*
X754766Y423826D02*
Y431500D01*
X901110Y417731D02*
X929050D01*
X907558Y421033D02*
X928034D01*
X904766Y423826D02*
X907558Y421033D01*
X896488Y422353D02*
X901110Y417731D01*
X896488Y422353D02*
Y430913D01*
X975892Y452786D02*
X980526Y448151D01*
Y446500D02*
Y448151D01*
X904766Y423826D02*
Y431500D01*
X1054766Y423826D02*
Y431500D01*
X1204766Y424588D02*
Y431500D01*
X1130553Y446500D02*
Y448151D01*
X1125918Y452786D02*
X1130553Y448151D01*
X1109787Y452786D02*
X1125918D01*
X1046488Y422353D02*
Y430913D01*
Y422353D02*
X1051110Y417731D01*
X1054766Y423826D02*
X1057558Y421033D01*
X1078034D01*
X1051110Y417731D02*
X1079050D01*
X1196488Y423115D02*
Y431675D01*
Y423115D02*
X1201110Y418493D01*
X1204766Y424588D02*
X1207558Y421795D01*
X1280526Y446675D02*
Y448913D01*
X1207558Y421795D02*
X1228034D01*
X1201110Y418493D02*
X1229050D01*
X1350388Y418318D02*
X1378328D01*
X1356836Y421620D02*
X1377312D01*
X1429766Y446500D02*
Y448738D01*
X1354766Y423690D02*
X1356836Y421620D01*
X1354766Y423690D02*
Y431500D01*
X1345766Y422940D02*
X1350388Y418318D01*
X1345766Y422940D02*
Y431500D01*
X1569500Y85443D02*
G03*
X1568898Y86896I-2055J0D01*
G01*
X1567882Y89349D02*
G03*
X1568898Y86896I3469J0D01*
G01*
X1567882Y152015D02*
G03*
X1563818Y161826I-13875J0D01*
G01*
D02*
G03*
X1558299Y164112I-5519J-5519D01*
G01*
X1561278Y159540D02*
G03*
X1557599Y161064I-3679J-3679D01*
G01*
X1564500Y151762D02*
G03*
X1561278Y159540I-11000J0D01*
G01*
X1569500Y83848D02*
Y85443D01*
X1567882Y89349D02*
Y152015D01*
X1569500Y19996D02*
Y83848D01*
X1564500Y19996D02*
Y151762D01*
X1433008Y164112D02*
X1558299D01*
X1429766Y167354D02*
X1433008Y164112D01*
X1429766Y167354D02*
Y174500D01*
X1420766Y166448D02*
Y174500D01*
Y166448D02*
X1426150Y161064D01*
X1557599D01*
X1329728Y166826D02*
Y174500D01*
X1361736Y183777D02*
X1366872Y188913D01*
X1361736Y168455D02*
Y183777D01*
X1354012Y160731D02*
X1361736Y168455D01*
X1358688Y188013D02*
X1366461Y195786D01*
X1358688Y169725D02*
Y188013D01*
X1352996Y164033D02*
X1358688Y169725D01*
X1380488Y189500D02*
Y191151D01*
X1375854Y195786D02*
X1380488Y191151D01*
X1366461Y195786D02*
X1375854D01*
X1366872Y188913D02*
X1371488D01*
X1321450Y165353D02*
Y173913D01*
Y165353D02*
X1326072Y160731D01*
X1329728Y166826D02*
X1332520Y164033D01*
X1352996D01*
X1326072Y160731D02*
X1354012D01*
X1229766Y166826D02*
Y174500D01*
X1261774Y183777D02*
X1266910Y188913D01*
X1261774Y168455D02*
Y183777D01*
X1254050Y160731D02*
X1261774Y168455D01*
X1258726Y188013D02*
X1266499Y195786D01*
X1258726Y169725D02*
Y188013D01*
X1253034Y164033D02*
X1258726Y169725D01*
X1280526Y189500D02*
Y191151D01*
X1275892Y195786D02*
X1280526Y191151D01*
X1266499Y195786D02*
X1275892D01*
X1266910Y188913D02*
X1271526D01*
X1221488Y165353D02*
Y173913D01*
Y165353D02*
X1226110Y160731D01*
X1229766Y166826D02*
X1232558Y164033D01*
X1253034D01*
X1226110Y160731D02*
X1254050D01*
X1129766Y166826D02*
Y174500D01*
X1161774Y183777D02*
X1166910Y188913D01*
X1161774Y168455D02*
Y183777D01*
X1154050Y160731D02*
X1161774Y168455D01*
X1158726Y188013D02*
X1166499Y195786D01*
X1158726Y169725D02*
Y188013D01*
X1153034Y164033D02*
X1158726Y169725D01*
X1180526Y189500D02*
Y191151D01*
X1175892Y195786D02*
X1180526Y191151D01*
X1166499Y195786D02*
X1175892D01*
X1166910Y188913D02*
X1171526D01*
X1121488Y165353D02*
Y173913D01*
Y165353D02*
X1126110Y160731D01*
X1129766Y166826D02*
X1132558Y164033D01*
X1153034D01*
X1126110Y160731D02*
X1154050D01*
X1029766Y166826D02*
Y174500D01*
X1061774Y183777D02*
X1066910Y188913D01*
X1061774Y168455D02*
Y183777D01*
X1054050Y160731D02*
X1061774Y168455D01*
X1058726Y188013D02*
X1066499Y195786D01*
X1058726Y169725D02*
Y188013D01*
X1053034Y164033D02*
X1058726Y169725D01*
X1080526Y189500D02*
Y191151D01*
X1075892Y195786D02*
X1080526Y191151D01*
X1066499Y195786D02*
X1075892D01*
X1066910Y188913D02*
X1071526D01*
X1021488Y165353D02*
Y173913D01*
Y165353D02*
X1026110Y160731D01*
X1029766Y166826D02*
X1032558Y164033D01*
X1053034D01*
X1026110Y160731D02*
X1054050D01*
X929766Y166826D02*
Y174500D01*
X961774Y183777D02*
X966910Y188913D01*
X961774Y168455D02*
Y183777D01*
X954051Y160731D02*
X961774Y168455D01*
X958726Y188013D02*
X966499Y195786D01*
X958726Y169725D02*
Y188013D01*
X953035Y164033D02*
X958726Y169725D01*
X980527Y189500D02*
Y191151D01*
X975892Y195786D02*
X980527Y191151D01*
X966499Y195786D02*
X975892D01*
X966910Y188913D02*
X971527D01*
X921489Y165353D02*
Y173913D01*
Y165353D02*
X926111Y160731D01*
X929766Y166826D02*
X932559Y164033D01*
X953035D01*
X926111Y160731D02*
X954051D01*
X829766Y166826D02*
Y174500D01*
X861774Y183777D02*
X866910Y188913D01*
X861774Y168455D02*
Y183777D01*
X854051Y160731D02*
X861774Y168455D01*
X858726Y188013D02*
X866499Y195786D01*
X858726Y169725D02*
Y188013D01*
X853035Y164033D02*
X858726Y169725D01*
X880527Y189500D02*
Y191151D01*
X875892Y195786D02*
X880527Y191151D01*
X866499Y195786D02*
X875892D01*
X866910Y188913D02*
X871526D01*
X821488Y165353D02*
Y173913D01*
Y165353D02*
X826111Y160731D01*
X829766Y166826D02*
X832559Y164033D01*
X853035D01*
X826111Y160731D02*
X854051D01*
X729780Y166826D02*
Y174500D01*
X761788Y183777D02*
X766924Y188913D01*
X761788Y168455D02*
Y183777D01*
X754065Y160732D02*
X761788Y168455D01*
X758740Y188013D02*
X766513Y195786D01*
X758740Y169725D02*
Y188013D01*
X753049Y164034D02*
X758740Y169725D01*
X780541Y189500D02*
Y191152D01*
X775906Y195786D02*
X780541Y191152D01*
X766513Y195786D02*
X775906D01*
X766924Y188913D02*
X771541D01*
X721503Y165354D02*
Y173913D01*
Y165354D02*
X726125Y160732D01*
X729780Y166826D02*
X732573Y164034D01*
X753049D01*
X726125Y160732D02*
X754065D01*
X629766Y166826D02*
Y174500D01*
X661774Y183777D02*
X666910Y188913D01*
X661774Y168455D02*
Y183777D01*
X654051Y160732D02*
X661774Y168455D01*
X658726Y188013D02*
X666499Y195786D01*
X658726Y169725D02*
Y188013D01*
X653035Y164034D02*
X658726Y169725D01*
X680527Y189500D02*
Y191152D01*
X675892Y195786D02*
X680527Y191152D01*
X666499Y195786D02*
X675892D01*
X666910Y188913D02*
X671526D01*
X621488Y165354D02*
Y173913D01*
Y165354D02*
X626110Y160732D01*
X629766Y166826D02*
X632559Y164034D01*
X653035D01*
X626110Y160732D02*
X654051D01*
X529766Y166826D02*
Y174500D01*
X561774Y183777D02*
X566910Y188913D01*
X561774Y168455D02*
Y183777D01*
X554051Y160732D02*
X561774Y168455D01*
X558726Y188013D02*
X566499Y195786D01*
X558726Y169725D02*
Y188013D01*
X553035Y164034D02*
X558726Y169725D01*
X580527Y189500D02*
Y191152D01*
X575892Y195786D02*
X580527Y191152D01*
X566499Y195786D02*
X575892D01*
X566910Y188913D02*
X571527D01*
X521489Y165354D02*
Y173913D01*
Y165354D02*
X526111Y160732D01*
X529766Y166826D02*
X532559Y164034D01*
X553035D01*
X526111Y160732D02*
X554051D01*
X429766Y166826D02*
Y174500D01*
X461774Y183777D02*
X466910Y188913D01*
X461774Y168455D02*
Y183777D01*
X454050Y160731D02*
X461774Y168455D01*
X458726Y188013D02*
X466499Y195786D01*
X458726Y169725D02*
Y188013D01*
X453034Y164033D02*
X458726Y169725D01*
X480526Y189500D02*
Y191151D01*
X475892Y195786D02*
X480526Y191151D01*
X466499Y195786D02*
X475892D01*
X466910Y188913D02*
X471526D01*
X421488Y165353D02*
Y173913D01*
Y165353D02*
X426110Y160731D01*
X429766Y166826D02*
X432558Y164033D01*
X453034D01*
X426110Y160731D02*
X454050D01*
X329766Y166826D02*
Y174500D01*
X361774Y183777D02*
X366910Y188913D01*
X361774Y168455D02*
Y183777D01*
X354050Y160731D02*
X361774Y168455D01*
X358726Y188013D02*
X366499Y195786D01*
X358726Y169725D02*
Y188013D01*
X353034Y164033D02*
X358726Y169725D01*
X380526Y189500D02*
Y191151D01*
X375892Y195786D02*
X380526Y191151D01*
X366499Y195786D02*
X375892D01*
X366910Y188913D02*
X371526D01*
X321488Y165353D02*
Y173913D01*
Y165353D02*
X326110Y160731D01*
X329766Y166826D02*
X332558Y164033D01*
X353034D01*
X326110Y160731D02*
X354050D01*
X229766Y166826D02*
Y174500D01*
X261774Y183777D02*
X266910Y188913D01*
X261774Y168455D02*
Y183777D01*
X254050Y160731D02*
X261774Y168455D01*
X258726Y188013D02*
X266499Y195786D01*
X258726Y169725D02*
Y188013D01*
X253034Y164033D02*
X258726Y169725D01*
X280526Y189500D02*
Y191151D01*
X275892Y195786D02*
X280526Y191151D01*
X266499Y195786D02*
X275892D01*
X266910Y188913D02*
X271526D01*
X221488Y165353D02*
Y173913D01*
Y165353D02*
X226110Y160731D01*
X229766Y166826D02*
X232558Y164033D01*
X253034D01*
X226110Y160731D02*
X254050D01*
X129766Y166826D02*
Y174500D01*
X161774Y183777D02*
X166910Y188913D01*
X161774Y168455D02*
Y183777D01*
X154051Y160732D02*
X161774Y168455D01*
X158726Y188013D02*
X166499Y195786D01*
X158726Y169725D02*
Y188013D01*
X153034Y164034D02*
X158726Y169725D01*
X180527Y189500D02*
Y191152D01*
X175892Y195786D02*
X180527Y191152D01*
X166499Y195786D02*
X175892D01*
X166910Y188913D02*
X171527D01*
X121489Y165354D02*
Y173913D01*
Y165354D02*
X126110Y160732D01*
X129766Y166826D02*
X132558Y164034D01*
X153034D01*
X126110Y160732D02*
X154051D01*
X1425718Y195786D02*
X1429766Y191738D01*
X1415152Y195786D02*
X1425718D01*
X1408243Y188877D02*
X1415152Y195786D01*
X1408243Y170589D02*
Y188877D01*
X1326654Y195786D02*
X1330526Y191913D01*
X1309130Y189179D02*
X1315737Y195786D01*
X1326654D01*
X29766Y166826D02*
Y174500D01*
X61774Y183777D02*
X66910Y188913D01*
X61774Y168455D02*
Y183777D01*
X54050Y160732D02*
X61774Y168455D01*
X58726Y188013D02*
X66499Y195786D01*
X58726Y169725D02*
Y188013D01*
X53035Y164034D02*
X58726Y169725D01*
X80527Y189500D02*
Y191152D01*
X75892Y195786D02*
X80527Y191152D01*
X66499Y195786D02*
X75892D01*
X66910Y188913D02*
X71526D01*
X21488Y165354D02*
Y173913D01*
Y165354D02*
X26110Y160732D01*
X29766Y166826D02*
X32559Y164034D01*
X53035D01*
X26110Y160732D02*
X54050D01*
X76110Y160731D02*
X104050D01*
X82558Y164033D02*
X103034D01*
X79766Y166826D02*
X82558Y164033D01*
X71488Y165353D02*
X76110Y160731D01*
X71488Y165353D02*
Y173913D01*
X116910Y188913D02*
X121526D01*
X116499Y195786D02*
X125892D01*
X130526Y191151D01*
Y189500D02*
Y191151D01*
X103034Y164033D02*
X108726Y169725D01*
Y188013D01*
X116499Y195786D01*
X104050Y160731D02*
X111774Y168455D01*
Y183777D01*
X116910Y188913D01*
X79766Y166826D02*
Y174500D01*
X176110Y160731D02*
X204050D01*
X182558Y164033D02*
X203034D01*
X179766Y166826D02*
X182558Y164033D01*
X171488Y165353D02*
X176110Y160731D01*
X171488Y165353D02*
Y173913D01*
X216910Y188913D02*
X221526D01*
X216499Y195786D02*
X225892D01*
X230526Y191151D01*
Y189500D02*
Y191151D01*
X203034Y164033D02*
X208726Y169725D01*
Y188013D01*
X216499Y195786D01*
X204050Y160731D02*
X211774Y168455D01*
Y183777D01*
X216910Y188913D01*
X179766Y166826D02*
Y174500D01*
X476110Y160731D02*
X504050D01*
X482558Y164033D02*
X503034D01*
X479766Y166826D02*
X482558Y164033D01*
X471488Y165353D02*
X476110Y160731D01*
X471488Y165353D02*
Y173913D01*
X516910Y188913D02*
X521526D01*
X516499Y195786D02*
X525892D01*
X530526Y191151D01*
Y189500D02*
Y191151D01*
X503034Y164033D02*
X508726Y169725D01*
Y188013D01*
X516499Y195786D01*
X504050Y160731D02*
X511774Y168455D01*
Y183777D01*
X516910Y188913D01*
X479766Y166826D02*
Y174500D01*
X276110Y160731D02*
X304050D01*
X282558Y164033D02*
X303034D01*
X279766Y166826D02*
X282558Y164033D01*
X271488Y165353D02*
X276110Y160731D01*
X271488Y165353D02*
Y173913D01*
X316910Y188913D02*
X321526D01*
X316499Y195786D02*
X325892D01*
X330526Y191151D01*
Y189500D02*
Y191151D01*
X303034Y164033D02*
X308726Y169725D01*
Y188013D01*
X316499Y195786D01*
X304050Y160731D02*
X311774Y168455D01*
Y183777D01*
X316910Y188913D01*
X279766Y166826D02*
Y174500D01*
X376110Y160731D02*
X404050D01*
X382558Y164033D02*
X403034D01*
X379766Y166826D02*
X382558Y164033D01*
X371488Y165353D02*
X376110Y160731D01*
X371488Y165353D02*
Y173913D01*
X416910Y188913D02*
X421526D01*
X416499Y195786D02*
X425892D01*
X430526Y191151D01*
Y189500D02*
Y191151D01*
X403034Y164033D02*
X408726Y169725D01*
Y188013D01*
X416499Y195786D01*
X404050Y160731D02*
X411774Y168455D01*
Y183777D01*
X416910Y188913D01*
X379766Y166826D02*
Y174500D01*
X576110Y160731D02*
X604050D01*
X582558Y164033D02*
X603034D01*
X579766Y166826D02*
X582558Y164033D01*
X571488Y165353D02*
X576110Y160731D01*
X571488Y165353D02*
Y173913D01*
X616910Y188913D02*
X621526D01*
X616499Y195786D02*
X625892D01*
X630526Y191151D01*
Y189500D02*
Y191151D01*
X603034Y164033D02*
X608726Y169725D01*
Y188013D01*
X616499Y195786D01*
X604050Y160731D02*
X611774Y168455D01*
Y183777D01*
X616910Y188913D01*
X579766Y166826D02*
Y174500D01*
X676086Y160731D02*
X704026D01*
X682534Y164033D02*
X703010D01*
X679742Y166826D02*
X682534Y164033D01*
X671464Y165353D02*
X676086Y160731D01*
X671464Y165353D02*
Y173913D01*
X716886Y188913D02*
X721502D01*
X716475Y195786D02*
X725868D01*
X730502Y191151D01*
Y189500D02*
Y191151D01*
X703010Y164033D02*
X708702Y169725D01*
Y188013D01*
X716475Y195786D01*
X704026Y160731D02*
X711750Y168455D01*
Y183777D01*
X716886Y188913D01*
X679742Y166826D02*
Y174500D01*
X776111Y160732D02*
X804051D01*
X782559Y164034D02*
X803035D01*
X779766Y166826D02*
X782559Y164034D01*
X771489Y165354D02*
X776111Y160732D01*
X771489Y165354D02*
Y173913D01*
X816910Y188913D02*
X821527D01*
X816499Y195786D02*
X825892D01*
X830527Y191152D01*
Y189500D02*
Y191152D01*
X803035Y164034D02*
X808726Y169725D01*
Y188013D01*
X816499Y195786D01*
X804051Y160732D02*
X811774Y168455D01*
Y183777D01*
X816910Y188913D01*
X779766Y166826D02*
Y174500D01*
X876111Y160731D02*
X904051D01*
X882559Y164033D02*
X903035D01*
X879766Y166826D02*
X882559Y164033D01*
X871488Y165353D02*
X876111Y160731D01*
X871488Y165353D02*
Y173913D01*
X916910Y188913D02*
X921526D01*
X916499Y195786D02*
X925892D01*
X930527Y191151D01*
Y189500D02*
Y191151D01*
X903035Y164033D02*
X908726Y169725D01*
Y188013D01*
X916499Y195786D01*
X904051Y160731D02*
X911774Y168455D01*
Y183777D01*
X916910Y188913D01*
X879766Y166826D02*
Y174500D01*
X976111Y160731D02*
X1004051D01*
X982559Y164033D02*
X1003035D01*
X979766Y166826D02*
X982559Y164033D01*
X971489Y165353D02*
X976111Y160731D01*
X971489Y165353D02*
Y173913D01*
X1016910Y188913D02*
X1021527D01*
X1016499Y195786D02*
X1025892D01*
X1030527Y191151D01*
Y189500D02*
Y191151D01*
X1003035Y164033D02*
X1008726Y169725D01*
Y188013D01*
X1016499Y195786D01*
X1004051Y160731D02*
X1011774Y168455D01*
Y183777D01*
X1016910Y188913D01*
X979766Y166826D02*
Y174500D01*
X1076110Y160731D02*
X1104050D01*
X1082558Y164033D02*
X1103034D01*
X1079766Y166826D02*
X1082558Y164033D01*
X1071488Y165353D02*
X1076110Y160731D01*
X1071488Y165353D02*
Y173913D01*
X1116910Y188913D02*
X1121526D01*
X1116499Y195786D02*
X1125892D01*
X1130526Y191151D01*
Y189500D02*
Y191151D01*
X1103034Y164033D02*
X1108726Y169725D01*
Y188013D01*
X1116499Y195786D01*
X1104050Y160731D02*
X1111774Y168455D01*
Y183777D01*
X1116910Y188913D01*
X1079766Y166826D02*
Y174500D01*
X1179766Y166826D02*
Y174500D01*
X1279766Y167588D02*
Y174500D01*
X1211774Y183777D02*
X1216910Y188913D01*
X1211774Y168455D02*
Y183777D01*
X1204050Y160731D02*
X1211774Y168455D01*
X1208726Y188013D02*
X1216499Y195786D01*
X1208726Y169725D02*
Y188013D01*
X1203034Y164033D02*
X1208726Y169725D01*
X1230526Y189500D02*
Y191151D01*
X1225892Y195786D02*
X1230526Y191151D01*
X1216499Y195786D02*
X1225892D01*
X1216910Y188913D02*
X1221526D01*
X1171488Y165353D02*
Y173913D01*
Y165353D02*
X1176110Y160731D01*
X1179766Y166826D02*
X1182558Y164033D01*
X1203034D01*
X1176110Y160731D02*
X1204050D01*
X1309130Y170891D02*
Y189179D01*
X1303034Y164795D02*
X1309130Y170891D01*
X1316910Y189675D02*
X1321526D01*
X1271488Y166115D02*
Y174675D01*
Y166115D02*
X1276110Y161493D01*
X1279766Y167588D02*
X1282558Y164795D01*
X1330526Y189675D02*
Y191913D01*
X1312178Y184944D02*
X1316910Y189675D01*
X1282558Y164795D02*
X1303034D01*
X1276110Y161493D02*
X1304050D01*
X1312178Y169621D01*
Y184944D01*
X1411418Y169446D02*
Y184768D01*
X1403290Y161318D02*
X1411418Y169446D01*
X1375350Y161318D02*
X1403290D01*
X1402274Y164620D02*
X1408243Y170589D01*
X1381798Y164620D02*
X1402274D01*
X1411418Y184768D02*
X1416150Y189500D01*
X1429766D02*
Y191738D01*
X1379728Y166690D02*
X1381798Y164620D01*
X1379728Y166690D02*
Y174500D01*
X1370728Y165940D02*
X1375350Y161318D01*
X1370728Y165940D02*
Y174500D01*
X1416150Y189500D02*
X1420766D01*
D13*
X1564500Y533996D02*
D03*
X1569500D02*
D03*
X1574500D02*
D03*
X1579500D02*
D03*
X1564500Y276996D02*
D03*
X1569500D02*
D03*
X1574500D02*
D03*
X1579500D02*
D03*
X1564500Y19996D02*
D03*
X1569500D02*
D03*
X1574500D02*
D03*
X1579500D02*
D03*
D14*
X28056Y688500D02*
D03*
X46056D02*
D03*
X28056Y703500D02*
D03*
X46056D02*
D03*
X1446056Y703500D02*
D03*
X1428056D02*
D03*
X1446056Y688500D02*
D03*
X1428056D02*
D03*
X1328056D02*
D03*
X1346056D02*
D03*
X1328056Y703500D02*
D03*
X1346056D02*
D03*
X1246056Y703500D02*
D03*
X1228056D02*
D03*
X1246056Y688500D02*
D03*
X1228056D02*
D03*
X1128056D02*
D03*
X1146056D02*
D03*
X1128056Y703500D02*
D03*
X1146056D02*
D03*
X1046056Y703500D02*
D03*
X1028056D02*
D03*
X1046056Y688500D02*
D03*
X1028056D02*
D03*
X928056D02*
D03*
X946056D02*
D03*
X928056Y703500D02*
D03*
X946056D02*
D03*
X846056D02*
D03*
X828056D02*
D03*
X846056Y688500D02*
D03*
X828056D02*
D03*
X728056D02*
D03*
X746056D02*
D03*
X728056Y703500D02*
D03*
X746056D02*
D03*
X646056Y703500D02*
D03*
X628056D02*
D03*
X646056Y688500D02*
D03*
X628056D02*
D03*
X528056Y688500D02*
D03*
X546056D02*
D03*
X528056Y703500D02*
D03*
X546056D02*
D03*
X446056Y703500D02*
D03*
X428056D02*
D03*
X446056Y688500D02*
D03*
X428056D02*
D03*
X328056Y688501D02*
D03*
X346056D02*
D03*
X328056Y703501D02*
D03*
X346056D02*
D03*
X246056Y703500D02*
D03*
X228056D02*
D03*
X246056Y688500D02*
D03*
X228056D02*
D03*
X128056Y688501D02*
D03*
X146056D02*
D03*
X128056Y703501D02*
D03*
X146056D02*
D03*
X1438766Y446500D02*
D03*
X1420766D02*
D03*
X1438766Y431500D02*
D03*
X1420766D02*
D03*
X1345766D02*
D03*
X1363766D02*
D03*
X1345766Y446500D02*
D03*
X1363766D02*
D03*
X1288766D02*
D03*
X1270766D02*
D03*
X1288766Y431500D02*
D03*
X1270766D02*
D03*
X1195766D02*
D03*
X1213766D02*
D03*
X1195766Y446500D02*
D03*
X1213766D02*
D03*
X1138792Y446500D02*
D03*
X1120792D02*
D03*
X1138792Y431500D02*
D03*
X1120792D02*
D03*
X1045766Y431500D02*
D03*
X1063766D02*
D03*
X1045766Y446500D02*
D03*
X1063766D02*
D03*
X988766D02*
D03*
X970766D02*
D03*
X988766Y431500D02*
D03*
X970766D02*
D03*
X895766D02*
D03*
X913766D02*
D03*
X895766Y446500D02*
D03*
X913766D02*
D03*
X838766D02*
D03*
X820766D02*
D03*
X838766Y431500D02*
D03*
X820766D02*
D03*
X745766D02*
D03*
X763766D02*
D03*
X745766Y446500D02*
D03*
X763766D02*
D03*
X688766D02*
D03*
X670766D02*
D03*
X688766Y431500D02*
D03*
X670766D02*
D03*
X595766D02*
D03*
X613766D02*
D03*
X595766Y446500D02*
D03*
X613766D02*
D03*
X538766D02*
D03*
X520766D02*
D03*
X538766Y431500D02*
D03*
X520766D02*
D03*
X445766D02*
D03*
X463766D02*
D03*
X445766Y446500D02*
D03*
X463766D02*
D03*
X388766D02*
D03*
X370766D02*
D03*
X388766Y431500D02*
D03*
X370766D02*
D03*
X295766D02*
D03*
X313766D02*
D03*
X295766Y446500D02*
D03*
X313766D02*
D03*
X238766D02*
D03*
X220766D02*
D03*
X238766Y431500D02*
D03*
X220766D02*
D03*
X145766D02*
D03*
X163766D02*
D03*
X145766Y446500D02*
D03*
X163766D02*
D03*
X88766Y446500D02*
D03*
X70766D02*
D03*
X88766Y431500D02*
D03*
X70766D02*
D03*
X1438766Y189500D02*
D03*
X1420766D02*
D03*
X1438766Y174500D02*
D03*
X1420766D02*
D03*
X1370728D02*
D03*
X1388728D02*
D03*
X1370728Y189500D02*
D03*
X1388728D02*
D03*
X1338766D02*
D03*
X1320766D02*
D03*
X1338766Y174500D02*
D03*
X1320766D02*
D03*
X1270766D02*
D03*
X1288766D02*
D03*
X1270766Y189500D02*
D03*
X1288766D02*
D03*
X1238766D02*
D03*
X1220766D02*
D03*
X1238766Y174500D02*
D03*
X1220766D02*
D03*
X1170766D02*
D03*
X1188766D02*
D03*
X1170766Y189500D02*
D03*
X1188766D02*
D03*
X1138766D02*
D03*
X1120766D02*
D03*
X1138766Y174500D02*
D03*
X1120766D02*
D03*
X1070766D02*
D03*
X1088766D02*
D03*
X1070766Y189500D02*
D03*
X1088766D02*
D03*
X1038766Y189500D02*
D03*
X1020766D02*
D03*
X1038766Y174500D02*
D03*
X1020766D02*
D03*
X970766Y174500D02*
D03*
X988766D02*
D03*
X970766Y189500D02*
D03*
X988766D02*
D03*
X938766Y189500D02*
D03*
X920766D02*
D03*
X938766Y174500D02*
D03*
X920766D02*
D03*
X870766Y174500D02*
D03*
X888766D02*
D03*
X870766Y189500D02*
D03*
X888766D02*
D03*
X838766Y189500D02*
D03*
X820766D02*
D03*
X838766Y174500D02*
D03*
X820766D02*
D03*
X770780D02*
D03*
X788780D02*
D03*
X770780Y189500D02*
D03*
X788780D02*
D03*
X738742Y189500D02*
D03*
X720742D02*
D03*
X738742Y174500D02*
D03*
X720742D02*
D03*
X670766Y174500D02*
D03*
X688766D02*
D03*
X670766Y189500D02*
D03*
X688766D02*
D03*
X638766Y189500D02*
D03*
X620766D02*
D03*
X638766Y174500D02*
D03*
X620766D02*
D03*
X570766Y174500D02*
D03*
X588766D02*
D03*
X570766Y189500D02*
D03*
X588766D02*
D03*
X538766Y189500D02*
D03*
X520766D02*
D03*
X538766Y174500D02*
D03*
X520766D02*
D03*
X470766D02*
D03*
X488766D02*
D03*
X470766Y189500D02*
D03*
X488766D02*
D03*
X438766D02*
D03*
X420766D02*
D03*
X438766Y174500D02*
D03*
X420766D02*
D03*
X370766D02*
D03*
X388766D02*
D03*
X370766Y189500D02*
D03*
X388766D02*
D03*
X338766D02*
D03*
X320766D02*
D03*
X338766Y174500D02*
D03*
X320766D02*
D03*
X270766D02*
D03*
X288766D02*
D03*
X270766Y189500D02*
D03*
X288766D02*
D03*
X238766D02*
D03*
X220766D02*
D03*
X238766Y174500D02*
D03*
X220766D02*
D03*
X170766Y174500D02*
D03*
X188766D02*
D03*
X170766Y189500D02*
D03*
X188766D02*
D03*
X138766Y189500D02*
D03*
X120766D02*
D03*
X138766Y174500D02*
D03*
X120766D02*
D03*
X70766Y174500D02*
D03*
X88766D02*
D03*
X70766Y189500D02*
D03*
X88766D02*
D03*
X38766Y189500D02*
D03*
X20766D02*
D03*
X38766Y174500D02*
D03*
X20766D02*
D03*
D15*
X37056Y703500D02*
D03*
Y688500D02*
D03*
X1437056Y688500D02*
D03*
Y703500D02*
D03*
X1337056D02*
D03*
Y688500D02*
D03*
X1237056Y688500D02*
D03*
Y703500D02*
D03*
X1137056D02*
D03*
Y688500D02*
D03*
X1037056Y688500D02*
D03*
Y703500D02*
D03*
X937056D02*
D03*
Y688500D02*
D03*
X837056D02*
D03*
Y703500D02*
D03*
X737056D02*
D03*
Y688500D02*
D03*
X637056Y688500D02*
D03*
Y703500D02*
D03*
X537056Y703500D02*
D03*
Y688500D02*
D03*
X437056Y688500D02*
D03*
Y703500D02*
D03*
X337056Y703501D02*
D03*
Y688501D02*
D03*
X237056Y688500D02*
D03*
Y703500D02*
D03*
X137056Y703501D02*
D03*
Y688501D02*
D03*
X1429766Y431500D02*
D03*
Y446500D02*
D03*
X1354766D02*
D03*
Y431500D02*
D03*
X1279766D02*
D03*
Y446500D02*
D03*
X1204766D02*
D03*
Y431500D02*
D03*
X1129792Y431500D02*
D03*
Y446500D02*
D03*
X1054766Y446500D02*
D03*
Y431500D02*
D03*
X979766D02*
D03*
Y446500D02*
D03*
X904766D02*
D03*
Y431500D02*
D03*
X829766D02*
D03*
Y446500D02*
D03*
X754766D02*
D03*
Y431500D02*
D03*
X679766D02*
D03*
Y446500D02*
D03*
X604766D02*
D03*
Y431500D02*
D03*
X529766D02*
D03*
Y446500D02*
D03*
X454766D02*
D03*
Y431500D02*
D03*
X379766D02*
D03*
Y446500D02*
D03*
X304766D02*
D03*
Y431500D02*
D03*
X229766D02*
D03*
Y446500D02*
D03*
X154766D02*
D03*
Y431500D02*
D03*
X79766Y431500D02*
D03*
Y446500D02*
D03*
X1429766Y174500D02*
D03*
Y189500D02*
D03*
X1379728D02*
D03*
Y174500D02*
D03*
X1329766D02*
D03*
Y189500D02*
D03*
X1279766D02*
D03*
Y174500D02*
D03*
X1229766D02*
D03*
Y189500D02*
D03*
X1179766D02*
D03*
Y174500D02*
D03*
X1129766D02*
D03*
Y189500D02*
D03*
X1079766D02*
D03*
Y174500D02*
D03*
X1029766Y174500D02*
D03*
Y189500D02*
D03*
X979766Y189500D02*
D03*
Y174500D02*
D03*
X929766Y174500D02*
D03*
Y189500D02*
D03*
X879766Y189500D02*
D03*
Y174500D02*
D03*
X829766Y174500D02*
D03*
Y189500D02*
D03*
X779780D02*
D03*
Y174500D02*
D03*
X729742Y174500D02*
D03*
Y189500D02*
D03*
X679766Y189500D02*
D03*
Y174500D02*
D03*
X629766Y174500D02*
D03*
Y189500D02*
D03*
X579766Y189500D02*
D03*
Y174500D02*
D03*
X529766Y174500D02*
D03*
Y189500D02*
D03*
X479766D02*
D03*
Y174500D02*
D03*
X429766D02*
D03*
Y189500D02*
D03*
X379766D02*
D03*
Y174500D02*
D03*
X329766D02*
D03*
Y189500D02*
D03*
X279766D02*
D03*
Y174500D02*
D03*
X229766D02*
D03*
Y189500D02*
D03*
X179766Y189500D02*
D03*
Y174500D02*
D03*
X129766Y174500D02*
D03*
Y189500D02*
D03*
X79766Y189500D02*
D03*
Y174500D02*
D03*
X29766Y174500D02*
D03*
Y189500D02*
D03*
D16*
X28756Y696000D02*
D03*
X45356D02*
D03*
X1445356Y696000D02*
D03*
X1428756D02*
D03*
X1328756D02*
D03*
X1345356D02*
D03*
X1245356Y696000D02*
D03*
X1228756D02*
D03*
X1128756D02*
D03*
X1145356D02*
D03*
X1045356Y696000D02*
D03*
X1028756D02*
D03*
X928756D02*
D03*
X945356D02*
D03*
X845356D02*
D03*
X828756D02*
D03*
X728756D02*
D03*
X745356D02*
D03*
X645356Y696000D02*
D03*
X628756D02*
D03*
X528756Y696000D02*
D03*
X545356D02*
D03*
X445356Y696000D02*
D03*
X428756D02*
D03*
X328756Y696001D02*
D03*
X345356D02*
D03*
X245356Y696000D02*
D03*
X228756D02*
D03*
X128756Y696001D02*
D03*
X145356D02*
D03*
X1438066Y439000D02*
D03*
X1421466D02*
D03*
X1346466D02*
D03*
X1363066D02*
D03*
X1288066D02*
D03*
X1271466D02*
D03*
X1196466D02*
D03*
X1213066D02*
D03*
X1138092Y439000D02*
D03*
X1121492D02*
D03*
X1046466Y439000D02*
D03*
X1063066D02*
D03*
X988066D02*
D03*
X971466D02*
D03*
X896466D02*
D03*
X913066D02*
D03*
X838066D02*
D03*
X821466D02*
D03*
X746466D02*
D03*
X763066D02*
D03*
X688066D02*
D03*
X671466D02*
D03*
X596466D02*
D03*
X613066D02*
D03*
X538066D02*
D03*
X521466D02*
D03*
X446466D02*
D03*
X463066D02*
D03*
X388066D02*
D03*
X371466D02*
D03*
X296466D02*
D03*
X313066D02*
D03*
X238066D02*
D03*
X221466D02*
D03*
X146466D02*
D03*
X163066D02*
D03*
X88066Y439000D02*
D03*
X71466D02*
D03*
X1438066Y182000D02*
D03*
X1421466D02*
D03*
X1371428D02*
D03*
X1388028D02*
D03*
X1338066D02*
D03*
X1321466D02*
D03*
X1271466D02*
D03*
X1288066D02*
D03*
X1238066D02*
D03*
X1221466D02*
D03*
X1171466D02*
D03*
X1188066D02*
D03*
X1138066D02*
D03*
X1121466D02*
D03*
X1071466D02*
D03*
X1088066D02*
D03*
X1038066Y182000D02*
D03*
X1021466D02*
D03*
X971466Y182000D02*
D03*
X988066D02*
D03*
X938066Y182000D02*
D03*
X921466D02*
D03*
X871466Y182000D02*
D03*
X888066D02*
D03*
X838066Y182000D02*
D03*
X821466D02*
D03*
X771480D02*
D03*
X788080D02*
D03*
X738042Y182000D02*
D03*
X721442D02*
D03*
X671466Y182000D02*
D03*
X688066D02*
D03*
X638066Y182000D02*
D03*
X621466D02*
D03*
X571466Y182000D02*
D03*
X588066D02*
D03*
X538066Y182000D02*
D03*
X521466D02*
D03*
X471466D02*
D03*
X488066D02*
D03*
X438066D02*
D03*
X421466D02*
D03*
X371466D02*
D03*
X388066D02*
D03*
X338066D02*
D03*
X321466D02*
D03*
X271466D02*
D03*
X288066D02*
D03*
X238066D02*
D03*
X221466D02*
D03*
X171466Y182000D02*
D03*
X188066D02*
D03*
X138066Y182000D02*
D03*
X121466D02*
D03*
X71466Y182000D02*
D03*
X88066D02*
D03*
X38066Y182000D02*
D03*
X21466D02*
D03*
D17*
X60170Y691784D02*
D03*
Y701784D02*
D03*
X159264Y690919D02*
D03*
Y700920D02*
D03*
X259408Y690237D02*
D03*
Y700237D02*
D03*
X559408Y690666D02*
D03*
Y700666D02*
D03*
X459326Y690920D02*
D03*
Y700920D02*
D03*
X359408Y690792D02*
D03*
Y700792D02*
D03*
X659408Y690620D02*
D03*
Y700620D02*
D03*
X759154Y690754D02*
D03*
Y700754D02*
D03*
X859154Y690920D02*
D03*
Y700920D02*
D03*
X1059408Y690412D02*
D03*
Y700412D02*
D03*
X959154Y691000D02*
D03*
Y701000D02*
D03*
X1159534Y700238D02*
D03*
Y690238D02*
D03*
X1259154Y701174D02*
D03*
Y691174D02*
D03*
X1358688Y701000D02*
D03*
Y691000D02*
D03*
X1459154Y701000D02*
D03*
Y691000D02*
D03*
X102228Y434294D02*
D03*
Y444294D02*
D03*
X177118Y434054D02*
D03*
Y444054D02*
D03*
X252118Y433920D02*
D03*
Y443920D02*
D03*
X326958Y434308D02*
D03*
Y444308D02*
D03*
X402118Y433920D02*
D03*
Y443920D02*
D03*
X476974Y433919D02*
D03*
Y443919D02*
D03*
X552118Y433237D02*
D03*
Y443237D02*
D03*
X777118Y433666D02*
D03*
Y443666D02*
D03*
X702036Y433920D02*
D03*
Y443920D02*
D03*
X627118Y433792D02*
D03*
Y443792D02*
D03*
X852118Y433620D02*
D03*
Y443620D02*
D03*
X926864Y433754D02*
D03*
Y443754D02*
D03*
X1001864Y433920D02*
D03*
Y443920D02*
D03*
X1152144Y433412D02*
D03*
Y443412D02*
D03*
X1076864Y434000D02*
D03*
Y444000D02*
D03*
X1227244Y443238D02*
D03*
Y433238D02*
D03*
X1301864Y444174D02*
D03*
Y434174D02*
D03*
X1376398Y444000D02*
D03*
Y434000D02*
D03*
X1451864Y444000D02*
D03*
Y434000D02*
D03*
X252188Y176866D02*
D03*
Y186866D02*
D03*
X202200Y177056D02*
D03*
Y187056D02*
D03*
X152228Y177388D02*
D03*
Y187388D02*
D03*
X102290Y177254D02*
D03*
Y187254D02*
D03*
X52228Y176500D02*
D03*
Y186500D02*
D03*
X502118Y176920D02*
D03*
Y186920D02*
D03*
X552228Y177294D02*
D03*
Y187294D02*
D03*
X302118Y176786D02*
D03*
Y186786D02*
D03*
X352372Y177294D02*
D03*
Y187294D02*
D03*
X402182Y176826D02*
D03*
Y186826D02*
D03*
X452372Y176799D02*
D03*
Y186799D02*
D03*
X602118Y177054D02*
D03*
Y187054D02*
D03*
X652118Y176920D02*
D03*
Y186920D02*
D03*
X701958Y177308D02*
D03*
Y187308D02*
D03*
X752094Y176920D02*
D03*
Y186920D02*
D03*
X801988Y176919D02*
D03*
Y186919D02*
D03*
X852118Y176237D02*
D03*
Y186237D02*
D03*
X1002118Y176666D02*
D03*
Y186666D02*
D03*
X952036Y176920D02*
D03*
Y186920D02*
D03*
X902118Y176792D02*
D03*
Y186792D02*
D03*
X1052118Y176620D02*
D03*
Y186620D02*
D03*
X1101864Y176754D02*
D03*
Y186754D02*
D03*
X1151864Y176920D02*
D03*
Y186920D02*
D03*
X1252118Y176412D02*
D03*
Y186412D02*
D03*
X1201864Y177000D02*
D03*
Y187000D02*
D03*
X1302244Y186238D02*
D03*
Y176238D02*
D03*
X1351864Y187174D02*
D03*
Y177174D02*
D03*
X1401360Y187000D02*
D03*
Y177000D02*
D03*
X1451864Y187000D02*
D03*
Y177000D02*
D03*
D18*
X18354Y682958D02*
X22517Y678795D01*
X18354Y682958D02*
Y693098D01*
X21256Y696000D01*
X28756D01*
X118354Y682959D02*
X122517Y678796D01*
X118354Y682959D02*
Y693099D01*
X121256Y696001D01*
X128756D01*
X218354Y682958D02*
X222517Y678795D01*
X218354Y682958D02*
Y693098D01*
X221256Y696000D01*
X228756D01*
X318354Y682959D02*
X322517Y678796D01*
X318354Y682959D02*
Y693099D01*
X321256Y696001D01*
X328756D01*
X418354Y682959D02*
X422517Y678796D01*
X418354Y682959D02*
Y693098D01*
X421256Y696000D01*
X428756D01*
X1418354Y682958D02*
X1422517Y678795D01*
X1418354Y682958D02*
Y693098D01*
X1421256Y696000D01*
X1428756D01*
X1318354Y682958D02*
X1322517Y678795D01*
X1318354Y682958D02*
Y693098D01*
X1321256Y696000D01*
X1328756D01*
X1218354Y682958D02*
X1222517Y678795D01*
X1218354Y682958D02*
Y693098D01*
X1221256Y696000D01*
X1228756D01*
X1118354Y682958D02*
X1122517Y678795D01*
X1118354Y682958D02*
Y693098D01*
X1121256Y696000D01*
X1128756D01*
X1018354Y682958D02*
X1022517Y678795D01*
X1018354Y682958D02*
Y693098D01*
X1021256Y696000D01*
X1028756D01*
X918354Y682958D02*
X922517Y678795D01*
X918354Y682958D02*
Y693098D01*
X921256Y696000D01*
X928756D01*
X818354Y682958D02*
X822517Y678795D01*
X818354Y682958D02*
Y693098D01*
X821256Y696000D01*
X828756D01*
X718354Y682958D02*
X722517Y678795D01*
X718354Y682958D02*
Y693098D01*
X721256Y696000D01*
X728756D01*
X618354Y682958D02*
X622517Y678796D01*
X618354Y682958D02*
Y693098D01*
X621256Y696000D01*
X628756D01*
X521256Y696000D02*
X528756D01*
X518354Y693098D02*
X521256Y696000D01*
X518354Y682958D02*
Y693098D01*
Y682958D02*
X522517Y678795D01*
X1414272Y439000D02*
X1420373D01*
X1411146Y435874D02*
X1414272Y439000D01*
X1411146Y425956D02*
Y435874D01*
Y425956D02*
X1414720Y422382D01*
X1336652Y425370D02*
X1340226Y421795D01*
X1336652Y425370D02*
Y436998D01*
X1338654Y439000D01*
X1346466D01*
X1264158D02*
X1270958D01*
X1261906Y436748D02*
X1264158Y439000D01*
X1261906Y426132D02*
Y436748D01*
Y426132D02*
X1265480Y422557D01*
X1186652Y425370D02*
X1190226Y421795D01*
X1186652Y425370D02*
Y436998D01*
X1188654Y439000D01*
X1196466D01*
X1111678Y425370D02*
X1115253Y421795D01*
X1111678Y425370D02*
Y436998D01*
X1113680Y439000D01*
X1121492D01*
X1036652Y425370D02*
X1040226Y421795D01*
X1036652Y425370D02*
Y436998D01*
X1038654Y439000D01*
X1046466D01*
X961652Y425370D02*
X965226Y421795D01*
X961652Y425370D02*
Y436998D01*
X963654Y439000D01*
X971466D01*
X886652Y425370D02*
X890226Y421795D01*
X886652Y425370D02*
Y436998D01*
X888654Y439000D01*
X896466D01*
X811652Y425370D02*
X815226Y421795D01*
X811652Y425370D02*
Y436998D01*
X813654Y439000D01*
X821466D01*
X736652Y425370D02*
X740227Y421795D01*
X736652Y425370D02*
Y436998D01*
X738654Y439000D01*
X746466D01*
X661652Y425370D02*
X665226Y421795D01*
X661652Y425370D02*
Y436998D01*
X663654Y439000D01*
X671466D01*
X586652Y425370D02*
X590227Y421795D01*
X586652Y425370D02*
Y436998D01*
X588654Y439000D01*
X596466D01*
X511652Y425370D02*
X515226Y421795D01*
X511652Y425370D02*
Y436998D01*
X513654Y439000D01*
X521466D01*
X436652Y425370D02*
X440226Y421795D01*
X436652Y425370D02*
Y436998D01*
X438654Y439000D01*
X446466D01*
X361652Y425370D02*
X365226Y421795D01*
X361652Y425370D02*
Y436998D01*
X363654Y439000D01*
X371466D01*
X286652Y425370D02*
X290226Y421795D01*
X286652Y425370D02*
Y436998D01*
X288654Y439000D01*
X296466D01*
X211652Y425370D02*
X215226Y421795D01*
X211652Y425370D02*
Y436998D01*
X213654Y439000D01*
X221466D01*
X61652Y425370D02*
X65227Y421795D01*
X61652Y425370D02*
Y436998D01*
X63654Y439000D01*
X71466D01*
X138654Y439000D02*
X146466D01*
X136652Y436998D02*
X138654Y439000D01*
X136652Y425370D02*
Y436998D01*
Y425370D02*
X140226Y421795D01*
X1365188Y180772D02*
X1365932Y181516D01*
X1370944D01*
X1371428Y182000D01*
X1365188Y164795D02*
Y180772D01*
X1265226D02*
X1265970Y181516D01*
X1270982D01*
X1271466Y182000D01*
X1265226Y164795D02*
Y180772D01*
X1165226D02*
X1165970Y181516D01*
X1170982D01*
X1171466Y182000D01*
X1165226Y164795D02*
Y180772D01*
X1065226D02*
X1065970Y181516D01*
X1070982D01*
X1071466Y182000D01*
X1065226Y164795D02*
Y180772D01*
X965227Y180772D02*
X965970Y181516D01*
X970982D01*
X971466Y182000D01*
X965227Y164795D02*
Y180772D01*
X865227D02*
X865970Y181516D01*
X870982D01*
X871466Y182000D01*
X865227Y164795D02*
Y180772D01*
X765241Y180773D02*
X765984Y181516D01*
X770996D01*
X771480Y182000D01*
X765241Y164795D02*
Y180773D01*
X665227D02*
X665970Y181516D01*
X670982D01*
X671466Y182000D01*
X665227Y164795D02*
Y180773D01*
X565227D02*
X565970Y181516D01*
X570982D01*
X571466Y182000D01*
X565227Y164795D02*
Y180773D01*
X465226Y180772D02*
X465970Y181516D01*
X470982D01*
X471466Y182000D01*
X465226Y164795D02*
Y180772D01*
X365226D02*
X365970Y181516D01*
X370982D01*
X371466Y182000D01*
X365226Y164795D02*
Y180772D01*
X265226D02*
X265970Y181516D01*
X270982D01*
X271466Y182000D01*
X265226Y164795D02*
Y180772D01*
X165226Y180773D02*
X165970Y181516D01*
X170982D01*
X171466Y182000D01*
X165226Y164795D02*
Y180773D01*
X11370Y182000D02*
X21466D01*
X21466Y182000D01*
X65226Y180773D02*
X65970Y181516D01*
X70982D01*
X71466Y182000D01*
X65226Y164795D02*
Y180773D01*
X115226Y164795D02*
Y180772D01*
X120982Y181516D02*
X121466Y182000D01*
X115970Y181516D02*
X120982D01*
X115226Y180772D02*
X115970Y181516D01*
X215226Y164795D02*
Y180772D01*
X220982Y181516D02*
X221466Y182000D01*
X215970Y181516D02*
X220982D01*
X215226Y180772D02*
X215970Y181516D01*
X515226Y164795D02*
Y180772D01*
X520982Y181516D02*
X521466Y182000D01*
X515970Y181516D02*
X520982D01*
X515226Y180772D02*
X515970Y181516D01*
X315226Y164795D02*
Y180772D01*
X320982Y181516D02*
X321466Y182000D01*
X315970Y181516D02*
X320982D01*
X315226Y180772D02*
X315970Y181516D01*
X415226Y164795D02*
Y180772D01*
X420982Y181516D02*
X421466Y182000D01*
X415970Y181516D02*
X420982D01*
X415226Y180772D02*
X415970Y181516D01*
X615226Y164795D02*
Y180772D01*
X620982Y181516D02*
X621466Y182000D01*
X615970Y181516D02*
X620982D01*
X615226Y180772D02*
X615970Y181516D01*
X715202Y164795D02*
Y180772D01*
X720958Y181516D02*
X721442Y182000D01*
X715946Y181516D02*
X720958D01*
X715202Y180772D02*
X715946Y181516D01*
X815227Y164795D02*
Y180773D01*
X820982Y181516D02*
X821466Y182000D01*
X815970Y181516D02*
X820982D01*
X815227Y180773D02*
X815970Y181516D01*
X915227Y164795D02*
Y180772D01*
X920982Y181516D02*
X921466Y182000D01*
X915970Y181516D02*
X920982D01*
X915227Y180772D02*
X915970Y181516D01*
X1015227Y164795D02*
Y180772D01*
X1020982Y181516D02*
X1021466Y182000D01*
X1015970Y181516D02*
X1020982D01*
X1015227Y180772D02*
X1015970Y181516D01*
X1115226Y164795D02*
Y180772D01*
X1120982Y181516D02*
X1121466Y182000D01*
X1115970Y181516D02*
X1120982D01*
X1115226Y180772D02*
X1115970Y181516D01*
X1215226Y180772D02*
X1215970Y181516D01*
X1220982D01*
X1221466Y182000D01*
X1215226Y164795D02*
Y180772D01*
X1321742Y181691D02*
X1322226Y182175D01*
X1315480Y180035D02*
X1316961Y181516D01*
X1320982D01*
X1321466Y182000D01*
X1315480Y165557D02*
Y180035D01*
X1414720Y165382D02*
Y179860D01*
X1416376Y181516D01*
X1420982D01*
X1421466Y182000D01*
D19*
X64987Y715247D02*
X164987D01*
X60170Y701784D02*
Y710430D01*
X459915Y700414D02*
Y713418D01*
X359411Y704019D02*
X370639Y715247D01*
X159397Y700414D02*
Y709657D01*
X458086Y715247D02*
X459915Y713418D01*
X159397Y709657D02*
X164987Y715247D01*
X859915Y700413D02*
Y713894D01*
X759411Y700413D02*
Y709174D01*
X659914Y700414D02*
Y715247D01*
X1050560D02*
X1454979D01*
X837816D02*
X1050560D01*
X659914D02*
X837816D01*
X458086D02*
X659914D01*
X370639D02*
X458086D01*
X164987D02*
X370639D01*
X60170Y710430D02*
X64987Y715247D01*
X1459154Y701000D02*
Y711072D01*
X1454979Y715247D02*
X1459154Y711072D01*
X1358688Y708140D02*
X1365594Y715046D01*
X1358688Y701000D02*
Y708140D01*
X1255915Y715247D02*
X1259914Y711247D01*
X1159410Y708024D02*
X1165474Y714088D01*
X1159410Y701175D02*
Y708024D01*
X1059915Y700413D02*
Y715247D01*
X1050560D02*
X1059915D01*
X959411Y706304D02*
X968353Y715247D01*
X959411Y700413D02*
Y706304D01*
X858561Y715247D02*
X859915Y713894D01*
X837817Y715247D02*
X858561D01*
X759411Y709174D02*
X765483Y715247D01*
X559411Y708127D02*
X566531Y715247D01*
X559411Y700413D02*
Y708127D01*
X359411Y700414D02*
Y704019D01*
X259914Y700413D02*
Y714681D01*
X259349Y715247D02*
X259914Y714681D01*
X1050560Y715247D02*
X1050560Y715247D01*
X837816Y715247D02*
X837817Y715247D01*
X228412Y715247D02*
X259349D01*
X228412Y715247D02*
X228412Y715247D01*
X1259914Y701175D02*
Y711247D01*
X927120Y443413D02*
Y452174D01*
X702624Y443413D02*
Y456418D01*
X402624Y443413D02*
Y456868D01*
X700795Y458247D02*
X702624D01*
X663349D02*
X700795D01*
X1002624Y443413D02*
Y456894D01*
X852624Y443413D02*
Y458247D01*
X477106Y443413D02*
Y452656D01*
X252624Y443413D02*
Y456768D01*
X102625Y443413D02*
Y452100D01*
X1152651Y458247D02*
X1447689D01*
X108791D02*
X1152651D01*
X1447689D02*
X1451864Y454072D01*
X102625Y452100D02*
X102644D01*
X108791Y458247D01*
X482697Y458247D02*
X496107D01*
X359511Y458247D02*
X401245D01*
X980526Y458247D02*
X1001271D01*
X1376398Y451140D02*
X1383304Y458046D01*
X1383103Y458247D02*
X1383304Y458046D01*
X1376398Y444000D02*
Y451140D01*
X1298625Y458247D02*
X1302624Y454247D01*
X1227120Y451024D02*
X1233184Y457088D01*
X1227120Y444175D02*
Y451024D01*
X1152651Y443413D02*
Y458247D01*
X1077120Y449304D02*
X1086063Y458247D01*
X1077120Y443413D02*
Y449304D01*
X1001271Y458247D02*
X1002624Y456894D01*
X980526Y458247D02*
X1001271D01*
X927120Y452174D02*
X933193Y458247D01*
X777121Y451127D02*
X784241Y458247D01*
X777121Y443413D02*
Y451127D01*
X700795Y458247D02*
X702624Y456418D01*
X627121Y447019D02*
X638349Y458247D01*
X627121Y443413D02*
Y447019D01*
X663349Y458247D02*
X663349Y458247D01*
X552624Y443413D02*
Y457681D01*
X552058Y458247D02*
X552624Y457681D01*
X477106Y452656D02*
X482697Y458247D01*
X401245Y458247D02*
X402624Y456868D01*
X327096Y450856D02*
X334487Y458247D01*
X327096Y443413D02*
Y450856D01*
X251145Y458247D02*
X252624Y456768D01*
X177120Y450776D02*
X184591Y458247D01*
X177120Y443413D02*
Y450776D01*
X980526Y458247D02*
X980526Y458247D01*
X521122D02*
X552058D01*
X521121Y458247D02*
X521122Y458247D01*
X1302624Y444175D02*
Y454247D01*
X1451864Y444000D02*
Y454072D01*
X408677Y201247D02*
X451953D01*
X407991D02*
X408677D01*
X552624Y186413D02*
Y200302D01*
X452624Y186413D02*
Y200575D01*
X551679Y201247D02*
X609591D01*
X509617D02*
X551679D01*
X451953D02*
X509617D01*
X252111D02*
X408677D01*
X807711D02*
X821122D01*
X1052625Y201247D02*
X1130526D01*
X709487Y201247D02*
X751221D01*
X807711D01*
X1130526Y201247D02*
X1243270D01*
X1009241D02*
X1052625D01*
X609591Y201247D02*
X651145D01*
X709487D01*
X209831D02*
X252111D01*
X1243270Y201247D02*
X1348625D01*
X852059Y201247D02*
X913349D01*
X151019Y201247D02*
X209831D01*
X252624Y186413D02*
Y200734D01*
X252111Y201247D02*
X252624Y200734D01*
X1447689Y201247D02*
X1451864Y197072D01*
X1348625Y201247D02*
X1408065D01*
X1401360Y194140D02*
X1408266Y201046D01*
X1408065Y201247D02*
X1447689D01*
X1408065D02*
X1408266Y201046D01*
X1401360Y187000D02*
Y194140D01*
X1348625Y201247D02*
X1352624Y197247D01*
X1302120Y194024D02*
X1308184Y200088D01*
X1302120Y187175D02*
Y194024D01*
X1252624Y186413D02*
Y201247D01*
X1243270D02*
X1252624D01*
X1211063D02*
X1243270D01*
X1202120Y192304D02*
X1211063Y201247D01*
X1202120Y186413D02*
Y192304D01*
X1152624Y186413D02*
Y199894D01*
X1151271Y201247D02*
X1152624Y199894D01*
X1130526Y201247D02*
X1151271D01*
X1108193D02*
X1130526D01*
X1102120Y195174D02*
X1108193Y201247D01*
X1102120Y186413D02*
Y195174D01*
X1052625Y186413D02*
Y201247D01*
X913349D02*
X1009241D01*
X1002121Y194127D02*
X1009241Y201247D01*
X1002121Y186413D02*
Y194127D01*
X952625Y186413D02*
Y199418D01*
X950795Y201247D02*
X952625Y199418D01*
X902121Y190019D02*
X913349Y201247D01*
X902121Y186413D02*
Y190019D01*
X913349Y201247D02*
X913349Y201247D01*
X852625Y186413D02*
Y200681D01*
X852059Y201247D02*
X852625Y200681D01*
X802121Y195657D02*
X807711Y201247D01*
X802121Y186413D02*
Y195657D01*
X752600Y186413D02*
Y199868D01*
X751221Y201247D02*
X752600Y199868D01*
X702096Y193856D02*
X709487Y201247D01*
X702096Y186413D02*
Y193856D01*
X652624Y186413D02*
Y199768D01*
X651145Y201247D02*
X652624Y199768D01*
X602120Y193776D02*
X609591Y201247D01*
X602120Y186413D02*
Y193776D01*
X451953Y201247D02*
X452624Y200575D01*
X402120Y195376D02*
X407991Y201247D01*
X402120Y186413D02*
Y195376D01*
X350861Y201247D02*
X352624Y199483D01*
X120082Y201247D02*
X151019D01*
X352624Y186413D02*
Y199483D01*
X302120Y194690D02*
X308677Y201247D01*
X302120Y186413D02*
Y194690D01*
X551679Y201247D02*
X552624Y200302D01*
X502120Y193750D02*
X509617Y201247D01*
X502120Y186413D02*
Y193750D01*
X202120Y193536D02*
X209831Y201247D01*
X202120Y186413D02*
Y193536D01*
X152624Y186413D02*
Y199642D01*
X151019Y201247D02*
X152624Y199642D01*
X1243270Y201247D02*
X1243270Y201247D01*
X1130526Y201247D02*
X1130526Y201247D01*
X821122Y201247D02*
X852059D01*
X821122Y201247D02*
X821122Y201247D01*
X113349Y201247D02*
X120082D01*
X120082Y201247D02*
X120082Y201247D01*
X63349Y201247D02*
X120082D01*
X52120Y190019D02*
X63349Y201247D01*
X52120Y186413D02*
Y190019D01*
X102120Y186413D02*
Y190018D01*
X113349Y201247D01*
X1352624Y187175D02*
Y197247D01*
X1451864Y187000D02*
Y197072D01*
D20*
X54254Y700413D02*
X59396D01*
X46764Y686413D02*
Y687913D01*
Y686413D02*
X47740Y685437D01*
X51087D01*
X53156Y683367D01*
X53706D01*
X57920Y688937D02*
X59396Y690413D01*
X57920Y687581D02*
Y688937D01*
X53706Y683367D02*
X57920Y687581D01*
X46764Y702913D02*
X51754D01*
X54254Y700413D01*
X1446522Y687000D02*
Y688500D01*
X1247282Y687175D02*
Y688675D01*
X1146778Y687175D02*
Y688675D01*
X247283Y686413D02*
Y687913D01*
Y686413D02*
X248258Y685437D01*
X251605D01*
X253675Y683367D01*
X254224D01*
X258438Y688937D02*
X259914Y690413D01*
X258438Y687581D02*
Y688937D01*
X254224Y683367D02*
X258438Y687581D01*
X252272Y702913D02*
X254772Y700413D01*
X259914D01*
X154255Y700414D02*
X159397D01*
X151755Y702914D02*
X154255Y700414D01*
X146765Y702914D02*
X151755D01*
X153707Y683368D02*
X157921Y687582D01*
Y688938D01*
X159397Y690414D01*
X153157Y683368D02*
X153707D01*
X151087Y685438D02*
X153157Y683368D01*
X147741Y685438D02*
X151087D01*
X146765Y686414D02*
X147741Y685438D01*
X146765Y686414D02*
Y687914D01*
X247052Y702913D02*
X252272D01*
X447283Y686414D02*
Y687914D01*
Y686414D02*
X448259Y685438D01*
X451605D01*
X453675Y683368D01*
X454225D01*
X458439Y688938D02*
X459915Y690414D01*
X458439Y687582D02*
Y688938D01*
X454225Y683368D02*
X458439Y687582D01*
X452273Y702914D02*
X454773Y700414D01*
X459915D01*
X354269Y700414D02*
X359411D01*
X351769Y702914D02*
X354269Y700414D01*
X346779Y702914D02*
X351769D01*
X353721Y683368D02*
X357935Y687582D01*
Y688938D01*
X359411Y690414D01*
X353171Y683368D02*
X353721D01*
X351101Y685438D02*
X353171Y683368D01*
X347755Y685438D02*
X351101D01*
X346779Y686414D02*
X347755Y685438D01*
X346779Y686414D02*
Y687914D01*
X447053Y702914D02*
X452273D01*
X647282Y686413D02*
Y687914D01*
Y686413D02*
X648259Y685437D01*
X651605D01*
X653675Y683367D01*
X654224D01*
X658438Y688938D02*
X659914Y690414D01*
X658438Y687581D02*
Y688938D01*
X654224Y683367D02*
X658438Y687581D01*
X652272Y702914D02*
X654772Y700414D01*
X659914D01*
X554269Y700413D02*
X559411D01*
X551769Y702913D02*
X554269Y700413D01*
X546779Y702913D02*
X551769D01*
X553721Y683367D02*
X557935Y687581D01*
Y688937D01*
X559411Y690413D01*
X553171Y683367D02*
X553721D01*
X551101Y685437D02*
X553171Y683367D01*
X547755Y685437D02*
X551101D01*
X546779Y686413D02*
X547755Y685437D01*
X546779Y686413D02*
Y687913D01*
X647053Y702914D02*
X652272D01*
X847283Y686413D02*
Y687913D01*
Y686413D02*
X848259Y685437D01*
X851605D01*
X853675Y683367D01*
X854225D01*
X858439Y688937D02*
X859915Y690413D01*
X858439Y687581D02*
Y688937D01*
X854225Y683367D02*
X858439Y687581D01*
X852273Y702913D02*
X854773Y700413D01*
X859915D01*
X754269D02*
X759411D01*
X751769Y702913D02*
X754269Y700413D01*
X746779Y702913D02*
X751769D01*
X753721Y683367D02*
X757935Y687581D01*
Y688937D01*
X759411Y690413D01*
X753171Y683367D02*
X753721D01*
X751101Y685437D02*
X753171Y683367D01*
X747755Y685437D02*
X751101D01*
X746779Y686413D02*
X747755Y685437D01*
X746779Y686413D02*
Y687913D01*
X847053Y702913D02*
X852273D01*
X1047053D02*
X1052273D01*
X946779Y686413D02*
Y687913D01*
Y686413D02*
X947755Y685437D01*
X951101D01*
X953171Y683367D01*
X953721D01*
X957935Y688937D02*
X959411Y690413D01*
X957935Y687581D02*
Y688937D01*
X953721Y683367D02*
X957935Y687581D01*
X946779Y702913D02*
X951769D01*
X954269Y700413D01*
X959411D01*
X1054773D02*
X1059915D01*
X1052273Y702913D02*
X1054773Y700413D01*
X1054225Y683367D02*
X1058439Y687581D01*
Y688937D01*
X1059915Y690413D01*
X1053675Y683367D02*
X1054225D01*
X1051605Y685437D02*
X1053675Y683367D01*
X1048259Y685437D02*
X1051605D01*
X1047283Y686413D02*
X1048259Y685437D01*
X1047283Y686413D02*
Y687913D01*
X1146778Y687175D02*
X1147754Y686199D01*
X1151100D01*
X1153170Y684129D01*
X1153720D01*
X1157934Y689699D02*
X1159410Y691175D01*
X1157934Y688343D02*
Y689699D01*
X1153720Y684129D02*
X1157934Y688343D01*
X1146778Y703675D02*
X1151768D01*
X1154268Y701175D01*
X1159410D01*
X1254772D02*
X1259914D01*
X1252272Y703675D02*
X1254772Y701175D01*
X1247282Y703675D02*
X1252272D01*
X1254224Y684129D02*
X1258438Y688343D01*
Y689699D01*
X1259914Y691175D01*
X1253674Y684129D02*
X1254224D01*
X1251605Y686199D02*
X1253674Y684129D01*
X1248258Y686199D02*
X1251605D01*
X1247282Y687175D02*
X1248258Y686199D01*
X1446522Y687000D02*
X1447498Y686024D01*
X1450844D01*
X1452914Y683954D01*
X1453464D01*
X1457678Y689524D02*
X1459154Y691000D01*
X1457678Y688168D02*
Y689524D01*
X1453464Y683954D02*
X1457678Y688168D01*
X1446522Y703500D02*
X1451512D01*
X1454012Y701000D01*
X1459154D01*
X1353546D02*
X1358688D01*
X1351046Y703500D02*
X1353546Y701000D01*
X1346056Y703500D02*
X1351046D01*
X1352998Y683954D02*
X1357212Y688168D01*
Y689524D01*
X1358688Y691000D01*
X1352448Y683954D02*
X1352998D01*
X1350379Y686024D02*
X1352448Y683954D01*
X1347032Y686024D02*
X1350379D01*
X1346056Y687000D02*
X1347032Y686024D01*
X1346056Y687000D02*
Y688500D01*
X1439232Y430000D02*
Y431500D01*
X1289992Y430175D02*
Y431675D01*
X1214488Y430175D02*
Y431675D01*
X89993Y429413D02*
Y430913D01*
Y429413D02*
X90969Y428437D01*
X94315D01*
X96385Y426367D01*
X96935D01*
X101149Y431937D02*
X102625Y433413D01*
X101149Y430581D02*
Y431937D01*
X96935Y426367D02*
X101149Y430581D01*
X94983Y445913D02*
X97483Y443413D01*
X102625D01*
X89763Y445913D02*
X94983D01*
X239992Y429413D02*
Y430913D01*
Y429413D02*
X240968Y428437D01*
X244314D01*
X246385Y426367D01*
X246934D01*
X251148Y431937D02*
X252624Y433413D01*
X251148Y430581D02*
Y431937D01*
X246934Y426367D02*
X251148Y430581D01*
X244982Y445913D02*
X247482Y443413D01*
X252624D01*
X171978Y443413D02*
X177120D01*
X169478Y445913D02*
X171978Y443413D01*
X164488Y445913D02*
X169478D01*
X171430Y426367D02*
X175644Y430581D01*
Y431937D01*
X177120Y433413D01*
X170880Y426367D02*
X171430D01*
X168810Y428437D02*
X170880Y426367D01*
X165464Y428437D02*
X168810D01*
X164488Y429413D02*
X165464Y428437D01*
X164488Y429413D02*
Y430913D01*
X239762Y445913D02*
X244982D01*
X389992Y429413D02*
Y430913D01*
Y429413D02*
X390968Y428437D01*
X394314D01*
X396385Y426367D01*
X396934D01*
X401148Y431937D02*
X402624Y433413D01*
X401148Y430581D02*
Y431937D01*
X396934Y426367D02*
X401148Y430581D01*
X394982Y445913D02*
X397482Y443413D01*
X402624D01*
X321954Y443413D02*
X327096D01*
X319454Y445913D02*
X321954Y443413D01*
X314464Y445913D02*
X319454D01*
X321406Y426367D02*
X325620Y430581D01*
Y431937D01*
X327096Y433413D01*
X320856Y426367D02*
X321406D01*
X318786Y428437D02*
X320856Y426367D01*
X315440Y428437D02*
X318786D01*
X314464Y429413D02*
X315440Y428437D01*
X314464Y429413D02*
Y430913D01*
X389762Y445913D02*
X394982D01*
X539992Y429413D02*
Y430913D01*
Y429413D02*
X540968Y428437D01*
X544314D01*
X546385Y426367D01*
X546934D01*
X551148Y431937D02*
X552624Y433413D01*
X551148Y430581D02*
Y431937D01*
X546934Y426367D02*
X551148Y430581D01*
X544982Y445913D02*
X547482Y443413D01*
X552624D01*
X471964D02*
X477106D01*
X469464Y445913D02*
X471964Y443413D01*
X464474Y445913D02*
X469464D01*
X471416Y426367D02*
X475630Y430581D01*
Y431937D01*
X477106Y433413D01*
X470867Y426367D02*
X471416D01*
X468797Y428437D02*
X470867Y426367D01*
X465450Y428437D02*
X468797D01*
X464474Y429413D02*
X465450Y428437D01*
X464474Y429413D02*
Y430913D01*
X539762Y445913D02*
X544982D01*
X689992Y429413D02*
Y430913D01*
Y429413D02*
X690968Y428437D01*
X694314D01*
X696385Y426367D01*
X696934D01*
X701148Y431937D02*
X702624Y433413D01*
X701148Y430581D02*
Y431937D01*
X696934Y426367D02*
X701148Y430581D01*
X694982Y445913D02*
X697482Y443413D01*
X702624D01*
X621979Y443413D02*
X627121D01*
X619479Y445913D02*
X621979Y443413D01*
X614489Y445913D02*
X619479D01*
X621431Y426367D02*
X625645Y430581D01*
Y431937D01*
X627121Y433413D01*
X620881Y426367D02*
X621431D01*
X618811Y428437D02*
X620881Y426367D01*
X615465Y428437D02*
X618811D01*
X614489Y429413D02*
X615465Y428437D01*
X614489Y429413D02*
Y430913D01*
X689762Y445913D02*
X694982D01*
X839992Y429413D02*
Y430913D01*
Y429413D02*
X840968Y428437D01*
X844314D01*
X846385Y426367D01*
X846934D01*
X851148Y431937D02*
X852624Y433413D01*
X851148Y430581D02*
Y431937D01*
X846934Y426367D02*
X851148Y430581D01*
X844982Y445913D02*
X847482Y443413D01*
X852624D01*
X771979Y443413D02*
X777121D01*
X769479Y445913D02*
X771979Y443413D01*
X764489Y445913D02*
X769479D01*
X771431Y426367D02*
X775645Y430581D01*
Y431937D01*
X777121Y433413D01*
X770881Y426367D02*
X771431D01*
X768811Y428437D02*
X770881Y426367D01*
X765465Y428437D02*
X768811D01*
X764489Y429413D02*
X765465Y428437D01*
X764489Y429413D02*
Y430913D01*
X839762Y445913D02*
X844982D01*
X989992Y429413D02*
Y430913D01*
Y429413D02*
X990968Y428437D01*
X994314D01*
X996385Y426367D01*
X996934D01*
X1001148Y431937D02*
X1002624Y433413D01*
X1001148Y430581D02*
Y431937D01*
X996934Y426367D02*
X1001148Y430581D01*
X994982Y445913D02*
X997482Y443413D01*
X1002624D01*
X921978D02*
X927120D01*
X919478Y445913D02*
X921978Y443413D01*
X914488Y445913D02*
X919478D01*
X921430Y426367D02*
X925644Y430581D01*
Y431937D01*
X927120Y433413D01*
X920881Y426367D02*
X921430D01*
X918811Y428437D02*
X920881Y426367D01*
X915464Y428437D02*
X918811D01*
X914488Y429413D02*
X915464Y428437D01*
X914488Y429413D02*
Y430913D01*
X989762Y445913D02*
X994982D01*
X1139789Y445913D02*
X1145009D01*
X1064488Y429413D02*
Y430913D01*
Y429413D02*
X1065464Y428437D01*
X1068811D01*
X1070881Y426367D01*
X1071430D01*
X1075644Y431937D02*
X1077120Y433413D01*
X1075644Y430581D02*
Y431937D01*
X1071430Y426367D02*
X1075644Y430581D01*
X1064488Y445913D02*
X1069478D01*
X1071978Y443413D01*
X1077120D01*
X1147509Y443413D02*
X1152651D01*
X1145009Y445913D02*
X1147509Y443413D01*
X1146961Y426367D02*
X1151175Y430581D01*
Y431937D01*
X1152651Y433413D01*
X1146411Y426367D02*
X1146961D01*
X1144341Y428437D02*
X1146411Y426367D01*
X1140995Y428437D02*
X1144341D01*
X1140019Y429413D02*
X1140995Y428437D01*
X1140019Y429413D02*
Y430913D01*
X1214488Y430175D02*
X1215464Y429199D01*
X1218811D01*
X1220881Y427129D01*
X1221430D01*
X1225644Y432699D02*
X1227120Y434175D01*
X1225644Y431343D02*
Y432699D01*
X1221430Y427129D02*
X1225644Y431343D01*
X1214488Y446675D02*
X1219478D01*
X1221978Y444175D01*
X1227120D01*
X1297482D02*
X1302624D01*
X1294982Y446675D02*
X1297482Y444175D01*
X1289992Y446675D02*
X1294982D01*
X1296934Y427129D02*
X1301148Y431343D01*
Y432699D01*
X1302624Y434175D01*
X1296384Y427129D02*
X1296934D01*
X1294315Y429199D02*
X1296384Y427129D01*
X1290968Y429199D02*
X1294315D01*
X1289992Y430175D02*
X1290968Y429199D01*
X1439232Y430000D02*
X1440208Y429024D01*
X1443554D01*
X1445624Y426954D01*
X1446174D01*
X1450388Y432524D02*
X1451864Y434000D01*
X1450388Y431168D02*
Y432524D01*
X1446174Y426954D02*
X1450388Y431168D01*
X1439232Y446500D02*
X1444222D01*
X1446722Y444000D01*
X1451864D01*
X1371256D02*
X1376398D01*
X1368756Y446500D02*
X1371256Y444000D01*
X1363766Y446500D02*
X1368756D01*
X1370708Y426954D02*
X1374922Y431168D01*
Y432524D01*
X1376398Y434000D01*
X1370158Y426954D02*
X1370708D01*
X1368088Y429024D02*
X1370158Y426954D01*
X1364742Y429024D02*
X1368088D01*
X1363766Y430000D02*
X1364742Y429024D01*
X1363766Y430000D02*
Y431500D01*
X1439232Y173000D02*
Y174500D01*
X1339992Y173175D02*
Y174675D01*
X1289488Y173175D02*
Y174675D01*
X247482Y186413D02*
X252624D01*
X39488Y172414D02*
Y173913D01*
Y172414D02*
X40465Y171437D01*
X43811D01*
X45881Y169368D01*
X46431D01*
X50644Y174937D02*
X52120Y176413D01*
X50644Y173582D02*
Y174937D01*
X46431Y169368D02*
X50644Y173582D01*
X39488Y188913D02*
X44479D01*
X46979Y186413D01*
X52120D01*
X139992Y172413D02*
Y173913D01*
Y172413D02*
X140968Y171437D01*
X144314D01*
X146384Y169367D01*
X146934D01*
X151148Y174937D02*
X152624Y176413D01*
X151148Y173581D02*
Y174937D01*
X146934Y169367D02*
X151148Y173581D01*
X144982Y188913D02*
X147482Y186413D01*
X152624D01*
X96978D02*
X102120D01*
X94478Y188913D02*
X96978Y186413D01*
X89488Y188913D02*
X94478D01*
X96430Y169367D02*
X100644Y173581D01*
Y174937D01*
X102120Y176413D01*
X95880Y169367D02*
X96430D01*
X93811Y171437D02*
X95880Y169367D01*
X90464Y171437D02*
X93811D01*
X89488Y172413D02*
X90464Y171437D01*
X89488Y172413D02*
Y173913D01*
X139762Y188913D02*
X144982D01*
X239992Y172413D02*
Y173913D01*
Y172413D02*
X240968Y171437D01*
X244314D01*
X246385Y169367D01*
X246934D01*
X251148Y174937D02*
X252624Y176413D01*
X251148Y173581D02*
Y174937D01*
X246934Y169367D02*
X251148Y173581D01*
X244982Y188913D02*
X247482Y186413D01*
X196978D02*
X202120D01*
X194478Y188913D02*
X196978Y186413D01*
X189488Y188913D02*
X194478D01*
X196430Y169367D02*
X200644Y173581D01*
Y174937D01*
X202120Y176413D01*
X195881Y169367D02*
X196430D01*
X193811Y171437D02*
X195881Y169367D01*
X190464Y171437D02*
X193811D01*
X189488Y172413D02*
X190464Y171437D01*
X189488Y172413D02*
Y173913D01*
X239762Y188913D02*
X244982D01*
X539992Y172413D02*
Y173913D01*
Y172413D02*
X540968Y171437D01*
X544314D01*
X546385Y169367D01*
X546934D01*
X551148Y174937D02*
X552624Y176413D01*
X551148Y173581D02*
Y174937D01*
X546934Y169367D02*
X551148Y173581D01*
X544982Y188913D02*
X547482Y186413D01*
X552624D01*
X496978D02*
X502120D01*
X494478Y188913D02*
X496978Y186413D01*
X489488Y188913D02*
X494478D01*
X496430Y169367D02*
X500644Y173581D01*
Y174937D01*
X502120Y176413D01*
X495881Y169367D02*
X496430D01*
X493811Y171437D02*
X495881Y169367D01*
X490464Y171437D02*
X493811D01*
X489488Y172413D02*
X490464Y171437D01*
X489488Y172413D02*
Y173913D01*
X539762Y188913D02*
X544982D01*
X339992Y172413D02*
Y173913D01*
Y172413D02*
X340968Y171437D01*
X344314D01*
X346385Y169367D01*
X346934D01*
X351148Y174937D02*
X352624Y176413D01*
X351148Y173581D02*
Y174937D01*
X346934Y169367D02*
X351148Y173581D01*
X344982Y188913D02*
X347482Y186413D01*
X352624D01*
X296978D02*
X302120D01*
X294478Y188913D02*
X296978Y186413D01*
X289488Y188913D02*
X294478D01*
X296430Y169367D02*
X300644Y173581D01*
Y174937D01*
X302120Y176413D01*
X295881Y169367D02*
X296430D01*
X293811Y171437D02*
X295881Y169367D01*
X290464Y171437D02*
X293811D01*
X289488Y172413D02*
X290464Y171437D01*
X289488Y172413D02*
Y173913D01*
X339762Y188913D02*
X344982D01*
X439992Y172413D02*
Y173913D01*
Y172413D02*
X440968Y171437D01*
X444314D01*
X446385Y169367D01*
X446934D01*
X451148Y174937D02*
X452624Y176413D01*
X451148Y173581D02*
Y174937D01*
X446934Y169367D02*
X451148Y173581D01*
X444982Y188913D02*
X447482Y186413D01*
X452624D01*
X396978D02*
X402120D01*
X394478Y188913D02*
X396978Y186413D01*
X389488Y188913D02*
X394478D01*
X396430Y169367D02*
X400644Y173581D01*
Y174937D01*
X402120Y176413D01*
X395881Y169367D02*
X396430D01*
X393811Y171437D02*
X395881Y169367D01*
X390464Y171437D02*
X393811D01*
X389488Y172413D02*
X390464Y171437D01*
X389488Y172413D02*
Y173913D01*
X439762Y188913D02*
X444982D01*
X639992Y172413D02*
Y173913D01*
Y172413D02*
X640968Y171437D01*
X644315D01*
X646385Y169367D01*
X646934D01*
X651148Y174937D02*
X652624Y176413D01*
X651148Y173581D02*
Y174937D01*
X646934Y169367D02*
X651148Y173581D01*
X644982Y188913D02*
X647482Y186413D01*
X652624D01*
X596978D02*
X602120D01*
X594478Y188913D02*
X596978Y186413D01*
X589488Y188913D02*
X594478D01*
X596430Y169367D02*
X600644Y173581D01*
Y174937D01*
X602120Y176413D01*
X595881Y169367D02*
X596430D01*
X593811Y171437D02*
X595881Y169367D01*
X590464Y171437D02*
X593811D01*
X589488Y172413D02*
X590464Y171437D01*
X589488Y172413D02*
Y173913D01*
X639762Y188913D02*
X644982D01*
X739968Y172413D02*
Y173913D01*
Y172413D02*
X740944Y171437D01*
X744290D01*
X746360Y169367D01*
X746910D01*
X751124Y174937D02*
X752600Y176413D01*
X751124Y173581D02*
Y174937D01*
X746910Y169367D02*
X751124Y173581D01*
X744958Y188913D02*
X747458Y186413D01*
X752600D01*
X696954D02*
X702096D01*
X694454Y188913D02*
X696954Y186413D01*
X689464Y188913D02*
X694454D01*
X696406Y169367D02*
X700620Y173581D01*
Y174937D01*
X702096Y176413D01*
X695856Y169367D02*
X696406D01*
X693786Y171437D02*
X695856Y169367D01*
X690440Y171437D02*
X693786D01*
X689464Y172413D02*
X690440Y171437D01*
X689464Y172413D02*
Y173913D01*
X739738Y188913D02*
X744958D01*
X839993Y172414D02*
Y173913D01*
Y172414D02*
X840969Y171437D01*
X844315D01*
X846385Y169368D01*
X846935D01*
X851149Y174937D02*
X852625Y176413D01*
X851149Y173582D02*
Y174937D01*
X846935Y169368D02*
X851149Y173582D01*
X844983Y188913D02*
X847483Y186413D01*
X852625D01*
X796979D02*
X802121D01*
X794479Y188913D02*
X796979Y186413D01*
X789489Y188913D02*
X794479D01*
X796431Y169368D02*
X800645Y173582D01*
Y174937D01*
X802121Y176413D01*
X795881Y169368D02*
X796431D01*
X793811Y171437D02*
X795881Y169368D01*
X790465Y171437D02*
X793811D01*
X789489Y172414D02*
X790465Y171437D01*
X789489Y172414D02*
Y173913D01*
X839763Y188913D02*
X844983D01*
X939993Y172413D02*
Y173913D01*
Y172413D02*
X940968Y171437D01*
X944315D01*
X946385Y169367D01*
X946935D01*
X951149Y174937D02*
X952625Y176413D01*
X951149Y173581D02*
Y174937D01*
X946935Y169367D02*
X951149Y173581D01*
X944983Y188913D02*
X947483Y186413D01*
X952625D01*
X896979D02*
X902121D01*
X894479Y188913D02*
X896979Y186413D01*
X889489Y188913D02*
X894479D01*
X896431Y169367D02*
X900645Y173581D01*
Y174937D01*
X902121Y176413D01*
X895881Y169367D02*
X896431D01*
X893811Y171437D02*
X895881Y169367D01*
X890464Y171437D02*
X893811D01*
X889489Y172413D02*
X890464Y171437D01*
X889489Y172413D02*
Y173913D01*
X939762Y188913D02*
X944983D01*
X1039993Y172413D02*
Y173913D01*
Y172413D02*
X1040969Y171437D01*
X1044315D01*
X1046385Y169367D01*
X1046935D01*
X1051149Y174937D02*
X1052625Y176413D01*
X1051149Y173581D02*
Y174937D01*
X1046935Y169367D02*
X1051149Y173581D01*
X1044983Y188913D02*
X1047483Y186413D01*
X1052625D01*
X996979D02*
X1002121D01*
X994479Y188913D02*
X996979Y186413D01*
X989489Y188913D02*
X994479D01*
X996431Y169367D02*
X1000645Y173581D01*
Y174937D01*
X1002121Y176413D01*
X995881Y169367D02*
X996431D01*
X993811Y171437D02*
X995881Y169367D01*
X990465Y171437D02*
X993811D01*
X989489Y172413D02*
X990465Y171437D01*
X989489Y172413D02*
Y173913D01*
X1039763Y188913D02*
X1044983D01*
X1139992Y172413D02*
Y173913D01*
Y172413D02*
X1140968Y171437D01*
X1144314D01*
X1146385Y169367D01*
X1146934D01*
X1151148Y174937D02*
X1152624Y176413D01*
X1151148Y173581D02*
Y174937D01*
X1146934Y169367D02*
X1151148Y173581D01*
X1144982Y188913D02*
X1147482Y186413D01*
X1152624D01*
X1096978D02*
X1102120D01*
X1094478Y188913D02*
X1096978Y186413D01*
X1089488Y188913D02*
X1094478D01*
X1096430Y169367D02*
X1100644Y173581D01*
Y174937D01*
X1102120Y176413D01*
X1095881Y169367D02*
X1096430D01*
X1093811Y171437D02*
X1095881Y169367D01*
X1090464Y171437D02*
X1093811D01*
X1089488Y172413D02*
X1090464Y171437D01*
X1089488Y172413D02*
Y173913D01*
X1139762Y188913D02*
X1144982D01*
X1239762D02*
X1244982D01*
X1189488Y172413D02*
Y173913D01*
Y172413D02*
X1190464Y171437D01*
X1193811D01*
X1195881Y169367D01*
X1196430D01*
X1200644Y174937D02*
X1202120Y176413D01*
X1200644Y173581D02*
Y174937D01*
X1196430Y169367D02*
X1200644Y173581D01*
X1189488Y188913D02*
X1194478D01*
X1196978Y186413D01*
X1202120D01*
X1247482D02*
X1252624D01*
X1244982Y188913D02*
X1247482Y186413D01*
X1246934Y169367D02*
X1251148Y173581D01*
Y174937D01*
X1252624Y176413D01*
X1246385Y169367D02*
X1246934D01*
X1244314Y171437D02*
X1246385Y169367D01*
X1240968Y171437D02*
X1244314D01*
X1239992Y172413D02*
X1240968Y171437D01*
X1239992Y172413D02*
Y173913D01*
X1289488Y173175D02*
X1290464Y172199D01*
X1293810D01*
X1295880Y170129D01*
X1296430D01*
X1300644Y175699D02*
X1302120Y177175D01*
X1300644Y174343D02*
Y175699D01*
X1296430Y170129D02*
X1300644Y174343D01*
X1289488Y189675D02*
X1294478D01*
X1296978Y187175D01*
X1302120D01*
X1347482D02*
X1352624D01*
X1344982Y189675D02*
X1347482Y187175D01*
X1339992Y189675D02*
X1344982D01*
X1346934Y170129D02*
X1351148Y174343D01*
Y175699D01*
X1352624Y177175D01*
X1346384Y170129D02*
X1346934D01*
X1344315Y172199D02*
X1346384Y170129D01*
X1340968Y172199D02*
X1344315D01*
X1339992Y173175D02*
X1340968Y172199D01*
X1439232Y173000D02*
X1440208Y172024D01*
X1443554D01*
X1445624Y169954D01*
X1446174D01*
X1450388Y175524D02*
X1451864Y177000D01*
X1450388Y174168D02*
Y175524D01*
X1446174Y169954D02*
X1450388Y174168D01*
X1439232Y189500D02*
X1444222D01*
X1446722Y187000D01*
X1451864D01*
X1396218D02*
X1401360D01*
X1393718Y189500D02*
X1396218Y187000D01*
X1388728Y189500D02*
X1393718D01*
X1395670Y169954D02*
X1399884Y174168D01*
Y175524D01*
X1401360Y177000D01*
X1395120Y169954D02*
X1395670D01*
X1393050Y172024D02*
X1395120Y169954D01*
X1389704Y172024D02*
X1393050D01*
X1388728Y173000D02*
X1389704Y172024D01*
X1388728Y173000D02*
Y174500D01*
D21*
X1559500Y666000D02*
G03*
X1554500Y671000I-5000J0D01*
G01*
X1584500Y714640D02*
G03*
X1578140Y721000I-6360J0D01*
G01*
X0Y671000D02*
Y721000D01*
Y671000D02*
X1554500D01*
X0Y721000D02*
X1474500D01*
X1559500D01*
Y514000D02*
Y666000D01*
X1554500Y671000D02*
X1554500D01*
X1559500Y721000D02*
X1578140D01*
X1584500Y514000D02*
Y714640D01*
X1559500Y514000D02*
X1584500D01*
X1559500Y409000D02*
G03*
X1554500Y414000I-5000J0D01*
G01*
X1584500Y457640D02*
G03*
X1578140Y464000I-6360J0D01*
G01*
X0Y414000D02*
Y464000D01*
Y414000D02*
X1554500D01*
X0Y464000D02*
X1474500D01*
X1559500D01*
Y257000D02*
Y409000D01*
X1554500Y414000D02*
X1554500D01*
X1559500Y464000D02*
X1578140D01*
X1584500Y257000D02*
Y457640D01*
X1559500Y257000D02*
X1584500D01*
X1559500Y152000D02*
G03*
X1554500Y157000I-5000J0D01*
G01*
X1584500Y200640D02*
G03*
X1578140Y207000I-6360J0D01*
G01*
X0Y157000D02*
Y207000D01*
Y157000D02*
X1554500D01*
X0Y207000D02*
X1474500D01*
X1559500D01*
Y0D02*
Y152000D01*
X1554500Y157000D02*
X1554500D01*
X1559500Y207000D02*
X1578140D01*
X1584500Y0D02*
Y200640D01*
X1559500Y0D02*
X1584500D01*
D22*
X53706Y683367D02*
D03*
X22516Y678795D02*
D03*
X1573724Y602928D02*
D03*
X1322517Y678795D02*
D03*
X1122516Y678795D02*
D03*
X922517Y678795D02*
D03*
X722517D02*
D03*
X522517D02*
D03*
X322517Y678796D02*
D03*
X122517Y678796D02*
D03*
X222516Y678795D02*
D03*
X254224Y683367D02*
D03*
X153707Y683368D02*
D03*
X422517Y678796D02*
D03*
X454225Y683368D02*
D03*
X353721Y683368D02*
D03*
X622517Y678795D02*
D03*
X654224Y683367D02*
D03*
X553721Y683367D02*
D03*
X822517Y678795D02*
D03*
X854225Y683367D02*
D03*
X753721D02*
D03*
X953721D02*
D03*
X1054225D02*
D03*
X1022517Y678795D02*
D03*
X1153720Y684129D02*
D03*
X1254224D02*
D03*
X1222770Y679557D02*
D03*
X1422010Y679382D02*
D03*
X1453464Y683954D02*
D03*
X1352998D02*
D03*
X1573724Y345928D02*
D03*
X1340226Y421795D02*
D03*
X1190226D02*
D03*
X1040226D02*
D03*
X890226D02*
D03*
X740227Y421795D02*
D03*
X590227D02*
D03*
X440226Y421795D02*
D03*
X290226D02*
D03*
X140226D02*
D03*
X65227Y421795D02*
D03*
X96935Y426367D02*
D03*
X215226Y421795D02*
D03*
X246934Y426367D02*
D03*
X171430Y426367D02*
D03*
X365226Y421795D02*
D03*
X396934Y426367D02*
D03*
X321406Y426367D02*
D03*
X515226Y421795D02*
D03*
X546934Y426367D02*
D03*
X471416D02*
D03*
X665226Y421795D02*
D03*
X696934Y426367D02*
D03*
X621431Y426367D02*
D03*
X815226Y421795D02*
D03*
X846934Y426367D02*
D03*
X771431Y426367D02*
D03*
X965226Y421795D02*
D03*
X996934Y426367D02*
D03*
X921430D02*
D03*
X1071430D02*
D03*
X1146961Y426367D02*
D03*
X1115253Y421795D02*
D03*
X1221430Y427129D02*
D03*
X1296934D02*
D03*
X1265480Y422557D02*
D03*
X1414720Y422382D02*
D03*
X1446174Y426954D02*
D03*
X1370708D02*
D03*
X1573724Y88928D02*
D03*
X1365188Y164795D02*
D03*
X1265226D02*
D03*
X1165226D02*
D03*
X1065226D02*
D03*
X965227Y164795D02*
D03*
X865227D02*
D03*
X765241Y164795D02*
D03*
X665227D02*
D03*
X565227D02*
D03*
X465226Y164795D02*
D03*
X365226D02*
D03*
X265226D02*
D03*
X165226Y164795D02*
D03*
X11370Y182000D02*
D03*
X46431Y169368D02*
D03*
X65226Y164795D02*
D03*
X115226Y164795D02*
D03*
X146934Y169367D02*
D03*
X96430D02*
D03*
X215226Y164795D02*
D03*
X246934Y169367D02*
D03*
X196430D02*
D03*
X515226Y164795D02*
D03*
X546934Y169367D02*
D03*
X496430D02*
D03*
X315226Y164795D02*
D03*
X346934Y169367D02*
D03*
X296430D02*
D03*
X415226Y164795D02*
D03*
X446934Y169367D02*
D03*
X396430D02*
D03*
X615226Y164795D02*
D03*
X646934Y169367D02*
D03*
X596430D02*
D03*
X715202Y164795D02*
D03*
X746910Y169367D02*
D03*
X696406D02*
D03*
X815227Y164795D02*
D03*
X846935Y169368D02*
D03*
X796431D02*
D03*
X915227Y164795D02*
D03*
X946935Y169367D02*
D03*
X896431D02*
D03*
X1015227Y164795D02*
D03*
X1046935Y169367D02*
D03*
X996431D02*
D03*
X1115226Y164795D02*
D03*
X1146934Y169367D02*
D03*
X1096430D02*
D03*
X1196430D02*
D03*
X1246934D02*
D03*
X1215226Y164795D02*
D03*
X1296430Y170129D02*
D03*
X1346934D02*
D03*
X1315480Y165557D02*
D03*
X1414720Y165382D02*
D03*
X1446174Y169954D02*
D03*
X1395670D02*
D03*
D23*
X1564580Y595054D02*
D03*
X1579820Y598864D02*
D03*
X1569500Y597848D02*
D03*
X1564580Y338054D02*
D03*
X1579820Y341864D02*
D03*
X1569500Y340848D02*
D03*
X1564580Y81054D02*
D03*
X1579820Y84864D02*
D03*
X1569500Y83848D02*
D03*
M02*
