G04*
G04 #@! TF.GenerationSoftware,Altium Limited,Altium Designer,19.0.12 (326)*
G04*
G04 Layer_Color=8388736*
%FSLAX44Y44*%
%MOMM*%
G71*
G01*
G75*
%ADD21C,0.1270*%
%ADD28R,0.5032X4.2032*%
%ADD29R,0.7032X1.0032*%
%ADD30R,0.5032X1.0032*%
%ADD31R,1.2032X0.5032*%
%ADD32R,0.8032X0.8032*%
D21*
X1559500Y666000D02*
G03*
X1554500Y671000I-5000J0D01*
G01*
X1584500Y714640D02*
G03*
X1578140Y721000I-6360J0D01*
G01*
X0Y671000D02*
Y721000D01*
Y671000D02*
X1554500D01*
X0Y721000D02*
X1474500D01*
X1559500D01*
Y514000D02*
Y666000D01*
X1554500Y671000D02*
X1554500D01*
X1559500Y721000D02*
X1578140D01*
X1584500Y514000D02*
Y714640D01*
X1559500Y514000D02*
X1584500D01*
X1559500Y409000D02*
G03*
X1554500Y414000I-5000J0D01*
G01*
X1584500Y457640D02*
G03*
X1578140Y464000I-6360J0D01*
G01*
X0Y414000D02*
Y464000D01*
Y414000D02*
X1554500D01*
X0Y464000D02*
X1474500D01*
X1559500D01*
Y257000D02*
Y409000D01*
X1554500Y414000D02*
X1554500D01*
X1559500Y464000D02*
X1578140D01*
X1584500Y257000D02*
Y457640D01*
X1559500Y257000D02*
X1584500D01*
X1559500Y152000D02*
G03*
X1554500Y157000I-5000J0D01*
G01*
X1584500Y200640D02*
G03*
X1578140Y207000I-6360J0D01*
G01*
X0Y157000D02*
Y207000D01*
Y157000D02*
X1554500D01*
X0Y207000D02*
X1474500D01*
X1559500D01*
Y0D02*
Y152000D01*
X1554500Y157000D02*
X1554500D01*
X1559500Y207000D02*
X1578140D01*
X1584500Y0D02*
Y200640D01*
X1559500Y0D02*
X1584500D01*
D28*
X1564500Y533996D02*
D03*
X1569500D02*
D03*
X1574500D02*
D03*
X1579500D02*
D03*
X1564500Y276996D02*
D03*
X1569500D02*
D03*
X1574500D02*
D03*
X1579500D02*
D03*
X1564500Y19996D02*
D03*
X1569500D02*
D03*
X1574500D02*
D03*
X1579500D02*
D03*
D29*
X28056Y688500D02*
D03*
X46056D02*
D03*
X28056Y703500D02*
D03*
X46056D02*
D03*
X1446056Y703500D02*
D03*
X1428056D02*
D03*
X1446056Y688500D02*
D03*
X1428056D02*
D03*
X1328056D02*
D03*
X1346056D02*
D03*
X1328056Y703500D02*
D03*
X1346056D02*
D03*
X1246056Y703500D02*
D03*
X1228056D02*
D03*
X1246056Y688500D02*
D03*
X1228056D02*
D03*
X1128056D02*
D03*
X1146056D02*
D03*
X1128056Y703500D02*
D03*
X1146056D02*
D03*
X1046056Y703500D02*
D03*
X1028056D02*
D03*
X1046056Y688500D02*
D03*
X1028056D02*
D03*
X928056D02*
D03*
X946056D02*
D03*
X928056Y703500D02*
D03*
X946056D02*
D03*
X846056D02*
D03*
X828056D02*
D03*
X846056Y688500D02*
D03*
X828056D02*
D03*
X728056D02*
D03*
X746056D02*
D03*
X728056Y703500D02*
D03*
X746056D02*
D03*
X646056Y703500D02*
D03*
X628056D02*
D03*
X646056Y688500D02*
D03*
X628056D02*
D03*
X528056Y688500D02*
D03*
X546056D02*
D03*
X528056Y703500D02*
D03*
X546056D02*
D03*
X446056Y703500D02*
D03*
X428056D02*
D03*
X446056Y688500D02*
D03*
X428056D02*
D03*
X328056Y688501D02*
D03*
X346056D02*
D03*
X328056Y703501D02*
D03*
X346056D02*
D03*
X246056Y703500D02*
D03*
X228056D02*
D03*
X246056Y688500D02*
D03*
X228056D02*
D03*
X128056Y688501D02*
D03*
X146056D02*
D03*
X128056Y703501D02*
D03*
X146056D02*
D03*
X1438766Y446500D02*
D03*
X1420766D02*
D03*
X1438766Y431500D02*
D03*
X1420766D02*
D03*
X1345766D02*
D03*
X1363766D02*
D03*
X1345766Y446500D02*
D03*
X1363766D02*
D03*
X1288766D02*
D03*
X1270766D02*
D03*
X1288766Y431500D02*
D03*
X1270766D02*
D03*
X1195766D02*
D03*
X1213766D02*
D03*
X1195766Y446500D02*
D03*
X1213766D02*
D03*
X1138792Y446500D02*
D03*
X1120792D02*
D03*
X1138792Y431500D02*
D03*
X1120792D02*
D03*
X1045766Y431500D02*
D03*
X1063766D02*
D03*
X1045766Y446500D02*
D03*
X1063766D02*
D03*
X988766D02*
D03*
X970766D02*
D03*
X988766Y431500D02*
D03*
X970766D02*
D03*
X895766D02*
D03*
X913766D02*
D03*
X895766Y446500D02*
D03*
X913766D02*
D03*
X838766D02*
D03*
X820766D02*
D03*
X838766Y431500D02*
D03*
X820766D02*
D03*
X745766D02*
D03*
X763766D02*
D03*
X745766Y446500D02*
D03*
X763766D02*
D03*
X688766D02*
D03*
X670766D02*
D03*
X688766Y431500D02*
D03*
X670766D02*
D03*
X595766D02*
D03*
X613766D02*
D03*
X595766Y446500D02*
D03*
X613766D02*
D03*
X538766D02*
D03*
X520766D02*
D03*
X538766Y431500D02*
D03*
X520766D02*
D03*
X445766D02*
D03*
X463766D02*
D03*
X445766Y446500D02*
D03*
X463766D02*
D03*
X388766D02*
D03*
X370766D02*
D03*
X388766Y431500D02*
D03*
X370766D02*
D03*
X295766D02*
D03*
X313766D02*
D03*
X295766Y446500D02*
D03*
X313766D02*
D03*
X238766D02*
D03*
X220766D02*
D03*
X238766Y431500D02*
D03*
X220766D02*
D03*
X145766D02*
D03*
X163766D02*
D03*
X145766Y446500D02*
D03*
X163766D02*
D03*
X88766Y446500D02*
D03*
X70766D02*
D03*
X88766Y431500D02*
D03*
X70766D02*
D03*
X1438766Y189500D02*
D03*
X1420766D02*
D03*
X1438766Y174500D02*
D03*
X1420766D02*
D03*
X1370728D02*
D03*
X1388728D02*
D03*
X1370728Y189500D02*
D03*
X1388728D02*
D03*
X1338766D02*
D03*
X1320766D02*
D03*
X1338766Y174500D02*
D03*
X1320766D02*
D03*
X1270766D02*
D03*
X1288766D02*
D03*
X1270766Y189500D02*
D03*
X1288766D02*
D03*
X1238766D02*
D03*
X1220766D02*
D03*
X1238766Y174500D02*
D03*
X1220766D02*
D03*
X1170766D02*
D03*
X1188766D02*
D03*
X1170766Y189500D02*
D03*
X1188766D02*
D03*
X1138766D02*
D03*
X1120766D02*
D03*
X1138766Y174500D02*
D03*
X1120766D02*
D03*
X1070766D02*
D03*
X1088766D02*
D03*
X1070766Y189500D02*
D03*
X1088766D02*
D03*
X1038766Y189500D02*
D03*
X1020766D02*
D03*
X1038766Y174500D02*
D03*
X1020766D02*
D03*
X970766Y174500D02*
D03*
X988766D02*
D03*
X970766Y189500D02*
D03*
X988766D02*
D03*
X938766Y189500D02*
D03*
X920766D02*
D03*
X938766Y174500D02*
D03*
X920766D02*
D03*
X870766Y174500D02*
D03*
X888766D02*
D03*
X870766Y189500D02*
D03*
X888766D02*
D03*
X838766Y189500D02*
D03*
X820766D02*
D03*
X838766Y174500D02*
D03*
X820766D02*
D03*
X770780D02*
D03*
X788780D02*
D03*
X770780Y189500D02*
D03*
X788780D02*
D03*
X738742Y189500D02*
D03*
X720742D02*
D03*
X738742Y174500D02*
D03*
X720742D02*
D03*
X670766Y174500D02*
D03*
X688766D02*
D03*
X670766Y189500D02*
D03*
X688766D02*
D03*
X638766Y189500D02*
D03*
X620766D02*
D03*
X638766Y174500D02*
D03*
X620766D02*
D03*
X570766Y174500D02*
D03*
X588766D02*
D03*
X570766Y189500D02*
D03*
X588766D02*
D03*
X538766Y189500D02*
D03*
X520766D02*
D03*
X538766Y174500D02*
D03*
X520766D02*
D03*
X470766D02*
D03*
X488766D02*
D03*
X470766Y189500D02*
D03*
X488766D02*
D03*
X438766D02*
D03*
X420766D02*
D03*
X438766Y174500D02*
D03*
X420766D02*
D03*
X370766D02*
D03*
X388766D02*
D03*
X370766Y189500D02*
D03*
X388766D02*
D03*
X338766D02*
D03*
X320766D02*
D03*
X338766Y174500D02*
D03*
X320766D02*
D03*
X270766D02*
D03*
X288766D02*
D03*
X270766Y189500D02*
D03*
X288766D02*
D03*
X238766D02*
D03*
X220766D02*
D03*
X238766Y174500D02*
D03*
X220766D02*
D03*
X170766Y174500D02*
D03*
X188766D02*
D03*
X170766Y189500D02*
D03*
X188766D02*
D03*
X138766Y189500D02*
D03*
X120766D02*
D03*
X138766Y174500D02*
D03*
X120766D02*
D03*
X70766Y174500D02*
D03*
X88766D02*
D03*
X70766Y189500D02*
D03*
X88766D02*
D03*
X38766Y189500D02*
D03*
X20766D02*
D03*
X38766Y174500D02*
D03*
X20766D02*
D03*
D30*
X37056Y703500D02*
D03*
Y688500D02*
D03*
X1437056Y688500D02*
D03*
Y703500D02*
D03*
X1337056D02*
D03*
Y688500D02*
D03*
X1237056Y688500D02*
D03*
Y703500D02*
D03*
X1137056D02*
D03*
Y688500D02*
D03*
X1037056Y688500D02*
D03*
Y703500D02*
D03*
X937056D02*
D03*
Y688500D02*
D03*
X837056D02*
D03*
Y703500D02*
D03*
X737056D02*
D03*
Y688500D02*
D03*
X637056Y688500D02*
D03*
Y703500D02*
D03*
X537056Y703500D02*
D03*
Y688500D02*
D03*
X437056Y688500D02*
D03*
Y703500D02*
D03*
X337056Y703501D02*
D03*
Y688501D02*
D03*
X237056Y688500D02*
D03*
Y703500D02*
D03*
X137056Y703501D02*
D03*
Y688501D02*
D03*
X1429766Y431500D02*
D03*
Y446500D02*
D03*
X1354766D02*
D03*
Y431500D02*
D03*
X1279766D02*
D03*
Y446500D02*
D03*
X1204766D02*
D03*
Y431500D02*
D03*
X1129792Y431500D02*
D03*
Y446500D02*
D03*
X1054766Y446500D02*
D03*
Y431500D02*
D03*
X979766D02*
D03*
Y446500D02*
D03*
X904766D02*
D03*
Y431500D02*
D03*
X829766D02*
D03*
Y446500D02*
D03*
X754766D02*
D03*
Y431500D02*
D03*
X679766D02*
D03*
Y446500D02*
D03*
X604766D02*
D03*
Y431500D02*
D03*
X529766D02*
D03*
Y446500D02*
D03*
X454766D02*
D03*
Y431500D02*
D03*
X379766D02*
D03*
Y446500D02*
D03*
X304766D02*
D03*
Y431500D02*
D03*
X229766D02*
D03*
Y446500D02*
D03*
X154766D02*
D03*
Y431500D02*
D03*
X79766Y431500D02*
D03*
Y446500D02*
D03*
X1429766Y174500D02*
D03*
Y189500D02*
D03*
X1379728D02*
D03*
Y174500D02*
D03*
X1329766D02*
D03*
Y189500D02*
D03*
X1279766D02*
D03*
Y174500D02*
D03*
X1229766D02*
D03*
Y189500D02*
D03*
X1179766D02*
D03*
Y174500D02*
D03*
X1129766D02*
D03*
Y189500D02*
D03*
X1079766D02*
D03*
Y174500D02*
D03*
X1029766Y174500D02*
D03*
Y189500D02*
D03*
X979766Y189500D02*
D03*
Y174500D02*
D03*
X929766Y174500D02*
D03*
Y189500D02*
D03*
X879766Y189500D02*
D03*
Y174500D02*
D03*
X829766Y174500D02*
D03*
Y189500D02*
D03*
X779780D02*
D03*
Y174500D02*
D03*
X729742Y174500D02*
D03*
Y189500D02*
D03*
X679766Y189500D02*
D03*
Y174500D02*
D03*
X629766Y174500D02*
D03*
Y189500D02*
D03*
X579766Y189500D02*
D03*
Y174500D02*
D03*
X529766Y174500D02*
D03*
Y189500D02*
D03*
X479766D02*
D03*
Y174500D02*
D03*
X429766D02*
D03*
Y189500D02*
D03*
X379766D02*
D03*
Y174500D02*
D03*
X329766D02*
D03*
Y189500D02*
D03*
X279766D02*
D03*
Y174500D02*
D03*
X229766D02*
D03*
Y189500D02*
D03*
X179766Y189500D02*
D03*
Y174500D02*
D03*
X129766Y174500D02*
D03*
Y189500D02*
D03*
X79766Y189500D02*
D03*
Y174500D02*
D03*
X29766Y174500D02*
D03*
Y189500D02*
D03*
D31*
X28756Y696000D02*
D03*
X45356D02*
D03*
X1445356Y696000D02*
D03*
X1428756D02*
D03*
X1328756D02*
D03*
X1345356D02*
D03*
X1245356Y696000D02*
D03*
X1228756D02*
D03*
X1128756D02*
D03*
X1145356D02*
D03*
X1045356Y696000D02*
D03*
X1028756D02*
D03*
X928756D02*
D03*
X945356D02*
D03*
X845356D02*
D03*
X828756D02*
D03*
X728756D02*
D03*
X745356D02*
D03*
X645356Y696000D02*
D03*
X628756D02*
D03*
X528756Y696000D02*
D03*
X545356D02*
D03*
X445356Y696000D02*
D03*
X428756D02*
D03*
X328756Y696001D02*
D03*
X345356D02*
D03*
X245356Y696000D02*
D03*
X228756D02*
D03*
X128756Y696001D02*
D03*
X145356D02*
D03*
X1438066Y439000D02*
D03*
X1421466D02*
D03*
X1346466D02*
D03*
X1363066D02*
D03*
X1288066D02*
D03*
X1271466D02*
D03*
X1196466D02*
D03*
X1213066D02*
D03*
X1138092Y439000D02*
D03*
X1121492D02*
D03*
X1046466Y439000D02*
D03*
X1063066D02*
D03*
X988066D02*
D03*
X971466D02*
D03*
X896466D02*
D03*
X913066D02*
D03*
X838066D02*
D03*
X821466D02*
D03*
X746466D02*
D03*
X763066D02*
D03*
X688066D02*
D03*
X671466D02*
D03*
X596466D02*
D03*
X613066D02*
D03*
X538066D02*
D03*
X521466D02*
D03*
X446466D02*
D03*
X463066D02*
D03*
X388066D02*
D03*
X371466D02*
D03*
X296466D02*
D03*
X313066D02*
D03*
X238066D02*
D03*
X221466D02*
D03*
X146466D02*
D03*
X163066D02*
D03*
X88066Y439000D02*
D03*
X71466D02*
D03*
X1438066Y182000D02*
D03*
X1421466D02*
D03*
X1371428D02*
D03*
X1388028D02*
D03*
X1338066D02*
D03*
X1321466D02*
D03*
X1271466D02*
D03*
X1288066D02*
D03*
X1238066D02*
D03*
X1221466D02*
D03*
X1171466D02*
D03*
X1188066D02*
D03*
X1138066D02*
D03*
X1121466D02*
D03*
X1071466D02*
D03*
X1088066D02*
D03*
X1038066Y182000D02*
D03*
X1021466D02*
D03*
X971466Y182000D02*
D03*
X988066D02*
D03*
X938066Y182000D02*
D03*
X921466D02*
D03*
X871466Y182000D02*
D03*
X888066D02*
D03*
X838066Y182000D02*
D03*
X821466D02*
D03*
X771480D02*
D03*
X788080D02*
D03*
X738042Y182000D02*
D03*
X721442D02*
D03*
X671466Y182000D02*
D03*
X688066D02*
D03*
X638066Y182000D02*
D03*
X621466D02*
D03*
X571466Y182000D02*
D03*
X588066D02*
D03*
X538066Y182000D02*
D03*
X521466D02*
D03*
X471466D02*
D03*
X488066D02*
D03*
X438066D02*
D03*
X421466D02*
D03*
X371466D02*
D03*
X388066D02*
D03*
X338066D02*
D03*
X321466D02*
D03*
X271466D02*
D03*
X288066D02*
D03*
X238066D02*
D03*
X221466D02*
D03*
X171466Y182000D02*
D03*
X188066D02*
D03*
X138066Y182000D02*
D03*
X121466D02*
D03*
X71466Y182000D02*
D03*
X88066D02*
D03*
X38066Y182000D02*
D03*
X21466D02*
D03*
D32*
X60170Y691784D02*
D03*
Y701784D02*
D03*
X159264Y690919D02*
D03*
Y700920D02*
D03*
X259408Y690237D02*
D03*
Y700237D02*
D03*
X559408Y690666D02*
D03*
Y700666D02*
D03*
X459326Y690920D02*
D03*
Y700920D02*
D03*
X359408Y690792D02*
D03*
Y700792D02*
D03*
X659408Y690620D02*
D03*
Y700620D02*
D03*
X759154Y690754D02*
D03*
Y700754D02*
D03*
X859154Y690920D02*
D03*
Y700920D02*
D03*
X1059408Y690412D02*
D03*
Y700412D02*
D03*
X959154Y691000D02*
D03*
Y701000D02*
D03*
X1159534Y700238D02*
D03*
Y690238D02*
D03*
X1259154Y701174D02*
D03*
Y691174D02*
D03*
X1358688Y701000D02*
D03*
Y691000D02*
D03*
X1459154Y701000D02*
D03*
Y691000D02*
D03*
X102228Y434294D02*
D03*
Y444294D02*
D03*
X177118Y434054D02*
D03*
Y444054D02*
D03*
X252118Y433920D02*
D03*
Y443920D02*
D03*
X326958Y434308D02*
D03*
Y444308D02*
D03*
X402118Y433920D02*
D03*
Y443920D02*
D03*
X476974Y433919D02*
D03*
Y443919D02*
D03*
X552118Y433237D02*
D03*
Y443237D02*
D03*
X777118Y433666D02*
D03*
Y443666D02*
D03*
X702036Y433920D02*
D03*
Y443920D02*
D03*
X627118Y433792D02*
D03*
Y443792D02*
D03*
X852118Y433620D02*
D03*
Y443620D02*
D03*
X926864Y433754D02*
D03*
Y443754D02*
D03*
X1001864Y433920D02*
D03*
Y443920D02*
D03*
X1152144Y433412D02*
D03*
Y443412D02*
D03*
X1076864Y434000D02*
D03*
Y444000D02*
D03*
X1227244Y443238D02*
D03*
Y433238D02*
D03*
X1301864Y444174D02*
D03*
Y434174D02*
D03*
X1376398Y444000D02*
D03*
Y434000D02*
D03*
X1451864Y444000D02*
D03*
Y434000D02*
D03*
X252188Y176866D02*
D03*
Y186866D02*
D03*
X202200Y177056D02*
D03*
Y187056D02*
D03*
X152228Y177388D02*
D03*
Y187388D02*
D03*
X102290Y177254D02*
D03*
Y187254D02*
D03*
X52228Y176500D02*
D03*
Y186500D02*
D03*
X502118Y176920D02*
D03*
Y186920D02*
D03*
X552228Y177294D02*
D03*
Y187294D02*
D03*
X302118Y176786D02*
D03*
Y186786D02*
D03*
X352372Y177294D02*
D03*
Y187294D02*
D03*
X402182Y176826D02*
D03*
Y186826D02*
D03*
X452372Y176799D02*
D03*
Y186799D02*
D03*
X602118Y177054D02*
D03*
Y187054D02*
D03*
X652118Y176920D02*
D03*
Y186920D02*
D03*
X701958Y177308D02*
D03*
Y187308D02*
D03*
X752094Y176920D02*
D03*
Y186920D02*
D03*
X801988Y176919D02*
D03*
Y186919D02*
D03*
X852118Y176237D02*
D03*
Y186237D02*
D03*
X1002118Y176666D02*
D03*
Y186666D02*
D03*
X952036Y176920D02*
D03*
Y186920D02*
D03*
X902118Y176792D02*
D03*
Y186792D02*
D03*
X1052118Y176620D02*
D03*
Y186620D02*
D03*
X1101864Y176754D02*
D03*
Y186754D02*
D03*
X1151864Y176920D02*
D03*
Y186920D02*
D03*
X1252118Y176412D02*
D03*
Y186412D02*
D03*
X1201864Y177000D02*
D03*
Y187000D02*
D03*
X1302244Y186238D02*
D03*
Y176238D02*
D03*
X1351864Y187174D02*
D03*
Y177174D02*
D03*
X1401360Y187000D02*
D03*
Y177000D02*
D03*
X1451864Y187000D02*
D03*
Y177000D02*
D03*
M02*
