G04*
G04 #@! TF.GenerationSoftware,Altium Limited,Altium Designer,19.0.12 (326)*
G04*
G04 Layer_Color=16711935*
%FSLAX44Y44*%
%MOMM*%
G71*
G01*
G75*
%ADD21C,0.1270*%
%ADD28R,0.5032X4.2032*%
D21*
X1559500Y666000D02*
G03*
X1554500Y671000I-5000J0D01*
G01*
X1584500Y714640D02*
G03*
X1578140Y721000I-6360J0D01*
G01*
X0Y671000D02*
Y721000D01*
Y671000D02*
X1554500D01*
X0Y721000D02*
X1474500D01*
X1559500D01*
Y514000D02*
Y666000D01*
X1554500Y671000D02*
X1554500D01*
X1559500Y721000D02*
X1578140D01*
X1584500Y514000D02*
Y714640D01*
X1559500Y514000D02*
X1584500D01*
X1559500Y409000D02*
G03*
X1554500Y414000I-5000J0D01*
G01*
X1584500Y457640D02*
G03*
X1578140Y464000I-6360J0D01*
G01*
X0Y414000D02*
Y464000D01*
Y414000D02*
X1554500D01*
X0Y464000D02*
X1474500D01*
X1559500D01*
Y257000D02*
Y409000D01*
X1554500Y414000D02*
X1554500D01*
X1559500Y464000D02*
X1578140D01*
X1584500Y257000D02*
Y457640D01*
X1559500Y257000D02*
X1584500D01*
X1559500Y152000D02*
G03*
X1554500Y157000I-5000J0D01*
G01*
X1584500Y200640D02*
G03*
X1578140Y207000I-6360J0D01*
G01*
X0Y157000D02*
Y207000D01*
Y157000D02*
X1554500D01*
X0Y207000D02*
X1474500D01*
X1559500D01*
Y0D02*
Y152000D01*
X1554500Y157000D02*
X1554500D01*
X1559500Y207000D02*
X1578140D01*
X1584500Y0D02*
Y200640D01*
X1559500Y0D02*
X1584500D01*
D28*
X1579500Y533996D02*
D03*
X1569500D02*
D03*
X1564500D02*
D03*
X1574500D02*
D03*
X1579500Y276996D02*
D03*
X1569500D02*
D03*
X1564500D02*
D03*
X1574500D02*
D03*
X1579500Y19996D02*
D03*
X1569500D02*
D03*
X1564500D02*
D03*
X1574500D02*
D03*
M02*
