G04*
G04 #@! TF.GenerationSoftware,Altium Limited,Altium Designer,19.0.12 (326)*
G04*
G04 Layer_Color=32768*
%FSLAX44Y44*%
%MOMM*%
G71*
G01*
G75*
%ADD11C,0.2540*%
%ADD21C,0.1270*%
%ADD34C,0.2000*%
D11*
X35560Y267970D02*
Y283205D01*
X43177D01*
X45717Y280666D01*
Y275588D01*
X43177Y273048D01*
X35560D01*
X60952Y280666D02*
X58413Y283205D01*
X53334D01*
X50795Y280666D01*
Y270509D01*
X53334Y267970D01*
X58413D01*
X60952Y270509D01*
X66030Y283205D02*
Y267970D01*
X73648D01*
X76187Y270509D01*
Y273048D01*
X73648Y275588D01*
X66030D01*
X73648D01*
X76187Y278127D01*
Y280666D01*
X73648Y283205D01*
X66030D01*
X96500Y280666D02*
X99039Y283205D01*
X104118D01*
X106657Y280666D01*
Y278127D01*
X104118Y275588D01*
X101579D01*
X104118D01*
X106657Y273048D01*
Y270509D01*
X104118Y267970D01*
X99039D01*
X96500Y270509D01*
X126970Y283205D02*
Y267970D01*
X134588D01*
X137127Y270509D01*
Y273048D01*
X134588Y275588D01*
X126970D01*
X134588D01*
X137127Y278127D01*
Y280666D01*
X134588Y283205D01*
X126970D01*
X144745Y267970D02*
X149823D01*
X152362Y270509D01*
Y275588D01*
X149823Y278127D01*
X144745D01*
X142205Y275588D01*
Y270509D01*
X144745Y267970D01*
X157441Y278127D02*
Y270509D01*
X159980Y267970D01*
X167597D01*
Y278127D01*
X172676Y267970D02*
Y278127D01*
X180293D01*
X182832Y275588D01*
Y267970D01*
X198067Y283205D02*
Y267970D01*
X190450D01*
X187911Y270509D01*
Y275588D01*
X190450Y278127D01*
X198067D01*
X205685D02*
X210763D01*
X213302Y275588D01*
Y267970D01*
X205685D01*
X203146Y270509D01*
X205685Y273048D01*
X213302D01*
X218381Y278127D02*
Y267970D01*
Y273048D01*
X220920Y275588D01*
X223459Y278127D01*
X225998D01*
X233616D02*
Y270509D01*
X236155Y267970D01*
X243773D01*
Y265431D01*
X241234Y262892D01*
X238694D01*
X243773Y267970D02*
Y278127D01*
X36830Y525780D02*
Y541015D01*
X44447D01*
X46987Y538476D01*
Y533397D01*
X44447Y530858D01*
X36830D01*
X62222Y538476D02*
X59683Y541015D01*
X54604D01*
X52065Y538476D01*
Y528319D01*
X54604Y525780D01*
X59683D01*
X62222Y528319D01*
X67300Y541015D02*
Y525780D01*
X74918D01*
X77457Y528319D01*
Y530858D01*
X74918Y533397D01*
X67300D01*
X74918D01*
X77457Y535937D01*
Y538476D01*
X74918Y541015D01*
X67300D01*
X107927Y525780D02*
X97770D01*
X107927Y535937D01*
Y538476D01*
X105388Y541015D01*
X100309D01*
X97770Y538476D01*
X128240Y541015D02*
Y525780D01*
X135858D01*
X138397Y528319D01*
Y530858D01*
X135858Y533397D01*
X128240D01*
X135858D01*
X138397Y535937D01*
Y538476D01*
X135858Y541015D01*
X128240D01*
X146015Y525780D02*
X151093D01*
X153632Y528319D01*
Y533397D01*
X151093Y535937D01*
X146015D01*
X143476Y533397D01*
Y528319D01*
X146015Y525780D01*
X158711Y535937D02*
Y528319D01*
X161250Y525780D01*
X168867D01*
Y535937D01*
X173946Y525780D02*
Y535937D01*
X181563D01*
X184102Y533397D01*
Y525780D01*
X199337Y541015D02*
Y525780D01*
X191720D01*
X189181Y528319D01*
Y533397D01*
X191720Y535937D01*
X199337D01*
X206955D02*
X212033D01*
X214573Y533397D01*
Y525780D01*
X206955D01*
X204416Y528319D01*
X206955Y530858D01*
X214573D01*
X219651Y535937D02*
Y525780D01*
Y530858D01*
X222190Y533397D01*
X224729Y535937D01*
X227268D01*
X234886D02*
Y528319D01*
X237425Y525780D01*
X245043D01*
Y523241D01*
X242504Y520702D01*
X239964D01*
X245043Y525780D02*
Y535937D01*
X31750Y781050D02*
Y796285D01*
X39367D01*
X41907Y793746D01*
Y788668D01*
X39367Y786128D01*
X31750D01*
X57142Y793746D02*
X54603Y796285D01*
X49524D01*
X46985Y793746D01*
Y783589D01*
X49524Y781050D01*
X54603D01*
X57142Y783589D01*
X62220Y796285D02*
Y781050D01*
X69838D01*
X72377Y783589D01*
Y786128D01*
X69838Y788668D01*
X62220D01*
X69838D01*
X72377Y791207D01*
Y793746D01*
X69838Y796285D01*
X62220D01*
X92690Y781050D02*
X97769D01*
X95230D01*
Y796285D01*
X92690Y793746D01*
X120621Y796285D02*
Y781050D01*
X128239D01*
X130778Y783589D01*
Y786128D01*
X128239Y788668D01*
X120621D01*
X128239D01*
X130778Y791207D01*
Y793746D01*
X128239Y796285D01*
X120621D01*
X138396Y781050D02*
X143474D01*
X146013Y783589D01*
Y788668D01*
X143474Y791207D01*
X138396D01*
X135856Y788668D01*
Y783589D01*
X138396Y781050D01*
X151091Y791207D02*
Y783589D01*
X153631Y781050D01*
X161248D01*
Y791207D01*
X166327Y781050D02*
Y791207D01*
X173944D01*
X176483Y788668D01*
Y781050D01*
X191718Y796285D02*
Y781050D01*
X184101D01*
X181562Y783589D01*
Y788668D01*
X184101Y791207D01*
X191718D01*
X199336D02*
X204414D01*
X206953Y788668D01*
Y781050D01*
X199336D01*
X196797Y783589D01*
X199336Y786128D01*
X206953D01*
X212032Y791207D02*
Y781050D01*
Y786128D01*
X214571Y788668D01*
X217110Y791207D01*
X219649D01*
X227267D02*
Y783589D01*
X229806Y781050D01*
X237423D01*
Y778511D01*
X234884Y775972D01*
X232345D01*
X237423Y781050D02*
Y791207D01*
D21*
X1559500Y666000D02*
G03*
X1554500Y671000I-5000J0D01*
G01*
X1584500Y714640D02*
G03*
X1578140Y721000I-6360J0D01*
G01*
X0Y671000D02*
Y721000D01*
Y671000D02*
X1554500D01*
X0Y721000D02*
X1474500D01*
X1559500D01*
Y514000D02*
Y666000D01*
X1554500Y671000D02*
X1554500D01*
X1559500Y721000D02*
X1578140D01*
X1584500Y514000D02*
Y714640D01*
X1559500Y514000D02*
X1584500D01*
X1559500Y409000D02*
G03*
X1554500Y414000I-5000J0D01*
G01*
X1584500Y457640D02*
G03*
X1578140Y464000I-6360J0D01*
G01*
X0Y414000D02*
Y464000D01*
Y414000D02*
X1554500D01*
X0Y464000D02*
X1474500D01*
X1559500D01*
Y257000D02*
Y409000D01*
X1554500Y414000D02*
X1554500D01*
X1559500Y464000D02*
X1578140D01*
X1584500Y257000D02*
Y457640D01*
X1559500Y257000D02*
X1584500D01*
X1559500Y152000D02*
G03*
X1554500Y157000I-5000J0D01*
G01*
X1584500Y200640D02*
G03*
X1578140Y207000I-6360J0D01*
G01*
X0Y157000D02*
Y207000D01*
Y157000D02*
X1554500D01*
X0Y207000D02*
X1474500D01*
X1559500D01*
Y0D02*
Y152000D01*
X1554500Y157000D02*
X1554500D01*
X1559500Y207000D02*
X1578140D01*
X1584500Y0D02*
Y200640D01*
X1559500Y0D02*
X1584500D01*
D34*
X113030Y210820D02*
Y262890D01*
X106680Y217170D02*
X113030Y210820D01*
X106680Y217170D02*
X119380D01*
X113030Y210820D02*
X119380Y217170D01*
X115570Y467360D02*
Y519430D01*
X109220Y473710D02*
X115570Y467360D01*
X109220Y473710D02*
X121920D01*
X115570Y467360D02*
X121920Y473710D01*
X115570Y723900D02*
X121920Y730250D01*
X109220D02*
X121920D01*
X109220D02*
X115570Y723900D01*
Y775970D01*
M02*
