G04*
G04 #@! TF.GenerationSoftware,Altium Limited,Altium Designer,19.0.12 (326)*
G04*
G04 Layer_Color=65535*
%FSLAX44Y44*%
%MOMM*%
G71*
G01*
G75*
%ADD21C,0.1270*%
%ADD25C,0.2500*%
%ADD26C,0.1778*%
%ADD27R,0.3810X0.3810*%
D21*
X65250Y699324D02*
Y706944D01*
X55090D02*
X65250D01*
X55090Y699324D02*
Y706944D01*
Y686624D02*
Y694244D01*
Y686624D02*
X65250D01*
Y694244D01*
X164344Y698460D02*
Y706080D01*
X154184D02*
X164344D01*
X154184Y698460D02*
Y706080D01*
Y685760D02*
Y693380D01*
Y685760D02*
X164344D01*
Y693380D01*
X264488Y697777D02*
Y705397D01*
X254328D02*
X264488D01*
X254328Y697777D02*
Y705397D01*
Y685077D02*
Y692697D01*
Y685077D02*
X264488D01*
Y692697D01*
X564488Y698206D02*
Y705826D01*
X554328D02*
X564488D01*
X554328Y698206D02*
Y705826D01*
Y685506D02*
Y693126D01*
Y685506D02*
X564488D01*
Y693126D01*
X464406Y698460D02*
Y706080D01*
X454246D02*
X464406D01*
X454246Y698460D02*
Y706080D01*
Y685760D02*
Y693380D01*
Y685760D02*
X464406D01*
Y693380D01*
X364488Y698333D02*
Y705953D01*
X354328D02*
X364488D01*
X354328Y698333D02*
Y705953D01*
Y685632D02*
Y693252D01*
Y685632D02*
X364488D01*
Y693252D01*
X664488Y698160D02*
Y705780D01*
X654328D02*
X664488D01*
X654328Y698160D02*
Y705780D01*
Y685460D02*
Y693080D01*
Y685460D02*
X664488D01*
Y693080D01*
X764234Y698294D02*
Y705914D01*
X754074D02*
X764234D01*
X754074Y698294D02*
Y705914D01*
Y685594D02*
Y693214D01*
Y685594D02*
X764234D01*
Y693214D01*
X864234Y698460D02*
Y706080D01*
X854074D02*
X864234D01*
X854074Y698460D02*
Y706080D01*
Y685760D02*
Y693380D01*
Y685760D02*
X864234D01*
Y693380D01*
X1064488Y697952D02*
Y705572D01*
X1054328D02*
X1064488D01*
X1054328Y697952D02*
Y705572D01*
Y685252D02*
Y692872D01*
Y685252D02*
X1064488D01*
Y692872D01*
X964234Y698540D02*
Y706160D01*
X954074D02*
X964234D01*
X954074Y698540D02*
Y706160D01*
Y685840D02*
Y693460D01*
Y685840D02*
X964234D01*
Y693460D01*
X1164614Y685078D02*
Y692698D01*
X1154454Y685078D02*
X1164614D01*
X1154454D02*
Y692698D01*
Y697778D02*
Y705398D01*
X1164614D01*
Y697778D02*
Y705398D01*
X1264234Y686014D02*
Y693634D01*
X1254074Y686014D02*
X1264234D01*
X1254074D02*
Y693634D01*
Y698714D02*
Y706334D01*
X1264234D01*
Y698714D02*
Y706334D01*
X1363768Y685840D02*
Y693460D01*
X1353608Y685840D02*
X1363768D01*
X1353608D02*
Y693460D01*
Y698540D02*
Y706160D01*
X1363768D01*
Y698540D02*
Y706160D01*
X1464234Y685840D02*
Y693460D01*
X1454074Y685840D02*
X1464234D01*
X1454074D02*
Y693460D01*
Y698540D02*
Y706160D01*
X1464234D01*
Y698540D02*
Y706160D01*
X107308Y441834D02*
Y449454D01*
X97148D02*
X107308D01*
X97148Y441834D02*
Y449454D01*
Y429134D02*
Y436754D01*
Y429134D02*
X107308D01*
Y436754D01*
X182198Y441594D02*
Y449214D01*
X172038D02*
X182198D01*
X172038Y441594D02*
Y449214D01*
Y428894D02*
Y436514D01*
Y428894D02*
X182198D01*
Y436514D01*
X257198Y441460D02*
Y449080D01*
X247038D02*
X257198D01*
X247038Y441460D02*
Y449080D01*
Y428760D02*
Y436380D01*
Y428760D02*
X257198D01*
Y436380D01*
X332038Y441848D02*
Y449468D01*
X321878D02*
X332038D01*
X321878Y441848D02*
Y449468D01*
Y429148D02*
Y436768D01*
Y429148D02*
X332038D01*
Y436768D01*
X407198Y441460D02*
Y449080D01*
X397038D02*
X407198D01*
X397038Y441460D02*
Y449080D01*
Y428760D02*
Y436380D01*
Y428760D02*
X407198D01*
Y436380D01*
X482054Y441459D02*
Y449079D01*
X471894D02*
X482054D01*
X471894Y441459D02*
Y449079D01*
Y428759D02*
Y436379D01*
Y428759D02*
X482054D01*
Y436379D01*
X557198Y440777D02*
Y448397D01*
X547038D02*
X557198D01*
X547038Y440777D02*
Y448397D01*
Y428077D02*
Y435697D01*
Y428077D02*
X557198D01*
Y435697D01*
X782198Y441206D02*
Y448826D01*
X772038D02*
X782198D01*
X772038Y441206D02*
Y448826D01*
Y428506D02*
Y436126D01*
Y428506D02*
X782198D01*
Y436126D01*
X707116Y441460D02*
Y449080D01*
X696956D02*
X707116D01*
X696956Y441460D02*
Y449080D01*
Y428760D02*
Y436380D01*
Y428760D02*
X707116D01*
Y436380D01*
X632198Y441332D02*
Y448952D01*
X622038D02*
X632198D01*
X622038Y441332D02*
Y448952D01*
Y428632D02*
Y436252D01*
Y428632D02*
X632198D01*
Y436252D01*
X857198Y441160D02*
Y448780D01*
X847038D02*
X857198D01*
X847038Y441160D02*
Y448780D01*
Y428460D02*
Y436080D01*
Y428460D02*
X857198D01*
Y436080D01*
X931944Y441294D02*
Y448914D01*
X921784D02*
X931944D01*
X921784Y441294D02*
Y448914D01*
Y428594D02*
Y436214D01*
Y428594D02*
X931944D01*
Y436214D01*
X1006944Y441460D02*
Y449080D01*
X996784D02*
X1006944D01*
X996784Y441460D02*
Y449080D01*
Y428760D02*
Y436380D01*
Y428760D02*
X1006944D01*
Y436380D01*
X1157224Y440952D02*
Y448572D01*
X1147064D02*
X1157224D01*
X1147064Y440952D02*
Y448572D01*
Y428252D02*
Y435872D01*
Y428252D02*
X1157224D01*
Y435872D01*
X1081944Y441540D02*
Y449160D01*
X1071784D02*
X1081944D01*
X1071784Y441540D02*
Y449160D01*
Y428840D02*
Y436460D01*
Y428840D02*
X1081944D01*
Y436460D01*
X1232324Y428078D02*
Y435698D01*
X1222164Y428078D02*
X1232324D01*
X1222164D02*
Y435698D01*
Y440778D02*
Y448398D01*
X1232324D01*
Y440778D02*
Y448398D01*
X1306944Y429014D02*
Y436634D01*
X1296784Y429014D02*
X1306944D01*
X1296784D02*
Y436634D01*
Y441714D02*
Y449334D01*
X1306944D01*
Y441714D02*
Y449334D01*
X1381478Y428840D02*
Y436460D01*
X1371318Y428840D02*
X1381478D01*
X1371318D02*
Y436460D01*
Y441540D02*
Y449160D01*
X1381478D01*
Y441540D02*
Y449160D01*
X1456944Y428840D02*
Y436460D01*
X1446784Y428840D02*
X1456944D01*
X1446784D02*
Y436460D01*
Y441540D02*
Y449160D01*
X1456944D01*
Y441540D02*
Y449160D01*
X257268Y184406D02*
Y192026D01*
X247108D02*
X257268D01*
X247108Y184406D02*
Y192026D01*
Y171706D02*
Y179326D01*
Y171706D02*
X257268D01*
Y179326D01*
X207280Y184596D02*
Y192216D01*
X197120D02*
X207280D01*
X197120Y184596D02*
Y192216D01*
Y171896D02*
Y179516D01*
Y171896D02*
X207280D01*
Y179516D01*
X157308Y184928D02*
Y192548D01*
X147148D02*
X157308D01*
X147148Y184928D02*
Y192548D01*
Y172228D02*
Y179848D01*
Y172228D02*
X157308D01*
Y179848D01*
X107370Y184794D02*
Y192414D01*
X97210D02*
X107370D01*
X97210Y184794D02*
Y192414D01*
Y172094D02*
Y179714D01*
Y172094D02*
X107370D01*
Y179714D01*
X57308Y184040D02*
Y191660D01*
X47148D02*
X57308D01*
X47148Y184040D02*
Y191660D01*
Y171340D02*
Y178960D01*
Y171340D02*
X57308D01*
Y178960D01*
X507198Y184460D02*
Y192080D01*
X497038D02*
X507198D01*
X497038Y184460D02*
Y192080D01*
Y171760D02*
Y179380D01*
Y171760D02*
X507198D01*
Y179380D01*
X557308Y184834D02*
Y192454D01*
X547148D02*
X557308D01*
X547148Y184834D02*
Y192454D01*
Y172134D02*
Y179754D01*
Y172134D02*
X557308D01*
Y179754D01*
X307198Y184326D02*
Y191946D01*
X297038D02*
X307198D01*
X297038Y184326D02*
Y191946D01*
Y171626D02*
Y179246D01*
Y171626D02*
X307198D01*
Y179246D01*
X357452Y184834D02*
Y192454D01*
X347292D02*
X357452D01*
X347292Y184834D02*
Y192454D01*
Y172134D02*
Y179754D01*
Y172134D02*
X357452D01*
Y179754D01*
X407262Y184366D02*
Y191986D01*
X397102D02*
X407262D01*
X397102Y184366D02*
Y191986D01*
Y171666D02*
Y179286D01*
Y171666D02*
X407262D01*
Y179286D01*
X457452Y184339D02*
Y191959D01*
X447292D02*
X457452D01*
X447292Y184339D02*
Y191959D01*
Y171639D02*
Y179259D01*
Y171639D02*
X457452D01*
Y179259D01*
X607198Y184594D02*
Y192214D01*
X597038D02*
X607198D01*
X597038Y184594D02*
Y192214D01*
Y171894D02*
Y179514D01*
Y171894D02*
X607198D01*
Y179514D01*
X657198Y184460D02*
Y192080D01*
X647038D02*
X657198D01*
X647038Y184460D02*
Y192080D01*
Y171760D02*
Y179380D01*
Y171760D02*
X657198D01*
Y179380D01*
X707038Y184848D02*
Y192468D01*
X696879D02*
X707038D01*
X696879Y184848D02*
Y192468D01*
Y172148D02*
Y179768D01*
Y172148D02*
X707038D01*
Y179768D01*
X757174Y184460D02*
Y192080D01*
X747014D02*
X757174D01*
X747014Y184460D02*
Y192080D01*
Y171760D02*
Y179380D01*
Y171760D02*
X757174D01*
Y179380D01*
X807068Y184459D02*
Y192079D01*
X796908D02*
X807068D01*
X796908Y184459D02*
Y192079D01*
Y171759D02*
Y179379D01*
Y171759D02*
X807068D01*
Y179379D01*
X857198Y183777D02*
Y191397D01*
X847038D02*
X857198D01*
X847038Y183777D02*
Y191397D01*
Y171077D02*
Y178697D01*
Y171077D02*
X857198D01*
Y178697D01*
X1007198Y184206D02*
Y191826D01*
X997038D02*
X1007198D01*
X997038Y184206D02*
Y191826D01*
Y171506D02*
Y179126D01*
Y171506D02*
X1007198D01*
Y179126D01*
X957116Y184460D02*
Y192080D01*
X946956D02*
X957116D01*
X946956Y184460D02*
Y192080D01*
Y171760D02*
Y179380D01*
Y171760D02*
X957116D01*
Y179380D01*
X907198Y184332D02*
Y191952D01*
X897038D02*
X907198D01*
X897038Y184332D02*
Y191952D01*
Y171632D02*
Y179252D01*
Y171632D02*
X907198D01*
Y179252D01*
X1057198Y184160D02*
Y191780D01*
X1047038D02*
X1057198D01*
X1047038Y184160D02*
Y191780D01*
Y171460D02*
Y179080D01*
Y171460D02*
X1057198D01*
Y179080D01*
X1106944Y184294D02*
Y191914D01*
X1096784D02*
X1106944D01*
X1096784Y184294D02*
Y191914D01*
Y171594D02*
Y179214D01*
Y171594D02*
X1106944D01*
Y179214D01*
X1156944Y184460D02*
Y192080D01*
X1146784D02*
X1156944D01*
X1146784Y184460D02*
Y192080D01*
Y171760D02*
Y179380D01*
Y171760D02*
X1156944D01*
Y179380D01*
X1257198Y183952D02*
Y191572D01*
X1247038D02*
X1257198D01*
X1247038Y183952D02*
Y191572D01*
Y171252D02*
Y178872D01*
Y171252D02*
X1257198D01*
Y178872D01*
X1206944Y184540D02*
Y192160D01*
X1196784D02*
X1206944D01*
X1196784Y184540D02*
Y192160D01*
Y171840D02*
Y179460D01*
Y171840D02*
X1206944D01*
Y179460D01*
X1307324Y171078D02*
Y178698D01*
X1297164Y171078D02*
X1307324D01*
X1297164D02*
Y178698D01*
Y183778D02*
Y191398D01*
X1307324D01*
Y183778D02*
Y191398D01*
X1356944Y172014D02*
Y179634D01*
X1346784Y172014D02*
X1356944D01*
X1346784D02*
Y179634D01*
Y184714D02*
Y192334D01*
X1356944D01*
Y184714D02*
Y192334D01*
X1406440Y171840D02*
Y179460D01*
X1396280Y171840D02*
X1406440D01*
X1396280D02*
Y179460D01*
Y184540D02*
Y192160D01*
X1406440D01*
Y184540D02*
Y192160D01*
X1456944Y171840D02*
Y179460D01*
X1446784Y171840D02*
X1456944D01*
X1446784D02*
Y179460D01*
Y184540D02*
Y192160D01*
X1456944D01*
Y184540D02*
Y192160D01*
X1559500Y666000D02*
G03*
X1554500Y671000I-5000J0D01*
G01*
X1584500Y714640D02*
G03*
X1578140Y721000I-6360J0D01*
G01*
X0Y671000D02*
Y721000D01*
Y671000D02*
X1554500D01*
X0Y721000D02*
X1474500D01*
X1559500D01*
Y514000D02*
Y666000D01*
X1554500Y671000D02*
X1554500D01*
X1559500Y721000D02*
X1578140D01*
X1584500Y514000D02*
Y714640D01*
X1559500Y514000D02*
X1584500D01*
X1559500Y409000D02*
G03*
X1554500Y414000I-5000J0D01*
G01*
X1584500Y457640D02*
G03*
X1578140Y464000I-6360J0D01*
G01*
X0Y414000D02*
Y464000D01*
Y414000D02*
X1554500D01*
X0Y464000D02*
X1474500D01*
X1559500D01*
Y257000D02*
Y409000D01*
X1554500Y414000D02*
X1554500D01*
X1559500Y464000D02*
X1578140D01*
X1584500Y257000D02*
Y457640D01*
X1559500Y257000D02*
X1584500D01*
X1559500Y152000D02*
G03*
X1554500Y157000I-5000J0D01*
G01*
X1584500Y200640D02*
G03*
X1578140Y207000I-6360J0D01*
G01*
X0Y157000D02*
Y207000D01*
Y157000D02*
X1554500D01*
X0Y207000D02*
X1474500D01*
X1559500D01*
Y0D02*
Y152000D01*
X1554500Y157000D02*
X1554500D01*
X1559500Y207000D02*
X1578140D01*
X1584500Y0D02*
Y200640D01*
X1559500Y0D02*
X1584500D01*
D25*
X1580650Y558271D02*
G03*
X1580650Y558271I-1250J0D01*
G01*
X1580850Y301346D02*
G03*
X1580850Y301346I-1250J0D01*
G01*
X1580550Y44321D02*
G03*
X1580550Y44321I-1250J0D01*
G01*
D26*
X31722Y680351D02*
Y675062D01*
X32780Y674004D01*
X34896D01*
X35954Y675062D01*
Y680351D01*
X38070Y674004D02*
X40186D01*
X39128D01*
Y680351D01*
X38070Y679294D01*
X47592Y680351D02*
X43360D01*
Y677178D01*
X45476Y678236D01*
X46534D01*
X47592Y677178D01*
Y675062D01*
X46534Y674004D01*
X44418D01*
X43360Y675062D01*
X58052Y680056D02*
X56994Y681114D01*
X54878D01*
X53820Y680056D01*
Y675824D01*
X54878Y674766D01*
X56994D01*
X58052Y675824D01*
X60168Y674766D02*
X62284D01*
X61226D01*
Y681114D01*
X60168Y680056D01*
X69690Y681114D02*
X65458D01*
Y677940D01*
X67574Y678998D01*
X68632D01*
X69690Y677940D01*
Y675824D01*
X68632Y674766D01*
X66516D01*
X65458Y675824D01*
X1567628Y561526D02*
X1561280D01*
Y564700D01*
X1562338Y565758D01*
X1564454D01*
X1565512Y564700D01*
Y561526D01*
X1567628Y567874D02*
Y569990D01*
Y568932D01*
X1561280D01*
X1562338Y567874D01*
X134118Y679876D02*
Y674587D01*
X135176Y673529D01*
X137292D01*
X138350Y674587D01*
Y679876D01*
X140466Y673529D02*
X142582D01*
X141524D01*
Y679876D01*
X140466Y678819D01*
X148930Y673529D02*
Y679876D01*
X145756Y676703D01*
X149988D01*
X233500Y679876D02*
Y674586D01*
X234558Y673528D01*
X236674D01*
X237732Y674586D01*
Y679876D01*
X239848Y673528D02*
X241964D01*
X240906D01*
Y679876D01*
X239848Y678818D01*
X245138D02*
X246196Y679876D01*
X248312D01*
X249370Y678818D01*
Y677760D01*
X248312Y676702D01*
X247254D01*
X248312D01*
X249370Y675644D01*
Y674586D01*
X248312Y673528D01*
X246196D01*
X245138Y674586D01*
X332992Y680250D02*
Y674960D01*
X334050Y673903D01*
X336166D01*
X337224Y674960D01*
Y680250D01*
X339340Y673903D02*
X341456D01*
X340398D01*
Y680250D01*
X339340Y679192D01*
X348862Y673903D02*
X344630D01*
X348862Y678135D01*
Y679192D01*
X347804Y680250D01*
X345688D01*
X344630Y679192D01*
X436466Y679488D02*
Y674198D01*
X437524Y673140D01*
X439640D01*
X440698Y674198D01*
Y679488D01*
X442814Y673140D02*
X444930D01*
X443872D01*
Y679488D01*
X442814Y678430D01*
X448104Y673140D02*
X450220D01*
X449162D01*
Y679488D01*
X448104Y678430D01*
X533500Y679488D02*
Y674198D01*
X534558Y673140D01*
X536674D01*
X537732Y674198D01*
Y679488D01*
X539848Y673140D02*
X541964D01*
X540906D01*
Y679488D01*
X539848Y678430D01*
X545138D02*
X546196Y679488D01*
X548312D01*
X549370Y678430D01*
Y674198D01*
X548312Y673140D01*
X546196D01*
X545138Y674198D01*
Y678430D01*
X638326Y679616D02*
Y674326D01*
X639384Y673268D01*
X641500D01*
X642558Y674326D01*
Y679616D01*
X644674Y674326D02*
X645732Y673268D01*
X647848D01*
X648906Y674326D01*
Y678558D01*
X647848Y679616D01*
X645732D01*
X644674Y678558D01*
Y677500D01*
X645732Y676442D01*
X648906D01*
X739342Y680250D02*
Y674960D01*
X740400Y673902D01*
X742516D01*
X743574Y674960D01*
Y680250D01*
X745690Y679192D02*
X746748Y680250D01*
X748864D01*
X749922Y679192D01*
Y678134D01*
X748864Y677076D01*
X749922Y676018D01*
Y674960D01*
X748864Y673902D01*
X746748D01*
X745690Y674960D01*
Y676018D01*
X746748Y677076D01*
X745690Y678134D01*
Y679192D01*
X746748Y677076D02*
X748864D01*
X838834Y680504D02*
Y675214D01*
X839892Y674156D01*
X842008D01*
X843066Y675214D01*
Y680504D01*
X845182D02*
X849414D01*
Y679446D01*
X845182Y675214D01*
Y674156D01*
X938580Y679234D02*
Y673944D01*
X939638Y672886D01*
X941754D01*
X942812Y673944D01*
Y679234D01*
X949160D02*
X947044Y678176D01*
X944928Y676060D01*
Y673944D01*
X945986Y672886D01*
X948102D01*
X949160Y673944D01*
Y675002D01*
X948102Y676060D01*
X944928D01*
X1040358Y678218D02*
Y672928D01*
X1041416Y671870D01*
X1043532D01*
X1044590Y672928D01*
Y678218D01*
X1050938D02*
X1046706D01*
Y675044D01*
X1048822Y676102D01*
X1049880D01*
X1050938Y675044D01*
Y672928D01*
X1049880Y671870D01*
X1047764D01*
X1046706Y672928D01*
X158924Y678819D02*
X157866Y679876D01*
X155750D01*
X154692Y678819D01*
Y674587D01*
X155750Y673529D01*
X157866D01*
X158924Y674587D01*
X161040Y673529D02*
X163156D01*
X162098D01*
Y679876D01*
X161040Y678819D01*
X169504Y673529D02*
Y679876D01*
X166330Y676703D01*
X170562D01*
X258052Y678818D02*
X256994Y679876D01*
X254878D01*
X253820Y678818D01*
Y674586D01*
X254878Y673528D01*
X256994D01*
X258052Y674586D01*
X260168Y673528D02*
X262284D01*
X261226D01*
Y679876D01*
X260168Y678818D01*
X265458D02*
X266516Y679876D01*
X268632D01*
X269690Y678818D01*
Y677760D01*
X268632Y676702D01*
X267574D01*
X268632D01*
X269690Y675644D01*
Y674586D01*
X268632Y673528D01*
X266516D01*
X265458Y674586D01*
X358306Y679446D02*
X357248Y680504D01*
X355132D01*
X354074Y679446D01*
Y675214D01*
X355132Y674156D01*
X357248D01*
X358306Y675214D01*
X360422Y674156D02*
X362538D01*
X361480D01*
Y680504D01*
X360422Y679446D01*
X369944Y674156D02*
X365712D01*
X369944Y678389D01*
Y679446D01*
X368886Y680504D01*
X366770D01*
X365712Y679446D01*
X458732Y678938D02*
X457674Y679996D01*
X455558D01*
X454500Y678938D01*
Y674706D01*
X455558Y673648D01*
X457674D01*
X458732Y674706D01*
X460848Y673648D02*
X462964D01*
X461906D01*
Y679996D01*
X460848Y678938D01*
X466138Y673648D02*
X468254D01*
X467196D01*
Y679996D01*
X466138Y678938D01*
X558814Y678684D02*
X557756Y679742D01*
X555640D01*
X554582Y678684D01*
Y674452D01*
X555640Y673394D01*
X557756D01*
X558814Y674452D01*
X560930Y673394D02*
X563046D01*
X561988D01*
Y679742D01*
X560930Y678684D01*
X566220D02*
X567278Y679742D01*
X569394D01*
X570452Y678684D01*
Y674452D01*
X569394Y673394D01*
X567278D01*
X566220Y674452D01*
Y678684D01*
X658052Y678812D02*
X656994Y679870D01*
X654878D01*
X653820Y678812D01*
Y674580D01*
X654878Y673522D01*
X656994D01*
X658052Y674580D01*
X660168D02*
X661226Y673522D01*
X663342D01*
X664400Y674580D01*
Y678812D01*
X663342Y679870D01*
X661226D01*
X660168Y678812D01*
Y677754D01*
X661226Y676696D01*
X664400D01*
X758306Y678938D02*
X757248Y679996D01*
X755132D01*
X754074Y678938D01*
Y674706D01*
X755132Y673648D01*
X757248D01*
X758306Y674706D01*
X760422Y678938D02*
X761480Y679996D01*
X763596D01*
X764654Y678938D01*
Y677880D01*
X763596Y676822D01*
X764654Y675764D01*
Y674706D01*
X763596Y673648D01*
X761480D01*
X760422Y674706D01*
Y675764D01*
X761480Y676822D01*
X760422Y677880D01*
Y678938D01*
X761480Y676822D02*
X763596D01*
X858560Y679192D02*
X857502Y680250D01*
X855386D01*
X854328Y679192D01*
Y674960D01*
X855386Y673902D01*
X857502D01*
X858560Y674960D01*
X860676Y680250D02*
X864908D01*
Y679192D01*
X860676Y674960D01*
Y673902D01*
X957544Y678176D02*
X956486Y679234D01*
X954370D01*
X953312Y678176D01*
Y673944D01*
X954370Y672886D01*
X956486D01*
X957544Y673944D01*
X963892Y679234D02*
X961776Y678176D01*
X959660Y676060D01*
Y673944D01*
X960718Y672886D01*
X962834D01*
X963892Y673944D01*
Y675002D01*
X962834Y676060D01*
X959660D01*
X1058560Y677160D02*
X1057502Y678218D01*
X1055386D01*
X1054328Y677160D01*
Y672928D01*
X1055386Y671870D01*
X1057502D01*
X1058560Y672928D01*
X1064908Y678218D02*
X1060676D01*
Y675044D01*
X1062792Y676102D01*
X1063850D01*
X1064908Y675044D01*
Y672928D01*
X1063850Y671870D01*
X1061734D01*
X1060676Y672928D01*
X1139214Y679060D02*
Y673770D01*
X1140272Y672712D01*
X1142388D01*
X1143446Y673770D01*
Y679060D01*
X1148736Y672712D02*
Y679060D01*
X1145562Y675886D01*
X1149794D01*
X1237742Y680504D02*
Y675214D01*
X1238800Y674156D01*
X1240916D01*
X1241974Y675214D01*
Y680504D01*
X1244090Y679446D02*
X1245148Y680504D01*
X1247264D01*
X1248322Y679446D01*
Y678388D01*
X1247264Y677330D01*
X1246206D01*
X1247264D01*
X1248322Y676272D01*
Y675214D01*
X1247264Y674156D01*
X1245148D01*
X1244090Y675214D01*
X1338114Y680758D02*
Y675468D01*
X1339172Y674410D01*
X1341288D01*
X1342346Y675468D01*
Y680758D01*
X1348694Y674410D02*
X1344462D01*
X1348694Y678642D01*
Y679700D01*
X1347636Y680758D01*
X1345520D01*
X1344462Y679700D01*
X1441628Y680250D02*
Y674960D01*
X1442686Y673902D01*
X1444802D01*
X1445860Y674960D01*
Y680250D01*
X1447976Y673902D02*
X1450092D01*
X1449034D01*
Y680250D01*
X1447976Y679192D01*
X1158432Y678256D02*
X1157374Y679314D01*
X1155258D01*
X1154200Y678256D01*
Y674024D01*
X1155258Y672966D01*
X1157374D01*
X1158432Y674024D01*
X1163722Y672966D02*
Y679314D01*
X1160548Y676140D01*
X1164780D01*
X1258230Y679446D02*
X1257172Y680504D01*
X1255056D01*
X1253998Y679446D01*
Y675214D01*
X1255056Y674156D01*
X1257172D01*
X1258230Y675214D01*
X1260346Y679446D02*
X1261404Y680504D01*
X1263520D01*
X1264578Y679446D01*
Y678388D01*
X1263520Y677330D01*
X1262462D01*
X1263520D01*
X1264578Y676272D01*
Y675214D01*
X1263520Y674156D01*
X1261404D01*
X1260346Y675214D01*
X1357840Y679700D02*
X1356782Y680758D01*
X1354666D01*
X1353608Y679700D01*
Y675468D01*
X1354666Y674410D01*
X1356782D01*
X1357840Y675468D01*
X1364188Y674410D02*
X1359956D01*
X1364188Y678642D01*
Y679700D01*
X1363130Y680758D01*
X1361014D01*
X1359956Y679700D01*
X1459386Y679946D02*
X1458328Y681004D01*
X1456212D01*
X1455154Y679946D01*
Y675714D01*
X1456212Y674656D01*
X1458328D01*
X1459386Y675714D01*
X1461502Y674656D02*
X1463618D01*
X1462560D01*
Y681004D01*
X1461502Y679946D01*
X1567628Y304526D02*
X1561280D01*
Y307700D01*
X1562338Y308758D01*
X1564454D01*
X1565512Y307700D01*
Y304526D01*
X1567628Y310874D02*
Y312990D01*
Y311932D01*
X1561280D01*
X1562338Y310874D01*
X76320Y422608D02*
Y417318D01*
X77378Y416260D01*
X79494D01*
X80552Y417318D01*
Y422608D01*
X82668Y416260D02*
X84784D01*
X83726D01*
Y422608D01*
X82668Y421550D01*
X87958Y417318D02*
X89016Y416260D01*
X91132D01*
X92190Y417318D01*
Y421550D01*
X91132Y422608D01*
X89016D01*
X87958Y421550D01*
Y420492D01*
X89016Y419434D01*
X92190D01*
X151210Y422622D02*
Y417332D01*
X152268Y416274D01*
X154384D01*
X155442Y417332D01*
Y422622D01*
X157558Y416274D02*
X159674D01*
X158616D01*
Y422622D01*
X157558Y421564D01*
X162848D02*
X163906Y422622D01*
X166022D01*
X167080Y421564D01*
Y420506D01*
X166022Y419448D01*
X167080Y418390D01*
Y417332D01*
X166022Y416274D01*
X163906D01*
X162848Y417332D01*
Y418390D01*
X163906Y419448D01*
X162848Y420506D01*
Y421564D01*
X163906Y419448D02*
X166022D01*
X225448Y422488D02*
Y417198D01*
X226506Y416140D01*
X228622D01*
X229680Y417198D01*
Y422488D01*
X231796Y416140D02*
X233912D01*
X232854D01*
Y422488D01*
X231796Y421430D01*
X237086Y422488D02*
X241318D01*
Y421430D01*
X237086Y417198D01*
Y416140D01*
X300542Y423384D02*
Y418094D01*
X301600Y417036D01*
X303716D01*
X304774Y418094D01*
Y423384D01*
X306890Y417036D02*
X309006D01*
X307948D01*
Y423384D01*
X306890Y422326D01*
X316412Y423384D02*
X314296Y422326D01*
X312180Y420210D01*
Y418094D01*
X313238Y417036D01*
X315354D01*
X316412Y418094D01*
Y419152D01*
X315354Y420210D01*
X312180D01*
X375702Y423250D02*
Y417960D01*
X376760Y416902D01*
X378876D01*
X379934Y417960D01*
Y423250D01*
X382050Y416902D02*
X384166D01*
X383108D01*
Y423250D01*
X382050Y422192D01*
X391572Y423250D02*
X387340D01*
Y420076D01*
X389456Y421134D01*
X390514D01*
X391572Y420076D01*
Y417960D01*
X390514Y416902D01*
X388398D01*
X387340Y417960D01*
X451828Y422876D02*
Y417586D01*
X452886Y416528D01*
X455002D01*
X456060Y417586D01*
Y422876D01*
X458176Y416528D02*
X460292D01*
X459234D01*
Y422876D01*
X458176Y421818D01*
X466640Y416528D02*
Y422876D01*
X463466Y419702D01*
X467698D01*
X526210Y422876D02*
Y417586D01*
X527268Y416528D01*
X529384D01*
X530442Y417586D01*
Y422876D01*
X532558Y416528D02*
X534674D01*
X533616D01*
Y422876D01*
X532558Y421818D01*
X537848D02*
X538906Y422876D01*
X541022D01*
X542080Y421818D01*
Y420760D01*
X541022Y419702D01*
X539964D01*
X541022D01*
X542080Y418644D01*
Y417586D01*
X541022Y416528D01*
X538906D01*
X537848Y417586D01*
X600702Y423250D02*
Y417960D01*
X601760Y416902D01*
X603876D01*
X604934Y417960D01*
Y423250D01*
X607050Y416902D02*
X609166D01*
X608108D01*
Y423250D01*
X607050Y422192D01*
X616572Y416902D02*
X612340D01*
X616572Y421134D01*
Y422192D01*
X615514Y423250D01*
X613398D01*
X612340Y422192D01*
X679176Y422488D02*
Y417198D01*
X680234Y416140D01*
X682350D01*
X683408Y417198D01*
Y422488D01*
X685524Y416140D02*
X687640D01*
X686582D01*
Y422488D01*
X685524Y421430D01*
X690814Y416140D02*
X692930D01*
X691872D01*
Y422488D01*
X690814Y421430D01*
X751210Y422488D02*
Y417198D01*
X752268Y416140D01*
X754384D01*
X755442Y417198D01*
Y422488D01*
X757558Y416140D02*
X759674D01*
X758616D01*
Y422488D01*
X757558Y421430D01*
X762848D02*
X763906Y422488D01*
X766022D01*
X767080Y421430D01*
Y417198D01*
X766022Y416140D01*
X763906D01*
X762848Y417198D01*
Y421430D01*
X831036Y422616D02*
Y417326D01*
X832094Y416268D01*
X834210D01*
X835268Y417326D01*
Y422616D01*
X837384Y417326D02*
X838442Y416268D01*
X840558D01*
X841616Y417326D01*
Y421558D01*
X840558Y422616D01*
X838442D01*
X837384Y421558D01*
Y420500D01*
X838442Y419442D01*
X841616D01*
X907052Y423250D02*
Y417960D01*
X908110Y416902D01*
X910226D01*
X911284Y417960D01*
Y423250D01*
X913400Y422192D02*
X914458Y423250D01*
X916574D01*
X917632Y422192D01*
Y421134D01*
X916574Y420076D01*
X917632Y419018D01*
Y417960D01*
X916574Y416902D01*
X914458D01*
X913400Y417960D01*
Y419018D01*
X914458Y420076D01*
X913400Y421134D01*
Y422192D01*
X914458Y420076D02*
X916574D01*
X981544Y423504D02*
Y418214D01*
X982602Y417156D01*
X984718D01*
X985776Y418214D01*
Y423504D01*
X987892D02*
X992124D01*
Y422446D01*
X987892Y418214D01*
Y417156D01*
X1056290Y422234D02*
Y416944D01*
X1057348Y415886D01*
X1059464D01*
X1060522Y416944D01*
Y422234D01*
X1066870D02*
X1064754Y421176D01*
X1062638Y419060D01*
Y416944D01*
X1063696Y415886D01*
X1065812D01*
X1066870Y416944D01*
Y418002D01*
X1065812Y419060D01*
X1062638D01*
X1133094Y421218D02*
Y415928D01*
X1134152Y414870D01*
X1136268D01*
X1137326Y415928D01*
Y421218D01*
X1143674D02*
X1139442D01*
Y418044D01*
X1141558Y419102D01*
X1142616D01*
X1143674Y418044D01*
Y415928D01*
X1142616Y414870D01*
X1140500D01*
X1139442Y415928D01*
X100872Y422312D02*
X99814Y423370D01*
X97698D01*
X96640Y422312D01*
Y418080D01*
X97698Y417022D01*
X99814D01*
X100872Y418080D01*
X102988Y417022D02*
X105104D01*
X104046D01*
Y423370D01*
X102988Y422312D01*
X108278Y418080D02*
X109336Y417022D01*
X111452D01*
X112510Y418080D01*
Y422312D01*
X111452Y423370D01*
X109336D01*
X108278Y422312D01*
Y421254D01*
X109336Y420196D01*
X112510D01*
X175508Y421310D02*
X174450Y422368D01*
X172334D01*
X171276Y421310D01*
Y417078D01*
X172334Y416020D01*
X174450D01*
X175508Y417078D01*
X177624Y416020D02*
X179740D01*
X178682D01*
Y422368D01*
X177624Y421310D01*
X182914D02*
X183972Y422368D01*
X186088D01*
X187146Y421310D01*
Y420252D01*
X186088Y419194D01*
X187146Y418136D01*
Y417078D01*
X186088Y416020D01*
X183972D01*
X182914Y417078D01*
Y418136D01*
X183972Y419194D01*
X182914Y420252D01*
Y421310D01*
X183972Y419194D02*
X186088D01*
X251524Y421684D02*
X250466Y422742D01*
X248350D01*
X247292Y421684D01*
Y417452D01*
X248350Y416394D01*
X250466D01*
X251524Y417452D01*
X253640Y416394D02*
X255756D01*
X254698D01*
Y422742D01*
X253640Y421684D01*
X258930Y422742D02*
X263162D01*
Y421684D01*
X258930Y417452D01*
Y416394D01*
X326364Y422580D02*
X325306Y423638D01*
X323190D01*
X322132Y422580D01*
Y418348D01*
X323190Y417290D01*
X325306D01*
X326364Y418348D01*
X328480Y417290D02*
X330596D01*
X329538D01*
Y423638D01*
X328480Y422580D01*
X338002Y423638D02*
X335886Y422580D01*
X333770Y420464D01*
Y418348D01*
X334828Y417290D01*
X336944D01*
X338002Y418348D01*
Y419406D01*
X336944Y420464D01*
X333770D01*
X400762Y422192D02*
X399704Y423250D01*
X397588D01*
X396530Y422192D01*
Y417960D01*
X397588Y416902D01*
X399704D01*
X400762Y417960D01*
X402878Y416902D02*
X404994D01*
X403936D01*
Y423250D01*
X402878Y422192D01*
X412400Y423250D02*
X408168D01*
Y420076D01*
X410284Y421134D01*
X411342D01*
X412400Y420076D01*
Y417960D01*
X411342Y416902D01*
X409226D01*
X408168Y417960D01*
X476634Y421818D02*
X475576Y422876D01*
X473460D01*
X472402Y421818D01*
Y417586D01*
X473460Y416528D01*
X475576D01*
X476634Y417586D01*
X478750Y416528D02*
X480866D01*
X479808D01*
Y422876D01*
X478750Y421818D01*
X487214Y416528D02*
Y422876D01*
X484040Y419702D01*
X488272D01*
X550762Y421818D02*
X549704Y422876D01*
X547588D01*
X546530Y421818D01*
Y417586D01*
X547588Y416528D01*
X549704D01*
X550762Y417586D01*
X552878Y416528D02*
X554994D01*
X553936D01*
Y422876D01*
X552878Y421818D01*
X558168D02*
X559226Y422876D01*
X561342D01*
X562400Y421818D01*
Y420760D01*
X561342Y419702D01*
X560284D01*
X561342D01*
X562400Y418644D01*
Y417586D01*
X561342Y416528D01*
X559226D01*
X558168Y417586D01*
X626016Y422446D02*
X624958Y423504D01*
X622842D01*
X621784Y422446D01*
Y418214D01*
X622842Y417156D01*
X624958D01*
X626016Y418214D01*
X628132Y417156D02*
X630248D01*
X629190D01*
Y423504D01*
X628132Y422446D01*
X637654Y417156D02*
X633422D01*
X637654Y421388D01*
Y422446D01*
X636596Y423504D01*
X634480D01*
X633422Y422446D01*
X701442Y421938D02*
X700384Y422996D01*
X698268D01*
X697210Y421938D01*
Y417706D01*
X698268Y416648D01*
X700384D01*
X701442Y417706D01*
X703558Y416648D02*
X705674D01*
X704616D01*
Y422996D01*
X703558Y421938D01*
X708848Y416648D02*
X710964D01*
X709906D01*
Y422996D01*
X708848Y421938D01*
X776524Y421684D02*
X775466Y422742D01*
X773350D01*
X772292Y421684D01*
Y417452D01*
X773350Y416394D01*
X775466D01*
X776524Y417452D01*
X778640Y416394D02*
X780756D01*
X779698D01*
Y422742D01*
X778640Y421684D01*
X783930D02*
X784988Y422742D01*
X787104D01*
X788162Y421684D01*
Y417452D01*
X787104Y416394D01*
X784988D01*
X783930Y417452D01*
Y421684D01*
X850762Y421812D02*
X849704Y422870D01*
X847588D01*
X846530Y421812D01*
Y417580D01*
X847588Y416522D01*
X849704D01*
X850762Y417580D01*
X852878D02*
X853936Y416522D01*
X856052D01*
X857110Y417580D01*
Y421812D01*
X856052Y422870D01*
X853936D01*
X852878Y421812D01*
Y420754D01*
X853936Y419696D01*
X857110D01*
X926016Y421938D02*
X924958Y422996D01*
X922842D01*
X921784Y421938D01*
Y417706D01*
X922842Y416648D01*
X924958D01*
X926016Y417706D01*
X928132Y421938D02*
X929190Y422996D01*
X931306D01*
X932364Y421938D01*
Y420880D01*
X931306Y419822D01*
X932364Y418764D01*
Y417706D01*
X931306Y416648D01*
X929190D01*
X928132Y417706D01*
Y418764D01*
X929190Y419822D01*
X928132Y420880D01*
Y421938D01*
X929190Y419822D02*
X931306D01*
X1001270Y422192D02*
X1000212Y423250D01*
X998096D01*
X997038Y422192D01*
Y417960D01*
X998096Y416902D01*
X1000212D01*
X1001270Y417960D01*
X1003386Y423250D02*
X1007618D01*
Y422192D01*
X1003386Y417960D01*
Y416902D01*
X1075254Y421176D02*
X1074196Y422234D01*
X1072080D01*
X1071022Y421176D01*
Y416944D01*
X1072080Y415886D01*
X1074196D01*
X1075254Y416944D01*
X1081602Y422234D02*
X1079486Y421176D01*
X1077370Y419060D01*
Y416944D01*
X1078428Y415886D01*
X1080544D01*
X1081602Y416944D01*
Y418002D01*
X1080544Y419060D01*
X1077370D01*
X1151296Y420160D02*
X1150238Y421218D01*
X1148122D01*
X1147064Y420160D01*
Y415928D01*
X1148122Y414870D01*
X1150238D01*
X1151296Y415928D01*
X1157644Y421218D02*
X1153412D01*
Y418044D01*
X1155528Y419102D01*
X1156586D01*
X1157644Y418044D01*
Y415928D01*
X1156586Y414870D01*
X1154470D01*
X1153412Y415928D01*
X1206924Y422060D02*
Y416770D01*
X1207982Y415712D01*
X1210098D01*
X1211156Y416770D01*
Y422060D01*
X1216446Y415712D02*
Y422060D01*
X1213272Y418886D01*
X1217504D01*
X1280452Y423504D02*
Y418214D01*
X1281510Y417156D01*
X1283626D01*
X1284684Y418214D01*
Y423504D01*
X1286800Y422446D02*
X1287858Y423504D01*
X1289974D01*
X1291032Y422446D01*
Y421388D01*
X1289974Y420330D01*
X1288916D01*
X1289974D01*
X1291032Y419272D01*
Y418214D01*
X1289974Y417156D01*
X1287858D01*
X1286800Y418214D01*
X1355824Y423758D02*
Y418468D01*
X1356882Y417410D01*
X1358998D01*
X1360056Y418468D01*
Y423758D01*
X1366404Y417410D02*
X1362172D01*
X1366404Y421642D01*
Y422700D01*
X1365346Y423758D01*
X1363230D01*
X1362172Y422700D01*
X1434338Y423250D02*
Y417960D01*
X1435396Y416902D01*
X1437512D01*
X1438570Y417960D01*
Y423250D01*
X1440686Y416902D02*
X1442802D01*
X1441744D01*
Y423250D01*
X1440686Y422192D01*
X1226142Y421256D02*
X1225084Y422314D01*
X1222968D01*
X1221910Y421256D01*
Y417024D01*
X1222968Y415966D01*
X1225084D01*
X1226142Y417024D01*
X1231432Y415966D02*
Y422314D01*
X1228258Y419140D01*
X1232490D01*
X1300940Y422446D02*
X1299882Y423504D01*
X1297766D01*
X1296708Y422446D01*
Y418214D01*
X1297766Y417156D01*
X1299882D01*
X1300940Y418214D01*
X1303056Y422446D02*
X1304114Y423504D01*
X1306230D01*
X1307288Y422446D01*
Y421388D01*
X1306230Y420330D01*
X1305172D01*
X1306230D01*
X1307288Y419272D01*
Y418214D01*
X1306230Y417156D01*
X1304114D01*
X1303056Y418214D01*
X1375550Y422700D02*
X1374492Y423758D01*
X1372376D01*
X1371318Y422700D01*
Y418468D01*
X1372376Y417410D01*
X1374492D01*
X1375550Y418468D01*
X1381898Y417410D02*
X1377666D01*
X1381898Y421642D01*
Y422700D01*
X1380840Y423758D01*
X1378724D01*
X1377666Y422700D01*
X1452096Y422946D02*
X1451038Y424004D01*
X1448922D01*
X1447864Y422946D01*
Y418714D01*
X1448922Y417656D01*
X1451038D01*
X1452096Y418714D01*
X1454212Y417656D02*
X1456328D01*
X1455270D01*
Y424004D01*
X1454212Y422946D01*
X1567628Y47526D02*
X1561280D01*
Y50700D01*
X1562338Y51758D01*
X1564454D01*
X1565512Y50700D01*
Y47526D01*
X1567628Y53874D02*
Y55990D01*
Y54932D01*
X1561280D01*
X1562338Y53874D01*
X24034Y165496D02*
Y160206D01*
X25092Y159148D01*
X27208D01*
X28266Y160206D01*
Y165496D01*
X34614Y159148D02*
X30382D01*
X34614Y163380D01*
Y164438D01*
X33556Y165496D01*
X31440D01*
X30382Y164438D01*
X36730Y160206D02*
X37788Y159148D01*
X39904D01*
X40962Y160206D01*
Y164438D01*
X39904Y165496D01*
X37788D01*
X36730Y164438D01*
Y163380D01*
X37788Y162322D01*
X40962D01*
X74687Y165996D02*
Y160706D01*
X75745Y159648D01*
X77861D01*
X78919Y160706D01*
Y165996D01*
X85267Y159648D02*
X81035D01*
X85267Y163880D01*
Y164938D01*
X84209Y165996D01*
X82093D01*
X81035Y164938D01*
X87383D02*
X88441Y165996D01*
X90557D01*
X91615Y164938D01*
Y163880D01*
X90557Y162822D01*
X91615Y161764D01*
Y160706D01*
X90557Y159648D01*
X88441D01*
X87383Y160706D01*
Y161764D01*
X88441Y162822D01*
X87383Y163880D01*
Y164938D01*
X88441Y162822D02*
X90557D01*
X125050Y165876D02*
Y160586D01*
X126108Y159528D01*
X128224D01*
X129282Y160586D01*
Y165876D01*
X135630Y159528D02*
X131398D01*
X135630Y163760D01*
Y164818D01*
X134572Y165876D01*
X132456D01*
X131398Y164818D01*
X137746Y165876D02*
X141978D01*
Y164818D01*
X137746Y160586D01*
Y159528D01*
X175022Y165488D02*
Y160198D01*
X176080Y159140D01*
X178196D01*
X179254Y160198D01*
Y165488D01*
X185602Y159140D02*
X181370D01*
X185602Y163372D01*
Y164430D01*
X184544Y165488D01*
X182428D01*
X181370Y164430D01*
X191950Y165488D02*
X189834Y164430D01*
X187718Y162314D01*
Y160198D01*
X188776Y159140D01*
X190892D01*
X191950Y160198D01*
Y161256D01*
X190892Y162314D01*
X187718D01*
X225010Y166116D02*
Y160826D01*
X226068Y159768D01*
X228184D01*
X229242Y160826D01*
Y166116D01*
X235590Y159768D02*
X231358D01*
X235590Y164000D01*
Y165058D01*
X234532Y166116D01*
X232416D01*
X231358Y165058D01*
X241938Y166116D02*
X237706D01*
Y162942D01*
X239822Y164000D01*
X240880D01*
X241938Y162942D01*
Y160826D01*
X240880Y159768D01*
X238764D01*
X237706Y160826D01*
X275194Y166116D02*
Y160826D01*
X276252Y159768D01*
X278368D01*
X279426Y160826D01*
Y166116D01*
X285774Y159768D02*
X281542D01*
X285774Y164000D01*
Y165058D01*
X284716Y166116D01*
X282600D01*
X281542Y165058D01*
X291064Y159768D02*
Y166116D01*
X287890Y162942D01*
X292122D01*
X324940Y165862D02*
Y160572D01*
X325998Y159514D01*
X328114D01*
X329172Y160572D01*
Y165862D01*
X335520Y159514D02*
X331288D01*
X335520Y163746D01*
Y164804D01*
X334462Y165862D01*
X332346D01*
X331288Y164804D01*
X337636D02*
X338694Y165862D01*
X340810D01*
X341868Y164804D01*
Y163746D01*
X340810Y162688D01*
X339752D01*
X340810D01*
X341868Y161630D01*
Y160572D01*
X340810Y159514D01*
X338694D01*
X337636Y160572D01*
X373416Y165996D02*
Y160706D01*
X374474Y159648D01*
X376590D01*
X377648Y160706D01*
Y165996D01*
X383996Y159648D02*
X379764D01*
X383996Y163880D01*
Y164938D01*
X382938Y165996D01*
X380822D01*
X379764Y164938D01*
X390344Y159648D02*
X386112D01*
X390344Y163880D01*
Y164938D01*
X389286Y165996D01*
X387170D01*
X386112Y164938D01*
X426464Y165742D02*
Y160452D01*
X427522Y159394D01*
X429638D01*
X430696Y160452D01*
Y165742D01*
X437044Y159394D02*
X432812D01*
X437044Y163626D01*
Y164684D01*
X435986Y165742D01*
X433870D01*
X432812Y164684D01*
X439160Y159394D02*
X441276D01*
X440218D01*
Y165742D01*
X439160Y164684D01*
X474940Y165742D02*
Y160452D01*
X475998Y159394D01*
X478114D01*
X479172Y160452D01*
Y165742D01*
X485520Y159394D02*
X481288D01*
X485520Y163626D01*
Y164684D01*
X484462Y165742D01*
X482346D01*
X481288Y164684D01*
X487636D02*
X488694Y165742D01*
X490810D01*
X491868Y164684D01*
Y160452D01*
X490810Y159394D01*
X488694D01*
X487636Y160452D01*
Y164684D01*
X526320Y165608D02*
Y160318D01*
X527378Y159260D01*
X529494D01*
X530552Y160318D01*
Y165608D01*
X532668Y159260D02*
X534784D01*
X533726D01*
Y165608D01*
X532668Y164550D01*
X537958Y160318D02*
X539016Y159260D01*
X541132D01*
X542190Y160318D01*
Y164550D01*
X541132Y165608D01*
X539016D01*
X537958Y164550D01*
Y163492D01*
X539016Y162434D01*
X542190D01*
X576210Y165622D02*
Y160332D01*
X577268Y159274D01*
X579384D01*
X580442Y160332D01*
Y165622D01*
X582558Y159274D02*
X584674D01*
X583616D01*
Y165622D01*
X582558Y164564D01*
X587848D02*
X588906Y165622D01*
X591022D01*
X592080Y164564D01*
Y163506D01*
X591022Y162448D01*
X592080Y161390D01*
Y160332D01*
X591022Y159274D01*
X588906D01*
X587848Y160332D01*
Y161390D01*
X588906Y162448D01*
X587848Y163506D01*
Y164564D01*
X588906Y162448D02*
X591022D01*
X625448Y165488D02*
Y160198D01*
X626506Y159140D01*
X628622D01*
X629680Y160198D01*
Y165488D01*
X631796Y159140D02*
X633912D01*
X632854D01*
Y165488D01*
X631796Y164430D01*
X637086Y165488D02*
X641318D01*
Y164430D01*
X637086Y160198D01*
Y159140D01*
X675543Y166384D02*
Y161094D01*
X676600Y160036D01*
X678717D01*
X679774Y161094D01*
Y166384D01*
X681890Y160036D02*
X684007D01*
X682949D01*
Y166384D01*
X681890Y165326D01*
X691412Y166384D02*
X689296Y165326D01*
X687180Y163210D01*
Y161094D01*
X688238Y160036D01*
X690354D01*
X691412Y161094D01*
Y162152D01*
X690354Y163210D01*
X687180D01*
X725678Y166250D02*
Y160960D01*
X726736Y159902D01*
X728852D01*
X729910Y160960D01*
Y166250D01*
X732026Y159902D02*
X734142D01*
X733084D01*
Y166250D01*
X732026Y165192D01*
X741548Y166250D02*
X737316D01*
Y163076D01*
X739432Y164134D01*
X740490D01*
X741548Y163076D01*
Y160960D01*
X740490Y159902D01*
X738374D01*
X737316Y160960D01*
X776842Y165876D02*
Y160586D01*
X777900Y159528D01*
X780016D01*
X781074Y160586D01*
Y165876D01*
X783190Y159528D02*
X785306D01*
X784248D01*
Y165876D01*
X783190Y164818D01*
X791654Y159528D02*
Y165876D01*
X788480Y162702D01*
X792712D01*
X826210Y165876D02*
Y160586D01*
X827268Y159528D01*
X829384D01*
X830442Y160586D01*
Y165876D01*
X832558Y159528D02*
X834674D01*
X833616D01*
Y165876D01*
X832558Y164818D01*
X837848D02*
X838906Y165876D01*
X841022D01*
X842080Y164818D01*
Y163760D01*
X841022Y162702D01*
X839964D01*
X841022D01*
X842080Y161644D01*
Y160586D01*
X841022Y159528D01*
X838906D01*
X837848Y160586D01*
X875702Y166250D02*
Y160960D01*
X876760Y159902D01*
X878876D01*
X879934Y160960D01*
Y166250D01*
X882050Y159902D02*
X884166D01*
X883108D01*
Y166250D01*
X882050Y165192D01*
X891572Y159902D02*
X887340D01*
X891572Y164134D01*
Y165192D01*
X890514Y166250D01*
X888398D01*
X887340Y165192D01*
X929176Y165488D02*
Y160198D01*
X930234Y159140D01*
X932350D01*
X933408Y160198D01*
Y165488D01*
X935524Y159140D02*
X937640D01*
X936582D01*
Y165488D01*
X935524Y164430D01*
X940814Y159140D02*
X942930D01*
X941872D01*
Y165488D01*
X940814Y164430D01*
X976210Y165488D02*
Y160198D01*
X977268Y159140D01*
X979384D01*
X980442Y160198D01*
Y165488D01*
X982558Y159140D02*
X984674D01*
X983616D01*
Y165488D01*
X982558Y164430D01*
X987848D02*
X988906Y165488D01*
X991022D01*
X992080Y164430D01*
Y160198D01*
X991022Y159140D01*
X988906D01*
X987848Y160198D01*
Y164430D01*
X1031036Y165616D02*
Y160326D01*
X1032094Y159268D01*
X1034210D01*
X1035268Y160326D01*
Y165616D01*
X1037384Y160326D02*
X1038442Y159268D01*
X1040558D01*
X1041616Y160326D01*
Y164558D01*
X1040558Y165616D01*
X1038442D01*
X1037384Y164558D01*
Y163500D01*
X1038442Y162442D01*
X1041616D01*
X1082052Y166250D02*
Y160960D01*
X1083110Y159902D01*
X1085226D01*
X1086284Y160960D01*
Y166250D01*
X1088400Y165192D02*
X1089458Y166250D01*
X1091574D01*
X1092632Y165192D01*
Y164134D01*
X1091574Y163076D01*
X1092632Y162018D01*
Y160960D01*
X1091574Y159902D01*
X1089458D01*
X1088400Y160960D01*
Y162018D01*
X1089458Y163076D01*
X1088400Y164134D01*
Y165192D01*
X1089458Y163076D02*
X1091574D01*
X1131544Y166504D02*
Y161214D01*
X1132602Y160156D01*
X1134718D01*
X1135776Y161214D01*
Y166504D01*
X1137892D02*
X1142124D01*
Y165446D01*
X1137892Y161214D01*
Y160156D01*
X1181290Y165234D02*
Y159944D01*
X1182348Y158886D01*
X1184464D01*
X1185522Y159944D01*
Y165234D01*
X1191870D02*
X1189754Y164176D01*
X1187638Y162060D01*
Y159944D01*
X1188696Y158886D01*
X1190812D01*
X1191870Y159944D01*
Y161002D01*
X1190812Y162060D01*
X1187638D01*
X1233068Y164218D02*
Y158928D01*
X1234126Y157870D01*
X1236242D01*
X1237300Y158928D01*
Y164218D01*
X1243648D02*
X1239416D01*
Y161044D01*
X1241532Y162102D01*
X1242590D01*
X1243648Y161044D01*
Y158928D01*
X1242590Y157870D01*
X1240474D01*
X1239416Y158928D01*
X50618Y164692D02*
X49560Y165750D01*
X47444D01*
X46386Y164692D01*
Y160460D01*
X47444Y159402D01*
X49560D01*
X50618Y160460D01*
X56966Y159402D02*
X52734D01*
X56966Y163634D01*
Y164692D01*
X55908Y165750D01*
X53792D01*
X52734Y164692D01*
X59082Y160460D02*
X60140Y159402D01*
X62256D01*
X63314Y160460D01*
Y164692D01*
X62256Y165750D01*
X60140D01*
X59082Y164692D01*
Y163634D01*
X60140Y162576D01*
X63314D01*
X100426Y164938D02*
X99368Y165996D01*
X97252D01*
X96194Y164938D01*
Y160706D01*
X97252Y159648D01*
X99368D01*
X100426Y160706D01*
X106774Y159648D02*
X102542D01*
X106774Y163880D01*
Y164938D01*
X105716Y165996D01*
X103600D01*
X102542Y164938D01*
X108890D02*
X109948Y165996D01*
X112064D01*
X113122Y164938D01*
Y163880D01*
X112064Y162822D01*
X113122Y161764D01*
Y160706D01*
X112064Y159648D01*
X109948D01*
X108890Y160706D01*
Y161764D01*
X109948Y162822D01*
X108890Y163880D01*
Y164938D01*
X109948Y162822D02*
X112064D01*
X150872Y164564D02*
X149814Y165622D01*
X147698D01*
X146640Y164564D01*
Y160332D01*
X147698Y159274D01*
X149814D01*
X150872Y160332D01*
X157220Y159274D02*
X152988D01*
X157220Y163506D01*
Y164564D01*
X156162Y165622D01*
X154046D01*
X152988Y164564D01*
X159336Y165622D02*
X163568D01*
Y164564D01*
X159336Y160332D01*
Y159274D01*
X200844Y164430D02*
X199786Y165488D01*
X197670D01*
X196612Y164430D01*
Y160198D01*
X197670Y159140D01*
X199786D01*
X200844Y160198D01*
X207192Y159140D02*
X202960D01*
X207192Y163372D01*
Y164430D01*
X206134Y165488D01*
X204018D01*
X202960Y164430D01*
X213540Y165488D02*
X211424Y164430D01*
X209308Y162314D01*
Y160198D01*
X210366Y159140D01*
X212482D01*
X213540Y160198D01*
Y161256D01*
X212482Y162314D01*
X209308D01*
X251390Y164804D02*
X250331Y165862D01*
X248216D01*
X247157Y164804D01*
Y160572D01*
X248216Y159514D01*
X250331D01*
X251390Y160572D01*
X257738Y159514D02*
X253505D01*
X257738Y163746D01*
Y164804D01*
X256679Y165862D01*
X254564D01*
X253505Y164804D01*
X264085Y165862D02*
X259853D01*
Y162688D01*
X261969Y163746D01*
X263027D01*
X264085Y162688D01*
Y160572D01*
X263027Y159514D01*
X260911D01*
X259853Y160572D01*
X301270Y165566D02*
X300212Y166624D01*
X298096D01*
X297038Y165566D01*
Y161334D01*
X298096Y160276D01*
X300212D01*
X301270Y161334D01*
X307618Y160276D02*
X303386D01*
X307618Y164508D01*
Y165566D01*
X306560Y166624D01*
X304444D01*
X303386Y165566D01*
X312908Y160276D02*
Y166624D01*
X309734Y163450D01*
X313966D01*
X351778Y165058D02*
X350720Y166116D01*
X348604D01*
X347546Y165058D01*
Y160826D01*
X348604Y159768D01*
X350720D01*
X351778Y160826D01*
X358126Y159768D02*
X353894D01*
X358126Y164000D01*
Y165058D01*
X357068Y166116D01*
X354952D01*
X353894Y165058D01*
X360242D02*
X361300Y166116D01*
X363416D01*
X364474Y165058D01*
Y164000D01*
X363416Y162942D01*
X362358D01*
X363416D01*
X364474Y161884D01*
Y160826D01*
X363416Y159768D01*
X361300D01*
X360242Y160826D01*
X401524Y165446D02*
X400466Y166504D01*
X398350D01*
X397292Y165446D01*
Y161214D01*
X398350Y160156D01*
X400466D01*
X401524Y161214D01*
X407872Y160156D02*
X403640D01*
X407872Y164388D01*
Y165446D01*
X406814Y166504D01*
X404698D01*
X403640Y165446D01*
X414220Y160156D02*
X409988D01*
X414220Y164388D01*
Y165446D01*
X413162Y166504D01*
X411046D01*
X409988Y165446D01*
X451270Y164430D02*
X450212Y165488D01*
X448096D01*
X447038Y164430D01*
Y160198D01*
X448096Y159140D01*
X450212D01*
X451270Y160198D01*
X457618Y159140D02*
X453386D01*
X457618Y163372D01*
Y164430D01*
X456560Y165488D01*
X454444D01*
X453386Y164430D01*
X459734Y159140D02*
X461850D01*
X460792D01*
Y165488D01*
X459734Y164430D01*
X501270Y164684D02*
X500212Y165742D01*
X498096D01*
X497038Y164684D01*
Y160452D01*
X498096Y159394D01*
X500212D01*
X501270Y160452D01*
X507618Y159394D02*
X503386D01*
X507618Y163626D01*
Y164684D01*
X506560Y165742D01*
X504444D01*
X503386Y164684D01*
X509734D02*
X510792Y165742D01*
X512908D01*
X513966Y164684D01*
Y160452D01*
X512908Y159394D01*
X510792D01*
X509734Y160452D01*
Y164684D01*
X550872Y165312D02*
X549814Y166370D01*
X547698D01*
X546640Y165312D01*
Y161080D01*
X547698Y160022D01*
X549814D01*
X550872Y161080D01*
X552988Y160022D02*
X555104D01*
X554046D01*
Y166370D01*
X552988Y165312D01*
X558278Y161080D02*
X559336Y160022D01*
X561452D01*
X562510Y161080D01*
Y165312D01*
X561452Y166370D01*
X559336D01*
X558278Y165312D01*
Y164254D01*
X559336Y163196D01*
X562510D01*
X600508Y164310D02*
X599450Y165368D01*
X597334D01*
X596276Y164310D01*
Y160078D01*
X597334Y159020D01*
X599450D01*
X600508Y160078D01*
X602624Y159020D02*
X604740D01*
X603682D01*
Y165368D01*
X602624Y164310D01*
X607914D02*
X608972Y165368D01*
X611088D01*
X612146Y164310D01*
Y163252D01*
X611088Y162194D01*
X612146Y161136D01*
Y160078D01*
X611088Y159020D01*
X608972D01*
X607914Y160078D01*
Y161136D01*
X608972Y162194D01*
X607914Y163252D01*
Y164310D01*
X608972Y162194D02*
X611088D01*
X651524Y164684D02*
X650466Y165742D01*
X648350D01*
X647292Y164684D01*
Y160452D01*
X648350Y159394D01*
X650466D01*
X651524Y160452D01*
X653640Y159394D02*
X655756D01*
X654698D01*
Y165742D01*
X653640Y164684D01*
X658930Y165742D02*
X663162D01*
Y164684D01*
X658930Y160452D01*
Y159394D01*
X701365Y165580D02*
X700306Y166638D01*
X698191D01*
X697132Y165580D01*
Y161348D01*
X698191Y160290D01*
X700306D01*
X701365Y161348D01*
X703481Y160290D02*
X705596D01*
X704538D01*
Y166638D01*
X703481Y165580D01*
X713002Y166638D02*
X710886Y165580D01*
X708770Y163464D01*
Y161348D01*
X709828Y160290D01*
X711944D01*
X713002Y161348D01*
Y162406D01*
X711944Y163464D01*
X708770D01*
X750738Y165192D02*
X749680Y166250D01*
X747564D01*
X746506Y165192D01*
Y160960D01*
X747564Y159902D01*
X749680D01*
X750738Y160960D01*
X752854Y159902D02*
X754970D01*
X753912D01*
Y166250D01*
X752854Y165192D01*
X762376Y166250D02*
X758144D01*
Y163076D01*
X760260Y164134D01*
X761318D01*
X762376Y163076D01*
Y160960D01*
X761318Y159902D01*
X759202D01*
X758144Y160960D01*
X801648Y164818D02*
X800590Y165876D01*
X798474D01*
X797416Y164818D01*
Y160586D01*
X798474Y159528D01*
X800590D01*
X801648Y160586D01*
X803764Y159528D02*
X805880D01*
X804822D01*
Y165876D01*
X803764Y164818D01*
X812228Y159528D02*
Y165876D01*
X809054Y162702D01*
X813286D01*
X850762Y164818D02*
X849704Y165876D01*
X847588D01*
X846530Y164818D01*
Y160586D01*
X847588Y159528D01*
X849704D01*
X850762Y160586D01*
X852878Y159528D02*
X854994D01*
X853936D01*
Y165876D01*
X852878Y164818D01*
X858168D02*
X859226Y165876D01*
X861342D01*
X862400Y164818D01*
Y163760D01*
X861342Y162702D01*
X860284D01*
X861342D01*
X862400Y161644D01*
Y160586D01*
X861342Y159528D01*
X859226D01*
X858168Y160586D01*
X901016Y165446D02*
X899958Y166504D01*
X897842D01*
X896784Y165446D01*
Y161214D01*
X897842Y160156D01*
X899958D01*
X901016Y161214D01*
X903132Y160156D02*
X905248D01*
X904190D01*
Y166504D01*
X903132Y165446D01*
X912654Y160156D02*
X908422D01*
X912654Y164388D01*
Y165446D01*
X911596Y166504D01*
X909480D01*
X908422Y165446D01*
X951442Y164938D02*
X950384Y165996D01*
X948268D01*
X947210Y164938D01*
Y160706D01*
X948268Y159648D01*
X950384D01*
X951442Y160706D01*
X953558Y159648D02*
X955674D01*
X954616D01*
Y165996D01*
X953558Y164938D01*
X958848Y159648D02*
X960964D01*
X959906D01*
Y165996D01*
X958848Y164938D01*
X1001524Y164684D02*
X1000466Y165742D01*
X998350D01*
X997292Y164684D01*
Y160452D01*
X998350Y159394D01*
X1000466D01*
X1001524Y160452D01*
X1003640Y159394D02*
X1005756D01*
X1004698D01*
Y165742D01*
X1003640Y164684D01*
X1008930D02*
X1009988Y165742D01*
X1012104D01*
X1013162Y164684D01*
Y160452D01*
X1012104Y159394D01*
X1009988D01*
X1008930Y160452D01*
Y164684D01*
X1050762Y164812D02*
X1049704Y165870D01*
X1047588D01*
X1046530Y164812D01*
Y160580D01*
X1047588Y159522D01*
X1049704D01*
X1050762Y160580D01*
X1052878D02*
X1053936Y159522D01*
X1056052D01*
X1057110Y160580D01*
Y164812D01*
X1056052Y165870D01*
X1053936D01*
X1052878Y164812D01*
Y163754D01*
X1053936Y162696D01*
X1057110D01*
X1101016Y164938D02*
X1099958Y165996D01*
X1097842D01*
X1096784Y164938D01*
Y160706D01*
X1097842Y159648D01*
X1099958D01*
X1101016Y160706D01*
X1103132Y164938D02*
X1104190Y165996D01*
X1106306D01*
X1107364Y164938D01*
Y163880D01*
X1106306Y162822D01*
X1107364Y161764D01*
Y160706D01*
X1106306Y159648D01*
X1104190D01*
X1103132Y160706D01*
Y161764D01*
X1104190Y162822D01*
X1103132Y163880D01*
Y164938D01*
X1104190Y162822D02*
X1106306D01*
X1151270Y165192D02*
X1150212Y166250D01*
X1148096D01*
X1147038Y165192D01*
Y160960D01*
X1148096Y159902D01*
X1150212D01*
X1151270Y160960D01*
X1153386Y166250D02*
X1157618D01*
Y165192D01*
X1153386Y160960D01*
Y159902D01*
X1200254Y164176D02*
X1199196Y165234D01*
X1197080D01*
X1196022Y164176D01*
Y159944D01*
X1197080Y158886D01*
X1199196D01*
X1200254Y159944D01*
X1206602Y165234D02*
X1204486Y164176D01*
X1202370Y162060D01*
Y159944D01*
X1203428Y158886D01*
X1205544D01*
X1206602Y159944D01*
Y161002D01*
X1205544Y162060D01*
X1202370D01*
X1251270Y163160D02*
X1250212Y164218D01*
X1248096D01*
X1247038Y163160D01*
Y158928D01*
X1248096Y157870D01*
X1250212D01*
X1251270Y158928D01*
X1257618Y164218D02*
X1253386D01*
Y161044D01*
X1255502Y162102D01*
X1256560D01*
X1257618Y161044D01*
Y158928D01*
X1256560Y157870D01*
X1254444D01*
X1253386Y158928D01*
X1281924Y165060D02*
Y159770D01*
X1282982Y158712D01*
X1285098D01*
X1286156Y159770D01*
Y165060D01*
X1291446Y158712D02*
Y165060D01*
X1288272Y161886D01*
X1292504D01*
X1330452Y166504D02*
Y161214D01*
X1331510Y160156D01*
X1333626D01*
X1334684Y161214D01*
Y166504D01*
X1336800Y165446D02*
X1337858Y166504D01*
X1339974D01*
X1341032Y165446D01*
Y164388D01*
X1339974Y163330D01*
X1338916D01*
X1339974D01*
X1341032Y162272D01*
Y161214D01*
X1339974Y160156D01*
X1337858D01*
X1336800Y161214D01*
X1380786Y166758D02*
Y161468D01*
X1381844Y160410D01*
X1383960D01*
X1385018Y161468D01*
Y166758D01*
X1391366Y160410D02*
X1387134D01*
X1391366Y164642D01*
Y165700D01*
X1390308Y166758D01*
X1388192D01*
X1387134Y165700D01*
X1434338Y166250D02*
Y160960D01*
X1435396Y159902D01*
X1437512D01*
X1438570Y160960D01*
Y166250D01*
X1440686Y159902D02*
X1442802D01*
X1441744D01*
Y166250D01*
X1440686Y165192D01*
X1301142Y164256D02*
X1300084Y165314D01*
X1297968D01*
X1296910Y164256D01*
Y160024D01*
X1297968Y158966D01*
X1300084D01*
X1301142Y160024D01*
X1306432Y158966D02*
Y165314D01*
X1303258Y162140D01*
X1307490D01*
X1350940Y165446D02*
X1349882Y166504D01*
X1347766D01*
X1346708Y165446D01*
Y161214D01*
X1347766Y160156D01*
X1349882D01*
X1350940Y161214D01*
X1353056Y165446D02*
X1354114Y166504D01*
X1356230D01*
X1357288Y165446D01*
Y164388D01*
X1356230Y163330D01*
X1355172D01*
X1356230D01*
X1357288Y162272D01*
Y161214D01*
X1356230Y160156D01*
X1354114D01*
X1353056Y161214D01*
X1400512Y165700D02*
X1399454Y166758D01*
X1397338D01*
X1396280Y165700D01*
Y161468D01*
X1397338Y160410D01*
X1399454D01*
X1400512Y161468D01*
X1406860Y160410D02*
X1402628D01*
X1406860Y164642D01*
Y165700D01*
X1405802Y166758D01*
X1403686D01*
X1402628Y165700D01*
X1452096Y165946D02*
X1451038Y167004D01*
X1448922D01*
X1447864Y165946D01*
Y161714D01*
X1448922Y160656D01*
X1451038D01*
X1452096Y161714D01*
X1454212Y160656D02*
X1456328D01*
X1455270D01*
Y167004D01*
X1454212Y165946D01*
D27*
X21943Y704255D02*
D03*
X1421943Y704255D02*
D03*
X1321943D02*
D03*
X1221943Y704255D02*
D03*
X1121943D02*
D03*
X1021943Y704255D02*
D03*
X921943D02*
D03*
X821943D02*
D03*
X721943D02*
D03*
X621943Y704255D02*
D03*
X521943Y704255D02*
D03*
X421943Y704255D02*
D03*
X321944Y704256D02*
D03*
X221943Y704255D02*
D03*
X121942Y704256D02*
D03*
X1414653Y447255D02*
D03*
X1339653D02*
D03*
X1264653D02*
D03*
X1189653D02*
D03*
X1114679Y447255D02*
D03*
X1039653Y447255D02*
D03*
X964653D02*
D03*
X889653D02*
D03*
X814653D02*
D03*
X739653D02*
D03*
X664653D02*
D03*
X589653D02*
D03*
X514653D02*
D03*
X439653D02*
D03*
X364653D02*
D03*
X289653D02*
D03*
X214653D02*
D03*
X139653D02*
D03*
X64653Y447255D02*
D03*
X1414653Y190255D02*
D03*
X1364615D02*
D03*
X1314653D02*
D03*
X1264653D02*
D03*
X1214653D02*
D03*
X1164653D02*
D03*
X1114653D02*
D03*
X1064653D02*
D03*
X1014652Y190255D02*
D03*
X964653Y190255D02*
D03*
X914653Y190255D02*
D03*
X864653Y190255D02*
D03*
X814653Y190255D02*
D03*
X764666D02*
D03*
X714629Y190255D02*
D03*
X664652Y190255D02*
D03*
X614653Y190255D02*
D03*
X564653Y190255D02*
D03*
X514653Y190255D02*
D03*
X464653D02*
D03*
X414653D02*
D03*
X364653D02*
D03*
X314653D02*
D03*
X264653D02*
D03*
X214653D02*
D03*
X164653Y190255D02*
D03*
X114653Y190255D02*
D03*
X64653Y190255D02*
D03*
X14654Y190255D02*
D03*
M02*
