G04*
G04 #@! TF.GenerationSoftware,Altium Limited,Altium Designer,19.0.12 (326)*
G04*
G04 Layer_Color=8388736*
%FSLAX44Y44*%
%MOMM*%
G71*
G01*
G75*
%ADD11C,0.2540*%
%ADD21C,0.1270*%
%ADD26C,0.1778*%
%ADD34C,0.2000*%
D11*
X1570144Y-945973D02*
X1556815D01*
Y-955970D01*
X1563479D01*
X1556815D01*
Y-965967D01*
X1576808Y-945973D02*
Y-965967D01*
X1586805D01*
X1590137Y-962635D01*
Y-949305D01*
X1586805Y-945973D01*
X1576808D01*
X1572644Y-890973D02*
X1559315D01*
Y-900970D01*
X1565979D01*
X1559315D01*
Y-910967D01*
X1579308Y-890973D02*
Y-910967D01*
X1589305D01*
X1592637Y-907635D01*
Y-894305D01*
X1589305Y-890973D01*
X1579308D01*
X1840477Y-840825D02*
Y-819165D01*
X1851307Y-808335D01*
X1862137Y-819165D01*
Y-840825D01*
Y-824580D01*
X1840477D01*
X1872967Y-808335D02*
X1883797D01*
X1878382D01*
Y-840825D01*
X1872967D01*
X1883797D01*
X1900041D02*
Y-808335D01*
X1916286D01*
X1921701Y-813750D01*
Y-824580D01*
X1916286Y-829995D01*
X1900041D01*
X1910871D02*
X1921701Y-840825D01*
X1932531Y-808335D02*
X1954191D01*
Y-813750D01*
X1932531Y-835410D01*
Y-840825D01*
X1954191D01*
X1965020D02*
Y-819165D01*
X1975850Y-808335D01*
X1986680Y-819165D01*
Y-840825D01*
Y-824580D01*
X1965020D01*
X1997510Y-808335D02*
X2008340D01*
X2002925D01*
Y-840825D01*
X1997510D01*
X2008340D01*
X1562644Y-780973D02*
X1549315D01*
Y-790970D01*
X1555979D01*
X1549315D01*
Y-800967D01*
X1569308Y-780973D02*
Y-800967D01*
X1579305D01*
X1582637Y-797635D01*
Y-784305D01*
X1579305Y-780973D01*
X1569308D01*
X1542615Y-834283D02*
Y-854277D01*
X1552612D01*
X1555944Y-850945D01*
Y-837616D01*
X1552612Y-834283D01*
X1542615D01*
X1575937D02*
X1562608D01*
Y-844280D01*
X1569273D01*
X1562608D01*
Y-854277D01*
X1582602D02*
Y-834283D01*
X1589266Y-840948D01*
X1595931Y-834283D01*
Y-854277D01*
X2568977Y-1041825D02*
Y-1021511D01*
X2579134Y-1011355D01*
X2589291Y-1021511D01*
Y-1041825D01*
Y-1026590D01*
X2568977D01*
X1554075Y-1006487D02*
Y-1036957D01*
X1569310D01*
X1574388Y-1031879D01*
Y-1026800D01*
X1569310Y-1021722D01*
X1554075D01*
X1569310D01*
X1574388Y-1016643D01*
Y-1011565D01*
X1569310Y-1006487D01*
X1554075D01*
X1676075Y-1042957D02*
X1686231D01*
X1681153D01*
Y-1012487D01*
X1676075Y-1017565D01*
X1701466Y-1022643D02*
X1706545D01*
Y-1027722D01*
X1701466D01*
Y-1022643D01*
Y-1037878D02*
X1706545D01*
Y-1042957D01*
X1701466D01*
Y-1037878D01*
X1726858Y-1042957D02*
X1737015D01*
X1731937D01*
Y-1012487D01*
X1726858Y-1017565D01*
X1534227Y-727825D02*
Y-706165D01*
X1545057Y-695335D01*
X1555887Y-706165D01*
Y-727825D01*
Y-711580D01*
X1534227D01*
X1566717Y-695335D02*
X1577547D01*
X1572132D01*
Y-727825D01*
X1566717D01*
X1577547D01*
X1593791D02*
Y-695335D01*
X1610036D01*
X1615451Y-700750D01*
Y-711580D01*
X1610036Y-716995D01*
X1593791D01*
X1604621D02*
X1615451Y-727825D01*
X1626281Y-695335D02*
X1647941D01*
Y-700750D01*
X1626281Y-722410D01*
Y-727825D01*
X1647941D01*
X1658770D02*
Y-706165D01*
X1669600Y-695335D01*
X1680430Y-706165D01*
Y-727825D01*
Y-711580D01*
X1658770D01*
X1691260Y-695335D02*
X1702090D01*
X1696675D01*
Y-727825D01*
X1691260D01*
X1702090D01*
X1750824D02*
Y-695335D01*
X1767069D01*
X1772484Y-700750D01*
Y-711580D01*
X1767069Y-716995D01*
X1750824D01*
X1783313Y-727825D02*
Y-695335D01*
X1799558D01*
X1804973Y-700750D01*
Y-711580D01*
X1799558Y-716995D01*
X1783313D01*
X1794143D02*
X1804973Y-727825D01*
X1832048Y-695335D02*
X1821218D01*
X1815803Y-700750D01*
Y-722410D01*
X1821218Y-727825D01*
X1832048D01*
X1837463Y-722410D01*
Y-700750D01*
X1832048Y-695335D01*
X1848293Y-727825D02*
Y-695335D01*
X1864537D01*
X1869952Y-700750D01*
Y-711580D01*
X1864537Y-716995D01*
X1848293D01*
X1880782Y-727825D02*
Y-695335D01*
X1897027D01*
X1902442Y-700750D01*
Y-711580D01*
X1897027Y-716995D01*
X1880782D01*
X1891612D02*
X1902442Y-727825D01*
X1913271Y-695335D02*
X1924101D01*
X1918686D01*
Y-727825D01*
X1913271D01*
X1924101D01*
X1962006Y-695335D02*
X1940346D01*
Y-727825D01*
X1962006D01*
X1940346Y-711580D02*
X1951176D01*
X1972836Y-695335D02*
X1994495D01*
X1983665D01*
Y-727825D01*
X2005325D02*
Y-706165D01*
X2016155Y-695335D01*
X2026985Y-706165D01*
Y-727825D01*
Y-711580D01*
X2005325D01*
X2037815Y-727825D02*
Y-695335D01*
X2054059D01*
X2059474Y-700750D01*
Y-711580D01*
X2054059Y-716995D01*
X2037815D01*
X2048644D02*
X2059474Y-727825D01*
X2070304Y-695335D02*
Y-700750D01*
X2081134Y-711580D01*
X2091964Y-700750D01*
Y-695335D01*
X2081134Y-711580D02*
Y-727825D01*
X2156943D02*
X2151528Y-722410D01*
X2146113Y-727825D01*
X2140698D01*
X2135283Y-722410D01*
Y-716995D01*
X2140698Y-711580D01*
X2135283Y-706165D01*
Y-700750D01*
X2140698Y-695335D01*
X2146113D01*
X2151528Y-700750D01*
Y-706165D01*
X2146113Y-711580D01*
X2151528Y-716995D01*
Y-722410D01*
X2156943Y-711580D02*
X2151528Y-716995D01*
X2140698Y-711580D02*
X2146113D01*
X2221922Y-700750D02*
X2216507Y-695335D01*
X2205677D01*
X2200262Y-700750D01*
Y-722410D01*
X2205677Y-727825D01*
X2216507D01*
X2221922Y-722410D01*
X2248996Y-695335D02*
X2238167D01*
X2232751Y-700750D01*
Y-722410D01*
X2238167Y-727825D01*
X2248996D01*
X2254411Y-722410D01*
Y-700750D01*
X2248996Y-695335D01*
X2265241Y-727825D02*
Y-695335D01*
X2286901Y-727825D01*
Y-695335D01*
X2319390D02*
X2297731D01*
Y-711580D01*
X2308560D01*
X2297731D01*
Y-727825D01*
X2330220Y-695335D02*
X2341050D01*
X2335635D01*
Y-727825D01*
X2330220D01*
X2341050D01*
X2357295Y-695335D02*
Y-727825D01*
X2373539D01*
X2378954Y-722410D01*
Y-700750D01*
X2373539Y-695335D01*
X2357295D01*
X2411444D02*
X2389784D01*
Y-727825D01*
X2411444D01*
X2389784Y-711580D02*
X2400614D01*
X2422274Y-727825D02*
Y-695335D01*
X2443933Y-727825D01*
Y-695335D01*
X2454763D02*
X2476423D01*
X2465593D01*
Y-727825D01*
X2487253Y-695335D02*
X2498082D01*
X2492668D01*
Y-727825D01*
X2487253D01*
X2498082D01*
X2514327D02*
Y-706165D01*
X2525157Y-695335D01*
X2535987Y-706165D01*
Y-727825D01*
Y-711580D01*
X2514327D01*
X2546817Y-695335D02*
Y-727825D01*
X2568476D01*
D21*
X2637827Y-1060225D02*
Y1251175D01*
X2688627Y-1111025D02*
Y1301975D01*
X2637827Y-1060225D02*
Y-755425D01*
X2637625Y-1060787D02*
Y-755987D01*
Y-1060787D02*
Y-755987D01*
X1766575Y-891387D02*
X2637587D01*
X-1070573Y1251175D02*
X2637827D01*
X-1121373Y1301975D02*
X2688627D01*
X-1070573Y-1060225D02*
Y1251175D01*
X-1121373Y-1111025D02*
Y1301975D01*
X-1070573Y-1060225D02*
X2637827D01*
X-1121373Y-1111025D02*
X2688627D01*
X1494625Y-1060787D02*
X2637625D01*
X1494625D02*
X2637625D01*
X1494827Y-1060225D02*
X2637827D01*
X1139025Y-1060787D02*
X1494625D01*
X1139025D02*
X1494625D01*
Y-984587D02*
X2637625D01*
X1852925Y-755987D02*
X2637625D01*
X1494625D02*
X1875625D01*
X1139025D02*
X1494625D01*
X1139025Y-1060787D02*
Y-755987D01*
X1494625Y-1060787D02*
Y-755987D01*
Y-923187D02*
X1766575D01*
X1494625Y-863737D02*
X1766575D01*
X1494625Y-810187D02*
X1766575D01*
X1653575Y-1061037D02*
Y-756237D01*
X1766575Y-1060787D02*
Y-755987D01*
X2542025Y-1060787D02*
Y-984587D01*
X1418627Y-1111025D02*
Y-1060225D01*
X783627Y-1111025D02*
Y-1060225D01*
X2053627Y-1111025D02*
Y-1060225D01*
X148627Y-1111025D02*
Y-1060225D01*
X-486373Y-1111025D02*
Y-1060225D01*
X-1121373Y-507775D02*
X-1070573D01*
X-1121373Y95475D02*
X-1070573D01*
X-1121373Y698725D02*
X-1070573D01*
X-486373Y1251175D02*
Y1301975D01*
X148627Y1251175D02*
Y1301975D01*
X783627Y1251175D02*
Y1301975D01*
X1418627Y1251175D02*
Y1301975D01*
X2053627Y1251175D02*
Y1301975D01*
X2637827Y698725D02*
X2688627D01*
X2637827Y-507775D02*
X2688627D01*
X1507399Y-761959D02*
X1500325D01*
Y-773387D01*
X1507399D01*
X1500325Y-767401D02*
X1504678D01*
X1509303Y-761959D02*
Y-773387D01*
Y-761959D02*
X1516922Y-773387D01*
Y-761959D02*
Y-773387D01*
X1528241Y-764680D02*
X1527696Y-763592D01*
X1526608Y-762503D01*
X1525520Y-761959D01*
X1523343D01*
X1522255Y-762503D01*
X1521166Y-763592D01*
X1520622Y-764680D01*
X1520078Y-766313D01*
Y-769034D01*
X1520622Y-770666D01*
X1521166Y-771754D01*
X1522255Y-772843D01*
X1523343Y-773387D01*
X1525520D01*
X1526608Y-772843D01*
X1527696Y-771754D01*
X1528241Y-770666D01*
Y-769034D01*
X1525520D02*
X1528241D01*
X1530853Y-761959D02*
Y-773387D01*
X1533247Y-761959D02*
Y-773387D01*
Y-761959D02*
X1540865Y-773387D01*
Y-761959D02*
Y-773387D01*
X1551096Y-761959D02*
X1544021D01*
Y-773387D01*
X1551096D01*
X1544021Y-767401D02*
X1548375D01*
X1560074Y-761959D02*
X1553000D01*
Y-773387D01*
X1560074D01*
X1553000Y-767401D02*
X1557354D01*
X1561979Y-761959D02*
Y-773387D01*
Y-761959D02*
X1566877D01*
X1568509Y-762503D01*
X1569053Y-763048D01*
X1569597Y-764136D01*
Y-765224D01*
X1569053Y-766313D01*
X1568509Y-766857D01*
X1566877Y-767401D01*
X1561979D01*
X1565788D02*
X1569597Y-773387D01*
X1572699Y-765768D02*
X1572155Y-766313D01*
X1572699Y-766857D01*
X1573243Y-766313D01*
X1572699Y-765768D01*
Y-772299D02*
X1572155Y-772843D01*
X1572699Y-773387D01*
X1573243Y-772843D01*
X1572699Y-772299D01*
X1499325Y-820875D02*
X1504222D01*
X1505855Y-820331D01*
X1506399Y-819787D01*
X1506943Y-818698D01*
Y-817066D01*
X1506399Y-815978D01*
X1505855Y-815433D01*
X1504222Y-814889D01*
X1499325D01*
Y-826317D01*
X1517663Y-817610D02*
X1517119Y-816522D01*
X1516031Y-815433D01*
X1514942Y-814889D01*
X1512766D01*
X1511677Y-815433D01*
X1510589Y-816522D01*
X1510045Y-817610D01*
X1509501Y-819243D01*
Y-821964D01*
X1510045Y-823596D01*
X1510589Y-824684D01*
X1511677Y-825773D01*
X1512766Y-826317D01*
X1514942D01*
X1516031Y-825773D01*
X1517119Y-824684D01*
X1517663Y-823596D01*
X1520874Y-814889D02*
Y-826317D01*
Y-814889D02*
X1525771D01*
X1527404Y-815433D01*
X1527948Y-815978D01*
X1528492Y-817066D01*
Y-818154D01*
X1527948Y-819243D01*
X1527404Y-819787D01*
X1525771Y-820331D01*
X1520874D02*
X1525771D01*
X1527404Y-820875D01*
X1527948Y-821419D01*
X1528492Y-822508D01*
Y-824140D01*
X1527948Y-825229D01*
X1527404Y-825773D01*
X1525771Y-826317D01*
X1520874D01*
X1540028Y-814889D02*
Y-826317D01*
Y-814889D02*
X1543838D01*
X1545470Y-815433D01*
X1546559Y-816522D01*
X1547103Y-817610D01*
X1547647Y-819243D01*
Y-821964D01*
X1547103Y-823596D01*
X1546559Y-824684D01*
X1545470Y-825773D01*
X1543838Y-826317D01*
X1540028D01*
X1557279Y-814889D02*
X1550204D01*
Y-826317D01*
X1557279D01*
X1550204Y-820331D02*
X1554558D01*
X1566802Y-816522D02*
X1565713Y-815433D01*
X1564081Y-814889D01*
X1561904D01*
X1560271Y-815433D01*
X1559183Y-816522D01*
Y-817610D01*
X1559727Y-818698D01*
X1560271Y-819243D01*
X1561360Y-819787D01*
X1564625Y-820875D01*
X1565713Y-821419D01*
X1566257Y-821964D01*
X1566802Y-823052D01*
Y-824684D01*
X1565713Y-825773D01*
X1564081Y-826317D01*
X1561904D01*
X1560271Y-825773D01*
X1559183Y-824684D01*
X1569359Y-814889D02*
Y-826317D01*
X1579916Y-817610D02*
X1579372Y-816522D01*
X1578284Y-815433D01*
X1577195Y-814889D01*
X1575018D01*
X1573930Y-815433D01*
X1572842Y-816522D01*
X1572298Y-817610D01*
X1571754Y-819243D01*
Y-821964D01*
X1572298Y-823596D01*
X1572842Y-824684D01*
X1573930Y-825773D01*
X1575018Y-826317D01*
X1577195D01*
X1578284Y-825773D01*
X1579372Y-824684D01*
X1579916Y-823596D01*
Y-821964D01*
X1577195D02*
X1579916D01*
X1582528Y-814889D02*
Y-826317D01*
Y-814889D02*
X1590146Y-826317D01*
Y-814889D02*
Y-826317D01*
X1600377Y-814889D02*
X1593303D01*
Y-826317D01*
X1600377D01*
X1593303Y-820331D02*
X1597656D01*
X1602281Y-814889D02*
Y-826317D01*
Y-814889D02*
X1607179D01*
X1608811Y-815433D01*
X1609356Y-815978D01*
X1609900Y-817066D01*
Y-818154D01*
X1609356Y-819243D01*
X1608811Y-819787D01*
X1607179Y-820331D01*
X1602281D01*
X1606091D02*
X1609900Y-826317D01*
X1613002Y-818698D02*
X1612457Y-819243D01*
X1613002Y-819787D01*
X1613546Y-819243D01*
X1613002Y-818698D01*
Y-825229D02*
X1612457Y-825773D01*
X1613002Y-826317D01*
X1613546Y-825773D01*
X1613002Y-825229D01*
X1507487Y-872610D02*
X1506943Y-871522D01*
X1505855Y-870433D01*
X1504766Y-869889D01*
X1502590D01*
X1501501Y-870433D01*
X1500413Y-871522D01*
X1499869Y-872610D01*
X1499325Y-874243D01*
Y-876963D01*
X1499869Y-878596D01*
X1500413Y-879684D01*
X1501501Y-880773D01*
X1502590Y-881317D01*
X1504766D01*
X1505855Y-880773D01*
X1506943Y-879684D01*
X1507487Y-878596D01*
X1510698Y-869889D02*
Y-881317D01*
X1518316Y-869889D02*
Y-881317D01*
X1510698Y-875331D02*
X1518316D01*
X1528546Y-869889D02*
X1521472D01*
Y-881317D01*
X1528546D01*
X1521472Y-875331D02*
X1525826D01*
X1538614Y-872610D02*
X1538069Y-871522D01*
X1536981Y-870433D01*
X1535893Y-869889D01*
X1533716D01*
X1532628Y-870433D01*
X1531539Y-871522D01*
X1530995Y-872610D01*
X1530451Y-874243D01*
Y-876963D01*
X1530995Y-878596D01*
X1531539Y-879684D01*
X1532628Y-880773D01*
X1533716Y-881317D01*
X1535893D01*
X1536981Y-880773D01*
X1538069Y-879684D01*
X1538614Y-878596D01*
X1541824Y-869889D02*
Y-881317D01*
X1549443Y-869889D02*
X1541824Y-877508D01*
X1544545Y-874787D02*
X1549443Y-881317D01*
X1502325Y-928559D02*
Y-939987D01*
Y-928559D02*
X1507222D01*
X1508855Y-929103D01*
X1509399Y-929648D01*
X1509943Y-930736D01*
Y-931824D01*
X1509399Y-932913D01*
X1508855Y-933457D01*
X1507222Y-934001D01*
X1502325D01*
X1506134D02*
X1509943Y-939987D01*
X1519575Y-928559D02*
X1512501D01*
Y-939987D01*
X1519575D01*
X1512501Y-934001D02*
X1516854D01*
X1521479Y-928559D02*
Y-939987D01*
X1528009D01*
X1509943Y-993992D02*
X1508855Y-992903D01*
X1507222Y-992359D01*
X1505045D01*
X1503413Y-992903D01*
X1502325Y-993992D01*
Y-995080D01*
X1502869Y-996168D01*
X1503413Y-996713D01*
X1504501Y-997257D01*
X1507766Y-998345D01*
X1508855Y-998889D01*
X1509399Y-999434D01*
X1509943Y-1000522D01*
Y-1002154D01*
X1508855Y-1003243D01*
X1507222Y-1003787D01*
X1505045D01*
X1503413Y-1003243D01*
X1502325Y-1002154D01*
X1512501Y-992359D02*
Y-1003787D01*
X1522513Y-992359D02*
X1514895Y-1003787D01*
Y-992359D02*
X1522513D01*
X1514895Y-1003787D02*
X1522513D01*
X1532145Y-992359D02*
X1525071D01*
Y-1003787D01*
X1532145D01*
X1525071Y-997801D02*
X1529424D01*
X1783537Y-896147D02*
Y-907575D01*
X1779727Y-896147D02*
X1787346D01*
X1788706D02*
Y-907575D01*
X1794910Y-896147D02*
Y-907575D01*
X1791100Y-896147D02*
X1798719D01*
X1800079D02*
Y-907575D01*
X1806609D01*
X1814935Y-896147D02*
X1807861D01*
Y-907575D01*
X1814935D01*
X1807861Y-901589D02*
X1812214D01*
X1817384Y-899957D02*
X1816840Y-900501D01*
X1817384Y-901045D01*
X1817928Y-900501D01*
X1817384Y-899957D01*
Y-906487D02*
X1816840Y-907031D01*
X1817384Y-907575D01*
X1817928Y-907031D01*
X1817384Y-906487D01*
X2547725Y-989359D02*
Y-1000787D01*
Y-989359D02*
X2552622D01*
X2554255Y-989903D01*
X2554799Y-990448D01*
X2555343Y-991536D01*
Y-992624D01*
X2554799Y-993713D01*
X2554255Y-994257D01*
X2552622Y-994801D01*
X2547725D01*
X2551534D02*
X2555343Y-1000787D01*
X2564975Y-989359D02*
X2557901D01*
Y-1000787D01*
X2564975D01*
X2557901Y-994801D02*
X2562254D01*
X2566879Y-989359D02*
X2571233Y-1000787D01*
X2575586Y-989359D02*
X2571233Y-1000787D01*
X2577599Y-993168D02*
X2577055Y-993713D01*
X2577599Y-994257D01*
X2578144Y-993713D01*
X2577599Y-993168D01*
Y-999698D02*
X2577055Y-1000243D01*
X2577599Y-1000787D01*
X2578144Y-1000243D01*
X2577599Y-999698D01*
X2411943Y-1041192D02*
X2410855Y-1040103D01*
X2409222Y-1039559D01*
X2407045D01*
X2405413Y-1040103D01*
X2404325Y-1041192D01*
Y-1042280D01*
X2404869Y-1043368D01*
X2405413Y-1043913D01*
X2406501Y-1044457D01*
X2409766Y-1045545D01*
X2410855Y-1046089D01*
X2411399Y-1046633D01*
X2411943Y-1047722D01*
Y-1049354D01*
X2410855Y-1050443D01*
X2409222Y-1050987D01*
X2407045D01*
X2405413Y-1050443D01*
X2404325Y-1049354D01*
X2414501Y-1039559D02*
Y-1050987D01*
X2422119Y-1039559D02*
Y-1050987D01*
X2414501Y-1045001D02*
X2422119D01*
X2432349Y-1039559D02*
X2425275D01*
Y-1050987D01*
X2432349D01*
X2425275Y-1045001D02*
X2429628D01*
X2441328Y-1039559D02*
X2434254D01*
Y-1050987D01*
X2441328D01*
X2434254Y-1045001D02*
X2438607D01*
X2447042Y-1039559D02*
Y-1050987D01*
X2443233Y-1039559D02*
X2450851D01*
X2483568Y-1039559D02*
X2482480Y-1040103D01*
X2481392Y-1041192D01*
X2480848Y-1042280D01*
X2480303Y-1043913D01*
Y-1046634D01*
X2480848Y-1048266D01*
X2481392Y-1049354D01*
X2482480Y-1050443D01*
X2483568Y-1050987D01*
X2485745D01*
X2486833Y-1050443D01*
X2487922Y-1049354D01*
X2488466Y-1048266D01*
X2489010Y-1046634D01*
Y-1043913D01*
X2488466Y-1042280D01*
X2487922Y-1041192D01*
X2486833Y-1040103D01*
X2485745Y-1039559D01*
X2483568D01*
X2491677D02*
Y-1050987D01*
Y-1039559D02*
X2498751D01*
X2491677Y-1045001D02*
X2496030D01*
X1671343Y-991192D02*
X1670255Y-990103D01*
X1668622Y-989559D01*
X1666445D01*
X1664813Y-990103D01*
X1663725Y-991192D01*
Y-992280D01*
X1664269Y-993368D01*
X1664813Y-993913D01*
X1665901Y-994457D01*
X1669166Y-995545D01*
X1670255Y-996089D01*
X1670799Y-996633D01*
X1671343Y-997722D01*
Y-999354D01*
X1670255Y-1000443D01*
X1668622Y-1000987D01*
X1666445D01*
X1664813Y-1000443D01*
X1663725Y-999354D01*
X1682063Y-992280D02*
X1681519Y-991192D01*
X1680431Y-990103D01*
X1679342Y-989559D01*
X1677166D01*
X1676077Y-990103D01*
X1674989Y-991192D01*
X1674445Y-992280D01*
X1673901Y-993913D01*
Y-996633D01*
X1674445Y-998266D01*
X1674989Y-999354D01*
X1676077Y-1000443D01*
X1677166Y-1000987D01*
X1679342D01*
X1680431Y-1000443D01*
X1681519Y-999354D01*
X1682063Y-998266D01*
X1693980Y-1000987D02*
X1689627Y-989559D01*
X1685274Y-1000987D01*
X1686906Y-997178D02*
X1692348D01*
X1696647Y-989559D02*
Y-1000987D01*
X1703177D01*
X1711503Y-989559D02*
X1704429D01*
Y-1000987D01*
X1711503D01*
X1704429Y-995001D02*
X1708782D01*
X1713951Y-993368D02*
X1713407Y-993913D01*
X1713951Y-994457D01*
X1714496Y-993913D01*
X1713951Y-993368D01*
Y-999899D02*
X1713407Y-1000443D01*
X1713951Y-1000987D01*
X1714496Y-1000443D01*
X1713951Y-999899D01*
X1778325Y-991559D02*
Y-1002987D01*
Y-991559D02*
X1782134D01*
X1783766Y-992103D01*
X1784855Y-993192D01*
X1785399Y-994280D01*
X1785943Y-995913D01*
Y-998633D01*
X1785399Y-1000266D01*
X1784855Y-1001354D01*
X1783766Y-1002443D01*
X1782134Y-1002987D01*
X1778325D01*
X1788501Y-991559D02*
X1791221Y-1002987D01*
X1793942Y-991559D02*
X1791221Y-1002987D01*
X1793942Y-991559D02*
X1796663Y-1002987D01*
X1799384Y-991559D02*
X1796663Y-1002987D01*
X1809832Y-994280D02*
X1809288Y-993192D01*
X1808199Y-992103D01*
X1807111Y-991559D01*
X1804935D01*
X1803846Y-992103D01*
X1802758Y-993192D01*
X1802214Y-994280D01*
X1801669Y-995913D01*
Y-998633D01*
X1802214Y-1000266D01*
X1802758Y-1001354D01*
X1803846Y-1002443D01*
X1804935Y-1002987D01*
X1807111D01*
X1808199Y-1002443D01*
X1809288Y-1001354D01*
X1809832Y-1000266D01*
Y-998633D01*
X1807111D02*
X1809832D01*
X1821423Y-991559D02*
Y-1002987D01*
Y-991559D02*
X1829041Y-1002987D01*
Y-991559D02*
Y-1002987D01*
X1835462Y-991559D02*
X1834374Y-992103D01*
X1833286Y-993192D01*
X1832742Y-994280D01*
X1832197Y-995913D01*
Y-998633D01*
X1832742Y-1000266D01*
X1833286Y-1001354D01*
X1834374Y-1002443D01*
X1835462Y-1002987D01*
X1837639D01*
X1838727Y-1002443D01*
X1839816Y-1001354D01*
X1840360Y-1000266D01*
X1840904Y-998633D01*
Y-995913D01*
X1840360Y-994280D01*
X1839816Y-993192D01*
X1838727Y-992103D01*
X1837639Y-991559D01*
X1835462D01*
X1844115Y-995368D02*
X1843571Y-995913D01*
X1844115Y-996457D01*
X1844659Y-995913D01*
X1844115Y-995368D01*
Y-1001898D02*
X1843571Y-1002443D01*
X1844115Y-1002987D01*
X1844659Y-1002443D01*
X1844115Y-1001898D01*
X1662325Y-930359D02*
Y-941787D01*
Y-930359D02*
X1666134D01*
X1667766Y-930903D01*
X1668855Y-931992D01*
X1669399Y-933080D01*
X1669943Y-934713D01*
Y-937433D01*
X1669399Y-939066D01*
X1668855Y-940154D01*
X1667766Y-941243D01*
X1666134Y-941787D01*
X1662325D01*
X1681207D02*
X1676854Y-930359D01*
X1672501Y-941787D01*
X1674133Y-937978D02*
X1679575D01*
X1687683Y-930359D02*
Y-941787D01*
X1683874Y-930359D02*
X1691492D01*
X1699927D02*
X1692852D01*
Y-941787D01*
X1699927D01*
X1692852Y-935801D02*
X1697206D01*
X1702375Y-934168D02*
X1701831Y-934713D01*
X1702375Y-935257D01*
X1702920Y-934713D01*
X1702375Y-934168D01*
Y-940698D02*
X1701831Y-941243D01*
X1702375Y-941787D01*
X1702920Y-941243D01*
X1702375Y-940698D01*
X1658325Y-869359D02*
Y-880787D01*
Y-869359D02*
X1662134D01*
X1663766Y-869903D01*
X1664855Y-870992D01*
X1665399Y-872080D01*
X1665943Y-873713D01*
Y-876433D01*
X1665399Y-878066D01*
X1664855Y-879154D01*
X1663766Y-880243D01*
X1662134Y-880787D01*
X1658325D01*
X1677207D02*
X1672854Y-869359D01*
X1668501Y-880787D01*
X1670133Y-876978D02*
X1675575D01*
X1683683Y-869359D02*
Y-880787D01*
X1679874Y-869359D02*
X1687492D01*
X1695927D02*
X1688853D01*
Y-880787D01*
X1695927D01*
X1688853Y-874801D02*
X1693206D01*
X1698376Y-873168D02*
X1697831Y-873713D01*
X1698376Y-874257D01*
X1698920Y-873713D01*
X1698376Y-873168D01*
Y-879698D02*
X1697831Y-880243D01*
X1698376Y-880787D01*
X1698920Y-880243D01*
X1698376Y-879698D01*
X1658325Y-815359D02*
Y-826787D01*
Y-815359D02*
X1662134D01*
X1663766Y-815903D01*
X1664855Y-816992D01*
X1665399Y-818080D01*
X1665943Y-819713D01*
Y-822433D01*
X1665399Y-824066D01*
X1664855Y-825154D01*
X1663766Y-826243D01*
X1662134Y-826787D01*
X1658325D01*
X1677207D02*
X1672854Y-815359D01*
X1668501Y-826787D01*
X1670133Y-822978D02*
X1675575D01*
X1683683Y-815359D02*
Y-826787D01*
X1679874Y-815359D02*
X1687492D01*
X1695927D02*
X1688853D01*
Y-826787D01*
X1695927D01*
X1688853Y-820801D02*
X1693206D01*
X1698376Y-819168D02*
X1697831Y-819713D01*
X1698376Y-820257D01*
X1698920Y-819713D01*
X1698376Y-819168D01*
Y-825698D02*
X1697831Y-826243D01*
X1698376Y-826787D01*
X1698920Y-826243D01*
X1698376Y-825698D01*
X1661325Y-760359D02*
Y-771787D01*
Y-760359D02*
X1665134D01*
X1666766Y-760903D01*
X1667855Y-761992D01*
X1668399Y-763080D01*
X1668943Y-764713D01*
Y-767433D01*
X1668399Y-769066D01*
X1667855Y-770154D01*
X1666766Y-771243D01*
X1665134Y-771787D01*
X1661325D01*
X1680207D02*
X1675854Y-760359D01*
X1671501Y-771787D01*
X1673133Y-767978D02*
X1678575D01*
X1686683Y-760359D02*
Y-771787D01*
X1682874Y-760359D02*
X1690492D01*
X1698927D02*
X1691853D01*
Y-771787D01*
X1698927D01*
X1691853Y-765801D02*
X1696206D01*
X1701375Y-764168D02*
X1700831Y-764713D01*
X1701375Y-765257D01*
X1701920Y-764713D01*
X1701375Y-764168D01*
Y-770698D02*
X1700831Y-771243D01*
X1701375Y-771787D01*
X1701920Y-771243D01*
X1701375Y-770698D01*
X1559500Y666000D02*
G03*
X1554500Y671000I-5000J0D01*
G01*
X1584500Y714640D02*
G03*
X1578140Y721000I-6360J0D01*
G01*
X0Y671000D02*
Y721000D01*
Y671000D02*
X1554500D01*
X0Y721000D02*
X1474500D01*
X1559500D01*
Y514000D02*
Y666000D01*
X1554500Y671000D02*
X1554500D01*
X1559500Y721000D02*
X1578140D01*
X1584500Y514000D02*
Y714640D01*
X1559500Y514000D02*
X1584500D01*
X1559500Y409000D02*
G03*
X1554500Y414000I-5000J0D01*
G01*
X1584500Y457640D02*
G03*
X1578140Y464000I-6360J0D01*
G01*
X0Y414000D02*
Y464000D01*
Y414000D02*
X1554500D01*
X0Y464000D02*
X1474500D01*
X1559500D01*
Y257000D02*
Y409000D01*
X1554500Y414000D02*
X1554500D01*
X1559500Y464000D02*
X1578140D01*
X1584500Y257000D02*
Y457640D01*
X1559500Y257000D02*
X1584500D01*
X1559500Y152000D02*
G03*
X1554500Y157000I-5000J0D01*
G01*
X1584500Y200640D02*
G03*
X1578140Y207000I-6360J0D01*
G01*
X0Y157000D02*
Y207000D01*
Y157000D02*
X1554500D01*
X0Y207000D02*
X1474500D01*
X1559500D01*
Y0D02*
Y152000D01*
X1554500Y157000D02*
X1554500D01*
X1559500Y207000D02*
X1578140D01*
X1584500Y0D02*
Y200640D01*
X1559500Y0D02*
X1584500D01*
D26*
X2656877Y-813341D02*
Y-831117D01*
Y-813341D02*
X2662802D01*
X2665341Y-814187D01*
X2667035Y-815880D01*
X2667881Y-817573D01*
X2668727Y-820113D01*
Y-824345D01*
X2667881Y-826884D01*
X2667035Y-828577D01*
X2665341Y-830270D01*
X2662802Y-831117D01*
X2656877D01*
X2375443Y-1078008D02*
X2374596Y-1076315D01*
X2372056Y-1075469D01*
X2370364D01*
X2367824Y-1076315D01*
X2366131Y-1078855D01*
X2365285Y-1083087D01*
Y-1087319D01*
X2366131Y-1090705D01*
X2367824Y-1092398D01*
X2370364Y-1093245D01*
X2371210D01*
X2373750Y-1092398D01*
X2375443Y-1090705D01*
X2376289Y-1088166D01*
Y-1087319D01*
X2375443Y-1084780D01*
X2373750Y-1083087D01*
X2371210Y-1082241D01*
X2370364D01*
X2367824Y-1083087D01*
X2366131Y-1084780D01*
X2365285Y-1087319D01*
X1102736Y-1075469D02*
X1094271Y-1087319D01*
X1106969D01*
X1102736Y-1075469D02*
Y-1093245D01*
X459271Y-1075469D02*
X468582D01*
X463503Y-1082241D01*
X466043D01*
X467736Y-1083087D01*
X468582Y-1083933D01*
X469429Y-1086473D01*
Y-1088166D01*
X468582Y-1090705D01*
X466889Y-1092398D01*
X464350Y-1093245D01*
X461810D01*
X459271Y-1092398D01*
X458424Y-1091552D01*
X457578Y-1089859D01*
X1739173Y-1075469D02*
X1730708D01*
X1729861Y-1083087D01*
X1730708Y-1082241D01*
X1733247Y-1081394D01*
X1735786D01*
X1738326Y-1082241D01*
X1740019Y-1083933D01*
X1740865Y-1086473D01*
Y-1088166D01*
X1740019Y-1090705D01*
X1738326Y-1092398D01*
X1735786Y-1093245D01*
X1733247D01*
X1730708Y-1092398D01*
X1729861Y-1091552D01*
X1729015Y-1089859D01*
X-173869Y-1079701D02*
Y-1078855D01*
X-173022Y-1077162D01*
X-172176Y-1076315D01*
X-170483Y-1075469D01*
X-167097D01*
X-165404Y-1076315D01*
X-164557Y-1077162D01*
X-163711Y-1078855D01*
Y-1080547D01*
X-164557Y-1082241D01*
X-166250Y-1084780D01*
X-174715Y-1093245D01*
X-162864D01*
X-808614Y-1078855D02*
X-806921Y-1078008D01*
X-804381Y-1075469D01*
Y-1093245D01*
X-1102323Y-813341D02*
Y-831117D01*
Y-813341D02*
X-1096398D01*
X-1093858Y-814187D01*
X-1092166Y-815880D01*
X-1091319Y-817573D01*
X-1090472Y-820113D01*
Y-824345D01*
X-1091319Y-826884D01*
X-1092166Y-828577D01*
X-1093858Y-830270D01*
X-1096398Y-831117D01*
X-1102323D01*
X-1089626Y-215593D02*
X-1090472Y-213900D01*
X-1092166Y-212207D01*
X-1093858Y-211361D01*
X-1097244D01*
X-1098937Y-212207D01*
X-1100630Y-213900D01*
X-1101477Y-215593D01*
X-1102323Y-218132D01*
Y-222365D01*
X-1101477Y-224904D01*
X-1100630Y-226597D01*
X-1098937Y-228290D01*
X-1097244Y-229137D01*
X-1093858D01*
X-1092166Y-228290D01*
X-1090472Y-226597D01*
X-1089626Y-224904D01*
X-1102323Y391889D02*
Y374113D01*
Y391889D02*
X-1094705D01*
X-1092166Y391043D01*
X-1091319Y390196D01*
X-1090472Y388503D01*
Y386810D01*
X-1091319Y385117D01*
X-1092166Y384271D01*
X-1094705Y383424D01*
X-1102323D02*
X-1094705D01*
X-1092166Y382578D01*
X-1091319Y381732D01*
X-1090472Y380039D01*
Y377499D01*
X-1091319Y375806D01*
X-1092166Y374960D01*
X-1094705Y374113D01*
X-1102323D01*
X-1088780Y978633D02*
X-1095552Y996409D01*
X-1102323Y978633D01*
X-1099784Y984559D02*
X-1091319D01*
X-808614Y1283345D02*
X-806921Y1284192D01*
X-804381Y1286731D01*
Y1268955D01*
X-173869Y1282499D02*
Y1283345D01*
X-173022Y1285038D01*
X-172176Y1285885D01*
X-170483Y1286731D01*
X-167097D01*
X-165404Y1285885D01*
X-164557Y1285038D01*
X-163711Y1283345D01*
Y1281653D01*
X-164557Y1279959D01*
X-166250Y1277420D01*
X-174715Y1268955D01*
X-162864D01*
X459271Y1286731D02*
X468582D01*
X463503Y1279959D01*
X466043D01*
X467736Y1279113D01*
X468582Y1278267D01*
X469429Y1275727D01*
Y1274034D01*
X468582Y1271495D01*
X466889Y1269802D01*
X464350Y1268955D01*
X461810D01*
X459271Y1269802D01*
X458424Y1270648D01*
X457578Y1272341D01*
X1102736Y1286731D02*
X1094271Y1274881D01*
X1106969D01*
X1102736Y1286731D02*
Y1268955D01*
X1739173Y1286731D02*
X1730708D01*
X1729861Y1279113D01*
X1730708Y1279959D01*
X1733247Y1280806D01*
X1735786D01*
X1738326Y1279959D01*
X1740019Y1278267D01*
X1740865Y1275727D01*
Y1274034D01*
X1740019Y1271495D01*
X1738326Y1269802D01*
X1735786Y1268955D01*
X1733247D01*
X1730708Y1269802D01*
X1729861Y1270648D01*
X1729015Y1272341D01*
X2375443Y1284192D02*
X2374596Y1285885D01*
X2372056Y1286731D01*
X2370364D01*
X2367824Y1285885D01*
X2366131Y1283345D01*
X2365285Y1279113D01*
Y1274881D01*
X2366131Y1271495D01*
X2367824Y1269802D01*
X2370364Y1268955D01*
X2371210D01*
X2373750Y1269802D01*
X2375443Y1271495D01*
X2376289Y1274034D01*
Y1274881D01*
X2375443Y1277420D01*
X2373750Y1279113D01*
X2371210Y1279959D01*
X2370364D01*
X2367824Y1279113D01*
X2366131Y1277420D01*
X2365285Y1274881D01*
X2670421Y978633D02*
X2663648Y996409D01*
X2656877Y978633D01*
X2659416Y984559D02*
X2667881D01*
X2656877Y391889D02*
Y374113D01*
Y391889D02*
X2664495D01*
X2667035Y391043D01*
X2667881Y390196D01*
X2668727Y388503D01*
Y386810D01*
X2667881Y385117D01*
X2667035Y384271D01*
X2664495Y383424D01*
X2656877D02*
X2664495D01*
X2667035Y382578D01*
X2667881Y381732D01*
X2668727Y380039D01*
Y377499D01*
X2667881Y375806D01*
X2667035Y374960D01*
X2664495Y374113D01*
X2656877D01*
X2669574Y-215593D02*
X2668727Y-213900D01*
X2667035Y-212207D01*
X2665341Y-211361D01*
X2661956D01*
X2660262Y-212207D01*
X2658570Y-213900D01*
X2657723Y-215593D01*
X2656877Y-218132D01*
Y-222365D01*
X2657723Y-224904D01*
X2658570Y-226597D01*
X2660262Y-228290D01*
X2661956Y-229137D01*
X2665341D01*
X2667035Y-228290D01*
X2668727Y-226597D01*
X2669574Y-224904D01*
D34*
X1663901Y-842449D02*
Y-841734D01*
X1664615Y-840306D01*
X1665329Y-839592D01*
X1666757Y-838878D01*
X1669614D01*
X1671042Y-839592D01*
X1671756Y-840306D01*
X1672470Y-841734D01*
Y-843163D01*
X1671756Y-844591D01*
X1670328Y-846733D01*
X1663187Y-853875D01*
X1673185D01*
X1676541Y-841734D02*
X1677969Y-841020D01*
X1680112Y-838878D01*
Y-853875D01*
X1687538Y-856017D02*
X1697536Y-838878D01*
X1702821D02*
X1700679Y-839592D01*
X1699250Y-841734D01*
X1698536Y-845305D01*
Y-847448D01*
X1699250Y-851018D01*
X1700679Y-853161D01*
X1702821Y-853875D01*
X1704249D01*
X1706392Y-853161D01*
X1707820Y-851018D01*
X1708534Y-847448D01*
Y-845305D01*
X1707820Y-841734D01*
X1706392Y-839592D01*
X1704249Y-838878D01*
X1702821D01*
X1711891Y-841734D02*
X1713319Y-841020D01*
X1715461Y-838878D01*
Y-853875D01*
X1722888Y-856017D02*
X1732886Y-838878D01*
X1733886Y-841734D02*
X1735314Y-841020D01*
X1737456Y-838878D01*
Y-853875D01*
X1754167Y-843877D02*
X1753453Y-846019D01*
X1752025Y-847448D01*
X1749882Y-848162D01*
X1749168D01*
X1747026Y-847448D01*
X1745598Y-846019D01*
X1744883Y-843877D01*
Y-843163D01*
X1745598Y-841020D01*
X1747026Y-839592D01*
X1749168Y-838878D01*
X1749882D01*
X1752025Y-839592D01*
X1753453Y-841020D01*
X1754167Y-843877D01*
Y-847448D01*
X1753453Y-851018D01*
X1752025Y-853161D01*
X1749882Y-853875D01*
X1748454D01*
X1746312Y-853161D01*
X1745598Y-851732D01*
X1663901Y-787949D02*
Y-787234D01*
X1664615Y-785806D01*
X1665329Y-785092D01*
X1666757Y-784378D01*
X1669614D01*
X1671042Y-785092D01*
X1671756Y-785806D01*
X1672470Y-787234D01*
Y-788663D01*
X1671756Y-790091D01*
X1670328Y-792233D01*
X1663187Y-799375D01*
X1673185D01*
X1676541Y-787234D02*
X1677969Y-786520D01*
X1680112Y-784378D01*
Y-799375D01*
X1687538Y-801517D02*
X1697536Y-784378D01*
X1702821D02*
X1700679Y-785092D01*
X1699250Y-787234D01*
X1698536Y-790805D01*
Y-792948D01*
X1699250Y-796518D01*
X1700679Y-798661D01*
X1702821Y-799375D01*
X1704249D01*
X1706392Y-798661D01*
X1707820Y-796518D01*
X1708534Y-792948D01*
Y-790805D01*
X1707820Y-787234D01*
X1706392Y-785092D01*
X1704249Y-784378D01*
X1702821D01*
X1711891Y-787234D02*
X1713319Y-786520D01*
X1715461Y-784378D01*
Y-799375D01*
X1722888Y-801517D02*
X1732886Y-784378D01*
X1733886Y-787234D02*
X1735314Y-786520D01*
X1737456Y-784378D01*
Y-799375D01*
X1754167Y-789377D02*
X1753453Y-791519D01*
X1752025Y-792948D01*
X1749882Y-793662D01*
X1749168D01*
X1747026Y-792948D01*
X1745598Y-791519D01*
X1744883Y-789377D01*
Y-788663D01*
X1745598Y-786520D01*
X1747026Y-785092D01*
X1749168Y-784378D01*
X1749882D01*
X1752025Y-785092D01*
X1753453Y-786520D01*
X1754167Y-789377D01*
Y-792948D01*
X1753453Y-796518D01*
X1752025Y-798661D01*
X1749882Y-799375D01*
X1748454D01*
X1746312Y-798661D01*
X1745598Y-797232D01*
X1164325Y-773790D02*
Y-784502D01*
X1165039Y-786644D01*
X1166467Y-788073D01*
X1168609Y-788787D01*
X1170038D01*
X1172180Y-788073D01*
X1173608Y-786644D01*
X1174323Y-784502D01*
Y-773790D01*
X1178465D02*
Y-788787D01*
Y-773790D02*
X1188462Y-788787D01*
Y-773790D02*
Y-788787D01*
X1192604Y-773790D02*
Y-788787D01*
X1201174D01*
X1212100Y-773790D02*
X1202816D01*
Y-788787D01*
X1212100D01*
X1202816Y-780931D02*
X1208530D01*
X1224597Y-775932D02*
X1223169Y-774504D01*
X1221027Y-773790D01*
X1218170D01*
X1216028Y-774504D01*
X1214600Y-775932D01*
Y-777361D01*
X1215314Y-778789D01*
X1216028Y-779503D01*
X1217456Y-780217D01*
X1221741Y-781646D01*
X1223169Y-782360D01*
X1223883Y-783074D01*
X1224597Y-784502D01*
Y-786644D01*
X1223169Y-788073D01*
X1221027Y-788787D01*
X1218170D01*
X1216028Y-788073D01*
X1214600Y-786644D01*
X1237952Y-775932D02*
X1236524Y-774504D01*
X1234381Y-773790D01*
X1231525D01*
X1229382Y-774504D01*
X1227954Y-775932D01*
Y-777361D01*
X1228668Y-778789D01*
X1229382Y-779503D01*
X1230810Y-780217D01*
X1235095Y-781646D01*
X1236524Y-782360D01*
X1237238Y-783074D01*
X1237952Y-784502D01*
Y-786644D01*
X1236524Y-788073D01*
X1234381Y-788787D01*
X1231525D01*
X1229382Y-788073D01*
X1227954Y-786644D01*
X1257376Y-773790D02*
X1255948Y-774504D01*
X1254520Y-775932D01*
X1253805Y-777361D01*
X1253091Y-779503D01*
Y-783074D01*
X1253805Y-785216D01*
X1254520Y-786644D01*
X1255948Y-788073D01*
X1257376Y-788787D01*
X1260233D01*
X1261661Y-788073D01*
X1263089Y-786644D01*
X1263803Y-785216D01*
X1264518Y-783074D01*
Y-779503D01*
X1263803Y-777361D01*
X1263089Y-775932D01*
X1261661Y-774504D01*
X1260233Y-773790D01*
X1257376D01*
X1273016D02*
Y-788787D01*
X1268017Y-773790D02*
X1278015D01*
X1279800D02*
Y-788787D01*
X1289798Y-773790D02*
Y-788787D01*
X1279800Y-780931D02*
X1289798D01*
X1303224Y-773790D02*
X1293940D01*
Y-788787D01*
X1303224D01*
X1293940Y-780931D02*
X1299653D01*
X1305723Y-773790D02*
Y-788787D01*
Y-773790D02*
X1312150D01*
X1314292Y-774504D01*
X1315007Y-775218D01*
X1315721Y-776646D01*
Y-778075D01*
X1315007Y-779503D01*
X1314292Y-780217D01*
X1312150Y-780931D01*
X1305723D01*
X1310722D02*
X1315721Y-788787D01*
X1319077Y-773790D02*
X1322648Y-788787D01*
X1326219Y-773790D02*
X1322648Y-788787D01*
X1326219Y-773790D02*
X1329789Y-788787D01*
X1333360Y-773790D02*
X1329789Y-788787D01*
X1336359Y-773790D02*
Y-788787D01*
X1349499Y-775932D02*
X1348071Y-774504D01*
X1345929Y-773790D01*
X1343072D01*
X1340930Y-774504D01*
X1339501Y-775932D01*
Y-777361D01*
X1340215Y-778789D01*
X1340930Y-779503D01*
X1342358Y-780217D01*
X1346643Y-781646D01*
X1348071Y-782360D01*
X1348785Y-783074D01*
X1349499Y-784502D01*
Y-786644D01*
X1348071Y-788073D01*
X1345929Y-788787D01*
X1343072D01*
X1340930Y-788073D01*
X1339501Y-786644D01*
X1362139Y-773790D02*
X1352856D01*
Y-788787D01*
X1362139D01*
X1352856Y-780931D02*
X1358569D01*
X1386420Y-775932D02*
X1384992Y-774504D01*
X1382849Y-773790D01*
X1379993D01*
X1377850Y-774504D01*
X1376422Y-775932D01*
Y-777361D01*
X1377136Y-778789D01*
X1377850Y-779503D01*
X1379279Y-780217D01*
X1383563Y-781646D01*
X1384992Y-782360D01*
X1385706Y-783074D01*
X1386420Y-784502D01*
Y-786644D01*
X1384992Y-788073D01*
X1382849Y-788787D01*
X1379993D01*
X1377850Y-788073D01*
X1376422Y-786644D01*
X1389776Y-781646D02*
X1396203D01*
X1398346Y-780931D01*
X1399060Y-780217D01*
X1399774Y-778789D01*
Y-776646D01*
X1399060Y-775218D01*
X1398346Y-774504D01*
X1396203Y-773790D01*
X1389776D01*
Y-788787D01*
X1412414Y-773790D02*
X1403131D01*
Y-788787D01*
X1412414D01*
X1403131Y-780931D02*
X1408844D01*
X1425626Y-777361D02*
X1424912Y-775932D01*
X1423483Y-774504D01*
X1422055Y-773790D01*
X1419199D01*
X1417770Y-774504D01*
X1416342Y-775932D01*
X1415628Y-777361D01*
X1414914Y-779503D01*
Y-783074D01*
X1415628Y-785216D01*
X1416342Y-786644D01*
X1417770Y-788073D01*
X1419199Y-788787D01*
X1422055D01*
X1423483Y-788073D01*
X1424912Y-786644D01*
X1425626Y-785216D01*
X1429839Y-773790D02*
Y-788787D01*
X1432981Y-773790D02*
Y-788787D01*
Y-773790D02*
X1442265D01*
X1432981Y-780931D02*
X1438694D01*
X1443979Y-773790D02*
Y-788787D01*
X1456405Y-773790D02*
X1447121D01*
Y-788787D01*
X1456405D01*
X1447121Y-780931D02*
X1452834D01*
X1458904Y-773790D02*
Y-788787D01*
Y-773790D02*
X1463903D01*
X1466046Y-774504D01*
X1467474Y-775932D01*
X1468188Y-777361D01*
X1468902Y-779503D01*
Y-783074D01*
X1468188Y-785216D01*
X1467474Y-786644D01*
X1466046Y-788073D01*
X1463903Y-788787D01*
X1458904D01*
X1195325Y-805790D02*
Y-820787D01*
Y-805790D02*
X1200324D01*
X1202466Y-806504D01*
X1203894Y-807932D01*
X1204608Y-809361D01*
X1205323Y-811503D01*
Y-815074D01*
X1204608Y-817216D01*
X1203894Y-818644D01*
X1202466Y-820073D01*
X1200324Y-820787D01*
X1195325D01*
X1208679Y-805790D02*
Y-820787D01*
X1211821Y-805790D02*
Y-820787D01*
Y-805790D02*
X1217534Y-820787D01*
X1223247Y-805790D02*
X1217534Y-820787D01*
X1223247Y-805790D02*
Y-820787D01*
X1236816Y-805790D02*
X1227532D01*
Y-820787D01*
X1236816D01*
X1227532Y-812931D02*
X1233245D01*
X1239315Y-805790D02*
Y-820787D01*
Y-805790D02*
X1249313Y-820787D01*
Y-805790D02*
Y-820787D01*
X1263453Y-807932D02*
X1262025Y-806504D01*
X1259882Y-805790D01*
X1257026D01*
X1254883Y-806504D01*
X1253455Y-807932D01*
Y-809361D01*
X1254169Y-810789D01*
X1254883Y-811503D01*
X1256312Y-812217D01*
X1260596Y-813645D01*
X1262025Y-814360D01*
X1262739Y-815074D01*
X1263453Y-816502D01*
Y-818644D01*
X1262025Y-820073D01*
X1259882Y-820787D01*
X1257026D01*
X1254883Y-820073D01*
X1253455Y-818644D01*
X1266809Y-805790D02*
Y-820787D01*
X1274236Y-805790D02*
X1272808Y-806504D01*
X1271380Y-807932D01*
X1270666Y-809361D01*
X1269952Y-811503D01*
Y-815074D01*
X1270666Y-817216D01*
X1271380Y-818644D01*
X1272808Y-820073D01*
X1274236Y-820787D01*
X1277093D01*
X1278521Y-820073D01*
X1279949Y-818644D01*
X1280664Y-817216D01*
X1281378Y-815074D01*
Y-811503D01*
X1280664Y-809361D01*
X1279949Y-807932D01*
X1278521Y-806504D01*
X1277093Y-805790D01*
X1274236D01*
X1284877D02*
Y-820787D01*
Y-805790D02*
X1294875Y-820787D01*
Y-805790D02*
Y-820787D01*
X1309015Y-807932D02*
X1307586Y-806504D01*
X1305444Y-805790D01*
X1302587D01*
X1300445Y-806504D01*
X1299017Y-807932D01*
Y-809361D01*
X1299731Y-810789D01*
X1300445Y-811503D01*
X1301873Y-812217D01*
X1306158Y-813645D01*
X1307586Y-814360D01*
X1308300Y-815074D01*
X1309015Y-816502D01*
Y-818644D01*
X1307586Y-820073D01*
X1305444Y-820787D01*
X1302587D01*
X1300445Y-820073D01*
X1299017Y-818644D01*
X1335580Y-820787D02*
X1329867Y-805790D01*
X1324154Y-820787D01*
X1326297Y-815788D02*
X1333438D01*
X1339080Y-805790D02*
Y-820787D01*
Y-805790D02*
X1345507D01*
X1347649Y-806504D01*
X1348363Y-807218D01*
X1349077Y-808646D01*
Y-810075D01*
X1348363Y-811503D01*
X1347649Y-812217D01*
X1345507Y-812931D01*
X1339080D01*
X1344079D02*
X1349077Y-820787D01*
X1361718Y-805790D02*
X1352434D01*
Y-820787D01*
X1361718D01*
X1352434Y-812931D02*
X1358147D01*
X1376000Y-805790D02*
Y-820787D01*
X1379142Y-805790D02*
Y-820787D01*
Y-805790D02*
X1389140Y-820787D01*
Y-805790D02*
Y-820787D01*
X1405065Y-805790D02*
Y-820787D01*
Y-805790D02*
X1410779Y-820787D01*
X1416492Y-805790D02*
X1410779Y-820787D01*
X1416492Y-805790D02*
Y-820787D01*
X1420776Y-805790D02*
Y-820787D01*
Y-805790D02*
X1426489Y-820787D01*
X1432202Y-805790D02*
X1426489Y-820787D01*
X1432202Y-805790D02*
Y-820787D01*
X1251324Y-837790D02*
Y-852787D01*
X1246325Y-837790D02*
X1256323D01*
X1262393D02*
X1260964Y-838504D01*
X1259536Y-839932D01*
X1258822Y-841361D01*
X1258108Y-843503D01*
Y-847074D01*
X1258822Y-849216D01*
X1259536Y-850644D01*
X1260964Y-852073D01*
X1262393Y-852787D01*
X1265249D01*
X1266677Y-852073D01*
X1268106Y-850644D01*
X1268820Y-849216D01*
X1269534Y-847074D01*
Y-843503D01*
X1268820Y-841361D01*
X1268106Y-839932D01*
X1266677Y-838504D01*
X1265249Y-837790D01*
X1262393D01*
X1273033D02*
Y-852787D01*
X1281603D01*
X1292529Y-837790D02*
X1283245D01*
Y-852787D01*
X1292529D01*
X1283245Y-844931D02*
X1288958D01*
X1295029Y-837790D02*
Y-852787D01*
Y-837790D02*
X1301456D01*
X1303598Y-838504D01*
X1304312Y-839218D01*
X1305026Y-840647D01*
Y-842075D01*
X1304312Y-843503D01*
X1303598Y-844217D01*
X1301456Y-844931D01*
X1295029D01*
X1300027D02*
X1305026Y-852787D01*
X1319809D02*
X1314096Y-837790D01*
X1308383Y-852787D01*
X1310525Y-847788D02*
X1317667D01*
X1323308Y-837790D02*
Y-852787D01*
Y-837790D02*
X1333306Y-852787D01*
Y-837790D02*
Y-852787D01*
X1348160Y-841361D02*
X1347446Y-839932D01*
X1346018Y-838504D01*
X1344589Y-837790D01*
X1341733D01*
X1340305Y-838504D01*
X1338876Y-839932D01*
X1338162Y-841361D01*
X1337448Y-843503D01*
Y-847074D01*
X1338162Y-849216D01*
X1338876Y-850644D01*
X1340305Y-852073D01*
X1341733Y-852787D01*
X1344589D01*
X1346018Y-852073D01*
X1347446Y-850644D01*
X1348160Y-849216D01*
X1361657Y-837790D02*
X1352373D01*
Y-852787D01*
X1361657D01*
X1352373Y-844931D02*
X1358087D01*
X1374154Y-839932D02*
X1372726Y-838504D01*
X1370584Y-837790D01*
X1367727D01*
X1365585Y-838504D01*
X1364157Y-839932D01*
Y-841361D01*
X1364871Y-842789D01*
X1365585Y-843503D01*
X1367013Y-844217D01*
X1371298Y-845645D01*
X1372726Y-846359D01*
X1373440Y-847074D01*
X1374154Y-848502D01*
Y-850644D01*
X1372726Y-852073D01*
X1370584Y-852787D01*
X1367727D01*
X1365585Y-852073D01*
X1364157Y-850644D01*
X1165325Y-880790D02*
Y-895787D01*
Y-880790D02*
X1170324D01*
X1172466Y-881504D01*
X1173894Y-882932D01*
X1174608Y-884361D01*
X1175323Y-886503D01*
Y-890074D01*
X1174608Y-892216D01*
X1173894Y-893644D01*
X1172466Y-895073D01*
X1170324Y-895787D01*
X1165325D01*
X1187963Y-880790D02*
X1178679D01*
Y-895787D01*
X1187963D01*
X1178679Y-887931D02*
X1184392D01*
X1201174Y-884361D02*
X1200460Y-882932D01*
X1199032Y-881504D01*
X1197604Y-880790D01*
X1194747D01*
X1193319Y-881504D01*
X1191890Y-882932D01*
X1191176Y-884361D01*
X1190462Y-886503D01*
Y-890074D01*
X1191176Y-892216D01*
X1191890Y-893644D01*
X1193319Y-895073D01*
X1194747Y-895787D01*
X1197604D01*
X1199032Y-895073D01*
X1200460Y-893644D01*
X1201174Y-892216D01*
X1205388Y-880790D02*
Y-895787D01*
X1208530Y-880790D02*
Y-895787D01*
Y-880790D02*
X1214243Y-895787D01*
X1219956Y-880790D02*
X1214243Y-895787D01*
X1219956Y-880790D02*
Y-895787D01*
X1235667D02*
X1229954Y-880790D01*
X1224241Y-895787D01*
X1226383Y-890788D02*
X1233524D01*
X1239166Y-880790D02*
Y-895787D01*
X1247736D01*
X1259376Y-882932D02*
X1257948Y-881504D01*
X1255805Y-880790D01*
X1252949D01*
X1250806Y-881504D01*
X1249378Y-882932D01*
Y-884361D01*
X1250092Y-885789D01*
X1250806Y-886503D01*
X1252235Y-887217D01*
X1256519Y-888645D01*
X1257948Y-889360D01*
X1258662Y-890074D01*
X1259376Y-891502D01*
Y-893644D01*
X1257948Y-895073D01*
X1255805Y-895787D01*
X1252949D01*
X1250806Y-895073D01*
X1249378Y-893644D01*
X1380751Y-892787D02*
X1375038Y-877790D01*
X1369325Y-892787D01*
X1371467Y-887788D02*
X1378608D01*
X1384250Y-877790D02*
Y-892787D01*
Y-877790D02*
X1394248Y-892787D01*
Y-877790D02*
Y-892787D01*
X1409102Y-881361D02*
X1408388Y-879932D01*
X1406960Y-878504D01*
X1405531Y-877790D01*
X1402675D01*
X1401246Y-878504D01*
X1399818Y-879932D01*
X1399104Y-881361D01*
X1398390Y-883503D01*
Y-887074D01*
X1399104Y-889216D01*
X1399818Y-890644D01*
X1401246Y-892073D01*
X1402675Y-892787D01*
X1405531D01*
X1406960Y-892073D01*
X1408388Y-890644D01*
X1409102Y-889216D01*
Y-887074D01*
X1405531D02*
X1409102D01*
X1412530Y-877790D02*
Y-888502D01*
X1413244Y-890644D01*
X1414672Y-892073D01*
X1416815Y-892787D01*
X1418243D01*
X1420385Y-892073D01*
X1421814Y-890644D01*
X1422528Y-888502D01*
Y-877790D01*
X1426670D02*
Y-892787D01*
X1435239D01*
X1448308D02*
X1442595Y-877790D01*
X1436882Y-892787D01*
X1439024Y-887788D02*
X1446165D01*
X1451807Y-877790D02*
Y-892787D01*
Y-877790D02*
X1458234D01*
X1460377Y-878504D01*
X1461091Y-879218D01*
X1461805Y-880647D01*
Y-882075D01*
X1461091Y-883503D01*
X1460377Y-884217D01*
X1458234Y-884931D01*
X1451807D01*
X1456806D02*
X1461805Y-892787D01*
X1372752Y-923932D02*
Y-936787D01*
X1366325Y-930360D02*
X1379179D01*
X1383607Y-938929D02*
X1393605Y-921790D01*
X1394604Y-930360D02*
X1407459D01*
X1154039Y-934359D02*
X1153325Y-935073D01*
X1154039Y-935787D01*
X1154753Y-935073D01*
X1154039Y-934359D01*
X1158038Y-920790D02*
X1168036Y-935787D01*
Y-920790D02*
X1158038Y-935787D01*
X1171392Y-920790D02*
X1181390Y-935787D01*
Y-920790D02*
X1171392Y-935787D01*
X1202957Y-922932D02*
Y-935787D01*
X1196530Y-929360D02*
X1209384D01*
X1213812Y-937929D02*
X1223810Y-920790D01*
X1224809Y-929360D02*
X1237664D01*
X1254589Y-934359D02*
X1253875Y-935073D01*
X1254589Y-935787D01*
X1255303Y-935073D01*
X1254589Y-934359D01*
X1258588Y-923646D02*
X1260016Y-922932D01*
X1262159Y-920790D01*
Y-935787D01*
X1270300Y-924361D02*
Y-923646D01*
X1271014Y-922218D01*
X1271728Y-921504D01*
X1273156Y-920790D01*
X1276013D01*
X1277441Y-921504D01*
X1278155Y-922218D01*
X1278869Y-923646D01*
Y-925075D01*
X1278155Y-926503D01*
X1276727Y-928645D01*
X1269585Y-935787D01*
X1279583D01*
X1292938Y-920790D02*
X1285796Y-935787D01*
X1282940Y-920790D02*
X1292938D01*
X1296294D02*
Y-935787D01*
Y-920790D02*
X1302007Y-935787D01*
X1307720Y-920790D02*
X1302007Y-935787D01*
X1307720Y-920790D02*
Y-935787D01*
X1312005Y-920790D02*
Y-935787D01*
Y-920790D02*
X1317718Y-935787D01*
X1323431Y-920790D02*
X1317718Y-935787D01*
X1323431Y-920790D02*
Y-935787D01*
X1151039Y-975359D02*
X1150325Y-976073D01*
X1151039Y-976787D01*
X1151753Y-976073D01*
X1151039Y-975359D01*
X1155038Y-961790D02*
X1165036Y-976787D01*
Y-961790D02*
X1155038Y-976787D01*
X1168392Y-961790D02*
X1178390Y-976787D01*
Y-961790D02*
X1168392Y-976787D01*
X1181747Y-961790D02*
X1191744Y-976787D01*
Y-961790D02*
X1181747Y-976787D01*
X1213311Y-963932D02*
Y-976787D01*
X1206884Y-970360D02*
X1219738D01*
X1224166Y-978929D02*
X1234164Y-961790D01*
X1235164Y-970360D02*
X1248018D01*
X1264943Y-975359D02*
X1264229Y-976073D01*
X1264943Y-976787D01*
X1265657Y-976073D01*
X1264943Y-975359D01*
X1273227Y-961790D02*
X1271085Y-962504D01*
X1269656Y-964647D01*
X1268942Y-968217D01*
Y-970360D01*
X1269656Y-973930D01*
X1271085Y-976073D01*
X1273227Y-976787D01*
X1274655D01*
X1276798Y-976073D01*
X1278226Y-973930D01*
X1278940Y-970360D01*
Y-968217D01*
X1278226Y-964647D01*
X1276798Y-962504D01*
X1274655Y-961790D01*
X1273227D01*
X1285867D02*
X1283725Y-962504D01*
X1283011Y-963932D01*
Y-965361D01*
X1283725Y-966789D01*
X1285153Y-967503D01*
X1288009Y-968217D01*
X1290152Y-968931D01*
X1291580Y-970360D01*
X1292294Y-971788D01*
Y-973930D01*
X1291580Y-975359D01*
X1290866Y-976073D01*
X1288724Y-976787D01*
X1285867D01*
X1283725Y-976073D01*
X1283011Y-975359D01*
X1282296Y-973930D01*
Y-971788D01*
X1283011Y-970360D01*
X1284439Y-968931D01*
X1286581Y-968217D01*
X1289438Y-967503D01*
X1290866Y-966789D01*
X1291580Y-965361D01*
Y-963932D01*
X1290866Y-962504D01*
X1288724Y-961790D01*
X1285867D01*
X1299935D02*
X1297793Y-962504D01*
X1296365Y-964647D01*
X1295651Y-968217D01*
Y-970360D01*
X1296365Y-973930D01*
X1297793Y-976073D01*
X1299935Y-976787D01*
X1301364D01*
X1303506Y-976073D01*
X1304934Y-973930D01*
X1305648Y-970360D01*
Y-968217D01*
X1304934Y-964647D01*
X1303506Y-962504D01*
X1301364Y-961790D01*
X1299935D01*
X1309005D02*
Y-976787D01*
Y-961790D02*
X1314718Y-976787D01*
X1320431Y-961790D02*
X1314718Y-976787D01*
X1320431Y-961790D02*
Y-976787D01*
X1324716Y-961790D02*
Y-976787D01*
Y-961790D02*
X1330429Y-976787D01*
X1336142Y-961790D02*
X1330429Y-976787D01*
X1336142Y-961790D02*
Y-976787D01*
X1164325Y-1019791D02*
Y-1037787D01*
Y-1019791D02*
X1170323D01*
X1172894Y-1020648D01*
X1174608Y-1022362D01*
X1175465Y-1024075D01*
X1176322Y-1026646D01*
Y-1030931D01*
X1175465Y-1033502D01*
X1174608Y-1035216D01*
X1172894Y-1036930D01*
X1170323Y-1037787D01*
X1164325D01*
X1185492Y-1019791D02*
X1183778Y-1020648D01*
X1182064Y-1022362D01*
X1181207Y-1024075D01*
X1180350Y-1026646D01*
Y-1030931D01*
X1181207Y-1033502D01*
X1182064Y-1035216D01*
X1183778Y-1036930D01*
X1185492Y-1037787D01*
X1188919D01*
X1190633Y-1036930D01*
X1192347Y-1035216D01*
X1193204Y-1033502D01*
X1194061Y-1030931D01*
Y-1026646D01*
X1193204Y-1024075D01*
X1192347Y-1022362D01*
X1190633Y-1020648D01*
X1188919Y-1019791D01*
X1185492D01*
X1212400D02*
Y-1037787D01*
Y-1019791D02*
X1224398Y-1037787D01*
Y-1019791D02*
Y-1037787D01*
X1234510Y-1019791D02*
X1232796Y-1020648D01*
X1231082Y-1022362D01*
X1230225Y-1024075D01*
X1229368Y-1026646D01*
Y-1030931D01*
X1230225Y-1033502D01*
X1231082Y-1035216D01*
X1232796Y-1036930D01*
X1234510Y-1037787D01*
X1237937D01*
X1239651Y-1036930D01*
X1241365Y-1035216D01*
X1242222Y-1033502D01*
X1243079Y-1030931D01*
Y-1026646D01*
X1242222Y-1024075D01*
X1241365Y-1022362D01*
X1239651Y-1020648D01*
X1237937Y-1019791D01*
X1234510D01*
X1253277D02*
Y-1037787D01*
X1247278Y-1019791D02*
X1259276D01*
X1287555Y-1022362D02*
X1285842Y-1020648D01*
X1283271Y-1019791D01*
X1279843D01*
X1277272Y-1020648D01*
X1275558Y-1022362D01*
Y-1024075D01*
X1276415Y-1025789D01*
X1277272Y-1026646D01*
X1278986Y-1027503D01*
X1284128Y-1029217D01*
X1285842Y-1030074D01*
X1286698Y-1030931D01*
X1287555Y-1032645D01*
Y-1035216D01*
X1285842Y-1036930D01*
X1283271Y-1037787D01*
X1279843D01*
X1277272Y-1036930D01*
X1275558Y-1035216D01*
X1304438Y-1024075D02*
X1303580Y-1022362D01*
X1301867Y-1020648D01*
X1300153Y-1019791D01*
X1296725D01*
X1295011Y-1020648D01*
X1293297Y-1022362D01*
X1292440Y-1024075D01*
X1291583Y-1026646D01*
Y-1030931D01*
X1292440Y-1033502D01*
X1293297Y-1035216D01*
X1295011Y-1036930D01*
X1296725Y-1037787D01*
X1300153D01*
X1301867Y-1036930D01*
X1303580Y-1035216D01*
X1304438Y-1033502D01*
X1323205Y-1037787D02*
X1316349Y-1019791D01*
X1309494Y-1037787D01*
X1312064Y-1031788D02*
X1320634D01*
X1327404Y-1019791D02*
Y-1037787D01*
X1337688D01*
X1350799Y-1019791D02*
X1339659D01*
Y-1037787D01*
X1350799D01*
X1339659Y-1028360D02*
X1346514D01*
X1367938Y-1019791D02*
Y-1037787D01*
Y-1019791D02*
X1373937D01*
X1376508Y-1020648D01*
X1378222Y-1022362D01*
X1379079Y-1024075D01*
X1379935Y-1026646D01*
Y-1030931D01*
X1379079Y-1033502D01*
X1378222Y-1035216D01*
X1376508Y-1036930D01*
X1373937Y-1037787D01*
X1367938D01*
X1383963Y-1019791D02*
Y-1037787D01*
Y-1019791D02*
X1391676D01*
X1394247Y-1020648D01*
X1395104Y-1021505D01*
X1395961Y-1023219D01*
Y-1024932D01*
X1395104Y-1026646D01*
X1394247Y-1027503D01*
X1391676Y-1028360D01*
X1383963D01*
X1389962D02*
X1395961Y-1037787D01*
X1413700D02*
X1406844Y-1019791D01*
X1399988Y-1037787D01*
X1402559Y-1031788D02*
X1411129D01*
X1417899Y-1019791D02*
X1422184Y-1037787D01*
X1426468Y-1019791D02*
X1422184Y-1037787D01*
X1426468Y-1019791D02*
X1430753Y-1037787D01*
X1435038Y-1019791D02*
X1430753Y-1037787D01*
X1438637Y-1019791D02*
Y-1037787D01*
X1442408Y-1019791D02*
Y-1037787D01*
Y-1019791D02*
X1454405Y-1037787D01*
Y-1019791D02*
Y-1037787D01*
X1472230Y-1024075D02*
X1471373Y-1022362D01*
X1469659Y-1020648D01*
X1467945Y-1019791D01*
X1464517D01*
X1462803Y-1020648D01*
X1461090Y-1022362D01*
X1460233Y-1024075D01*
X1459376Y-1026646D01*
Y-1030931D01*
X1460233Y-1033502D01*
X1461090Y-1035216D01*
X1462803Y-1036930D01*
X1464517Y-1037787D01*
X1467945D01*
X1469659Y-1036930D01*
X1471373Y-1035216D01*
X1472230Y-1033502D01*
Y-1030931D01*
X1467945D02*
X1472230D01*
M02*
