G04*
G04 #@! TF.GenerationSoftware,Altium Limited,Altium Designer,19.0.12 (326)*
G04*
G04 Layer_Physical_Order=2*
G04 Layer_Color=16711680*
%FSLAX44Y44*%
%MOMM*%
G71*
G01*
G75*
%ADD10C,0.2413*%
%ADD11C,0.2540*%
%ADD12C,0.1524*%
%ADD13R,0.3000X4.0000*%
%ADD21C,0.1270*%
%ADD22C,0.5080*%
%ADD23C,0.4064*%
%ADD24C,0.5080*%
D10*
X1580119Y714640D02*
G03*
X1578140Y716618I-1979J0D01*
G01*
X1580119Y603617D02*
G03*
X1575500Y596860I-299J-4753D01*
G01*
X1574263Y597848D02*
G03*
X1565148Y599782I-4762J0D01*
G01*
X1563882Y666000D02*
G03*
X1554500Y675381I-9381J0D01*
G01*
X1565148Y599782D02*
G03*
X1563882Y599765I-568J-4728D01*
G01*
X1572993Y594610D02*
G03*
X1574263Y597848I-3492J3238D01*
G01*
X1557206Y716618D02*
X1580119Y693706D01*
X1567982Y716618D02*
X1580119Y704482D01*
X1559500Y716618D02*
X1578140D01*
X1528161Y675381D02*
X1569398Y716618D01*
X1546429D02*
X1580119Y682929D01*
X1506608Y675381D02*
X1547845Y716618D01*
X1503324D02*
X1544561Y675381D01*
X1517385D02*
X1558622Y716618D01*
X1492548D02*
X1533785Y675381D01*
X1495832D02*
X1537069Y716618D01*
X1485056Y675381D02*
X1526293Y716618D01*
X1481772D02*
X1523009Y675381D01*
X1474500Y716618D02*
X1559500D01*
X1470995D02*
X1512232Y675381D01*
X1463503D02*
X1504740Y716618D01*
X1474280Y675381D02*
X1515517Y716618D01*
X1452727Y675381D02*
X1493964Y716618D01*
X1449443D02*
X1490680Y675381D01*
X1460219Y716618D02*
X1501456Y675381D01*
X1374008Y716618D02*
X1415245Y675381D01*
X1441951D02*
X1483188Y716618D01*
X1578917Y716459D02*
X1579959Y715417D01*
X1538937Y675381D02*
X1579567Y716011D01*
X1549714Y675381D02*
X1580119Y705786D01*
X1431174Y675381D02*
X1472411Y716618D01*
X1427890D02*
X1469127Y675381D01*
X1438666Y716618D02*
X1479903Y675381D01*
X1417114Y716618D02*
X1458351Y675381D01*
X1409622D02*
X1450859Y716618D01*
X1420398Y675381D02*
X1461635Y716618D01*
X1398845Y675381D02*
X1440082Y716618D01*
X1406337D02*
X1447574Y675381D01*
X1363232Y716618D02*
X1404469Y675381D01*
X1355740D02*
X1396977Y716618D01*
X1366517Y675381D02*
X1407753Y716618D01*
X1344964Y675381D02*
X1386201Y716618D01*
X1341679D02*
X1382916Y675381D01*
X1352456Y716618D02*
X1393693Y675381D01*
X1388069D02*
X1429306Y716618D01*
X1384785D02*
X1426022Y675381D01*
X1395561Y716618D02*
X1436798Y675381D01*
X1374008Y716618D02*
X1415246Y675381D01*
X1377293D02*
X1418530Y716618D01*
X1018390D02*
X1059627Y675381D01*
X1010898D02*
X1052135Y716618D01*
X1021675Y675381D02*
X1062912Y716618D01*
X1000122Y675381D02*
X1041359Y716618D01*
X996837D02*
X1038074Y675381D01*
X1007614Y716618D02*
X1048851Y675381D01*
X1043227D02*
X1084464Y716618D01*
X1039943D02*
X1081180Y675381D01*
X1050719Y716618D02*
X1091956Y675381D01*
X1029166Y716618D02*
X1070403Y675381D01*
X1032451D02*
X1073688Y716618D01*
X921403D02*
X962640Y675381D01*
X903135D02*
X944372Y716618D01*
X924688Y675381D02*
X965925Y716618D01*
X892359Y675381D02*
X933596Y716618D01*
X889074D02*
X930311Y675381D01*
X899851Y716618D02*
X941088Y675381D01*
X986061Y716618D02*
X1027298Y675381D01*
X978569D02*
X1019807Y716618D01*
X989346Y675381D02*
X1030583Y716618D01*
X967793Y675381D02*
X1009030Y716618D01*
X975285D02*
X1016522Y675381D01*
X1301859D02*
X1343096Y716618D01*
X1298574D02*
X1339811Y675381D01*
X1309350Y716618D02*
X1350587Y675381D01*
X1287798Y716618D02*
X1329035Y675381D01*
X1280306D02*
X1321543Y716618D01*
X1291082Y675381D02*
X1332319Y716618D01*
X1330903D02*
X1372140Y675381D01*
X1323411D02*
X1364648Y716618D01*
X1334188Y675381D02*
X1375425Y716618D01*
X1312635Y675381D02*
X1353872Y716618D01*
X1320127D02*
X1361364Y675381D01*
X1244693Y716618D02*
X1285930Y675381D01*
X1237201D02*
X1278438Y716618D01*
X1247977Y675381D02*
X1289214Y716618D01*
X1226424Y675381D02*
X1267662Y716618D01*
X1233916D02*
X1275153Y675381D01*
X1269530D02*
X1310767Y716618D01*
X1266245D02*
X1307482Y675381D01*
X1277021Y716618D02*
X1318259Y675381D01*
X1255469Y716618D02*
X1296706Y675381D01*
X1258754D02*
X1299991Y716618D01*
X1563882Y645285D02*
X1580119Y629048D01*
X1563882Y635668D02*
X1580119Y651905D01*
X1563882Y623732D02*
X1580119Y607495D01*
X1563882Y646444D02*
X1580119Y662681D01*
X1563882Y657220D02*
X1580119Y673457D01*
X1563882Y656061D02*
X1580119Y639824D01*
Y603617D02*
Y714640D01*
X1572697Y601378D02*
X1580119Y608800D01*
X1563882Y599765D02*
Y666000D01*
X1559218Y674109D02*
X1580119Y695010D01*
X1535653Y716618D02*
X1580119Y672153D01*
X1563703Y667819D02*
X1580119Y684234D01*
X1524877Y716618D02*
X1580119Y661377D01*
X1563840Y666879D02*
X1580119Y650600D01*
X1563882Y634509D02*
X1580119Y618271D01*
X1563882Y624891D02*
X1580119Y641128D01*
X1563882Y614115D02*
X1580119Y630352D01*
X1563882Y603339D02*
X1580119Y619576D01*
X1563882Y612956D02*
X1575658Y601179D01*
X1575500Y556726D02*
Y596860D01*
X1572993Y590897D02*
X1575500Y593404D01*
X1573730Y548530D02*
X1575269Y550069D01*
X1573730Y537754D02*
X1575269Y539293D01*
X1573730Y549225D02*
X1575269Y547686D01*
X1573730Y538449D02*
X1575269Y536910D01*
X1573730Y527673D02*
X1575269Y526134D01*
X1573730Y526977D02*
X1575269Y528516D01*
X1573730Y518382D02*
X1575269D01*
X1573730D02*
Y556726D01*
X1575269Y518382D02*
Y556726D01*
X1572993Y580121D02*
X1575500Y582628D01*
X1572993Y593069D02*
X1575500Y590562D01*
X1572993Y582292D02*
X1575500Y579785D01*
X1563882Y602180D02*
X1565551Y600510D01*
X1572993Y571516D02*
X1575500Y569009D01*
X1572993Y569345D02*
X1575500Y571852D01*
X1572993Y558568D02*
X1575500Y561075D01*
X1572993Y556726D02*
Y594610D01*
Y560740D02*
X1575500Y558233D01*
X1083048Y716618D02*
X1124285Y675381D01*
X1075556D02*
X1116793Y716618D01*
X1086333Y675381D02*
X1127570Y716618D01*
X1064780Y675381D02*
X1106017Y716618D01*
X1061495D02*
X1102732Y675381D01*
X1072272Y716618D02*
X1113509Y675381D01*
X1107885D02*
X1149122Y716618D01*
X1104601D02*
X1145838Y675381D01*
X1115377Y716618D02*
X1156614Y675381D01*
X1093824Y716618D02*
X1135061Y675381D01*
X1097109D02*
X1138346Y716618D01*
X935464Y675381D02*
X976701Y716618D01*
X932180D02*
X973417Y675381D01*
X942956Y716618D02*
X984193Y675381D01*
X910627Y716618D02*
X951864Y675381D01*
X881583D02*
X922820Y716618D01*
X913912Y675381D02*
X955149Y716618D01*
X964509D02*
X1005746Y675381D01*
X957017D02*
X998254Y716618D01*
X1054004Y675381D02*
X1095241Y716618D01*
X946241Y675381D02*
X987478Y716618D01*
X953732D02*
X994969Y675381D01*
X1194096D02*
X1235333Y716618D01*
X1190811D02*
X1232048Y675381D01*
X1201587Y716618D02*
X1242824Y675381D01*
X1180035Y716618D02*
X1221272Y675381D01*
X1172543D02*
X1213780Y716618D01*
X1183319Y675381D02*
X1224556Y716618D01*
X1223140D02*
X1264377Y675381D01*
X1215648D02*
X1256885Y716618D01*
X1514100D02*
X1555379Y675340D01*
X1204872Y675381D02*
X1246109Y716618D01*
X1212364D02*
X1253601Y675381D01*
X1136929Y716618D02*
X1178167Y675381D01*
X1129438D02*
X1170675Y716618D01*
X1140214Y675381D02*
X1181451Y716618D01*
X1118661Y675381D02*
X1159899Y716618D01*
X1126153D02*
X1167390Y675381D01*
X1161767D02*
X1203004Y716618D01*
X1158482D02*
X1199719Y675381D01*
X1169258Y716618D02*
X1210495Y675381D01*
X1147706Y716618D02*
X1188943Y675381D01*
X1150990D02*
X1192227Y716618D01*
X719938Y675381D02*
X761175Y716618D01*
X716654D02*
X757891Y675381D01*
X727430Y716618D02*
X768667Y675381D01*
X705877Y716618D02*
X747114Y675381D01*
X698386D02*
X739623Y716618D01*
X709162Y675381D02*
X750399Y716618D01*
X759759D02*
X800996Y675381D01*
X752267D02*
X793504Y716618D01*
X763043Y675381D02*
X804280Y716618D01*
X741491Y675381D02*
X782728Y716618D01*
X748982D02*
X790219Y675381D01*
X662772Y716618D02*
X704009Y675381D01*
X655280D02*
X696517Y716618D01*
X666057Y675381D02*
X707294Y716618D01*
X644504Y675381D02*
X685741Y716618D01*
X641219D02*
X682456Y675381D01*
X651996Y716618D02*
X693233Y675381D01*
X687609D02*
X728846Y716618D01*
X684325D02*
X725562Y675381D01*
X695101Y716618D02*
X736338Y675381D01*
X673548Y716618D02*
X714785Y675381D01*
X676833D02*
X718070Y716618D01*
X845969D02*
X887206Y675381D01*
X838477D02*
X879715Y716618D01*
X849254Y675381D02*
X890491Y716618D01*
X827701Y675381D02*
X868938Y716618D01*
X824417D02*
X865654Y675381D01*
X835193Y716618D02*
X876430Y675381D01*
X870807D02*
X912044Y716618D01*
X867522D02*
X908759Y675381D01*
X878298Y716618D02*
X919535Y675381D01*
X856746Y716618D02*
X897982Y675381D01*
X860030D02*
X901267Y716618D01*
X792088D02*
X833325Y675381D01*
X784596D02*
X825833Y716618D01*
X4381D02*
X1474500D01*
X773820Y675381D02*
X815057Y716618D01*
X770535D02*
X811772Y675381D01*
X781311Y716618D02*
X822548Y675381D01*
X813640Y716618D02*
X854877Y675381D01*
X806149D02*
X847386Y716618D01*
X816925Y675381D02*
X858162Y716618D01*
X795372Y675381D02*
X836609Y716618D01*
X802864D02*
X844101Y675381D01*
X490351Y716618D02*
X531588Y675381D01*
X482859D02*
X524096Y716618D01*
X493636Y675381D02*
X534873Y716618D01*
X472083Y675381D02*
X513320Y716618D01*
X468798D02*
X510036Y675381D01*
X479575Y716618D02*
X520812Y675381D01*
X515188D02*
X556425Y716618D01*
X511904D02*
X553141Y675381D01*
X522680Y716618D02*
X563917Y675381D01*
X501127Y716618D02*
X542364Y675381D01*
X504412D02*
X545649Y716618D01*
X428978Y675381D02*
X470215Y716618D01*
X4381Y681837D02*
X39163Y716618D01*
X436470D02*
X477707Y675381D01*
X4381Y703390D02*
X17610Y716618D01*
X4381Y714166D02*
X6834Y716618D01*
X4381Y692614D02*
X28386Y716618D01*
X458022D02*
X499259Y675381D01*
X450531D02*
X491768Y716618D01*
X461307Y675381D02*
X502544Y716618D01*
X439754Y675381D02*
X480991Y716618D01*
X447246D02*
X488483Y675381D01*
X601399D02*
X642636Y716618D01*
X598114D02*
X639351Y675381D01*
X608890Y716618D02*
X650127Y675381D01*
X587338Y716618D02*
X628575Y675381D01*
X579846D02*
X621083Y716618D01*
X590622Y675381D02*
X631860Y716618D01*
X630443D02*
X671680Y675381D01*
X622951D02*
X664188Y716618D01*
X633728Y675381D02*
X674965Y716618D01*
X612175Y675381D02*
X653412Y716618D01*
X619667D02*
X660904Y675381D01*
X544233Y716618D02*
X585470Y675381D01*
X536741D02*
X577978Y716618D01*
X547517Y675381D02*
X588754Y716618D01*
X525965Y675381D02*
X567202Y716618D01*
X533456D02*
X574693Y675381D01*
X569070D02*
X610307Y716618D01*
X565785D02*
X607022Y675381D01*
X576562Y716618D02*
X617799Y675381D01*
X555009Y716618D02*
X596246Y675381D01*
X558294D02*
X599531Y716618D01*
X288886Y675381D02*
X330123Y716618D01*
X285601D02*
X326838Y675381D01*
X296378Y716618D02*
X337615Y675381D01*
X274825Y716618D02*
X316062Y675381D01*
X267333D02*
X308570Y716618D01*
X278110Y675381D02*
X319347Y716618D01*
X317930D02*
X359167Y675381D01*
X310439D02*
X351676Y716618D01*
X321215Y675381D02*
X362452Y716618D01*
X299662Y675381D02*
X340899Y716618D01*
X307154D02*
X348391Y675381D01*
X231720Y716618D02*
X272957Y675381D01*
X224228D02*
X265465Y716618D01*
X235004Y675381D02*
X276241Y716618D01*
X213452Y675381D02*
X254689Y716618D01*
X210167D02*
X251404Y675381D01*
X220944Y716618D02*
X262181Y675381D01*
X256557D02*
X297794Y716618D01*
X253272D02*
X294509Y675381D01*
X264049Y716618D02*
X305286Y675381D01*
X242496Y716618D02*
X283733Y675381D01*
X245781D02*
X287018Y716618D01*
X404141D02*
X445378Y675381D01*
X396649D02*
X437886Y716618D01*
X407425Y675381D02*
X448662Y716618D01*
X385873Y675381D02*
X427110Y716618D01*
X382588D02*
X423825Y675381D01*
X393364Y716618D02*
X434601Y675381D01*
X730714D02*
X771952Y716618D01*
X425693D02*
X466930Y675381D01*
X738206Y716618D02*
X779443Y675381D01*
X414917Y716618D02*
X456154Y675381D01*
X418202D02*
X459439Y716618D01*
X350259D02*
X391496Y675381D01*
X342767D02*
X384005Y716618D01*
X4381Y675381D02*
X1554500D01*
X331991D02*
X373228Y716618D01*
X328707D02*
X369944Y675381D01*
X339483Y716618D02*
X380720Y675381D01*
X371812Y716618D02*
X413049Y675381D01*
X364320D02*
X405557Y716618D01*
X375096Y675381D02*
X416333Y716618D01*
X353544Y675381D02*
X394781Y716618D01*
X361035D02*
X402272Y675381D01*
X170347D02*
X211584Y716618D01*
X167062D02*
X208299Y675381D01*
X177838Y716618D02*
X219075Y675381D01*
X159570D02*
X200807Y716618D01*
X156286D02*
X197523Y675381D01*
X159570D02*
X200807Y716618D01*
X199391D02*
X240628Y675381D01*
X191899D02*
X233136Y716618D01*
X202675Y675381D02*
X243913Y716618D01*
X181123Y675381D02*
X222360Y716618D01*
X188615D02*
X229852Y675381D01*
X116465D02*
X157702Y716618D01*
X113180D02*
X154417Y675381D01*
X123957Y716618D02*
X165194Y675381D01*
X102404Y716618D02*
X143641Y675381D01*
X94913D02*
X136150Y716618D01*
X105689Y675381D02*
X146926Y716618D01*
X145509D02*
X186746Y675381D01*
X138018D02*
X179255Y716618D01*
X148794Y675381D02*
X190031Y716618D01*
X127241Y675381D02*
X168478Y716618D01*
X134733D02*
X175970Y675381D01*
X59299Y716618D02*
X100536Y675381D01*
X51807D02*
X93044Y716618D01*
X62583Y675381D02*
X103820Y716618D01*
X41031Y675381D02*
X82268Y716618D01*
X37746D02*
X78983Y675381D01*
X48523Y716618D02*
X89760Y675381D01*
X84136D02*
X125373Y716618D01*
X80851D02*
X122088Y675381D01*
X91628Y716618D02*
X132865Y675381D01*
X70075Y716618D02*
X111312Y675381D01*
X73360D02*
X114597Y716618D01*
X5417D02*
X46654Y675381D01*
X4381Y706878D02*
X35878Y675381D01*
X4381Y696102D02*
X25102Y675381D01*
X4381D02*
Y716618D01*
Y685325D02*
X14325Y675381D01*
X26970Y716618D02*
X68207Y675381D01*
X19478D02*
X60715Y716618D01*
X30255Y675381D02*
X71492Y716618D01*
X8702Y675381D02*
X49939Y716618D01*
X16194D02*
X57431Y675381D01*
X1580119Y457640D02*
G03*
X1578140Y459618I-1979J0D01*
G01*
X1580119Y346617D02*
G03*
X1575500Y339860I-299J-4753D01*
G01*
X1574263Y340848D02*
G03*
X1565148Y342783I-4762J0D01*
G01*
X1563882Y409000D02*
G03*
X1554500Y418382I-9381J0D01*
G01*
X1565148Y342783D02*
G03*
X1563882Y342765I-568J-4728D01*
G01*
X1572993Y337610D02*
G03*
X1574263Y340848I-3492J3238D01*
G01*
X1557206Y459618D02*
X1580119Y436706D01*
X1567982Y459618D02*
X1580119Y447482D01*
X1559500Y459618D02*
X1578140D01*
X1528161Y418382D02*
X1569398Y459618D01*
X1546429D02*
X1580119Y425929D01*
X1506608Y418382D02*
X1547845Y459618D01*
X1503324D02*
X1544561Y418382D01*
X1517385D02*
X1558622Y459618D01*
X1492548D02*
X1533785Y418382D01*
X1495832D02*
X1537069Y459618D01*
X1485056Y418382D02*
X1526293Y459618D01*
X1481772D02*
X1523009Y418382D01*
X1474500Y459618D02*
X1559500D01*
X1470995D02*
X1512232Y418382D01*
X1463503D02*
X1504740Y459618D01*
X1474280Y418382D02*
X1515517Y459618D01*
X1452727Y418382D02*
X1493964Y459618D01*
X1449443D02*
X1490680Y418382D01*
X1460219Y459618D02*
X1501456Y418382D01*
X1374008Y459618D02*
X1415245Y418382D01*
X1441951D02*
X1483188Y459618D01*
X1578917Y459459D02*
X1579959Y458417D01*
X1538937Y418382D02*
X1579567Y459011D01*
X1549714Y418382D02*
X1580119Y448786D01*
X1431174Y418382D02*
X1472411Y459618D01*
X1427890D02*
X1469127Y418382D01*
X1438666Y459618D02*
X1479903Y418382D01*
X1417114Y459618D02*
X1458351Y418382D01*
X1409622D02*
X1450859Y459618D01*
X1420398Y418382D02*
X1461635Y459618D01*
X1398845Y418382D02*
X1440082Y459618D01*
X1406337D02*
X1447574Y418382D01*
X1363232Y459618D02*
X1404469Y418382D01*
X1355740D02*
X1396977Y459618D01*
X1366517Y418382D02*
X1407753Y459618D01*
X1344964Y418382D02*
X1386201Y459618D01*
X1341679D02*
X1382916Y418382D01*
X1352456Y459618D02*
X1393693Y418382D01*
X1388069D02*
X1429306Y459618D01*
X1384785D02*
X1426022Y418382D01*
X1395561Y459618D02*
X1436798Y418382D01*
X1374008Y459618D02*
X1415246Y418382D01*
X1377293D02*
X1418530Y459618D01*
X1018390D02*
X1059627Y418382D01*
X1010898D02*
X1052135Y459618D01*
X1021675Y418382D02*
X1062912Y459618D01*
X1000122Y418382D02*
X1041359Y459618D01*
X996837D02*
X1038074Y418382D01*
X1007614Y459618D02*
X1048851Y418382D01*
X1043227D02*
X1084464Y459618D01*
X1039943D02*
X1081180Y418382D01*
X1050719Y459618D02*
X1091956Y418382D01*
X1029166Y459618D02*
X1070403Y418382D01*
X1032451D02*
X1073688Y459618D01*
X921403D02*
X962640Y418382D01*
X903135D02*
X944372Y459618D01*
X924688Y418382D02*
X965925Y459618D01*
X892359Y418382D02*
X933596Y459618D01*
X889074D02*
X930311Y418382D01*
X899851Y459618D02*
X941088Y418382D01*
X986061Y459618D02*
X1027298Y418382D01*
X978569D02*
X1019807Y459618D01*
X989346Y418382D02*
X1030583Y459618D01*
X967793Y418382D02*
X1009030Y459618D01*
X975285D02*
X1016522Y418382D01*
X1301859D02*
X1343096Y459618D01*
X1298574D02*
X1339811Y418382D01*
X1309350Y459618D02*
X1350587Y418382D01*
X1287798Y459618D02*
X1329035Y418382D01*
X1280306D02*
X1321543Y459618D01*
X1291082Y418382D02*
X1332319Y459618D01*
X1330903D02*
X1372140Y418382D01*
X1323411D02*
X1364648Y459618D01*
X1334188Y418382D02*
X1375425Y459618D01*
X1312635Y418382D02*
X1353872Y459618D01*
X1320127D02*
X1361364Y418382D01*
X1244693Y459618D02*
X1285930Y418382D01*
X1237201D02*
X1278438Y459618D01*
X1247977Y418382D02*
X1289214Y459618D01*
X1226424Y418382D02*
X1267662Y459618D01*
X1233916D02*
X1275153Y418382D01*
X1269530D02*
X1310767Y459618D01*
X1266245D02*
X1307482Y418382D01*
X1277021Y459618D02*
X1318259Y418382D01*
X1255469Y459618D02*
X1296706Y418382D01*
X1258754D02*
X1299991Y459618D01*
X1563882Y388285D02*
X1580119Y372048D01*
X1563882Y378668D02*
X1580119Y394905D01*
X1563882Y366732D02*
X1580119Y350495D01*
X1563882Y389444D02*
X1580119Y405681D01*
X1563882Y400220D02*
X1580119Y416457D01*
X1563882Y399061D02*
X1580119Y382824D01*
Y346617D02*
Y457640D01*
X1572697Y344378D02*
X1580119Y351800D01*
X1563882Y342765D02*
Y409000D01*
X1559218Y417109D02*
X1580119Y438010D01*
X1535653Y459618D02*
X1580119Y415153D01*
X1563703Y410819D02*
X1580119Y427234D01*
X1524877Y459618D02*
X1580119Y404377D01*
X1563840Y409879D02*
X1580119Y393600D01*
X1563882Y377509D02*
X1580119Y361272D01*
X1563882Y367891D02*
X1580119Y384128D01*
X1563882Y357115D02*
X1580119Y373352D01*
X1563882Y346339D02*
X1580119Y362576D01*
X1563882Y355956D02*
X1575658Y344179D01*
X1575500Y299727D02*
Y339860D01*
X1572993Y333897D02*
X1575500Y336404D01*
X1573730Y291530D02*
X1575269Y293069D01*
X1573730Y280754D02*
X1575269Y282293D01*
X1573730Y292225D02*
X1575269Y290686D01*
X1573730Y281449D02*
X1575269Y279910D01*
X1573730Y270673D02*
X1575269Y269134D01*
X1573730Y269977D02*
X1575269Y271516D01*
X1573730Y261381D02*
X1575269D01*
X1573730D02*
Y299727D01*
X1575269Y261381D02*
Y299727D01*
X1572993Y323121D02*
X1575500Y325628D01*
X1572993Y336069D02*
X1575500Y333562D01*
X1572993Y325292D02*
X1575500Y322785D01*
X1563882Y345180D02*
X1565551Y343510D01*
X1572993Y314516D02*
X1575500Y312009D01*
X1572993Y312345D02*
X1575500Y314852D01*
X1572993Y301568D02*
X1575500Y304075D01*
X1572993Y299727D02*
Y337610D01*
Y303740D02*
X1575500Y301233D01*
X1083048Y459618D02*
X1124285Y418382D01*
X1075556D02*
X1116793Y459618D01*
X1086333Y418382D02*
X1127570Y459618D01*
X1064780Y418382D02*
X1106017Y459618D01*
X1061495D02*
X1102732Y418382D01*
X1072272Y459618D02*
X1113509Y418382D01*
X1107885D02*
X1149122Y459618D01*
X1104601D02*
X1145838Y418382D01*
X1115377Y459618D02*
X1156614Y418382D01*
X1093824Y459618D02*
X1135061Y418382D01*
X1097109D02*
X1138346Y459618D01*
X935464Y418382D02*
X976701Y459618D01*
X932180D02*
X973417Y418382D01*
X942956Y459618D02*
X984193Y418382D01*
X910627Y459618D02*
X951864Y418382D01*
X881583D02*
X922820Y459618D01*
X913912Y418382D02*
X955149Y459618D01*
X964509D02*
X1005746Y418382D01*
X957017D02*
X998254Y459618D01*
X1054004Y418382D02*
X1095241Y459618D01*
X946241Y418382D02*
X987478Y459618D01*
X953732D02*
X994969Y418382D01*
X1194096D02*
X1235333Y459618D01*
X1190811D02*
X1232048Y418382D01*
X1201587Y459618D02*
X1242824Y418382D01*
X1180035Y459618D02*
X1221272Y418382D01*
X1172543D02*
X1213780Y459618D01*
X1183319Y418382D02*
X1224556Y459618D01*
X1223140D02*
X1264377Y418382D01*
X1215648D02*
X1256885Y459618D01*
X1514100D02*
X1555379Y418340D01*
X1204872Y418382D02*
X1246109Y459618D01*
X1212364D02*
X1253601Y418382D01*
X1136929Y459618D02*
X1178167Y418382D01*
X1129438D02*
X1170675Y459618D01*
X1140214Y418382D02*
X1181451Y459618D01*
X1118661Y418382D02*
X1159899Y459618D01*
X1126153D02*
X1167390Y418382D01*
X1161767D02*
X1203004Y459618D01*
X1158482D02*
X1199719Y418382D01*
X1169258Y459618D02*
X1210495Y418382D01*
X1147706Y459618D02*
X1188943Y418382D01*
X1150990D02*
X1192227Y459618D01*
X719938Y418382D02*
X761175Y459618D01*
X716654D02*
X757891Y418382D01*
X727430Y459618D02*
X768667Y418382D01*
X705877Y459618D02*
X747114Y418382D01*
X698386D02*
X739623Y459618D01*
X709162Y418382D02*
X750399Y459618D01*
X759759D02*
X800996Y418382D01*
X752267D02*
X793504Y459618D01*
X763043Y418382D02*
X804280Y459618D01*
X741491Y418382D02*
X782728Y459618D01*
X748982D02*
X790219Y418382D01*
X662772Y459618D02*
X704009Y418382D01*
X655280D02*
X696517Y459618D01*
X666057Y418382D02*
X707294Y459618D01*
X644504Y418382D02*
X685741Y459618D01*
X641219D02*
X682456Y418382D01*
X651996Y459618D02*
X693233Y418382D01*
X687609D02*
X728846Y459618D01*
X684325D02*
X725562Y418382D01*
X695101Y459618D02*
X736338Y418382D01*
X673548Y459618D02*
X714785Y418382D01*
X676833D02*
X718070Y459618D01*
X845969D02*
X887206Y418382D01*
X838477D02*
X879715Y459618D01*
X849254Y418382D02*
X890491Y459618D01*
X827701Y418382D02*
X868938Y459618D01*
X824417D02*
X865654Y418382D01*
X835193Y459618D02*
X876430Y418382D01*
X870807D02*
X912044Y459618D01*
X867522D02*
X908759Y418382D01*
X878298Y459618D02*
X919535Y418382D01*
X856746Y459618D02*
X897982Y418382D01*
X860030D02*
X901267Y459618D01*
X792088D02*
X833325Y418382D01*
X784596D02*
X825833Y459618D01*
X4381D02*
X1474500D01*
X773820Y418382D02*
X815057Y459618D01*
X770535D02*
X811772Y418382D01*
X781311Y459618D02*
X822548Y418382D01*
X813640Y459618D02*
X854877Y418382D01*
X806149D02*
X847386Y459618D01*
X816925Y418382D02*
X858162Y459618D01*
X795372Y418382D02*
X836609Y459618D01*
X802864D02*
X844101Y418382D01*
X490351Y459618D02*
X531588Y418382D01*
X482859D02*
X524096Y459618D01*
X493636Y418382D02*
X534873Y459618D01*
X472083Y418382D02*
X513320Y459618D01*
X468798D02*
X510036Y418382D01*
X479575Y459618D02*
X520812Y418382D01*
X515188D02*
X556425Y459618D01*
X511904D02*
X553141Y418382D01*
X522680Y459618D02*
X563917Y418382D01*
X501127Y459618D02*
X542364Y418382D01*
X504412D02*
X545649Y459618D01*
X428978Y418382D02*
X470215Y459618D01*
X4381Y424837D02*
X39163Y459618D01*
X436470D02*
X477707Y418382D01*
X4381Y446390D02*
X17610Y459618D01*
X4381Y457166D02*
X6834Y459618D01*
X4381Y435614D02*
X28386Y459618D01*
X458022D02*
X499259Y418382D01*
X450531D02*
X491768Y459618D01*
X461307Y418382D02*
X502544Y459618D01*
X439754Y418382D02*
X480991Y459618D01*
X447246D02*
X488483Y418382D01*
X601399D02*
X642636Y459618D01*
X598114D02*
X639351Y418382D01*
X608890Y459618D02*
X650127Y418382D01*
X587338Y459618D02*
X628575Y418382D01*
X579846D02*
X621083Y459618D01*
X590622Y418382D02*
X631860Y459618D01*
X630443D02*
X671680Y418382D01*
X622951D02*
X664188Y459618D01*
X633728Y418382D02*
X674965Y459618D01*
X612175Y418382D02*
X653412Y459618D01*
X619667D02*
X660904Y418382D01*
X544233Y459618D02*
X585470Y418382D01*
X536741D02*
X577978Y459618D01*
X547517Y418382D02*
X588754Y459618D01*
X525965Y418382D02*
X567202Y459618D01*
X533456D02*
X574693Y418382D01*
X569070D02*
X610307Y459618D01*
X565785D02*
X607022Y418382D01*
X576562Y459618D02*
X617799Y418382D01*
X555009Y459618D02*
X596246Y418382D01*
X558294D02*
X599531Y459618D01*
X288886Y418382D02*
X330123Y459618D01*
X285601D02*
X326838Y418382D01*
X296378Y459618D02*
X337615Y418382D01*
X274825Y459618D02*
X316062Y418382D01*
X267333D02*
X308570Y459618D01*
X278110Y418382D02*
X319347Y459618D01*
X317930D02*
X359167Y418382D01*
X310439D02*
X351676Y459618D01*
X321215Y418382D02*
X362452Y459618D01*
X299662Y418382D02*
X340899Y459618D01*
X307154D02*
X348391Y418382D01*
X231720Y459618D02*
X272957Y418382D01*
X224228D02*
X265465Y459618D01*
X235004Y418382D02*
X276241Y459618D01*
X213452Y418382D02*
X254689Y459618D01*
X210167D02*
X251404Y418382D01*
X220944Y459618D02*
X262181Y418382D01*
X256557D02*
X297794Y459618D01*
X253272D02*
X294509Y418382D01*
X264049Y459618D02*
X305286Y418382D01*
X242496Y459618D02*
X283733Y418382D01*
X245781D02*
X287018Y459618D01*
X404141D02*
X445378Y418382D01*
X396649D02*
X437886Y459618D01*
X407425Y418382D02*
X448662Y459618D01*
X385873Y418382D02*
X427110Y459618D01*
X382588D02*
X423825Y418382D01*
X393364Y459618D02*
X434601Y418382D01*
X730714D02*
X771952Y459618D01*
X425693D02*
X466930Y418382D01*
X738206Y459618D02*
X779443Y418382D01*
X414917Y459618D02*
X456154Y418382D01*
X418202D02*
X459439Y459618D01*
X350259D02*
X391496Y418382D01*
X342767D02*
X384005Y459618D01*
X4381Y418382D02*
X1554500D01*
X331991D02*
X373228Y459618D01*
X328707D02*
X369944Y418382D01*
X339483Y459618D02*
X380720Y418382D01*
X371812Y459618D02*
X413049Y418382D01*
X364320D02*
X405557Y459618D01*
X375096Y418382D02*
X416333Y459618D01*
X353544Y418382D02*
X394781Y459618D01*
X361035D02*
X402272Y418382D01*
X170347D02*
X211584Y459618D01*
X167062D02*
X208299Y418382D01*
X177838Y459618D02*
X219075Y418382D01*
X159570D02*
X200807Y459618D01*
X156286D02*
X197523Y418382D01*
X159570D02*
X200807Y459618D01*
X199391D02*
X240628Y418382D01*
X191899D02*
X233136Y459618D01*
X202675Y418382D02*
X243913Y459618D01*
X181123Y418382D02*
X222360Y459618D01*
X188615D02*
X229852Y418382D01*
X116465D02*
X157702Y459618D01*
X113180D02*
X154417Y418382D01*
X123957Y459618D02*
X165194Y418382D01*
X102404Y459618D02*
X143641Y418382D01*
X94913D02*
X136150Y459618D01*
X105689Y418382D02*
X146926Y459618D01*
X145509D02*
X186746Y418382D01*
X138018D02*
X179255Y459618D01*
X148794Y418382D02*
X190031Y459618D01*
X127241Y418382D02*
X168478Y459618D01*
X134733D02*
X175970Y418382D01*
X59299Y459618D02*
X100536Y418382D01*
X51807D02*
X93044Y459618D01*
X62583Y418382D02*
X103820Y459618D01*
X41031Y418382D02*
X82268Y459618D01*
X37746D02*
X78983Y418382D01*
X48523Y459618D02*
X89760Y418382D01*
X84136D02*
X125373Y459618D01*
X80851D02*
X122088Y418382D01*
X91628Y459618D02*
X132865Y418382D01*
X70075Y459618D02*
X111312Y418382D01*
X73360D02*
X114597Y459618D01*
X5417D02*
X46654Y418382D01*
X4381Y449878D02*
X35878Y418382D01*
X4381Y439102D02*
X25102Y418382D01*
X4381D02*
Y459618D01*
Y428326D02*
X14325Y418382D01*
X26970Y459618D02*
X68207Y418382D01*
X19478D02*
X60715Y459618D01*
X30255Y418382D02*
X71492Y459618D01*
X8702Y418382D02*
X49939Y459618D01*
X16194D02*
X57431Y418382D01*
X1580119Y200640D02*
G03*
X1578140Y202619I-1979J0D01*
G01*
X1580119Y89617D02*
G03*
X1575500Y82860I-299J-4753D01*
G01*
X1574263Y83848D02*
G03*
X1565148Y85782I-4762J0D01*
G01*
X1563882Y152000D02*
G03*
X1554500Y161381I-9381J0D01*
G01*
X1565148Y85782D02*
G03*
X1563882Y85765I-568J-4728D01*
G01*
X1572993Y80610D02*
G03*
X1574263Y83848I-3492J3238D01*
G01*
X1557206Y202619D02*
X1580119Y179706D01*
X1567982Y202619D02*
X1580119Y190482D01*
X1559500Y202619D02*
X1578140D01*
X1528161Y161381D02*
X1569398Y202619D01*
X1546429D02*
X1580119Y168929D01*
X1506608Y161381D02*
X1547845Y202619D01*
X1503324D02*
X1544561Y161381D01*
X1517385D02*
X1558622Y202619D01*
X1492548D02*
X1533785Y161381D01*
X1495832D02*
X1537069Y202619D01*
X1485056Y161381D02*
X1526293Y202619D01*
X1481772D02*
X1523009Y161381D01*
X1474500Y202619D02*
X1559500D01*
X1470995D02*
X1512232Y161381D01*
X1463503D02*
X1504740Y202619D01*
X1474280Y161381D02*
X1515517Y202619D01*
X1452727Y161381D02*
X1493964Y202619D01*
X1449443D02*
X1490680Y161381D01*
X1460219Y202619D02*
X1501456Y161381D01*
X1374008Y202619D02*
X1415245Y161381D01*
X1441951D02*
X1483188Y202619D01*
X1578917Y202459D02*
X1579959Y201417D01*
X1538937Y161381D02*
X1579567Y202011D01*
X1549714Y161381D02*
X1580119Y191786D01*
X1431174Y161381D02*
X1472411Y202619D01*
X1427890D02*
X1469127Y161381D01*
X1438666Y202619D02*
X1479903Y161381D01*
X1417114Y202619D02*
X1458351Y161381D01*
X1409622D02*
X1450859Y202619D01*
X1420398Y161381D02*
X1461635Y202619D01*
X1398845Y161381D02*
X1440082Y202619D01*
X1406337D02*
X1447574Y161381D01*
X1363232Y202619D02*
X1404469Y161381D01*
X1355740D02*
X1396977Y202619D01*
X1366517Y161381D02*
X1407753Y202619D01*
X1344964Y161381D02*
X1386201Y202619D01*
X1341679D02*
X1382916Y161381D01*
X1352456Y202619D02*
X1393693Y161381D01*
X1388069D02*
X1429306Y202619D01*
X1384785D02*
X1426022Y161381D01*
X1395561Y202619D02*
X1436798Y161381D01*
X1374008Y202619D02*
X1415246Y161381D01*
X1377293D02*
X1418530Y202619D01*
X1018390D02*
X1059627Y161381D01*
X1010898D02*
X1052135Y202619D01*
X1021675Y161381D02*
X1062912Y202619D01*
X1000122Y161381D02*
X1041359Y202619D01*
X996837D02*
X1038074Y161381D01*
X1007614Y202619D02*
X1048851Y161381D01*
X1043227D02*
X1084464Y202619D01*
X1039943D02*
X1081180Y161381D01*
X1050719Y202619D02*
X1091956Y161381D01*
X1029166Y202619D02*
X1070403Y161381D01*
X1032451D02*
X1073688Y202619D01*
X921403D02*
X962640Y161381D01*
X903135D02*
X944372Y202619D01*
X924688Y161381D02*
X965925Y202619D01*
X892359Y161381D02*
X933596Y202619D01*
X889074D02*
X930311Y161381D01*
X899851Y202619D02*
X941088Y161381D01*
X986061Y202619D02*
X1027298Y161381D01*
X978569D02*
X1019807Y202619D01*
X989346Y161381D02*
X1030583Y202619D01*
X967793Y161381D02*
X1009030Y202619D01*
X975285D02*
X1016522Y161381D01*
X1301859D02*
X1343096Y202619D01*
X1298574D02*
X1339811Y161381D01*
X1309350Y202619D02*
X1350587Y161381D01*
X1287798Y202619D02*
X1329035Y161381D01*
X1280306D02*
X1321543Y202619D01*
X1291082Y161381D02*
X1332319Y202619D01*
X1330903D02*
X1372140Y161381D01*
X1323411D02*
X1364648Y202619D01*
X1334188Y161381D02*
X1375425Y202619D01*
X1312635Y161381D02*
X1353872Y202619D01*
X1320127D02*
X1361364Y161381D01*
X1244693Y202619D02*
X1285930Y161381D01*
X1237201D02*
X1278438Y202619D01*
X1247977Y161381D02*
X1289214Y202619D01*
X1226424Y161381D02*
X1267662Y202619D01*
X1233916D02*
X1275153Y161381D01*
X1269530D02*
X1310767Y202619D01*
X1266245D02*
X1307482Y161381D01*
X1277021Y202619D02*
X1318259Y161381D01*
X1255469Y202619D02*
X1296706Y161381D01*
X1258754D02*
X1299991Y202619D01*
X1563882Y131285D02*
X1580119Y115048D01*
X1563882Y121668D02*
X1580119Y137905D01*
X1563882Y109732D02*
X1580119Y93495D01*
X1563882Y132444D02*
X1580119Y148681D01*
X1563882Y143220D02*
X1580119Y159457D01*
X1563882Y142061D02*
X1580119Y125824D01*
Y89617D02*
Y200640D01*
X1572697Y87378D02*
X1580119Y94799D01*
X1563882Y85765D02*
Y152000D01*
X1559218Y160109D02*
X1580119Y181010D01*
X1535653Y202619D02*
X1580119Y158153D01*
X1563703Y153819D02*
X1580119Y170234D01*
X1524877Y202619D02*
X1580119Y147377D01*
X1563840Y152879D02*
X1580119Y136600D01*
X1563882Y120508D02*
X1580119Y104271D01*
X1563882Y110891D02*
X1580119Y127128D01*
X1563882Y100115D02*
X1580119Y116352D01*
X1563882Y89339D02*
X1580119Y105576D01*
X1563882Y98956D02*
X1575658Y87179D01*
X1575500Y42726D02*
Y82860D01*
X1572993Y76897D02*
X1575500Y79404D01*
X1573730Y34530D02*
X1575269Y36069D01*
X1573730Y23754D02*
X1575269Y25293D01*
X1573730Y35225D02*
X1575269Y33686D01*
X1573730Y24449D02*
X1575269Y22910D01*
X1573730Y13673D02*
X1575269Y12134D01*
X1573730Y12977D02*
X1575269Y14516D01*
X1573730Y4381D02*
X1575269D01*
X1573730D02*
Y42726D01*
X1575269Y4381D02*
Y42726D01*
X1572993Y66121D02*
X1575500Y68628D01*
X1572993Y79069D02*
X1575500Y76562D01*
X1572993Y68292D02*
X1575500Y65785D01*
X1563882Y88180D02*
X1565551Y86510D01*
X1572993Y57516D02*
X1575500Y55009D01*
X1572993Y55345D02*
X1575500Y57852D01*
X1572993Y44568D02*
X1575500Y47075D01*
X1572993Y42726D02*
Y80610D01*
Y46740D02*
X1575500Y44233D01*
X1083048Y202619D02*
X1124285Y161381D01*
X1075556D02*
X1116793Y202619D01*
X1086333Y161381D02*
X1127570Y202619D01*
X1064780Y161381D02*
X1106017Y202619D01*
X1061495D02*
X1102732Y161381D01*
X1072272Y202619D02*
X1113509Y161381D01*
X1107885D02*
X1149122Y202619D01*
X1104601D02*
X1145838Y161381D01*
X1115377Y202619D02*
X1156614Y161381D01*
X1093824Y202619D02*
X1135061Y161381D01*
X1097109D02*
X1138346Y202619D01*
X935464Y161381D02*
X976701Y202619D01*
X932180D02*
X973417Y161381D01*
X942956Y202619D02*
X984193Y161381D01*
X910627Y202619D02*
X951864Y161381D01*
X881583D02*
X922820Y202619D01*
X913912Y161381D02*
X955149Y202619D01*
X964509D02*
X1005746Y161381D01*
X957017D02*
X998254Y202619D01*
X1054004Y161381D02*
X1095241Y202619D01*
X946241Y161381D02*
X987478Y202619D01*
X953732D02*
X994969Y161381D01*
X1194096D02*
X1235333Y202619D01*
X1190811D02*
X1232048Y161381D01*
X1201587Y202619D02*
X1242824Y161381D01*
X1180035Y202619D02*
X1221272Y161381D01*
X1172543D02*
X1213780Y202619D01*
X1183319Y161381D02*
X1224556Y202619D01*
X1223140D02*
X1264377Y161381D01*
X1215648D02*
X1256885Y202619D01*
X1514100D02*
X1555379Y161340D01*
X1204872Y161381D02*
X1246109Y202619D01*
X1212364D02*
X1253601Y161381D01*
X1136929Y202619D02*
X1178167Y161381D01*
X1129438D02*
X1170675Y202619D01*
X1140214Y161381D02*
X1181451Y202619D01*
X1118661Y161381D02*
X1159899Y202619D01*
X1126153D02*
X1167390Y161381D01*
X1161767D02*
X1203004Y202619D01*
X1158482D02*
X1199719Y161381D01*
X1169258Y202619D02*
X1210495Y161381D01*
X1147706Y202619D02*
X1188943Y161381D01*
X1150990D02*
X1192227Y202619D01*
X719938Y161381D02*
X761175Y202619D01*
X716654D02*
X757891Y161381D01*
X727430Y202619D02*
X768667Y161381D01*
X705877Y202619D02*
X747114Y161381D01*
X698386D02*
X739623Y202619D01*
X709162Y161381D02*
X750399Y202619D01*
X759759D02*
X800996Y161381D01*
X752267D02*
X793504Y202619D01*
X763043Y161381D02*
X804280Y202619D01*
X741491Y161381D02*
X782728Y202619D01*
X748982D02*
X790219Y161381D01*
X662772Y202619D02*
X704009Y161381D01*
X655280D02*
X696517Y202619D01*
X666057Y161381D02*
X707294Y202619D01*
X644504Y161381D02*
X685741Y202619D01*
X641219D02*
X682456Y161381D01*
X651996Y202619D02*
X693233Y161381D01*
X687609D02*
X728846Y202619D01*
X684325D02*
X725562Y161381D01*
X695101Y202619D02*
X736338Y161381D01*
X673548Y202619D02*
X714785Y161381D01*
X676833D02*
X718070Y202619D01*
X845969D02*
X887206Y161381D01*
X838477D02*
X879715Y202619D01*
X849254Y161381D02*
X890491Y202619D01*
X827701Y161381D02*
X868938Y202619D01*
X824417D02*
X865654Y161381D01*
X835193Y202619D02*
X876430Y161381D01*
X870807D02*
X912044Y202619D01*
X867522D02*
X908759Y161381D01*
X878298Y202619D02*
X919535Y161381D01*
X856746Y202619D02*
X897982Y161381D01*
X860030D02*
X901267Y202619D01*
X792088D02*
X833325Y161381D01*
X784596D02*
X825833Y202619D01*
X4381D02*
X1474500D01*
X773820Y161381D02*
X815057Y202619D01*
X770535D02*
X811772Y161381D01*
X781311Y202619D02*
X822548Y161381D01*
X813640Y202619D02*
X854877Y161381D01*
X806149D02*
X847386Y202619D01*
X816925Y161381D02*
X858162Y202619D01*
X795372Y161381D02*
X836609Y202619D01*
X802864D02*
X844101Y161381D01*
X490351Y202619D02*
X531588Y161381D01*
X482859D02*
X524096Y202619D01*
X493636Y161381D02*
X534873Y202619D01*
X472083Y161381D02*
X513320Y202619D01*
X468798D02*
X510036Y161381D01*
X479575Y202619D02*
X520812Y161381D01*
X515188D02*
X556425Y202619D01*
X511904D02*
X553141Y161381D01*
X522680Y202619D02*
X563917Y161381D01*
X501127Y202619D02*
X542364Y161381D01*
X504412D02*
X545649Y202619D01*
X428978Y161381D02*
X470215Y202619D01*
X4381Y167837D02*
X39163Y202619D01*
X436470D02*
X477707Y161381D01*
X4381Y189390D02*
X17610Y202619D01*
X4381Y200166D02*
X6834Y202619D01*
X4381Y178614D02*
X28386Y202619D01*
X458022D02*
X499259Y161381D01*
X450531D02*
X491768Y202619D01*
X461307Y161381D02*
X502544Y202619D01*
X439754Y161381D02*
X480991Y202619D01*
X447246D02*
X488483Y161381D01*
X601399D02*
X642636Y202619D01*
X598114D02*
X639351Y161381D01*
X608890Y202619D02*
X650127Y161381D01*
X587338Y202619D02*
X628575Y161381D01*
X579846D02*
X621083Y202619D01*
X590622Y161381D02*
X631860Y202619D01*
X630443D02*
X671680Y161381D01*
X622951D02*
X664188Y202619D01*
X633728Y161381D02*
X674965Y202619D01*
X612175Y161381D02*
X653412Y202619D01*
X619667D02*
X660904Y161381D01*
X544233Y202619D02*
X585470Y161381D01*
X536741D02*
X577978Y202619D01*
X547517Y161381D02*
X588754Y202619D01*
X525965Y161381D02*
X567202Y202619D01*
X533456D02*
X574693Y161381D01*
X569070D02*
X610307Y202619D01*
X565785D02*
X607022Y161381D01*
X576562Y202619D02*
X617799Y161381D01*
X555009Y202619D02*
X596246Y161381D01*
X558294D02*
X599531Y202619D01*
X288886Y161381D02*
X330123Y202619D01*
X285601D02*
X326838Y161381D01*
X296378Y202619D02*
X337615Y161381D01*
X274825Y202619D02*
X316062Y161381D01*
X267333D02*
X308570Y202619D01*
X278110Y161381D02*
X319347Y202619D01*
X317930D02*
X359167Y161381D01*
X310439D02*
X351676Y202619D01*
X321215Y161381D02*
X362452Y202619D01*
X299662Y161381D02*
X340899Y202619D01*
X307154D02*
X348391Y161381D01*
X231720Y202619D02*
X272957Y161381D01*
X224228D02*
X265465Y202619D01*
X235004Y161381D02*
X276241Y202619D01*
X213452Y161381D02*
X254689Y202619D01*
X210167D02*
X251404Y161381D01*
X220944Y202619D02*
X262181Y161381D01*
X256557D02*
X297794Y202619D01*
X253272D02*
X294509Y161381D01*
X264049Y202619D02*
X305286Y161381D01*
X242496Y202619D02*
X283733Y161381D01*
X245781D02*
X287018Y202619D01*
X404141D02*
X445378Y161381D01*
X396649D02*
X437886Y202619D01*
X407425Y161381D02*
X448662Y202619D01*
X385873Y161381D02*
X427110Y202619D01*
X382588D02*
X423825Y161381D01*
X393364Y202619D02*
X434601Y161381D01*
X730714D02*
X771952Y202619D01*
X425693D02*
X466930Y161381D01*
X738206Y202619D02*
X779443Y161381D01*
X414917Y202619D02*
X456154Y161381D01*
X418202D02*
X459439Y202619D01*
X350259D02*
X391496Y161381D01*
X342767D02*
X384005Y202619D01*
X4381Y161381D02*
X1554500D01*
X331991D02*
X373228Y202619D01*
X328707D02*
X369944Y161381D01*
X339483Y202619D02*
X380720Y161381D01*
X371812Y202619D02*
X413049Y161381D01*
X364320D02*
X405557Y202619D01*
X375096Y161381D02*
X416333Y202619D01*
X353544Y161381D02*
X394781Y202619D01*
X361035D02*
X402272Y161381D01*
X170347D02*
X211584Y202619D01*
X167062D02*
X208299Y161381D01*
X177838Y202619D02*
X219075Y161381D01*
X159570D02*
X200807Y202619D01*
X156286D02*
X197523Y161381D01*
X159570D02*
X200807Y202619D01*
X199391D02*
X240628Y161381D01*
X191899D02*
X233136Y202619D01*
X202675Y161381D02*
X243913Y202619D01*
X181123Y161381D02*
X222360Y202619D01*
X188615D02*
X229852Y161381D01*
X116465D02*
X157702Y202619D01*
X113180D02*
X154417Y161381D01*
X123957Y202619D02*
X165194Y161381D01*
X102404Y202619D02*
X143641Y161381D01*
X94913D02*
X136150Y202619D01*
X105689Y161381D02*
X146926Y202619D01*
X145509D02*
X186746Y161381D01*
X138018D02*
X179255Y202619D01*
X148794Y161381D02*
X190031Y202619D01*
X127241Y161381D02*
X168478Y202619D01*
X134733D02*
X175970Y161381D01*
X59299Y202619D02*
X100536Y161381D01*
X51807D02*
X93044Y202619D01*
X62583Y161381D02*
X103820Y202619D01*
X41031Y161381D02*
X82268Y202619D01*
X37746D02*
X78983Y161381D01*
X48523Y202619D02*
X89760Y161381D01*
X84136D02*
X125373Y202619D01*
X80851D02*
X122088Y161381D01*
X91628Y202619D02*
X132865Y161381D01*
X70075Y202619D02*
X111312Y161381D01*
X73360D02*
X114597Y202619D01*
X5417D02*
X46654Y161381D01*
X4381Y192878D02*
X35878Y161381D01*
X4381Y182102D02*
X25102Y161381D01*
X4381D02*
Y202619D01*
Y171325D02*
X14325Y161381D01*
X26970Y202619D02*
X68207Y161381D01*
X19478D02*
X60715Y202619D01*
X30255Y161381D02*
X71492Y202619D01*
X8702Y161381D02*
X49939Y202619D01*
X16194D02*
X57431Y161381D01*
D11*
X1579500Y598544D02*
X1579528Y598516D01*
X1579500Y597466D02*
X1579528Y597495D01*
Y598516D01*
X1579500Y598544D02*
X1579820Y598864D01*
X1579500Y533996D02*
Y597466D01*
X1574500Y533996D02*
Y600356D01*
X1567434Y421795D02*
G03*
X1554980Y426954I-12454J-12454D01*
G01*
X1573724Y406610D02*
G03*
X1567434Y421795I-21475J0D01*
G01*
X1446174Y426954D02*
X1554980D01*
X1573724Y345928D02*
Y406610D01*
X1579500Y341544D02*
X1579528Y341516D01*
X1579500Y340466D02*
X1579528Y340495D01*
Y341516D01*
X1579500Y341544D02*
X1579820Y341864D01*
X1579500Y276996D02*
Y340466D01*
X1574500Y276996D02*
Y343356D01*
X1579500Y84544D02*
X1579528Y84515D01*
X1579500Y83466D02*
X1579528Y83495D01*
Y84515D01*
X1579500Y84544D02*
X1579820Y84864D01*
X1579500Y19996D02*
Y83466D01*
X1574500Y19996D02*
Y86356D01*
D12*
X1564580Y534076D02*
Y595054D01*
X1564500Y533996D02*
X1564580Y534076D01*
X1569500Y533996D02*
Y597848D01*
X1564580Y277076D02*
Y338054D01*
X1564500Y276996D02*
X1564580Y277076D01*
X1569500Y276996D02*
Y340848D01*
X1564580Y20076D02*
Y81054D01*
X1564500Y19996D02*
X1564580Y20076D01*
X1569500Y19996D02*
Y83848D01*
D13*
X1579500Y533996D02*
D03*
X1569500D02*
D03*
X1564500D02*
D03*
X1574500D02*
D03*
X1579500Y276996D02*
D03*
X1569500D02*
D03*
X1564500D02*
D03*
X1574500D02*
D03*
X1579500Y19996D02*
D03*
X1569500D02*
D03*
X1564500D02*
D03*
X1574500D02*
D03*
D21*
X1559500Y666000D02*
G03*
X1554500Y671000I-5000J0D01*
G01*
X1584500Y714640D02*
G03*
X1578140Y721000I-6360J0D01*
G01*
X0Y671000D02*
Y721000D01*
Y671000D02*
X1554500D01*
X0Y721000D02*
X1474500D01*
X1559500D01*
Y514000D02*
Y666000D01*
X1554500Y671000D02*
X1554500D01*
X1559500Y721000D02*
X1578140D01*
X1584500Y514000D02*
Y714640D01*
X1559500Y514000D02*
X1584500D01*
X1559500Y409000D02*
G03*
X1554500Y414000I-5000J0D01*
G01*
X1584500Y457640D02*
G03*
X1578140Y464000I-6360J0D01*
G01*
X0Y414000D02*
Y464000D01*
Y414000D02*
X1554500D01*
X0Y464000D02*
X1474500D01*
X1559500D01*
Y257000D02*
Y409000D01*
X1554500Y414000D02*
X1554500D01*
X1559500Y464000D02*
X1578140D01*
X1584500Y257000D02*
Y457640D01*
X1559500Y257000D02*
X1584500D01*
X1559500Y152000D02*
G03*
X1554500Y157000I-5000J0D01*
G01*
X1584500Y200640D02*
G03*
X1578140Y207000I-6360J0D01*
G01*
X0Y157000D02*
Y207000D01*
Y157000D02*
X1554500D01*
X0Y207000D02*
X1474500D01*
X1559500D01*
Y0D02*
Y152000D01*
X1554500Y157000D02*
X1554500D01*
X1559500Y207000D02*
X1578140D01*
X1584500Y0D02*
Y200640D01*
X1559500Y0D02*
X1584500D01*
D22*
X53706Y683367D02*
D03*
X22516Y678795D02*
D03*
X1573724Y602928D02*
D03*
X1322517Y678795D02*
D03*
X1122516Y678795D02*
D03*
X922517Y678795D02*
D03*
X722517D02*
D03*
X522517D02*
D03*
X322517Y678796D02*
D03*
X122517Y678796D02*
D03*
X222516Y678795D02*
D03*
X254224Y683367D02*
D03*
X153707Y683368D02*
D03*
X422517Y678796D02*
D03*
X454225Y683368D02*
D03*
X353721Y683368D02*
D03*
X622517Y678795D02*
D03*
X654224Y683367D02*
D03*
X553721Y683367D02*
D03*
X822517Y678795D02*
D03*
X854225Y683367D02*
D03*
X753721D02*
D03*
X953721D02*
D03*
X1054225D02*
D03*
X1022517Y678795D02*
D03*
X1153720Y684129D02*
D03*
X1254224D02*
D03*
X1222770Y679557D02*
D03*
X1422010Y679382D02*
D03*
X1453464Y683954D02*
D03*
X1352998D02*
D03*
X1573724Y345928D02*
D03*
X1340226Y421795D02*
D03*
X1190226D02*
D03*
X1040226D02*
D03*
X890226D02*
D03*
X740227Y421795D02*
D03*
X590227D02*
D03*
X440226Y421795D02*
D03*
X290226D02*
D03*
X140226D02*
D03*
X65227Y421795D02*
D03*
X96935Y426367D02*
D03*
X215226Y421795D02*
D03*
X246934Y426367D02*
D03*
X171430Y426367D02*
D03*
X365226Y421795D02*
D03*
X396934Y426367D02*
D03*
X321406Y426367D02*
D03*
X515226Y421795D02*
D03*
X546934Y426367D02*
D03*
X471416D02*
D03*
X665226Y421795D02*
D03*
X696934Y426367D02*
D03*
X621431Y426367D02*
D03*
X815226Y421795D02*
D03*
X846934Y426367D02*
D03*
X771431Y426367D02*
D03*
X965226Y421795D02*
D03*
X996934Y426367D02*
D03*
X921430D02*
D03*
X1071430D02*
D03*
X1146961Y426367D02*
D03*
X1115253Y421795D02*
D03*
X1221430Y427129D02*
D03*
X1296934D02*
D03*
X1265480Y422557D02*
D03*
X1414720Y422382D02*
D03*
X1446174Y426954D02*
D03*
X1370708D02*
D03*
X1573724Y88928D02*
D03*
X1365188Y164795D02*
D03*
X1265226D02*
D03*
X1165226D02*
D03*
X1065226D02*
D03*
X965227Y164795D02*
D03*
X865227D02*
D03*
X765241Y164795D02*
D03*
X665227D02*
D03*
X565227D02*
D03*
X465226Y164795D02*
D03*
X365226D02*
D03*
X265226D02*
D03*
X165226Y164795D02*
D03*
X11370Y182000D02*
D03*
X46431Y169368D02*
D03*
X65226Y164795D02*
D03*
X115226Y164795D02*
D03*
X146934Y169367D02*
D03*
X96430D02*
D03*
X215226Y164795D02*
D03*
X246934Y169367D02*
D03*
X196430D02*
D03*
X515226Y164795D02*
D03*
X546934Y169367D02*
D03*
X496430D02*
D03*
X315226Y164795D02*
D03*
X346934Y169367D02*
D03*
X296430D02*
D03*
X415226Y164795D02*
D03*
X446934Y169367D02*
D03*
X396430D02*
D03*
X615226Y164795D02*
D03*
X646934Y169367D02*
D03*
X596430D02*
D03*
X715202Y164795D02*
D03*
X746910Y169367D02*
D03*
X696406D02*
D03*
X815227Y164795D02*
D03*
X846935Y169368D02*
D03*
X796431D02*
D03*
X915227Y164795D02*
D03*
X946935Y169367D02*
D03*
X896431D02*
D03*
X1015227Y164795D02*
D03*
X1046935Y169367D02*
D03*
X996431D02*
D03*
X1115226Y164795D02*
D03*
X1146934Y169367D02*
D03*
X1096430D02*
D03*
X1196430D02*
D03*
X1246934D02*
D03*
X1215226Y164795D02*
D03*
X1296430Y170129D02*
D03*
X1346934D02*
D03*
X1315480Y165557D02*
D03*
X1414720Y165382D02*
D03*
X1446174Y169954D02*
D03*
X1395670D02*
D03*
D23*
X1564580Y595054D02*
D03*
X1579820Y598864D02*
D03*
X1569500Y597848D02*
D03*
X1564580Y338054D02*
D03*
X1579820Y341864D02*
D03*
X1569500Y340848D02*
D03*
X1564580Y81054D02*
D03*
X1579820Y84864D02*
D03*
X1569500Y83848D02*
D03*
D24*
X1573724Y666145D02*
G03*
X1568136Y679636I-19079J0D01*
G01*
D02*
G03*
X1557711Y683954I-10425J-10425D01*
G01*
X1573724Y602928D02*
Y666145D01*
X1453464Y683954D02*
X1557711D01*
X1352998D02*
X1417438D01*
X1317182Y684129D02*
X1317183Y684129D01*
X1254224Y684129D02*
X1317182D01*
X1117944Y683367D02*
X1122516Y678795D01*
X854225Y683367D02*
X917945D01*
X753721D02*
X817945D01*
X654224Y683367D02*
X717944D01*
X572517Y678795D02*
X622516D01*
X622517Y678795D01*
X517944Y683368D02*
X522517Y678795D01*
X454225Y683368D02*
X517944D01*
X417944Y683368D02*
X422517Y678796D01*
X353721Y683368D02*
X417944D01*
X317944Y683367D02*
X317945Y683368D01*
X254224Y683367D02*
X317944D01*
X153707Y683368D02*
X217944D01*
X108144Y683368D02*
X117945D01*
X108144Y683367D02*
X108144Y683368D01*
X53706Y683367D02*
X108144D01*
X22516Y678795D02*
X49134D01*
X53706Y683367D01*
X1448892Y679382D02*
X1453464Y683954D01*
X1422010Y679382D02*
X1448892D01*
X1417438Y683954D02*
X1422010Y679382D01*
X1347840Y678795D02*
X1352998Y683954D01*
X1322517Y678795D02*
X1347840D01*
X1317183Y684129D02*
X1322517Y678795D01*
X1249652Y679557D02*
X1254224Y684129D01*
X1222770Y679557D02*
X1249652D01*
X1218198Y684129D02*
X1222770Y679557D01*
X1153720Y684129D02*
X1218198D01*
X1148386Y678795D02*
X1153720Y684129D01*
X1122516Y678795D02*
X1148386D01*
X1054225Y683367D02*
X1117944D01*
X1049653Y678795D02*
X1054225Y683367D01*
X1022517Y678795D02*
X1049653D01*
X1017945Y683367D02*
X1022517Y678795D01*
X953721Y683367D02*
X1017945D01*
X949149Y678795D02*
X953721Y683367D01*
X922517Y678795D02*
X949149D01*
X917945Y683367D02*
X922517Y678795D01*
X849653D02*
X854225Y683367D01*
X822517Y678795D02*
X849653D01*
X817945Y683367D02*
X822517Y678795D01*
X749149D02*
X753721Y683367D01*
X722517Y678795D02*
X749149D01*
X717944Y683367D02*
X722517Y678795D01*
X649652Y678795D02*
X654224Y683367D01*
X622517Y678795D02*
X649652D01*
X567945Y683367D02*
X572517Y678795D01*
X553721Y683367D02*
X567945D01*
X549149Y678795D02*
X553721Y683367D01*
X522517Y678795D02*
X549149D01*
X449653Y678796D02*
X454225Y683368D01*
X422517Y678796D02*
X449653D01*
X349149Y678796D02*
X353721Y683368D01*
X322517Y678796D02*
X349149D01*
X317945Y683368D02*
X322517Y678796D01*
X249653Y678795D02*
X254224Y683367D01*
X222516Y678795D02*
X249653D01*
X217944Y683368D02*
X222516Y678795D01*
X149135Y678796D02*
X153707Y683368D01*
X122517Y678796D02*
X149135D01*
X117945Y683368D02*
X122517Y678796D01*
X1370708Y426954D02*
X1410148D01*
X1296934Y427129D02*
X1334892D01*
X1221430D02*
X1260908D01*
X1185654Y426367D02*
X1190226Y421795D01*
X1146961Y426367D02*
X1185654D01*
X1110680Y426367D02*
X1110681Y426367D01*
X996934Y426367D02*
X1035654D01*
X921430D02*
X960654D01*
X885654D02*
X885654Y426367D01*
X846934Y426367D02*
X885654D01*
X810654Y426367D02*
X815226Y421795D01*
X771431Y426367D02*
X810654D01*
X735655Y426367D02*
X735655Y426367D01*
X696934Y426367D02*
X735655D01*
X585654D02*
X585654Y426367D01*
X546934Y426367D02*
X585654D01*
X471416D02*
X510654D01*
X435654D02*
X440226Y421795D01*
X360654Y426367D02*
X360654Y426367D01*
X321406Y426367D02*
X360654D01*
X285654Y426367D02*
X290226Y421795D01*
X246934Y426367D02*
X285654D01*
X210654Y426367D02*
X210654Y426367D01*
X135654Y426367D02*
X140226Y421795D01*
X96935Y426367D02*
X135654D01*
X1441602Y422382D02*
X1446174Y426954D01*
X1414720Y422382D02*
X1441602D01*
X1410148Y426954D02*
X1414720Y422382D01*
X1365549Y421795D02*
X1370708Y426954D01*
X1340226Y421795D02*
X1365549D01*
X1334892Y427129D02*
X1340226Y421795D01*
X1292362Y422557D02*
X1296934Y427129D01*
X1265480Y422557D02*
X1292362D01*
X1260908Y427129D02*
X1265480Y422557D01*
X1216096Y421795D02*
X1221430Y427129D01*
X1190226Y421795D02*
X1216096D01*
X1142389Y421795D02*
X1146961Y426367D01*
X1115253Y421795D02*
X1142389D01*
X1110681Y426367D02*
X1115253Y421795D01*
X1071430Y426367D02*
X1110680D01*
X1066858Y421795D02*
X1071430Y426367D01*
X1040226Y421795D02*
X1066858D01*
X1035654Y426367D02*
X1040226Y421795D01*
X992362D02*
X996934Y426367D01*
X965226Y421795D02*
X992362D01*
X960654Y426367D02*
X965226Y421795D01*
X916858D02*
X921430Y426367D01*
X890226Y421795D02*
X916858D01*
X885654Y426367D02*
X890226Y421795D01*
X842362D02*
X846934Y426367D01*
X815226Y421795D02*
X842362D01*
X766859Y421795D02*
X771431Y426367D01*
X740227Y421795D02*
X766859D01*
X735655Y426367D02*
X740227Y421795D01*
X692362Y421795D02*
X696934Y426367D01*
X665226Y421795D02*
X692362D01*
X660654Y426367D02*
X665226Y421795D01*
X621431Y426367D02*
X660654D01*
X616859Y421795D02*
X621431Y426367D01*
X590227Y421795D02*
X616859D01*
X585654Y426367D02*
X590227Y421795D01*
X542362Y421795D02*
X546934Y426367D01*
X515226Y421795D02*
X542362D01*
X510654Y426367D02*
X515226Y421795D01*
X466844D02*
X471416Y426367D01*
X440226Y421795D02*
X466844D01*
X396934Y426367D02*
X435654D01*
X392362Y421795D02*
X396934Y426367D01*
X365226Y421795D02*
X392362D01*
X360654Y426367D02*
X365226Y421795D01*
X316834D02*
X321406Y426367D01*
X290226Y421795D02*
X316834D01*
X242362D02*
X246934Y426367D01*
X215226Y421795D02*
X242362D01*
X210654Y426367D02*
X215226Y421795D01*
X171430Y426367D02*
X210654D01*
X166858Y421795D02*
X171430Y426367D01*
X140226Y421795D02*
X166858D01*
X92363Y421795D02*
X96935Y426367D01*
X65227Y421795D02*
X92363D01*
X1441602Y165382D02*
X1446174Y169954D01*
X1414720Y165382D02*
X1441602D01*
X1410148Y169954D02*
X1414720Y165382D01*
X1395670Y169954D02*
X1410148D01*
X1390511Y164795D02*
X1395670Y169954D01*
X1365188Y164795D02*
X1390511D01*
X1359854Y170129D02*
X1365188Y164795D01*
X1346934Y170129D02*
X1359854D01*
X1342362Y165557D02*
X1346934Y170129D01*
X1315480Y165557D02*
X1342362D01*
X1310908Y170129D02*
X1315480Y165557D01*
X1296430Y170129D02*
X1310908D01*
X1291096Y164795D02*
X1296430Y170129D01*
X1265226Y164795D02*
X1291096D01*
X1260654Y169367D02*
X1265226Y164795D01*
X1246934Y169367D02*
X1260654D01*
X1242362Y164795D02*
X1246934Y169367D01*
X1215226Y164795D02*
X1242362D01*
X1210654Y169367D02*
X1215226Y164795D01*
X1196430Y169367D02*
X1210654D01*
X1191858Y164795D02*
X1196430Y169367D01*
X1165226Y164795D02*
X1191858D01*
X1160654Y169367D02*
X1165226Y164795D01*
X1146934Y169367D02*
X1160654D01*
X1142362Y164795D02*
X1146934Y169367D01*
X1115226Y164795D02*
X1142362D01*
X1110654Y169367D02*
X1115226Y164795D01*
X1096430Y169367D02*
X1110654D01*
X1091858Y164795D02*
X1096430Y169367D01*
X1065226Y164795D02*
X1091858D01*
X1060654Y169367D02*
X1065226Y164795D01*
X1046935Y169367D02*
X1060654D01*
X1042363Y164795D02*
X1046935Y169367D01*
X1015227Y164795D02*
X1042363D01*
X1010655Y169367D02*
X1015227Y164795D01*
X996431Y169367D02*
X1010655D01*
X991859Y164795D02*
X996431Y169367D01*
X965227Y164795D02*
X991859D01*
X960655Y169367D02*
X965227Y164795D01*
X946935Y169367D02*
X960655D01*
X942363Y164795D02*
X946935Y169367D01*
X915227Y164795D02*
X942363D01*
X910655Y169367D02*
X915227Y164795D01*
X896431Y169367D02*
X910655D01*
X891859Y164795D02*
X896431Y169367D01*
X865227Y164795D02*
X891859D01*
X860654Y169368D02*
X865227Y164795D01*
X846935Y169368D02*
X860654D01*
X842363Y164795D02*
X846935Y169368D01*
X815227Y164795D02*
X842363D01*
X810655Y169368D02*
X815227Y164795D01*
X796431Y169368D02*
X810655D01*
X791859Y164795D02*
X796431Y169368D01*
X765241Y164795D02*
X791859D01*
X760669Y169367D02*
X765241Y164795D01*
X746910Y169367D02*
X760669D01*
X742338Y164795D02*
X746910Y169367D01*
X715202Y164795D02*
X742338D01*
X710630Y169367D02*
X715202Y164795D01*
X696406Y169367D02*
X710630D01*
X691835Y164795D02*
X696406Y169367D01*
X665227Y164795D02*
X691835D01*
X660655Y169367D02*
X665227Y164795D01*
X646934Y169367D02*
X660655D01*
X642362Y164795D02*
X646934Y169367D01*
X615226Y164795D02*
X642362D01*
X610654Y169367D02*
X615226Y164795D01*
X596430Y169367D02*
X610654D01*
X591859Y164795D02*
X596430Y169367D01*
X565227Y164795D02*
X591859D01*
X560655Y169367D02*
X565227Y164795D01*
X546934Y169367D02*
X560655D01*
X542362Y164795D02*
X546934Y169367D01*
X515226Y164795D02*
X542362D01*
X510654Y169367D02*
X515226Y164795D01*
X496430Y169367D02*
X510654D01*
X491858Y164795D02*
X496430Y169367D01*
X465226Y164795D02*
X491858D01*
X460654Y169367D02*
X465226Y164795D01*
X446934Y169367D02*
X460654D01*
X442362Y164795D02*
X446934Y169367D01*
X415226Y164795D02*
X442362D01*
X410654Y169367D02*
X415226Y164795D01*
X396430Y169367D02*
X410654D01*
X391858Y164795D02*
X396430Y169367D01*
X365226Y164795D02*
X391858D01*
X360654Y169367D02*
X365226Y164795D01*
X346934Y169367D02*
X360654D01*
X342362Y164795D02*
X346934Y169367D01*
X315226Y164795D02*
X342362D01*
X310654Y169367D02*
X315226Y164795D01*
X296430Y169367D02*
X310654D01*
X291858Y164795D02*
X296430Y169367D01*
X265226Y164795D02*
X291858D01*
X260654Y169367D02*
X265226Y164795D01*
X246934Y169367D02*
X260654D01*
X242362Y164795D02*
X246934Y169367D01*
X215226Y164795D02*
X242362D01*
X210654Y169367D02*
X215226Y164795D01*
X196430Y169367D02*
X210654D01*
X191859Y164795D02*
X196430Y169367D01*
X165226Y164795D02*
X191859D01*
X160655Y169367D02*
X165226Y164795D01*
X146934Y169367D02*
X160655D01*
X142362Y164795D02*
X146934Y169367D01*
X115226Y164795D02*
X142362D01*
X110654Y169367D02*
X115226Y164795D01*
X96430Y169367D02*
X110654D01*
X91859Y164795D02*
X96430Y169367D01*
X65226Y164795D02*
X91859D01*
X60655Y169368D02*
X65226Y164795D01*
X46431Y169368D02*
X60655D01*
X31769D02*
X46431D01*
X19136Y182000D02*
X31769Y169368D01*
X11370Y182000D02*
X19136D01*
M02*
