G04*
G04 #@! TF.GenerationSoftware,Altium Limited,Altium Designer,19.0.12 (326)*
G04*
G04 Layer_Color=16711935*
%FSLAX44Y44*%
%MOMM*%
G71*
G01*
G75*
%ADD13C,0.1270*%
%ADD14C,0.0500*%
%ADD15C,0.0500*%
%ADD19R,0.5032X4.2032*%
%ADD22C,0.7112*%
%ADD68R,0.8032X0.8032*%
%ADD69C,0.8500*%
%ADD70R,0.8032X0.8032*%
%ADD71R,1.6032X1.3032*%
%ADD72R,1.3032X1.6032*%
G04:AMPARAMS|DCode=73|XSize=1.0032mm|YSize=1.1032mm|CornerRadius=0mm|HoleSize=0mm|Usage=FLASHONLY|Rotation=330.000|XOffset=0mm|YOffset=0mm|HoleType=Round|Shape=Rectangle|*
%AMROTATEDRECTD73*
4,1,4,-0.7102,-0.2269,-0.1586,0.7285,0.7102,0.2269,0.1586,-0.7285,-0.7102,-0.2269,0.0*
%
%ADD73ROTATEDRECTD73*%

%ADD74P,1.1359X4X195.0*%
G04:AMPARAMS|DCode=75|XSize=0.8532mm|YSize=1.3032mm|CornerRadius=0mm|HoleSize=0mm|Usage=FLASHONLY|Rotation=240.000|XOffset=0mm|YOffset=0mm|HoleType=Round|Shape=Rectangle|*
%AMROTATEDRECTD75*
4,1,4,-0.3510,0.6953,0.7776,0.0437,0.3510,-0.6953,-0.7776,-0.0437,-0.3510,0.6953,0.0*
%
%ADD75ROTATEDRECTD75*%

G04:AMPARAMS|DCode=76|XSize=1.0032mm|YSize=1.1032mm|CornerRadius=0mm|HoleSize=0mm|Usage=FLASHONLY|Rotation=210.000|XOffset=0mm|YOffset=0mm|HoleType=Round|Shape=Rectangle|*
%AMROTATEDRECTD76*
4,1,4,0.1586,0.7285,0.7102,-0.2269,-0.1586,-0.7285,-0.7102,0.2269,0.1586,0.7285,0.0*
%
%ADD76ROTATEDRECTD76*%

%ADD77P,1.1359X4X165.0*%
G04:AMPARAMS|DCode=78|XSize=0.8532mm|YSize=1.3032mm|CornerRadius=0mm|HoleSize=0mm|Usage=FLASHONLY|Rotation=120.000|XOffset=0mm|YOffset=0mm|HoleType=Round|Shape=Rectangle|*
%AMROTATEDRECTD78*
4,1,4,0.7776,-0.0437,-0.3510,-0.6953,-0.7776,0.0437,0.3510,0.6953,0.7776,-0.0437,0.0*
%
%ADD78ROTATEDRECTD78*%

%ADD79P,1.1359X4X105.0*%
%ADD80P,1.1359X4X75.0*%
%ADD81R,1.0032X1.1032*%
%ADD82R,0.8032X0.4532*%
%ADD83R,0.4532X0.8032*%
%ADD84R,2.8032X2.8032*%
G04:AMPARAMS|DCode=85|XSize=1.64mm|YSize=1.74mm|CornerRadius=0mm|HoleSize=0mm|Usage=FLASHONLY|Rotation=120.000|XOffset=0mm|YOffset=0mm|HoleType=Round|Shape=Rectangle|*
%AMROTATEDRECTD85*
4,1,4,1.1634,-0.2751,-0.3434,-1.1451,-1.1634,0.2751,0.3434,1.1451,1.1634,-0.2751,0.0*
%
%ADD85ROTATEDRECTD85*%

G04:AMPARAMS|DCode=86|XSize=1.64mm|YSize=1.74mm|CornerRadius=0mm|HoleSize=0mm|Usage=FLASHONLY|Rotation=60.000|XOffset=0mm|YOffset=0mm|HoleType=Round|Shape=Rectangle|*
%AMROTATEDRECTD86*
4,1,4,0.3434,-1.1451,-1.1634,-0.2751,-0.3434,1.1451,1.1634,0.2751,0.3434,-1.1451,0.0*
%
%ADD86ROTATEDRECTD86*%

%ADD87R,1.6400X1.7400*%
%ADD88R,0.9232X0.9232*%
%ADD89R,0.9232X0.9232*%
%ADD90R,1.1032X1.0032*%
D13*
X71033Y210000D02*
G03*
X65000Y203904I31J-6065D01*
G01*
X0Y203812D02*
G03*
X-5942Y210000I-6065J123D01*
G01*
X-111533Y455503D02*
G03*
X-27532Y310000I84003J-48502D01*
G01*
X198813Y702019D02*
G03*
X30804Y702023I-84006J-48498D01*
G01*
X100117Y903997D02*
G03*
X114813Y867997I14697J-15000D01*
G01*
X100117Y903997D02*
G03*
X118069Y924838I-112752J115276D01*
G01*
X86550Y979398D02*
G03*
X88952Y986455I-34722J15755D01*
G01*
X55905Y941923D02*
G03*
X46385Y928999I62227J-55807D01*
G01*
X127940Y940646D02*
G03*
X131966Y948976I-104630J55697D01*
G01*
X67301Y954122D02*
G03*
X72986Y960189I-226733J218176D01*
G01*
X137728Y966245D02*
G03*
X139816Y983996I-76944J18047D01*
G01*
X135260Y957526D02*
G03*
X137728Y966245I-88650J29809D01*
G01*
X118069Y924838D02*
G03*
X127940Y940646I-111894J80857D01*
G01*
X72986Y960189D02*
G03*
X78280Y966360I-96757J88364D01*
G01*
X131966Y948976D02*
G03*
X135260Y957526I-96690J42161D01*
G01*
X88952Y986455D02*
G03*
X89816Y993997I-32548J7551D01*
G01*
X78280Y966360D02*
G03*
X82897Y972731I-59537J48000D01*
G01*
D02*
G03*
X86550Y979398I-42719J27740D01*
G01*
X61512Y948065D02*
G03*
X55905Y941922I151760J-144153D01*
G01*
X-243169Y427506D02*
G03*
X-117601Y210003I125572J-72503D01*
G01*
X0Y0D02*
Y203812D01*
X65000Y0D02*
Y203904D01*
X0Y0D02*
X65000D01*
X353156Y434674D02*
X418158Y472087D01*
X198813Y702019D02*
X353156Y434674D01*
X405003Y494874D02*
X418158Y472087D01*
X405003Y494874D02*
X426654Y507374D01*
X286664Y749856D02*
X426654Y507374D01*
X218461Y867994D02*
X276665Y767177D01*
X255014Y754678D02*
X276665Y767177D01*
X265013Y737357D02*
X286664Y749856D01*
X255014Y754678D02*
X265013Y737357D01*
X114813Y867997D02*
X218461Y867994D01*
X139816Y983996D02*
X139816Y1003996D01*
X89816Y993997D02*
X89816Y1003997D01*
X61512Y948065D02*
X67301Y954122D01*
X-47044Y767185D02*
X46385Y928999D01*
X-47044Y767185D02*
X-25393Y754685D01*
X-35394Y737365D02*
X-25393Y754685D01*
X-57044Y749865D02*
X-35394Y737365D01*
X-197046Y507389D02*
X-57044Y749865D01*
X-111533Y455503D02*
X30804Y702023D01*
X-27532Y310000D02*
X314799Y309992D01*
X-243169Y427506D02*
X-207046Y490069D01*
X-185396Y477568D02*
X-175396Y494889D01*
X-197046Y507389D02*
X-175396Y494889D01*
X-207046Y490069D02*
X-185396Y477568D01*
X-117601Y210003D02*
X-5942Y210000D01*
X71033Y210000D02*
X314799D01*
Y309992D01*
X139816Y1003996D02*
Y1115996D01*
X89818D02*
X139816D01*
X89816Y1003997D02*
Y1115997D01*
D14*
X-23201Y290999D02*
X-2201D01*
Y267999D02*
Y290999D01*
X-23201Y267999D02*
X-2201D01*
X-23201D02*
Y290999D01*
X61796Y290997D02*
X82795D01*
Y267997D02*
Y290997D01*
X61796Y267997D02*
X82795D01*
X61796D02*
Y290997D01*
X146797Y291000D02*
X167797D01*
Y268001D02*
Y291000D01*
X146797Y268001D02*
X167797D01*
X146797D02*
Y291000D01*
X231799Y290993D02*
X252799D01*
Y267993D02*
Y290993D01*
X231799Y267993D02*
X252799D01*
X231799D02*
Y290993D01*
D15*
X-83224Y596373D02*
X-72785Y614503D01*
X-63292Y584897D02*
X-52853Y603027D01*
X-72785Y614503D02*
X-52853Y603027D01*
X-83224Y596373D02*
X-63292Y584897D01*
X304030Y615725D02*
X314469Y597595D01*
X284098Y604248D02*
X294537Y586119D01*
X284098Y604248D02*
X304030Y615725D01*
X294537Y586119D02*
X314469Y597595D01*
D19*
X60000Y20000D02*
D03*
X50000D02*
D03*
X45000D02*
D03*
X40000D02*
D03*
X25000D02*
D03*
X20000D02*
D03*
X15000D02*
D03*
X5000D02*
D03*
X55000D02*
D03*
X10000D02*
D03*
X35000D02*
D03*
X30000D02*
D03*
D22*
X-128726Y293004D02*
D03*
X-139126Y282604D02*
D03*
X-149526Y293004D02*
D03*
Y272204D02*
D03*
X-128726D02*
D03*
D68*
X-200884Y321390D02*
D03*
Y331390D02*
D03*
X-213046Y331390D02*
D03*
Y321390D02*
D03*
X-55880Y248802D02*
D03*
Y258802D02*
D03*
X-38608Y231611D02*
D03*
Y221611D02*
D03*
D69*
X-179324Y324866D02*
D03*
X-105410Y246888D02*
D03*
X35306Y227330D02*
D03*
X35814Y245872D02*
D03*
X-156383Y357124D02*
D03*
X-132104Y324612D02*
D03*
X-154666D02*
D03*
D70*
X110062Y1097534D02*
D03*
X120062D02*
D03*
X119809Y1068640D02*
D03*
X109809D02*
D03*
X-176502Y308353D02*
D03*
X-186502D02*
D03*
X-176502Y296923D02*
D03*
X-186502D02*
D03*
D71*
X16256Y227196D02*
D03*
Y242196D02*
D03*
D72*
X-4438Y228346D02*
D03*
X-19438D02*
D03*
D73*
X-161111Y394006D02*
D03*
X-177565Y403506D02*
D03*
X-159338Y416076D02*
D03*
D74*
X-153202Y444766D02*
D03*
X-158202Y436106D02*
D03*
X-143300Y438924D02*
D03*
X-148300Y430264D02*
D03*
X-143600Y395212D02*
D03*
X-138600Y403872D02*
D03*
X-117134Y529856D02*
D03*
X-122134Y521196D02*
D03*
X-178348Y430816D02*
D03*
X-183348Y422156D02*
D03*
D75*
X-143743Y479103D02*
D03*
X-138993Y487330D02*
D03*
X-134243Y495557D02*
D03*
X-113458Y483557D02*
D03*
X-118208Y475330D02*
D03*
X-122958Y467103D02*
D03*
D76*
X204705Y769212D02*
D03*
X221159Y778712D02*
D03*
X222932Y756642D02*
D03*
D77*
X204510Y733004D02*
D03*
X195850Y728004D02*
D03*
X254750Y688380D02*
D03*
X263410Y693380D02*
D03*
X202426Y717336D02*
D03*
X211086Y722336D02*
D03*
X209562Y787360D02*
D03*
X200902Y782360D02*
D03*
D78*
X224874Y709845D02*
D03*
X229624Y701617D02*
D03*
X234373Y693390D02*
D03*
X255158Y705390D02*
D03*
X250408Y713617D02*
D03*
X245658Y721845D02*
D03*
D79*
X-135942Y453370D02*
D03*
X-127282Y448370D02*
D03*
X-120384Y504484D02*
D03*
X-129044Y509484D02*
D03*
D80*
X211114Y703084D02*
D03*
X216114Y694424D02*
D03*
X242438Y740652D02*
D03*
X237438Y749312D02*
D03*
X275296Y673596D02*
D03*
X270296Y682256D02*
D03*
D81*
X107554Y1083056D02*
D03*
X121554D02*
D03*
D82*
X-158126Y270104D02*
D03*
Y275104D02*
D03*
Y280104D02*
D03*
Y285104D02*
D03*
Y290104D02*
D03*
Y295104D02*
D03*
X-120126D02*
D03*
Y290104D02*
D03*
Y285104D02*
D03*
Y280104D02*
D03*
Y275104D02*
D03*
Y270104D02*
D03*
D83*
X-151626Y301604D02*
D03*
X-146626D02*
D03*
X-141626D02*
D03*
X-136626D02*
D03*
X-131626D02*
D03*
X-126626D02*
D03*
Y263604D02*
D03*
X-131626D02*
D03*
X-136626D02*
D03*
X-141626D02*
D03*
X-146626D02*
D03*
X-151626D02*
D03*
D84*
X-139126Y282604D02*
D03*
D85*
X290408Y616294D02*
D03*
X308158Y585550D02*
D03*
D86*
X-76911Y584328D02*
D03*
X-59161Y615072D02*
D03*
D87*
X-30459Y279507D02*
D03*
X5041D02*
D03*
X90046Y279505D02*
D03*
X54546D02*
D03*
X139546Y279502D02*
D03*
X175046D02*
D03*
X260046Y279500D02*
D03*
X224546D02*
D03*
D88*
X-139032Y248666D02*
D03*
X-129032D02*
D03*
X-193400Y283777D02*
D03*
X-183400D02*
D03*
X-161638Y248666D02*
D03*
X-151638D02*
D03*
D89*
X-175400Y272477D02*
D03*
Y262477D02*
D03*
D90*
X-70104Y264302D02*
D03*
Y250302D02*
D03*
X-53594Y220330D02*
D03*
Y234330D02*
D03*
M02*
