G04*
G04 #@! TF.GenerationSoftware,Altium Limited,Altium Designer,19.0.12 (326)*
G04*
G04 Layer_Color=16711935*
%FSLAX44Y44*%
%MOMM*%
G71*
G01*
G75*
%ADD13C,0.1270*%
%ADD14C,0.0500*%
%ADD15C,0.0500*%
%ADD102C,0.1000*%
D13*
X71033Y210000D02*
G03*
X65000Y203904I31J-6065D01*
G01*
X0Y203812D02*
G03*
X-5942Y210000I-6065J123D01*
G01*
X-111533Y455503D02*
G03*
X-27532Y310000I84003J-48502D01*
G01*
X198813Y702019D02*
G03*
X30804Y702023I-84006J-48498D01*
G01*
X100117Y903997D02*
G03*
X114813Y867997I14697J-15000D01*
G01*
X100117Y903997D02*
G03*
X118069Y924838I-112752J115276D01*
G01*
X86550Y979398D02*
G03*
X88952Y986455I-34722J15755D01*
G01*
X55905Y941923D02*
G03*
X46385Y928999I62227J-55807D01*
G01*
X127940Y940646D02*
G03*
X131966Y948976I-104630J55697D01*
G01*
X67301Y954122D02*
G03*
X72986Y960189I-226733J218176D01*
G01*
X137728Y966245D02*
G03*
X139816Y983996I-76944J18047D01*
G01*
X135260Y957526D02*
G03*
X137728Y966245I-88650J29809D01*
G01*
X118069Y924838D02*
G03*
X127940Y940646I-111894J80857D01*
G01*
X72986Y960189D02*
G03*
X78280Y966360I-96757J88364D01*
G01*
X131966Y948976D02*
G03*
X135260Y957526I-96690J42161D01*
G01*
X88952Y986455D02*
G03*
X89816Y993997I-32548J7551D01*
G01*
X78280Y966360D02*
G03*
X82897Y972731I-59537J48000D01*
G01*
D02*
G03*
X86550Y979398I-42719J27740D01*
G01*
X61512Y948065D02*
G03*
X55905Y941922I151760J-144153D01*
G01*
X-243169Y427506D02*
G03*
X-117601Y210003I125572J-72503D01*
G01*
X0Y0D02*
Y203812D01*
X65000Y0D02*
Y203904D01*
X0Y0D02*
X65000D01*
X353156Y434674D02*
X418158Y472087D01*
X198813Y702019D02*
X353156Y434674D01*
X405003Y494874D02*
X418158Y472087D01*
X405003Y494874D02*
X426654Y507374D01*
X286664Y749856D02*
X426654Y507374D01*
X218461Y867994D02*
X276665Y767177D01*
X255014Y754678D02*
X276665Y767177D01*
X265013Y737357D02*
X286664Y749856D01*
X255014Y754678D02*
X265013Y737357D01*
X114813Y867997D02*
X218461Y867994D01*
X139816Y983996D02*
X139816Y1003996D01*
X89816Y993997D02*
X89816Y1003997D01*
X61512Y948065D02*
X67301Y954122D01*
X-47044Y767185D02*
X46385Y928999D01*
X-47044Y767185D02*
X-25393Y754685D01*
X-35394Y737365D02*
X-25393Y754685D01*
X-57044Y749865D02*
X-35394Y737365D01*
X-197046Y507389D02*
X-57044Y749865D01*
X-111533Y455503D02*
X30804Y702023D01*
X-27532Y310000D02*
X314799Y309992D01*
X-243169Y427506D02*
X-207046Y490069D01*
X-185396Y477568D02*
X-175396Y494889D01*
X-197046Y507389D02*
X-175396Y494889D01*
X-207046Y490069D02*
X-185396Y477568D01*
X-117601Y210003D02*
X-5942Y210000D01*
X71033Y210000D02*
X314799D01*
Y309992D01*
X139816Y1003996D02*
Y1115996D01*
X89818D02*
X139816D01*
X89816Y1003997D02*
Y1115997D01*
D14*
X-23201Y290999D02*
X-2201D01*
Y267999D02*
Y290999D01*
X-23201Y267999D02*
X-2201D01*
X-23201D02*
Y290999D01*
X61796Y290997D02*
X82795D01*
Y267997D02*
Y290997D01*
X61796Y267997D02*
X82795D01*
X61796D02*
Y290997D01*
X146797Y291000D02*
X167797D01*
Y268001D02*
Y291000D01*
X146797Y268001D02*
X167797D01*
X146797D02*
Y291000D01*
X231799Y290993D02*
X252799D01*
Y267993D02*
Y290993D01*
X231799Y267993D02*
X252799D01*
X231799D02*
Y290993D01*
D15*
X-83224Y596373D02*
X-72785Y614503D01*
X-63292Y584897D02*
X-52853Y603027D01*
X-72785Y614503D02*
X-52853Y603027D01*
X-83224Y596373D02*
X-63292Y584897D01*
X304030Y615725D02*
X314469Y597595D01*
X284098Y604248D02*
X294537Y586119D01*
X284098Y604248D02*
X304030Y615725D01*
X294537Y586119D02*
X314469Y597595D01*
D102*
X-145626Y271104D02*
G03*
X-145626Y271104I-5000J0D01*
G01*
X-203884Y320890D02*
X-197884D01*
X-203884Y331890D02*
X-197884D01*
Y320890D02*
Y331890D01*
X-203884Y320890D02*
Y331890D01*
X-216046Y331890D02*
X-210046D01*
X-216046Y320890D02*
X-210046D01*
X-216046D02*
Y331890D01*
X-210046Y320890D02*
Y331890D01*
X109562Y1094534D02*
Y1100534D01*
X120562Y1094534D02*
Y1100534D01*
X109562Y1094534D02*
X120562D01*
X109562Y1100534D02*
X120562D01*
X9006Y223696D02*
X23506D01*
X9006Y245696D02*
X23506D01*
Y223696D02*
Y245696D01*
X9006Y223696D02*
Y245696D01*
X-938Y221096D02*
Y235596D01*
X-22938Y221096D02*
Y235596D01*
X-938D01*
X-22938Y221096D02*
X-938D01*
X-180232Y409087D02*
X-154944Y394487D01*
X-173732Y420345D02*
X-148444Y405745D01*
X-154944Y394487D02*
X-148444Y405745D01*
X-180232Y409087D02*
X-173732Y420345D01*
X-155550Y446699D02*
X-150354Y443699D01*
X-161050Y437173D02*
X-155854Y434173D01*
X-161050Y437173D02*
X-155550Y446699D01*
X-155854Y434173D02*
X-150354Y443699D01*
X-145648Y440857D02*
X-140452Y437857D01*
X-151148Y431331D02*
X-145952Y428331D01*
X-151148Y431331D02*
X-145648Y440857D01*
X-145952Y428331D02*
X-140452Y437857D01*
X-146448Y396279D02*
X-141252Y393279D01*
X-140948Y405805D02*
X-135752Y402805D01*
X-141252Y393279D02*
X-135752Y402805D01*
X-146448Y396279D02*
X-140948Y405805D01*
X-143678Y472715D02*
X-128678Y498695D01*
X-128523Y463965D02*
X-113523Y489945D01*
X-143678Y472715D02*
X-128523Y463965D01*
X-128678Y498695D02*
X-113523Y489945D01*
X202038Y763631D02*
X227326Y778231D01*
X208538Y752373D02*
X233826Y766973D01*
X202038Y763631D02*
X208538Y752373D01*
X227326Y778231D02*
X233826Y766973D01*
X203443Y735852D02*
X206443Y730656D01*
X193917Y730352D02*
X196917Y725156D01*
X193917Y730352D02*
X203443Y735852D01*
X196917Y725156D02*
X206443Y730656D01*
X239938Y690252D02*
X255094Y699002D01*
X224938Y716233D02*
X240094Y724983D01*
X224938Y716233D02*
X239938Y690252D01*
X240094Y724983D02*
X255094Y699002D01*
X-137875Y451022D02*
X-128349Y445522D01*
X-134875Y456218D02*
X-125349Y450718D01*
X-137875Y451022D02*
X-134875Y456218D01*
X-128349Y445522D02*
X-125349Y450718D01*
X-127977Y512332D02*
X-118451Y506832D01*
X-130977Y507136D02*
X-121451Y501636D01*
X-118451Y506832D01*
X-130977Y507136D02*
X-127977Y512332D01*
X208266Y702017D02*
X213766Y692491D01*
X213462Y705017D02*
X218962Y695491D01*
X208266Y702017D02*
X213462Y705017D01*
X213766Y692491D02*
X218962Y695491D01*
X255817Y685532D02*
X265343Y691032D01*
X252817Y690728D02*
X262343Y696228D01*
X252817Y690728D02*
X255817Y685532D01*
X262343Y696228D02*
X265343Y691032D01*
X203493Y714488D02*
X213019Y719988D01*
X200493Y719684D02*
X210019Y725184D01*
X200493Y719684D02*
X203493Y714488D01*
X210019Y725184D02*
X213019Y719988D01*
X198969Y784708D02*
X208495Y790208D01*
X201969Y779512D02*
X211495Y785012D01*
X208495Y790208D02*
X211495Y785012D01*
X198969Y784708D02*
X201969Y779512D01*
X239786Y751245D02*
X245286Y741719D01*
X234590Y748245D02*
X240090Y738719D01*
X245286Y741719D01*
X234590Y748245D02*
X239786Y751245D01*
X272644Y684189D02*
X278144Y674663D01*
X267448Y681189D02*
X272948Y671663D01*
X278144Y674663D01*
X267448Y681189D02*
X272644Y684189D01*
X109309Y1071640D02*
X120309D01*
X109309Y1065640D02*
X120309D01*
Y1071640D01*
X109309Y1065640D02*
Y1071640D01*
X105804Y1078306D02*
X123304D01*
X105804Y1087806D02*
X123304D01*
X105804Y1078306D02*
Y1087806D01*
X123304Y1078306D02*
Y1087806D01*
X-159626Y262104D02*
Y303104D01*
X-118626Y262104D02*
Y303104D01*
X-159626Y262104D02*
X-118626D01*
X-159626Y303104D02*
X-118626D01*
X-187002Y311353D02*
X-176002D01*
X-187002Y305353D02*
X-176002D01*
Y311353D01*
X-187002Y305353D02*
Y311353D01*
Y299923D02*
X-176002D01*
X-187002Y293923D02*
X-176002D01*
Y299923D01*
X-187002Y293923D02*
Y299923D01*
X-124982Y522263D02*
X-119482Y531789D01*
X-119786Y519263D02*
X-114286Y528789D01*
X-119482Y531789D02*
X-114286Y528789D01*
X-124982Y522263D02*
X-119786Y519263D01*
X-186196Y423223D02*
X-180696Y432749D01*
X-181000Y420223D02*
X-175500Y429749D01*
X-180696Y432749D02*
X-175500Y429749D01*
X-186196Y423223D02*
X-181000Y420223D01*
X282988Y611143D02*
X298577Y620143D01*
X299988Y581698D02*
X315577Y590698D01*
X282988Y611143D02*
X299988Y581698D01*
X298577Y620143D02*
X315577Y590698D01*
X-68743Y580477D02*
X-51743Y609922D01*
X-84332Y589477D02*
X-67332Y618922D01*
X-84332Y589477D02*
X-68743Y580477D01*
X-67332Y618922D02*
X-51743Y609922D01*
X-29708Y270506D02*
Y288506D01*
X4292Y270506D02*
Y288506D01*
X-29708Y270506D02*
X4292D01*
X-29708Y288506D02*
X4292D01*
X55297Y288504D02*
X89297D01*
X55297Y270504D02*
X89297D01*
Y288504D01*
X55297Y270504D02*
Y288504D01*
X140297Y270501D02*
Y288501D01*
X174297Y270501D02*
Y288501D01*
X140297Y270501D02*
X174297D01*
X140297Y288501D02*
X174297D01*
X225297Y288499D02*
X259297D01*
X225297Y270499D02*
X259297D01*
Y288499D01*
X225297Y270499D02*
Y288499D01*
X-139532Y245666D02*
Y251666D01*
X-128532Y245666D02*
Y251666D01*
X-139532Y245666D02*
X-128532D01*
X-139532Y251666D02*
X-128532D01*
X-193900Y280777D02*
Y286777D01*
X-182900Y280777D02*
Y286777D01*
X-193900Y280777D02*
X-182900D01*
X-193900Y286777D02*
X-182900D01*
X-178400Y272977D02*
X-172400D01*
X-178400Y261977D02*
X-172400D01*
X-178400D02*
Y272977D01*
X-172400Y261977D02*
Y272977D01*
X-162138Y245666D02*
Y251666D01*
X-151138Y245666D02*
Y251666D01*
X-162138Y245666D02*
X-151138D01*
X-162138Y251666D02*
X-151138D01*
X-74854Y248552D02*
Y266052D01*
X-65354Y248552D02*
Y266052D01*
X-74854D02*
X-65354D01*
X-74854Y248552D02*
X-65354D01*
X-58880Y248302D02*
X-52880D01*
X-58880Y259302D02*
X-52880D01*
Y248302D02*
Y259302D01*
X-58880Y248302D02*
Y259302D01*
X-48844Y218580D02*
Y236080D01*
X-58344Y218580D02*
Y236080D01*
Y218580D02*
X-48844D01*
X-58344Y236080D02*
X-48844D01*
X-41608Y232111D02*
X-35608D01*
X-41608Y221111D02*
X-35608D01*
X-41608D02*
Y232111D01*
X-35608Y221111D02*
Y232111D01*
M02*
