G04*
G04 #@! TF.GenerationSoftware,Altium Limited,Altium Designer,19.0.12 (326)*
G04*
G04 Layer_Physical_Order=1*
G04 Layer_Color=255*
%FSLAX44Y44*%
%MOMM*%
G71*
G01*
G75*
%ADD11C,0.1524*%
%ADD12C,0.2540*%
%ADD13C,0.1270*%
%ADD14C,0.0500*%
%ADD15C,0.0500*%
%ADD16R,0.3000X4.0000*%
%ADD17R,0.5000X0.5000*%
%ADD18R,0.5000X0.5800*%
%ADD23C,0.2413*%
%ADD24C,0.2032*%
%ADD25C,0.3810*%
%ADD26C,0.5080*%
%ADD27P,0.5657X4X345.0*%
%ADD28P,0.5657X4X105.0*%
%ADD29C,0.4572*%
%ADD30R,7.0104X1.5433*%
%ADD31C,0.4064*%
%ADD32C,0.5080*%
G36*
X-27099Y633343D02*
X-39699Y611519D01*
D01*
X-77099Y546740D01*
X-120400Y571740D01*
X-111482Y587187D01*
X-111482Y587187D01*
X-70400Y658343D01*
X-27099Y633343D01*
D02*
G37*
G36*
X315683Y622514D02*
D01*
X345933Y570120D01*
X302632Y545120D01*
X282882Y579328D01*
D01*
X252632Y631722D01*
X295933Y656722D01*
X315683Y622514D01*
D02*
G37*
%LPC*%
G36*
X-72587Y613994D02*
X-83087Y595808D01*
X-63169Y584308D01*
X-52669Y602495D01*
X-72587Y613994D01*
D02*
G37*
G36*
X303992Y615764D02*
X284073Y604264D01*
X294573Y586077D01*
X314492Y597578D01*
X303992Y615764D01*
D02*
G37*
%LPD*%
D11*
X-51743Y274247D02*
G03*
X-69703Y281686I-17960J-17960D01*
G01*
X-38428Y260931D02*
G03*
X-20467Y253492I17960J17960D01*
G01*
X13462Y249682D02*
G03*
X4264Y253492I-9198J-9198D01*
G01*
X15000Y245969D02*
G03*
X13462Y249682I-5251J0D01*
G01*
X-50472Y277549D02*
G03*
X-68433Y284988I-17960J-17960D01*
G01*
X-37157Y264233D02*
G03*
X-19197Y256794I17960J17960D01*
G01*
X18101Y252663D02*
G03*
X8128Y256794I-9973J-9973D01*
G01*
X20000Y248343D02*
G03*
X18288Y252476I-5845J0D01*
G01*
X-49202Y281105D02*
G03*
X-67163Y288544I-17960J-17960D01*
G01*
X-35633Y267535D02*
G03*
X-17673Y260096I17960J17960D01*
G01*
X21590Y255778D02*
G03*
X11165Y260096I-10425J-10425D01*
G01*
X25000Y247546D02*
G03*
X21590Y255778I-11643J0D01*
G01*
X-47171Y284153D02*
G03*
X-65131Y291592I-17960J-17960D01*
G01*
X-32004Y268986D02*
G03*
X-20353Y264160I11651J11651D01*
G01*
X27432Y257556D02*
G03*
X11488Y264160I-15943J-15943D01*
G01*
X30000Y251356D02*
G03*
X27432Y257556I-8768J0D01*
G01*
X30578Y290986D02*
G03*
X19304Y295656I-11274J-11274D01*
G01*
X35000Y283405D02*
G03*
X32766Y288798I-7627J0D01*
G01*
X35306Y295266D02*
G03*
X26392Y298958I-8914J-8914D01*
G01*
X40000Y283933D02*
G03*
X35306Y295266I-16026J0D01*
G01*
X42164Y297688D02*
G03*
X30513Y302514I-11651J-11651D01*
G01*
X44958Y290943D02*
G03*
X42164Y297688I-9539J0D01*
G01*
X50000Y291122D02*
G03*
X46228Y300228I-12878J0D01*
G01*
D02*
G03*
X33351Y305562I-12877J-12877D01*
G01*
X-171958Y330200D02*
Y336436D01*
X-164986Y343408D01*
X-141626Y313436D02*
X-112268D01*
X-80518Y281686D01*
X-143907Y319024D02*
X-112776D01*
X-78740Y284988D01*
X-112768Y323850D02*
X-77463Y288544D01*
X-121537Y323850D02*
X-112768D01*
X-113792Y329184D02*
X-76200Y291592D01*
X-112776Y332994D02*
X-75438Y295656D01*
X-113074Y338074D02*
X-73958Y298958D01*
X-160274Y338074D02*
X-113074D01*
X-73958Y298958D02*
X26392D01*
X-113559Y343408D02*
X-72665Y302514D01*
X-112268Y347218D02*
X-70612Y305562D01*
X-170320Y347218D02*
X-112268D01*
X-164986Y343408D02*
X-113559D01*
X-146450Y316481D02*
X-143907Y319024D01*
X35000Y235278D02*
Y283405D01*
Y235278D02*
X35052Y235330D01*
X-51743Y274247D02*
X-38428Y260931D01*
X-20467Y253492D02*
X4264D01*
X15000Y121920D02*
Y245969D01*
X-80518Y281686D02*
X-69703D01*
X-50472Y277549D02*
X-37157Y264233D01*
X-19197Y256794D02*
X8128D01*
X18101Y252663D02*
X18288Y252476D01*
X20000Y126934D02*
Y248343D01*
X-78740Y284988D02*
X-68433D01*
X-77463Y288544D02*
X-67163D01*
X-75438Y295656D02*
X19304D01*
X-72665Y302514D02*
X30513D01*
X-70612Y305562D02*
X33351D01*
X-49202Y281105D02*
X-35633Y267535D01*
X-17673Y260096D02*
X11165D01*
X25000Y236074D02*
Y247546D01*
Y121920D02*
Y236074D01*
X-47171Y284153D02*
X-32004Y268986D01*
X-20353Y264160D02*
X11488D01*
X30000Y126934D02*
Y237208D01*
Y251356D01*
X-76200Y291592D02*
X-65131D01*
X30578Y290986D02*
X32766Y288798D01*
X44958Y221111D02*
Y290943D01*
X50000Y126934D02*
Y224828D01*
Y291122D01*
X45000Y121920D02*
Y221069D01*
X40000Y126934D02*
Y283933D01*
X35000Y121920D02*
Y235278D01*
X25000Y236074D02*
X25146Y236220D01*
X29972Y237236D02*
X30000Y237208D01*
X44958Y221111D02*
X45000Y221069D01*
X49784Y225044D02*
X50000Y224828D01*
X-168866Y308099D02*
X-136880D01*
X-169056Y308289D02*
X-168866Y308099D01*
D12*
X-112776Y536956D02*
X-80144Y591077D01*
X114808Y1060576D02*
X115950Y1059434D01*
X114808Y1060576D02*
Y1068072D01*
X106808Y1084072D02*
Y1092072D01*
Y1076072D02*
Y1084072D01*
X114808Y1068072D02*
Y1072894D01*
X111630Y1076072D02*
X114808Y1072894D01*
X106808Y1076072D02*
X111630D01*
X114808Y1094740D02*
Y1100072D01*
X112140Y1092072D02*
X114808Y1094740D01*
X106808Y1092072D02*
X112140D01*
X-164738Y262967D02*
X-158816Y257045D01*
X-151626D01*
Y256283D02*
Y257045D01*
D13*
X71033Y210000D02*
G03*
X65000Y203904I31J-6065D01*
G01*
X0Y203812D02*
G03*
X-5942Y210000I-6065J123D01*
G01*
X-111533Y455503D02*
G03*
X-27532Y310000I84003J-48502D01*
G01*
X198813Y702019D02*
G03*
X30804Y702023I-84006J-48498D01*
G01*
X100117Y903997D02*
G03*
X114813Y867997I14697J-15000D01*
G01*
X100117Y903997D02*
G03*
X118069Y924838I-112752J115276D01*
G01*
X86550Y979398D02*
G03*
X88952Y986455I-34722J15755D01*
G01*
X55905Y941923D02*
G03*
X46385Y928999I62227J-55807D01*
G01*
X127940Y940646D02*
G03*
X131966Y948976I-104630J55697D01*
G01*
X67301Y954122D02*
G03*
X72986Y960189I-226733J218176D01*
G01*
X137728Y966245D02*
G03*
X139816Y983996I-76944J18047D01*
G01*
X135260Y957526D02*
G03*
X137728Y966245I-88650J29809D01*
G01*
X118069Y924838D02*
G03*
X127940Y940646I-111894J80857D01*
G01*
X72986Y960189D02*
G03*
X78280Y966360I-96757J88364D01*
G01*
X131966Y948976D02*
G03*
X135260Y957526I-96690J42161D01*
G01*
X88952Y986455D02*
G03*
X89816Y993997I-32548J7551D01*
G01*
X78280Y966360D02*
G03*
X82897Y972731I-59537J48000D01*
G01*
D02*
G03*
X86550Y979398I-42719J27740D01*
G01*
X61512Y948065D02*
G03*
X55905Y941922I151760J-144153D01*
G01*
X-243169Y427506D02*
G03*
X-117601Y210003I125572J-72503D01*
G01*
X0Y0D02*
Y203812D01*
X65000Y0D02*
Y203904D01*
X0Y0D02*
X65000D01*
X353156Y434674D02*
X418158Y472087D01*
X198813Y702019D02*
X353156Y434674D01*
X405003Y494874D02*
X418158Y472087D01*
X405003Y494874D02*
X426654Y507374D01*
X286664Y749856D02*
X426654Y507374D01*
X218461Y867994D02*
X276665Y767177D01*
X255014Y754678D02*
X276665Y767177D01*
X265013Y737357D02*
X286664Y749856D01*
X255014Y754678D02*
X265013Y737357D01*
X114813Y867997D02*
X218461Y867994D01*
X139816Y983996D02*
X139816Y1003996D01*
X89816Y993997D02*
X89816Y1003997D01*
X61512Y948065D02*
X67301Y954122D01*
X-47044Y767185D02*
X46385Y928999D01*
X-47044Y767185D02*
X-25393Y754685D01*
X-35394Y737365D02*
X-25393Y754685D01*
X-57044Y749865D02*
X-35394Y737365D01*
X-197046Y507389D02*
X-57044Y749865D01*
X-111533Y455503D02*
X30804Y702023D01*
X-27532Y310000D02*
X314799Y309992D01*
X-243169Y427506D02*
X-207046Y490069D01*
X-185396Y477568D02*
X-175396Y494889D01*
X-197046Y507389D02*
X-175396Y494889D01*
X-207046Y490069D02*
X-185396Y477568D01*
X-117601Y210003D02*
X-5942Y210000D01*
X71033Y210000D02*
X314799D01*
Y309992D01*
X139816Y1003996D02*
Y1115996D01*
X89818D02*
X139816D01*
X89816Y1003997D02*
Y1115997D01*
D14*
X-23201Y290999D02*
X-2201D01*
Y267999D02*
Y290999D01*
X-23201Y267999D02*
X-2201D01*
X-23201D02*
Y290999D01*
X61796Y290997D02*
X82795D01*
Y267997D02*
Y290997D01*
X61796Y267997D02*
X82795D01*
X61796D02*
Y290997D01*
X146797Y291000D02*
X167797D01*
Y268001D02*
Y291000D01*
X146797Y268001D02*
X167797D01*
X146797D02*
Y291000D01*
X231799Y290993D02*
X252799D01*
Y267993D02*
Y290993D01*
X231799Y267993D02*
X252799D01*
X231799D02*
Y290993D01*
D15*
X-83224Y596373D02*
X-72785Y614503D01*
X-63292Y584897D02*
X-52853Y603027D01*
X-72785Y614503D02*
X-52853Y603027D01*
X-83224Y596373D02*
X-63292Y584897D01*
X304030Y615725D02*
X314469Y597595D01*
X284098Y604248D02*
X294537Y586119D01*
X284098Y604248D02*
X304030Y615725D01*
X294537Y586119D02*
X314469Y597595D01*
D16*
X15000Y20000D02*
D03*
X20000D02*
D03*
X25000D02*
D03*
X30000D02*
D03*
X35000D02*
D03*
X40000D02*
D03*
X45000D02*
D03*
X50000D02*
D03*
X55000D02*
D03*
X60000D02*
D03*
X10000D02*
D03*
X5000D02*
D03*
D17*
X114808Y1068072D02*
D03*
X122808D02*
D03*
Y1076072D02*
D03*
Y1084072D02*
D03*
Y1092072D02*
D03*
Y1100072D02*
D03*
X114808D02*
D03*
X106808D02*
D03*
Y1092072D02*
D03*
Y1084072D02*
D03*
Y1076072D02*
D03*
D18*
Y1067672D02*
D03*
D23*
X189162Y792412D02*
G03*
X169836Y800417I-19326J-19326D01*
G01*
X194373Y779831D02*
G03*
X189162Y792412I-17792J0D01*
G01*
X173829Y788609D02*
G03*
X169836Y789115I-3993J-15524D01*
G01*
X183071Y779831D02*
G03*
X181170Y784420I-6489J0D01*
G01*
X173829Y788609D02*
G03*
X172241Y787844I1685J-5527D01*
G01*
X181292Y783082D02*
G03*
X181125Y784465I-5778J0D01*
G01*
X172241Y778319D02*
G03*
X181292Y783082I3273J4762D01*
G01*
X261213Y735176D02*
G03*
X267204Y733562I3800J2181D01*
G01*
X252823Y758472D02*
G03*
X251219Y752487I2191J-3795D01*
G01*
X252823Y758472D02*
G03*
X251225Y752477I2191J-3795D01*
G01*
X261219Y735166D02*
G03*
X267204Y733562I3795J2191D01*
G01*
X222694Y687324D02*
G03*
X222568Y688529I-5778J0D01*
G01*
X290448Y667168D02*
G03*
X273614Y656964I-10794J-1180D01*
G01*
X196618Y737778D02*
G03*
X195242Y739253I-4848J-3144D01*
G01*
X194373Y741992D02*
G03*
X195242Y739253I4755J0D01*
G01*
X183071Y741992D02*
G03*
X186766Y731744I16058J0D01*
G01*
D02*
G03*
X188626Y729786I5004J2890D01*
G01*
X215605Y681696D02*
G03*
X222694Y687324I1311J5628D01*
G01*
X211264Y698967D02*
G03*
X205480Y712931I-19749J0D01*
G01*
X222568Y698967D02*
G03*
X213473Y720924I-31051J0D01*
G01*
X126765Y1106319D02*
G03*
X124652Y1109440I-9160J-3926D01*
G01*
D02*
G03*
X121632Y1111615I-8201J-8201D01*
G01*
X135435Y1083593D02*
G03*
X134394Y1084085I-2979J-4951D01*
G01*
X125450Y1043234D02*
G03*
X135435Y1044643I4598J3500D01*
G01*
X133288Y1085280D02*
G03*
X129054Y1088028I-8582J-8582D01*
G01*
X134394Y1084085D02*
G03*
X133288Y1085280I-16125J-13824D01*
G01*
X125841Y1041146D02*
G03*
X125450Y1043234I-5778J0D01*
G01*
X119631Y1035384D02*
G03*
X125841Y1041146I431J5762D01*
G01*
X122031Y1023593D02*
G03*
X119631Y1035384I-30162J0D01*
G01*
X113196Y973109D02*
G03*
X122031Y994437I-21328J21328D01*
G01*
X133462Y967246D02*
G03*
X135434Y984004I-72678J17047D01*
G01*
X131107Y958922D02*
G03*
X133456Y967219I-84497J28413D01*
G01*
X127949Y950728D02*
G03*
X131102Y958908I-92673J40410D01*
G01*
X124073Y942706D02*
G03*
X127949Y950727I-100763J53637D01*
G01*
X114527Y927416D02*
G03*
X124073Y942706I-108351J78279D01*
G01*
X97064Y907140D02*
G03*
X114518Y927404I-109699J112134D01*
G01*
X97051Y907127D02*
G03*
X114813Y863615I17763J-18130D01*
G01*
X402822Y498674D02*
G03*
X401208Y492683I2181J-3800D01*
G01*
X402812Y498669D02*
G03*
X401208Y492683I2191J-3795D01*
G01*
X256795Y290993D02*
G03*
X252799Y294989I-3996J0D01*
G01*
X256795Y290993D02*
G03*
X252799Y294989I-3996J0D01*
G01*
Y263996D02*
G03*
X256795Y267993I0J3996D01*
G01*
X252799Y263996D02*
G03*
X256795Y267993I0J3996D01*
G01*
X231799Y294989D02*
G03*
X227802Y290993I0J-3996D01*
G01*
Y267993D02*
G03*
X231799Y263996I3996J0D01*
G01*
Y294989D02*
G03*
X227802Y290993I0J-3996D01*
G01*
X171794Y291000D02*
G03*
X167797Y294997I-3996J0D01*
G01*
X171794Y291000D02*
G03*
X167797Y294997I-3996J0D01*
G01*
X146797D02*
G03*
X142801Y291000I0J-3996D01*
G01*
X146797Y294997D02*
G03*
X142801Y291000I0J-3996D01*
G01*
X167797Y264004D02*
G03*
X171794Y268001I0J3996D01*
G01*
X167797Y264004D02*
G03*
X171794Y268001I0J3996D01*
G01*
X142801D02*
G03*
X146797Y264004I3996J0D01*
G01*
X142801Y268001D02*
G03*
X146797Y264004I3996J0D01*
G01*
X86792Y290997D02*
G03*
X82795Y294994I-3996J0D01*
G01*
X86792Y290997D02*
G03*
X82795Y294994I-3996J0D01*
G01*
X61796D02*
G03*
X57799Y290997I0J-3996D01*
G01*
X61796Y294994D02*
G03*
X57799Y290997I0J-3996D01*
G01*
X227802Y267993D02*
G03*
X231799Y263996I3996J0D01*
G01*
X82795Y264001D02*
G03*
X86792Y267997I0J3996D01*
G01*
X82795Y264001D02*
G03*
X86792Y267997I0J3996D01*
G01*
X57799D02*
G03*
X61796Y264001I3996J0D01*
G01*
X57799Y267997D02*
G03*
X61796Y264001I3996J0D01*
G01*
X71011Y214381D02*
G03*
X60619Y203895I54J-10446D01*
G01*
X54763Y123661D02*
G03*
X55778Y126934I-4762J3273D01*
G01*
D02*
G03*
X54509Y130548I-5778J0D01*
G01*
X52553Y800417D02*
G03*
X46871Y800417I-2841J-5608D01*
G01*
X47050Y789115D02*
G03*
X52374Y789115I2662J5695D01*
G01*
X45814Y778319D02*
G03*
X31221Y772275I0J-20638D01*
G01*
X45814Y787844D02*
G03*
X24486Y779010I0J-30162D01*
G01*
X8849Y800417D02*
G03*
X8849Y789115I-2753J-5652D01*
G01*
X-9969Y755280D02*
G03*
X-15936Y769686I-20372J0D01*
G01*
X-17887Y774394D02*
G03*
X-15945Y769694I6659J0D01*
G01*
X202608Y704210D02*
G03*
X27010Y704214I-87800J-50689D01*
G01*
X-11300Y743223D02*
G03*
X-9969Y752084I-28832J8861D01*
G01*
X-38474Y715073D02*
G03*
X-17146Y723908I0J30162D01*
G01*
X-48006Y715073D02*
G03*
X-52637Y713155I0J-6549D01*
G01*
X-119359Y545591D02*
G03*
X-102066Y535165I6583J-8635D01*
G01*
X-162624Y515210D02*
G03*
X-160716Y510606I6511J0D01*
G01*
X-154864Y496475D02*
G03*
X-160716Y510606I-19983J0D01*
G01*
X-127584Y442214D02*
G03*
X-138865Y443978I-5778J0D01*
G01*
X-129058Y438359D02*
G03*
X-127584Y442214I-4305J3855D01*
G01*
X-145775Y431919D02*
G03*
X-146685Y431165I3535J-5199D01*
G01*
X-137795Y422275D02*
G03*
X-135968Y426299I-4445J4445D01*
G01*
X-150676Y427175D02*
G03*
X-159957Y404769I22406J-22406D01*
G01*
X-141785Y418284D02*
G03*
X-147383Y404769I13515J-13515D01*
G01*
X-163698Y468015D02*
G03*
X-154864Y489343I-21328J21328D01*
G01*
X-187587Y473774D02*
G03*
X-185554Y473190I2191J3794D01*
G01*
X-187590Y473776D02*
G03*
X-185554Y473190I2194J3793D01*
G01*
X-225036Y433707D02*
G03*
X-233871Y412379I21328J-21328D01*
G01*
X-206617Y425096D02*
G03*
X-212661Y410503I14593J-14593D01*
G01*
X54509Y291122D02*
G03*
X49416Y303416I-17387J0D01*
G01*
D02*
G03*
X46861Y305617I-16065J-16065D01*
G01*
X-54931Y271059D02*
G03*
X-69703Y277178I-14772J-14772D01*
G01*
X-83715Y278507D02*
G03*
X-80518Y277178I3196J3179D01*
G01*
X-83706Y278498D02*
G03*
X-80518Y277178I3188J3188D01*
G01*
X-101156Y286004D02*
G03*
X-113729Y286004I-6287J0D01*
G01*
X-101156D02*
G03*
X-113729Y286004I-6287J0D01*
G01*
Y270002D02*
G03*
X-111887Y265557I6287J0D01*
G01*
X-113729Y270002D02*
G03*
X-111887Y265557I6287J0D01*
G01*
X-115327Y457693D02*
G03*
X-112518Y351726I87798J-50693D01*
G01*
X-127288Y324422D02*
G03*
X-127307Y323532I5750J-571D01*
G01*
X-239375Y425315D02*
G03*
X-117601Y214384I121777J-70312D01*
G01*
X10265Y246503D02*
G03*
X4264Y248983I-6001J-6019D01*
G01*
X-41616Y257743D02*
G03*
X-20467Y248983I21149J21149D01*
G01*
X4383Y203935D02*
G03*
X-5853Y214380I-10447J0D01*
G01*
X10491Y132758D02*
G03*
X4381Y128350I-492J-5757D01*
G01*
X-80082Y242253D02*
G03*
X-78042Y246888I-4246J4636D01*
G01*
X-80082Y242253D02*
G03*
X-78042Y246888I-4246J4636D01*
G01*
D02*
G03*
X-79883Y251333I-6287J0D01*
G01*
X-78042Y246888D02*
G03*
X-79883Y251333I-6287J0D01*
G01*
X-159957Y379730D02*
G03*
X-147383Y379730I6287J0D01*
G01*
X-159957D02*
G03*
X-147383Y379730I6287J0D01*
G01*
X-168785Y351726D02*
G03*
X-170320Y351981I-1534J-4509D01*
G01*
X-185821Y358025D02*
G03*
X-171228Y351981I14593J14593D01*
G01*
X-192556Y351290D02*
G03*
X-172296Y342474I21328J21328D01*
G01*
X-175137Y339633D02*
G03*
X-176467Y336436I3179J-3196D01*
G01*
X-175146Y339624D02*
G03*
X-176467Y336436I3188J-3188D01*
G01*
Y333815D02*
G03*
X-177736Y330290I4509J-3614D01*
G01*
X-197149Y369354D02*
G03*
X-203884Y362618I-5682J-1054D01*
G01*
X-212661Y366274D02*
G03*
X-206617Y351681I20638J0D01*
G01*
X-233871Y361041D02*
G03*
X-225036Y339713I30162J0D01*
G01*
X-143907Y323532D02*
G03*
X-147082Y322225I0J-4509D01*
G01*
X-143907Y323532D02*
G03*
X-147082Y322225I0J-4509D01*
G01*
X-139899Y303590D02*
G03*
X-130848Y308353I3273J4762D01*
G01*
X-147082Y322225D02*
G03*
X-150738Y312607I632J-5744D01*
G01*
X-145848Y257045D02*
G03*
X-154494Y262061I-5778J0D01*
G01*
X-151626Y251266D02*
G03*
X-145848Y257045I0J5778D01*
G01*
X-154494Y252028D02*
G03*
X-151626Y251266I2868J5016D01*
G01*
X-162363Y253498D02*
G03*
X-158816Y252028I3547J3547D01*
G01*
X-162363Y253498D02*
G03*
X-158816Y252028I3547J3547D01*
G01*
X-167132Y314769D02*
G03*
X-163764Y316164I0J4762D01*
G01*
X-167132Y314769D02*
G03*
X-163764Y316164I0J4762D01*
G01*
X-165217Y312607D02*
G03*
X-165692Y303590I-3839J-4318D01*
G01*
X-166439Y283477D02*
G03*
X-166439Y283477I-6287J0D01*
G01*
X-183925Y330290D02*
G03*
X-186144Y331209I-3273J-4762D01*
G01*
X-208927Y323604D02*
G03*
X-187599Y314769I21328J21328D01*
G01*
X-159163Y264486D02*
G03*
X-166257Y257392I-5575J-1519D01*
G01*
X208425Y863613D02*
X226185Y845853D01*
X197648Y863613D02*
X240903Y820358D01*
X169153Y800417D02*
X221940Y853205D01*
X186871Y863614D02*
X255622Y794863D01*
X191133Y790069D02*
X233773Y832709D01*
X194194Y782353D02*
X237717Y825877D01*
X178515Y799003D02*
X225884Y846373D01*
X185659Y795371D02*
X229829Y839541D01*
X167356Y787844D02*
X168626Y789115D01*
X181292Y782983D02*
X182879Y781396D01*
X215931Y863613D02*
X270679Y768781D01*
X205447Y728949D02*
X261383Y784884D01*
X176095Y863614D02*
X270341Y769368D01*
X200059Y734337D02*
X257439Y791717D01*
X261577Y763526D02*
X269271Y771220D01*
X252823Y758472D02*
X270679Y768781D01*
X210835Y723561D02*
X265327Y778052D01*
X194373Y769901D02*
X299459Y664815D01*
X194373Y750204D02*
X249550Y805381D01*
X194854Y739909D02*
X253494Y798549D01*
X194373Y771757D02*
X241661Y819045D01*
X194373Y760980D02*
X245606Y812213D01*
X183071Y741992D02*
Y779831D01*
X194373Y741992D02*
Y779831D01*
X176159Y777340D02*
X183071Y770428D01*
X115271Y800417D02*
X178468Y863614D01*
X126048Y800417D02*
X189244Y863614D01*
X114813Y863615D02*
X215931Y863613D01*
X111173Y863878D02*
X175156Y799895D01*
X147600Y800417D02*
X210796Y863613D01*
X158377Y800417D02*
X217996Y860037D01*
X136824Y800417D02*
X200020Y863613D01*
X52374Y789115D02*
X169836D01*
X93719Y800417D02*
X156916Y863614D01*
X104495Y800417D02*
X167692Y863614D01*
X52928Y911347D02*
X163857Y800417D01*
X82942D02*
X146139Y863615D01*
X145803Y787844D02*
X147073Y789115D01*
X156580Y787844D02*
X157850Y789115D01*
X52553Y800417D02*
X169836D01*
X142831Y789115D02*
X144101Y787844D01*
X165318Y863614D02*
X264005Y764928D01*
X154542Y863614D02*
X257173Y760984D01*
X143765Y863615D02*
X250983Y756396D01*
X132989Y863615D02*
X260921Y735683D01*
X164403Y778319D02*
X183071Y759652D01*
X157374Y745534D02*
X183071Y771230D01*
X153626Y778319D02*
X183071Y748875D01*
X142850Y778319D02*
X183729Y737440D01*
X153608Y789115D02*
X154878Y787844D01*
X164384Y789115D02*
X165654Y787844D01*
X141589Y751301D02*
X168607Y778319D01*
X149754Y748689D02*
X182788Y781724D01*
X132804Y753292D02*
X157831Y778319D01*
X132074D02*
X176169Y734224D01*
X123283Y754548D02*
X147055Y778319D01*
X121297D02*
X151643Y747974D01*
X278229Y739927D02*
X299778Y718378D01*
X271397Y735983D02*
X314497Y692883D01*
X267204Y733562D02*
X285060Y743871D01*
X263263Y733340D02*
X329215Y667388D01*
X293629Y665321D02*
X295933Y665625D01*
X295933D02*
X298237Y665321D01*
X282327Y676513D02*
X308714Y702900D01*
X288654Y672063D02*
X312658Y696068D01*
X251225Y752477D02*
X261213Y735176D01*
X222568Y692188D02*
X263592Y733212D01*
X222568Y688529D02*
Y698967D01*
X301624Y663481D02*
X320547Y682404D01*
X306004Y657085D02*
X324491Y675572D01*
X292023Y664656D02*
X316602Y689236D01*
X234035Y649773D02*
X300825Y716564D01*
X302228Y663017D02*
X303643Y661173D01*
X309948Y650253D02*
X328435Y668740D01*
X298237Y665321D02*
X300385Y664432D01*
X302228Y663017D01*
X230091Y656605D02*
X296881Y723396D01*
X226146Y663438D02*
X292937Y730228D01*
X222682Y687712D02*
X262623Y647770D01*
X290448Y667168D02*
X291981Y664639D01*
X293629Y665321D01*
X273614Y656964D02*
X274893Y654855D01*
X266734Y650144D02*
X273579Y656988D01*
X216051Y718000D02*
X250991Y752940D01*
X220048Y711220D02*
X254914Y746087D01*
X196618Y737778D02*
X213465Y720931D01*
X198302Y711027D02*
X202843Y715568D01*
X202481Y704430D02*
X207958Y709907D01*
X193696Y717198D02*
X197455Y720956D01*
X188626Y729786D02*
X205473Y712938D01*
X164504Y741887D02*
X183071Y760454D01*
X171179Y737786D02*
X183071Y749677D01*
X188679Y722957D02*
X192067Y726345D01*
X177424Y733254D02*
X183323Y739154D01*
X183255Y728309D02*
X186732Y731786D01*
X222338Y702735D02*
X258859Y739255D01*
X218258Y677102D02*
X284983Y743827D01*
X194373Y759125D02*
X276985Y676513D01*
X194373Y748349D02*
X270656Y672066D01*
X222202Y670269D02*
X288993Y737060D01*
X222568Y698602D02*
X269455Y651715D01*
X219480Y712466D02*
X269334Y662612D01*
X195511Y714882D02*
X211264Y699129D01*
X202608Y704210D02*
X211264Y689215D01*
X210369Y690766D02*
X211264Y691661D01*
Y689215D02*
Y698967D01*
X206425Y697598D02*
X211002Y702175D01*
X132844Y1111615D02*
X135435Y1109024D01*
X129054Y1105161D02*
X135435Y1111541D01*
X121632Y1111615D02*
X135435D01*
X126765Y1106319D02*
X129054D01*
Y1094385D02*
X135435Y1100765D01*
X129054Y1093826D02*
Y1098318D01*
X127364Y1106319D02*
X129054Y1104628D01*
X135435Y1098247D01*
X123537Y1110420D02*
X124732Y1111615D01*
X122067D02*
X122627Y1111055D01*
X129054Y1093826D02*
Y1098318D01*
Y1090319D02*
Y1093826D01*
X126132Y1107550D02*
X127364Y1106319D01*
X129054Y1098318D02*
Y1106319D01*
X135435Y1083593D02*
Y1111615D01*
X129054Y1093851D02*
X135435Y1087471D01*
X131911Y1086464D02*
X135435Y1089989D01*
X127454Y1041570D02*
X135435Y1033590D01*
Y1003996D02*
Y1044643D01*
X122031Y1022703D02*
X135435Y1036107D01*
X129054Y1088028D02*
Y1090319D01*
Y1088028D02*
Y1090319D01*
X120771Y1032219D02*
X129530Y1040979D01*
X117156Y1058091D02*
Y1061825D01*
X116561Y1098318D02*
Y1103308D01*
Y1093826D02*
Y1098318D01*
X113055Y1099075D02*
X116561Y1095568D01*
Y1093826D02*
Y1098318D01*
Y1090319D02*
Y1093826D01*
Y1085826D02*
Y1090319D01*
Y1082318D02*
Y1085826D01*
X104076Y1080183D02*
X116561Y1092668D01*
X113055Y1103311D02*
X116451D01*
X113055Y1099937D02*
X116429Y1103311D01*
X113055Y1093826D02*
Y1103311D01*
X107528Y1093826D02*
X116561Y1084792D01*
Y1085826D02*
Y1090319D01*
Y1077825D02*
Y1082318D01*
X104076Y1093826D02*
X113055D01*
X104076Y1090959D02*
X106943Y1093826D01*
X116561Y1077825D02*
Y1082318D01*
Y1074318D02*
Y1077825D01*
X108988Y1074318D02*
X116561Y1081892D01*
X104076Y1086501D02*
X116561Y1074016D01*
Y1069826D02*
Y1074318D01*
Y1069826D02*
Y1074318D01*
X112459Y1057973D02*
X117039D01*
X114196D02*
X117156Y1060934D01*
X104076Y1074318D02*
X113055D01*
Y1061025D02*
Y1074318D01*
X104076D02*
Y1093826D01*
Y1075724D02*
X105482Y1074318D01*
X113055Y1067608D02*
X116561Y1071115D01*
Y1061825D02*
Y1069826D01*
X113055Y1066746D02*
X116561Y1063239D01*
X112459Y1057973D02*
Y1061025D01*
X122391Y1035857D02*
X135435Y1022813D01*
X122031Y1011927D02*
X135435Y1025331D01*
X121970Y1025501D02*
X135435Y1012037D01*
X122031Y1014665D02*
X135435Y1001261D01*
X122031Y1001151D02*
X135435Y1014555D01*
X135434Y984004D02*
X135435Y1003996D01*
X122031Y1003888D02*
X135435Y990485D01*
X121711Y990054D02*
X135435Y1003778D01*
X122031Y994437D02*
Y1023593D01*
X122003Y993140D02*
X135302Y979841D01*
X120221Y984146D02*
X134105Y970262D01*
X116525Y977065D02*
X131967Y961623D01*
X111451Y971363D02*
X129168Y953646D01*
X106062Y965975D02*
X125850Y946187D01*
X132055Y789115D02*
X133325Y787844D01*
X135027D02*
X136297Y789115D01*
X112843Y754884D02*
X136278Y778319D01*
X110521D02*
X136226Y752614D01*
X121279Y789115D02*
X122549Y787844D01*
X124251D02*
X125521Y789115D01*
X100674Y960587D02*
X122106Y939155D01*
X110502Y789115D02*
X111772Y787844D01*
X113475D02*
X114745Y789115D01*
X102698Y787844D02*
X103968Y789115D01*
X101163Y753980D02*
X125502Y778319D01*
X95286Y955199D02*
X118008Y932477D01*
X89898Y949811D02*
X113584Y926125D01*
X51753Y909321D02*
X135435Y993002D01*
X72166Y800417D02*
X135364Y863615D01*
X51130Y800934D02*
X113830Y863634D01*
X61390Y800417D02*
X124587Y863615D01*
X84510Y944423D02*
X108873Y920059D01*
X79122Y939035D02*
X103897Y914259D01*
X54989Y914902D02*
X113196Y973109D01*
X73734Y933646D02*
X98658Y908722D01*
X68345Y928258D02*
X93628Y902975D01*
X88950Y789115D02*
X90220Y787844D01*
X62957Y922870D02*
X90289Y895538D01*
X57569Y917482D02*
X89694Y885357D01*
X91922Y787844D02*
X93192Y789115D01*
X99726D02*
X100996Y787844D01*
X88968Y778319D02*
X112414Y754874D01*
X87586Y751180D02*
X114726Y778319D01*
X99745D02*
X123538Y754526D01*
X78192Y778319D02*
X102374Y754137D01*
X67416Y778319D02*
X93169Y752566D01*
X70184Y744554D02*
X103950Y778319D01*
X67397Y789115D02*
X68667Y787844D01*
X70369D02*
X71639Y789115D01*
X56621D02*
X57891Y787844D01*
X59593D02*
X60863Y789115D01*
X78173D02*
X79443Y787844D01*
X81146D02*
X82416Y789115D01*
X56639Y778319D02*
X84647Y750312D01*
X341503Y595597D02*
X359989Y614083D01*
X345448Y588765D02*
X363933Y607251D01*
X337559Y602429D02*
X356045Y620915D01*
X337559Y602429D02*
X356045Y620915D01*
X354533Y572424D02*
X354836Y570120D01*
X354533Y567815D02*
X354836Y570120D01*
X349392Y581934D02*
X367878Y600419D01*
X353337Y575102D02*
X371822Y593587D01*
X325726Y622925D02*
X344212Y641411D01*
X329670Y616093D02*
X348157Y634579D01*
X317837Y636589D02*
X336324Y655076D01*
X321782Y629757D02*
X340268Y648243D01*
X353643Y574571D02*
X354533Y572424D01*
X353643Y565668D02*
X354533Y567815D01*
X333615Y609261D02*
X352101Y627747D01*
X323393Y626965D02*
X353643Y574571D01*
X354187Y566982D02*
X415294Y505875D01*
X348862Y561531D02*
X408462Y501931D01*
X333825Y608897D02*
X402809Y539913D01*
X348546Y583400D02*
X417528Y514418D01*
X342030Y557586D02*
X401777Y497840D01*
X336586Y472140D02*
X403376Y538931D01*
X335199Y553642D02*
X408107Y480733D01*
X328367Y549698D02*
X407218Y470846D01*
X352228Y563824D02*
X353643Y565668D01*
X350385Y562410D02*
X352228Y563824D01*
X319104Y634394D02*
X388090Y565408D01*
X320808Y499468D02*
X387599Y566259D01*
X328697Y485804D02*
X395488Y552595D01*
X332641Y478972D02*
X399432Y545763D01*
X324753Y492636D02*
X391543Y559427D01*
X321535Y545753D02*
X400379Y466909D01*
X313893Y643421D02*
X332379Y661908D01*
X241923Y636109D02*
X269130Y663316D01*
X237979Y642941D02*
X304770Y709732D01*
X122212Y863615D02*
X343934Y641893D01*
X316243Y639350D02*
X323393Y626965D01*
X316243Y639350D02*
X323393Y626965D01*
X248181Y639432D02*
X274893Y654855D01*
X303643Y661173D02*
X316243Y639350D01*
X227162Y661679D02*
X248959Y639881D01*
X246337Y638017D02*
X248181Y639432D01*
X217974Y681643D02*
X255791Y643826D01*
X215605Y681696D02*
X243864Y632747D01*
X244922Y636173D02*
X246337Y638017D01*
X244033Y634026D02*
X244922Y636173D01*
X241880Y636184D02*
X244034Y634030D01*
X243864Y632747D02*
X244033Y634026D01*
X304383Y659891D02*
X373371Y590903D01*
X308976Y519964D02*
X375766Y586755D01*
X194352Y780699D02*
X358653Y616398D01*
X285060Y743871D02*
X420669Y508977D01*
X316864Y506300D02*
X383655Y573091D01*
X314703Y541809D02*
X393539Y462972D01*
X312920Y513132D02*
X379711Y579923D01*
X307871Y537864D02*
X386700Y459036D01*
X307083Y537410D02*
X350385Y562410D01*
X305032Y526796D02*
X327339Y549104D01*
X299132Y537016D02*
X300328Y536520D01*
X304936D02*
X307083Y537410D01*
X302632Y536217D02*
X304936Y536520D01*
X301087Y533629D02*
X303834Y536375D01*
X300328Y536520D02*
X302632Y536217D01*
X299132Y537016D02*
X354763Y440654D01*
X410873Y503322D02*
X419153Y511603D01*
X348418Y451644D02*
X415209Y518434D01*
X340530Y465308D02*
X407320Y532099D01*
X344474Y458476D02*
X411265Y525267D01*
X402822Y498674D02*
X420669Y508977D01*
X401208Y492683D02*
X412170Y473696D01*
X390091Y460988D02*
X408740Y479637D01*
X354763Y440654D02*
X412170Y473696D01*
X300755Y534204D02*
X379860Y455099D01*
X315474Y508709D02*
X373021Y451162D01*
X364700Y446373D02*
X404796Y486469D01*
X352363Y444812D02*
X400896Y493346D01*
X330192Y483214D02*
X366181Y447225D01*
X344911Y457719D02*
X359341Y443289D01*
X292269Y305611D02*
X310417Y287463D01*
X281493Y305611D02*
X310417Y276686D01*
X270716Y305611D02*
X310417Y265910D01*
X259940Y305612D02*
X310417Y255134D01*
X303046Y305611D02*
X310417Y298239D01*
X294353Y214382D02*
X310417Y230446D01*
X256795Y287204D02*
X310417Y233581D01*
X256795Y276427D02*
X310417Y222805D01*
X256795Y284587D02*
X277820Y305611D01*
X310417Y214382D02*
Y305611D01*
X256795Y273810D02*
X288596Y305611D01*
X256795Y267993D02*
Y290993D01*
X283577Y214382D02*
X310417Y241222D01*
X305129Y214382D02*
X310417Y219670D01*
X262024Y214382D02*
X310417Y262775D01*
X272800Y214382D02*
X310417Y251999D01*
X255431Y293999D02*
X267044Y305612D01*
X245645Y294989D02*
X256268Y305612D01*
X249163Y305612D02*
X310417Y244357D01*
X251248Y214382D02*
X310417Y273551D01*
X234869Y294989D02*
X245492Y305612D01*
X238386Y305612D02*
X249010Y294989D01*
X227610Y305613D02*
X238233Y294989D01*
X231799D02*
X252799D01*
X231799Y263996D02*
X252799D01*
X171794Y285995D02*
X243407Y214382D01*
X229695D02*
X310417Y295104D01*
X240471Y214382D02*
X310417Y284328D01*
X208143Y214382D02*
X299372Y305611D01*
X218919Y214382D02*
X310148Y305611D01*
X247674Y263996D02*
X297288Y214382D01*
X256328Y266118D02*
X308065Y214382D01*
X71033D02*
X310417D01*
X236897Y263996D02*
X286512Y214382D01*
X173727Y305614D02*
X264960Y214382D01*
X184504Y305614D02*
X275736Y214382D01*
X143485D02*
X234716Y305612D01*
X162950Y305614D02*
X254183Y214382D01*
X186590D02*
X236205Y263996D01*
X197366Y214382D02*
X246981Y263996D01*
X171794Y275218D02*
X232631Y214382D01*
X171794Y285796D02*
X191611Y305613D01*
X206057Y305613D02*
X227802Y283868D01*
X159442Y294997D02*
X170059Y305614D01*
X169724Y294502D02*
X180835Y305614D01*
X216833Y305613D02*
X228805Y293641D01*
X141397Y305615D02*
X152015Y294997D01*
X152174Y305614D02*
X162791Y294997D01*
X130621Y305615D02*
X143300Y292935D01*
X119844Y305615D02*
X142801Y282659D01*
X146797Y294997D02*
X167797D01*
X148666D02*
X159283Y305614D01*
X171794Y275019D02*
X202388Y305613D01*
X195280Y305613D02*
X227802Y273091D01*
X98291Y305616D02*
X189525Y214382D01*
X121932D02*
X213164Y305613D01*
X227802Y267993D02*
Y290993D01*
X165037Y214382D02*
X227802Y277146D01*
X132708Y214382D02*
X223940Y305613D01*
X154261Y214382D02*
X227802Y287923D01*
X142801Y268001D02*
Y291000D01*
X171794Y268001D02*
Y291000D01*
X119844Y305615D02*
X142801Y282658D01*
X109067Y305616D02*
X142801Y271882D01*
X73229Y294994D02*
X83851Y305616D01*
X83860Y294849D02*
X94627Y305616D01*
X62452Y294994D02*
X73075Y305616D01*
X65961Y305617D02*
X76584Y294994D01*
X86792Y287004D02*
X105403Y305616D01*
X61796Y294994D02*
X82795D01*
X55185Y305617D02*
X65808Y294994D01*
X53536Y296854D02*
X62299Y305617D01*
X53717Y296308D02*
X57948Y292077D01*
X54509Y287050D02*
X57799Y290340D01*
X54509Y284740D02*
X57799Y281450D01*
X54509Y276273D02*
X57799Y279564D01*
X76738Y305616D02*
X167973Y214382D01*
X87514Y305616D02*
X178749Y214382D01*
X54509Y222392D02*
X137731Y305615D01*
X54509Y211616D02*
X148507Y305615D01*
X86792Y274010D02*
X146420Y214382D01*
X86792Y284786D02*
X157196Y214382D01*
X78827D02*
X142801Y278356D01*
X67379Y213710D02*
X142801Y289132D01*
X86792Y276228D02*
X116179Y305615D01*
X86792Y267997D02*
Y290997D01*
X54509Y233168D02*
X126955Y305615D01*
X54509Y224828D02*
Y291122D01*
Y273964D02*
X57799Y270674D01*
Y267997D02*
Y290997D01*
X54509Y265497D02*
X57799Y268788D01*
X161455Y264004D02*
X211078Y214382D01*
X89603D02*
X142821Y267599D01*
X161455Y264004D02*
X211078Y214382D01*
X146797Y264004D02*
X167797D01*
X150679D02*
X200301Y214382D01*
X100379D02*
X150002Y264004D01*
X111156Y214382D02*
X160778Y264004D01*
X75248Y264001D02*
X124867Y214382D01*
X85211Y264814D02*
X135644Y214382D01*
X61796Y264001D02*
X82795D01*
X64472D02*
X114091Y214382D01*
X170834Y265402D02*
X221854Y214382D01*
X175814D02*
X228047Y266615D01*
X55772Y126669D02*
X60619Y131515D01*
X54763Y82554D02*
X60619Y88410D01*
X54763Y79737D02*
X60619Y73881D01*
X54763Y122842D02*
X60619Y116986D01*
X54763Y114883D02*
X60619Y120739D01*
X54763Y71778D02*
X60619Y77634D01*
Y45060D02*
Y203895D01*
X54763Y68960D02*
X60619Y63104D01*
X54763Y61001D02*
X60619Y66857D01*
X54763Y47408D02*
X57110Y45060D01*
X54763D02*
X60619D01*
X54763Y58184D02*
X60619Y52328D01*
X54763Y50225D02*
X60619Y56081D01*
X54509Y263188D02*
X103315Y214382D01*
X54509Y252411D02*
X92538Y214382D01*
X54509Y254721D02*
X63788Y264001D01*
X54509Y243945D02*
X74565Y264001D01*
X54509Y220082D02*
X63476Y211115D01*
X54509Y200839D02*
X61290Y207621D01*
X54509Y241635D02*
X81762Y214382D01*
X54509Y230859D02*
X70986Y214381D01*
X54509Y190063D02*
X60619Y196173D01*
X54509Y187754D02*
X60619Y181644D01*
X54509Y209306D02*
X60619Y203196D01*
X54509Y198530D02*
X60619Y192420D01*
X54509Y168510D02*
X60619Y174620D01*
X54509Y166201D02*
X60619Y160091D01*
X54509Y179287D02*
X60619Y185397D01*
X54509Y176977D02*
X60619Y170867D01*
X54509Y146958D02*
X60619Y153068D01*
X54509Y144648D02*
X60619Y138538D01*
X54509Y157734D02*
X60619Y163844D01*
X54509Y155425D02*
X60619Y149315D01*
X54763Y112065D02*
X60619Y106209D01*
X54763Y90513D02*
X60619Y84657D01*
X54509Y136182D02*
X60619Y142292D01*
X54509Y133872D02*
X60619Y127762D01*
X54763Y45060D02*
Y123661D01*
X54509Y130548D02*
Y224828D01*
X54763Y101289D02*
X60619Y95433D01*
X54763Y93330D02*
X60619Y99186D01*
X54763Y104107D02*
X60619Y109963D01*
X45019Y897703D02*
X142305Y800417D01*
X48973Y904525D02*
X153081Y800417D01*
X36889Y883680D02*
X135406Y982196D01*
X22025Y858039D02*
X134071Y970085D01*
X39837Y800417D02*
X105006Y865587D01*
X41064Y890882D02*
X131528Y800417D01*
X33155Y877238D02*
X109976Y800417D01*
X37109Y884060D02*
X120752Y800417D01*
X29061D02*
X98335Y869692D01*
X29200Y870417D02*
X99199Y800417D01*
X18284D02*
X93337Y875470D01*
X25246Y863595D02*
X88423Y800417D01*
X21291Y856773D02*
X77647Y800417D01*
X13382Y843130D02*
X56094Y800417D01*
X17336Y849952D02*
X66870Y800417D01*
X45863Y778319D02*
X76711Y747472D01*
X45814Y787844D02*
X172241D01*
X45814Y778319D02*
X172241D01*
X37043Y776363D02*
X69294Y744112D01*
X30788Y771842D02*
X62353Y740277D01*
X25400Y766454D02*
X55854Y736000D01*
X20012Y761065D02*
X49778Y731299D01*
X45844Y789115D02*
X47115Y787844D01*
X36598Y786402D02*
X39311Y789115D01*
X35068D02*
X37505Y786677D01*
X13516Y789115D02*
X24053Y778577D01*
X48817Y787844D02*
X49499Y788527D01*
X24292Y789115D02*
X30025Y783382D01*
X7161Y832399D02*
X129657Y954895D01*
X-7704Y806758D02*
X117996Y932458D01*
X-17887Y789193D02*
X54989Y914902D01*
X-17887Y785799D02*
X89839Y893525D01*
X9427Y836308D02*
X45318Y800417D01*
X8849Y789115D02*
X47050D01*
X7884Y800793D02*
X90139Y883048D01*
X8849Y800417D02*
X46871D01*
X1518Y822665D02*
X23765Y800417D01*
X5472Y829487D02*
X34541Y800417D01*
X-2437Y815843D02*
X12989Y800417D01*
X-6392Y809022D02*
X2624Y800006D01*
X-10346Y802200D02*
X18665Y773189D01*
X-17887Y775023D02*
X69Y792978D01*
X-17887Y774394D02*
Y789193D01*
X-10007Y750573D02*
X28534Y789115D01*
X-36244Y648902D02*
X93173Y778319D01*
X-49908Y656791D02*
X71621Y778319D01*
X-43076Y652847D02*
X82397Y778319D01*
X-17146Y723908D02*
X31221Y772275D01*
X-56740Y660735D02*
X60844Y778319D01*
X-71992Y667036D02*
X37576Y776604D01*
X-63572Y664680D02*
X50068Y778319D01*
X-14298Y767835D02*
X6352Y788485D01*
X-10694Y760663D02*
X17758Y789115D01*
X-14301Y795378D02*
X13277Y767801D01*
X-17887Y788188D02*
X7889Y762412D01*
X-11300Y743223D02*
X24486Y779010D01*
X-17887Y777412D02*
X2501Y757024D01*
X14624Y755677D02*
X44113Y726188D01*
X9236Y750289D02*
X38853Y720671D01*
X3848Y744901D02*
X34002Y714747D01*
X-1541Y739513D02*
X29567Y708405D01*
X-6929Y734125D02*
X25536Y701660D01*
X-12317Y728736D02*
X21591Y694829D01*
X-29412Y644958D02*
X23138Y697508D01*
X-9969Y752084D02*
Y755280D01*
X-10222Y748194D02*
X-8276Y746248D01*
X-10326Y759074D02*
X-2888Y751636D01*
X-17712Y723356D02*
X17646Y687997D01*
X-23939Y718806D02*
X13702Y681165D01*
X-31743Y715834D02*
X9757Y674333D01*
X-18345Y634472D02*
X-6308Y646510D01*
X-18500Y635647D02*
X-18196Y633343D01*
X-22587Y641006D02*
X8415Y672009D01*
X-19389Y637794D02*
X-18500Y635647D01*
Y631038D02*
X-18196Y633343D01*
X-19389Y628891D02*
X-18500Y631038D01*
X-19698Y628355D02*
X-17854Y626511D01*
X-31989Y607067D02*
X-19389Y628891D01*
X-20804Y639638D02*
X-20003Y638594D01*
X-19389Y637794D01*
X-22648Y641052D02*
X-20804Y639638D01*
X-23643Y621523D02*
X-21799Y619679D01*
X-27912Y614129D02*
X-21030Y621011D01*
X-27587Y614691D02*
X-25744Y612848D01*
X-31532Y607859D02*
X-29688Y606016D01*
X-35476Y601027D02*
X-33633Y599184D01*
X-41759Y715073D02*
X5813Y667502D01*
X-51515Y714054D02*
X1868Y660670D01*
X-57015Y708777D02*
X-2076Y653838D01*
X-62403Y703389D02*
X-6021Y647006D01*
X-65949Y666052D02*
X-22648Y641052D01*
X-39139Y594683D02*
X-31989Y607067D01*
X-67228Y697437D02*
X-9965Y640175D01*
X-71182Y690615D02*
X-13910Y633343D01*
X-48006Y715073D02*
X-38474D01*
X-72862Y687718D02*
X-45507Y715073D01*
X-87726Y662078D02*
X-34463Y715341D01*
X-65673Y700119D02*
X-52639Y713154D01*
X-68096Y666942D02*
X-65949Y666052D01*
X-70400Y667245D02*
X-68096Y666942D01*
X-75137Y683794D02*
X-45712Y654369D01*
X-39421Y594196D02*
X-37577Y592352D01*
X-42633Y588632D02*
X-35753Y595512D01*
X-69389Y542289D02*
X-31989Y607067D01*
X-115321Y457703D02*
X27003Y704202D01*
X-43365Y587364D02*
X-41522Y585521D01*
X-47309Y580532D02*
X-45466Y578689D01*
X-51254Y573700D02*
X-49411Y571857D01*
X-57354Y563135D02*
X-50476Y570013D01*
X-55198Y566868D02*
X-53355Y565025D01*
X-59143Y560036D02*
X-57300Y558194D01*
X-63087Y553204D02*
X-61245Y551362D01*
X-162624Y532881D02*
X-65673Y700119D01*
X-67031Y546372D02*
X-65189Y544530D01*
X-71413Y539977D02*
X-69134Y537698D01*
X-212661Y397051D02*
X-65198Y544514D01*
X-72705Y666942D02*
X-70400Y667245D01*
X-74852Y666052D02*
X-72705Y666942D01*
X-79092Y676972D02*
X-69208Y667088D01*
X-83046Y670150D02*
X-77059Y664163D01*
X-75652Y665438D02*
X-74852Y666052D01*
X-76695Y664638D02*
X-75652Y665438D01*
X-78110Y662794D02*
X-76695Y664638D01*
X-102591Y636437D02*
X-80673Y658354D01*
X-87001Y663329D02*
X-81169Y657496D01*
X-90956Y656507D02*
X-85113Y650665D01*
X-94910Y649685D02*
X-89058Y643833D01*
X-98865Y642864D02*
X-93002Y637001D01*
X-102820Y636042D02*
X-96946Y630169D01*
X-106774Y629220D02*
X-100891Y623337D01*
X-110729Y622399D02*
X-104835Y616505D01*
X-117455Y610797D02*
X-95394Y632857D01*
X-70804Y540445D02*
X-69389Y542289D01*
X-72648Y539030D02*
X-70804Y540445D01*
X-119192Y591638D02*
X-78110Y662794D01*
X-96833Y543845D02*
X-77023Y524035D01*
X-74795Y538141D02*
X-72648Y539030D01*
X-77099Y537837D02*
X-74795Y538141D01*
X-79403D02*
X-77099Y537837D01*
X-81024Y538812D02*
X-73078Y530866D01*
X-114684Y615577D02*
X-108780Y609673D01*
X-118638Y608755D02*
X-112724Y602841D01*
X-119192Y591637D02*
X-108360Y610399D01*
X-119359Y545591D02*
X-112531Y556917D01*
X-95040Y546818D02*
X-81550Y539030D01*
X-79403Y538141D01*
X-102066Y535165D02*
X-95040Y546818D01*
X-100886Y537122D02*
X-80967Y517203D01*
X-122593Y601934D02*
X-116668Y596009D01*
X-126547Y595112D02*
X-120613Y589177D01*
X-132319Y585156D02*
X-110115Y607360D01*
X-128110Y576191D02*
X-119192Y591637D01*
X-130502Y588290D02*
X-124557Y582345D01*
X-124852Y564030D02*
X-112531Y556917D01*
X-147183Y559516D02*
X-124836Y581863D01*
X-138411Y574647D02*
X-115596Y551832D01*
X-129000Y574044D02*
X-128110Y576191D01*
X-129303Y571740D02*
X-129000Y569436D01*
X-134457Y581469D02*
X-128423Y575435D01*
X-129303Y571740D02*
X-129000Y574044D01*
X-127496Y566488D02*
X-126695Y565445D01*
X-124852Y564030D01*
X-129000Y569436D02*
X-128110Y567289D01*
X-127496Y566488D01*
X-150275Y554182D02*
X-92801Y496708D01*
X-161981Y512389D02*
X-115652Y558718D01*
X-154230Y547360D02*
X-96745Y489876D01*
X-158184Y540539D02*
X-100690Y483044D01*
X-162139Y533717D02*
X-104635Y476212D01*
X-208940Y422324D02*
X-88324Y542941D01*
X-212661Y407827D02*
X-81485Y539003D01*
X-142366Y567825D02*
X-119788Y545247D01*
X-142366Y567825D02*
X-119788Y545247D01*
X-162048Y533875D02*
X-128264Y567659D01*
X-162624Y522523D02*
X-122483Y562663D01*
X-146321Y561004D02*
X-123558Y538241D01*
X-157391Y506203D02*
X-123011Y540583D01*
X-162624Y515210D02*
Y532881D01*
X-104485Y529944D02*
X-84912Y510371D01*
X-104485Y529944D02*
X-84912Y510371D01*
X-111491Y526174D02*
X-88856Y503539D01*
X-154948Y487094D02*
X-115576Y526465D01*
X-154864Y494112D02*
X-116449Y455698D01*
X-130281Y447102D02*
X-109367Y468017D01*
X-162624Y523425D02*
X-108579Y469380D01*
X-161437Y511462D02*
X-112524Y462549D01*
X-154915Y497903D02*
X-121840Y530977D01*
X-154864Y489343D02*
Y496475D01*
X-155369Y483842D02*
X-120028Y448500D01*
X-162436Y469356D02*
X-138298Y445218D01*
X-158084Y475781D02*
X-123109Y440805D01*
X-129925Y436845D02*
X-125637Y432557D01*
X-130144Y436463D02*
X-121461Y445146D01*
X-133850Y429994D02*
X-127530Y423674D01*
X-137373Y422741D02*
X-128667Y414034D01*
X-142706Y417297D02*
X-128848Y403439D01*
X-146932Y408899D02*
X-126398Y429432D01*
X-147383Y397671D02*
X-128455Y416599D01*
X-145775Y431919D02*
X-138865Y443978D01*
X-135968Y426299D02*
X-129058Y438359D01*
X-150676Y427175D02*
X-146685Y431165D01*
X-141785Y418284D02*
X-137795Y422275D01*
X-189527Y474894D02*
X-186688Y472056D01*
X-205443Y484084D02*
X-187590Y473776D01*
X-206925Y481516D02*
X-192076Y466667D01*
X-167785Y463928D02*
X-142132Y438276D01*
X-225036Y433708D02*
X-185554Y473190D01*
X-211427Y473719D02*
X-202666Y482480D01*
X-210870Y474684D02*
X-197464Y461279D01*
X-214814Y467853D02*
X-202853Y455891D01*
X-226150Y448220D02*
X-195834Y478536D01*
X-218759Y461021D02*
X-208241Y450503D01*
X-222703Y454189D02*
X-213629Y445115D01*
X-226648Y447357D02*
X-219017Y439727D01*
X-230592Y440526D02*
X-224405Y434338D01*
X-173173Y458540D02*
X-146219Y431587D01*
X-206617Y425096D02*
X-163698Y468015D01*
X-239366Y425330D02*
X-205443Y484084D01*
X-240791Y422802D02*
X-189002Y474591D01*
X-178561Y453152D02*
X-151609Y426200D01*
X-183949Y447764D02*
X-156102Y419916D01*
X-189337Y442376D02*
X-159090Y412128D01*
X-194725Y436987D02*
X-159957Y402219D01*
X-234537Y433694D02*
X-229256Y428413D01*
X-238482Y426862D02*
X-232614Y420994D01*
X-242328Y419932D02*
X-233871Y411475D01*
X-245846Y412674D02*
X-233871Y400699D01*
X-249744Y403073D02*
X-232918Y419899D01*
X49369Y303463D02*
X51523Y305617D01*
X46861Y305617D02*
X310417Y305611D01*
X-80518Y277178D02*
X-69703D01*
X-103382Y290804D02*
X-99697Y294489D01*
X-117894Y351726D02*
X-114582Y355038D01*
X-114136Y308927D02*
X-83715Y278507D01*
X-101156Y272606D02*
Y286004D01*
X-100591Y272042D02*
X-88921Y283713D01*
X-101156Y282254D02*
X-94309Y289101D01*
X-78021Y277178D02*
X-15225Y214382D01*
X-67079Y277012D02*
X-4299Y214232D01*
X-84427Y255877D02*
X-63938Y276366D01*
X-101156Y278760D02*
X-64648Y242253D01*
X-54922Y271050D02*
X-41624Y257752D01*
X-65723Y242253D02*
X-45924Y262052D01*
X-79120Y250408D02*
X-56806Y272722D01*
X-76499Y242253D02*
X-51312Y267440D01*
X-95203Y266654D02*
X-83528Y278329D01*
X-89815Y261266D02*
X-73903Y277178D01*
X-113729Y270002D02*
Y286004D01*
X-101156Y272606D02*
X-79883Y251333D01*
X-111887Y265557D02*
X-88773Y242443D01*
X-119605Y242253D02*
X-104094Y257763D01*
X-147383Y389646D02*
X-116931Y359193D01*
X-212661Y386274D02*
X-79921Y519015D01*
X-212661Y375498D02*
X-94644Y493516D01*
X-139446Y351726D02*
X-121707Y369466D01*
X-128670Y351726D02*
X-118383Y362013D01*
X-168785Y351726D02*
X-112518D01*
X-147436Y378922D02*
X-120241Y351726D01*
X-146547Y410362D02*
X-127725Y391540D01*
X-147383Y400422D02*
X-124551Y377589D01*
X-171519Y351983D02*
X-128230Y395271D01*
X-160999Y351726D02*
X-126714Y386011D01*
X-143907Y323532D02*
X-127307D01*
X-150223Y351726D02*
X-124506Y377443D01*
X-155507Y324422D02*
X-127288D01*
X-130848Y308453D02*
X-112340Y289944D01*
X-120547Y308927D02*
X-26001Y214382D01*
X-153109Y262630D02*
X-110473Y305265D01*
X-158315Y303590D02*
X-96977Y242253D01*
X-146131Y258832D02*
X-105085Y299877D01*
X-130381Y242253D02*
X-109482Y263151D01*
X-168092Y302591D02*
X-107753Y242253D01*
X-161873Y221537D02*
X-113721Y269689D01*
X-130876Y308927D02*
X-114136D01*
X-160100Y266414D02*
X-117587Y308927D01*
X-191271Y314994D02*
X-118530Y242253D01*
X-131396Y305895D02*
X-128364Y308927D01*
X-135805Y302633D02*
X-113729Y280557D01*
X-147539Y303590D02*
X-113724Y269776D01*
X-169766Y224420D02*
X-113729Y280457D01*
X4055Y248983D02*
X10491Y242547D01*
X-6721Y248983D02*
X10491Y231771D01*
X-17498Y248983D02*
X10491Y220994D01*
X-18160Y214382D02*
X10491Y243033D01*
X4363Y204576D02*
X10491Y210704D01*
X4232Y205701D02*
X10491Y199442D01*
X-7384Y214381D02*
X10491Y232257D01*
X812Y211800D02*
X10491Y221480D01*
X-20467Y248983D02*
X4264D01*
X-29752Y250461D02*
X10491Y210218D01*
X-28936Y214382D02*
X5566Y248883D01*
X-50488Y214382D02*
X-15887Y248983D01*
X-39712Y214382D02*
X-5110Y248983D01*
X4381Y183041D02*
X10491Y189151D01*
X4381Y183999D02*
X10491Y177889D01*
X4381Y193818D02*
X10491Y199928D01*
X4381Y194775D02*
X10491Y188665D01*
X4381Y161489D02*
X10491Y167599D01*
X4381Y162446D02*
X10491Y156336D01*
X4381Y172265D02*
X10491Y178375D01*
X4381Y173223D02*
X10491Y167113D01*
Y132758D02*
Y245969D01*
X4381Y128350D02*
Y203774D01*
Y150712D02*
X10491Y156822D01*
X4381Y151670D02*
X10491Y145560D01*
X4381Y139936D02*
X10491Y146046D01*
X7364Y132142D02*
X10491Y135270D01*
X4381Y140894D02*
X10491Y134784D01*
X-60262Y236938D02*
X-40508Y256691D01*
X-60262Y226161D02*
X-34134Y252289D01*
X-78295Y245123D02*
X-75424Y242253D01*
X-60262Y219327D02*
Y242253D01*
X-80082D02*
X-60262D01*
X-137858Y219327D02*
X-60262D01*
X-108828Y242253D02*
X-98706Y252375D01*
X-98052Y242253D02*
X-93317Y246987D01*
X-125687Y214617D02*
X-120977Y219327D01*
X-115144Y214384D02*
X-110201Y219327D01*
X-137858Y242253D02*
X-88574D01*
X-127933Y219327D02*
X-123098Y214492D01*
X-50488Y214382D02*
X-15887Y248983D01*
X-60262Y227090D02*
X-47554Y214382D01*
X-61264Y214383D02*
X-26123Y249523D01*
X-60262Y237866D02*
X-36778Y214382D01*
X-72040Y214383D02*
X-67096Y219327D01*
X-63275D02*
X-58331Y214383D01*
X-74052Y219327D02*
X-69108Y214383D01*
X-117601Y214384D02*
X-5963Y214381D01*
X-104368Y214384D02*
X-99425Y219327D01*
X-95604D02*
X-90661Y214384D01*
X-117157Y219327D02*
X-112214Y214384D01*
X-106381Y219327D02*
X-101437Y214384D01*
X-82816Y214383D02*
X-77872Y219327D01*
X-84828D02*
X-79884Y214383D01*
X-93592Y214384D02*
X-88649Y219327D01*
X-147383Y386894D02*
X-128898Y405380D01*
X-197166Y369441D02*
X-159897Y406710D01*
X-200114Y431599D02*
X-159957Y391442D01*
X-203326Y374057D02*
X-153669Y423714D01*
X-147383Y379730D02*
Y404769D01*
X-180230Y354048D02*
X-158532Y375746D01*
X-159957Y379730D02*
Y404769D01*
X-186425Y358629D02*
X-159957Y385098D01*
X-205502Y426211D02*
X-159957Y380666D01*
X-191813Y364017D02*
X-159957Y395874D01*
X-171228Y351981D02*
X-170320D01*
X-197149Y369354D02*
X-185821Y358025D01*
X-152795Y373505D02*
X-131017Y351726D01*
X-175137Y339633D02*
X-172296Y342474D01*
X-176009Y342837D02*
X-173971Y340799D01*
X-182435Y330290D02*
X-176467Y336259D01*
X-203884Y362618D02*
X-192556Y351290D01*
X-199995Y345059D02*
X-193160Y351894D01*
X-205383Y350448D02*
X-198548Y357282D01*
X-208262Y353538D02*
X-185878Y331153D01*
X-189219Y334283D02*
X-179802Y343700D01*
X-176467Y333815D02*
Y336436D01*
X-194607Y339671D02*
X-187229Y347049D01*
X-206617Y351681D02*
X-186144Y331209D01*
X-212661Y366274D02*
Y410503D01*
X-212622Y411779D02*
X-152570Y351726D01*
X-212661Y390266D02*
X-174664Y352269D01*
X-212661Y401042D02*
X-163346Y351726D01*
X-210167Y356440D02*
X-203972Y362635D01*
X-212661Y379490D02*
X-206181Y373009D01*
X-212607Y364776D02*
X-208588Y368795D01*
X-249006Y405057D02*
X-233871Y389922D01*
Y361041D02*
Y412379D01*
X-254368Y387673D02*
X-233871Y408171D01*
X-256873Y374392D02*
X-233871Y397394D01*
X-251780Y397056D02*
X-233871Y379146D01*
X-254135Y388634D02*
X-233871Y368369D01*
X-258017Y362471D02*
X-233871Y386618D01*
X-256022Y379745D02*
X-233646Y357369D01*
X-210250Y420183D02*
X-141793Y351726D01*
X-212661Y368713D02*
X-176990Y333041D01*
X-257379Y370325D02*
X-175935Y288882D01*
X-225036Y339713D02*
X-208927Y323604D01*
X-257156Y337774D02*
X-134826Y215444D01*
X-258116Y360287D02*
X-178177Y280347D01*
X-258108Y349502D02*
X-170395Y261789D01*
X-256299Y331861D02*
X-233242Y354917D01*
X-258173Y351539D02*
X-233871Y375842D01*
X-257554Y341381D02*
X-233871Y365065D01*
X-252222Y314385D02*
X-225945Y340662D01*
X-249517Y306313D02*
X-220577Y335254D01*
X-254499Y322884D02*
X-230396Y346987D01*
X-136041Y324422D02*
X-135152Y323532D01*
X-135311D02*
X-134422Y324422D01*
X-147447Y322173D02*
X-145199Y324422D01*
X-165692Y303590D02*
X-139899D01*
X-166864Y281203D02*
X-144477Y303590D01*
X-146817Y324422D02*
X-145599Y323203D01*
X-156550Y323378D02*
X-151811Y318639D01*
X-163764Y316164D02*
X-155507Y324422D01*
X-161939Y317990D02*
X-156556Y312607D01*
X-157013D02*
X-152142Y317478D01*
X-166791Y313605D02*
X-165231Y315165D01*
X-165217Y312607D02*
X-150738D01*
X-146272Y259218D02*
X-129306Y242253D01*
X-149501Y251671D02*
X-137858Y240029D01*
X-161283Y252677D02*
X-137858Y229252D01*
Y219327D02*
Y242253D01*
X-135546Y215534D02*
X-131754Y219327D01*
X-153570Y219063D02*
X-137858Y234775D01*
X-144814Y217043D02*
X-137858Y223999D01*
X-156738Y262061D02*
X-154494D01*
X-159163Y264486D02*
X-156738Y262061D01*
X-166257Y257392D02*
X-162363Y253498D01*
X-158816Y252028D02*
X-154494D01*
X-187599Y314769D02*
X-167132D01*
X-180271D02*
X-174754Y309253D01*
X-169494Y314769D02*
X-168786Y314061D01*
X-169802Y289042D02*
X-155253Y303590D01*
X-183925Y330290D02*
X-177736D01*
X-246422Y298632D02*
X-215189Y329865D01*
X-242965Y291313D02*
X-209801Y324477D01*
X-230615Y271334D02*
X-187180Y314769D01*
X-239168Y284334D02*
X-203929Y319573D01*
X-235047Y277678D02*
X-196586Y316139D01*
X-167320Y280266D02*
X-149453Y262399D01*
X-197795Y239496D02*
X-134168Y303123D01*
X-250761Y309826D02*
X-162774Y221839D01*
X-254927Y324768D02*
X-147832Y217673D01*
X-175855Y278025D02*
X-166347Y268517D01*
X-184448Y231291D02*
X-162302Y253437D01*
X-177283Y227680D02*
X-153413Y251550D01*
X-220851Y259545D02*
X-174372Y306024D01*
X-215529Y254092D02*
X-166527Y303093D01*
X-225881Y265291D02*
X-176403Y314769D01*
X-242904Y291193D02*
X-181407Y229695D01*
X-204004Y244064D02*
X-170452Y277616D01*
X-191280Y235235D02*
X-168186Y258329D01*
X-209913Y248930D02*
X-178290Y280553D01*
D24*
X-205560Y326972D02*
G03*
X-187599Y319532I17960J17960D01*
G01*
X-229108Y361041D02*
G03*
X-221668Y343080I25400J0D01*
G01*
X-217424Y366274D02*
G03*
X-209984Y348314I25400J0D01*
G01*
X132456Y1078641D02*
G03*
X129920Y1081912I-14187J-8380D01*
G01*
X133604Y1075869D02*
G03*
X132456Y1078641I-3921J0D01*
G01*
X130048Y1046734D02*
G03*
X133604Y1055319I-8585J8585D01*
G01*
X127762Y1075182D02*
G03*
X125613Y1076072I-2149J-2149D01*
G01*
X129286Y1071503D02*
G03*
X127762Y1075182I-5203J0D01*
G01*
X126592Y1051406D02*
G03*
X129286Y1057910I-6504J6504D01*
G01*
X122699Y1047514D02*
G03*
X120062Y1041146I6367J-6367D01*
G01*
X99820Y1098294D02*
G03*
X99314Y1097070I1229J-1224D01*
G01*
X99822Y1098296D02*
G03*
X99820Y1098294I1226J-1226D01*
G01*
X102661Y1100072D02*
G03*
X100846Y1099320I0J-2567D01*
G01*
X99531Y1108074D02*
G03*
X96774Y1106932I0J-3899D01*
G01*
D02*
G03*
X95250Y1103253I3679J-3679D01*
G01*
Y1053162D02*
G03*
X99514Y1042869I14556J0D01*
G01*
X103250Y1046860D02*
G03*
X107247Y1044135I9198J9198D01*
G01*
X99314Y1056362D02*
G03*
X103250Y1046860I13438J0D01*
G01*
X-189188Y354658D02*
G03*
X-171228Y347218I17960J17960D01*
G01*
X-221668Y430340D02*
G03*
X-229108Y412379I17960J-17960D01*
G01*
X-214991Y429915D02*
G03*
X-222430Y411954I17960J-17960D01*
G01*
X45814Y783082D02*
G03*
X27854Y775642I0J-25400D01*
G01*
X-38474Y719836D02*
G03*
X-20513Y727275I0J25400D01*
G01*
X-48006Y719836D02*
G03*
X-56004Y716523I0J-11311D01*
G01*
X-167386Y515210D02*
G03*
X-164084Y507238I11274J0D01*
G01*
X-159626Y496475D02*
G03*
X-164084Y507238I-15221J0D01*
G01*
X-167066Y471382D02*
G03*
X-159626Y489343I-17960J17960D01*
G01*
X-209984Y428464D02*
G03*
X-217424Y410503I17960J-17960D01*
G01*
X-172178Y472729D02*
G03*
X-164738Y490689I-17960J17960D01*
G01*
Y495704D02*
G03*
X-168148Y503936I-11642J0D01*
G01*
X-172683Y514884D02*
G03*
X-168148Y503936I15482J0D01*
G01*
X-49055Y725170D02*
G03*
X-60706Y720344I0J-16477D01*
G01*
X-36154Y725170D02*
G03*
X-27569Y728726I0J12141D01*
G01*
X-22171Y734124D02*
G03*
X-14732Y752084I-17960J17960D01*
G01*
Y755280D02*
G03*
X-19304Y766318I-15610J0D01*
G01*
X-22649Y774394D02*
G03*
X-19304Y766318I11421J0D01*
G01*
X-46969Y730039D02*
G03*
X-64930Y722600I0J-25400D01*
G01*
X-177542Y515052D02*
G03*
X-171309Y500004I21282J0D01*
G01*
X-169277Y495098D02*
G03*
X-171309Y500004I-6938J0D01*
G01*
X-176716Y475292D02*
G03*
X-169277Y493253I-17960J17960D01*
G01*
X-38304Y730039D02*
G03*
X-29210Y733806I0J12860D01*
G01*
X-26744Y736273D02*
G03*
X-19304Y754233I-17960J17960D01*
G01*
Y756078D02*
G03*
X-21336Y760984I-6938J0D01*
G01*
X-27569Y776032D02*
G03*
X-21336Y760984I21282J0D01*
G01*
X109829Y976477D02*
G03*
X117268Y994437I-17960J17960D01*
G01*
Y1023593D02*
G03*
X109829Y1041553I-25400J0D01*
G01*
X104700Y978206D02*
G03*
X112140Y996167I-17960J17960D01*
G01*
Y1025652D02*
G03*
X108894Y1033489I-11084J0D01*
G01*
X102387Y1039996D02*
G03*
X102391Y1039992I11023J11023D01*
G01*
X121284Y1106072D02*
G03*
X116451Y1108074I-4833J-4833D01*
G01*
X122808Y1102393D02*
G03*
X121284Y1106072I-5203J0D01*
G01*
X129920Y1081912D02*
G03*
X124705Y1084072I-5215J-5215D01*
G01*
X-165608Y328422D02*
X-161036Y332994D01*
X-165608Y328306D02*
Y328422D01*
X-168387Y325527D02*
X-165608Y328306D01*
X-187198Y325527D02*
X-168387D01*
X-167132Y319532D02*
X-157480Y329184D01*
X-187599Y319532D02*
X-167132D01*
X-221668Y343080D02*
X-205560Y326972D01*
X-229108Y361041D02*
Y412379D01*
X-217424Y366274D02*
Y410503D01*
X-209984Y348314D02*
X-187198Y325527D01*
X-157480Y329184D02*
X-113792D01*
X-161036Y332994D02*
X-112776D01*
X292569Y612200D02*
X298239Y635327D01*
X279654Y665988D02*
X298239Y635327D01*
X133604Y1055319D02*
Y1075869D01*
X122808Y1076072D02*
X125613D01*
X129286Y1057910D02*
Y1071503D01*
X122699Y1047514D02*
X126592Y1051406D01*
X102661Y1100072D02*
X106808D01*
X99314Y1056362D02*
Y1097070D01*
X99822Y1098296D02*
X100846Y1099320D01*
X99820Y1098294D02*
X99822Y1098296D01*
X99531Y1108074D02*
X116451D01*
X95250Y1053162D02*
Y1103253D01*
X99514Y1042869D02*
X102387Y1039996D01*
X45814Y783082D02*
X175514D01*
X-202831Y368300D02*
X-189188Y354658D01*
X-222430Y387604D02*
Y411954D01*
X-171228Y347218D02*
X-170320D01*
X-221668Y430340D02*
X-176716Y475292D01*
X-214991Y429915D02*
X-172178Y472729D01*
X-20513Y727275D02*
X27854Y775642D01*
X-48006Y719836D02*
X-38474D01*
X-69481Y703046D02*
X-56004Y716523D01*
X-167386Y534162D02*
X-69481Y703046D01*
X-167386Y515210D02*
Y534162D01*
X-209984Y428464D02*
X-167066Y471382D01*
X-159626Y489343D02*
Y496475D01*
X-164738Y490689D02*
Y495704D01*
X-172683Y514884D02*
Y533376D01*
X-72379Y706397D01*
X-60706Y720344D02*
X-60706Y720344D01*
X-72379Y706397D02*
X-60706Y720344D01*
X-49055Y725170D02*
X-36154D01*
X-27569Y728726D02*
X-22171Y734124D01*
X-14732Y752084D02*
Y755280D01*
X-22649Y774394D02*
Y790473D01*
X-64930Y722600D02*
X-64930Y722600D01*
X-75896Y708992D02*
X-64930Y722600D01*
X-177542Y533654D02*
X-75896Y708992D01*
X-177542Y515052D02*
Y533654D01*
X-22649Y790473D02*
X51181Y917829D01*
X-169277Y493253D02*
Y495098D01*
X-46969Y730039D02*
X-38304D01*
X-29210Y733806D02*
X-26744Y736273D01*
X-19304Y754233D02*
Y756078D01*
X-27569Y776032D02*
Y791330D01*
X47752Y921258D02*
X104700Y978206D01*
X-27569Y791330D02*
X47752Y921258D01*
X51181Y917829D02*
X109829Y976477D01*
X117268Y994437D02*
Y1023593D01*
X107247Y1044135D02*
X109829Y1041553D01*
X107188Y1044194D02*
X107247Y1044135D01*
X112140Y996167D02*
Y1025652D01*
X102391Y1039992D02*
X108894Y1033489D01*
X102387Y1039996D02*
X102391Y1039992D01*
X5000Y20000D02*
Y122174D01*
X50000Y20000D02*
Y126934D01*
X45000Y20000D02*
Y121920D01*
X40000Y20000D02*
Y126934D01*
X35000Y20000D02*
Y121920D01*
X30000Y20000D02*
Y126934D01*
X25000Y20000D02*
Y121920D01*
X15000Y20000D02*
Y121920D01*
X60000Y20000D02*
Y126934D01*
X55000Y20000D02*
Y121920D01*
X10000Y20000D02*
Y127000D01*
X50000Y20000D02*
X50000Y20000D01*
X20000D02*
Y126934D01*
X122808Y1100072D02*
Y1102393D01*
Y1084072D02*
X124705D01*
X-136880Y308099D02*
X-136626Y308353D01*
D25*
X216916Y698967D02*
G03*
X209477Y716927I-25400J0D01*
G01*
X188722Y741992D02*
G03*
X191770Y734634I10407J0D01*
G01*
X188722Y779831D02*
G03*
X185166Y788416I-12141J0D01*
G01*
D02*
G03*
X169836Y794766I-15330J-15330D01*
G01*
X-99314Y282194D02*
Y292862D01*
Y282194D02*
X-78740Y261620D01*
X-62230D01*
X-62484Y251968D02*
Y261297D01*
X-62230Y261551D01*
Y261620D01*
X-62484Y251968D02*
X-55880Y245364D01*
Y223774D02*
Y245364D01*
X-62230Y217424D02*
X-55880Y223774D01*
X216916Y687324D02*
Y698967D01*
X191770Y734634D02*
X209477Y716927D01*
X188722Y741992D02*
Y779831D01*
X6096Y794766D02*
X169836D01*
X-142240Y426720D02*
X-133362Y442214D01*
X122808Y1055750D02*
Y1067272D01*
X119380Y1052322D02*
X122808Y1055750D01*
X109728Y1052322D02*
X119380D01*
X107614Y1054436D02*
X109728Y1052322D01*
X106808Y1054436D02*
X107614D01*
X106808D02*
Y1067672D01*
D26*
X-146230Y422729D02*
G03*
X-153670Y404769I17960J-17960D01*
G01*
X-107442Y270002D02*
Y286004D01*
Y270002D02*
X-84328Y246888D01*
X-146230Y422729D02*
X-142240Y426720D01*
X-153670Y379730D02*
Y404769D01*
D27*
X292569Y612200D02*
D03*
D28*
X-80161Y591087D02*
D03*
D29*
X-118538Y249130D02*
Y274590D01*
X-128726Y284778D02*
X-118538Y274590D01*
X-128726Y284778D02*
Y293004D01*
X-99314Y292862D01*
D30*
X-99060Y230790D02*
D03*
D31*
X-171958Y330200D02*
D03*
X-187198Y325527D02*
D03*
X-99060Y286258D02*
D03*
X-121537Y323850D02*
D03*
X-133362Y442214D02*
D03*
X279654Y665988D02*
D03*
X130048Y1046734D02*
D03*
X120062Y1041146D02*
D03*
X99822Y1098550D02*
D03*
X132456Y1078641D02*
D03*
X205006Y795020D02*
D03*
X216916Y687324D02*
D03*
X258318Y718086D02*
D03*
X191770Y734634D02*
D03*
X207732Y708914D02*
D03*
X-142240Y426720D02*
D03*
X-182118Y396240D02*
D03*
X-134643Y410881D02*
D03*
X-146626Y491744D02*
D03*
X-139700Y447294D02*
D03*
X-112776Y536956D02*
D03*
X-163830Y439674D02*
D03*
X175514Y783082D02*
D03*
X-222758Y387604D02*
D03*
X-202831Y368300D02*
D03*
X-160274Y338074D02*
D03*
X-141626Y313436D02*
D03*
X-99314Y292862D02*
D03*
X-62230Y261620D02*
D03*
X55000Y121920D02*
D03*
X60000Y126934D02*
D03*
X45000Y121920D02*
D03*
X50000Y126934D02*
D03*
X35000Y121920D02*
D03*
X40000Y126934D02*
D03*
X25000Y121920D02*
D03*
X30000Y126934D02*
D03*
X20000D02*
D03*
X15000Y121920D02*
D03*
X10000Y127000D02*
D03*
X5000Y122174D02*
D03*
X130556Y1089532D02*
D03*
X-193797Y309582D02*
D03*
X-169056Y308289D02*
D03*
X-151626Y257045D02*
D03*
X-136626Y308353D02*
D03*
X-146450Y316481D02*
D03*
X-164738Y262967D02*
D03*
X-200072Y277832D02*
D03*
D32*
X192786Y224536D02*
D03*
X327914Y518160D02*
D03*
X381508Y546354D02*
D03*
X199898Y749300D02*
D03*
X-10922Y664718D02*
D03*
X-45466Y688594D02*
D03*
X-145034Y556514D02*
D03*
X-97536Y512219D02*
D03*
X-199136Y415989D02*
D03*
X-107442Y286004D02*
D03*
X-62230Y217424D02*
D03*
X77978Y225806D02*
D03*
X132080Y1038098D02*
D03*
X49712Y794809D02*
D03*
X6096Y794766D02*
D03*
X-153670Y379730D02*
D03*
X-84328Y246888D02*
D03*
X-67310Y234950D02*
D03*
X-74168Y227076D02*
D03*
X-122174Y233426D02*
D03*
X-129794Y227076D02*
D03*
X106808Y1054436D02*
D03*
X115950Y1059434D02*
D03*
X-172725Y283477D02*
D03*
X-128726Y293004D02*
D03*
X-139126Y282604D02*
D03*
X-149526Y293004D02*
D03*
Y272204D02*
D03*
X-128726D02*
D03*
X-118538Y249130D02*
D03*
M02*
