G04*
G04 #@! TF.GenerationSoftware,Altium Limited,Altium Designer,19.0.12 (326)*
G04*
G04 Layer_Color=32896*
%FSLAX44Y44*%
%MOMM*%
G71*
G01*
G75*
%ADD10C,0.2500*%
%ADD12C,0.2540*%
%ADD13C,0.1270*%
%ADD14C,0.0500*%
%ADD15C,0.0500*%
%ADD94C,0.0999*%
%ADD95C,0.2000*%
%ADD96C,0.1981*%
%ADD97C,0.1778*%
D10*
X-151634Y389256D02*
G03*
X-151634Y389256I-1250J0D01*
G01*
X-146868Y471525D02*
G03*
X-146868Y471525I-1250J0D01*
G01*
X197728Y764462D02*
G03*
X197728Y764462I-1250J0D01*
G01*
X242533Y729422D02*
G03*
X242533Y729422I-1250J0D01*
G01*
X-165816Y269904D02*
G03*
X-165816Y269904I-1250J0D01*
G01*
D12*
X-203884Y339911D02*
X-196266D01*
Y343720D01*
X-197536Y344990D01*
X-200075D01*
X-201345Y343720D01*
Y339911D01*
Y342450D02*
X-203884Y344990D01*
Y347529D02*
Y350068D01*
Y348798D01*
X-196266D01*
X-197536Y347529D01*
X-196266Y358955D02*
Y353877D01*
X-200075D01*
X-198806Y356416D01*
Y357686D01*
X-200075Y358955D01*
X-202614D01*
X-203884Y357686D01*
Y355146D01*
X-202614Y353877D01*
X-216886Y339657D02*
X-209268D01*
Y343466D01*
X-210538Y344736D01*
X-213077D01*
X-214347Y343466D01*
Y339657D01*
Y342196D02*
X-216886Y344736D01*
Y347275D02*
Y349814D01*
Y348544D01*
X-209268D01*
X-210538Y347275D01*
X-216886Y357431D02*
X-209268D01*
X-213077Y353623D01*
Y358701D01*
X-149091Y507618D02*
X-143594Y504444D01*
X-143129Y502710D01*
X-144398Y500510D01*
X-146133Y500046D01*
X-151630Y503220D01*
X-148842Y492814D02*
X-146303Y497212D01*
X-153240Y495353D01*
X-154339Y495988D01*
X-154804Y497722D01*
X-153534Y499921D01*
X-151800Y500386D01*
X-173928Y441390D02*
X-167331Y437582D01*
X-165427Y440880D01*
X-165892Y442615D01*
X-168091Y443884D01*
X-169825Y443419D01*
X-171729Y440121D01*
X-170460Y442320D02*
X-171389Y445788D01*
X-170120Y447988D02*
X-168850Y450187D01*
X-169485Y449087D01*
X-162888Y445278D01*
X-164622Y444813D01*
X-164407Y457883D02*
X-166946Y453485D01*
X-160009Y455344D01*
X-158909Y454709D01*
X-158444Y452975D01*
X-159714Y450776D01*
X-161448Y450311D01*
X-138626Y387604D02*
X-132029Y383795D01*
X-130125Y387094D01*
X-130590Y388828D01*
X-132789Y390098D01*
X-134523Y389633D01*
X-136427Y386334D01*
X-135158Y388533D02*
X-136087Y392002D01*
X-133718Y393566D02*
X-134183Y395300D01*
X-132913Y397500D01*
X-131179Y397964D01*
X-126781Y395425D01*
X-126316Y393691D01*
X-127586Y391492D01*
X-129320Y391027D01*
X-130420Y391662D01*
X-130884Y393396D01*
X-128980Y396695D01*
X-140800Y424434D02*
X-134203Y420625D01*
X-132299Y423924D01*
X-132763Y425658D01*
X-134962Y426928D01*
X-136697Y426463D01*
X-138601Y423164D01*
X-137331Y425363D02*
X-138261Y428832D01*
X-131494Y427857D02*
X-129760Y428322D01*
X-128490Y430521D01*
X-128955Y432255D01*
X-130054Y432890D01*
X-131788Y432425D01*
X-132253Y434159D01*
X-133353Y434794D01*
X-135087Y434329D01*
X-136356Y432131D01*
X-135892Y430396D01*
X-134792Y429761D01*
X-133058Y430226D01*
X-132593Y428492D01*
X-131494Y427857D01*
X-133058Y430226D02*
X-131788Y432425D01*
X227076Y740156D02*
X223267Y746753D01*
X219969Y744849D01*
X219504Y743114D01*
X220774Y740915D01*
X222508Y740451D01*
X225806Y742355D01*
X223607Y741085D02*
X222678Y737617D01*
X217305Y741845D02*
X215571Y742309D01*
X213372Y741040D01*
X212907Y739305D01*
X213542Y738206D01*
X215276Y737741D01*
X216376Y738376D01*
X215276Y737741D01*
X214811Y736007D01*
X215446Y734908D01*
X217181Y734443D01*
X219380Y735712D01*
X219844Y737447D01*
X-168863Y381083D02*
X-166324Y385481D01*
X-164590Y385945D01*
X-162391Y384676D01*
X-161926Y382942D01*
X-164465Y378544D01*
X-166199Y378079D01*
X-168398Y379348D01*
X-166029Y380913D02*
X-169498Y379983D01*
X-168398Y379348D02*
X-168863Y381083D01*
X-176095Y383792D02*
X-171697Y381253D01*
X-173556Y388190D01*
X-172921Y389289D01*
X-171187Y389754D01*
X-168988Y388484D01*
X-168523Y386750D01*
X188900Y757258D02*
X186360Y761656D01*
X186825Y763391D01*
X189024Y764660D01*
X190758Y764195D01*
X193298Y759798D01*
X192833Y758063D01*
X190634Y756794D01*
X190464Y759627D02*
X189534Y756159D01*
X190634Y756794D02*
X188900Y757258D01*
X187335Y754889D02*
X185137Y753620D01*
X186236Y754254D01*
X182427Y760851D01*
X184161Y760387D01*
X22606Y262633D02*
Y255016D01*
X17528D01*
X9910D02*
X14988D01*
X9910Y260094D01*
Y261364D01*
X11180Y262633D01*
X13719D01*
X14988Y261364D01*
X2540Y249933D02*
Y242316D01*
X-2538D01*
X-5077D02*
X-7617D01*
X-6347D01*
Y249933D01*
X-5077Y248664D01*
X-121818Y340358D02*
X-126896D01*
X-124357D01*
Y332740D01*
X-129436D02*
Y340358D01*
X-133244D01*
X-134514Y339088D01*
Y336549D01*
X-133244Y335279D01*
X-129436D01*
X-137053Y332740D02*
X-139592D01*
X-138323D01*
Y340358D01*
X-137053Y339088D01*
X70866Y231646D02*
X65788D01*
X68327D01*
Y224028D01*
X63249D02*
Y231646D01*
X59440D01*
X58170Y230376D01*
Y227837D01*
X59440Y226567D01*
X63249D01*
X55631Y224028D02*
X53092D01*
X54361D01*
Y231646D01*
X55631Y230376D01*
X49283D02*
X48013Y231646D01*
X45474D01*
X44205Y230376D01*
Y229106D01*
X45474Y227837D01*
X46744D01*
X45474D01*
X44205Y226567D01*
Y225298D01*
X45474Y224028D01*
X48013D01*
X49283Y225298D01*
X-100332Y254762D02*
Y259840D01*
Y257301D01*
X-107950D01*
Y262379D02*
X-100332D01*
Y266188D01*
X-101602Y267458D01*
X-104141D01*
X-105411Y266188D01*
Y262379D01*
X-107950Y269997D02*
Y272536D01*
Y271267D01*
X-100332D01*
X-101602Y269997D01*
X-107950Y276345D02*
Y278884D01*
Y277615D01*
X-100332D01*
X-101602Y276345D01*
X71374Y249172D02*
X66296D01*
X68835D01*
Y241554D01*
X63756D02*
Y249172D01*
X59948D01*
X58678Y247902D01*
Y245363D01*
X59948Y244093D01*
X63756D01*
X56139Y241554D02*
X53600D01*
X54869D01*
Y249172D01*
X56139Y247902D01*
X49791D02*
X48521Y249172D01*
X45982D01*
X44713Y247902D01*
Y242824D01*
X45982Y241554D01*
X48521D01*
X49791Y242824D01*
Y247902D01*
X-146731Y372108D02*
X-151809D01*
X-149270D01*
Y364490D01*
X-154348D02*
Y372108D01*
X-158157D01*
X-159426Y370838D01*
Y368299D01*
X-158157Y367029D01*
X-154348D01*
X-161966Y370838D02*
X-163235Y372108D01*
X-165774D01*
X-167044Y370838D01*
Y369568D01*
X-165774Y368299D01*
X-164505D01*
X-165774D01*
X-167044Y367029D01*
Y365760D01*
X-165774Y364490D01*
X-163235D01*
X-161966Y365760D01*
X-145551Y339744D02*
X-150629D01*
X-148090D01*
Y332126D01*
X-153168D02*
Y339744D01*
X-156977D01*
X-158247Y338474D01*
Y335935D01*
X-156977Y334665D01*
X-153168D01*
X-165864Y332126D02*
X-160786D01*
X-165864Y337205D01*
Y338474D01*
X-164594Y339744D01*
X-162055D01*
X-160786Y338474D01*
X-146004Y463158D02*
X-144270Y463623D01*
X-142071Y462353D01*
X-141606Y460619D01*
X-144145Y456221D01*
X-145879Y455756D01*
X-148078Y457026D01*
X-148543Y458760D01*
X-154676Y460835D02*
X-150867Y467432D01*
X-149473Y462229D01*
X-153871Y464768D01*
X226986Y681434D02*
X228721Y680969D01*
X229990Y678770D01*
X229526Y677036D01*
X225128Y674497D01*
X223393Y674961D01*
X222124Y677160D01*
X222588Y678895D01*
X217680Y684857D02*
X220219Y680459D01*
X222078Y687396D01*
X223178Y688031D01*
X224912Y687566D01*
X226181Y685367D01*
X225717Y683633D01*
X-149860Y316735D02*
Y310388D01*
X-151130Y309118D01*
X-153669D01*
X-154938Y310388D01*
Y316735D01*
X-157478Y315466D02*
X-158747Y316735D01*
X-161286D01*
X-162556Y315466D01*
Y314196D01*
X-161286Y312927D01*
X-160017D01*
X-161286D01*
X-162556Y311657D01*
Y310388D01*
X-161286Y309118D01*
X-158747D01*
X-157478Y310388D01*
X272035Y715511D02*
X275209Y710014D01*
X274744Y708279D01*
X272546Y707010D01*
X270811Y707474D01*
X267637Y712972D01*
X269247Y705105D02*
X267048Y703836D01*
X268148Y704470D01*
X264339Y711067D01*
X266073Y710603D01*
X-196326Y304546D02*
Y312164D01*
X-200135D01*
X-201405Y310894D01*
Y308355D01*
X-200135Y307085D01*
X-196326D01*
X-198865D02*
X-201405Y304546D01*
X-203944D02*
X-206483D01*
X-205213D01*
Y312164D01*
X-203944Y310894D01*
X-210292Y304546D02*
X-212831D01*
X-211561D01*
Y312164D01*
X-210292Y310894D01*
X-194964Y292923D02*
Y300540D01*
X-198773D01*
X-200042Y299271D01*
Y296732D01*
X-198773Y295462D01*
X-194964D01*
X-197503D02*
X-200042Y292923D01*
X-202582D02*
X-205121D01*
X-203851D01*
Y300540D01*
X-202582Y299271D01*
X-208930D02*
X-210199Y300540D01*
X-212738D01*
X-214008Y299271D01*
Y294193D01*
X-212738Y292923D01*
X-210199D01*
X-208930Y294193D01*
Y299271D01*
X-132588Y520954D02*
X-128779Y527551D01*
X-132078Y529455D01*
X-133812Y528991D01*
X-135082Y526792D01*
X-134617Y525057D01*
X-131318Y523153D01*
X-133517Y524423D02*
X-136986Y523493D01*
X-135376Y531360D02*
X-139774Y533899D01*
X-140409Y532799D01*
X-138550Y525862D01*
X-139185Y524763D01*
X-187071Y405912D02*
X-183262Y412509D01*
X-186561Y414413D01*
X-188295Y413949D01*
X-189565Y411750D01*
X-189100Y410015D01*
X-185801Y408111D01*
X-188000Y409380D02*
X-191469Y408451D01*
X-194257Y418857D02*
X-192693Y416488D01*
X-191764Y413019D01*
X-193033Y410820D01*
X-194767Y410355D01*
X-196966Y411625D01*
X-197431Y413359D01*
X-196796Y414459D01*
X-195062Y414924D01*
X-191764Y413019D01*
X233426Y729468D02*
X229617Y736065D01*
X226319Y734161D01*
X225854Y732426D01*
X227124Y730227D01*
X228858Y729763D01*
X232156Y731667D01*
X229957Y730397D02*
X229028Y726929D01*
X218622Y729717D02*
X223020Y732256D01*
X224925Y728958D01*
X222091Y728788D01*
X220991Y728153D01*
X220527Y726419D01*
X221796Y724220D01*
X223531Y723755D01*
X225730Y725024D01*
X226194Y726759D01*
X193266Y774446D02*
X189457Y781043D01*
X186159Y779139D01*
X185694Y777404D01*
X186964Y775205D01*
X188698Y774741D01*
X191996Y776645D01*
X189797Y775375D02*
X188868Y771907D01*
X183370Y768733D02*
X179562Y775330D01*
X184765Y773936D01*
X180367Y771397D01*
X251460Y740652D02*
X258057Y744461D01*
X256153Y747759D01*
X254418Y748224D01*
X252219Y746954D01*
X251755Y745220D01*
X253659Y741921D01*
X252389Y744120D02*
X248921Y745050D01*
X245112Y751647D02*
X247651Y747249D01*
X249510Y754186D01*
X250609Y754821D01*
X252344Y754356D01*
X253613Y752157D01*
X253149Y750423D01*
X261366Y664972D02*
X267963Y668781D01*
X266059Y672079D01*
X264324Y672544D01*
X262125Y671274D01*
X261661Y669540D01*
X263565Y666242D01*
X262295Y668441D02*
X258827Y669370D01*
X257557Y671569D02*
X256288Y673768D01*
X256922Y672669D01*
X263519Y676477D01*
X263055Y674743D01*
X315386Y559797D02*
X311577Y566394D01*
X314876Y568299D01*
X316610Y567834D01*
X319149Y563436D01*
X318685Y561702D01*
X315386Y559797D01*
X326381Y566145D02*
X323547Y565975D01*
X320079Y566905D01*
X318809Y569104D01*
X319274Y570838D01*
X321473Y572108D01*
X323207Y571643D01*
X323842Y570543D01*
X323377Y568809D01*
X320079Y566905D01*
X-95556Y565355D02*
X-91747Y571952D01*
X-88449Y570047D01*
X-87984Y568313D01*
X-90523Y563915D01*
X-92258Y563450D01*
X-95556Y565355D01*
X-84561Y559007D02*
X-88959Y561546D01*
X-87055Y564845D01*
X-85491Y562475D01*
X-84391Y561841D01*
X-82657Y562305D01*
X-81387Y564504D01*
X-81852Y566239D01*
X-84051Y567508D01*
X-85785Y567043D01*
X-9498Y302883D02*
Y295266D01*
X-13306D01*
X-14576Y296535D01*
Y301614D01*
X-13306Y302883D01*
X-9498D01*
X-20924Y295266D02*
Y302883D01*
X-17115Y299074D01*
X-22194D01*
X87295Y303141D02*
Y295523D01*
X83486D01*
X82217Y296793D01*
Y301871D01*
X83486Y303141D01*
X87295D01*
X79678Y301871D02*
X78408Y303141D01*
X75869D01*
X74599Y301871D01*
Y300602D01*
X75869Y299332D01*
X77138D01*
X75869D01*
X74599Y298063D01*
Y296793D01*
X75869Y295523D01*
X78408D01*
X79678Y296793D01*
X188764Y302311D02*
Y294694D01*
X184955D01*
X183686Y295963D01*
Y301042D01*
X184955Y302311D01*
X188764D01*
X176068Y294694D02*
X181146D01*
X176068Y299772D01*
Y301042D01*
X177338Y302311D01*
X179877D01*
X181146Y301042D01*
X273774Y302309D02*
Y294691D01*
X269965D01*
X268696Y295961D01*
Y301039D01*
X269965Y302309D01*
X273774D01*
X266156Y294691D02*
X263617D01*
X264887D01*
Y302309D01*
X266156Y301039D01*
X-121838Y239774D02*
X-120569Y241043D01*
X-118030D01*
X-116760Y239774D01*
Y234696D01*
X-118030Y233426D01*
X-120569D01*
X-121838Y234696D01*
X-124378Y233426D02*
X-126917D01*
X-125647D01*
Y241043D01*
X-124378Y239774D01*
X-130725D02*
X-131995Y241043D01*
X-134534D01*
X-135804Y239774D01*
Y238504D01*
X-134534Y237235D01*
X-135804Y235965D01*
Y234696D01*
X-134534Y233426D01*
X-131995D01*
X-130725Y234696D01*
Y235965D01*
X-131995Y237235D01*
X-130725Y238504D01*
Y239774D01*
X-131995Y237235D02*
X-134534D01*
X-208718Y285534D02*
X-207449Y286803D01*
X-204910D01*
X-203640Y285534D01*
Y280455D01*
X-204910Y279186D01*
X-207449D01*
X-208718Y280455D01*
X-211258Y279186D02*
X-213797D01*
X-212527D01*
Y286803D01*
X-211258Y285534D01*
X-217605Y286803D02*
X-222684D01*
Y285534D01*
X-217605Y280455D01*
Y279186D01*
X-185596Y260558D02*
X-184326Y259289D01*
Y256750D01*
X-185596Y255480D01*
X-190674D01*
X-191944Y256750D01*
Y259289D01*
X-190674Y260558D01*
X-191944Y263097D02*
Y265637D01*
Y264367D01*
X-184326D01*
X-185596Y263097D01*
X-184326Y274524D02*
X-185596Y271985D01*
X-188135Y269445D01*
X-190674D01*
X-191944Y270715D01*
Y273254D01*
X-190674Y274524D01*
X-189405D01*
X-188135Y273254D01*
Y269445D01*
X-174642Y251245D02*
X-173373Y252514D01*
X-170834D01*
X-169564Y251245D01*
Y246166D01*
X-170834Y244897D01*
X-173373D01*
X-174642Y246166D01*
X-177182Y244897D02*
X-179721D01*
X-178451D01*
Y252514D01*
X-177182Y251245D01*
X-188608Y252514D02*
X-183529D01*
Y248706D01*
X-186069Y249975D01*
X-187338D01*
X-188608Y248706D01*
Y246166D01*
X-187338Y244897D01*
X-184799D01*
X-183529Y246166D01*
X-82298Y248317D02*
X-81028Y247047D01*
Y244508D01*
X-82298Y243238D01*
X-87376D01*
X-88646Y244508D01*
Y247047D01*
X-87376Y248317D01*
X-88646Y250856D02*
Y253395D01*
Y252125D01*
X-81028D01*
X-82298Y250856D01*
X-88646Y262282D02*
Y257204D01*
X-83568Y262282D01*
X-82298D01*
X-81028Y261012D01*
Y258473D01*
X-82298Y257204D01*
X-52834Y272879D02*
X-51564Y271609D01*
Y269070D01*
X-52834Y267800D01*
X-57912D01*
X-59182Y269070D01*
Y271609D01*
X-57912Y272879D01*
X-59182Y275418D02*
Y277957D01*
Y276687D01*
X-51564D01*
X-52834Y275418D01*
X-59182Y281766D02*
Y284305D01*
Y283035D01*
X-51564D01*
X-52834Y281766D01*
X-65788Y218184D02*
X-64518Y216915D01*
Y214376D01*
X-65788Y213106D01*
X-70866D01*
X-72136Y214376D01*
Y216915D01*
X-70866Y218184D01*
X-72136Y220723D02*
Y223263D01*
Y221993D01*
X-64518D01*
X-65788Y220723D01*
Y227071D02*
X-64518Y228341D01*
Y230880D01*
X-65788Y232150D01*
X-70866D01*
X-72136Y230880D01*
Y228341D01*
X-70866Y227071D01*
X-65788D01*
X-34288Y246886D02*
X-33019Y248155D01*
X-30480D01*
X-29210Y246886D01*
Y241808D01*
X-30480Y240538D01*
X-33019D01*
X-34288Y241808D01*
X-36827D02*
X-38097Y240538D01*
X-40636D01*
X-41906Y241808D01*
Y246886D01*
X-40636Y248155D01*
X-38097D01*
X-36827Y246886D01*
Y245616D01*
X-38097Y244347D01*
X-41906D01*
X-105364Y497241D02*
X-103630Y497705D01*
X-101431Y496436D01*
X-100966Y494701D01*
X-103505Y490303D01*
X-105239Y489839D01*
X-107438Y491108D01*
X-107903Y492843D01*
X-107563Y498510D02*
X-108028Y500244D01*
X-110227Y501514D01*
X-111961Y501049D01*
X-112596Y499950D01*
X-112131Y498216D01*
X-111032Y497581D01*
X-112131Y498216D01*
X-113865Y497751D01*
X-114500Y496651D01*
X-114036Y494917D01*
X-111837Y493648D01*
X-110102Y494112D01*
X240684Y683720D02*
X241149Y685455D01*
X243348Y686724D01*
X245082Y686260D01*
X247621Y681862D01*
X247157Y680127D01*
X244958Y678858D01*
X243223Y679322D01*
X241659Y676953D02*
X239460Y675684D01*
X240560Y676319D01*
X236751Y682915D01*
X238485Y682451D01*
X-171342Y340278D02*
X-176420D01*
X-173881D01*
Y332660D01*
X-178960D02*
Y340278D01*
X-182768D01*
X-184038Y339008D01*
Y336469D01*
X-182768Y335199D01*
X-178960D01*
X-191655Y340278D02*
X-186577D01*
Y336469D01*
X-189116Y337738D01*
X-190386D01*
X-191655Y336469D01*
Y333930D01*
X-190386Y332660D01*
X-187847D01*
X-186577Y333930D01*
D13*
X-195804Y328930D02*
Y336550D01*
X-205964D02*
X-195804D01*
X-205964Y328930D02*
Y336550D01*
Y316230D02*
Y323850D01*
Y316230D02*
X-195804D01*
Y323850D01*
X-218126Y316230D02*
Y323850D01*
Y316230D02*
X-207966D01*
Y323850D01*
Y328930D02*
Y336550D01*
X-218126D02*
X-207966D01*
X-218126Y328930D02*
Y336550D01*
X117602Y1092454D02*
X125222D01*
Y1102614D01*
X117602D02*
X125222D01*
X104902D02*
X112522D01*
X104902Y1092454D02*
Y1102614D01*
Y1092454D02*
X112522D01*
X26416Y218186D02*
Y232156D01*
X6096Y218186D02*
X26416D01*
X6096D02*
Y232156D01*
Y237236D02*
Y251206D01*
X26416D01*
Y237236D02*
Y251206D01*
X-9398Y238506D02*
X4572D01*
Y218186D02*
Y238506D01*
X-9398Y218186D02*
X4572D01*
X-28448D02*
X-14478D01*
X-28448D02*
Y238506D01*
X-14478D01*
X-165181Y434177D02*
X-161371Y440776D01*
X-165181Y434177D02*
X-156383Y429097D01*
X-152573Y435696D01*
X-150033Y440096D02*
X-146223Y446695D01*
X-155021Y451775D02*
X-146223Y446695D01*
X-158831Y445176D02*
X-155021Y451775D01*
X-155279Y428335D02*
X-151469Y434934D01*
X-155279Y428335D02*
X-146481Y423255D01*
X-142671Y429854D01*
X-140131Y434254D02*
X-136321Y440853D01*
X-145119Y445933D02*
X-136321Y440853D01*
X-148929Y439334D02*
X-145119Y445933D01*
X-135431Y399202D02*
X-131621Y405801D01*
X-140420Y410881D02*
X-131621Y405801D01*
X-144230Y404282D02*
X-140420Y410881D01*
X-150580Y393283D02*
X-146770Y399882D01*
X-150580Y393283D02*
X-141781Y388203D01*
X-137971Y394802D01*
X188841Y729823D02*
X195440Y733633D01*
X188841Y729823D02*
X193921Y721025D01*
X200520Y724835D01*
X204920Y727375D02*
X211519Y731185D01*
X206439Y739983D02*
X211519Y731185D01*
X199840Y736173D02*
X206439Y739983D01*
X-126873Y453999D02*
X-120273Y450189D01*
X-125353Y441390D02*
X-120273Y450189D01*
X-131952Y445201D02*
X-125353Y441390D01*
X-142951Y451550D02*
X-136352Y447741D01*
X-142951Y451550D02*
X-137871Y460349D01*
X-131272Y456539D01*
X-136053Y507665D02*
X-129454Y503855D01*
X-136053Y507665D02*
X-130973Y516463D01*
X-124374Y512653D01*
X-119974Y510113D02*
X-113375Y506303D01*
X-118455Y497505D02*
X-113375Y506303D01*
X-125054Y501315D02*
X-118455Y497505D01*
X219283Y699094D02*
X223093Y692495D01*
X214295Y687415D02*
X223093Y692495D01*
X210485Y694014D02*
X214295Y687415D01*
X204135Y705013D02*
X207945Y698414D01*
X204135Y705013D02*
X212933Y710093D01*
X216743Y703494D01*
X258740Y696549D02*
X265339Y700359D01*
X270419Y691561D01*
X263820Y687751D02*
X270419Y691561D01*
X252821Y681401D02*
X259420Y685211D01*
X247741Y690199D02*
X252821Y681401D01*
X247741Y690199D02*
X254340Y694009D01*
X206416Y725505D02*
X213015Y729315D01*
X218095Y720517D01*
X211496Y716707D02*
X218095Y720517D01*
X200497Y710357D02*
X207096Y714167D01*
X195417Y719155D02*
X200497Y710357D01*
X195417Y719155D02*
X202016Y722965D01*
X198973Y775381D02*
X205572Y779191D01*
X193893Y784179D02*
X198973Y775381D01*
X193893Y784179D02*
X200492Y787989D01*
X204892Y790529D02*
X211491Y794339D01*
X216571Y785541D01*
X209972Y781731D02*
X216571Y785541D01*
X230459Y751241D02*
X234269Y744642D01*
X230459Y751241D02*
X239258Y756321D01*
X243068Y749722D01*
X245608Y745322D02*
X249418Y738723D01*
X240619Y733643D02*
X249418Y738723D01*
X236809Y740242D02*
X240619Y733643D01*
X263317Y684185D02*
X267127Y677586D01*
X263317Y684185D02*
X272115Y689265D01*
X275925Y682666D01*
X278465Y678266D02*
X282275Y671667D01*
X273477Y666587D02*
X282275Y671667D01*
X269667Y673186D02*
X273477Y666587D01*
X104649Y1063560D02*
X112269D01*
X104649D02*
Y1073720D01*
X112269D01*
X117349D02*
X124969D01*
Y1063560D02*
Y1073720D01*
X117349Y1063560D02*
X124969D01*
X118364Y1090676D02*
X128524D01*
Y1075436D02*
Y1090676D01*
X118364Y1075436D02*
X128524D01*
X100584D02*
X110744D01*
X100584D02*
Y1090676D01*
X110744D01*
X-191662Y303273D02*
X-184042D01*
X-191662D02*
Y313433D01*
X-184042D01*
X-178962D02*
X-171342D01*
Y303273D02*
Y313433D01*
X-178962Y303273D02*
X-171342D01*
X-191662Y291843D02*
X-184042D01*
X-191662D02*
Y302003D01*
X-184042D01*
X-178962D02*
X-171342D01*
Y291843D02*
Y302003D01*
X-178962Y291843D02*
X-171342D01*
X-120315Y514187D02*
X-116505Y520786D01*
X-129113Y519267D02*
X-120315Y514187D01*
X-129113Y519267D02*
X-125303Y525866D01*
X-122763Y530266D02*
X-118953Y536865D01*
X-110155Y531785D01*
X-113965Y525186D02*
X-110155Y531785D01*
X-181529Y415147D02*
X-177719Y421746D01*
X-190327Y420227D02*
X-181529Y415147D01*
X-190327Y420227D02*
X-186517Y426826D01*
X-183977Y431226D02*
X-180167Y437825D01*
X-171369Y432745D01*
X-175179Y426146D02*
X-171369Y432745D01*
X-144192Y243586D02*
X-136572D01*
X-144192D02*
Y253746D01*
X-136572D01*
X-131492D02*
X-123872D01*
Y243586D02*
Y253746D01*
X-131492Y243586D02*
X-123872D01*
X-198560Y278697D02*
X-190940D01*
X-198560D02*
Y288857D01*
X-190940D01*
X-185860D02*
X-178240D01*
Y278697D02*
Y288857D01*
X-185860Y278697D02*
X-178240D01*
X-180480Y270017D02*
Y277637D01*
X-170320D01*
Y270017D02*
Y277637D01*
Y257317D02*
Y264937D01*
X-180480Y257317D02*
X-170320D01*
X-180480D02*
Y264937D01*
X-166798Y243586D02*
X-159178D01*
X-166798D02*
Y253746D01*
X-159178D01*
X-154098D02*
X-146478D01*
Y243586D02*
Y253746D01*
X-154098Y243586D02*
X-146478D01*
X-62484Y243332D02*
Y253492D01*
X-77724Y243332D02*
X-62484D01*
X-77724D02*
Y253492D01*
Y261112D02*
Y271272D01*
X-62484D01*
Y261112D02*
Y271272D01*
X-50800Y256342D02*
Y263962D01*
X-60960D02*
X-50800D01*
X-60960Y256342D02*
Y263962D01*
Y243642D02*
Y251262D01*
Y243642D02*
X-50800D01*
Y251262D01*
X-61214Y231140D02*
Y241300D01*
X-45974D01*
Y231140D02*
Y241300D01*
Y213360D02*
Y223520D01*
X-61214Y213360D02*
X-45974D01*
X-61214D02*
Y223520D01*
X-43688Y216451D02*
Y224071D01*
Y216451D02*
X-33528D01*
Y224071D01*
Y229151D02*
Y236771D01*
X-43688D02*
X-33528D01*
X-43688Y229151D02*
Y236771D01*
X71033Y210000D02*
G03*
X65000Y203904I31J-6065D01*
G01*
X0Y203812D02*
G03*
X-5942Y210000I-6065J123D01*
G01*
X-111533Y455503D02*
G03*
X-27532Y310000I84003J-48502D01*
G01*
X198813Y702019D02*
G03*
X30804Y702023I-84006J-48498D01*
G01*
X100117Y903997D02*
G03*
X114813Y867997I14697J-15000D01*
G01*
X100117Y903997D02*
G03*
X118069Y924838I-112752J115276D01*
G01*
X86550Y979398D02*
G03*
X88952Y986455I-34722J15755D01*
G01*
X55905Y941923D02*
G03*
X46385Y928999I62227J-55807D01*
G01*
X127940Y940646D02*
G03*
X131966Y948976I-104630J55697D01*
G01*
X67301Y954122D02*
G03*
X72986Y960189I-226733J218176D01*
G01*
X137728Y966245D02*
G03*
X139816Y983996I-76944J18047D01*
G01*
X135260Y957526D02*
G03*
X137728Y966245I-88650J29809D01*
G01*
X118069Y924838D02*
G03*
X127940Y940646I-111894J80857D01*
G01*
X72986Y960189D02*
G03*
X78280Y966360I-96757J88364D01*
G01*
X131966Y948976D02*
G03*
X135260Y957526I-96690J42161D01*
G01*
X88952Y986455D02*
G03*
X89816Y993997I-32548J7551D01*
G01*
X78280Y966360D02*
G03*
X82897Y972731I-59537J48000D01*
G01*
D02*
G03*
X86550Y979398I-42719J27740D01*
G01*
X61512Y948065D02*
G03*
X55905Y941922I151760J-144153D01*
G01*
X-243169Y427506D02*
G03*
X-117601Y210003I125572J-72503D01*
G01*
X0Y0D02*
Y203812D01*
X65000Y0D02*
Y203904D01*
X0Y0D02*
X65000D01*
X353156Y434674D02*
X418158Y472087D01*
X198813Y702019D02*
X353156Y434674D01*
X405003Y494874D02*
X418158Y472087D01*
X405003Y494874D02*
X426654Y507374D01*
X286664Y749856D02*
X426654Y507374D01*
X218461Y867994D02*
X276665Y767177D01*
X255014Y754678D02*
X276665Y767177D01*
X265013Y737357D02*
X286664Y749856D01*
X255014Y754678D02*
X265013Y737357D01*
X114813Y867997D02*
X218461Y867994D01*
X139816Y983996D02*
X139816Y1003996D01*
X89816Y993997D02*
X89816Y1003997D01*
X61512Y948065D02*
X67301Y954122D01*
X-47044Y767185D02*
X46385Y928999D01*
X-47044Y767185D02*
X-25393Y754685D01*
X-35394Y737365D02*
X-25393Y754685D01*
X-57044Y749865D02*
X-35394Y737365D01*
X-197046Y507389D02*
X-57044Y749865D01*
X-111533Y455503D02*
X30804Y702023D01*
X-27532Y310000D02*
X314799Y309992D01*
X-243169Y427506D02*
X-207046Y490069D01*
X-185396Y477568D02*
X-175396Y494889D01*
X-197046Y507389D02*
X-175396Y494889D01*
X-207046Y490069D02*
X-185396Y477568D01*
X-117601Y210003D02*
X-5942Y210000D01*
X71033Y210000D02*
X314799D01*
Y309992D01*
X139816Y1003996D02*
Y1115996D01*
X89818D02*
X139816D01*
X89816Y1003997D02*
Y1115997D01*
D14*
X-23201Y290999D02*
X-2201D01*
Y267999D02*
Y290999D01*
X-23201Y267999D02*
X-2201D01*
X-23201D02*
Y290999D01*
X61796Y290997D02*
X82795D01*
Y267997D02*
Y290997D01*
X61796Y267997D02*
X82795D01*
X61796D02*
Y290997D01*
X146797Y291000D02*
X167797D01*
Y268001D02*
Y291000D01*
X146797Y268001D02*
X167797D01*
X146797D02*
Y291000D01*
X231799Y290993D02*
X252799D01*
Y267993D02*
Y290993D01*
X231799Y267993D02*
X252799D01*
X231799D02*
Y290993D01*
D15*
X-83224Y596373D02*
X-72785Y614503D01*
X-63292Y584897D02*
X-52853Y603027D01*
X-72785Y614503D02*
X-52853Y603027D01*
X-83224Y596373D02*
X-63292Y584897D01*
X304030Y615725D02*
X314469Y597595D01*
X284098Y604248D02*
X294537Y586119D01*
X284098Y604248D02*
X304030Y615725D01*
X294537Y586119D02*
X314469Y597595D01*
D94*
X-174324Y324866D02*
G03*
X-174324Y324866I-5000J0D01*
G01*
X-100410Y246888D02*
G03*
X-100410Y246888I-5000J0D01*
G01*
X40306Y227330D02*
G03*
X40306Y227330I-5000J0D01*
G01*
X40814Y245872D02*
G03*
X40814Y245872I-5000J0D01*
G01*
X-151383Y357124D02*
G03*
X-151383Y357124I-5000J0D01*
G01*
X-127104Y324612D02*
G03*
X-127104Y324612I-5000J0D01*
G01*
X-149666D02*
G03*
X-149666Y324612I-5000J0D01*
G01*
D95*
X-152519Y398687D02*
X-148444Y405745D01*
X-154160Y409045D02*
X-148444Y405745D01*
X-177807Y413287D02*
X-173732Y420345D01*
X-168016Y417045D01*
X-138265Y469590D02*
X-133935Y467090D01*
X-123265Y495570D02*
X-118935Y493070D01*
X-138265Y469590D02*
X-123265Y495570D01*
X-133935Y467090D02*
X-118935Y493070D01*
X204463Y759431D02*
X208538Y752373D01*
X214254Y755673D01*
X229751Y774031D02*
X233826Y766973D01*
X228110Y763673D02*
X233826Y766973D01*
X230351Y719358D02*
X245351Y693377D01*
X234681Y721858D02*
X249681Y695877D01*
X245351Y693377D02*
X249681Y695877D01*
X230351Y719358D02*
X234681Y721858D01*
X-161126Y260604D02*
Y264854D01*
Y260604D02*
X-156876D01*
X-121376D02*
X-117126D01*
Y264854D01*
Y300354D02*
Y304604D01*
X-121376D02*
X-117126D01*
X-161126Y300354D02*
Y304604D01*
X-156876D01*
D96*
X321656Y581218D02*
X323432Y578144D01*
X305156Y571547D02*
X306931Y568473D01*
X323386Y577973D01*
X306080Y570147D02*
X322535Y579647D01*
X305202Y571718D02*
X321656Y581218D01*
X-90368Y579972D02*
X-73913Y570472D01*
X-91290Y578426D02*
X-74835Y568926D01*
X-92314Y576852D02*
X-75859Y567352D01*
X-92314Y576852D02*
X-90539Y579926D01*
X-75689Y567398D02*
X-73913Y570472D01*
X15542Y289031D02*
X19092D01*
X15667Y269906D02*
X19217D01*
Y288906D01*
X17342Y270006D02*
Y289006D01*
X15542Y270031D02*
Y289031D01*
X100547Y270029D02*
Y289029D01*
X102347Y270004D02*
Y289004D01*
X104222Y269904D02*
Y288904D01*
X100672Y269904D02*
X104222D01*
X100547Y289029D02*
X104097D01*
X185547Y289027D02*
X189097D01*
X185672Y269902D02*
X189222D01*
Y288902D01*
X187347Y270002D02*
Y289002D01*
X185547Y270027D02*
Y289027D01*
X270547Y270024D02*
Y289024D01*
X272347Y269999D02*
Y288999D01*
X274222Y269899D02*
Y288899D01*
X270672Y269899D02*
X274222D01*
X270547Y289024D02*
X274097D01*
D97*
X301069Y620427D02*
X317069Y592714D01*
X281497Y609127D02*
X297497Y581414D01*
X292707Y600560D02*
X302710Y606335D01*
X300623Y598549D02*
X302710Y606335D01*
X300493Y598474D02*
X300623Y598549D01*
X292707Y600560D02*
X300493Y598474D01*
X295341Y595499D02*
X300493Y598474D01*
X300623Y598549D02*
X305646Y601449D01*
X-69422Y597353D02*
X-64398Y594453D01*
X-74704Y600403D02*
X-69551Y597428D01*
X-71638Y605214D02*
X-69551Y597428D01*
X-69422Y597353D01*
X-61635Y599439D01*
X-71638Y605214D02*
X-61635Y599439D01*
X-85823Y591493D02*
X-69823Y619206D01*
X-66252Y580193D02*
X-50251Y607906D01*
X-28708Y290806D02*
X3292D01*
X-28708Y268206D02*
X3292D01*
X-15683Y273631D02*
Y285181D01*
X-9983Y279481D01*
Y279331D02*
Y279481D01*
X-15683Y273631D02*
X-9983Y279331D01*
Y273381D02*
Y279331D01*
Y279481D02*
Y285281D01*
X75022Y279479D02*
Y285279D01*
Y273379D02*
Y279329D01*
X69322Y273629D02*
X75022Y279329D01*
Y279479D01*
X69322Y285179D02*
X75022Y279479D01*
X69322Y273629D02*
Y285179D01*
X56297Y268204D02*
X88297D01*
X56297Y290804D02*
X88297D01*
X141297Y290801D02*
X173297D01*
X141297Y268202D02*
X173297D01*
X154322Y273627D02*
Y285177D01*
X160022Y279477D01*
Y279326D02*
Y279477D01*
X154322Y273627D02*
X160022Y279326D01*
Y273377D02*
Y279326D01*
Y279477D02*
Y285277D01*
X245022Y279474D02*
Y285274D01*
Y273374D02*
Y279324D01*
X239322Y273624D02*
X245022Y279324D01*
Y279474D01*
X239322Y285174D02*
X245022Y279474D01*
X239322Y273624D02*
Y285174D01*
X226297Y268200D02*
X258297D01*
X226297Y290799D02*
X258297D01*
X122682Y1104646D02*
Y1111502D01*
X119254D01*
X118111Y1110359D01*
Y1108074D01*
X119254Y1106931D01*
X122682D01*
X120397D02*
X118111Y1104646D01*
X115826D02*
X113541D01*
X114684D01*
Y1111502D01*
X115826Y1110359D01*
X110113D02*
X108970Y1111502D01*
X106685D01*
X105542Y1110359D01*
Y1109217D01*
X106685Y1108074D01*
X107828D01*
X106685D01*
X105542Y1106931D01*
Y1105789D01*
X106685Y1104646D01*
X108970D01*
X110113Y1105789D01*
X136777Y1075434D02*
X137920Y1074292D01*
Y1072007D01*
X136777Y1070864D01*
X132207D01*
X131064Y1072007D01*
Y1074292D01*
X132207Y1075434D01*
X131064Y1077720D02*
Y1080005D01*
Y1078862D01*
X137920D01*
X136777Y1077720D01*
X131064Y1086861D02*
X137920D01*
X134492Y1083433D01*
Y1088003D01*
X132081Y1059305D02*
X133224Y1060448D01*
X135509D01*
X136652Y1059305D01*
Y1054735D01*
X135509Y1053592D01*
X133224D01*
X132081Y1054735D01*
X129796Y1053592D02*
X127511D01*
X128654D01*
Y1060448D01*
X129796Y1059305D01*
X124083D02*
X122940Y1060448D01*
X120655D01*
X119513Y1059305D01*
Y1058163D01*
X120655Y1057020D01*
X121798D01*
X120655D01*
X119513Y1055877D01*
Y1054735D01*
X120655Y1053592D01*
X122940D01*
X124083Y1054735D01*
M02*
