G04*
G04 #@! TF.GenerationSoftware,Altium Limited,Altium Designer,19.0.12 (326)*
G04*
G04 Layer_Color=8388736*
%FSLAX44Y44*%
%MOMM*%
G71*
G01*
G75*
%ADD13C,0.1270*%
%ADD14C,0.0500*%
%ADD15C,0.0500*%
%ADD97C,0.1778*%
%ADD98R,3.7166X5.3315*%
%ADD99R,3.9148X5.9080*%
%ADD100R,7.3769X5.1682*%
%ADD101R,6.5000X4.5212*%
D13*
X-137922Y133096D02*
X-74422D01*
X13178Y220696D01*
X-137668Y312166D02*
X-133096Y307594D01*
X-137668Y312166D02*
Y312420D01*
X-141931Y308157D02*
X-137668Y312420D01*
Y133096D02*
Y312420D01*
X-101618Y215404D02*
X-98298Y212085D01*
X-101896Y215404D02*
X-101618D01*
X-105156Y212145D02*
X-101896Y215404D01*
Y169630D02*
Y215404D01*
X-137922Y133604D02*
X-101896Y169630D01*
X-26670Y22352D02*
X-1778D01*
X-137922Y133604D02*
X-26670Y22352D01*
X13178Y215616D02*
Y220696D01*
X7336D02*
X13178D01*
X-186472Y133096D02*
X-137922D01*
X-7112Y25654D02*
X-1778Y22352D01*
X-7112Y19050D02*
X-1778Y22352D01*
X71033Y210000D02*
G03*
X65000Y203904I31J-6065D01*
G01*
X0Y203812D02*
G03*
X-5942Y210000I-6065J123D01*
G01*
X-111533Y455503D02*
G03*
X-27532Y310000I84003J-48502D01*
G01*
X198813Y702019D02*
G03*
X30804Y702023I-84006J-48498D01*
G01*
X100117Y903997D02*
G03*
X114813Y867997I14697J-15000D01*
G01*
X100117Y903997D02*
G03*
X118069Y924838I-112752J115276D01*
G01*
X86550Y979398D02*
G03*
X88952Y986455I-34722J15755D01*
G01*
X55905Y941923D02*
G03*
X46385Y928999I62227J-55807D01*
G01*
X127940Y940646D02*
G03*
X131966Y948976I-104630J55697D01*
G01*
X67301Y954122D02*
G03*
X72986Y960189I-226733J218176D01*
G01*
X137728Y966245D02*
G03*
X139816Y983996I-76944J18047D01*
G01*
X135260Y957526D02*
G03*
X137728Y966245I-88650J29809D01*
G01*
X118069Y924838D02*
G03*
X127940Y940646I-111894J80857D01*
G01*
X72986Y960189D02*
G03*
X78280Y966360I-96757J88364D01*
G01*
X131966Y948976D02*
G03*
X135260Y957526I-96690J42161D01*
G01*
X88952Y986455D02*
G03*
X89816Y993997I-32548J7551D01*
G01*
X78280Y966360D02*
G03*
X82897Y972731I-59537J48000D01*
G01*
D02*
G03*
X86550Y979398I-42719J27740D01*
G01*
X61512Y948065D02*
G03*
X55905Y941922I151760J-144153D01*
G01*
X-243169Y427506D02*
G03*
X-117601Y210003I125572J-72503D01*
G01*
X0Y0D02*
Y203812D01*
X65000Y0D02*
Y203904D01*
X0Y0D02*
X65000D01*
X353156Y434674D02*
X418158Y472087D01*
X198813Y702019D02*
X353156Y434674D01*
X405003Y494874D02*
X418158Y472087D01*
X405003Y494874D02*
X426654Y507374D01*
X286664Y749856D02*
X426654Y507374D01*
X218461Y867994D02*
X276665Y767177D01*
X255014Y754678D02*
X276665Y767177D01*
X265013Y737357D02*
X286664Y749856D01*
X255014Y754678D02*
X265013Y737357D01*
X114813Y867997D02*
X218461Y867994D01*
X139816Y983996D02*
X139816Y1003996D01*
X89816Y993997D02*
X89816Y1003997D01*
X61512Y948065D02*
X67301Y954122D01*
X-47044Y767185D02*
X46385Y928999D01*
X-47044Y767185D02*
X-25393Y754685D01*
X-35394Y737365D02*
X-25393Y754685D01*
X-57044Y749865D02*
X-35394Y737365D01*
X-197046Y507389D02*
X-57044Y749865D01*
X-111533Y455503D02*
X30804Y702023D01*
X-27532Y310000D02*
X314799Y309992D01*
X-243169Y427506D02*
X-207046Y490069D01*
X-185396Y477568D02*
X-175396Y494889D01*
X-197046Y507389D02*
X-175396Y494889D01*
X-207046Y490069D02*
X-185396Y477568D01*
X-117601Y210003D02*
X-5942Y210000D01*
X71033Y210000D02*
X314799D01*
Y309992D01*
X139816Y1003996D02*
Y1115996D01*
X89818D02*
X139816D01*
X89816Y1003997D02*
Y1115997D01*
D14*
X-23201Y290999D02*
X-2201D01*
Y267999D02*
Y290999D01*
X-23201Y267999D02*
X-2201D01*
X-23201D02*
Y290999D01*
X61796Y290997D02*
X82795D01*
Y267997D02*
Y290997D01*
X61796Y267997D02*
X82795D01*
X61796D02*
Y290997D01*
X146797Y291000D02*
X167797D01*
Y268001D02*
Y291000D01*
X146797Y268001D02*
X167797D01*
X146797D02*
Y291000D01*
X231799Y290993D02*
X252799D01*
Y267993D02*
Y290993D01*
X231799Y267993D02*
X252799D01*
X231799D02*
Y290993D01*
D15*
X-83224Y596373D02*
X-72785Y614503D01*
X-63292Y584897D02*
X-52853Y603027D01*
X-72785Y614503D02*
X-52853Y603027D01*
X-83224Y596373D02*
X-63292Y584897D01*
X304030Y615725D02*
X314469Y597595D01*
X284098Y604248D02*
X294537Y586119D01*
X284098Y604248D02*
X304030Y615725D01*
X294537Y586119D02*
X314469Y597595D01*
D97*
X-318010Y135126D02*
X-319279Y136396D01*
X-321818D01*
X-323088Y135126D01*
Y133856D01*
X-321818Y132587D01*
X-319279D01*
X-318010Y131317D01*
Y130048D01*
X-319279Y128778D01*
X-321818D01*
X-323088Y130048D01*
X-314201Y135126D02*
Y133856D01*
X-315471D01*
X-312931D01*
X-314201D01*
Y130048D01*
X-312931Y128778D01*
X-309123D02*
X-306583D01*
X-307853D01*
Y133856D01*
X-309123D01*
X-301505Y128778D02*
Y135126D01*
Y132587D01*
X-302775D01*
X-300235D01*
X-301505D01*
Y135126D01*
X-300235Y136396D01*
X-295157Y128778D02*
Y135126D01*
Y132587D01*
X-296427D01*
X-293887D01*
X-295157D01*
Y135126D01*
X-293887Y136396D01*
X-286270Y128778D02*
X-288809D01*
X-290079Y130048D01*
Y132587D01*
X-288809Y133856D01*
X-286270D01*
X-285000Y132587D01*
Y131317D01*
X-290079D01*
X-282461Y128778D02*
Y133856D01*
X-278652D01*
X-277383Y132587D01*
Y128778D01*
X-271035D02*
X-273574D01*
X-274844Y130048D01*
Y132587D01*
X-273574Y133856D01*
X-271035D01*
X-269765Y132587D01*
Y131317D01*
X-274844D01*
X-267226Y133856D02*
Y128778D01*
Y131317D01*
X-265956Y132587D01*
X-264687Y133856D01*
X-263417D01*
X-251991Y136396D02*
Y128778D01*
X-246913D01*
X-243104D02*
X-240565D01*
X-239295Y130048D01*
Y132587D01*
X-240565Y133856D01*
X-243104D01*
X-244373Y132587D01*
Y130048D01*
X-243104Y128778D01*
X-231678Y133856D02*
X-235486D01*
X-236756Y132587D01*
Y130048D01*
X-235486Y128778D01*
X-231678D01*
X-227869Y133856D02*
X-225330D01*
X-224060Y132587D01*
Y128778D01*
X-227869D01*
X-229138Y130048D01*
X-227869Y131317D01*
X-224060D01*
X-220251Y135126D02*
Y133856D01*
X-221521D01*
X-218982D01*
X-220251D01*
Y130048D01*
X-218982Y128778D01*
X-215173D02*
X-212634D01*
X-213903D01*
Y133856D01*
X-215173D01*
X-207555Y128778D02*
X-205016D01*
X-203747Y130048D01*
Y132587D01*
X-205016Y133856D01*
X-207555D01*
X-208825Y132587D01*
Y130048D01*
X-207555Y128778D01*
X-201207D02*
Y133856D01*
X-197399D01*
X-196129Y132587D01*
Y128778D01*
D98*
X35925Y235964D02*
D03*
D99*
X-102640Y247472D02*
D03*
D100*
X-159820Y340305D02*
D03*
D101*
X32500Y22606D02*
D03*
M02*
