G04*
G04 #@! TF.GenerationSoftware,Altium Limited,Altium Designer,18.1.4 (159)*
G04*
G04 Layer_Color=255*
%FSLAX44Y44*%
%MOMM*%
G71*
G01*
G75*
%ADD13C,0.2540*%
%ADD15C,0.0500*%
%ADD16C,0.0500*%
%ADD17C,0.0510*%
%ADD18C,0.0508*%
%ADD21R,0.3000X4.0000*%
%ADD37R,0.6000X0.6000*%
%ADD38R,0.8000X0.9000*%
%ADD39R,7.0000X7.0000*%
%ADD40R,0.6000X0.5000*%
%ADD41R,0.6000X0.2500*%
%ADD42R,0.2500X0.6000*%
%ADD43R,2.6000X2.6000*%
%ADD44R,1.4500X0.3000*%
%ADD45R,0.5000X0.6000*%
G04:AMPARAMS|DCode=46|XSize=1.5mm|YSize=1.6mm|CornerRadius=0mm|HoleSize=0mm|Usage=FLASHONLY|Rotation=120.000|XOffset=0mm|YOffset=0mm|HoleType=Round|Shape=Rectangle|*
%AMROTATEDRECTD46*
4,1,4,1.0678,-0.2495,-0.3178,-1.0495,-1.0678,0.2495,0.3178,1.0495,1.0678,-0.2495,0.0*
%
%ADD46ROTATEDRECTD46*%

G04:AMPARAMS|DCode=47|XSize=1.5mm|YSize=1.6mm|CornerRadius=0mm|HoleSize=0mm|Usage=FLASHONLY|Rotation=240.000|XOffset=0mm|YOffset=0mm|HoleType=Round|Shape=Rectangle|*
%AMROTATEDRECTD47*
4,1,4,-0.3178,1.0495,1.0678,0.2495,0.3178,-1.0495,-1.0678,-0.2495,-0.3178,1.0495,0.0*
%
%ADD47ROTATEDRECTD47*%

%ADD48R,1.5000X1.6000*%
%ADD49R,0.7200X0.7200*%
%ADD50R,0.7200X0.7200*%
D13*
X314494Y-16853D02*
X304338D01*
Y-24470D01*
X309416D01*
X304338D01*
Y-32088D01*
X319573D02*
X324651D01*
X322112D01*
Y-16853D01*
X319573D01*
X339886Y-32088D02*
X334808D01*
X332268Y-29548D01*
Y-24470D01*
X334808Y-21931D01*
X339886D01*
X342425Y-24470D01*
Y-27009D01*
X332268D01*
X347504Y-21931D02*
X357660Y-32088D01*
X352582Y-27009D01*
X357660Y-21931D01*
X347504Y-32088D01*
X377974D02*
Y-16853D01*
X385591D01*
X388130Y-19392D01*
Y-24470D01*
X385591Y-27009D01*
X377974D01*
X403366Y-19392D02*
X400826Y-16853D01*
X395748D01*
X393209Y-19392D01*
Y-29548D01*
X395748Y-32088D01*
X400826D01*
X403366Y-29548D01*
X408444Y-16853D02*
Y-32088D01*
X416061D01*
X418601Y-29548D01*
Y-27009D01*
X416061Y-24470D01*
X408444D01*
X416061D01*
X418601Y-21931D01*
Y-19392D01*
X416061Y-16853D01*
X408444D01*
X446531D02*
X441453D01*
X438914Y-19392D01*
Y-29548D01*
X441453Y-32088D01*
X446531D01*
X449071Y-29548D01*
Y-19392D01*
X446531Y-16853D01*
X454149Y-21931D02*
Y-29548D01*
X456688Y-32088D01*
X464306D01*
Y-21931D01*
X471923Y-19392D02*
Y-21931D01*
X469384D01*
X474463D01*
X471923D01*
Y-29548D01*
X474463Y-32088D01*
X482080D02*
X487158D01*
X484619D01*
Y-16853D01*
X482080D01*
X494776Y-32088D02*
X499854D01*
X497315D01*
Y-21931D01*
X494776D01*
X507472Y-32088D02*
Y-21931D01*
X515089D01*
X517629Y-24470D01*
Y-32088D01*
X530324D02*
X525246D01*
X522707Y-29548D01*
Y-24470D01*
X525246Y-21931D01*
X530324D01*
X532864Y-24470D01*
Y-27009D01*
X522707D01*
D15*
X600247Y127484D02*
G03*
X590088Y137644I-10160J0D01*
G01*
X589833Y0D02*
G03*
X600247Y10414I0J10414D01*
G01*
X614932Y226313D02*
X707436Y279556D01*
Y290448D01*
X600247Y127170D02*
Y127484D01*
X589580Y137644D02*
X590088D01*
X600247Y10414D02*
Y127170D01*
X-32213Y141140D02*
X-20447Y169226D01*
X-39578Y114471D02*
X-32213Y141140D01*
X-44658Y90849D02*
X-39578Y114471D01*
X-46625Y72103D02*
X-44658Y90849D01*
X571624Y410713D02*
X582063Y392583D01*
X551692Y399236D02*
X562131Y381106D01*
X551692Y399236D02*
X571624Y410713D01*
X562131Y381106D02*
X582063Y392583D01*
X178657Y394193D02*
X189096Y412323D01*
X198589Y382716D02*
X209028Y400846D01*
X189096Y412323D02*
X209028Y400846D01*
X178657Y394193D02*
X198589Y382716D01*
X398980Y137644D02*
X589580Y137644D01*
X338541Y137584D02*
X360648D01*
X143128Y137644D02*
X158863D01*
X200145Y137584D02*
X261566D01*
X325067Y658299D02*
X329291D01*
X371294Y102533D02*
X388334D01*
X422905Y574221D02*
X451495Y556926D01*
X505860Y466230D01*
X489008Y441558D02*
X504336Y457340D01*
X505860Y459626D01*
X506622Y462928D01*
X505860Y466230D02*
X506622Y462928D01*
X257617Y460498D02*
X272945Y444716D01*
X256093Y462784D02*
X257617Y460498D01*
X255331Y466086D02*
X256093Y462784D01*
X255331Y466086D02*
X256093Y469388D01*
X256081Y469395D02*
X308048Y556090D01*
X428241Y729359D02*
Y909359D01*
X333241Y729359D02*
Y909359D01*
D16*
X398980Y137644D02*
G03*
X393980Y132601I22J-5022D01*
G01*
X332508Y143681D02*
G03*
X338541Y137584I6065J-31D01*
G01*
X329291Y658299D02*
G03*
X333241Y662857I-304J4254D01*
G01*
X320683D02*
G03*
X325067Y658299I4849J277D01*
G01*
X261566Y137584D02*
G03*
X267507Y143772I-123J6065D01*
G01*
X388334Y102533D02*
G03*
X393980Y108045I67J5579D01*
G01*
X365648D02*
G03*
X371294Y102533I5579J67D01*
G01*
X489008Y441558D02*
G03*
X487080Y429517I5057J-6985D01*
G01*
X274873Y432675D02*
G03*
X272945Y444716I-6985J5057D01*
G01*
X-46625Y72103D02*
G03*
X0Y13I75007J-2611D01*
G01*
X125806Y173617D02*
G03*
X143128Y137644I19993J-12530D01*
G01*
X391126Y923399D02*
G03*
X404617Y928987I0J19079D01*
G01*
X428241Y720934D02*
G03*
X446201Y677573I61321J0D01*
G01*
X279164Y966804D02*
G03*
X269353Y962740I0J-13875D01*
G01*
X349617Y972392D02*
G03*
X352805Y980088I-7696J7696D01*
G01*
X334164Y923399D02*
G03*
X324353Y919335I0J-13875D01*
G01*
X269353Y962740D02*
G03*
X265683Y953879I8860J-8860D01*
G01*
X253487Y615834D02*
G03*
X265683Y645278I-29444J29444D01*
G01*
X404617Y928987D02*
G03*
X407805Y936684I-7696J7696D01*
G01*
X365648Y132601D02*
G03*
X360648Y137584I-4992J-8D01*
G01*
X336126Y966804D02*
G03*
X349617Y972392I0J19079D01*
G01*
X324353Y919335D02*
G03*
X320683Y910475I8860J-8860D01*
G01*
X614479Y226052D02*
X614932Y226313D01*
X602264Y229344D02*
X614479Y226052D01*
X499396Y62979D02*
Y85979D01*
Y62979D02*
X520396D01*
Y85979D01*
X499396D02*
X520396D01*
X414396Y62980D02*
Y85980D01*
Y62980D02*
X435396D01*
Y85980D01*
X414396D02*
X435396D01*
X329396Y62979D02*
Y85979D01*
Y62979D02*
X350396D01*
Y85979D01*
X329396D02*
X350396D01*
X244396D02*
X265396D01*
Y62979D02*
Y85979D01*
X244396Y62979D02*
X265396D01*
X244396D02*
Y85979D01*
X267507Y143772D02*
Y342054D01*
X332508Y143681D02*
Y342054D01*
X267507D02*
X332508D01*
X393980Y108045D02*
Y132601D01*
X487080Y429517D02*
X602264Y229344D01*
X0Y0D02*
X532999Y0D01*
X589833D01*
X333241Y909359D02*
X428241D01*
X334164Y923399D02*
X391126D01*
X446201Y677573D02*
X514176Y609599D01*
X177228Y262982D02*
X274873Y432675D01*
X540153Y581162D02*
X595391Y485166D01*
X707436Y290448D01*
X166106Y487019D02*
X222176Y582534D01*
X-20447Y169226D02*
X166106Y487019D01*
X125806Y173617D02*
X177228Y262982D01*
X308048Y556090D02*
X339311Y574555D01*
X342898Y574567D02*
X422905Y574221D01*
X279164Y966804D02*
X336126D01*
X514176Y609599D02*
X540153Y581162D01*
X222176Y582534D02*
X248399Y610746D01*
X253487Y615834D01*
X158923Y137584D02*
X200145D01*
X320683Y662857D02*
Y900046D01*
X428241Y720934D02*
Y729359D01*
X365648Y108045D02*
Y132601D01*
X333241Y662857D02*
Y729359D01*
X320683Y900046D02*
Y910475D01*
X339311Y574555D02*
X341104Y574576D01*
X342898Y574567D01*
X265683Y645278D02*
Y651873D01*
D17*
X352805Y1098628D02*
X407805D01*
Y936684D02*
Y1098628D01*
D18*
X352805Y980088D02*
Y1098628D01*
X265683Y651873D02*
X265683Y953879D01*
D21*
X297507Y322054D02*
D03*
X302507D02*
D03*
X277507D02*
D03*
X322508D02*
D03*
X272507D02*
D03*
X282508D02*
D03*
X287508D02*
D03*
X292507D02*
D03*
X307507D02*
D03*
X312507D02*
D03*
X317507D02*
D03*
X327508D02*
D03*
D37*
X384522Y1057065D02*
D03*
X374522D02*
D03*
X105752Y99405D02*
D03*
X95752D02*
D03*
X105752Y87975D02*
D03*
X95752D02*
D03*
X313627Y126538D02*
D03*
X303627D02*
D03*
X277183Y126751D02*
D03*
X287183D02*
D03*
X304113Y113271D02*
D03*
X314113D02*
D03*
X286986Y113152D02*
D03*
X276986D02*
D03*
D38*
X372522Y1071796D02*
D03*
X386521D02*
D03*
X319923Y100571D02*
D03*
X305923D02*
D03*
X271176Y100452D02*
D03*
X285176D02*
D03*
D39*
X380737Y867327D02*
D03*
D40*
X392393Y651648D02*
D03*
X382393D02*
D03*
X353354Y640681D02*
D03*
X363354D02*
D03*
X353104Y621656D02*
D03*
X363104D02*
D03*
X353135Y607301D02*
D03*
X363135D02*
D03*
X398441Y602475D02*
D03*
X388441D02*
D03*
X361304Y651506D02*
D03*
X371304D02*
D03*
X353104Y631006D02*
D03*
X363104D02*
D03*
D41*
X124128Y61157D02*
D03*
Y66157D02*
D03*
Y71156D02*
D03*
Y76157D02*
D03*
Y81157D02*
D03*
Y86156D02*
D03*
X162128D02*
D03*
Y81157D02*
D03*
Y76157D02*
D03*
Y71156D02*
D03*
Y66157D02*
D03*
Y61157D02*
D03*
D42*
X130628Y92656D02*
D03*
X135628D02*
D03*
X140628D02*
D03*
X145628D02*
D03*
X150628D02*
D03*
X155628D02*
D03*
Y54657D02*
D03*
X150628D02*
D03*
X145628D02*
D03*
X140628D02*
D03*
X135628D02*
D03*
X130628D02*
D03*
D43*
X143128Y73656D02*
D03*
D44*
X436571Y637305D02*
D03*
Y632305D02*
D03*
Y627305D02*
D03*
Y622305D02*
D03*
X436571Y617305D02*
D03*
X392571Y637305D02*
D03*
Y632305D02*
D03*
Y627305D02*
D03*
Y622305D02*
D03*
Y617305D02*
D03*
D45*
X458179Y622056D02*
D03*
Y632056D02*
D03*
D46*
X558003Y411283D02*
D03*
X575753Y380539D02*
D03*
D47*
X202716Y412891D02*
D03*
X184966Y382147D02*
D03*
D48*
X237145Y74481D02*
D03*
X272645D02*
D03*
X357645D02*
D03*
X322145D02*
D03*
X407145D02*
D03*
X442645D02*
D03*
X527645D02*
D03*
X492145D02*
D03*
D49*
X143222Y39718D02*
D03*
X153222D02*
D03*
X88854Y74829D02*
D03*
X98854D02*
D03*
X120616Y39718D02*
D03*
X130616D02*
D03*
D50*
X106854Y63529D02*
D03*
Y53529D02*
D03*
M02*
