G04*
G04 #@! TF.GenerationSoftware,Altium Limited,Altium Designer,18.1.4 (159)*
G04*
G04 Layer_Color=16711935*
%FSLAX44Y44*%
%MOMM*%
G71*
G01*
G75*
%ADD13C,0.2540*%
%ADD15C,0.0500*%
%ADD16C,0.0500*%
%ADD17C,0.0510*%
%ADD18C,0.0508*%
%ADD81C,0.2000*%
%ADD85C,0.5000*%
D13*
X-1416767Y-56710D02*
Y-34717D01*
X-1402104Y-56710D01*
Y-34717D01*
X-1383777D02*
X-1391108D01*
X-1394774Y-38383D01*
Y-53045D01*
X-1391108Y-56710D01*
X-1383777D01*
X-1380112Y-53045D01*
Y-38383D01*
X-1383777Y-34717D01*
X-1372781D02*
X-1358119D01*
X-1365450D01*
Y-56710D01*
X-1336126Y-34717D02*
X-1350788D01*
Y-56710D01*
X-1336126D01*
X-1350788Y-45714D02*
X-1343457D01*
X-1314133Y-38383D02*
X-1317798Y-34717D01*
X-1325129D01*
X-1328795Y-38383D01*
Y-42048D01*
X-1325129Y-45714D01*
X-1317798D01*
X-1314133Y-49379D01*
Y-53045D01*
X-1317798Y-56710D01*
X-1325129D01*
X-1328795Y-53045D01*
X-1306802Y-42048D02*
X-1303136D01*
Y-45714D01*
X-1306802D01*
Y-42048D01*
Y-53045D02*
X-1303136D01*
Y-56710D01*
X-1306802D01*
Y-53045D01*
X-1416767Y-121685D02*
X-1409435D01*
X-1413101D01*
Y-99692D01*
X-1416767Y-103358D01*
X-1398439Y-121685D02*
Y-118020D01*
X-1394774D01*
Y-121685D01*
X-1398439D01*
X-1358119D02*
Y-107023D01*
X-1350788Y-99692D01*
X-1343457Y-107023D01*
Y-121685D01*
Y-110689D01*
X-1358119D01*
X-1336126Y-99692D02*
Y-121685D01*
X-1321464D01*
X-1314133Y-99692D02*
Y-121685D01*
X-1299471D01*
X-1270147D02*
Y-107023D01*
X-1262816Y-99692D01*
X-1255485Y-107023D01*
Y-121685D01*
Y-110689D01*
X-1270147D01*
X-1233492Y-103358D02*
X-1237158Y-99692D01*
X-1244489D01*
X-1248154Y-103358D01*
Y-107023D01*
X-1244489Y-110689D01*
X-1237158D01*
X-1233492Y-114354D01*
Y-118020D01*
X-1237158Y-121685D01*
X-1244489D01*
X-1248154Y-118020D01*
X-1211499Y-103358D02*
X-1215165Y-99692D01*
X-1222496D01*
X-1226161Y-103358D01*
Y-107023D01*
X-1222496Y-110689D01*
X-1215165D01*
X-1211499Y-114354D01*
Y-118020D01*
X-1215165Y-121685D01*
X-1222496D01*
X-1226161Y-118020D01*
X-1189507Y-99692D02*
X-1204168D01*
Y-121685D01*
X-1189507D01*
X-1204168Y-110689D02*
X-1196837D01*
X-1182176Y-121685D02*
Y-99692D01*
X-1174845Y-107023D01*
X-1167514Y-99692D01*
Y-121685D01*
X-1160183Y-99692D02*
Y-121685D01*
X-1149186D01*
X-1145521Y-118020D01*
Y-114354D01*
X-1149186Y-110689D01*
X-1160183D01*
X-1149186D01*
X-1145521Y-107023D01*
Y-103358D01*
X-1149186Y-99692D01*
X-1160183D01*
X-1138190D02*
Y-121685D01*
X-1123528D01*
X-1116197Y-99692D02*
Y-103358D01*
X-1108866Y-110689D01*
X-1101535Y-103358D01*
Y-99692D01*
X-1108866Y-110689D02*
Y-121685D01*
X-1072211D02*
Y-99692D01*
X-1064880Y-107023D01*
X-1057549Y-99692D01*
Y-121685D01*
X-1050218D02*
Y-107023D01*
X-1042887Y-99692D01*
X-1035556Y-107023D01*
Y-121685D01*
Y-110689D01*
X-1050218D01*
X-1028225Y-99692D02*
X-1013563D01*
X-1020894D01*
Y-121685D01*
X-991571Y-99692D02*
X-1006232D01*
Y-121685D01*
X-991571D01*
X-1006232Y-110689D02*
X-998901D01*
X-984240Y-121685D02*
Y-99692D01*
X-973243D01*
X-969578Y-103358D01*
Y-110689D01*
X-973243Y-114354D01*
X-984240D01*
X-976908D02*
X-969578Y-121685D01*
X-962247Y-99692D02*
X-954916D01*
X-958581D01*
Y-121685D01*
X-962247D01*
X-954916D01*
X-943919D02*
Y-107023D01*
X-936588Y-99692D01*
X-929257Y-107023D01*
Y-121685D01*
Y-110689D01*
X-943919D01*
X-921926Y-99692D02*
Y-121685D01*
X-907264D01*
X-885272Y-103358D02*
X-888937Y-99692D01*
X-896268D01*
X-899933Y-103358D01*
Y-107023D01*
X-896268Y-110689D01*
X-888937D01*
X-885272Y-114354D01*
Y-118020D01*
X-888937Y-121685D01*
X-896268D01*
X-899933Y-118020D01*
X-855948Y-99692D02*
X-841286D01*
X-848617D01*
Y-121685D01*
X-822958Y-99692D02*
X-830289D01*
X-833955Y-103358D01*
Y-118020D01*
X-830289Y-121685D01*
X-822958D01*
X-819293Y-118020D01*
Y-103358D01*
X-822958Y-99692D01*
X-789969D02*
Y-121685D01*
X-778972D01*
X-775307Y-118020D01*
Y-114354D01*
X-778972Y-110689D01*
X-789969D01*
X-778972D01*
X-775307Y-107023D01*
Y-103358D01*
X-778972Y-99692D01*
X-789969D01*
X-753314D02*
X-767976D01*
Y-121685D01*
X-753314D01*
X-767976Y-110689D02*
X-760645D01*
X-723990Y-121685D02*
Y-99692D01*
X-712994D01*
X-709328Y-103358D01*
Y-110689D01*
X-712994Y-114354D01*
X-723990D01*
X-716659D02*
X-709328Y-121685D01*
X-698332D02*
X-691001D01*
X-687335Y-118020D01*
Y-110689D01*
X-691001Y-107023D01*
X-698332D01*
X-701997Y-110689D01*
Y-118020D01*
X-698332Y-121685D01*
X-680005Y-99692D02*
Y-121685D01*
Y-110689D01*
X-665342D01*
Y-99692D01*
Y-121685D01*
X-643350Y-103358D02*
X-647015Y-99692D01*
X-654346D01*
X-658012Y-103358D01*
Y-107023D01*
X-654346Y-110689D01*
X-647015D01*
X-643350Y-114354D01*
Y-118020D01*
X-647015Y-121685D01*
X-654346D01*
X-658012Y-118020D01*
X-599364Y-103358D02*
X-603029Y-99692D01*
X-610360D01*
X-614026Y-103358D01*
Y-118020D01*
X-610360Y-121685D01*
X-603029D01*
X-599364Y-118020D01*
X-581036Y-99692D02*
X-588367D01*
X-592033Y-103358D01*
Y-118020D01*
X-588367Y-121685D01*
X-581036D01*
X-577371Y-118020D01*
Y-103358D01*
X-581036Y-99692D01*
X-570040Y-121685D02*
Y-99692D01*
X-562709Y-107023D01*
X-555378Y-99692D01*
Y-121685D01*
X-548047D02*
Y-99692D01*
X-537051D01*
X-533385Y-103358D01*
Y-110689D01*
X-537051Y-114354D01*
X-548047D01*
X-526054Y-99692D02*
Y-121685D01*
X-511392D01*
X-504061Y-99692D02*
X-496730D01*
X-500396D01*
Y-121685D01*
X-504061D01*
X-496730D01*
X-485734D02*
Y-107023D01*
X-478403Y-99692D01*
X-471072Y-107023D01*
Y-121685D01*
Y-110689D01*
X-485734D01*
X-463741Y-121685D02*
Y-99692D01*
X-449079Y-121685D01*
Y-99692D01*
X-441748D02*
X-427086D01*
X-434417D01*
Y-121685D01*
X-419755D02*
Y-118020D01*
X-416090D01*
Y-121685D01*
X-419755D01*
X-1402104Y-186660D02*
X-1416767D01*
X-1402104Y-171998D01*
Y-168333D01*
X-1405770Y-164667D01*
X-1413101D01*
X-1416767Y-168333D01*
X-1394774Y-186660D02*
Y-182994D01*
X-1391108D01*
Y-186660D01*
X-1394774D01*
X-1354453D02*
Y-164667D01*
X-1347122Y-171998D01*
X-1339791Y-164667D01*
Y-186660D01*
X-1332460D02*
Y-171998D01*
X-1325129Y-164667D01*
X-1317798Y-171998D01*
Y-186660D01*
Y-175664D01*
X-1332460D01*
X-1310468Y-164667D02*
X-1295806D01*
X-1303136D01*
Y-186660D01*
X-1273813Y-164667D02*
X-1288475D01*
Y-186660D01*
X-1273813D01*
X-1288475Y-175664D02*
X-1281144D01*
X-1266482Y-186660D02*
Y-164667D01*
X-1255485D01*
X-1251820Y-168333D01*
Y-175664D01*
X-1255485Y-179329D01*
X-1266482D01*
X-1259151D02*
X-1251820Y-186660D01*
X-1244489Y-164667D02*
X-1237158D01*
X-1240823D01*
Y-186660D01*
X-1244489D01*
X-1237158D01*
X-1226161D02*
Y-171998D01*
X-1218830Y-164667D01*
X-1211499Y-171998D01*
Y-186660D01*
Y-175664D01*
X-1226161D01*
X-1204168Y-164667D02*
Y-186660D01*
X-1189507D01*
X-1182176Y-171998D02*
X-1178510D01*
Y-175664D01*
X-1182176D01*
Y-171998D01*
Y-182994D02*
X-1178510D01*
Y-186660D01*
X-1182176D01*
Y-182994D01*
X-1193172Y-222813D02*
X-1185841D01*
X-1182176Y-219147D01*
Y-211817D01*
X-1185841Y-208151D01*
X-1193172D01*
X-1196837Y-211817D01*
Y-219147D01*
X-1193172Y-222813D01*
Y-197155D02*
X-1185841Y-200820D01*
X-1138190D02*
X-1152852D01*
Y-211817D01*
X-1145521D01*
X-1152852D01*
Y-222813D01*
X-1130859Y-200820D02*
Y-222813D01*
X-1116197D01*
X-1094204Y-200820D02*
X-1108866D01*
Y-222813D01*
X-1094204D01*
X-1108866Y-211817D02*
X-1101535D01*
X-1086873Y-200820D02*
X-1072211Y-222813D01*
Y-200820D02*
X-1086873Y-222813D01*
X-1064880Y-200820D02*
X-1057549D01*
X-1061215D01*
Y-222813D01*
X-1064880D01*
X-1057549D01*
X-1046553Y-200820D02*
Y-222813D01*
X-1035556D01*
X-1031891Y-219147D01*
Y-215482D01*
X-1035556Y-211817D01*
X-1046553D01*
X-1035556D01*
X-1031891Y-208151D01*
Y-204485D01*
X-1035556Y-200820D01*
X-1046553D01*
X-1024560D02*
Y-222813D01*
X-1009898D01*
X-987905Y-200820D02*
X-1002567D01*
Y-222813D01*
X-987905D01*
X-1002567Y-211817D02*
X-995236D01*
X-958581Y-222813D02*
Y-200820D01*
X-951250Y-208151D01*
X-943919Y-200820D01*
Y-222813D01*
X-921926Y-200820D02*
X-936588D01*
Y-222813D01*
X-921926D01*
X-936588Y-211817D02*
X-929257D01*
X-914595Y-200820D02*
X-899933D01*
X-907264D01*
Y-222813D01*
X-892602D02*
Y-208151D01*
X-885272Y-200820D01*
X-877941Y-208151D01*
Y-222813D01*
Y-211817D01*
X-892602D01*
X-870610Y-200820D02*
Y-222813D01*
X-855948D01*
X-811962Y-204485D02*
X-815627Y-200820D01*
X-822958D01*
X-826624Y-204485D01*
Y-219147D01*
X-822958Y-222813D01*
X-815627D01*
X-811962Y-219147D01*
X-804631Y-200820D02*
Y-222813D01*
X-789969D01*
X-782638D02*
Y-208151D01*
X-775307Y-200820D01*
X-767976Y-208151D01*
Y-222813D01*
Y-211817D01*
X-782638D01*
X-760645Y-200820D02*
Y-222813D01*
X-749649D01*
X-745983Y-219147D01*
Y-204485D01*
X-749649Y-200820D01*
X-760645D01*
X-716659D02*
Y-222813D01*
X-705663D01*
X-701997Y-219147D01*
Y-204485D01*
X-705663Y-200820D01*
X-716659D01*
X-694666D02*
X-687335D01*
X-691001D01*
Y-222813D01*
X-694666D01*
X-687335D01*
X-661677Y-200820D02*
X-676339D01*
Y-222813D01*
X-661677D01*
X-676339Y-211817D02*
X-669008D01*
X-654346Y-200820D02*
Y-222813D01*
X-639684D01*
X-617691Y-200820D02*
X-632353D01*
Y-222813D01*
X-617691D01*
X-632353Y-211817D02*
X-625022D01*
X-595698Y-204485D02*
X-599364Y-200820D01*
X-606695D01*
X-610360Y-204485D01*
Y-219147D01*
X-606695Y-222813D01*
X-599364D01*
X-595698Y-219147D01*
X-588367Y-200820D02*
X-573705D01*
X-581036D01*
Y-222813D01*
X-566375D02*
Y-200820D01*
X-555378D01*
X-551713Y-204485D01*
Y-211817D01*
X-555378Y-215482D01*
X-566375D01*
X-559044D02*
X-551713Y-222813D01*
X-544382Y-200820D02*
X-537051D01*
X-540716D01*
Y-222813D01*
X-544382D01*
X-537051D01*
X-511392Y-204485D02*
X-515058Y-200820D01*
X-522389D01*
X-526054Y-204485D01*
Y-219147D01*
X-522389Y-222813D01*
X-515058D01*
X-511392Y-219147D01*
X-482068Y-200820D02*
X-474737D01*
X-478403D01*
Y-222813D01*
X-482068D01*
X-474737D01*
X-463741D02*
Y-208151D01*
X-456410Y-200820D01*
X-449079Y-208151D01*
Y-222813D01*
Y-211817D01*
X-463741D01*
X-441748Y-200820D02*
Y-222813D01*
X-434417Y-215482D01*
X-427086Y-222813D01*
Y-200820D01*
X-1152852Y-233307D02*
X-1145521D01*
X-1149186D01*
Y-255300D01*
X-1152852D01*
X-1145521D01*
X-1134524D02*
Y-233307D01*
X-1123528D01*
X-1119862Y-236973D01*
Y-244304D01*
X-1123528Y-247969D01*
X-1134524D01*
X-1097869Y-236973D02*
X-1101535Y-233307D01*
X-1108866D01*
X-1112531Y-236973D01*
Y-251635D01*
X-1108866Y-255300D01*
X-1101535D01*
X-1097869Y-251635D01*
X-1090538Y-244304D02*
X-1075877D01*
X-1057549Y-255300D02*
Y-233307D01*
X-1068546Y-244304D01*
X-1053884D01*
X-1031891Y-255300D02*
X-1046553D01*
X-1031891Y-240639D01*
Y-236973D01*
X-1035556Y-233307D01*
X-1042887D01*
X-1046553Y-236973D01*
X-1024560D02*
X-1020894Y-233307D01*
X-1013563D01*
X-1009898Y-236973D01*
Y-251635D01*
X-1013563Y-255300D01*
X-1020894D01*
X-1024560Y-251635D01*
Y-236973D01*
X-991571Y-255300D02*
Y-233307D01*
X-1002567Y-244304D01*
X-987905D01*
X-980574Y-255300D02*
X-965912Y-240639D01*
X-958581Y-255300D02*
X-951250D01*
X-954916D01*
Y-233307D01*
X-958581Y-236973D01*
X-940254Y-255300D02*
X-932923D01*
X-936588D01*
Y-233307D01*
X-940254Y-236973D01*
X-885272Y-233307D02*
X-899933D01*
Y-255300D01*
X-885272D01*
X-899933Y-244304D02*
X-892602D01*
X-877941Y-255300D02*
X-870610D01*
X-874275D01*
Y-233307D01*
X-877941Y-236973D01*
X-844951Y-233307D02*
X-859613D01*
Y-255300D01*
X-844951D01*
X-859613Y-244304D02*
X-852282D01*
X-822958Y-255300D02*
X-837620D01*
X-822958Y-240639D01*
Y-236973D01*
X-826624Y-233307D01*
X-833955D01*
X-837620Y-236973D01*
X-782638Y-233307D02*
X-789969D01*
X-793634Y-236973D01*
Y-251635D01*
X-789969Y-255300D01*
X-782638D01*
X-778972Y-251635D01*
Y-236973D01*
X-782638Y-233307D01*
X-771641Y-236973D02*
X-767976Y-233307D01*
X-760645D01*
X-756980Y-236973D01*
Y-251635D01*
X-760645Y-255300D01*
X-767976D01*
X-771641Y-251635D01*
Y-236973D01*
X-749649Y-255300D02*
X-734987Y-240639D01*
X-727656Y-236973D02*
X-723990Y-233307D01*
X-716659D01*
X-712994Y-236973D01*
Y-251635D01*
X-716659Y-255300D01*
X-723990D01*
X-727656Y-251635D01*
Y-236973D01*
X-669008D02*
X-672673Y-233307D01*
X-680005D01*
X-683670Y-236973D01*
Y-251635D01*
X-680005Y-255300D01*
X-672673D01*
X-669008Y-251635D01*
X-661677Y-233307D02*
Y-251635D01*
X-658012Y-255300D01*
X-650681D01*
X-647015Y-251635D01*
Y-233307D01*
X-617691D02*
Y-255300D01*
X-610360Y-247969D01*
X-603029Y-255300D01*
Y-233307D01*
X-595698D02*
X-581036D01*
Y-236973D01*
X-595698Y-251635D01*
Y-255300D01*
X-551713Y-233307D02*
X-537051D01*
X-544382D01*
Y-255300D01*
X-529720D02*
X-515058Y-240639D01*
X-507727Y-233307D02*
X-493065D01*
X-500396D01*
Y-255300D01*
X-1193172Y-291453D02*
X-1185841D01*
X-1182176Y-287788D01*
Y-280457D01*
X-1185841Y-276791D01*
X-1193172D01*
X-1196837Y-280457D01*
Y-287788D01*
X-1193172Y-291453D01*
Y-265795D02*
X-1185841Y-269460D01*
X-1138190Y-273126D02*
X-1141855Y-269460D01*
X-1149186D01*
X-1152852Y-273126D01*
Y-276791D01*
X-1149186Y-280457D01*
X-1141855D01*
X-1138190Y-284122D01*
Y-287788D01*
X-1141855Y-291453D01*
X-1149186D01*
X-1152852Y-287788D01*
X-1130859Y-269460D02*
X-1116197D01*
X-1123528D01*
Y-291453D01*
X-1108866Y-269460D02*
X-1101535D01*
X-1105201D01*
Y-291453D01*
X-1108866D01*
X-1101535D01*
X-1075877Y-269460D02*
X-1090538D01*
Y-280457D01*
X-1083207D01*
X-1090538D01*
Y-291453D01*
X-1053884Y-269460D02*
X-1068546D01*
Y-280457D01*
X-1061215D01*
X-1068546D01*
Y-291453D01*
X-1031891Y-269460D02*
X-1046553D01*
Y-291453D01*
X-1031891D01*
X-1046553Y-280457D02*
X-1039222D01*
X-1024560Y-291453D02*
Y-269460D01*
X-1009898Y-291453D01*
Y-269460D01*
X-987905D02*
X-1002567D01*
Y-291453D01*
X-987905D01*
X-1002567Y-280457D02*
X-995236D01*
X-980574Y-291453D02*
Y-269460D01*
X-969578D01*
X-965912Y-273126D01*
Y-280457D01*
X-969578Y-284122D01*
X-980574D01*
X-973243D02*
X-965912Y-291453D01*
X-936588Y-269460D02*
X-929257D01*
X-932923D01*
Y-291453D01*
X-936588D01*
X-929257D01*
X-918261D02*
Y-276791D01*
X-910930Y-269460D01*
X-903599Y-276791D01*
Y-291453D01*
Y-280457D01*
X-918261D01*
X-896268Y-269460D02*
Y-291453D01*
X-888937Y-284122D01*
X-881606Y-291453D01*
Y-269460D01*
X-852282D02*
X-844951D01*
X-848617D01*
Y-291453D01*
X-852282D01*
X-844951D01*
X-833955D02*
Y-269460D01*
X-822958D01*
X-819293Y-273126D01*
Y-280457D01*
X-822958Y-284122D01*
X-833955D01*
X-797300Y-273126D02*
X-800965Y-269460D01*
X-808296D01*
X-811962Y-273126D01*
Y-287788D01*
X-808296Y-291453D01*
X-800965D01*
X-797300Y-287788D01*
X-789969Y-280457D02*
X-775307D01*
X-756980Y-291453D02*
Y-269460D01*
X-767976Y-280457D01*
X-753314D01*
X-731321Y-291453D02*
X-745983D01*
X-731321Y-276791D01*
Y-273126D01*
X-734987Y-269460D01*
X-742318D01*
X-745983Y-273126D01*
X-723990D02*
X-720325Y-269460D01*
X-712994D01*
X-709328Y-273126D01*
Y-287788D01*
X-712994Y-291453D01*
X-720325D01*
X-723990Y-287788D01*
Y-273126D01*
X-701997D02*
X-698332Y-269460D01*
X-691001D01*
X-687335Y-273126D01*
Y-276791D01*
X-691001Y-280457D01*
X-694666D01*
X-691001D01*
X-687335Y-284122D01*
Y-287788D01*
X-691001Y-291453D01*
X-698332D01*
X-701997Y-287788D01*
X-680005Y-291453D02*
X-665342Y-276791D01*
X-658012Y-291453D02*
X-650681D01*
X-654346D01*
Y-269460D01*
X-658012Y-273126D01*
X-639684Y-280457D02*
X-625022D01*
X-603029Y-269460D02*
X-617691D01*
Y-291453D01*
X-603029D01*
X-617691Y-280457D02*
X-610360D01*
X-595698Y-291453D02*
X-588367D01*
X-592033D01*
Y-269460D01*
X-595698Y-273126D01*
X-562709Y-269460D02*
X-577371D01*
Y-291453D01*
X-562709D01*
X-577371Y-280457D02*
X-570040D01*
X-555378Y-273126D02*
X-551713Y-269460D01*
X-544382D01*
X-540716Y-273126D01*
Y-276791D01*
X-544382Y-280457D01*
X-540716Y-284122D01*
Y-287788D01*
X-544382Y-291453D01*
X-551713D01*
X-555378Y-287788D01*
Y-284122D01*
X-551713Y-280457D01*
X-555378Y-276791D01*
Y-273126D01*
X-551713Y-280457D02*
X-544382D01*
X-533385Y-291453D02*
Y-269460D01*
X-526054Y-276791D01*
X-518723Y-269460D01*
Y-291453D01*
X-511392D02*
X-504061D01*
X-507727D01*
Y-269460D01*
X-511392Y-273126D01*
X-1416767Y-338101D02*
X-1413101Y-334435D01*
X-1405770D01*
X-1402104Y-338101D01*
Y-341766D01*
X-1405770Y-345432D01*
X-1409435D01*
X-1405770D01*
X-1402104Y-349097D01*
Y-352763D01*
X-1405770Y-356428D01*
X-1413101D01*
X-1416767Y-352763D01*
X-1394774Y-356428D02*
Y-352763D01*
X-1391108D01*
Y-356428D01*
X-1394774D01*
X-1339791Y-334435D02*
X-1354453D01*
Y-345432D01*
X-1347122D01*
X-1354453D01*
Y-356428D01*
X-1332460Y-334435D02*
X-1325129D01*
X-1328795D01*
Y-356428D01*
X-1332460D01*
X-1325129D01*
X-1314133D02*
Y-334435D01*
X-1299471Y-356428D01*
Y-334435D01*
X-1292140D02*
X-1284809D01*
X-1288475D01*
Y-356428D01*
X-1292140D01*
X-1284809D01*
X-1259151Y-338101D02*
X-1262816Y-334435D01*
X-1270147D01*
X-1273813Y-338101D01*
Y-341766D01*
X-1270147Y-345432D01*
X-1262816D01*
X-1259151Y-349097D01*
Y-352763D01*
X-1262816Y-356428D01*
X-1270147D01*
X-1273813Y-352763D01*
X-1251820Y-334435D02*
Y-356428D01*
Y-345432D01*
X-1237158D01*
Y-334435D01*
Y-356428D01*
X-1229827Y-341766D02*
X-1226161D01*
Y-345432D01*
X-1229827D01*
Y-341766D01*
Y-352763D02*
X-1226161D01*
Y-356428D01*
X-1229827D01*
Y-352763D01*
X-1167514Y-334435D02*
X-1160183D01*
X-1163848D01*
Y-356428D01*
X-1167514D01*
X-1160183D01*
X-1149186D02*
Y-334435D01*
X-1141855Y-341766D01*
X-1134524Y-334435D01*
Y-356428D01*
X-1127193D02*
Y-334435D01*
X-1119862Y-341766D01*
X-1112531Y-334435D01*
Y-356428D01*
X-1090538Y-334435D02*
X-1105200D01*
Y-356428D01*
X-1090538D01*
X-1105200Y-345432D02*
X-1097869D01*
X-1083207Y-356428D02*
Y-334435D01*
X-1072211D01*
X-1068546Y-338101D01*
Y-345432D01*
X-1072211Y-349097D01*
X-1083207D01*
X-1075876D02*
X-1068546Y-356428D01*
X-1046553Y-338101D02*
X-1050218Y-334435D01*
X-1057549D01*
X-1061215Y-338101D01*
Y-341766D01*
X-1057549Y-345432D01*
X-1050218D01*
X-1046553Y-349097D01*
Y-352763D01*
X-1050218Y-356428D01*
X-1057549D01*
X-1061215Y-352763D01*
X-1039222Y-334435D02*
X-1031891D01*
X-1035556D01*
Y-356428D01*
X-1039222D01*
X-1031891D01*
X-1009898Y-334435D02*
X-1017229D01*
X-1020894Y-338101D01*
Y-352763D01*
X-1017229Y-356428D01*
X-1009898D01*
X-1006232Y-352763D01*
Y-338101D01*
X-1009898Y-334435D01*
X-998901Y-356428D02*
Y-334435D01*
X-984240Y-356428D01*
Y-334435D01*
X-940254Y-338101D02*
X-943919Y-334435D01*
X-951250D01*
X-954916Y-338101D01*
Y-352763D01*
X-951250Y-356428D01*
X-943919D01*
X-940254Y-352763D01*
Y-345432D01*
X-947585D01*
X-921926Y-334435D02*
X-929257D01*
X-932923Y-338101D01*
Y-352763D01*
X-929257Y-356428D01*
X-921926D01*
X-918261Y-352763D01*
Y-338101D01*
X-921926Y-334435D01*
X-910930D02*
Y-356428D01*
X-896268D01*
X-888937Y-334435D02*
Y-356428D01*
X-877941D01*
X-874275Y-352763D01*
Y-338101D01*
X-877941Y-334435D01*
X-888937D01*
X-1416767Y-421403D02*
Y-406741D01*
X-1409435Y-399410D01*
X-1402104Y-406741D01*
Y-421403D01*
Y-410407D01*
X-1416767D01*
X-1394774Y-399410D02*
Y-421403D01*
X-1380112D01*
X-1372781Y-399410D02*
Y-421403D01*
X-1358119D01*
X-1314133Y-399410D02*
X-1328795D01*
Y-421403D01*
X-1314133D01*
X-1328795Y-410407D02*
X-1321464D01*
X-1306802Y-399410D02*
X-1292140Y-421403D01*
Y-399410D02*
X-1306802Y-421403D01*
X-1284809D02*
Y-399410D01*
X-1273813D01*
X-1270147Y-403076D01*
Y-410407D01*
X-1273813Y-414072D01*
X-1284809D01*
X-1251820Y-399410D02*
X-1259151D01*
X-1262816Y-403076D01*
Y-417738D01*
X-1259151Y-421403D01*
X-1251820D01*
X-1248154Y-417738D01*
Y-403076D01*
X-1251820Y-399410D01*
X-1226161Y-403076D02*
X-1229827Y-399410D01*
X-1237158D01*
X-1240823Y-403076D01*
Y-406741D01*
X-1237158Y-410407D01*
X-1229827D01*
X-1226161Y-414072D01*
Y-417738D01*
X-1229827Y-421403D01*
X-1237158D01*
X-1240823Y-417738D01*
X-1204168Y-399410D02*
X-1218830D01*
Y-421403D01*
X-1204168D01*
X-1218830Y-410407D02*
X-1211499D01*
X-1196837Y-399410D02*
Y-421403D01*
X-1185841D01*
X-1182176Y-417738D01*
Y-403076D01*
X-1185841Y-399410D01*
X-1196837D01*
X-1138190Y-403076D02*
X-1141855Y-399410D01*
X-1149186D01*
X-1152852Y-403076D01*
Y-417738D01*
X-1149186Y-421403D01*
X-1141855D01*
X-1138190Y-417738D01*
X-1119862Y-399410D02*
X-1127193D01*
X-1130859Y-403076D01*
Y-417738D01*
X-1127193Y-421403D01*
X-1119862D01*
X-1116197Y-417738D01*
Y-403076D01*
X-1119862Y-399410D01*
X-1108866Y-421403D02*
Y-399410D01*
X-1094204Y-421403D01*
Y-399410D01*
X-1086873D02*
Y-421403D01*
X-1075877D01*
X-1072211Y-417738D01*
Y-403076D01*
X-1075877Y-399410D01*
X-1086873D01*
X-1064880D02*
Y-417738D01*
X-1061215Y-421403D01*
X-1053884D01*
X-1050218Y-417738D01*
Y-399410D01*
X-1028225Y-403076D02*
X-1031891Y-399410D01*
X-1039222D01*
X-1042887Y-403076D01*
Y-417738D01*
X-1039222Y-421403D01*
X-1031891D01*
X-1028225Y-417738D01*
X-1020894Y-399410D02*
X-1006232D01*
X-1013563D01*
Y-421403D01*
X-998902Y-399410D02*
X-991571D01*
X-995236D01*
Y-421403D01*
X-998902D01*
X-991571D01*
X-980574Y-399410D02*
Y-414072D01*
X-973243Y-421403D01*
X-965912Y-414072D01*
Y-399410D01*
X-943919D02*
X-958581D01*
Y-421403D01*
X-943919D01*
X-958581Y-410407D02*
X-951250D01*
X-914595Y-421403D02*
Y-399410D01*
X-903599D01*
X-899933Y-403076D01*
Y-410407D01*
X-903599Y-414072D01*
X-914595D01*
X-892602Y-421403D02*
Y-406741D01*
X-885272Y-399410D01*
X-877941Y-406741D01*
Y-421403D01*
Y-410407D01*
X-892602D01*
X-870610Y-399410D02*
X-855948D01*
X-863279D01*
Y-421403D01*
X-848617Y-399410D02*
X-833955D01*
X-841286D01*
Y-421403D01*
X-811962Y-399410D02*
X-826624D01*
Y-421403D01*
X-811962D01*
X-826624Y-410407D02*
X-819293D01*
X-804631Y-421403D02*
Y-399410D01*
X-793634D01*
X-789969Y-403076D01*
Y-410407D01*
X-793634Y-414072D01*
X-804631D01*
X-797300D02*
X-789969Y-421403D01*
X-782638D02*
Y-399410D01*
X-767976Y-421403D01*
Y-399410D01*
X-738652Y-421403D02*
Y-406741D01*
X-731321Y-399410D01*
X-723990Y-406741D01*
Y-421403D01*
Y-410407D01*
X-738652D01*
X-716659Y-421403D02*
Y-399410D01*
X-705663D01*
X-701997Y-403076D01*
Y-410407D01*
X-705663Y-414072D01*
X-716659D01*
X-709328D02*
X-701997Y-421403D01*
X-680005Y-399410D02*
X-694666D01*
Y-421403D01*
X-680005D01*
X-694666Y-410407D02*
X-687335D01*
X-672673Y-421403D02*
Y-406741D01*
X-665342Y-399410D01*
X-658012Y-406741D01*
Y-421403D01*
Y-410407D01*
X-672673D01*
X-636019Y-403076D02*
X-639684Y-399410D01*
X-647015D01*
X-650681Y-403076D01*
Y-406741D01*
X-647015Y-410407D01*
X-639684D01*
X-636019Y-414072D01*
Y-417738D01*
X-639684Y-421403D01*
X-647015D01*
X-650681Y-417738D01*
X-606695Y-421403D02*
Y-399410D01*
X-592033Y-421403D01*
Y-399410D01*
X-573705D02*
X-581036D01*
X-584702Y-403076D01*
Y-417738D01*
X-581036Y-421403D01*
X-573705D01*
X-570040Y-417738D01*
Y-403076D01*
X-573705Y-399410D01*
X-562709D02*
X-548047D01*
X-555378D01*
Y-421403D01*
X-504061Y-403076D02*
X-507727Y-399410D01*
X-515058D01*
X-518723Y-403076D01*
Y-417738D01*
X-515058Y-421403D01*
X-507727D01*
X-504061Y-417738D01*
X-485734Y-399410D02*
X-493065D01*
X-496730Y-403076D01*
Y-417738D01*
X-493065Y-421403D01*
X-485734D01*
X-482068Y-417738D01*
Y-403076D01*
X-485734Y-399410D01*
X-474738D02*
Y-414072D01*
X-467407Y-421403D01*
X-460075Y-414072D01*
Y-399410D01*
X-438083D02*
X-452745D01*
Y-421403D01*
X-438083D01*
X-452745Y-410407D02*
X-445414D01*
X-430752Y-421403D02*
Y-399410D01*
X-419755D01*
X-416090Y-403076D01*
Y-410407D01*
X-419755Y-414072D01*
X-430752D01*
X-423421D02*
X-416090Y-421403D01*
X-394097Y-399410D02*
X-408759D01*
Y-421403D01*
X-394097D01*
X-408759Y-410407D02*
X-401428D01*
X-386766Y-399410D02*
Y-421403D01*
X-375769D01*
X-372104Y-417738D01*
Y-403076D01*
X-375769Y-399410D01*
X-386766D01*
X-342780D02*
Y-421403D01*
X-335449Y-414072D01*
X-328118Y-421403D01*
Y-399410D01*
X-320787D02*
X-313456D01*
X-317122D01*
Y-421403D01*
X-320787D01*
X-313456D01*
X-302460Y-399410D02*
X-287798D01*
X-295129D01*
Y-421403D01*
X-280467Y-399410D02*
Y-421403D01*
Y-410407D01*
X-265805D01*
Y-399410D01*
Y-421403D01*
X-221819Y-403076D02*
X-225485Y-399410D01*
X-232816D01*
X-236481Y-403076D01*
Y-417738D01*
X-232816Y-421403D01*
X-225485D01*
X-221819Y-417738D01*
X-203492Y-399410D02*
X-210823D01*
X-214488Y-403076D01*
Y-417738D01*
X-210823Y-421403D01*
X-203492D01*
X-199826Y-417738D01*
Y-403076D01*
X-203492Y-399410D01*
X-192495D02*
Y-414072D01*
X-185164Y-421403D01*
X-177833Y-414072D01*
Y-399410D01*
X-155841D02*
X-170502D01*
Y-421403D01*
X-155841D01*
X-170502Y-410407D02*
X-163171D01*
X-148510Y-421403D02*
Y-399410D01*
X-137513D01*
X-133848Y-403076D01*
Y-410407D01*
X-137513Y-414072D01*
X-148510D01*
X-141179D02*
X-133848Y-421403D01*
X-126517Y-399410D02*
Y-421403D01*
X-111855D01*
X-104524D02*
Y-406741D01*
X-97193Y-399410D01*
X-89862Y-406741D01*
Y-421403D01*
Y-410407D01*
X-104524D01*
X-82531Y-399410D02*
Y-403076D01*
X-75200Y-410407D01*
X-67869Y-403076D01*
Y-399410D01*
X-75200Y-410407D02*
Y-421403D01*
X-38545D02*
Y-399410D01*
X-31214Y-406741D01*
X-23883Y-399410D01*
Y-421403D01*
X-16552D02*
Y-406741D01*
X-9221Y-399410D01*
X-1890Y-406741D01*
Y-421403D01*
Y-410407D01*
X-16552D01*
X5441Y-399410D02*
X20103D01*
X12772D01*
Y-421403D01*
X42096Y-399410D02*
X27434D01*
Y-421403D01*
X42096D01*
X27434Y-410407D02*
X34765D01*
X49426Y-421403D02*
Y-399410D01*
X60423D01*
X64089Y-403076D01*
Y-410407D01*
X60423Y-414072D01*
X49426D01*
X56757D02*
X64089Y-421403D01*
X71419Y-399410D02*
X78750D01*
X75085D01*
Y-421403D01*
X71419D01*
X78750D01*
X89747D02*
Y-406741D01*
X97078Y-399410D01*
X104409Y-406741D01*
Y-421403D01*
Y-410407D01*
X89747D01*
X111740Y-399410D02*
Y-421403D01*
X126402D01*
X166722Y-399410D02*
X159391D01*
X155725Y-403076D01*
Y-417738D01*
X159391Y-421403D01*
X166722D01*
X170387Y-417738D01*
Y-403076D01*
X166722Y-399410D01*
X177718Y-421403D02*
Y-399410D01*
X188715D01*
X192380Y-403076D01*
Y-410407D01*
X188715Y-414072D01*
X177718D01*
X185049D02*
X192380Y-421403D01*
X232701Y-399410D02*
X225370D01*
X221704Y-403076D01*
Y-417738D01*
X225370Y-421403D01*
X232701D01*
X236366Y-417738D01*
Y-403076D01*
X232701Y-399410D01*
X243697D02*
X258359D01*
X251028D01*
Y-421403D01*
X265690Y-399410D02*
Y-421403D01*
Y-410407D01*
X280352D01*
Y-399410D01*
Y-421403D01*
X302345Y-399410D02*
X287683D01*
Y-421403D01*
X302345D01*
X287683Y-410407D02*
X295014D01*
X309676Y-421403D02*
Y-399410D01*
X320672D01*
X324338Y-403076D01*
Y-410407D01*
X320672Y-414072D01*
X309676D01*
X317007D02*
X324338Y-421403D01*
X353662D02*
Y-399410D01*
X364658D01*
X368324Y-403076D01*
Y-410407D01*
X364658Y-414072D01*
X353662D01*
X375654Y-399410D02*
Y-421403D01*
X390316D01*
X397647D02*
Y-406741D01*
X404978Y-399410D01*
X412309Y-406741D01*
Y-421403D01*
Y-410407D01*
X397647D01*
X419640Y-399410D02*
X434302D01*
X426971D01*
Y-421403D01*
X441633Y-399410D02*
X448964D01*
X445299D01*
Y-421403D01*
X441633D01*
X448964D01*
X459961D02*
Y-399410D01*
X474622Y-421403D01*
Y-399410D01*
X496615Y-403076D02*
X492950Y-399410D01*
X485619D01*
X481954Y-403076D01*
Y-417738D01*
X485619Y-421403D01*
X492950D01*
X496615Y-417738D01*
Y-410407D01*
X489285D01*
X-1402104Y-435563D02*
X-1405770Y-431898D01*
X-1413101D01*
X-1416767Y-435563D01*
Y-439229D01*
X-1413101Y-442894D01*
X-1405770D01*
X-1402104Y-446560D01*
Y-450225D01*
X-1405770Y-453891D01*
X-1413101D01*
X-1416767Y-450225D01*
X-1394774Y-431898D02*
Y-453891D01*
Y-442894D01*
X-1380112D01*
Y-431898D01*
Y-453891D01*
X-1372781D02*
Y-439229D01*
X-1365450Y-431898D01*
X-1358119Y-439229D01*
Y-453891D01*
Y-442894D01*
X-1372781D01*
X-1350788Y-431898D02*
Y-453891D01*
X-1336126D01*
X-1328795Y-431898D02*
Y-453891D01*
X-1314133D01*
X-1284809Y-431898D02*
Y-453891D01*
X-1273813D01*
X-1270147Y-450225D01*
Y-446560D01*
X-1273813Y-442894D01*
X-1284809D01*
X-1273813D01*
X-1270147Y-439229D01*
Y-435563D01*
X-1273813Y-431898D01*
X-1284809D01*
X-1248154D02*
X-1262816D01*
Y-453891D01*
X-1248154D01*
X-1262816Y-442894D02*
X-1255485D01*
X-1218830Y-431898D02*
X-1211499D01*
X-1215165D01*
Y-453891D01*
X-1218830D01*
X-1211499D01*
X-1200503D02*
Y-431898D01*
X-1193172Y-439229D01*
X-1185841Y-431898D01*
Y-453891D01*
X-1178510D02*
Y-431898D01*
X-1171179Y-439229D01*
X-1163848Y-431898D01*
Y-453891D01*
X-1141855Y-431898D02*
X-1156517D01*
Y-453891D01*
X-1141855D01*
X-1156517Y-442894D02*
X-1149186D01*
X-1134524Y-453891D02*
Y-431898D01*
X-1123528D01*
X-1119862Y-435563D01*
Y-442894D01*
X-1123528Y-446560D01*
X-1134524D01*
X-1127193D02*
X-1119862Y-453891D01*
X-1097869Y-435563D02*
X-1101535Y-431898D01*
X-1108866D01*
X-1112531Y-435563D01*
Y-439229D01*
X-1108866Y-442894D01*
X-1101535D01*
X-1097869Y-446560D01*
Y-450225D01*
X-1101535Y-453891D01*
X-1108866D01*
X-1112531Y-450225D01*
X-1090538Y-431898D02*
X-1083207D01*
X-1086873D01*
Y-453891D01*
X-1090538D01*
X-1083207D01*
X-1061215Y-431898D02*
X-1068546D01*
X-1072211Y-435563D01*
Y-450225D01*
X-1068546Y-453891D01*
X-1061215D01*
X-1057549Y-450225D01*
Y-435563D01*
X-1061215Y-431898D01*
X-1050218Y-453891D02*
Y-431898D01*
X-1035556Y-453891D01*
Y-431898D01*
X-991571Y-435563D02*
X-995236Y-431898D01*
X-1002567D01*
X-1006232Y-435563D01*
Y-450225D01*
X-1002567Y-453891D01*
X-995236D01*
X-991571Y-450225D01*
Y-442894D01*
X-998901D01*
X-973243Y-431898D02*
X-980574D01*
X-984240Y-435563D01*
Y-450225D01*
X-980574Y-453891D01*
X-973243D01*
X-969578Y-450225D01*
Y-435563D01*
X-973243Y-431898D01*
X-962247D02*
Y-453891D01*
X-947585D01*
X-940254Y-431898D02*
Y-453891D01*
X-929257D01*
X-925592Y-450225D01*
Y-435563D01*
X-929257Y-431898D01*
X-940254D01*
X-888937Y-453891D02*
X-896268Y-446560D01*
Y-439229D01*
X-888937Y-431898D01*
X-877941Y-435563D02*
X-874275Y-431898D01*
X-866944D01*
X-863279Y-435563D01*
Y-450225D01*
X-866944Y-453891D01*
X-874275D01*
X-877941Y-450225D01*
Y-435563D01*
X-855948Y-453891D02*
Y-450225D01*
X-852282D01*
Y-453891D01*
X-855948D01*
X-837620Y-435563D02*
X-833955Y-431898D01*
X-826624D01*
X-822958Y-435563D01*
Y-450225D01*
X-826624Y-453891D01*
X-833955D01*
X-837620Y-450225D01*
Y-435563D01*
X-815627D02*
X-811962Y-431898D01*
X-804631D01*
X-800965Y-435563D01*
Y-450225D01*
X-804631Y-453891D01*
X-811962D01*
X-815627Y-450225D01*
Y-435563D01*
X-793634D02*
X-789969Y-431898D01*
X-782638D01*
X-778972Y-435563D01*
Y-450225D01*
X-782638Y-453891D01*
X-789969D01*
X-793634Y-450225D01*
Y-435563D01*
X-771641D02*
X-767976Y-431898D01*
X-760645D01*
X-756980Y-435563D01*
Y-450225D01*
X-760645Y-453891D01*
X-767976D01*
X-771641Y-450225D01*
Y-435563D01*
X-749649D02*
X-745983Y-431898D01*
X-738652D01*
X-734987Y-435563D01*
Y-439229D01*
X-738652Y-442894D01*
X-742318D01*
X-738652D01*
X-734987Y-446560D01*
Y-450225D01*
X-738652Y-453891D01*
X-745983D01*
X-749649Y-450225D01*
X-727656Y-435563D02*
X-723990Y-431898D01*
X-716659D01*
X-712994Y-435563D01*
Y-450225D01*
X-716659Y-453891D01*
X-723990D01*
X-727656Y-450225D01*
Y-435563D01*
X-705663Y-442894D02*
X-691001D01*
X-683670Y-435563D02*
X-680005Y-431898D01*
X-672673D01*
X-669008Y-435563D01*
Y-450225D01*
X-672673Y-453891D01*
X-680005D01*
X-683670Y-450225D01*
Y-435563D01*
X-661677Y-453891D02*
Y-450225D01*
X-658012D01*
Y-453891D01*
X-661677D01*
X-643350Y-435563D02*
X-639684Y-431898D01*
X-632353D01*
X-628688Y-435563D01*
Y-450225D01*
X-632353Y-453891D01*
X-639684D01*
X-643350Y-450225D01*
Y-435563D01*
X-621357D02*
X-617691Y-431898D01*
X-610360D01*
X-606695Y-435563D01*
Y-450225D01*
X-610360Y-453891D01*
X-617691D01*
X-621357Y-450225D01*
Y-435563D01*
X-599364D02*
X-595698Y-431898D01*
X-588367D01*
X-584702Y-435563D01*
Y-450225D01*
X-588367Y-453891D01*
X-595698D01*
X-599364Y-450225D01*
Y-435563D01*
X-577371D02*
X-573705Y-431898D01*
X-566375D01*
X-562709Y-435563D01*
Y-450225D01*
X-566375Y-453891D01*
X-573705D01*
X-577371Y-450225D01*
Y-435563D01*
X-555378Y-450225D02*
X-551713Y-453891D01*
X-544382D01*
X-540716Y-450225D01*
Y-435563D01*
X-544382Y-431898D01*
X-551713D01*
X-555378Y-435563D01*
Y-439229D01*
X-551713Y-442894D01*
X-540716D01*
X-533385Y-435563D02*
X-529720Y-431898D01*
X-522389D01*
X-518723Y-435563D01*
Y-450225D01*
X-522389Y-453891D01*
X-529720D01*
X-533385Y-450225D01*
Y-435563D01*
X-489399Y-453891D02*
Y-439229D01*
X-485734D01*
X-482068Y-442894D01*
Y-453891D01*
Y-442894D01*
X-478403Y-439229D01*
X-474737Y-442894D01*
Y-453891D01*
X-467407D02*
Y-439229D01*
X-463741D01*
X-460075Y-442894D01*
Y-453891D01*
Y-442894D01*
X-456410Y-439229D01*
X-452744Y-442894D01*
Y-453891D01*
X-445414D02*
X-438083Y-446560D01*
Y-439229D01*
X-445414Y-431898D01*
X-394097D02*
X-401428D01*
X-405093Y-435563D01*
Y-450225D01*
X-401428Y-453891D01*
X-394097D01*
X-390431Y-450225D01*
Y-435563D01*
X-394097Y-431898D01*
X-383100D02*
Y-446560D01*
X-375769Y-453891D01*
X-368438Y-446560D01*
Y-431898D01*
X-346446D02*
X-361107D01*
Y-453891D01*
X-346446D01*
X-361107Y-442894D02*
X-353777D01*
X-339115Y-453891D02*
Y-431898D01*
X-328118D01*
X-324453Y-435563D01*
Y-442894D01*
X-328118Y-446560D01*
X-339115D01*
X-331784D02*
X-324453Y-453891D01*
X-280467Y-431898D02*
X-295129D01*
Y-453891D01*
X-280467D01*
X-295129Y-442894D02*
X-287798D01*
X-273136Y-431898D02*
Y-453891D01*
X-258474D01*
X-236481Y-431898D02*
X-251143D01*
Y-453891D01*
X-236481D01*
X-251143Y-442894D02*
X-243812D01*
X-214488Y-435563D02*
X-218154Y-431898D01*
X-225485D01*
X-229150Y-435563D01*
Y-450225D01*
X-225485Y-453891D01*
X-218154D01*
X-214488Y-450225D01*
X-207157Y-431898D02*
X-192495D01*
X-199826D01*
Y-453891D01*
X-185164D02*
Y-431898D01*
X-174168D01*
X-170502Y-435563D01*
Y-442894D01*
X-174168Y-446560D01*
X-185164D01*
X-177833D02*
X-170502Y-453891D01*
X-152175Y-431898D02*
X-159506D01*
X-163171Y-435563D01*
Y-450225D01*
X-159506Y-453891D01*
X-152175D01*
X-148510Y-450225D01*
Y-435563D01*
X-152175Y-431898D01*
X-141179D02*
Y-453891D01*
X-126517D01*
X-104524Y-431898D02*
X-119186D01*
Y-453891D01*
X-104524D01*
X-119186Y-442894D02*
X-111855D01*
X-82531Y-435563D02*
X-86196Y-431898D01*
X-93527D01*
X-97193Y-435563D01*
Y-439229D01*
X-93527Y-442894D01*
X-86196D01*
X-82531Y-446560D01*
Y-450225D01*
X-86196Y-453891D01*
X-93527D01*
X-97193Y-450225D01*
X-60538Y-435563D02*
X-64203Y-431898D01*
X-71534D01*
X-75200Y-435563D01*
Y-439229D01*
X-71534Y-442894D01*
X-64203D01*
X-60538Y-446560D01*
Y-450225D01*
X-64203Y-453891D01*
X-71534D01*
X-75200Y-450225D01*
X-31214Y-453891D02*
Y-431898D01*
X-16552Y-453891D01*
Y-431898D01*
X-9221D02*
X-1890D01*
X-5556D01*
Y-453891D01*
X-9221D01*
X-1890D01*
X23768Y-435563D02*
X20103Y-431898D01*
X12772D01*
X9106Y-435563D01*
Y-450225D01*
X12772Y-453891D01*
X20103D01*
X23768Y-450225D01*
X31099Y-431898D02*
Y-453891D01*
Y-446560D01*
X45761Y-431898D01*
X34765Y-442894D01*
X45761Y-453891D01*
X67754Y-431898D02*
X53092D01*
Y-453891D01*
X67754D01*
X53092Y-442894D02*
X60423D01*
X75085Y-431898D02*
Y-453891D01*
X89747D01*
X126402D02*
X119071Y-446560D01*
Y-439229D01*
X126402Y-431898D01*
X137398Y-435563D02*
X141064Y-431898D01*
X148395D01*
X152060Y-435563D01*
Y-450225D01*
X148395Y-453891D01*
X141064D01*
X137398Y-450225D01*
Y-435563D01*
X159391Y-453891D02*
Y-450225D01*
X163057D01*
Y-453891D01*
X159391D01*
X177719Y-435563D02*
X181384Y-431898D01*
X188715D01*
X192380Y-435563D01*
Y-450225D01*
X188715Y-453891D01*
X181384D01*
X177719Y-450225D01*
Y-435563D01*
X199711D02*
X203377Y-431898D01*
X210708D01*
X214373Y-435563D01*
Y-450225D01*
X210708Y-453891D01*
X203377D01*
X199711Y-450225D01*
Y-435563D01*
X221704Y-453891D02*
X229035D01*
X225370D01*
Y-431898D01*
X221704Y-435563D01*
X240032Y-442894D02*
X254694D01*
X262025Y-435563D02*
X265690Y-431898D01*
X273021D01*
X276686Y-435563D01*
Y-450225D01*
X273021Y-453891D01*
X265690D01*
X262025Y-450225D01*
Y-435563D01*
X284018Y-453891D02*
Y-450225D01*
X287683D01*
Y-453891D01*
X284018D01*
X302345Y-435563D02*
X306010Y-431898D01*
X313341D01*
X317007Y-435563D01*
Y-450225D01*
X313341Y-453891D01*
X306010D01*
X302345Y-450225D01*
Y-435563D01*
X324338D02*
X328003Y-431898D01*
X335334D01*
X339000Y-435563D01*
Y-450225D01*
X335334Y-453891D01*
X328003D01*
X324338Y-450225D01*
Y-435563D01*
X360993Y-431898D02*
X353662Y-435563D01*
X346331Y-442894D01*
Y-450225D01*
X349996Y-453891D01*
X357327D01*
X360993Y-450225D01*
Y-446560D01*
X357327Y-442894D01*
X346331D01*
X390317Y-453891D02*
Y-439229D01*
X393982D01*
X397648Y-442894D01*
Y-453891D01*
Y-442894D01*
X401313Y-439229D01*
X404978Y-442894D01*
Y-453891D01*
X412309D02*
Y-439229D01*
X415975D01*
X419640Y-442894D01*
Y-453891D01*
Y-442894D01*
X423306Y-439229D01*
X426971Y-442894D01*
Y-453891D01*
X434302D02*
X441633Y-446560D01*
Y-439229D01*
X434302Y-431898D01*
X452630Y-453891D02*
Y-450225D01*
X456295D01*
Y-453891D01*
X452630D01*
X-1405770Y-518866D02*
Y-496873D01*
X-1416767Y-507869D01*
X-1402104D01*
X-1394774Y-518866D02*
Y-515200D01*
X-1391108D01*
Y-518866D01*
X-1394774D01*
X-1354453Y-496873D02*
Y-518866D01*
X-1339791D01*
X-1317798Y-496873D02*
X-1332460D01*
Y-518866D01*
X-1317798D01*
X-1332460Y-507869D02*
X-1325129D01*
X-1295806Y-500538D02*
X-1299471Y-496873D01*
X-1306802D01*
X-1310468Y-500538D01*
Y-515200D01*
X-1306802Y-518866D01*
X-1299471D01*
X-1295806Y-515200D01*
Y-507869D01*
X-1303136D01*
X-1273813Y-496873D02*
X-1288475D01*
Y-518866D01*
X-1273813D01*
X-1288475Y-507869D02*
X-1281144D01*
X-1266482Y-518866D02*
Y-496873D01*
X-1251820Y-518866D01*
Y-496873D01*
X-1244489D02*
Y-518866D01*
X-1233492D01*
X-1229827Y-515200D01*
Y-500538D01*
X-1233492Y-496873D01*
X-1244489D01*
X-1185841Y-500538D02*
X-1189507Y-496873D01*
X-1196837D01*
X-1200503Y-500538D01*
Y-504204D01*
X-1196837Y-507869D01*
X-1189507D01*
X-1185841Y-511535D01*
Y-515200D01*
X-1189507Y-518866D01*
X-1196837D01*
X-1200503Y-515200D01*
X-1178510Y-496873D02*
Y-518866D01*
Y-507869D01*
X-1163848D01*
Y-496873D01*
Y-518866D01*
X-1156517D02*
Y-504204D01*
X-1149186Y-496873D01*
X-1141855Y-504204D01*
Y-518866D01*
Y-507869D01*
X-1156517D01*
X-1134524Y-496873D02*
Y-518866D01*
X-1119862D01*
X-1112531Y-496873D02*
Y-518866D01*
X-1097869D01*
X-1068546Y-496873D02*
Y-518866D01*
X-1057549D01*
X-1053884Y-515200D01*
Y-511535D01*
X-1057549Y-507869D01*
X-1068546D01*
X-1057549D01*
X-1053884Y-504204D01*
Y-500538D01*
X-1057549Y-496873D01*
X-1068546D01*
X-1031891D02*
X-1046553D01*
Y-518866D01*
X-1031891D01*
X-1046553Y-507869D02*
X-1039222D01*
X-1002567Y-496873D02*
Y-518866D01*
X-995236Y-511535D01*
X-987905Y-518866D01*
Y-496873D01*
X-980574D02*
Y-518866D01*
Y-507869D01*
X-965912D01*
Y-496873D01*
Y-518866D01*
X-958581Y-496873D02*
X-951250D01*
X-954916D01*
Y-518866D01*
X-958581D01*
X-951250D01*
X-940254Y-496873D02*
X-925592D01*
X-932923D01*
Y-518866D01*
X-903599Y-496873D02*
X-918261D01*
Y-518866D01*
X-903599D01*
X-918261Y-507869D02*
X-910930D01*
X-892602Y-522531D02*
X-888937Y-518866D01*
Y-515200D01*
X-892602D01*
Y-518866D01*
X-888937D01*
X-892602Y-522531D01*
X-896268Y-526197D01*
X-852282Y-518866D02*
Y-496873D01*
X-841286D01*
X-837620Y-500538D01*
Y-507869D01*
X-841286Y-511535D01*
X-852282D01*
X-815627Y-496873D02*
X-830289D01*
Y-518866D01*
X-815627D01*
X-830289Y-507869D02*
X-822958D01*
X-808296Y-518866D02*
Y-496873D01*
X-797300D01*
X-793634Y-500538D01*
Y-507869D01*
X-797300Y-511535D01*
X-808296D01*
X-800965D02*
X-793634Y-518866D01*
X-786303D02*
Y-496873D01*
X-778972Y-504204D01*
X-771641Y-496873D01*
Y-518866D01*
X-764311D02*
Y-504204D01*
X-756980Y-496873D01*
X-749649Y-504204D01*
Y-518866D01*
Y-507869D01*
X-764311D01*
X-742318Y-518866D02*
Y-496873D01*
X-727656Y-518866D01*
Y-496873D01*
X-705663D02*
X-720325D01*
Y-518866D01*
X-705663D01*
X-720325Y-507869D02*
X-712994D01*
X-698332Y-518866D02*
Y-496873D01*
X-683670Y-518866D01*
Y-496873D01*
X-676339D02*
X-661677D01*
X-669008D01*
Y-518866D01*
X-650681Y-522531D02*
X-647015Y-518866D01*
Y-515200D01*
X-650681D01*
Y-518866D01*
X-647015D01*
X-650681Y-522531D01*
X-654346Y-526197D01*
X-599364Y-496873D02*
X-606695D01*
X-610360Y-500538D01*
Y-515200D01*
X-606695Y-518866D01*
X-599364D01*
X-595698Y-515200D01*
Y-500538D01*
X-599364Y-496873D01*
X-588367Y-518866D02*
Y-496873D01*
X-577371D01*
X-573705Y-500538D01*
Y-507869D01*
X-577371Y-511535D01*
X-588367D01*
X-581036D02*
X-573705Y-518866D01*
X-551713Y-500538D02*
X-555378Y-496873D01*
X-562709D01*
X-566375Y-500538D01*
Y-515200D01*
X-562709Y-518866D01*
X-555378D01*
X-551713Y-515200D01*
Y-507869D01*
X-559044D01*
X-544382Y-518866D02*
Y-504204D01*
X-537051Y-496873D01*
X-529720Y-504204D01*
Y-518866D01*
Y-507869D01*
X-544382D01*
X-522389Y-518866D02*
Y-496873D01*
X-507727Y-518866D01*
Y-496873D01*
X-500396D02*
X-493065D01*
X-496730D01*
Y-518866D01*
X-500396D01*
X-493065D01*
X-467407Y-500538D02*
X-471072Y-496873D01*
X-478403D01*
X-482068Y-500538D01*
Y-515200D01*
X-478403Y-518866D01*
X-471072D01*
X-467407Y-515200D01*
X-456410Y-522531D02*
X-452744Y-518866D01*
Y-515200D01*
X-456410D01*
Y-518866D01*
X-452744D01*
X-456410Y-522531D01*
X-460075Y-526197D01*
X-416090Y-518866D02*
Y-496873D01*
X-401428Y-518866D01*
Y-496873D01*
X-383100D02*
X-390431D01*
X-394097Y-500538D01*
Y-515200D01*
X-390431Y-518866D01*
X-383100D01*
X-379435Y-515200D01*
Y-500538D01*
X-383100Y-496873D01*
X-372104Y-518866D02*
Y-496873D01*
X-357442Y-518866D01*
Y-496873D01*
X-350111Y-507869D02*
X-335449D01*
X-313456Y-500538D02*
X-317122Y-496873D01*
X-324453D01*
X-328118Y-500538D01*
Y-515200D01*
X-324453Y-518866D01*
X-317122D01*
X-313456Y-515200D01*
X-295129Y-496873D02*
X-302460D01*
X-306125Y-500538D01*
Y-515200D01*
X-302460Y-518866D01*
X-295129D01*
X-291463Y-515200D01*
Y-500538D01*
X-295129Y-496873D01*
X-284132Y-518866D02*
Y-496873D01*
X-269470Y-518866D01*
Y-496873D01*
X-262139D02*
Y-518866D01*
X-251143D01*
X-247477Y-515200D01*
Y-500538D01*
X-251143Y-496873D01*
X-262139D01*
X-240147D02*
Y-515200D01*
X-236481Y-518866D01*
X-229150D01*
X-225485Y-515200D01*
Y-496873D01*
X-203492Y-500538D02*
X-207157Y-496873D01*
X-214488D01*
X-218154Y-500538D01*
Y-515200D01*
X-214488Y-518866D01*
X-207157D01*
X-203492Y-515200D01*
X-196161Y-496873D02*
X-181499D01*
X-188830D01*
Y-518866D01*
X-174168Y-496873D02*
X-166837D01*
X-170502D01*
Y-518866D01*
X-174168D01*
X-166837D01*
X-155841Y-496873D02*
Y-511535D01*
X-148510Y-518866D01*
X-141179Y-511535D01*
Y-496873D01*
X-119186D02*
X-133848D01*
Y-518866D01*
X-119186D01*
X-133848Y-507869D02*
X-126517D01*
X-89862Y-496873D02*
Y-515200D01*
X-86196Y-518866D01*
X-78865D01*
X-75200Y-515200D01*
Y-496873D01*
X-67869D02*
Y-511535D01*
X-60538Y-518866D01*
X-53207Y-511535D01*
Y-496873D01*
X-12887D02*
X-20218D01*
X-23883Y-500538D01*
Y-515200D01*
X-20218Y-518866D01*
X-12887D01*
X-9221Y-515200D01*
Y-500538D01*
X-12887Y-496873D01*
X-1890Y-518866D02*
Y-496873D01*
X9106D01*
X12772Y-500538D01*
Y-507869D01*
X9106Y-511535D01*
X-1890D01*
X5441D02*
X12772Y-518866D01*
X56757Y-496873D02*
X42096D01*
Y-518866D01*
X56757D01*
X42096Y-507869D02*
X49427D01*
X64089Y-518866D02*
Y-496873D01*
X75085D01*
X78750Y-500538D01*
Y-507869D01*
X75085Y-511535D01*
X64089D01*
X97078Y-496873D02*
X89747D01*
X86081Y-500538D01*
Y-515200D01*
X89747Y-518866D01*
X97078D01*
X100743Y-515200D01*
Y-500538D01*
X97078Y-496873D01*
X108074D02*
X122736Y-518866D01*
Y-496873D02*
X108074Y-518866D01*
X130067Y-496873D02*
Y-500538D01*
X137398Y-507869D01*
X144729Y-500538D01*
Y-496873D01*
X137398Y-507869D02*
Y-518866D01*
X174053Y-496873D02*
X188715D01*
X181384D01*
Y-518866D01*
X196046Y-496873D02*
Y-500538D01*
X203377Y-507869D01*
X210708Y-500538D01*
Y-496873D01*
X203377Y-507869D02*
Y-518866D01*
X218039D02*
Y-496873D01*
X229035D01*
X232701Y-500538D01*
Y-507869D01*
X229035Y-511535D01*
X218039D01*
X254694Y-496873D02*
X240032D01*
Y-518866D01*
X254694D01*
X240032Y-507869D02*
X247363D01*
X284017Y-496873D02*
X291348D01*
X287683D01*
Y-518866D01*
X284017D01*
X291348D01*
X302345D02*
Y-496873D01*
X317007Y-518866D01*
Y-496873D01*
X324338D02*
Y-518866D01*
Y-511535D01*
X339000Y-496873D01*
X328003Y-507869D01*
X339000Y-518866D01*
X368324D02*
Y-504204D01*
X375654Y-496873D01*
X382985Y-504204D01*
Y-518866D01*
Y-507869D01*
X368324D01*
X390316Y-518866D02*
Y-496873D01*
X401313D01*
X404978Y-500538D01*
Y-507869D01*
X401313Y-511535D01*
X390316D01*
X412309Y-518866D02*
Y-496873D01*
X423306D01*
X426971Y-500538D01*
Y-507869D01*
X423306Y-511535D01*
X412309D01*
X434302Y-496873D02*
Y-518866D01*
X448964D01*
X456295Y-496873D02*
X463626D01*
X459961D01*
Y-518866D01*
X456295D01*
X463626D01*
X489285Y-496873D02*
X474622D01*
Y-518866D01*
X489285D01*
X474622Y-507869D02*
X481954D01*
X496615Y-496873D02*
Y-518866D01*
X507612D01*
X511277Y-515200D01*
Y-500538D01*
X507612Y-496873D01*
X496615D01*
X-1416767Y-529360D02*
X-1402104D01*
X-1409435D01*
Y-551353D01*
X-1383777Y-529360D02*
X-1391108D01*
X-1394774Y-533026D01*
Y-547688D01*
X-1391108Y-551353D01*
X-1383777D01*
X-1380112Y-547688D01*
Y-533026D01*
X-1383777Y-529360D01*
X-1350788D02*
X-1336126D01*
X-1343457D01*
Y-551353D01*
X-1328795Y-529360D02*
Y-551353D01*
Y-540357D01*
X-1314133D01*
Y-529360D01*
Y-551353D01*
X-1292140Y-529360D02*
X-1306802D01*
Y-551353D01*
X-1292140D01*
X-1306802Y-540357D02*
X-1299471D01*
X-1262816Y-529360D02*
X-1248154D01*
X-1255485D01*
Y-551353D01*
X-1229827Y-529360D02*
X-1237158D01*
X-1240823Y-533026D01*
Y-547688D01*
X-1237158Y-551353D01*
X-1229827D01*
X-1226161Y-547688D01*
Y-533026D01*
X-1229827Y-529360D01*
X-1218830Y-551353D02*
Y-529360D01*
X-1207834D01*
X-1204168Y-533026D01*
Y-540357D01*
X-1207834Y-544022D01*
X-1218830D01*
X-1160183Y-533026D02*
X-1163848Y-529360D01*
X-1171179D01*
X-1174845Y-533026D01*
Y-536691D01*
X-1171179Y-540357D01*
X-1163848D01*
X-1160183Y-544022D01*
Y-547688D01*
X-1163848Y-551353D01*
X-1171179D01*
X-1174845Y-547688D01*
X-1152852Y-529360D02*
X-1145521D01*
X-1149186D01*
Y-551353D01*
X-1152852D01*
X-1145521D01*
X-1134524Y-529360D02*
Y-551353D01*
X-1123528D01*
X-1119862Y-547688D01*
Y-533026D01*
X-1123528Y-529360D01*
X-1134524D01*
X-1097869D02*
X-1112531D01*
Y-551353D01*
X-1097869D01*
X-1112531Y-540357D02*
X-1105200D01*
X-1057549Y-529360D02*
X-1064880D01*
X-1068546Y-533026D01*
Y-547688D01*
X-1064880Y-551353D01*
X-1057549D01*
X-1053884Y-547688D01*
Y-533026D01*
X-1057549Y-529360D01*
X-1031891D02*
X-1046553D01*
Y-540357D01*
X-1039222D01*
X-1046553D01*
Y-551353D01*
X-1002567Y-529360D02*
X-987905D01*
X-995236D01*
Y-551353D01*
X-980574Y-529360D02*
Y-551353D01*
Y-540357D01*
X-965912D01*
Y-529360D01*
Y-551353D01*
X-943919Y-529360D02*
X-958581D01*
Y-551353D01*
X-943919D01*
X-958581Y-540357D02*
X-951250D01*
X-914595Y-529360D02*
Y-551353D01*
X-903599D01*
X-899933Y-547688D01*
Y-544022D01*
X-903599Y-540357D01*
X-914595D01*
X-903599D01*
X-899933Y-536691D01*
Y-533026D01*
X-903599Y-529360D01*
X-914595D01*
X-881606D02*
X-888937D01*
X-892602Y-533026D01*
Y-547688D01*
X-888937Y-551353D01*
X-881606D01*
X-877941Y-547688D01*
Y-533026D01*
X-881606Y-529360D01*
X-870610Y-551353D02*
Y-536691D01*
X-863279Y-529360D01*
X-855948Y-536691D01*
Y-551353D01*
Y-540357D01*
X-870610D01*
X-848617Y-551353D02*
Y-529360D01*
X-837620D01*
X-833955Y-533026D01*
Y-540357D01*
X-837620Y-544022D01*
X-848617D01*
X-841286D02*
X-833955Y-551353D01*
X-826624Y-529360D02*
Y-551353D01*
X-815627D01*
X-811962Y-547688D01*
Y-533026D01*
X-815627Y-529360D01*
X-826624D01*
X-804631Y-551353D02*
Y-547688D01*
X-800965D01*
Y-551353D01*
X-804631D01*
X-764311Y-529360D02*
X-749649D01*
X-756980D01*
Y-551353D01*
X-742318Y-529360D02*
Y-551353D01*
Y-540357D01*
X-727656D01*
Y-529360D01*
Y-551353D01*
X-705663Y-529360D02*
X-720325D01*
Y-551353D01*
X-705663D01*
X-720325Y-540357D02*
X-712994D01*
X-698332Y-551353D02*
Y-529360D01*
X-687335D01*
X-683670Y-533026D01*
Y-540357D01*
X-687335Y-544022D01*
X-698332D01*
X-691001D02*
X-683670Y-551353D01*
X-661677Y-529360D02*
X-676339D01*
Y-551353D01*
X-661677D01*
X-676339Y-540357D02*
X-669008D01*
X-617691Y-533026D02*
X-621357Y-529360D01*
X-628688D01*
X-632353Y-533026D01*
Y-536691D01*
X-628688Y-540357D01*
X-621357D01*
X-617691Y-544022D01*
Y-547688D01*
X-621357Y-551353D01*
X-628688D01*
X-632353Y-547688D01*
X-610360Y-529360D02*
Y-551353D01*
Y-540357D01*
X-595698D01*
Y-529360D01*
Y-551353D01*
X-588367D02*
Y-536691D01*
X-581036Y-529360D01*
X-573705Y-536691D01*
Y-551353D01*
Y-540357D01*
X-588367D01*
X-566375Y-529360D02*
Y-551353D01*
X-551713D01*
X-544382Y-529360D02*
Y-551353D01*
X-529720D01*
X-500396Y-529360D02*
Y-551353D01*
X-489399D01*
X-485734Y-547688D01*
Y-544022D01*
X-489399Y-540357D01*
X-500396D01*
X-489399D01*
X-485734Y-536691D01*
Y-533026D01*
X-489399Y-529360D01*
X-500396D01*
X-463741D02*
X-478403D01*
Y-551353D01*
X-463741D01*
X-478403Y-540357D02*
X-471072D01*
X-434417Y-551353D02*
Y-529360D01*
X-419755Y-551353D01*
Y-529360D01*
X-401428D02*
X-408759D01*
X-412424Y-533026D01*
Y-547688D01*
X-408759Y-551353D01*
X-401428D01*
X-397762Y-547688D01*
Y-533026D01*
X-401428Y-529360D01*
X-368438D02*
Y-551353D01*
X-353777D01*
X-331784Y-529360D02*
X-346446D01*
Y-551353D01*
X-331784D01*
X-346446Y-540357D02*
X-339115D01*
X-309791Y-533026D02*
X-313456Y-529360D01*
X-320787D01*
X-324453Y-533026D01*
Y-547688D01*
X-320787Y-551353D01*
X-313456D01*
X-309791Y-547688D01*
Y-540357D01*
X-317122D01*
X-287798Y-529360D02*
X-302460D01*
Y-551353D01*
X-287798D01*
X-302460Y-540357D02*
X-295129D01*
X-280467Y-551353D02*
Y-529360D01*
X-265805Y-551353D01*
Y-529360D01*
X-258474D02*
Y-551353D01*
X-247477D01*
X-243812Y-547688D01*
Y-533026D01*
X-247477Y-529360D01*
X-258474D01*
X-203492D02*
X-210823D01*
X-214488Y-533026D01*
Y-547688D01*
X-210823Y-551353D01*
X-203492D01*
X-199826Y-547688D01*
Y-533026D01*
X-203492Y-529360D01*
X-192495Y-551353D02*
Y-529360D01*
X-177833Y-551353D01*
Y-529360D01*
X-148510Y-551353D02*
Y-536691D01*
X-141179Y-529360D01*
X-133848Y-536691D01*
Y-551353D01*
Y-540357D01*
X-148510D01*
X-126517Y-551353D02*
Y-529360D01*
X-111855Y-551353D01*
Y-529360D01*
X-104524D02*
Y-533026D01*
X-97193Y-540357D01*
X-89862Y-533026D01*
Y-529360D01*
X-97193Y-540357D02*
Y-551353D01*
X-45876Y-533026D02*
X-49542Y-529360D01*
X-56873D01*
X-60538Y-533026D01*
Y-536691D01*
X-56873Y-540357D01*
X-49542D01*
X-45876Y-544022D01*
Y-547688D01*
X-49542Y-551353D01*
X-56873D01*
X-60538Y-547688D01*
X-27549Y-529360D02*
X-34880D01*
X-38545Y-533026D01*
Y-547688D01*
X-34880Y-551353D01*
X-27549D01*
X-23883Y-547688D01*
Y-533026D01*
X-27549Y-529360D01*
X-16552D02*
Y-551353D01*
X-1890D01*
X5441Y-529360D02*
Y-551353D01*
X16437D01*
X20103Y-547688D01*
Y-533026D01*
X16437Y-529360D01*
X5441D01*
X42096D02*
X27434D01*
Y-551353D01*
X42096D01*
X27434Y-540357D02*
X34765D01*
X49426Y-551353D02*
Y-529360D01*
X60423D01*
X64089Y-533026D01*
Y-540357D01*
X60423Y-544022D01*
X49426D01*
X56757D02*
X64089Y-551353D01*
X71419D02*
Y-536691D01*
X78750Y-529360D01*
X86081Y-536691D01*
Y-551353D01*
Y-540357D01*
X71419D01*
X93412Y-529360D02*
Y-551353D01*
X104409D01*
X108074Y-547688D01*
Y-544022D01*
X104409Y-540357D01*
X93412D01*
X104409D01*
X108074Y-536691D01*
Y-533026D01*
X104409Y-529360D01*
X93412D01*
X115405D02*
Y-551353D01*
X130067D01*
X152060Y-529360D02*
X137398D01*
Y-551353D01*
X152060D01*
X137398Y-540357D02*
X144729D01*
X196046Y-533026D02*
X192380Y-529360D01*
X185049D01*
X181384Y-533026D01*
Y-547688D01*
X185049Y-551353D01*
X192380D01*
X196046Y-547688D01*
X214373Y-529360D02*
X207042D01*
X203377Y-533026D01*
Y-547688D01*
X207042Y-551353D01*
X214373D01*
X218039Y-547688D01*
Y-533026D01*
X214373Y-529360D01*
X225370Y-551353D02*
Y-529360D01*
X232701Y-536691D01*
X240032Y-529360D01*
Y-551353D01*
X247363D02*
Y-529360D01*
X258359D01*
X262024Y-533026D01*
Y-540357D01*
X258359Y-544022D01*
X247363D01*
X280352Y-529360D02*
X273021D01*
X269356Y-533026D01*
Y-547688D01*
X273021Y-551353D01*
X280352D01*
X284017Y-547688D01*
Y-533026D01*
X280352Y-529360D01*
X291348Y-551353D02*
Y-529360D01*
X306010Y-551353D01*
Y-529360D01*
X328003D02*
X313341D01*
Y-551353D01*
X328003D01*
X313341Y-540357D02*
X320672D01*
X335334Y-551353D02*
Y-529360D01*
X349996Y-551353D01*
Y-529360D01*
X357327D02*
X371989D01*
X364658D01*
Y-551353D01*
X401313Y-529360D02*
Y-551353D01*
X415975D01*
X423306D02*
Y-536691D01*
X430637Y-529360D01*
X437968Y-536691D01*
Y-551353D01*
Y-540357D01*
X423306D01*
X445299Y-551353D02*
Y-529360D01*
X459961Y-551353D01*
Y-529360D01*
X467291D02*
Y-551353D01*
X478288D01*
X481954Y-547688D01*
Y-533026D01*
X478288Y-529360D01*
X467291D01*
X489284Y-551353D02*
Y-547688D01*
X492950D01*
Y-551353D01*
X489284D01*
X-1402104Y-594335D02*
X-1416767D01*
Y-605331D01*
X-1409435Y-601666D01*
X-1405770D01*
X-1402104Y-605331D01*
Y-612663D01*
X-1405770Y-616328D01*
X-1413101D01*
X-1416767Y-612663D01*
X-1394774Y-616328D02*
Y-612663D01*
X-1391108D01*
Y-616328D01*
X-1394774D01*
X-1354453D02*
Y-601666D01*
X-1347122Y-594335D01*
X-1339791Y-601666D01*
Y-616328D01*
Y-605331D01*
X-1354453D01*
X-1332460Y-594335D02*
Y-616328D01*
X-1317798D01*
X-1310468Y-594335D02*
Y-616328D01*
X-1295806D01*
X-1266482D02*
Y-601666D01*
X-1259151Y-594335D01*
X-1251820Y-601666D01*
Y-616328D01*
Y-605331D01*
X-1266482D01*
X-1229827Y-598001D02*
X-1233492Y-594335D01*
X-1240823D01*
X-1244489Y-598001D01*
Y-601666D01*
X-1240823Y-605331D01*
X-1233492D01*
X-1229827Y-608997D01*
Y-612663D01*
X-1233492Y-616328D01*
X-1240823D01*
X-1244489Y-612663D01*
X-1207834Y-598001D02*
X-1211499Y-594335D01*
X-1218830D01*
X-1222496Y-598001D01*
Y-601666D01*
X-1218830Y-605331D01*
X-1211499D01*
X-1207834Y-608997D01*
Y-612663D01*
X-1211499Y-616328D01*
X-1218830D01*
X-1222496Y-612663D01*
X-1185841Y-594335D02*
X-1200503D01*
Y-616328D01*
X-1185841D01*
X-1200503Y-605331D02*
X-1193172D01*
X-1178510Y-616328D02*
Y-594335D01*
X-1171179Y-601666D01*
X-1163848Y-594335D01*
Y-616328D01*
X-1156517Y-594335D02*
Y-616328D01*
X-1145521D01*
X-1141855Y-612663D01*
Y-608997D01*
X-1145521Y-605331D01*
X-1156517D01*
X-1145521D01*
X-1141855Y-601666D01*
Y-598001D01*
X-1145521Y-594335D01*
X-1156517D01*
X-1134524D02*
Y-616328D01*
X-1119862D01*
X-1112531Y-594335D02*
Y-598001D01*
X-1105200Y-605331D01*
X-1097869Y-598001D01*
Y-594335D01*
X-1105200Y-605331D02*
Y-616328D01*
X-1068546D02*
Y-594335D01*
X-1061215Y-601666D01*
X-1053884Y-594335D01*
Y-616328D01*
X-1046553D02*
Y-601666D01*
X-1039222Y-594335D01*
X-1031891Y-601666D01*
Y-616328D01*
Y-605331D01*
X-1046553D01*
X-1024560Y-594335D02*
X-1009898D01*
X-1017229D01*
Y-616328D01*
X-987905Y-594335D02*
X-1002567D01*
Y-616328D01*
X-987905D01*
X-1002567Y-605331D02*
X-995236D01*
X-980574Y-616328D02*
Y-594335D01*
X-969578D01*
X-965912Y-598001D01*
Y-605331D01*
X-969578Y-608997D01*
X-980574D01*
X-973243D02*
X-965912Y-616328D01*
X-958581Y-594335D02*
X-951250D01*
X-954916D01*
Y-616328D01*
X-958581D01*
X-951250D01*
X-940254D02*
Y-601666D01*
X-932923Y-594335D01*
X-925592Y-601666D01*
Y-616328D01*
Y-605331D01*
X-940254D01*
X-918261Y-594335D02*
Y-616328D01*
X-903599D01*
X-881606Y-598001D02*
X-885272Y-594335D01*
X-892602D01*
X-896268Y-598001D01*
Y-601666D01*
X-892602Y-605331D01*
X-885272D01*
X-881606Y-608997D01*
Y-612663D01*
X-885272Y-616328D01*
X-892602D01*
X-896268Y-612663D01*
X-852282Y-594335D02*
X-837620D01*
X-844951D01*
Y-616328D01*
X-819293Y-594335D02*
X-826624D01*
X-830289Y-598001D01*
Y-612663D01*
X-826624Y-616328D01*
X-819293D01*
X-815627Y-612663D01*
Y-598001D01*
X-819293Y-594335D01*
X-786303D02*
Y-616328D01*
X-775307D01*
X-771641Y-612663D01*
Y-608997D01*
X-775307Y-605331D01*
X-786303D01*
X-775307D01*
X-771641Y-601666D01*
Y-598001D01*
X-775307Y-594335D01*
X-786303D01*
X-749649D02*
X-764311D01*
Y-616328D01*
X-749649D01*
X-764311Y-605331D02*
X-756980D01*
X-720325Y-616328D02*
Y-594335D01*
X-709328D01*
X-705663Y-598001D01*
Y-605331D01*
X-709328Y-608997D01*
X-720325D01*
X-712994D02*
X-705663Y-616328D01*
X-694666D02*
X-687335D01*
X-683670Y-612663D01*
Y-605331D01*
X-687335Y-601666D01*
X-694666D01*
X-698332Y-605331D01*
Y-612663D01*
X-694666Y-616328D01*
X-676339Y-594335D02*
Y-616328D01*
Y-605331D01*
X-661677D01*
Y-594335D01*
Y-616328D01*
X-639684Y-598001D02*
X-643350Y-594335D01*
X-650681D01*
X-654346Y-598001D01*
Y-601666D01*
X-650681Y-605331D01*
X-643350D01*
X-639684Y-608997D01*
Y-612663D01*
X-643350Y-616328D01*
X-650681D01*
X-654346Y-612663D01*
X-595698Y-598001D02*
X-599364Y-594335D01*
X-606695D01*
X-610360Y-598001D01*
Y-612663D01*
X-606695Y-616328D01*
X-599364D01*
X-595698Y-612663D01*
X-577371Y-594335D02*
X-584702D01*
X-588367Y-598001D01*
Y-612663D01*
X-584702Y-616328D01*
X-577371D01*
X-573705Y-612663D01*
Y-598001D01*
X-577371Y-594335D01*
X-566375Y-616328D02*
Y-594335D01*
X-559044Y-601666D01*
X-551713Y-594335D01*
Y-616328D01*
X-544382D02*
Y-594335D01*
X-533385D01*
X-529720Y-598001D01*
Y-605331D01*
X-533385Y-608997D01*
X-544382D01*
X-522389Y-594335D02*
Y-616328D01*
X-507727D01*
X-500396Y-594335D02*
X-493065D01*
X-496730D01*
Y-616328D01*
X-500396D01*
X-493065D01*
X-482068D02*
Y-601666D01*
X-474737Y-594335D01*
X-467407Y-601666D01*
Y-616328D01*
Y-605331D01*
X-482068D01*
X-460075Y-616328D02*
Y-594335D01*
X-445414Y-616328D01*
Y-594335D01*
X-438083D02*
X-423421D01*
X-430752D01*
Y-616328D01*
X-416090D02*
Y-612663D01*
X-412424D01*
Y-616328D01*
X-416090D01*
X-1402104Y-659310D02*
X-1409435Y-662975D01*
X-1416767Y-670306D01*
Y-677637D01*
X-1413101Y-681303D01*
X-1405770D01*
X-1402104Y-677637D01*
Y-673972D01*
X-1405770Y-670306D01*
X-1416767D01*
X-1394774Y-681303D02*
Y-677637D01*
X-1391108D01*
Y-681303D01*
X-1394774D01*
X-1354453D02*
Y-666641D01*
X-1347122Y-659310D01*
X-1339791Y-666641D01*
Y-681303D01*
Y-670306D01*
X-1354453D01*
X-1332460Y-681303D02*
Y-659310D01*
X-1317798Y-681303D01*
Y-659310D01*
X-1310468D02*
Y-662975D01*
X-1303136Y-670306D01*
X-1295806Y-662975D01*
Y-659310D01*
X-1303136Y-670306D02*
Y-681303D01*
X-1266482Y-659310D02*
Y-681303D01*
X-1251820D01*
X-1244489D02*
Y-666641D01*
X-1237158Y-659310D01*
X-1229827Y-666641D01*
Y-681303D01*
Y-670306D01*
X-1244489D01*
X-1222496Y-659310D02*
Y-681303D01*
X-1211499D01*
X-1207834Y-677637D01*
Y-673972D01*
X-1211499Y-670306D01*
X-1222496D01*
X-1211499D01*
X-1207834Y-666641D01*
Y-662975D01*
X-1211499Y-659310D01*
X-1222496D01*
X-1185841D02*
X-1200503D01*
Y-681303D01*
X-1185841D01*
X-1200503Y-670306D02*
X-1193172D01*
X-1178510Y-659310D02*
Y-681303D01*
X-1163848D01*
X-1141855Y-662975D02*
X-1145521Y-659310D01*
X-1152852D01*
X-1156517Y-662975D01*
Y-666641D01*
X-1152852Y-670306D01*
X-1145521D01*
X-1141855Y-673972D01*
Y-677637D01*
X-1145521Y-681303D01*
X-1152852D01*
X-1156517Y-677637D01*
X-1101535Y-659310D02*
X-1108866D01*
X-1112531Y-662975D01*
Y-677637D01*
X-1108866Y-681303D01*
X-1101535D01*
X-1097869Y-677637D01*
Y-662975D01*
X-1101535Y-659310D01*
X-1090538Y-681303D02*
Y-659310D01*
X-1079542D01*
X-1075877Y-662975D01*
Y-670306D01*
X-1079542Y-673972D01*
X-1090538D01*
X-1083207D02*
X-1075877Y-681303D01*
X-1031891Y-662975D02*
X-1035556Y-659310D01*
X-1042887D01*
X-1046553Y-662975D01*
Y-677637D01*
X-1042887Y-681303D01*
X-1035556D01*
X-1031891Y-677637D01*
X-1013563Y-659310D02*
X-1020894D01*
X-1024560Y-662975D01*
Y-677637D01*
X-1020894Y-681303D01*
X-1013563D01*
X-1009898Y-677637D01*
Y-662975D01*
X-1013563Y-659310D01*
X-1002567Y-681303D02*
Y-659310D01*
X-995236Y-666641D01*
X-987905Y-659310D01*
Y-681303D01*
X-980574D02*
Y-659310D01*
X-969578D01*
X-965912Y-662975D01*
Y-670306D01*
X-969578Y-673972D01*
X-980574D01*
X-947585Y-659310D02*
X-954916D01*
X-958581Y-662975D01*
Y-677637D01*
X-954916Y-681303D01*
X-947585D01*
X-943919Y-677637D01*
Y-662975D01*
X-947585Y-659310D01*
X-921926Y-662975D02*
X-925592Y-659310D01*
X-932923D01*
X-936588Y-662975D01*
Y-666641D01*
X-932923Y-670306D01*
X-925592D01*
X-921926Y-673972D01*
Y-677637D01*
X-925592Y-681303D01*
X-932923D01*
X-936588Y-677637D01*
X-914595Y-659310D02*
X-907264D01*
X-910930D01*
Y-681303D01*
X-914595D01*
X-907264D01*
X-896268Y-659310D02*
X-881606D01*
X-888937D01*
Y-681303D01*
X-874275Y-659310D02*
X-866944D01*
X-870610D01*
Y-681303D01*
X-874275D01*
X-866944D01*
X-844951Y-659310D02*
X-852282D01*
X-855948Y-662975D01*
Y-677637D01*
X-852282Y-681303D01*
X-844951D01*
X-841286Y-677637D01*
Y-662975D01*
X-844951Y-659310D01*
X-833955Y-681303D02*
Y-659310D01*
X-819293Y-681303D01*
Y-659310D01*
X-778972D02*
X-786303D01*
X-789969Y-662975D01*
Y-677637D01*
X-786303Y-681303D01*
X-778972D01*
X-775307Y-677637D01*
Y-662975D01*
X-778972Y-659310D01*
X-753314D02*
X-767976D01*
Y-670306D01*
X-760645D01*
X-767976D01*
Y-681303D01*
X-742318Y-684968D02*
X-738652Y-681303D01*
Y-677637D01*
X-742318D01*
Y-681303D01*
X-738652D01*
X-742318Y-684968D01*
X-745983Y-688634D01*
X-701997Y-681303D02*
Y-666641D01*
X-694666Y-659310D01*
X-687335Y-666641D01*
Y-681303D01*
Y-670306D01*
X-701997D01*
X-680005Y-681303D02*
Y-659310D01*
X-669008D01*
X-665342Y-662975D01*
Y-670306D01*
X-669008Y-673972D01*
X-680005D01*
X-658012Y-681303D02*
Y-659310D01*
X-647015D01*
X-643350Y-662975D01*
Y-670306D01*
X-647015Y-673972D01*
X-658012D01*
X-636019Y-659310D02*
Y-681303D01*
X-621357D01*
X-614026Y-659310D02*
X-606695D01*
X-610360D01*
Y-681303D01*
X-614026D01*
X-606695D01*
X-581036Y-659310D02*
X-595698D01*
Y-681303D01*
X-581036D01*
X-595698Y-670306D02*
X-588367D01*
X-573705Y-659310D02*
Y-681303D01*
X-562709D01*
X-559044Y-677637D01*
Y-662975D01*
X-562709Y-659310D01*
X-573705D01*
X-529720D02*
X-515058D01*
X-522389D01*
Y-681303D01*
X-496730Y-659310D02*
X-504061D01*
X-507727Y-662975D01*
Y-677637D01*
X-504061Y-681303D01*
X-496730D01*
X-493065Y-677637D01*
Y-662975D01*
X-496730Y-659310D01*
X-463741D02*
X-449079D01*
X-456410D01*
Y-681303D01*
X-441748Y-659310D02*
Y-681303D01*
Y-670306D01*
X-427086D01*
Y-659310D01*
Y-681303D01*
X-405093Y-659310D02*
X-419755D01*
Y-681303D01*
X-405093D01*
X-419755Y-670306D02*
X-412424D01*
X-375769Y-659310D02*
Y-681303D01*
X-364773D01*
X-361107Y-677637D01*
Y-673972D01*
X-364773Y-670306D01*
X-375769D01*
X-364773D01*
X-361107Y-666641D01*
Y-662975D01*
X-364773Y-659310D01*
X-375769D01*
X-342780D02*
X-350111D01*
X-353777Y-662975D01*
Y-677637D01*
X-350111Y-681303D01*
X-342780D01*
X-339115Y-677637D01*
Y-662975D01*
X-342780Y-659310D01*
X-331784Y-681303D02*
Y-666641D01*
X-324453Y-659310D01*
X-317122Y-666641D01*
Y-681303D01*
Y-670306D01*
X-331784D01*
X-309791Y-681303D02*
Y-659310D01*
X-298794D01*
X-295129Y-662975D01*
Y-670306D01*
X-298794Y-673972D01*
X-309791D01*
X-302460D02*
X-295129Y-681303D01*
X-287798Y-659310D02*
Y-681303D01*
X-276801D01*
X-273136Y-677637D01*
Y-662975D01*
X-276801Y-659310D01*
X-287798D01*
X-243812Y-681303D02*
Y-659310D01*
X-229150Y-681303D01*
Y-659310D01*
X-207157D02*
X-221819D01*
Y-681303D01*
X-207157D01*
X-221819Y-670306D02*
X-214488D01*
X-185164Y-659310D02*
X-199826D01*
Y-681303D01*
X-185164D01*
X-199826Y-670306D02*
X-192495D01*
X-177833Y-659310D02*
Y-681303D01*
X-166837D01*
X-163171Y-677637D01*
Y-662975D01*
X-166837Y-659310D01*
X-177833D01*
X-133848D02*
X-119186D01*
X-126517D01*
Y-681303D01*
X-100858Y-659310D02*
X-108189D01*
X-111855Y-662975D01*
Y-677637D01*
X-108189Y-681303D01*
X-100858D01*
X-97193Y-677637D01*
Y-662975D01*
X-100858Y-659310D01*
X-67869D02*
Y-681303D01*
X-56872D01*
X-53207Y-677637D01*
Y-673972D01*
X-56872Y-670306D01*
X-67869D01*
X-56872D01*
X-53207Y-666641D01*
Y-662975D01*
X-56872Y-659310D01*
X-67869D01*
X-31214D02*
X-45876D01*
Y-681303D01*
X-31214D01*
X-45876Y-670306D02*
X-38545D01*
X-1890Y-681303D02*
Y-666641D01*
X5441Y-659310D01*
X12772Y-666641D01*
Y-681303D01*
Y-670306D01*
X-1890D01*
X20103Y-681303D02*
Y-659310D01*
X31099D01*
X34765Y-662975D01*
Y-670306D01*
X31099Y-673972D01*
X20103D01*
X42096Y-681303D02*
Y-659310D01*
X53092D01*
X56757Y-662975D01*
Y-670306D01*
X53092Y-673972D01*
X42096D01*
X64089Y-681303D02*
Y-659310D01*
X75085D01*
X78750Y-662975D01*
Y-670306D01*
X75085Y-673972D01*
X64089D01*
X71420D02*
X78750Y-681303D01*
X97078Y-659310D02*
X89747D01*
X86081Y-662975D01*
Y-677637D01*
X89747Y-681303D01*
X97078D01*
X100743Y-677637D01*
Y-662975D01*
X97078Y-659310D01*
X108074D02*
Y-673972D01*
X115405Y-681303D01*
X122736Y-673972D01*
Y-659310D01*
X130067D02*
X137398D01*
X133733D01*
Y-681303D01*
X130067D01*
X137398D01*
X163057Y-659310D02*
X148395D01*
Y-681303D01*
X163057D01*
X148395Y-670306D02*
X155726D01*
X170387Y-659310D02*
Y-681303D01*
X181384D01*
X185049Y-677637D01*
Y-662975D01*
X181384Y-659310D01*
X170387D01*
X214373D02*
Y-681303D01*
X225370D01*
X229035Y-677637D01*
Y-673972D01*
X225370Y-670306D01*
X214373D01*
X225370D01*
X229035Y-666641D01*
Y-662975D01*
X225370Y-659310D01*
X214373D01*
X236366D02*
Y-662975D01*
X243697Y-670306D01*
X251028Y-662975D01*
Y-659310D01*
X243697Y-670306D02*
Y-681303D01*
X280352D02*
Y-666641D01*
X287683Y-659310D01*
X295014Y-666641D01*
Y-681303D01*
Y-670306D01*
X280352D01*
X302345Y-659310D02*
X309676D01*
X306010D01*
Y-681303D01*
X302345D01*
X309676D01*
X320672D02*
Y-659310D01*
X331669D01*
X335334Y-662975D01*
Y-670306D01*
X331669Y-673972D01*
X320672D01*
X328003D02*
X335334Y-681303D01*
X342665Y-659310D02*
X357327D01*
Y-662975D01*
X342665Y-677637D01*
Y-681303D01*
X357327D01*
X364658D02*
Y-666641D01*
X371989Y-659310D01*
X379320Y-666641D01*
Y-681303D01*
Y-670306D01*
X364658D01*
X386651Y-659310D02*
X393982D01*
X390316D01*
Y-681303D01*
X386651D01*
X393982D01*
X-1416767Y-724285D02*
X-1402104D01*
Y-727950D01*
X-1416767Y-742612D01*
Y-746278D01*
X-1394774D02*
Y-742612D01*
X-1391108D01*
Y-746278D01*
X-1394774D01*
X-1354453D02*
Y-724285D01*
X-1347122Y-731616D01*
X-1339791Y-724285D01*
Y-746278D01*
X-1332460Y-724285D02*
X-1325129D01*
X-1328795D01*
Y-746278D01*
X-1332460D01*
X-1325129D01*
X-1314133D02*
Y-724285D01*
X-1299471Y-746278D01*
Y-724285D01*
X-1292140D02*
X-1284809D01*
X-1288475D01*
Y-746278D01*
X-1292140D01*
X-1284809D01*
X-1273813D02*
Y-724285D01*
X-1266482Y-731616D01*
X-1259151Y-724285D01*
Y-746278D01*
X-1251820Y-724285D02*
Y-742612D01*
X-1248154Y-746278D01*
X-1240823D01*
X-1237158Y-742612D01*
Y-724285D01*
X-1229827Y-746278D02*
Y-724285D01*
X-1222496Y-731616D01*
X-1215165Y-724285D01*
Y-746278D01*
X-1185841Y-724285D02*
X-1171179D01*
X-1178510D01*
Y-746278D01*
X-1163848D02*
Y-724285D01*
X-1152852D01*
X-1149186Y-727950D01*
Y-735281D01*
X-1152852Y-738947D01*
X-1163848D01*
X-1156517D02*
X-1149186Y-746278D01*
X-1141855D02*
Y-731616D01*
X-1134524Y-724285D01*
X-1127193Y-731616D01*
Y-746278D01*
Y-735281D01*
X-1141855D01*
X-1105200Y-727950D02*
X-1108866Y-724285D01*
X-1116197D01*
X-1119862Y-727950D01*
Y-742612D01*
X-1116197Y-746278D01*
X-1108866D01*
X-1105200Y-742612D01*
X-1083207Y-724285D02*
X-1097869D01*
Y-746278D01*
X-1083207D01*
X-1097869Y-735281D02*
X-1090538D01*
X-1053884Y-724285D02*
Y-746278D01*
X-1046553Y-738947D01*
X-1039222Y-746278D01*
Y-724285D01*
X-1031891D02*
X-1024560D01*
X-1028225D01*
Y-746278D01*
X-1031891D01*
X-1024560D01*
X-1013563Y-724285D02*
Y-746278D01*
X-1002567D01*
X-998901Y-742612D01*
Y-727950D01*
X-1002567Y-724285D01*
X-1013563D01*
X-991571D02*
X-976908D01*
X-984240D01*
Y-746278D01*
X-969578Y-724285D02*
Y-746278D01*
Y-735281D01*
X-954916D01*
Y-724285D01*
Y-746278D01*
X-932923Y-727950D02*
X-936588Y-724285D01*
X-943919D01*
X-947585Y-727950D01*
Y-731616D01*
X-943919Y-735281D01*
X-936588D01*
X-932923Y-738947D01*
Y-742612D01*
X-936588Y-746278D01*
X-943919D01*
X-947585Y-742612D01*
X-925592Y-731616D02*
X-921926D01*
Y-735281D01*
X-925592D01*
Y-731616D01*
Y-742612D02*
X-921926D01*
Y-746278D01*
X-925592D01*
Y-742612D01*
X-1182176Y-756772D02*
X-1196837D01*
Y-778765D01*
X-1182176D01*
X-1196837Y-767769D02*
X-1189507D01*
X-1174845Y-756772D02*
X-1160183Y-778765D01*
Y-756772D02*
X-1174845Y-778765D01*
X-1152852Y-756772D02*
X-1138190D01*
X-1145521D01*
Y-778765D01*
X-1116197Y-756772D02*
X-1130859D01*
Y-778765D01*
X-1116197D01*
X-1130859Y-767769D02*
X-1123528D01*
X-1108866Y-778765D02*
Y-756772D01*
X-1097869D01*
X-1094204Y-760438D01*
Y-767769D01*
X-1097869Y-771434D01*
X-1108866D01*
X-1101535D02*
X-1094204Y-778765D01*
X-1086873D02*
Y-756772D01*
X-1072211Y-778765D01*
Y-756772D01*
X-1064880Y-778765D02*
Y-764103D01*
X-1057549Y-756772D01*
X-1050218Y-764103D01*
Y-778765D01*
Y-767769D01*
X-1064880D01*
X-1042887Y-756772D02*
Y-778765D01*
X-1028225D01*
X-1020894Y-764103D02*
X-1017229D01*
Y-767769D01*
X-1020894D01*
Y-764103D01*
Y-775100D02*
X-1017229D01*
Y-778765D01*
X-1020894D01*
Y-775100D01*
X-980574Y-760438D02*
X-976909Y-756772D01*
X-969578D01*
X-965912Y-760438D01*
Y-775100D01*
X-969578Y-778765D01*
X-976909D01*
X-980574Y-775100D01*
Y-760438D01*
X-958581Y-778765D02*
Y-775100D01*
X-954916D01*
Y-778765D01*
X-958581D01*
X-925592D02*
X-940254D01*
X-925592Y-764103D01*
Y-760438D01*
X-929257Y-756772D01*
X-936588D01*
X-940254Y-760438D01*
X-918261D02*
X-914595Y-756772D01*
X-907264D01*
X-903599Y-760438D01*
Y-775100D01*
X-907264Y-778765D01*
X-914595D01*
X-918261Y-775100D01*
Y-760438D01*
X-896268D02*
X-892602Y-756772D01*
X-885272D01*
X-881606Y-760438D01*
Y-764103D01*
X-885272Y-767769D01*
X-888937D01*
X-885272D01*
X-881606Y-771434D01*
Y-775100D01*
X-885272Y-778765D01*
X-892602D01*
X-896268Y-775100D01*
X-852282Y-778765D02*
Y-764103D01*
X-848617D01*
X-844951Y-767769D01*
Y-778765D01*
Y-767769D01*
X-841286Y-764103D01*
X-837620Y-767769D01*
Y-778765D01*
X-830289D02*
Y-764103D01*
X-826624D01*
X-822958Y-767769D01*
Y-778765D01*
Y-767769D01*
X-819293Y-764103D01*
X-815627Y-767769D01*
Y-778765D01*
X-764311Y-756772D02*
X-756980D01*
X-760645D01*
Y-778765D01*
X-764311D01*
X-756980D01*
X-745983D02*
Y-756772D01*
X-731321Y-778765D01*
Y-756772D01*
X-723990D02*
X-709328D01*
X-716659D01*
Y-778765D01*
X-687335Y-756772D02*
X-701997D01*
Y-778765D01*
X-687335D01*
X-701997Y-767769D02*
X-694666D01*
X-680005Y-778765D02*
Y-756772D01*
X-669008D01*
X-665342Y-760438D01*
Y-767769D01*
X-669008Y-771434D01*
X-680005D01*
X-672673D02*
X-665342Y-778765D01*
X-658012D02*
Y-756772D01*
X-643350Y-778765D01*
Y-756772D01*
X-636019Y-778765D02*
Y-764103D01*
X-628688Y-756772D01*
X-621357Y-764103D01*
Y-778765D01*
Y-767769D01*
X-636019D01*
X-614026Y-756772D02*
Y-778765D01*
X-599364D01*
X-592033Y-764103D02*
X-588367D01*
Y-767769D01*
X-592033D01*
Y-764103D01*
Y-775100D02*
X-588367D01*
Y-778765D01*
X-592033D01*
Y-775100D01*
X-551713Y-778765D02*
Y-756772D01*
X-537051Y-778765D01*
Y-756772D01*
X-529720Y-778765D02*
X-515058Y-764103D01*
X-507727Y-778765D02*
Y-764103D01*
X-500396Y-756772D01*
X-493065Y-764103D01*
Y-778765D01*
Y-767769D01*
X-507727D01*
X-1416767Y-825413D02*
X-1413101Y-821747D01*
X-1405770D01*
X-1402104Y-825413D01*
Y-829078D01*
X-1405770Y-832744D01*
X-1402104Y-836409D01*
Y-840075D01*
X-1405770Y-843740D01*
X-1413101D01*
X-1416767Y-840075D01*
Y-836409D01*
X-1413101Y-832744D01*
X-1416767Y-829078D01*
Y-825413D01*
X-1413101Y-832744D02*
X-1405770D01*
X-1394774Y-843740D02*
Y-840075D01*
X-1391108D01*
Y-843740D01*
X-1394774D01*
X-1354453D02*
Y-821747D01*
X-1347122Y-829078D01*
X-1339791Y-821747D01*
Y-843740D01*
X-1332460Y-821747D02*
X-1325129D01*
X-1328795D01*
Y-843740D01*
X-1332460D01*
X-1325129D01*
X-1314133D02*
Y-821747D01*
X-1299471Y-843740D01*
Y-821747D01*
X-1292140D02*
X-1284809D01*
X-1288475D01*
Y-843740D01*
X-1292140D01*
X-1284809D01*
X-1273813D02*
Y-821747D01*
X-1266482Y-829078D01*
X-1259151Y-821747D01*
Y-843740D01*
X-1251820Y-821747D02*
Y-840075D01*
X-1248154Y-843740D01*
X-1240823D01*
X-1237158Y-840075D01*
Y-821747D01*
X-1229827Y-843740D02*
Y-821747D01*
X-1222496Y-829078D01*
X-1215165Y-821747D01*
Y-843740D01*
X-1171179Y-825413D02*
X-1174845Y-821747D01*
X-1182176D01*
X-1185841Y-825413D01*
Y-829078D01*
X-1182176Y-832744D01*
X-1174845D01*
X-1171179Y-836409D01*
Y-840075D01*
X-1174845Y-843740D01*
X-1182176D01*
X-1185841Y-840075D01*
X-1163848Y-843740D02*
Y-821747D01*
X-1152852D01*
X-1149186Y-825413D01*
Y-832744D01*
X-1152852Y-836409D01*
X-1163848D01*
X-1141855Y-843740D02*
Y-829078D01*
X-1134524Y-821747D01*
X-1127193Y-829078D01*
Y-843740D01*
Y-832744D01*
X-1141855D01*
X-1105200Y-825413D02*
X-1108866Y-821747D01*
X-1116197D01*
X-1119862Y-825413D01*
Y-840075D01*
X-1116197Y-843740D01*
X-1108866D01*
X-1105200Y-840075D01*
X-1083207Y-821747D02*
X-1097869D01*
Y-843740D01*
X-1083207D01*
X-1097869Y-832744D02*
X-1090538D01*
X-1053884Y-821747D02*
Y-843740D01*
X-1042887D01*
X-1039222Y-840075D01*
Y-836409D01*
X-1042887Y-832744D01*
X-1053884D01*
X-1042887D01*
X-1039222Y-829078D01*
Y-825413D01*
X-1042887Y-821747D01*
X-1053884D01*
X-1017229D02*
X-1031891D01*
Y-843740D01*
X-1017229D01*
X-1031891Y-832744D02*
X-1024560D01*
X-1009898Y-821747D02*
X-995236D01*
X-1002567D01*
Y-843740D01*
X-987905Y-821747D02*
Y-843740D01*
X-980574Y-836409D01*
X-973243Y-843740D01*
Y-821747D01*
X-951250D02*
X-965912D01*
Y-843740D01*
X-951250D01*
X-965912Y-832744D02*
X-958581D01*
X-929257Y-821747D02*
X-943919D01*
Y-843740D01*
X-929257D01*
X-943919Y-832744D02*
X-936588D01*
X-921926Y-843740D02*
Y-821747D01*
X-907264Y-843740D01*
Y-821747D01*
X-863279D02*
X-877941D01*
Y-832744D01*
X-870610D01*
X-877941D01*
Y-843740D01*
X-841286Y-821747D02*
X-855948D01*
Y-843740D01*
X-841286D01*
X-855948Y-832744D02*
X-848617D01*
X-833955Y-843740D02*
Y-829078D01*
X-826624Y-821747D01*
X-819293Y-829078D01*
Y-843740D01*
Y-832744D01*
X-833955D01*
X-811962Y-821747D02*
X-797300D01*
X-804631D01*
Y-843740D01*
X-789969Y-821747D02*
Y-840075D01*
X-786303Y-843740D01*
X-778972D01*
X-775307Y-840075D01*
Y-821747D01*
X-767976Y-843740D02*
Y-821747D01*
X-756980D01*
X-753314Y-825413D01*
Y-832744D01*
X-756980Y-836409D01*
X-767976D01*
X-760645D02*
X-753314Y-843740D01*
X-731321Y-821747D02*
X-745983D01*
Y-843740D01*
X-731321D01*
X-745983Y-832744D02*
X-738652D01*
X-709328Y-825413D02*
X-712994Y-821747D01*
X-720325D01*
X-723990Y-825413D01*
Y-829078D01*
X-720325Y-832744D01*
X-712994D01*
X-709328Y-836409D01*
Y-840075D01*
X-712994Y-843740D01*
X-720325D01*
X-723990Y-840075D01*
X-701997Y-829078D02*
X-698332D01*
Y-832744D01*
X-701997D01*
Y-829078D01*
Y-840075D02*
X-698332D01*
Y-843740D01*
X-701997D01*
Y-840075D01*
X-1204168Y-854235D02*
X-1218830D01*
Y-876228D01*
X-1204168D01*
X-1218830Y-865231D02*
X-1211499D01*
X-1196837Y-854235D02*
X-1182176Y-876228D01*
Y-854235D02*
X-1196837Y-876228D01*
X-1174845Y-854235D02*
X-1160183D01*
X-1167514D01*
Y-876228D01*
X-1138190Y-854235D02*
X-1152852D01*
Y-876228D01*
X-1138190D01*
X-1152852Y-865231D02*
X-1145521D01*
X-1130859Y-876228D02*
Y-854235D01*
X-1119862D01*
X-1116197Y-857900D01*
Y-865231D01*
X-1119862Y-868897D01*
X-1130859D01*
X-1123528D02*
X-1116197Y-876228D01*
X-1108866D02*
Y-854235D01*
X-1094204Y-876228D01*
Y-854235D01*
X-1086873Y-876228D02*
Y-861566D01*
X-1079542Y-854235D01*
X-1072211Y-861566D01*
Y-876228D01*
Y-865231D01*
X-1086873D01*
X-1064880Y-854235D02*
Y-876228D01*
X-1050218D01*
X-1042887Y-861566D02*
X-1039222D01*
Y-865231D01*
X-1042887D01*
Y-861566D01*
Y-872562D02*
X-1039222D01*
Y-876228D01*
X-1042887D01*
Y-872562D01*
X-1002567Y-857900D02*
X-998902Y-854235D01*
X-991571D01*
X-987905Y-857900D01*
Y-872562D01*
X-991571Y-876228D01*
X-998902D01*
X-1002567Y-872562D01*
Y-857900D01*
X-980574Y-876228D02*
Y-872562D01*
X-976909D01*
Y-876228D01*
X-980574D01*
X-962247D02*
X-954916D01*
X-958581D01*
Y-854235D01*
X-962247Y-857900D01*
X-929257Y-854235D02*
X-943919D01*
Y-865231D01*
X-936588Y-861566D01*
X-932923D01*
X-929257Y-865231D01*
Y-872562D01*
X-932923Y-876228D01*
X-940254D01*
X-943919Y-872562D01*
X-899933Y-876228D02*
Y-861566D01*
X-896268D01*
X-892602Y-865231D01*
Y-876228D01*
Y-865231D01*
X-888937Y-861566D01*
X-885272Y-865231D01*
Y-876228D01*
X-877941D02*
Y-861566D01*
X-874275D01*
X-870610Y-865231D01*
Y-876228D01*
Y-865231D01*
X-866944Y-861566D01*
X-863279Y-865231D01*
Y-876228D01*
X-811962Y-854235D02*
X-804631D01*
X-808296D01*
Y-876228D01*
X-811962D01*
X-804631D01*
X-793634D02*
Y-854235D01*
X-778972Y-876228D01*
Y-854235D01*
X-771641D02*
X-756980D01*
X-764311D01*
Y-876228D01*
X-734987Y-854235D02*
X-749649D01*
Y-876228D01*
X-734987D01*
X-749649Y-865231D02*
X-742318D01*
X-727656Y-876228D02*
Y-854235D01*
X-716659D01*
X-712994Y-857900D01*
Y-865231D01*
X-716659Y-868897D01*
X-727656D01*
X-720325D02*
X-712994Y-876228D01*
X-705663D02*
Y-854235D01*
X-691001Y-876228D01*
Y-854235D01*
X-683670Y-876228D02*
Y-861566D01*
X-676339Y-854235D01*
X-669008Y-861566D01*
Y-876228D01*
Y-865231D01*
X-683670D01*
X-661677Y-854235D02*
Y-876228D01*
X-647015D01*
X-639684Y-861566D02*
X-636019D01*
Y-865231D01*
X-639684D01*
Y-861566D01*
Y-872562D02*
X-636019D01*
Y-876228D01*
X-639684D01*
Y-872562D01*
X-599364Y-876228D02*
Y-854235D01*
X-584702Y-876228D01*
Y-854235D01*
X-577371Y-876228D02*
X-562709Y-861566D01*
X-555378Y-876228D02*
Y-861566D01*
X-548047Y-854235D01*
X-540716Y-861566D01*
Y-876228D01*
Y-865231D01*
X-555378D01*
X-1416767Y-937537D02*
X-1413101Y-941203D01*
X-1405770D01*
X-1402104Y-937537D01*
Y-922875D01*
X-1405770Y-919210D01*
X-1413101D01*
X-1416767Y-922875D01*
Y-926541D01*
X-1413101Y-930206D01*
X-1402104D01*
X-1394774Y-941203D02*
Y-937537D01*
X-1391108D01*
Y-941203D01*
X-1394774D01*
X-1343457Y-919210D02*
X-1350788D01*
X-1354453Y-922875D01*
Y-937537D01*
X-1350788Y-941203D01*
X-1343457D01*
X-1339791Y-937537D01*
Y-922875D01*
X-1343457Y-919210D01*
X-1332460Y-926541D02*
X-1325129Y-941203D01*
X-1317798Y-926541D01*
X-1299471Y-941203D02*
X-1306802D01*
X-1310468Y-937537D01*
Y-930206D01*
X-1306802Y-926541D01*
X-1299471D01*
X-1295806Y-930206D01*
Y-933872D01*
X-1310468D01*
X-1288475Y-926541D02*
Y-941203D01*
Y-933872D01*
X-1284809Y-930206D01*
X-1281144Y-926541D01*
X-1277478D01*
X-1262816D02*
X-1255485D01*
X-1251820Y-930206D01*
Y-941203D01*
X-1262816D01*
X-1266482Y-937537D01*
X-1262816Y-933872D01*
X-1251820D01*
X-1244489Y-941203D02*
X-1237158D01*
X-1240823D01*
Y-919210D01*
X-1244489D01*
X-1226161Y-941203D02*
X-1218830D01*
X-1222496D01*
Y-919210D01*
X-1226161D01*
X-1185841D02*
Y-941203D01*
X-1174845D01*
X-1171179Y-937537D01*
Y-933872D01*
X-1174845Y-930206D01*
X-1185841D01*
X-1174845D01*
X-1171179Y-926541D01*
Y-922875D01*
X-1174845Y-919210D01*
X-1185841D01*
X-1160183Y-941203D02*
X-1152852D01*
X-1149186Y-937537D01*
Y-930206D01*
X-1152852Y-926541D01*
X-1160183D01*
X-1163848Y-930206D01*
Y-937537D01*
X-1160183Y-941203D01*
X-1138190Y-926541D02*
X-1130859D01*
X-1127193Y-930206D01*
Y-941203D01*
X-1138190D01*
X-1141855Y-937537D01*
X-1138190Y-933872D01*
X-1127193D01*
X-1119862Y-926541D02*
Y-941203D01*
Y-933872D01*
X-1116197Y-930206D01*
X-1112531Y-926541D01*
X-1108866D01*
X-1083207Y-919210D02*
Y-941203D01*
X-1094204D01*
X-1097869Y-937537D01*
Y-930206D01*
X-1094204Y-926541D01*
X-1083207D01*
X-1053884Y-919210D02*
X-1039222D01*
X-1046553D01*
Y-941203D01*
X-1031891Y-919210D02*
Y-941203D01*
Y-930206D01*
X-1028225Y-926541D01*
X-1020894D01*
X-1017229Y-930206D01*
Y-941203D01*
X-1009898D02*
X-1002567D01*
X-1006232D01*
Y-926541D01*
X-1009898D01*
X-976908D02*
X-987905D01*
X-991571Y-930206D01*
Y-937537D01*
X-987905Y-941203D01*
X-976908D01*
X-969578D02*
Y-919210D01*
Y-933872D02*
X-958581Y-926541D01*
X-969578Y-933872D02*
X-958581Y-941203D01*
X-947585D02*
Y-926541D01*
X-936588D01*
X-932923Y-930206D01*
Y-941203D01*
X-914595D02*
X-921926D01*
X-925592Y-937537D01*
Y-930206D01*
X-921926Y-926541D01*
X-914595D01*
X-910930Y-930206D01*
Y-933872D01*
X-925592D01*
X-903599Y-941203D02*
X-892602D01*
X-888937Y-937537D01*
X-892602Y-933872D01*
X-899933D01*
X-903599Y-930206D01*
X-899933Y-926541D01*
X-888937D01*
X-881606Y-941203D02*
X-870610D01*
X-866944Y-937537D01*
X-870610Y-933872D01*
X-877941D01*
X-881606Y-930206D01*
X-877941Y-926541D01*
X-866944D01*
X-859613D02*
X-855948D01*
Y-930206D01*
X-859613D01*
Y-926541D01*
Y-937537D02*
X-855948D01*
Y-941203D01*
X-859613D01*
Y-937537D01*
X-819293Y-922875D02*
X-815627Y-919210D01*
X-808296D01*
X-804631Y-922875D01*
Y-937537D01*
X-808296Y-941203D01*
X-815627D01*
X-819293Y-937537D01*
Y-922875D01*
X-797300Y-941203D02*
Y-937537D01*
X-793634D01*
Y-941203D01*
X-797300D01*
X-778972Y-922875D02*
X-775307Y-919210D01*
X-767976D01*
X-764311Y-922875D01*
Y-926541D01*
X-767976Y-930206D01*
X-771641D01*
X-767976D01*
X-764311Y-933872D01*
Y-937537D01*
X-767976Y-941203D01*
X-775307D01*
X-778972Y-937537D01*
X-756980Y-941203D02*
Y-926541D01*
X-753314D01*
X-749649Y-930206D01*
Y-941203D01*
Y-930206D01*
X-745983Y-926541D01*
X-742318Y-930206D01*
Y-941203D01*
X-734987D02*
Y-926541D01*
X-731321D01*
X-727656Y-930206D01*
Y-941203D01*
Y-930206D01*
X-723990Y-926541D01*
X-720325Y-930206D01*
Y-941203D01*
X1505719Y-948401D02*
Y-915912D01*
X1521963D01*
X1527378Y-921327D01*
Y-932156D01*
X1521963Y-937571D01*
X1505719D01*
X1538208Y-915912D02*
Y-948401D01*
X1549038Y-937571D01*
X1559868Y-948401D01*
Y-915912D01*
X1570698Y-948401D02*
Y-926741D01*
X1581527Y-915912D01*
X1592357Y-926741D01*
Y-948401D01*
Y-932156D01*
X1570698D01*
X1603187D02*
X1624847D01*
X1635677Y-921327D02*
X1641091Y-915912D01*
X1651921D01*
X1657336Y-921327D01*
Y-942986D01*
X1651921Y-948401D01*
X1641091D01*
X1635677Y-942986D01*
Y-921327D01*
X1689826Y-948401D02*
X1668166D01*
X1689826Y-926741D01*
Y-921327D01*
X1684411Y-915912D01*
X1673581D01*
X1668166Y-921327D01*
X1700656D02*
X1706071Y-915912D01*
X1716900D01*
X1722315Y-921327D01*
Y-942986D01*
X1716900Y-948401D01*
X1706071D01*
X1700656Y-942986D01*
Y-921327D01*
X1754805Y-948401D02*
X1733145D01*
X1754805Y-926741D01*
Y-921327D01*
X1749390Y-915912D01*
X1738560D01*
X1733145Y-921327D01*
X1765635Y-948401D02*
X1776464D01*
X1771049D01*
Y-915912D01*
X1765635Y-921327D01*
X1792709D02*
X1798124Y-915912D01*
X1808954D01*
X1814369Y-921327D01*
Y-926741D01*
X1808954Y-932156D01*
X1814369Y-937571D01*
Y-942986D01*
X1808954Y-948401D01*
X1798124D01*
X1792709Y-942986D01*
Y-937571D01*
X1798124Y-932156D01*
X1792709Y-926741D01*
Y-921327D01*
X1798124Y-932156D02*
X1808954D01*
X1825199D02*
X1846858D01*
X1857688Y-921327D02*
X1863103Y-915912D01*
X1873933D01*
X1879348Y-921327D01*
Y-942986D01*
X1873933Y-948401D01*
X1863103D01*
X1857688Y-942986D01*
Y-921327D01*
X1890178D02*
X1895593Y-915912D01*
X1906422D01*
X1911837Y-921327D01*
Y-942986D01*
X1906422Y-948401D01*
X1895593D01*
X1890178Y-942986D01*
Y-921327D01*
X1922667Y-948401D02*
X1933497D01*
X1928082D01*
Y-915912D01*
X1922667Y-921327D01*
X314494Y-16853D02*
X304338D01*
Y-24470D01*
X309416D01*
X304338D01*
Y-32088D01*
X319573D02*
X324651D01*
X322112D01*
Y-16853D01*
X319573D01*
X339886Y-32088D02*
X334808D01*
X332268Y-29548D01*
Y-24470D01*
X334808Y-21931D01*
X339886D01*
X342425Y-24470D01*
Y-27009D01*
X332268D01*
X347504Y-21931D02*
X357660Y-32088D01*
X352582Y-27009D01*
X357660Y-21931D01*
X347504Y-32088D01*
X377974D02*
Y-16853D01*
X385591D01*
X388130Y-19392D01*
Y-24470D01*
X385591Y-27009D01*
X377974D01*
X403366Y-19392D02*
X400826Y-16853D01*
X395748D01*
X393209Y-19392D01*
Y-29548D01*
X395748Y-32088D01*
X400826D01*
X403366Y-29548D01*
X408444Y-16853D02*
Y-32088D01*
X416061D01*
X418601Y-29548D01*
Y-27009D01*
X416061Y-24470D01*
X408444D01*
X416061D01*
X418601Y-21931D01*
Y-19392D01*
X416061Y-16853D01*
X408444D01*
X446531D02*
X441453D01*
X438914Y-19392D01*
Y-29548D01*
X441453Y-32088D01*
X446531D01*
X449071Y-29548D01*
Y-19392D01*
X446531Y-16853D01*
X454149Y-21931D02*
Y-29548D01*
X456688Y-32088D01*
X464306D01*
Y-21931D01*
X471923Y-19392D02*
Y-21931D01*
X469384D01*
X474463D01*
X471923D01*
Y-29548D01*
X474463Y-32088D01*
X482080D02*
X487158D01*
X484619D01*
Y-16853D01*
X482080D01*
X494776Y-32088D02*
X499854D01*
X497315D01*
Y-21931D01*
X494776D01*
X507472Y-32088D02*
Y-21931D01*
X515089D01*
X517629Y-24470D01*
Y-32088D01*
X530324D02*
X525246D01*
X522707Y-29548D01*
Y-24470D01*
X525246Y-21931D01*
X530324D01*
X532864Y-24470D01*
Y-27009D01*
X522707D01*
D15*
X600247Y127484D02*
G03*
X590088Y137644I-10160J0D01*
G01*
X589833Y0D02*
G03*
X600247Y10414I0J10414D01*
G01*
X614932Y226313D02*
X707436Y279556D01*
Y290448D01*
X600247Y127170D02*
Y127484D01*
X589580Y137644D02*
X590088D01*
X600247Y10414D02*
Y127170D01*
X-32213Y141140D02*
X-20447Y169226D01*
X-39578Y114471D02*
X-32213Y141140D01*
X-44658Y90849D02*
X-39578Y114471D01*
X-46625Y72103D02*
X-44658Y90849D01*
X571624Y410713D02*
X582063Y392583D01*
X551692Y399236D02*
X562131Y381106D01*
X551692Y399236D02*
X571624Y410713D01*
X562131Y381106D02*
X582063Y392583D01*
X178657Y394193D02*
X189096Y412323D01*
X198589Y382716D02*
X209028Y400846D01*
X189096Y412323D02*
X209028Y400846D01*
X178657Y394193D02*
X198589Y382716D01*
X398980Y137644D02*
X589580Y137644D01*
X338541Y137584D02*
X360648D01*
X143128Y137644D02*
X158863D01*
X200145Y137584D02*
X261566D01*
X325067Y658299D02*
X329291D01*
X371294Y102533D02*
X388334D01*
X422905Y574221D02*
X451495Y556926D01*
X505860Y466230D01*
X489008Y441558D02*
X504336Y457340D01*
X505860Y459626D01*
X506622Y462928D01*
X505860Y466230D02*
X506622Y462928D01*
X257617Y460498D02*
X272945Y444716D01*
X256093Y462784D02*
X257617Y460498D01*
X255331Y466086D02*
X256093Y462784D01*
X255331Y466086D02*
X256093Y469388D01*
X256081Y469395D02*
X308048Y556090D01*
X428241Y729359D02*
Y909359D01*
X333241Y729359D02*
Y909359D01*
D16*
X398980Y137644D02*
G03*
X393980Y132601I22J-5022D01*
G01*
X332508Y143681D02*
G03*
X338541Y137584I6065J-31D01*
G01*
X329291Y658299D02*
G03*
X333241Y662857I-304J4254D01*
G01*
X320683D02*
G03*
X325067Y658299I4849J277D01*
G01*
X261566Y137584D02*
G03*
X267507Y143772I-123J6065D01*
G01*
X388334Y102533D02*
G03*
X393980Y108045I67J5579D01*
G01*
X365648D02*
G03*
X371294Y102533I5579J67D01*
G01*
X489008Y441558D02*
G03*
X487080Y429517I5057J-6985D01*
G01*
X274873Y432675D02*
G03*
X272945Y444716I-6985J5057D01*
G01*
X-46625Y72103D02*
G03*
X0Y13I75007J-2611D01*
G01*
X125806Y173617D02*
G03*
X143128Y137644I19993J-12530D01*
G01*
X391126Y923399D02*
G03*
X404617Y928987I0J19079D01*
G01*
X428241Y720934D02*
G03*
X446201Y677573I61321J0D01*
G01*
X279164Y966804D02*
G03*
X269353Y962740I0J-13875D01*
G01*
X349617Y972392D02*
G03*
X352805Y980088I-7696J7696D01*
G01*
X334164Y923399D02*
G03*
X324353Y919335I0J-13875D01*
G01*
X269353Y962740D02*
G03*
X265683Y953879I8860J-8860D01*
G01*
X253487Y615834D02*
G03*
X265683Y645278I-29444J29444D01*
G01*
X404617Y928987D02*
G03*
X407805Y936684I-7696J7696D01*
G01*
X365648Y132601D02*
G03*
X360648Y137584I-4992J-8D01*
G01*
X336126Y966804D02*
G03*
X349617Y972392I0J19079D01*
G01*
X324353Y919335D02*
G03*
X320683Y910475I8860J-8860D01*
G01*
X614479Y226052D02*
X614932Y226313D01*
X602264Y229344D02*
X614479Y226052D01*
X499396Y62979D02*
Y85979D01*
Y62979D02*
X520396D01*
Y85979D01*
X499396D02*
X520396D01*
X414396Y62980D02*
Y85980D01*
Y62980D02*
X435396D01*
Y85980D01*
X414396D02*
X435396D01*
X329396Y62979D02*
Y85979D01*
Y62979D02*
X350396D01*
Y85979D01*
X329396D02*
X350396D01*
X244396D02*
X265396D01*
Y62979D02*
Y85979D01*
X244396Y62979D02*
X265396D01*
X244396D02*
Y85979D01*
X267507Y143772D02*
Y342054D01*
X332508Y143681D02*
Y342054D01*
X267507D02*
X332508D01*
X393980Y108045D02*
Y132601D01*
X487080Y429517D02*
X602264Y229344D01*
X0Y0D02*
X532999Y0D01*
X589833D01*
X333241Y909359D02*
X428241D01*
X334164Y923399D02*
X391126D01*
X446201Y677573D02*
X514176Y609599D01*
X177228Y262982D02*
X274873Y432675D01*
X540153Y581162D02*
X595391Y485166D01*
X707436Y290448D01*
X166106Y487019D02*
X222176Y582534D01*
X-20447Y169226D02*
X166106Y487019D01*
X125806Y173617D02*
X177228Y262982D01*
X308048Y556090D02*
X339311Y574555D01*
X342898Y574567D02*
X422905Y574221D01*
X279164Y966804D02*
X336126D01*
X514176Y609599D02*
X540153Y581162D01*
X222176Y582534D02*
X248399Y610746D01*
X253487Y615834D01*
X158923Y137584D02*
X200145D01*
X320683Y662857D02*
Y900046D01*
X428241Y720934D02*
Y729359D01*
X365648Y108045D02*
Y132601D01*
X333241Y662857D02*
Y729359D01*
X320683Y900046D02*
Y910475D01*
X339311Y574555D02*
X341104Y574576D01*
X342898Y574567D01*
X265683Y645278D02*
Y651873D01*
D17*
X352805Y1098628D02*
X407805D01*
Y936684D02*
Y1098628D01*
D18*
X352805Y980088D02*
Y1098628D01*
X265683Y651873D02*
X265683Y953879D01*
D81*
X2094719Y-951761D02*
X2096147Y-951047D01*
X2098289Y-948904D01*
Y-963901D01*
X2046719Y-951761D02*
X2048147Y-951047D01*
X2050289Y-948904D01*
Y-963901D01*
D85*
X1405719Y-873901D02*
Y-833914D01*
X1425712D01*
X1432377Y-840579D01*
Y-853908D01*
X1425712Y-860572D01*
X1405719D01*
X1445706Y-833914D02*
Y-873901D01*
X1459035Y-860572D01*
X1472364Y-873901D01*
Y-833914D01*
X1485693Y-873901D02*
Y-847243D01*
X1499022Y-833914D01*
X1512351Y-847243D01*
Y-873901D01*
Y-853908D01*
X1485693D01*
X1532344Y-880566D02*
X1539009Y-873901D01*
Y-867237D01*
X1532344D01*
Y-873901D01*
X1539009D01*
X1532344Y-880566D01*
X1525680Y-887230D01*
X1605654Y-833914D02*
Y-873901D01*
X1632312D01*
X1672299Y-833914D02*
X1645641D01*
Y-873901D01*
X1672299D01*
X1645641Y-853908D02*
X1658970D01*
X1685628Y-833914D02*
Y-873901D01*
X1705622D01*
X1712286Y-867237D01*
Y-840579D01*
X1705622Y-833914D01*
X1685628D01*
X1792260Y-840579D02*
X1785596Y-833914D01*
X1772267D01*
X1765602Y-840579D01*
Y-847243D01*
X1772267Y-853908D01*
X1785596D01*
X1792260Y-860572D01*
Y-867237D01*
X1785596Y-873901D01*
X1772267D01*
X1765602Y-867237D01*
X1832247Y-833914D02*
X1805589D01*
Y-873901D01*
X1832247D01*
X1805589Y-853908D02*
X1818918D01*
X1845576Y-873901D02*
Y-833914D01*
X1872234Y-873901D01*
Y-833914D01*
X1912222Y-840579D02*
X1905557Y-833914D01*
X1892228D01*
X1885563Y-840579D01*
Y-847243D01*
X1892228Y-853908D01*
X1905557D01*
X1912222Y-860572D01*
Y-867237D01*
X1905557Y-873901D01*
X1892228D01*
X1885563Y-867237D01*
X1952209Y-833914D02*
X1925551D01*
Y-873901D01*
X1952209D01*
X1925551Y-853908D02*
X1938880D01*
X2032183Y-833914D02*
X2005525D01*
Y-853908D01*
X2018854D01*
X2005525D01*
Y-873901D01*
X2045512Y-833914D02*
Y-873901D01*
X2072170D01*
X2112157Y-833914D02*
X2085499D01*
Y-873901D01*
X2112157D01*
X2085499Y-853908D02*
X2098828D01*
X2125486Y-833914D02*
X2152144Y-873901D01*
Y-833914D02*
X2125486Y-873901D01*
M02*
