G04*
G04 #@! TF.GenerationSoftware,Altium Limited,Altium Designer,18.1.4 (159)*
G04*
G04 Layer_Color=16711935*
%FSLAX44Y44*%
%MOMM*%
G71*
G01*
G75*
%ADD13C,0.2540*%
%ADD15C,0.0500*%
%ADD16C,0.0500*%
%ADD17C,0.0510*%
%ADD18C,0.0508*%
%ADD80C,0.1270*%
D13*
X314494Y-16853D02*
X304338D01*
Y-24470D01*
X309416D01*
X304338D01*
Y-32088D01*
X319573D02*
X324651D01*
X322112D01*
Y-16853D01*
X319573D01*
X339886Y-32088D02*
X334808D01*
X332268Y-29548D01*
Y-24470D01*
X334808Y-21931D01*
X339886D01*
X342425Y-24470D01*
Y-27009D01*
X332268D01*
X347504Y-21931D02*
X357660Y-32088D01*
X352582Y-27009D01*
X357660Y-21931D01*
X347504Y-32088D01*
X377974D02*
Y-16853D01*
X385591D01*
X388130Y-19392D01*
Y-24470D01*
X385591Y-27009D01*
X377974D01*
X403366Y-19392D02*
X400826Y-16853D01*
X395748D01*
X393209Y-19392D01*
Y-29548D01*
X395748Y-32088D01*
X400826D01*
X403366Y-29548D01*
X408444Y-16853D02*
Y-32088D01*
X416061D01*
X418601Y-29548D01*
Y-27009D01*
X416061Y-24470D01*
X408444D01*
X416061D01*
X418601Y-21931D01*
Y-19392D01*
X416061Y-16853D01*
X408444D01*
X446531D02*
X441453D01*
X438914Y-19392D01*
Y-29548D01*
X441453Y-32088D01*
X446531D01*
X449071Y-29548D01*
Y-19392D01*
X446531Y-16853D01*
X454149Y-21931D02*
Y-29548D01*
X456688Y-32088D01*
X464306D01*
Y-21931D01*
X471923Y-19392D02*
Y-21931D01*
X469384D01*
X474463D01*
X471923D01*
Y-29548D01*
X474463Y-32088D01*
X482080D02*
X487158D01*
X484619D01*
Y-16853D01*
X482080D01*
X494776Y-32088D02*
X499854D01*
X497315D01*
Y-21931D01*
X494776D01*
X507472Y-32088D02*
Y-21931D01*
X515089D01*
X517629Y-24470D01*
Y-32088D01*
X530324D02*
X525246D01*
X522707Y-29548D01*
Y-24470D01*
X525246Y-21931D01*
X530324D01*
X532864Y-24470D01*
Y-27009D01*
X522707D01*
D15*
X600247Y127484D02*
G03*
X590088Y137644I-10160J0D01*
G01*
X589833Y0D02*
G03*
X600247Y10414I0J10414D01*
G01*
X614932Y226313D02*
X707436Y279556D01*
Y290448D01*
X600247Y127170D02*
Y127484D01*
X589580Y137644D02*
X590088D01*
X600247Y10414D02*
Y127170D01*
X-32213Y141140D02*
X-20447Y169226D01*
X-39578Y114471D02*
X-32213Y141140D01*
X-44658Y90849D02*
X-39578Y114471D01*
X-46625Y72103D02*
X-44658Y90849D01*
X571624Y410713D02*
X582063Y392583D01*
X551692Y399236D02*
X562131Y381106D01*
X551692Y399236D02*
X571624Y410713D01*
X562131Y381106D02*
X582063Y392583D01*
X178657Y394193D02*
X189096Y412323D01*
X198589Y382716D02*
X209028Y400846D01*
X189096Y412323D02*
X209028Y400846D01*
X178657Y394193D02*
X198589Y382716D01*
X398980Y137644D02*
X589580Y137644D01*
X338541Y137584D02*
X360648D01*
X143128Y137644D02*
X158863D01*
X200145Y137584D02*
X261566D01*
X325067Y658299D02*
X329291D01*
X371294Y102533D02*
X388334D01*
X422905Y574221D02*
X451495Y556926D01*
X505860Y466230D01*
X489008Y441558D02*
X504336Y457340D01*
X505860Y459626D01*
X506622Y462928D01*
X505860Y466230D02*
X506622Y462928D01*
X257617Y460498D02*
X272945Y444716D01*
X256093Y462784D02*
X257617Y460498D01*
X255331Y466086D02*
X256093Y462784D01*
X255331Y466086D02*
X256093Y469388D01*
X256081Y469395D02*
X308048Y556090D01*
X428241Y729359D02*
Y909359D01*
X333241Y729359D02*
Y909359D01*
D16*
X267507Y342308D02*
G03*
X267254Y342054I0J-254D01*
G01*
X332761D02*
G03*
X332508Y342308I-254J0D01*
G01*
X267507D02*
X332508D01*
X398980Y137644D02*
G03*
X393980Y132601I22J-5022D01*
G01*
X332508Y143681D02*
G03*
X338541Y137584I6065J-31D01*
G01*
X329291Y658299D02*
G03*
X333241Y662857I-304J4254D01*
G01*
X320683D02*
G03*
X325067Y658299I4849J277D01*
G01*
X261566Y137584D02*
G03*
X267507Y143772I-123J6065D01*
G01*
X388334Y102533D02*
G03*
X393980Y108045I67J5579D01*
G01*
X365648D02*
G03*
X371294Y102533I5579J67D01*
G01*
X489008Y441558D02*
G03*
X487080Y429517I5057J-6985D01*
G01*
X274873Y432675D02*
G03*
X272945Y444716I-6985J5057D01*
G01*
X-46625Y72103D02*
G03*
X0Y13I75007J-2611D01*
G01*
X125806Y173617D02*
G03*
X143128Y137644I19993J-12530D01*
G01*
X391126Y923399D02*
G03*
X404617Y928987I0J19079D01*
G01*
X428241Y720934D02*
G03*
X446201Y677573I61321J0D01*
G01*
X279164Y966804D02*
G03*
X269353Y962740I0J-13875D01*
G01*
X349617Y972392D02*
G03*
X352805Y980088I-7696J7696D01*
G01*
X334164Y923399D02*
G03*
X324353Y919335I0J-13875D01*
G01*
X269353Y962740D02*
G03*
X265683Y953879I8860J-8860D01*
G01*
X253487Y615834D02*
G03*
X265683Y645278I-29444J29444D01*
G01*
X404617Y928987D02*
G03*
X407805Y936684I-7696J7696D01*
G01*
X365648Y132601D02*
G03*
X360648Y137584I-4992J-8D01*
G01*
X336126Y966804D02*
G03*
X349617Y972392I0J19079D01*
G01*
X324353Y919335D02*
G03*
X320683Y910475I8860J-8860D01*
G01*
X614479Y226052D02*
X614932Y226313D01*
X602264Y229344D02*
X614479Y226052D01*
X499396Y62979D02*
Y85979D01*
Y62979D02*
X520396D01*
Y85979D01*
X499396D02*
X520396D01*
X414396Y62980D02*
Y85980D01*
Y62980D02*
X435396D01*
Y85980D01*
X414396D02*
X435396D01*
X329396Y62979D02*
Y85979D01*
Y62979D02*
X350396D01*
Y85979D01*
X329396D02*
X350396D01*
X244396D02*
X265396D01*
Y62979D02*
Y85979D01*
X244396Y62979D02*
X265396D01*
X244396D02*
Y85979D01*
X267507Y143772D02*
Y342054D01*
X332508Y143681D02*
Y342054D01*
X267507D02*
X332508D01*
X393980Y108045D02*
Y132601D01*
X487080Y429517D02*
X602264Y229344D01*
X0Y0D02*
X532999Y0D01*
X589833D01*
X333241Y909359D02*
X428241D01*
X334164Y923399D02*
X391126D01*
X446201Y677573D02*
X514176Y609599D01*
X177228Y262982D02*
X274873Y432675D01*
X540153Y581162D02*
X595391Y485166D01*
X707436Y290448D01*
X166106Y487019D02*
X222176Y582534D01*
X-20447Y169226D02*
X166106Y487019D01*
X125806Y173617D02*
X177228Y262982D01*
X308048Y556090D02*
X339311Y574555D01*
X342898Y574567D02*
X422905Y574221D01*
X279164Y966804D02*
X336126D01*
X514176Y609599D02*
X540153Y581162D01*
X222176Y582534D02*
X248399Y610746D01*
X253487Y615834D01*
X158923Y137584D02*
X200145D01*
X320683Y662857D02*
Y900046D01*
X428241Y720934D02*
Y729359D01*
X365648Y108045D02*
Y132601D01*
X333241Y662857D02*
Y729359D01*
X320683Y900046D02*
Y910475D01*
X339311Y574555D02*
X341104Y574576D01*
X342898Y574567D01*
X265683Y645278D02*
Y651873D01*
D17*
X352805Y1098628D02*
X407805D01*
Y936684D02*
Y1098628D01*
D18*
X352805Y980088D02*
Y1098628D01*
X265683Y651873D02*
X265683Y953879D01*
D80*
X265396Y62979D02*
Y85979D01*
X244396Y62979D02*
X265396D01*
X244396D02*
Y85979D01*
X265396D01*
X350396Y62979D02*
Y85979D01*
X329396Y62979D02*
X350396D01*
X329396D02*
Y85979D01*
X350396D01*
X520396Y62979D02*
Y85979D01*
X499396Y62979D02*
X520396D01*
X499396D02*
Y85979D01*
X520396D01*
X435396Y62980D02*
Y85980D01*
X414396Y62980D02*
X435396D01*
X414396D02*
Y85980D01*
X435396D01*
X571624Y410713D02*
X582063Y392583D01*
X562131Y381106D02*
X582063Y392583D01*
X551692Y399236D02*
X562131Y381106D01*
X551692Y399236D02*
X571624Y410713D01*
X189096Y412323D02*
X209028Y400846D01*
X198589Y382716D02*
X209028Y400846D01*
X178657Y394193D02*
X198589Y382716D01*
X178657Y394193D02*
X189096Y412323D01*
X407805Y936684D02*
Y1098628D01*
X352805D02*
X407805D01*
X352805Y980088D02*
Y1098628D01*
X352752Y979021D02*
X352805Y980088D01*
X352336Y976928D02*
X352752Y979021D01*
X351519Y974957D02*
X352336Y976928D01*
X350334Y973183D02*
X351519Y974957D01*
X349617Y972392D02*
X350334Y973183D01*
X348229Y971134D02*
X349617Y972392D01*
X345120Y969056D02*
X348229Y971134D01*
X341664Y967625D02*
X345120Y969056D01*
X337996Y966895D02*
X341664Y967625D01*
X336126Y966804D02*
X337996Y966895D01*
X277797Y966804D02*
X336126D01*
X275117Y966270D02*
X277797Y966804D01*
X272592Y965224D02*
X275117Y966270D01*
X270319Y963706D02*
X272592Y965224D01*
X269353Y962740D02*
X270319Y963706D01*
X268480Y961867D02*
X269353Y962740D01*
X267109Y959815D02*
X268480Y961867D01*
X266164Y957534D02*
X267109Y959815D01*
X265683Y955114D02*
X266164Y957534D01*
X265683Y953879D02*
Y955114D01*
X265683Y651873D02*
X265683Y953879D01*
X265683Y645278D02*
Y651873D01*
X265632Y643234D02*
X265683Y645278D01*
X265232Y639168D02*
X265632Y643234D01*
X264435Y635160D02*
X265232Y639168D01*
X263249Y631250D02*
X264435Y635160D01*
X261685Y627474D02*
X263249Y631250D01*
X259758Y623871D02*
X261685Y627474D01*
X257488Y620473D02*
X259758Y623871D01*
X254896Y617314D02*
X257488Y620473D01*
X253487Y615834D02*
X254896Y617314D01*
X248399Y610746D02*
X253487Y615834D01*
X222176Y582534D02*
X248399Y610746D01*
X166106Y487019D02*
X222176Y582534D01*
X-20447Y169226D02*
X166106Y487019D01*
X-32213Y141140D02*
X-20447Y169226D01*
X-39578Y114471D02*
X-32213Y141140D01*
X-44658Y90849D02*
X-39578Y114471D01*
X-46625Y72103D02*
X-44658Y90849D01*
X-46757Y68294D02*
X-46625Y72103D01*
X-46757Y68294D02*
X-46249Y60688D01*
X-44974Y53172D01*
X-42943Y45825D01*
X-40178Y38721D01*
X-36708Y31934D01*
X-32568Y25533D01*
X-27801Y19584D01*
X-22456Y14149D01*
X-16588Y9283D01*
X-10257Y5037D01*
X-3528Y1455D01*
X-0Y13D01*
X532999Y0D01*
X590859D01*
X592871Y400D01*
X594766Y1185D01*
X596472Y2325D01*
X597923Y3776D01*
X599062Y5481D01*
X599847Y7376D01*
X600247Y9388D01*
Y10414D01*
Y127484D01*
Y128485D01*
X599857Y130448D02*
X600247Y128485D01*
X599091Y132297D02*
X599857Y130448D01*
X597979Y133961D02*
X599091Y132297D01*
X596564Y135376D02*
X597979Y133961D01*
X594900Y136488D02*
X596564Y135376D01*
X593051Y137254D02*
X594900Y136488D01*
X591088Y137644D02*
X593051Y137254D01*
X589580Y137644D02*
X591088D01*
X398980Y137644D02*
X589580Y137644D01*
X397981Y137640D02*
X398980Y137644D01*
X396139Y136868D02*
X397981Y137640D01*
X394732Y135449D02*
X396139Y136868D01*
X393976Y133600D02*
X394732Y135449D01*
X393976Y133600D02*
X393980Y132601D01*
X393980Y108045D01*
X393860Y106958D02*
X393980Y108045D01*
X393003Y104956D02*
X393860Y106958D01*
X391445Y103435D02*
X393003Y104956D01*
X389424Y102627D02*
X391445Y103435D01*
X388334Y102532D02*
X389424Y102627D01*
X371294Y102533D02*
X388334Y102532D01*
X370204Y102627D02*
X371294Y102533D01*
X368183Y103435D02*
X370204Y102627D01*
X366625Y104956D02*
X368183Y103435D01*
X365768Y106958D02*
X366625Y104956D01*
X365648Y108045D02*
X365768Y106958D01*
X365648Y108045D02*
X365648Y132601D01*
X365646Y133594D02*
X365648Y132601D01*
X364883Y135427D02*
X365646Y133594D01*
X363477Y136829D02*
X364883Y135427D01*
X361641Y137586D02*
X363477Y136829D01*
X360648Y137584D02*
X361641Y137586D01*
X338541Y137584D02*
X360648Y137584D01*
X337358Y137707D02*
X338541Y137584D01*
X335177Y138624D02*
X337358Y137707D01*
X333512Y140306D02*
X335177Y138624D01*
X332618Y142497D02*
X333512Y140306D01*
X332508Y143681D02*
X332618Y142497D01*
X332508Y143681D02*
Y342054D01*
X267507D02*
X332508D01*
X267507Y143772D02*
Y342054D01*
X267415Y142587D02*
X267507Y143772D01*
X266554Y140382D02*
X267415Y142587D01*
X264915Y138675D02*
X266554Y140382D01*
X262747Y137725D02*
X264915Y138675D01*
X261566Y137584D02*
X262747Y137725D01*
X158923Y137584D02*
X261566D01*
X143128Y137644D02*
X158923Y137584D01*
X141169Y137951D02*
X143128Y137644D01*
X137364Y139052D02*
X141169Y137951D01*
X133796Y140774D02*
X137364Y139052D01*
X130567Y143068D02*
X133796Y140774D01*
X127766Y145871D02*
X130567Y143068D01*
X125475Y149102D02*
X127766Y145871D01*
X123756Y152672D02*
X125475Y149102D01*
X122659Y156478D02*
X123756Y152672D01*
X122213Y160415D02*
X122659Y156478D01*
X122213Y160415D02*
X122433Y164370D01*
X123312Y168233D01*
X124824Y171894D01*
X125806Y173617D01*
X177228Y262982D01*
X274873Y432675D01*
X275371Y433363D01*
X276080Y434907D01*
X276473Y436559D01*
X276537Y438257D01*
X276269Y439934D02*
X276537Y438257D01*
X275678Y441526D02*
X276269Y439934D01*
X274788Y442973D02*
X275678Y441526D01*
X273633Y444218D02*
X274788Y442973D01*
X272945Y444716D02*
X273633Y444218D01*
X257617Y460498D02*
X272945Y444716D01*
X256093Y462784D02*
X257617Y460498D01*
X255331Y466086D02*
X256093Y462784D01*
X255331Y466086D02*
X256093Y469388D01*
X308048Y556090D01*
X339311Y574555D01*
X341104Y574576D01*
X342898Y574567D01*
X422905Y574221D01*
X451495Y556926D01*
X505860Y466230D01*
X506622Y462928D01*
X505860Y459626D02*
X506622Y462928D01*
X504336Y457340D02*
X505860Y459626D01*
X489008Y441558D02*
X504336Y457340D01*
X488320Y441060D02*
X489008Y441558D01*
X487165Y439814D02*
X488320Y441060D01*
X486275Y438368D02*
X487165Y439814D01*
X485685Y436775D02*
X486275Y438368D01*
X485416Y435098D02*
X485685Y436775D01*
X485416Y435098D02*
X485480Y433400D01*
X485874Y431748D01*
X486582Y430205D01*
X487080Y429517D01*
X602264Y229344D01*
X614479Y226052D01*
X614932Y226313D01*
X707436Y279556D01*
Y290448D01*
X595391Y485166D02*
X707436Y290448D01*
X540153Y581162D02*
X595391Y485166D01*
X514176Y609599D02*
X540153Y581162D01*
X446201Y677573D02*
X514176Y609599D01*
X444126Y679753D02*
X446201Y677573D01*
X440308Y684405D02*
X444126Y679753D01*
X436965Y689409D02*
X440308Y684405D01*
X434128Y694716D02*
X436965Y689409D01*
X431825Y700275D02*
X434128Y694716D01*
X430078Y706034D02*
X431825Y700275D01*
X428904Y711936D02*
X430078Y706034D01*
X428315Y717925D02*
X428904Y711936D01*
X428241Y720934D02*
X428315Y717925D01*
X428241Y720934D02*
Y909359D01*
X333241D02*
X428241D01*
X333241Y662857D02*
Y909359D01*
X333218Y662021D02*
X333241Y662857D01*
X332693Y660442D02*
X333218Y662021D01*
X331603Y659185D02*
X332693Y660442D01*
X330115Y658440D02*
X331603Y659185D01*
X329291Y658299D02*
X330115Y658440D01*
X325067Y658299D02*
X329291D01*
X324222Y658456D02*
X325067Y658299D01*
X322680Y659202D02*
X324222Y658456D01*
X321493Y660436D02*
X322680Y659202D01*
X320807Y662006D02*
X321493Y660436D01*
X320683Y662856D02*
X320807Y662006D01*
X320683Y662856D02*
X320683Y910475D01*
X320743Y911703D01*
X321222Y914113D01*
X322162Y916382D01*
X323527Y918424D01*
X324353Y919335D01*
X325362Y920250D01*
X327623Y921761D01*
X330136Y922802D01*
X332804Y923333D01*
X334164Y923399D01*
X393005D01*
X396691Y924133D01*
X400163Y925571D01*
X403288Y927659D01*
X404617Y928987D01*
X405375Y929745D01*
X406566Y931528D01*
X407386Y933509D01*
X407805Y935612D01*
Y936684D01*
M02*
