G04*
G04 #@! TF.GenerationSoftware,Altium Limited,Altium Designer,18.1.4 (159)*
G04*
G04 Layer_Color=32768*
%FSLAX44Y44*%
%MOMM*%
G71*
G01*
G75*
%ADD13C,0.2540*%
%ADD15C,0.0500*%
%ADD16C,0.0500*%
%ADD17C,0.0510*%
%ADD18C,0.0508*%
%ADD81C,0.2000*%
%ADD84C,0.1000*%
D13*
X314494Y-16853D02*
X304338D01*
Y-24470D01*
X309416D01*
X304338D01*
Y-32088D01*
X319573D02*
X324651D01*
X322112D01*
Y-16853D01*
X319573D01*
X339886Y-32088D02*
X334808D01*
X332268Y-29548D01*
Y-24470D01*
X334808Y-21931D01*
X339886D01*
X342425Y-24470D01*
Y-27009D01*
X332268D01*
X347504Y-21931D02*
X357660Y-32088D01*
X352582Y-27009D01*
X357660Y-21931D01*
X347504Y-32088D01*
X377974D02*
Y-16853D01*
X385591D01*
X388130Y-19392D01*
Y-24470D01*
X385591Y-27009D01*
X377974D01*
X403366Y-19392D02*
X400826Y-16853D01*
X395748D01*
X393209Y-19392D01*
Y-29548D01*
X395748Y-32088D01*
X400826D01*
X403366Y-29548D01*
X408444Y-16853D02*
Y-32088D01*
X416061D01*
X418601Y-29548D01*
Y-27009D01*
X416061Y-24470D01*
X408444D01*
X416061D01*
X418601Y-21931D01*
Y-19392D01*
X416061Y-16853D01*
X408444D01*
X446531D02*
X441453D01*
X438914Y-19392D01*
Y-29548D01*
X441453Y-32088D01*
X446531D01*
X449071Y-29548D01*
Y-19392D01*
X446531Y-16853D01*
X454149Y-21931D02*
Y-29548D01*
X456688Y-32088D01*
X464306D01*
Y-21931D01*
X471923Y-19392D02*
Y-21931D01*
X469384D01*
X474463D01*
X471923D01*
Y-29548D01*
X474463Y-32088D01*
X482080D02*
X487158D01*
X484619D01*
Y-16853D01*
X482080D01*
X494776Y-32088D02*
X499854D01*
X497315D01*
Y-21931D01*
X494776D01*
X507472Y-32088D02*
Y-21931D01*
X515089D01*
X517629Y-24470D01*
Y-32088D01*
X530324D02*
X525246D01*
X522707Y-29548D01*
Y-24470D01*
X525246Y-21931D01*
X530324D01*
X532864Y-24470D01*
Y-27009D01*
X522707D01*
D15*
X382021Y1057065D02*
G03*
X382021Y1057065I-2500J0D01*
G01*
Y1071796D02*
G03*
X382021Y1071796I-2500J0D01*
G01*
X103252Y99405D02*
G03*
X103252Y99405I-2500J0D01*
G01*
Y87975D02*
G03*
X103252Y87975I-2500J0D01*
G01*
X311127Y126538D02*
G03*
X311127Y126538I-2500J0D01*
G01*
X284683Y126751D02*
G03*
X284683Y126751I-2500J0D01*
G01*
X569377Y395909D02*
G03*
X569377Y395909I-2500J0D01*
G01*
X196342Y397519D02*
G03*
X196342Y397519I-2500J0D01*
G01*
X257396Y74481D02*
G03*
X257396Y74481I-2500J0D01*
G01*
X342396D02*
G03*
X342396Y74481I-2500J0D01*
G01*
X427396D02*
G03*
X427396Y74481I-2500J0D01*
G01*
X512396D02*
G03*
X512396Y74481I-2500J0D01*
G01*
X315423Y100571D02*
G03*
X315423Y100571I-2500J0D01*
G01*
X311613Y113271D02*
G03*
X311613Y113271I-2500J0D01*
G01*
X280676Y100452D02*
G03*
X280676Y100452I-2500J0D01*
G01*
X284486Y113152D02*
G03*
X284486Y113152I-2500J0D01*
G01*
X376021Y1057065D02*
X383022D01*
X379521Y1053565D02*
Y1060564D01*
Y1068297D02*
Y1075296D01*
X376021Y1071796D02*
X383022D01*
X189096Y412323D02*
X209028Y400846D01*
X178657Y394193D02*
X198589Y382716D01*
X209028Y400846D01*
X178657Y394193D02*
X189096Y412323D01*
X551692Y399236D02*
X571624Y410713D01*
X562131Y381106D02*
X582063Y392583D01*
X551692Y399236D02*
X562131Y381106D01*
X571624Y410713D02*
X582063Y392583D01*
X499396Y62980D02*
X520396D01*
X499396Y85980D02*
X520396D01*
Y62980D02*
Y85980D01*
X499396Y62980D02*
Y85980D01*
Y62980D02*
X520396Y85980D01*
X499396D02*
X520396Y62980D01*
X414396D02*
X435396D01*
X414396Y85980D02*
X435396D01*
Y62980D02*
Y85980D01*
X414396Y62980D02*
Y85980D01*
Y62980D02*
X435396Y85980D01*
X414396D02*
X435396Y62980D01*
X329396D02*
X350396D01*
X329396Y85980D02*
X350396D01*
Y62980D02*
Y85980D01*
X329396Y62980D02*
Y85980D01*
Y62980D02*
X350396Y85980D01*
X329396D02*
X350396Y62980D01*
X244396D02*
X265396D01*
X244396Y85980D02*
X265396D01*
Y62980D02*
Y85980D01*
X244396Y62980D02*
Y85980D01*
Y62980D02*
X265396Y85980D01*
X244396D02*
X265396Y62980D01*
X117128Y47656D02*
Y99656D01*
X169128Y47656D02*
Y99656D01*
X117128Y47656D02*
X169128D01*
X117128Y99656D02*
X169128D01*
X383071Y645805D02*
X446071D01*
X383071Y608805D02*
X446071D01*
X446071Y645805D02*
X446071Y608805D01*
X383071D02*
Y645805D01*
X100752Y95905D02*
Y102905D01*
X97252Y99405D02*
X104252D01*
X100752Y84475D02*
Y91475D01*
X97252Y87975D02*
X104252D01*
X308627Y123038D02*
Y130038D01*
X305127Y126538D02*
X312127D01*
X282183Y123251D02*
Y130251D01*
X278683Y126751D02*
X285683D01*
X565127Y398941D02*
X568628Y392878D01*
X563846Y394159D02*
X569908Y397659D01*
X190811Y399269D02*
X196873Y395769D01*
X192092Y394488D02*
X195592Y400550D01*
X251396Y74481D02*
X258396D01*
X254896Y70981D02*
Y77980D01*
X339896Y70981D02*
Y77980D01*
X336396Y74481D02*
X343396D01*
X421396D02*
X428396D01*
X424896Y70981D02*
Y77980D01*
X509896Y70981D02*
Y77980D01*
X506396Y74481D02*
X513396D01*
X134222Y30719D02*
Y48718D01*
X162222Y30719D02*
Y48718D01*
X134222Y30719D02*
X162222D01*
X134222Y48718D02*
X162222D01*
X145222Y39718D02*
X151222D01*
X148222Y36718D02*
Y42719D01*
X79854Y65829D02*
Y83829D01*
X107854Y65829D02*
Y83829D01*
X79854Y65829D02*
X107854D01*
X79854Y83829D02*
X107854D01*
X90854Y74829D02*
X96854D01*
X93854Y71829D02*
Y77829D01*
X97854Y72529D02*
X115854D01*
X97854Y44529D02*
X115854D01*
X97854D02*
Y72529D01*
X115854Y44529D02*
Y72529D01*
X106854Y55529D02*
Y61529D01*
X103854Y58529D02*
X109854D01*
X111616Y30719D02*
Y48718D01*
X139616Y30719D02*
Y48718D01*
X111616Y30719D02*
X139616D01*
X111616Y48718D02*
X139616D01*
X122616Y39718D02*
X128616D01*
X125616Y36718D02*
Y42719D01*
X312923Y97071D02*
Y104071D01*
X309423Y100571D02*
X316423D01*
X309113Y109771D02*
Y116771D01*
X305613Y113271D02*
X312613D01*
X278176Y96952D02*
Y103952D01*
X274676Y100452D02*
X281676D01*
X281986Y109652D02*
Y116652D01*
X278486Y113152D02*
X285486D01*
X600247Y127484D02*
G03*
X590088Y137644I-10160J0D01*
G01*
X589833Y0D02*
G03*
X600247Y10414I0J10414D01*
G01*
X614932Y226313D02*
X707436Y279556D01*
Y290448D01*
X600247Y127170D02*
Y127484D01*
X589580Y137644D02*
X590088D01*
X600247Y10414D02*
Y127170D01*
X-32213Y141140D02*
X-20447Y169226D01*
X-39578Y114471D02*
X-32213Y141140D01*
X-44658Y90849D02*
X-39578Y114471D01*
X-46625Y72103D02*
X-44658Y90849D01*
X571624Y410713D02*
X582063Y392583D01*
X551692Y399236D02*
X562131Y381106D01*
X551692Y399236D02*
X571624Y410713D01*
X562131Y381106D02*
X582063Y392583D01*
X178657Y394193D02*
X189096Y412323D01*
X198589Y382716D02*
X209028Y400846D01*
X189096Y412323D02*
X209028Y400846D01*
X178657Y394193D02*
X198589Y382716D01*
X398980Y137644D02*
X589580Y137644D01*
X338541Y137584D02*
X360648D01*
X143128Y137644D02*
X158863D01*
X200145Y137584D02*
X261566D01*
X325067Y658299D02*
X329291D01*
X371294Y102533D02*
X388334D01*
X422905Y574221D02*
X451495Y556926D01*
X505860Y466230D01*
X489008Y441558D02*
X504336Y457340D01*
X505860Y459626D01*
X506622Y462928D01*
X505860Y466230D02*
X506622Y462928D01*
X257617Y460498D02*
X272945Y444716D01*
X256093Y462784D02*
X257617Y460498D01*
X255331Y466086D02*
X256093Y462784D01*
X255331Y466086D02*
X256093Y469388D01*
X256081Y469395D02*
X308048Y556090D01*
X428241Y729359D02*
Y909359D01*
X333241Y729359D02*
Y909359D01*
D16*
X398980Y137644D02*
G03*
X393980Y132601I22J-5022D01*
G01*
X332508Y143681D02*
G03*
X338541Y137584I6065J-31D01*
G01*
X329291Y658299D02*
G03*
X333241Y662857I-304J4254D01*
G01*
X320683D02*
G03*
X325067Y658299I4849J277D01*
G01*
X261566Y137584D02*
G03*
X267507Y143772I-123J6065D01*
G01*
X388334Y102533D02*
G03*
X393980Y108045I67J5579D01*
G01*
X365648D02*
G03*
X371294Y102533I5579J67D01*
G01*
X489008Y441558D02*
G03*
X487080Y429517I5057J-6985D01*
G01*
X274873Y432675D02*
G03*
X272945Y444716I-6985J5057D01*
G01*
X-46625Y72103D02*
G03*
X0Y13I75007J-2611D01*
G01*
X125806Y173617D02*
G03*
X143128Y137644I19993J-12530D01*
G01*
X391126Y923399D02*
G03*
X404617Y928987I0J19079D01*
G01*
X428241Y720934D02*
G03*
X446201Y677573I61321J0D01*
G01*
X279164Y966804D02*
G03*
X269353Y962740I0J-13875D01*
G01*
X349617Y972392D02*
G03*
X352805Y980088I-7696J7696D01*
G01*
X334164Y923399D02*
G03*
X324353Y919335I0J-13875D01*
G01*
X269353Y962740D02*
G03*
X265683Y953879I8860J-8860D01*
G01*
X253487Y615834D02*
G03*
X265683Y645278I-29444J29444D01*
G01*
X404617Y928987D02*
G03*
X407805Y936684I-7696J7696D01*
G01*
X365648Y132601D02*
G03*
X360648Y137584I-4992J-8D01*
G01*
X336126Y966804D02*
G03*
X349617Y972392I0J19079D01*
G01*
X324353Y919335D02*
G03*
X320683Y910475I8860J-8860D01*
G01*
X614479Y226052D02*
X614932Y226313D01*
X602264Y229344D02*
X614479Y226052D01*
X499396Y62979D02*
Y85979D01*
Y62979D02*
X520396D01*
Y85979D01*
X499396D02*
X520396D01*
X414396Y62980D02*
Y85980D01*
Y62980D02*
X435396D01*
Y85980D01*
X414396D02*
X435396D01*
X329396Y62979D02*
Y85979D01*
Y62979D02*
X350396D01*
Y85979D01*
X329396D02*
X350396D01*
X244396D02*
X265396D01*
Y62979D02*
Y85979D01*
X244396Y62979D02*
X265396D01*
X244396D02*
Y85979D01*
X267507Y143772D02*
Y342054D01*
X332508Y143681D02*
Y342054D01*
X267507D02*
X332508D01*
X393980Y108045D02*
Y132601D01*
X487080Y429517D02*
X602264Y229344D01*
X0Y0D02*
X532999Y0D01*
X589833D01*
X333241Y909359D02*
X428241D01*
X334164Y923399D02*
X391126D01*
X446201Y677573D02*
X514176Y609599D01*
X177228Y262982D02*
X274873Y432675D01*
X540153Y581162D02*
X595391Y485166D01*
X707436Y290448D01*
X166106Y487019D02*
X222176Y582534D01*
X-20447Y169226D02*
X166106Y487019D01*
X125806Y173617D02*
X177228Y262982D01*
X308048Y556090D02*
X339311Y574555D01*
X342898Y574567D02*
X422905Y574221D01*
X279164Y966804D02*
X336126D01*
X514176Y609599D02*
X540153Y581162D01*
X222176Y582534D02*
X248399Y610746D01*
X253487Y615834D01*
X158923Y137584D02*
X200145D01*
X320683Y662857D02*
Y900046D01*
X428241Y720934D02*
Y729359D01*
X365648Y108045D02*
Y132601D01*
X333241Y662857D02*
Y729359D01*
X320683Y900046D02*
Y910475D01*
X339311Y574555D02*
X341104Y574576D01*
X342898Y574567D01*
X265683Y645278D02*
Y651873D01*
D17*
X352805Y1098628D02*
X407805D01*
Y936684D02*
Y1098628D01*
D18*
X352805Y980088D02*
Y1098628D01*
X265683Y651873D02*
X265683Y953879D01*
D81*
X364410Y1092244D02*
X395652D01*
X364410Y1042714D02*
Y1092244D01*
Y1042714D02*
X395652D01*
Y1092244D01*
D84*
X370522Y1061065D02*
X388521D01*
X370522Y1053064D02*
X388521D01*
Y1061065D01*
X370522Y1053064D02*
Y1061065D01*
X367522Y1066296D02*
X391521D01*
X367522Y1077297D02*
X391521D01*
X367522Y1066296D02*
Y1077297D01*
X391521Y1066296D02*
Y1077297D01*
X396393Y648148D02*
Y655148D01*
X378393Y648148D02*
Y655148D01*
X396393D01*
X378393Y648148D02*
X396393D01*
X384393Y651648D02*
X390393D01*
X387393Y648648D02*
Y654648D01*
X349354Y637181D02*
Y644181D01*
X367354Y637181D02*
Y644181D01*
X349354Y637181D02*
X367354D01*
X349354Y644181D02*
X367354D01*
X355354Y640681D02*
X361354D01*
X358354Y637681D02*
Y643681D01*
X138128Y73656D02*
X148128D01*
X143128Y68657D02*
Y78657D01*
X414571Y622305D02*
Y632305D01*
X409571Y627305D02*
X419571D01*
X91752Y103405D02*
X109752D01*
X91752Y95405D02*
X109752D01*
Y103405D01*
X91752Y95405D02*
Y103405D01*
Y91975D02*
X109752D01*
X91752Y83975D02*
X109752D01*
Y91975D01*
X91752Y83975D02*
Y91975D01*
X299627Y130538D02*
X317627D01*
X299627Y122538D02*
X317627D01*
Y130538D01*
X299627Y122538D02*
Y130538D01*
X273183Y122751D02*
X291183D01*
X273183Y130751D02*
X291183D01*
X273183Y122751D02*
Y130751D01*
X291183Y122751D02*
Y130751D01*
X349104Y618156D02*
Y625156D01*
X367104Y618156D02*
Y625156D01*
X349104Y618156D02*
X367104D01*
X349104Y625156D02*
X367104D01*
X355104Y621656D02*
X361104D01*
X358104Y618656D02*
Y624656D01*
X455179Y627056D02*
X461179D01*
X458179Y624056D02*
Y630056D01*
X461679Y618056D02*
Y636056D01*
X454679Y618056D02*
Y636056D01*
Y618056D02*
X461679D01*
X454679Y636056D02*
X461679D01*
X358135Y604301D02*
Y610301D01*
X355135Y607301D02*
X361135D01*
X349135Y603801D02*
X367135D01*
X349135Y610801D02*
X367135D01*
X349135Y603801D02*
Y610801D01*
X367135Y603801D02*
Y610801D01*
X393441Y599475D02*
X393441Y605475D01*
X390441Y602475D02*
X396441Y602475D01*
X384441Y605975D02*
X402441Y605975D01*
X384441Y598975D02*
X402441D01*
Y605975D01*
X384441Y598975D02*
Y605975D01*
X548650Y408480D02*
X565105Y417980D01*
X568650Y373839D02*
X585105Y383339D01*
X548650Y408480D02*
X568650Y373839D01*
X565105Y417980D02*
X585105Y383339D01*
X175615Y384949D02*
X195615Y419590D01*
X192069Y375449D02*
X212069Y410090D01*
X195615Y419590D02*
X212069Y410090D01*
X175615Y384949D02*
X192069Y375449D01*
X234896Y64981D02*
Y83981D01*
X274896Y64981D02*
Y83981D01*
X234896Y64981D02*
X274896D01*
X234896Y83981D02*
X274896D01*
X319896D02*
X359896D01*
X319896Y64981D02*
X359896D01*
Y83981D01*
X319896Y64981D02*
Y83981D01*
X404896Y64981D02*
Y83981D01*
X444896Y64981D02*
Y83981D01*
X404896Y64981D02*
X444896D01*
X404896Y83981D02*
X444896D01*
X489896D02*
X529896D01*
X489896Y64981D02*
X529896D01*
Y83981D01*
X489896Y64981D02*
Y83981D01*
X300923Y106071D02*
X324923D01*
X300923Y95071D02*
X324923D01*
Y106071D01*
X300923Y95071D02*
Y106071D01*
X300113Y109271D02*
Y117271D01*
X318113Y109271D02*
Y117271D01*
X300113Y109271D02*
X318113D01*
X300113Y117271D02*
X318113D01*
X266176Y94952D02*
X290176D01*
X266176Y105952D02*
X290176D01*
X266176Y94952D02*
Y105952D01*
X290176Y94952D02*
Y105952D01*
X290986Y109152D02*
Y117152D01*
X272986Y109152D02*
Y117152D01*
X290986D01*
X272986Y109152D02*
X290986D01*
X357304Y648006D02*
Y655006D01*
X375304Y648006D02*
Y655006D01*
X357304Y648006D02*
X375304D01*
X357304Y655006D02*
X375304D01*
X363304Y651506D02*
X369304D01*
X366304Y648506D02*
Y654506D01*
X349104Y627506D02*
Y634506D01*
X367104Y627506D02*
Y634506D01*
X349104Y627506D02*
X367104D01*
X349104Y634506D02*
X367104D01*
X355104Y631006D02*
X361104D01*
X358104Y628006D02*
Y634006D01*
X295008Y322054D02*
X305007D01*
X300008Y317055D02*
Y327054D01*
M02*
