G04*
G04 #@! TF.GenerationSoftware,Altium Limited,Altium Designer,18.1.4 (159)*
G04*
G04 Layer_Color=65535*
%FSLAX44Y44*%
%MOMM*%
G71*
G01*
G75*
%ADD10C,0.2500*%
%ADD11C,0.0999*%
%ADD12C,0.1524*%
%ADD13C,0.2540*%
%ADD14C,0.2032*%
%ADD15C,0.0500*%
%ADD16C,0.0500*%
%ADD17C,0.0510*%
%ADD18C,0.0508*%
D10*
X364329Y1050953D02*
G03*
X364329Y1050953I-1189J0D01*
G01*
X328883Y297729D02*
G03*
X328883Y297729I-1250J0D01*
G01*
D11*
X61687Y74980D02*
G03*
X61687Y74980I-5000J0D01*
G01*
X70831Y149976D02*
G03*
X70831Y149976I-5000J0D01*
G01*
X283176Y128441D02*
G03*
X283176Y128441I-5000J0D01*
G01*
X45431Y115929D02*
G03*
X45431Y115929I-5000J0D01*
G01*
X79054Y111048D02*
G03*
X79054Y111048I-5000J0D01*
G01*
X73974Y68630D02*
G03*
X73974Y68630I-5000J0D01*
G01*
X21047Y115929D02*
G03*
X21047Y115929I-5000J0D01*
G01*
X367961Y640067D02*
G03*
X367961Y640067I-5000J0D01*
G01*
X308067Y17951D02*
G03*
X308067Y17951I-5000J0D01*
G01*
X84896Y43992D02*
G03*
X84896Y43992I-5000J0D01*
G01*
X60925Y22269D02*
G03*
X60925Y22269I-5000J0D01*
G01*
X288764Y161500D02*
G03*
X288764Y161500I-5000J0D01*
G01*
X163128Y100469D02*
G03*
X163128Y100469I-5000J0D01*
G01*
X180936Y108000D02*
G03*
X180936Y108000I-5000J0D01*
G01*
X180908Y88696D02*
G03*
X180908Y88696I-5000J0D01*
G01*
X52544Y135553D02*
G03*
X52544Y135553I-5000J0D01*
G01*
D12*
X367204Y1089352D02*
X392858D01*
X366954D02*
X367204Y1045352D01*
X392858D01*
Y1089352D01*
D13*
X21635Y138305D02*
X26714D01*
X24175D01*
Y130687D01*
X29253D02*
Y138305D01*
X33062D01*
X34331Y137035D01*
Y134496D01*
X33062Y133227D01*
X29253D01*
X36871Y130687D02*
X39410D01*
X38140D01*
Y138305D01*
X36871Y137035D01*
X183687Y93544D02*
X188766D01*
X186227D01*
Y85927D01*
X191305D02*
Y93544D01*
X195114D01*
X196383Y92275D01*
Y89735D01*
X195114Y88466D01*
X191305D01*
X198923Y85927D02*
X201462D01*
X200192D01*
Y93544D01*
X198923Y92275D01*
X210349Y93544D02*
X207810Y92275D01*
X205271Y89735D01*
Y87196D01*
X206540Y85927D01*
X209079D01*
X210349Y87196D01*
Y88466D01*
X209079Y89735D01*
X205271D01*
X126038Y111643D02*
X131116D01*
X128577D01*
Y104025D01*
X133655D02*
Y111643D01*
X137464D01*
X138734Y110373D01*
Y107834D01*
X137464Y106565D01*
X133655D01*
X141273Y104025D02*
X143812D01*
X142542D01*
Y111643D01*
X141273Y110373D01*
X151430Y104025D02*
Y111643D01*
X147621Y107834D01*
X152699D01*
X292654Y165808D02*
X297732D01*
X295193D01*
Y158190D01*
X300271D02*
Y165808D01*
X304080D01*
X305349Y164538D01*
Y161999D01*
X304080Y160729D01*
X300271D01*
X307889Y158190D02*
X310428D01*
X309158D01*
Y165808D01*
X307889Y164538D01*
X314237D02*
X315506Y165808D01*
X318045D01*
X319315Y164538D01*
Y163268D01*
X318045Y161999D01*
X316776D01*
X318045D01*
X319315Y160729D01*
Y159460D01*
X318045Y158190D01*
X315506D01*
X314237Y159460D01*
X20111Y26330D02*
X25190D01*
X22651D01*
Y18713D01*
X27729D02*
Y26330D01*
X31538D01*
X32807Y25060D01*
Y22521D01*
X31538Y21252D01*
X27729D01*
X35347Y18713D02*
X37886D01*
X36616D01*
Y26330D01*
X35347Y25060D01*
X46773Y18713D02*
X41695D01*
X46773Y23791D01*
Y25060D01*
X45503Y26330D01*
X42964D01*
X41695Y25060D01*
X67958Y58976D02*
X73036D01*
X70497D01*
Y51358D01*
X75575D02*
Y58976D01*
X79384D01*
X80654Y57706D01*
Y55167D01*
X79384Y53898D01*
X75575D01*
X83193Y51358D02*
X85732D01*
X84463D01*
Y58976D01*
X83193Y57706D01*
X89541Y51358D02*
X92080D01*
X90811D01*
Y58976D01*
X89541Y57706D01*
X312127Y21758D02*
X317205D01*
X314666D01*
Y14140D01*
X319745D02*
Y21758D01*
X323553D01*
X324823Y20488D01*
Y17949D01*
X323553Y16680D01*
X319745D01*
X327362Y14140D02*
X329901D01*
X328632D01*
Y21758D01*
X327362Y20488D01*
X333710D02*
X334980Y21758D01*
X337519D01*
X338788Y20488D01*
Y15410D01*
X337519Y14140D01*
X334980D01*
X333710Y15410D01*
Y20488D01*
X354833Y631936D02*
X359911D01*
X357372D01*
Y624319D01*
X362450D02*
Y631936D01*
X366259D01*
X367528Y630667D01*
Y628128D01*
X366259Y626858D01*
X362450D01*
X370068Y625588D02*
X371337Y624319D01*
X373876D01*
X375146Y625588D01*
Y630667D01*
X373876Y631936D01*
X371337D01*
X370068Y630667D01*
Y629397D01*
X371337Y628128D01*
X375146D01*
X5379Y107102D02*
X10458D01*
X7919D01*
Y99485D01*
X12997D02*
Y107102D01*
X16806D01*
X18075Y105832D01*
Y103293D01*
X16806Y102024D01*
X12997D01*
X20615Y105832D02*
X21884Y107102D01*
X24423D01*
X25693Y105832D01*
Y104563D01*
X24423Y103293D01*
X25693Y102024D01*
Y100754D01*
X24423Y99485D01*
X21884D01*
X20615Y100754D01*
Y102024D01*
X21884Y103293D01*
X20615Y104563D01*
Y105832D01*
X21884Y103293D02*
X24423D01*
X76768Y72692D02*
X81846D01*
X79307D01*
Y65074D01*
X84385D02*
Y72692D01*
X88194D01*
X89464Y71422D01*
Y68883D01*
X88194Y67614D01*
X84385D01*
X92003Y72692D02*
X97081D01*
Y71422D01*
X92003Y66344D01*
Y65074D01*
X81928Y114257D02*
X87006D01*
X84467D01*
Y106639D01*
X89545D02*
Y114257D01*
X93354D01*
X94624Y112987D01*
Y110448D01*
X93354Y109178D01*
X89545D01*
X102241Y114257D02*
X99702Y112987D01*
X97163Y110448D01*
Y107909D01*
X98433Y106639D01*
X100972D01*
X102241Y107909D01*
Y109178D01*
X100972Y110448D01*
X97163D01*
X36367Y107102D02*
X41446D01*
X38907D01*
Y99485D01*
X43985D02*
Y107102D01*
X47794D01*
X49063Y105832D01*
Y103293D01*
X47794Y102024D01*
X43985D01*
X55411Y99485D02*
Y107102D01*
X51603Y103293D01*
X56681D01*
X249982Y131740D02*
X255061D01*
X252521D01*
Y124122D01*
X257600D02*
Y131740D01*
X261409D01*
X262678Y130470D01*
Y127931D01*
X261409Y126662D01*
X257600D01*
X265217Y130470D02*
X266487Y131740D01*
X269026D01*
X270296Y130470D01*
Y129201D01*
X269026Y127931D01*
X267757D01*
X269026D01*
X270296Y126662D01*
Y125392D01*
X269026Y124122D01*
X266487D01*
X265217Y125392D01*
X37129Y155054D02*
X42208D01*
X39669D01*
Y147436D01*
X44747D02*
Y155054D01*
X48556D01*
X49825Y153784D01*
Y151245D01*
X48556Y149975D01*
X44747D01*
X57443Y147436D02*
X52365D01*
X57443Y152515D01*
Y153784D01*
X56173Y155054D01*
X53634D01*
X52365Y153784D01*
X155048Y348765D02*
X154584Y350499D01*
X152385Y351768D01*
X150650Y351304D01*
X148111Y346906D01*
X148576Y345172D01*
X150775Y343902D01*
X152509Y344367D01*
X154073Y341997D02*
X157882Y348595D01*
X161180Y346690D01*
X161645Y344956D01*
X160375Y342757D01*
X158641Y342292D01*
X155343Y344197D01*
X157542Y342927D02*
X158471Y339458D01*
X164479Y344786D02*
X165068Y335650D01*
X168877Y342247D02*
X160670Y338189D01*
X167267Y334380D02*
X169466Y333110D01*
X168367Y333745D01*
X172175Y340342D01*
X170441Y339878D01*
X590067Y338437D02*
X588333Y338902D01*
X586134Y337632D01*
X585669Y335898D01*
X588208Y331500D01*
X589942Y331036D01*
X592141Y332305D01*
X592606Y334039D01*
X595440Y334210D02*
X591631Y340807D01*
X594930Y342711D01*
X596664Y342246D01*
X597934Y340047D01*
X597469Y338313D01*
X594170Y336409D01*
X596369Y337678D02*
X599838Y336749D01*
X598228Y344615D02*
X606435Y340558D01*
X602626Y347154D02*
X602037Y338018D01*
X605460Y347325D02*
X605925Y349059D01*
X608124Y350328D01*
X609858Y349864D01*
X612397Y345466D01*
X611932Y343731D01*
X609733Y342462D01*
X607999Y342927D01*
X605460Y347325D01*
X404031Y1084359D02*
X397683D01*
X396414Y1083089D01*
Y1080550D01*
X397683Y1079280D01*
X404031D01*
Y1076741D02*
Y1071663D01*
X402761D01*
X397683Y1076741D01*
X396414D01*
X298820Y289626D02*
X296281D01*
X297550D01*
Y283278D01*
X296281Y282008D01*
X295011D01*
X293742Y283278D01*
X301359Y282008D02*
X303898D01*
X302629D01*
Y289626D01*
X301359Y288356D01*
X27478Y78146D02*
X32556D01*
X30017D01*
Y70528D01*
X35095D02*
Y78146D01*
X38904D01*
X40173Y76876D01*
Y74337D01*
X38904Y73068D01*
X35095D01*
X47791Y78146D02*
X42713D01*
Y74337D01*
X45252Y75607D01*
X46521D01*
X47791Y74337D01*
Y71798D01*
X46521Y70528D01*
X43982D01*
X42713Y71798D01*
X314494Y-16853D02*
X304338D01*
Y-24470D01*
X309416D01*
X304338D01*
Y-32088D01*
X319573D02*
X324651D01*
X322112D01*
Y-16853D01*
X319573D01*
X339886Y-32088D02*
X334808D01*
X332268Y-29548D01*
Y-24470D01*
X334808Y-21931D01*
X339886D01*
X342425Y-24470D01*
Y-27009D01*
X332268D01*
X347504Y-21931D02*
X357660Y-32088D01*
X352582Y-27009D01*
X357660Y-21931D01*
X347504Y-32088D01*
X377974D02*
Y-16853D01*
X385591D01*
X388130Y-19392D01*
Y-24470D01*
X385591Y-27009D01*
X377974D01*
X403366Y-19392D02*
X400826Y-16853D01*
X395748D01*
X393209Y-19392D01*
Y-29548D01*
X395748Y-32088D01*
X400826D01*
X403366Y-29548D01*
X408444Y-16853D02*
Y-32088D01*
X416061D01*
X418601Y-29548D01*
Y-27009D01*
X416061Y-24470D01*
X408444D01*
X416061D01*
X418601Y-21931D01*
Y-19392D01*
X416061Y-16853D01*
X408444D01*
X446531D02*
X441453D01*
X438914Y-19392D01*
Y-29548D01*
X441453Y-32088D01*
X446531D01*
X449071Y-29548D01*
Y-19392D01*
X446531Y-16853D01*
X454149Y-21931D02*
Y-29548D01*
X456688Y-32088D01*
X464306D01*
Y-21931D01*
X471923Y-19392D02*
Y-21931D01*
X469384D01*
X474463D01*
X471923D01*
Y-29548D01*
X474463Y-32088D01*
X482080D02*
X487158D01*
X484619D01*
Y-16853D01*
X482080D01*
X494776Y-32088D02*
X499854D01*
X497315D01*
Y-21931D01*
X494776D01*
X507472Y-32088D02*
Y-21931D01*
X515089D01*
X517629Y-24470D01*
Y-32088D01*
X530324D02*
X525246D01*
X522707Y-29548D01*
Y-24470D01*
X525246Y-21931D01*
X530324D01*
X532864Y-24470D01*
Y-27009D01*
X522707D01*
D14*
X166458Y120532D02*
X170690D01*
X168574D01*
Y114184D01*
X172806D02*
Y120532D01*
X175980D01*
X177038Y119474D01*
Y117358D01*
X175980Y116300D01*
X172806D01*
X179154Y114184D02*
X181270D01*
X180212D01*
Y120532D01*
X179154Y119474D01*
X188676Y120532D02*
X184444D01*
Y117358D01*
X186560Y118416D01*
X187618D01*
X188676Y117358D01*
Y115242D01*
X187618Y114184D01*
X185502D01*
X184444Y115242D01*
D15*
X600247Y127484D02*
G03*
X590088Y137644I-10160J0D01*
G01*
X589833Y0D02*
G03*
X600247Y10414I0J10414D01*
G01*
X614932Y226313D02*
X707436Y279556D01*
Y290448D01*
X600247Y127170D02*
Y127484D01*
X589580Y137644D02*
X590088D01*
X600247Y10414D02*
Y127170D01*
X-32213Y141140D02*
X-20447Y169226D01*
X-39578Y114471D02*
X-32213Y141140D01*
X-44658Y90849D02*
X-39578Y114471D01*
X-46625Y72103D02*
X-44658Y90849D01*
X571624Y410713D02*
X582063Y392583D01*
X551692Y399236D02*
X562131Y381106D01*
X551692Y399236D02*
X571624Y410713D01*
X562131Y381106D02*
X582063Y392583D01*
X178657Y394193D02*
X189096Y412323D01*
X198589Y382716D02*
X209028Y400846D01*
X189096Y412323D02*
X209028Y400846D01*
X178657Y394193D02*
X198589Y382716D01*
X398980Y137644D02*
X589580Y137644D01*
X338541Y137584D02*
X360648D01*
X143128Y137644D02*
X158863D01*
X200145Y137584D02*
X261566D01*
X325067Y658299D02*
X329291D01*
X371294Y102533D02*
X388334D01*
X422905Y574221D02*
X451495Y556926D01*
X505860Y466230D01*
X489008Y441558D02*
X504336Y457340D01*
X505860Y459626D01*
X506622Y462928D01*
X505860Y466230D02*
X506622Y462928D01*
X257617Y460498D02*
X272945Y444716D01*
X256093Y462784D02*
X257617Y460498D01*
X255331Y466086D02*
X256093Y462784D01*
X255331Y466086D02*
X256093Y469388D01*
X256081Y469395D02*
X308048Y556090D01*
X428241Y729359D02*
Y909359D01*
X333241Y729359D02*
Y909359D01*
D16*
X398980Y137644D02*
G03*
X393980Y132601I22J-5022D01*
G01*
X332508Y143681D02*
G03*
X338541Y137584I6065J-31D01*
G01*
X329291Y658299D02*
G03*
X333241Y662857I-304J4254D01*
G01*
X320683D02*
G03*
X325067Y658299I4849J277D01*
G01*
X261566Y137584D02*
G03*
X267507Y143772I-123J6065D01*
G01*
X388334Y102533D02*
G03*
X393980Y108045I67J5579D01*
G01*
X365648D02*
G03*
X371294Y102533I5579J67D01*
G01*
X489008Y441558D02*
G03*
X487080Y429517I5057J-6985D01*
G01*
X274873Y432675D02*
G03*
X272945Y444716I-6985J5057D01*
G01*
X-46625Y72103D02*
G03*
X0Y13I75007J-2611D01*
G01*
X125806Y173617D02*
G03*
X143128Y137644I19993J-12530D01*
G01*
X391126Y923399D02*
G03*
X404617Y928987I0J19079D01*
G01*
X428241Y720934D02*
G03*
X446201Y677573I61321J0D01*
G01*
X279164Y966804D02*
G03*
X269353Y962740I0J-13875D01*
G01*
X349617Y972392D02*
G03*
X352805Y980088I-7696J7696D01*
G01*
X334164Y923399D02*
G03*
X324353Y919335I0J-13875D01*
G01*
X269353Y962740D02*
G03*
X265683Y953879I8860J-8860D01*
G01*
X253487Y615834D02*
G03*
X265683Y645278I-29444J29444D01*
G01*
X404617Y928987D02*
G03*
X407805Y936684I-7696J7696D01*
G01*
X365648Y132601D02*
G03*
X360648Y137584I-4992J-8D01*
G01*
X336126Y966804D02*
G03*
X349617Y972392I0J19079D01*
G01*
X324353Y919335D02*
G03*
X320683Y910475I8860J-8860D01*
G01*
X614479Y226052D02*
X614932Y226313D01*
X602264Y229344D02*
X614479Y226052D01*
X499396Y62979D02*
Y85979D01*
Y62979D02*
X520396D01*
Y85979D01*
X499396D02*
X520396D01*
X414396Y62980D02*
Y85980D01*
Y62980D02*
X435396D01*
Y85980D01*
X414396D02*
X435396D01*
X329396Y62979D02*
Y85979D01*
Y62979D02*
X350396D01*
Y85979D01*
X329396D02*
X350396D01*
X244396D02*
X265396D01*
Y62979D02*
Y85979D01*
X244396Y62979D02*
X265396D01*
X244396D02*
Y85979D01*
X267507Y143772D02*
Y342054D01*
X332508Y143681D02*
Y342054D01*
X267507D02*
X332508D01*
X393980Y108045D02*
Y132601D01*
X487080Y429517D02*
X602264Y229344D01*
X0Y0D02*
X532999Y0D01*
X589833D01*
X333241Y909359D02*
X428241D01*
X334164Y923399D02*
X391126D01*
X446201Y677573D02*
X514176Y609599D01*
X177228Y262982D02*
X274873Y432675D01*
X540153Y581162D02*
X595391Y485166D01*
X707436Y290448D01*
X166106Y487019D02*
X222176Y582534D01*
X-20447Y169226D02*
X166106Y487019D01*
X125806Y173617D02*
X177228Y262982D01*
X308048Y556090D02*
X339311Y574555D01*
X342898Y574567D02*
X422905Y574221D01*
X279164Y966804D02*
X336126D01*
X514176Y609599D02*
X540153Y581162D01*
X222176Y582534D02*
X248399Y610746D01*
X253487Y615834D01*
X158923Y137584D02*
X200145D01*
X320683Y662857D02*
Y900046D01*
X428241Y720934D02*
Y729359D01*
X365648Y108045D02*
Y132601D01*
X333241Y662857D02*
Y729359D01*
X320683Y900046D02*
Y910475D01*
X339311Y574555D02*
X341104Y574576D01*
X342898Y574567D01*
X265683Y645278D02*
Y651873D01*
D17*
X352805Y1098628D02*
X407805D01*
Y936684D02*
Y1098628D01*
D18*
X352805Y980088D02*
Y1098628D01*
X265683Y651873D02*
X265683Y953879D01*
M02*
