G04*
G04 #@! TF.GenerationSoftware,Altium Limited,Altium Designer,19.0.12 (326)*
G04*
G04 Layer_Color=16711935*
%FSLAX44Y44*%
%MOMM*%
G71*
G01*
G75*
%ADD14C,0.2000*%
%ADD19C,0.0500*%
%ADD79C,0.3810*%
%ADD81C,0.5080*%
%ADD82C,0.2540*%
%ADD146C,0.0254*%
%ADD147C,0.5000*%
D14*
X2839274Y-1181074D02*
Y-1180360D01*
X2839988Y-1178932D01*
X2840703Y-1178217D01*
X2842131Y-1177503D01*
X2844987D01*
X2846415Y-1178217D01*
X2847130Y-1178932D01*
X2847844Y-1180360D01*
Y-1181788D01*
X2847130Y-1183216D01*
X2845701Y-1185359D01*
X2838560Y-1192500D01*
X2848558D01*
X2887274Y-1181074D02*
Y-1180360D01*
X2887988Y-1178932D01*
X2888702Y-1178217D01*
X2890131Y-1177503D01*
X2892987D01*
X2894415Y-1178217D01*
X2895130Y-1178932D01*
X2895844Y-1180360D01*
Y-1181788D01*
X2895130Y-1183216D01*
X2893701Y-1185359D01*
X2886560Y-1192500D01*
X2896558D01*
D19*
X422136Y640793D02*
G03*
X422136Y640793I-21250J0D01*
G01*
X426867Y709393D02*
G03*
X374905Y709393I-25981J-15000D01*
G01*
X-25992Y15018D02*
G03*
X-11Y-29982I25981J-15000D01*
G01*
X376136Y151476D02*
G03*
X376136Y151476I-113750J0D01*
G01*
X653136D02*
G03*
X653136Y151476I-113750J0D01*
G01*
X801784Y-29982D02*
G03*
X827764Y15018I0J30000D01*
G01*
X759783Y-15982D02*
G03*
X749783Y-5982I-10000J0D01*
G01*
X697066Y-357D02*
G03*
X655284Y-9982I-19783J-9625D01*
G01*
X697066Y-357D02*
G03*
X706059Y-5982I8992J4375D01*
G01*
X408886Y2018D02*
G03*
X392886Y2018I-8000J0D01*
G01*
X146489Y-9982D02*
G03*
X104706Y-357I-22000J0D01*
G01*
X95714Y-5982D02*
G03*
X104706Y-357I0J10000D01*
G01*
X51989Y-5982D02*
G03*
X41989Y-15982I0J-10000D01*
G01*
X-25992Y15018D02*
X374905Y709393D01*
X-11Y-29982D02*
X41989D01*
X426867Y709393D02*
X827764Y15018D01*
X759783Y-29982D02*
X801784D01*
X759783D02*
Y-15982D01*
X706059Y-5982D02*
X749783D01*
X655284Y-24982D02*
Y-9982D01*
X408886Y-24982D02*
X655284D01*
X408886D02*
Y2018D01*
X392886Y-24982D02*
Y2018D01*
X146489Y-24982D02*
X392886D01*
X51989Y-5982D02*
X95714D01*
X146489Y-24982D02*
Y-9982D01*
X41989Y-29982D02*
Y-15982D01*
D79*
X95904Y-300228D02*
X1248760D01*
X95904Y-269748D02*
X1248760D01*
X95904Y-635508D02*
Y-269748D01*
Y-635508D02*
X200022D01*
X95904Y-605028D02*
X200022D01*
X95904Y-574548D02*
X200022D01*
X95904Y-544068D02*
X200022D01*
X95904Y-513588D02*
X200022D01*
X95904Y-483108D02*
X200022D01*
X95904Y-452628D02*
X200022D01*
X95904Y-422148D02*
X200022D01*
X95904Y-391668D02*
X200022D01*
X95904Y-361188D02*
X200022D01*
X95904Y-330708D02*
X200022D01*
Y-635508D02*
Y-269748D01*
Y-635508D02*
X436177D01*
X200022Y-605028D02*
X436177D01*
X200022Y-574548D02*
X436177D01*
X200022Y-544068D02*
X436177D01*
X200022Y-513588D02*
X436177D01*
X200022Y-483108D02*
X436177D01*
X200022Y-452628D02*
X436177D01*
X200022Y-422148D02*
X436177D01*
X200022Y-391668D02*
X436177D01*
X200022Y-361188D02*
X436177D01*
X200022Y-330708D02*
X436177D01*
Y-635508D02*
Y-269748D01*
Y-635508D02*
X654558D01*
X436177Y-605028D02*
X654558D01*
X436177Y-574548D02*
X654558D01*
X436177Y-544068D02*
X654558D01*
X436177Y-513588D02*
X654558D01*
X436177Y-483108D02*
X654558D01*
X436177Y-452628D02*
X654558D01*
X436177Y-422148D02*
X654558D01*
X436177Y-391668D02*
X654558D01*
X436177Y-361188D02*
X654558D01*
X436177Y-330708D02*
X654558D01*
Y-635508D02*
Y-269748D01*
Y-635508D02*
X819616D01*
X654558Y-605028D02*
X819616D01*
X654558Y-574548D02*
X819616D01*
X654558Y-544068D02*
X819616D01*
X654558Y-513588D02*
X819616D01*
X654558Y-483108D02*
X819616D01*
X654558Y-452628D02*
X819616D01*
X654558Y-422148D02*
X819616D01*
X654558Y-391668D02*
X819616D01*
X654558Y-361188D02*
X819616D01*
X654558Y-330708D02*
X819616D01*
Y-635508D02*
Y-269748D01*
Y-635508D02*
X964361D01*
X819616Y-605028D02*
X964361D01*
X819616Y-574548D02*
X964361D01*
X819616Y-544068D02*
X964361D01*
X819616Y-513588D02*
X964361D01*
X819616Y-483108D02*
X964361D01*
X819616Y-452628D02*
X964361D01*
X819616Y-422148D02*
X964361D01*
X819616Y-391668D02*
X964361D01*
X819616Y-361188D02*
X964361D01*
X819616Y-330708D02*
X964361D01*
Y-635508D02*
Y-269748D01*
Y-635508D02*
X1248760D01*
X964361Y-605028D02*
X1248760D01*
X964361Y-574548D02*
X1248760D01*
X964361Y-544068D02*
X1248760D01*
X964361Y-513588D02*
X1248760D01*
X964361Y-483108D02*
X1248760D01*
X964361Y-452628D02*
X1248760D01*
X964361Y-422148D02*
X1248760D01*
X964361Y-391668D02*
X1248760D01*
X964361Y-361188D02*
X1248760D01*
X964361Y-330708D02*
X1248760D01*
Y-635508D02*
Y-269748D01*
X116372Y-1157798D02*
X145026D01*
Y-1148246D01*
X145059Y-1147577D01*
X145320Y-1146266D01*
X145832Y-1145030D01*
X146575Y-1143918D01*
X147520Y-1142972D01*
X148632Y-1142229D01*
X149868Y-1141718D01*
X151180Y-1141457D01*
X151848Y-1141424D01*
X181680D01*
X182639D01*
X184484Y-1140894D01*
X186112Y-1139876D01*
X187395Y-1138449D01*
X187815Y-1137586D01*
X188413Y-1136477D01*
X189879Y-1134427D01*
X191667Y-1132652D01*
X193726Y-1131201D01*
X195999Y-1130115D01*
X198422Y-1129424D01*
X200926Y-1129148D01*
X203441Y-1129295D01*
X205896Y-1129861D01*
X208222Y-1130829D01*
X210353Y-1132172D01*
X212230Y-1133854D01*
X213799Y-1135825D01*
X215015Y-1138031D01*
X215846Y-1140409D01*
X216268Y-1142893D01*
X216321Y-1144153D01*
Y-1154386D02*
Y-1144153D01*
Y-1154386D02*
X384425D01*
Y-1135966D01*
X384471Y-1135253D01*
X384840Y-1133877D01*
X385552Y-1132643D01*
X386560Y-1131636D01*
X387794Y-1130923D01*
X389170Y-1130555D01*
X390595D01*
X391971Y-1130923D01*
X393205Y-1131636D01*
X394213Y-1132643D01*
X394925Y-1133877D01*
X395294Y-1135253D01*
X395340Y-1135966D01*
Y-1154386D02*
Y-1135966D01*
Y-1154386D02*
X563444D01*
Y-1144153D01*
X563497Y-1142893D01*
X563919Y-1140409D01*
X564750Y-1138031D01*
X565967Y-1135825D01*
X567535Y-1133854D01*
X569412Y-1132172D01*
X571543Y-1130829D01*
X573869Y-1129861D01*
X576324Y-1129295D01*
X578839Y-1129148D01*
X581343Y-1129424D01*
X583766Y-1130115D01*
X586039Y-1131201D01*
X588098Y-1132652D01*
X589886Y-1134427D01*
X591352Y-1136477D01*
X591950Y-1137586D01*
X592370Y-1138449D01*
X593653Y-1139876D01*
X595281Y-1140894D01*
X597126Y-1141424D01*
X598085D01*
X627917D01*
X628585Y-1141457D01*
X629897Y-1141718D01*
X631133Y-1142229D01*
X632245Y-1142972D01*
X633190Y-1143918D01*
X633933Y-1145030D01*
X634445Y-1146266D01*
X634706Y-1147577D01*
X634739Y-1148246D01*
Y-1157798D02*
Y-1148246D01*
Y-1157798D02*
X663393D01*
X665184D01*
X668711Y-1157176D01*
X672076Y-1155951D01*
X675178Y-1154160D01*
X677921Y-1151858D01*
X680223Y-1149115D01*
X682014Y-1146013D01*
X683239Y-1142648D01*
X683861Y-1139121D01*
Y-1135539D01*
X683239Y-1132013D02*
X683861Y-1135539D01*
X682014Y-1128647D02*
X683239Y-1132013D01*
X681119Y-1127096D02*
X682014Y-1128647D01*
X407608Y-653362D02*
X681119Y-1127096D01*
X406712Y-651811D02*
X407608Y-653362D01*
X404411Y-649067D02*
X406712Y-651811D01*
X401667Y-646765D02*
X404411Y-649067D01*
X398565Y-644975D02*
X401667Y-646765D01*
X395200Y-643750D02*
X398565Y-644975D01*
X391673Y-643128D02*
X395200Y-643750D01*
X388092Y-643128D02*
X391673D01*
X384565Y-643750D02*
X388092Y-643128D01*
X381200Y-644975D02*
X384565Y-643750D01*
X378098Y-646765D02*
X381200Y-644975D01*
X375354Y-649067D02*
X378098Y-646765D01*
X373052Y-651811D02*
X375354Y-649067D01*
X372157Y-653362D02*
X373052Y-651811D01*
X98646Y-1127096D02*
X372157Y-653362D01*
X97751Y-1128647D02*
X98646Y-1127096D01*
X96526Y-1132013D02*
X97751Y-1128647D01*
X95904Y-1135539D02*
X96526Y-1132013D01*
X95904Y-1139121D02*
Y-1135539D01*
Y-1139121D02*
X96526Y-1142648D01*
X97751Y-1146013D01*
X99542Y-1149115D01*
X101844Y-1151858D01*
X104587Y-1154160D01*
X107689Y-1155951D01*
X111054Y-1157176D01*
X114581Y-1157798D01*
X116372D01*
D81*
X1081524Y994906D02*
X1056132D01*
Y975862D01*
X1068828D01*
X1056132D01*
Y956818D01*
X1094220D02*
Y982210D01*
X1106916Y994906D01*
X1119612Y982210D01*
Y956818D01*
Y975862D01*
X1094220D01*
X1132307Y994906D02*
Y956818D01*
X1151351D01*
X1157699Y963166D01*
Y969514D01*
X1151351Y975862D01*
X1132307D01*
X1151351D01*
X1157699Y982210D01*
Y988558D01*
X1151351Y994906D01*
X1132307D01*
X1170395Y956818D02*
Y994906D01*
X1189439D01*
X1195787Y988558D01*
Y975862D01*
X1189439Y969514D01*
X1170395D01*
X1183091D02*
X1195787Y956818D01*
X1208483Y994906D02*
X1221179D01*
X1214831D01*
Y956818D01*
X1208483D01*
X1221179D01*
X1265614Y988558D02*
X1259266Y994906D01*
X1246570D01*
X1240222Y988558D01*
Y963166D01*
X1246570Y956818D01*
X1259266D01*
X1265614Y963166D01*
X1278310Y956818D02*
Y982210D01*
X1291006Y994906D01*
X1303702Y982210D01*
Y956818D01*
Y975862D01*
X1278310D01*
X1316398Y994906D02*
X1341790D01*
X1329094D01*
Y956818D01*
X1354485Y994906D02*
X1367181D01*
X1360833D01*
Y956818D01*
X1354485D01*
X1367181D01*
X1405269Y994906D02*
X1392573D01*
X1386225Y988558D01*
Y963166D01*
X1392573Y956818D01*
X1405269D01*
X1411617Y963166D01*
Y988558D01*
X1405269Y994906D01*
X1424313Y956818D02*
Y994906D01*
X1449705Y956818D01*
Y994906D01*
X1500488Y956818D02*
Y994906D01*
X1525880Y956818D01*
Y994906D01*
X1557620D02*
X1544924D01*
X1538576Y988558D01*
Y963166D01*
X1544924Y956818D01*
X1557620D01*
X1563968Y963166D01*
Y988558D01*
X1557620Y994906D01*
X1576664D02*
X1602055D01*
X1589359D01*
Y956818D01*
X1640143Y994906D02*
X1614751D01*
Y956818D01*
X1640143D01*
X1614751Y975862D02*
X1627447D01*
X1678231Y988558D02*
X1671883Y994906D01*
X1659187D01*
X1652839Y988558D01*
Y982210D01*
X1659187Y975862D01*
X1671883D01*
X1678231Y969514D01*
Y963166D01*
X1671883Y956818D01*
X1659187D01*
X1652839Y963166D01*
D82*
X1055624Y902105D02*
Y883778D01*
X1059289Y880112D01*
X1066620D01*
X1070286Y883778D01*
Y902105D01*
X1077617Y880112D02*
Y902105D01*
X1092279Y880112D01*
Y902105D01*
X1099610D02*
Y880112D01*
X1114272D01*
X1136265Y902105D02*
X1121603D01*
Y880112D01*
X1136265D01*
X1121603Y891109D02*
X1128934D01*
X1158258Y898440D02*
X1154592Y902105D01*
X1147261D01*
X1143596Y898440D01*
Y894774D01*
X1147261Y891109D01*
X1154592D01*
X1158258Y887443D01*
Y883778D01*
X1154592Y880112D01*
X1147261D01*
X1143596Y883778D01*
X1180250Y898440D02*
X1176585Y902105D01*
X1169254D01*
X1165589Y898440D01*
Y894774D01*
X1169254Y891109D01*
X1176585D01*
X1180250Y887443D01*
Y883778D01*
X1176585Y880112D01*
X1169254D01*
X1165589Y883778D01*
X1220571Y902105D02*
X1213240D01*
X1209574Y898440D01*
Y883778D01*
X1213240Y880112D01*
X1220571D01*
X1224236Y883778D01*
Y898440D01*
X1220571Y902105D01*
X1231567D02*
X1246229D01*
X1238898D01*
Y880112D01*
X1253560Y902105D02*
Y880112D01*
Y891109D01*
X1268222D01*
Y902105D01*
Y880112D01*
X1290215Y902105D02*
X1275553D01*
Y880112D01*
X1290215D01*
X1275553Y891109D02*
X1282884D01*
X1297546Y880112D02*
Y902105D01*
X1308542D01*
X1312208Y898440D01*
Y891109D01*
X1308542Y887443D01*
X1297546D01*
X1304877D02*
X1312208Y880112D01*
X1319539Y902105D02*
Y880112D01*
X1326870Y887443D01*
X1334201Y880112D01*
Y902105D01*
X1341532D02*
X1348863D01*
X1345197D01*
Y880112D01*
X1341532D01*
X1348863D01*
X1374521Y898440D02*
X1370856Y902105D01*
X1363524D01*
X1359859Y898440D01*
Y894774D01*
X1363524Y891109D01*
X1370856D01*
X1374521Y887443D01*
Y883778D01*
X1370856Y880112D01*
X1363524D01*
X1359859Y883778D01*
X1396514Y902105D02*
X1381852D01*
Y880112D01*
X1396514D01*
X1381852Y891109D02*
X1389183D01*
X1440500Y898440D02*
X1436834Y902105D01*
X1429503D01*
X1425838Y898440D01*
Y894774D01*
X1429503Y891109D01*
X1436834D01*
X1440500Y887443D01*
Y883778D01*
X1436834Y880112D01*
X1429503D01*
X1425838Y883778D01*
X1447831Y880112D02*
Y902105D01*
X1458827D01*
X1462493Y898440D01*
Y891109D01*
X1458827Y887443D01*
X1447831D01*
X1484485Y902105D02*
X1469823D01*
Y880112D01*
X1484485D01*
X1469823Y891109D02*
X1477155D01*
X1506478Y898440D02*
X1502813Y902105D01*
X1495482D01*
X1491816Y898440D01*
Y883778D01*
X1495482Y880112D01*
X1502813D01*
X1506478Y883778D01*
X1513809Y902105D02*
X1521140D01*
X1517475D01*
Y880112D01*
X1513809D01*
X1521140D01*
X1546799Y902105D02*
X1532137D01*
Y891109D01*
X1539468D01*
X1532137D01*
Y880112D01*
X1554130Y902105D02*
X1561461D01*
X1557795D01*
Y880112D01*
X1554130D01*
X1561461D01*
X1587119Y902105D02*
X1572457D01*
Y880112D01*
X1587119D01*
X1572457Y891109D02*
X1579788D01*
X1594450Y902105D02*
Y880112D01*
X1605446D01*
X1609112Y883778D01*
Y898440D01*
X1605446Y902105D01*
X1594450D01*
X1638436D02*
X1645767D01*
X1642101D01*
Y880112D01*
X1638436D01*
X1645767D01*
X1656763D02*
Y902105D01*
X1671425Y880112D01*
Y902105D01*
X1700749D02*
X1715411D01*
X1708080D01*
Y880112D01*
X1722742Y902105D02*
Y880112D01*
Y891109D01*
X1737404D01*
Y902105D01*
Y880112D01*
X1759397Y902105D02*
X1744735D01*
Y880112D01*
X1759397D01*
X1744735Y891109D02*
X1752066D01*
X1803382Y902105D02*
X1788721D01*
Y880112D01*
X1803382D01*
X1788721Y891109D02*
X1796051D01*
X1825375Y898440D02*
X1821710Y902105D01*
X1814379D01*
X1810713Y898440D01*
Y883778D01*
X1814379Y880112D01*
X1821710D01*
X1825375Y883778D01*
X1843703Y902105D02*
X1836372D01*
X1832706Y898440D01*
Y883778D01*
X1836372Y880112D01*
X1843703D01*
X1847368Y883778D01*
Y898440D01*
X1843703Y902105D01*
X1854699D02*
Y880112D01*
X1865696D01*
X1869361Y883778D01*
Y887443D01*
X1865696Y891109D01*
X1854699D01*
X1865696D01*
X1869361Y894774D01*
Y898440D01*
X1865696Y902105D01*
X1854699D01*
X1891354D02*
X1876692D01*
Y880112D01*
X1891354D01*
X1876692Y891109D02*
X1884023D01*
X1913347Y902105D02*
X1898685D01*
Y880112D01*
X1913347D01*
X1898685Y891109D02*
X1906016D01*
X1942671Y880112D02*
Y902105D01*
X1953667D01*
X1957333Y898440D01*
Y891109D01*
X1953667Y887443D01*
X1942671D01*
X1964664Y902105D02*
Y883778D01*
X1968329Y880112D01*
X1975660D01*
X1979326Y883778D01*
Y902105D01*
X1986657Y880112D02*
Y902105D01*
X1997653D01*
X2001319Y898440D01*
Y891109D01*
X1997653Y887443D01*
X1986657D01*
X1993988D02*
X2001319Y880112D01*
X2023311Y898440D02*
X2019646Y902105D01*
X2012315D01*
X2008649Y898440D01*
Y883778D01*
X2012315Y880112D01*
X2019646D01*
X2023311Y883778D01*
X2030642Y902105D02*
Y880112D01*
Y891109D01*
X2045304D01*
Y902105D01*
Y880112D01*
X2052635D02*
Y894774D01*
X2059966Y902105D01*
X2067297Y894774D01*
Y880112D01*
Y891109D01*
X2052635D01*
X2089290Y898440D02*
X2085625Y902105D01*
X2078294D01*
X2074628Y898440D01*
Y894774D01*
X2078294Y891109D01*
X2085625D01*
X2089290Y887443D01*
Y883778D01*
X2085625Y880112D01*
X2078294D01*
X2074628Y883778D01*
X2111283Y902105D02*
X2096621D01*
Y880112D01*
X2111283D01*
X2096621Y891109D02*
X2103952D01*
X2151603Y902105D02*
X2144272D01*
X2140607Y898440D01*
Y883778D01*
X2144272Y880112D01*
X2151603D01*
X2155269Y883778D01*
Y898440D01*
X2151603Y902105D01*
X2162600Y880112D02*
Y902105D01*
X2173596D01*
X2177262Y898440D01*
Y891109D01*
X2173596Y887443D01*
X2162600D01*
X2169931D02*
X2177262Y880112D01*
X2184593Y902105D02*
Y880112D01*
X2195589D01*
X2199255Y883778D01*
Y898440D01*
X2195589Y902105D01*
X2184593D01*
X2221247D02*
X2206586D01*
Y880112D01*
X2221247D01*
X2206586Y891109D02*
X2213916D01*
X2228578Y880112D02*
Y902105D01*
X2239575D01*
X2243240Y898440D01*
Y891109D01*
X2239575Y887443D01*
X2228578D01*
X2235909D02*
X2243240Y880112D01*
X2254237Y876447D02*
X2257902Y880112D01*
Y883778D01*
X2254237D01*
Y880112D01*
X2257902D01*
X2254237Y876447D01*
X2250571Y872781D01*
X2294557Y902105D02*
X2309219D01*
X2301888D01*
Y880112D01*
X2316550Y902105D02*
Y880112D01*
Y891109D01*
X2331212D01*
Y902105D01*
Y880112D01*
X2353205Y902105D02*
X2338543D01*
Y880112D01*
X2353205D01*
X2338543Y891109D02*
X2345874D01*
X2397191Y902105D02*
X2382529D01*
Y891109D01*
X2389860D01*
X2382529D01*
Y880112D01*
X2415518Y902105D02*
X2408187D01*
X2404522Y898440D01*
Y883778D01*
X2408187Y880112D01*
X2415518D01*
X2419184Y883778D01*
Y898440D01*
X2415518Y902105D01*
X2426514D02*
Y880112D01*
X2441176D01*
X2448507Y902105D02*
Y880112D01*
X2463169D01*
X2481497Y902105D02*
X2474166D01*
X2470500Y898440D01*
Y883778D01*
X2474166Y880112D01*
X2481497D01*
X2485162Y883778D01*
Y898440D01*
X2481497Y902105D01*
X2492493D02*
Y880112D01*
X2499824Y887443D01*
X2507155Y880112D01*
Y902105D01*
X2514486D02*
X2521817D01*
X2518152D01*
Y880112D01*
X2514486D01*
X2521817D01*
X2532814D02*
Y902105D01*
X2547475Y880112D01*
Y902105D01*
X2569468Y898440D02*
X2565803Y902105D01*
X2558472D01*
X2554806Y898440D01*
Y883778D01*
X2558472Y880112D01*
X2565803D01*
X2569468Y883778D01*
Y891109D01*
X2562137D01*
X2613454Y898440D02*
X2609789Y902105D01*
X2602458D01*
X2598792Y898440D01*
Y894774D01*
X2602458Y891109D01*
X2609789D01*
X2613454Y887443D01*
Y883778D01*
X2609789Y880112D01*
X2602458D01*
X2598792Y883778D01*
X2620785Y880112D02*
Y902105D01*
X2631782D01*
X2635447Y898440D01*
Y891109D01*
X2631782Y887443D01*
X2620785D01*
X2657440Y902105D02*
X2642778D01*
Y880112D01*
X2657440D01*
X2642778Y891109D02*
X2650109D01*
X2679433Y898440D02*
X2675767Y902105D01*
X2668436D01*
X2664771Y898440D01*
Y883778D01*
X2668436Y880112D01*
X2675767D01*
X2679433Y883778D01*
X2686764Y902105D02*
X2694095D01*
X2690429D01*
Y880112D01*
X2686764D01*
X2694095D01*
X2719753Y902105D02*
X2705091D01*
Y891109D01*
X2712422D01*
X2705091D01*
Y880112D01*
X2727084Y902105D02*
X2734415D01*
X2730750D01*
Y880112D01*
X2727084D01*
X2734415D01*
X2760074Y898440D02*
X2756408Y902105D01*
X2749077D01*
X2745411Y898440D01*
Y883778D01*
X2749077Y880112D01*
X2756408D01*
X2760074Y883778D01*
X2767404Y880112D02*
Y894774D01*
X2774735Y902105D01*
X2782066Y894774D01*
Y880112D01*
Y891109D01*
X2767404D01*
X2789397Y902105D02*
X2804059D01*
X2796728D01*
Y880112D01*
X2811390Y902105D02*
X2818721D01*
X2815056D01*
Y880112D01*
X2811390D01*
X2818721D01*
X2840714Y902105D02*
X2833383D01*
X2829718Y898440D01*
Y883778D01*
X2833383Y880112D01*
X2840714D01*
X2844380Y883778D01*
Y898440D01*
X2840714Y902105D01*
X2851711Y880112D02*
Y902105D01*
X2866372Y880112D01*
Y902105D01*
X2888365Y898440D02*
X2884700Y902105D01*
X2877369D01*
X2873703Y898440D01*
Y894774D01*
X2877369Y891109D01*
X2884700D01*
X2888365Y887443D01*
Y883778D01*
X2884700Y880112D01*
X2877369D01*
X2873703Y883778D01*
X1070286Y865952D02*
X1066620Y869618D01*
X1059289D01*
X1055624Y865952D01*
Y862287D01*
X1059289Y858621D01*
X1066620D01*
X1070286Y854956D01*
Y851290D01*
X1066620Y847625D01*
X1059289D01*
X1055624Y851290D01*
X1077617Y869618D02*
Y847625D01*
Y858621D01*
X1092279D01*
Y869618D01*
Y847625D01*
X1099610D02*
Y862287D01*
X1106941Y869618D01*
X1114272Y862287D01*
Y847625D01*
Y858621D01*
X1099610D01*
X1121603Y869618D02*
Y847625D01*
X1136265D01*
X1143596Y869618D02*
Y847625D01*
X1158258D01*
X1187581D02*
Y862287D01*
X1194912Y869618D01*
X1202243Y862287D01*
Y847625D01*
Y858621D01*
X1187581D01*
X1209574Y847625D02*
Y869618D01*
X1220571D01*
X1224236Y865952D01*
Y858621D01*
X1220571Y854956D01*
X1209574D01*
X1231567Y847625D02*
Y869618D01*
X1242564D01*
X1246229Y865952D01*
Y858621D01*
X1242564Y854956D01*
X1231567D01*
X1253560Y869618D02*
Y847625D01*
X1268222D01*
X1275553Y869618D02*
Y865952D01*
X1282884Y858621D01*
X1290215Y865952D01*
Y869618D01*
X1282884Y858621D02*
Y847625D01*
X1297546D02*
Y851290D01*
X1301211D01*
Y847625D01*
X1297546D01*
X1055624Y815137D02*
Y829799D01*
X1062955Y837130D01*
X1070286Y829799D01*
Y815137D01*
Y826134D01*
X1055624D01*
X1077617Y815137D02*
Y837130D01*
X1092279Y815137D01*
Y837130D01*
X1099610D02*
Y833465D01*
X1106941Y826134D01*
X1114272Y833465D01*
Y837130D01*
X1106941Y826134D02*
Y815137D01*
X1143596Y837130D02*
Y815137D01*
X1154592D01*
X1158258Y818803D01*
Y833465D01*
X1154592Y837130D01*
X1143596D01*
X1180250D02*
X1165589D01*
Y815137D01*
X1180250D01*
X1165589Y826134D02*
X1172919D01*
X1187581Y837130D02*
Y822468D01*
X1194912Y815137D01*
X1202243Y822468D01*
Y837130D01*
X1209574D02*
X1216905D01*
X1213240D01*
Y815137D01*
X1209574D01*
X1216905D01*
X1227902D02*
Y829799D01*
X1235233Y837130D01*
X1242564Y829799D01*
Y815137D01*
Y826134D01*
X1227902D01*
X1249895Y837130D02*
X1264557D01*
X1257226D01*
Y815137D01*
X1271888Y837130D02*
X1279218D01*
X1275553D01*
Y815137D01*
X1271888D01*
X1279218D01*
X1301211Y837130D02*
X1293880D01*
X1290215Y833465D01*
Y818803D01*
X1293880Y815137D01*
X1301211D01*
X1304877Y818803D01*
Y833465D01*
X1301211Y837130D01*
X1312208Y815137D02*
Y837130D01*
X1326870Y815137D01*
Y837130D01*
X1370856Y833465D02*
X1367190Y837130D01*
X1359859D01*
X1356194Y833465D01*
Y829799D01*
X1359859Y826134D01*
X1367190D01*
X1370856Y822468D01*
Y818803D01*
X1367190Y815137D01*
X1359859D01*
X1356194Y818803D01*
X1378186Y837130D02*
Y815137D01*
Y826134D01*
X1392848D01*
Y837130D01*
Y815137D01*
X1400179D02*
Y829799D01*
X1407510Y837130D01*
X1414841Y829799D01*
Y815137D01*
Y826134D01*
X1400179D01*
X1422172Y837130D02*
Y815137D01*
X1436834D01*
X1444165Y837130D02*
Y815137D01*
X1458827D01*
X1488151D02*
Y837130D01*
X1499147D01*
X1502813Y833465D01*
Y826134D01*
X1499147Y822468D01*
X1488151D01*
X1495482D02*
X1502813Y815137D01*
X1524806Y837130D02*
X1510144D01*
Y815137D01*
X1524806D01*
X1510144Y826134D02*
X1517475D01*
X1546799Y818803D02*
Y833465D01*
X1543133Y837130D01*
X1535802D01*
X1532137Y833465D01*
Y818803D01*
X1535802Y815137D01*
X1543133D01*
X1539468Y822468D02*
X1546799Y815137D01*
X1543133D02*
X1546799Y818803D01*
X1554130Y837130D02*
Y818803D01*
X1557795Y815137D01*
X1565126D01*
X1568792Y818803D01*
Y837130D01*
X1576122D02*
X1583454D01*
X1579788D01*
Y815137D01*
X1576122D01*
X1583454D01*
X1594450D02*
Y837130D01*
X1605446D01*
X1609112Y833465D01*
Y826134D01*
X1605446Y822468D01*
X1594450D01*
X1601781D02*
X1609112Y815137D01*
X1631105Y837130D02*
X1616443D01*
Y815137D01*
X1631105D01*
X1616443Y826134D02*
X1623774D01*
X1660429Y837130D02*
Y815137D01*
X1667760Y822468D01*
X1675091Y815137D01*
Y837130D01*
X1682422Y815137D02*
Y837130D01*
X1693418D01*
X1697083Y833465D01*
Y826134D01*
X1693418Y822468D01*
X1682422D01*
X1689753D02*
X1697083Y815137D01*
X1704414Y837130D02*
X1711745D01*
X1708080D01*
Y815137D01*
X1704414D01*
X1711745D01*
X1722742Y837130D02*
X1737404D01*
X1730073D01*
Y815137D01*
X1744735Y837130D02*
X1759397D01*
X1752066D01*
Y815137D01*
X1781390Y837130D02*
X1766728D01*
Y815137D01*
X1781390D01*
X1766728Y826134D02*
X1774059D01*
X1788721Y815137D02*
Y837130D01*
X1803382Y815137D01*
Y837130D01*
X1832706Y815137D02*
Y829799D01*
X1840037Y837130D01*
X1847368Y829799D01*
Y815137D01*
Y826134D01*
X1832706D01*
X1854699Y815137D02*
Y837130D01*
X1865696D01*
X1869361Y833465D01*
Y826134D01*
X1865696Y822468D01*
X1854699D01*
X1876692Y815137D02*
Y837130D01*
X1887689D01*
X1891354Y833465D01*
Y826134D01*
X1887689Y822468D01*
X1876692D01*
X1898685Y815137D02*
Y837130D01*
X1909681D01*
X1913347Y833465D01*
Y826134D01*
X1909681Y822468D01*
X1898685D01*
X1906016D02*
X1913347Y815137D01*
X1931674Y837130D02*
X1924343D01*
X1920678Y833465D01*
Y818803D01*
X1924343Y815137D01*
X1931674D01*
X1935340Y818803D01*
Y833465D01*
X1931674Y837130D01*
X1942671D02*
Y822468D01*
X1950002Y815137D01*
X1957333Y822468D01*
Y837130D01*
X1964664Y815137D02*
Y829799D01*
X1971995Y837130D01*
X1979326Y829799D01*
Y815137D01*
Y826134D01*
X1964664D01*
X1986657Y837130D02*
Y815137D01*
X2001319D01*
X2045304Y837130D02*
X2030642D01*
Y826134D01*
X2037973D01*
X2030642D01*
Y815137D01*
X2052635D02*
Y837130D01*
X2063632D01*
X2067297Y833465D01*
Y826134D01*
X2063632Y822468D01*
X2052635D01*
X2059966D02*
X2067297Y815137D01*
X2085625Y837130D02*
X2078294D01*
X2074628Y833465D01*
Y818803D01*
X2078294Y815137D01*
X2085625D01*
X2089290Y818803D01*
Y833465D01*
X2085625Y837130D01*
X2096621Y815137D02*
Y837130D01*
X2103952Y829799D01*
X2111283Y837130D01*
Y815137D01*
X2140607D02*
Y829799D01*
X2147938Y837130D01*
X2155269Y829799D01*
Y815137D01*
Y826134D01*
X2140607D01*
X2162600Y815137D02*
Y837130D01*
X2177262Y815137D01*
Y837130D01*
X2221247D02*
X2206586D01*
Y815137D01*
X2221247D01*
X2206586Y826134D02*
X2213916D01*
X2243240Y833465D02*
X2239575Y837130D01*
X2232244D01*
X2228578Y833465D01*
Y818803D01*
X2232244Y815137D01*
X2239575D01*
X2243240Y818803D01*
X2261568Y837130D02*
X2254237D01*
X2250571Y833465D01*
Y818803D01*
X2254237Y815137D01*
X2261568D01*
X2265233Y818803D01*
Y833465D01*
X2261568Y837130D01*
X2272564D02*
Y815137D01*
X2283561D01*
X2287226Y818803D01*
Y822468D01*
X2283561Y826134D01*
X2272564D01*
X2283561D01*
X2287226Y829799D01*
Y833465D01*
X2283561Y837130D01*
X2272564D01*
X2309219D02*
X2294557D01*
Y815137D01*
X2309219D01*
X2294557Y826134D02*
X2301888D01*
X2331212Y837130D02*
X2316550D01*
Y815137D01*
X2331212D01*
X2316550Y826134D02*
X2323881D01*
X2360536Y815137D02*
Y837130D01*
X2371532D01*
X2375198Y833465D01*
Y826134D01*
X2371532Y822468D01*
X2360536D01*
X2367867D02*
X2375198Y815137D01*
X2397191Y837130D02*
X2382529D01*
Y815137D01*
X2397191D01*
X2382529Y826134D02*
X2389860D01*
X2404522Y815137D02*
Y837130D01*
X2415518D01*
X2419184Y833465D01*
Y826134D01*
X2415518Y822468D01*
X2404522D01*
X2426514Y815137D02*
Y837130D01*
X2437511D01*
X2441176Y833465D01*
Y826134D01*
X2437511Y822468D01*
X2426514D01*
X2433845D02*
X2441176Y815137D01*
X2463169Y837130D02*
X2448507D01*
Y815137D01*
X2463169D01*
X2448507Y826134D02*
X2455838D01*
X2485162Y833465D02*
X2481497Y837130D01*
X2474166D01*
X2470500Y833465D01*
Y829799D01*
X2474166Y826134D01*
X2481497D01*
X2485162Y822468D01*
Y818803D01*
X2481497Y815137D01*
X2474166D01*
X2470500Y818803D01*
X2507155Y837130D02*
X2492493D01*
Y815137D01*
X2507155D01*
X2492493Y826134D02*
X2499824D01*
X2514486Y815137D02*
Y837130D01*
X2529148Y815137D01*
Y837130D01*
X2536479D02*
X2551141D01*
X2543810D01*
Y815137D01*
X2558472D02*
Y829799D01*
X2565803Y837130D01*
X2573134Y829799D01*
Y815137D01*
Y826134D01*
X2558472D01*
X2580465Y837130D02*
X2595127D01*
X2587796D01*
Y815137D01*
X2602458Y837130D02*
X2609789D01*
X2606123D01*
Y815137D01*
X2602458D01*
X2609789D01*
X2620785Y837130D02*
Y822468D01*
X2628116Y815137D01*
X2635447Y822468D01*
Y837130D01*
X2657440D02*
X2642778D01*
Y815137D01*
X2657440D01*
X2642778Y826134D02*
X2650109D01*
X2664771Y815137D02*
Y818803D01*
X2668436D01*
Y815137D01*
X2664771D01*
X1055624Y750162D02*
X1062955D01*
X1059289D01*
Y772155D01*
X1055624Y768490D01*
X1073951Y750162D02*
Y753828D01*
X1077617D01*
Y750162D01*
X1073951D01*
X1114272Y772155D02*
Y750162D01*
X1125268D01*
X1128934Y753828D01*
Y757493D01*
X1125268Y761159D01*
X1114272D01*
X1125268D01*
X1128934Y764824D01*
Y768490D01*
X1125268Y772155D01*
X1114272D01*
X1147261D02*
X1139930D01*
X1136265Y768490D01*
Y753828D01*
X1139930Y750162D01*
X1147261D01*
X1150927Y753828D01*
Y768490D01*
X1147261Y772155D01*
X1158258Y750162D02*
Y764824D01*
X1165589Y772155D01*
X1172919Y764824D01*
Y750162D01*
Y761159D01*
X1158258D01*
X1180250Y750162D02*
Y772155D01*
X1191247D01*
X1194912Y768490D01*
Y761159D01*
X1191247Y757493D01*
X1180250D01*
X1187581D02*
X1194912Y750162D01*
X1202243Y772155D02*
Y750162D01*
X1213240D01*
X1216905Y753828D01*
Y768490D01*
X1213240Y772155D01*
X1202243D01*
X1246229D02*
Y750162D01*
X1257226D01*
X1260891Y753828D01*
Y768490D01*
X1257226Y772155D01*
X1246229D01*
X1268222Y750162D02*
Y764824D01*
X1275553Y772155D01*
X1282884Y764824D01*
Y750162D01*
Y761159D01*
X1268222D01*
X1290215Y772155D02*
X1304877D01*
X1297546D01*
Y750162D01*
X1312208D02*
Y764824D01*
X1319539Y772155D01*
X1326870Y764824D01*
Y750162D01*
Y761159D01*
X1312208D01*
X1356194Y772155D02*
Y757493D01*
X1363525Y750162D01*
X1370856Y757493D01*
Y772155D01*
X1378186D02*
X1385517D01*
X1381852D01*
Y750162D01*
X1378186D01*
X1385517D01*
X1411176Y772155D02*
X1396514D01*
Y750162D01*
X1411176D01*
X1396514Y761159D02*
X1403845D01*
X1418507Y772155D02*
Y750162D01*
X1425838Y757493D01*
X1433169Y750162D01*
Y772155D01*
X1455162D02*
X1440500D01*
Y750162D01*
X1455162D01*
X1440500Y761159D02*
X1447831D01*
X1462493Y772155D02*
Y750162D01*
X1473489D01*
X1477155Y753828D01*
Y768490D01*
X1473489Y772155D01*
X1462493D01*
X1521140D02*
X1506478D01*
Y761159D01*
X1513809D01*
X1506478D01*
Y750162D01*
X1528471D02*
Y772155D01*
X1539468D01*
X1543133Y768490D01*
Y761159D01*
X1539468Y757493D01*
X1528471D01*
X1535802D02*
X1543133Y750162D01*
X1561461Y772155D02*
X1554130D01*
X1550464Y768490D01*
Y753828D01*
X1554130Y750162D01*
X1561461D01*
X1565126Y753828D01*
Y768490D01*
X1561461Y772155D01*
X1572457Y750162D02*
Y772155D01*
X1579788Y764824D01*
X1587119Y772155D01*
Y750162D01*
X1616443D02*
Y772155D01*
X1627439D01*
X1631105Y768490D01*
Y761159D01*
X1627439Y757493D01*
X1616443D01*
X1638436Y750162D02*
Y772155D01*
X1649432D01*
X1653098Y768490D01*
Y761159D01*
X1649432Y757493D01*
X1638436D01*
X1645767D02*
X1653098Y750162D01*
X1660429Y772155D02*
X1667760D01*
X1664094D01*
Y750162D01*
X1660429D01*
X1667760D01*
X1678756D02*
Y772155D01*
X1686087Y764824D01*
X1693418Y772155D01*
Y750162D01*
X1700749D02*
Y764824D01*
X1708080Y772155D01*
X1715411Y764824D01*
Y750162D01*
Y761159D01*
X1700749D01*
X1722742Y750162D02*
Y772155D01*
X1733738D01*
X1737404Y768490D01*
Y761159D01*
X1733738Y757493D01*
X1722742D01*
X1730073D02*
X1737404Y750162D01*
X1744735Y772155D02*
Y768490D01*
X1752066Y761159D01*
X1759397Y768490D01*
Y772155D01*
X1752066Y761159D02*
Y750162D01*
X1803382Y768490D02*
X1799717Y772155D01*
X1792386D01*
X1788721Y768490D01*
Y764824D01*
X1792386Y761159D01*
X1799717D01*
X1803382Y757493D01*
Y753828D01*
X1799717Y750162D01*
X1792386D01*
X1788721Y753828D01*
X1810713Y772155D02*
X1818044D01*
X1814379D01*
Y750162D01*
X1810713D01*
X1818044D01*
X1829041Y772155D02*
Y750162D01*
X1840037D01*
X1843703Y753828D01*
Y768490D01*
X1840037Y772155D01*
X1829041D01*
X1865696D02*
X1851034D01*
Y750162D01*
X1865696D01*
X1851034Y761159D02*
X1858365D01*
X1873027Y750162D02*
Y753828D01*
X1876692D01*
Y750162D01*
X1873027D01*
X1070286Y717675D02*
X1055624D01*
X1070286Y732337D01*
Y736002D01*
X1066620Y739668D01*
X1059289D01*
X1055624Y736002D01*
X1077617Y717675D02*
Y721340D01*
X1081282D01*
Y717675D01*
X1077617D01*
X1117937Y739668D02*
Y717675D01*
X1132599D01*
X1139930D02*
Y732337D01*
X1147261Y739668D01*
X1154592Y732337D01*
Y717675D01*
Y728671D01*
X1139930D01*
X1161923Y739668D02*
X1176585D01*
X1169254D01*
Y717675D01*
X1198578Y739668D02*
X1183916D01*
Y717675D01*
X1198578D01*
X1183916Y728671D02*
X1191247D01*
X1220571Y736002D02*
X1216905Y739668D01*
X1209574D01*
X1205909Y736002D01*
Y732337D01*
X1209574Y728671D01*
X1216905D01*
X1220571Y725006D01*
Y721340D01*
X1216905Y717675D01*
X1209574D01*
X1205909Y721340D01*
X1227902Y739668D02*
X1242564D01*
X1235233D01*
Y717675D01*
X1271888D02*
Y739668D01*
X1282884D01*
X1286549Y736002D01*
Y728671D01*
X1282884Y725006D01*
X1271888D01*
X1279218D02*
X1286549Y717675D01*
X1308542Y739668D02*
X1293880D01*
Y717675D01*
X1308542D01*
X1293880Y728671D02*
X1301211D01*
X1315873Y739668D02*
Y725006D01*
X1323204Y717675D01*
X1330535Y725006D01*
Y739668D01*
X1337866D02*
X1345197D01*
X1341532D01*
Y717675D01*
X1337866D01*
X1345197D01*
X1370856Y736002D02*
X1367190Y739668D01*
X1359859D01*
X1356194Y736002D01*
Y732337D01*
X1359859Y728671D01*
X1367190D01*
X1370856Y725006D01*
Y721340D01*
X1367190Y717675D01*
X1359859D01*
X1356194Y721340D01*
X1378186Y739668D02*
X1385517D01*
X1381852D01*
Y717675D01*
X1378186D01*
X1385517D01*
X1407510Y739668D02*
X1400179D01*
X1396514Y736002D01*
Y721340D01*
X1400179Y717675D01*
X1407510D01*
X1411176Y721340D01*
Y736002D01*
X1407510Y739668D01*
X1418507Y717675D02*
Y739668D01*
X1433169Y717675D01*
Y739668D01*
X1455162Y736002D02*
X1451496Y739668D01*
X1444165D01*
X1440500Y736002D01*
Y732337D01*
X1444165Y728671D01*
X1451496D01*
X1455162Y725006D01*
Y721340D01*
X1451496Y717675D01*
X1444165D01*
X1440500Y721340D01*
X1499147Y736002D02*
X1495482Y739668D01*
X1488151D01*
X1484485Y736002D01*
Y732337D01*
X1488151Y728671D01*
X1495482D01*
X1499147Y725006D01*
Y721340D01*
X1495482Y717675D01*
X1488151D01*
X1484485Y721340D01*
X1506478Y739668D02*
Y717675D01*
Y728671D01*
X1521140D01*
Y739668D01*
Y717675D01*
X1528471D02*
Y732337D01*
X1535802Y739668D01*
X1543133Y732337D01*
Y717675D01*
Y728671D01*
X1528471D01*
X1550464Y739668D02*
Y717675D01*
X1565126D01*
X1572457Y739668D02*
Y717675D01*
X1587119D01*
X1616443D02*
Y732337D01*
X1623774Y739668D01*
X1631105Y732337D01*
Y717675D01*
Y728671D01*
X1616443D01*
X1638436Y717675D02*
Y739668D01*
X1649432D01*
X1653098Y736002D01*
Y728671D01*
X1649432Y725006D01*
X1638436D01*
X1660429Y717675D02*
Y739668D01*
X1671425D01*
X1675091Y736002D01*
Y728671D01*
X1671425Y725006D01*
X1660429D01*
X1682422Y739668D02*
Y717675D01*
X1697083D01*
X1704414Y739668D02*
Y736002D01*
X1711745Y728671D01*
X1719076Y736002D01*
Y739668D01*
X1711745Y728671D02*
Y717675D01*
X1748400Y739668D02*
X1763062D01*
X1755731D01*
Y717675D01*
X1781390Y739668D02*
X1774059D01*
X1770393Y736002D01*
Y721340D01*
X1774059Y717675D01*
X1781390D01*
X1785055Y721340D01*
Y736002D01*
X1781390Y739668D01*
X1814379Y717675D02*
Y732337D01*
X1821710Y739668D01*
X1829041Y732337D01*
Y717675D01*
Y728671D01*
X1814379D01*
X1836372Y739668D02*
Y717675D01*
X1851034D01*
X1858365Y739668D02*
Y717675D01*
X1873027D01*
X1917012Y736002D02*
X1913347Y739668D01*
X1906016D01*
X1902350Y736002D01*
Y732337D01*
X1906016Y728671D01*
X1913347D01*
X1917012Y725006D01*
Y721340D01*
X1913347Y717675D01*
X1906016D01*
X1902350Y721340D01*
X1924343Y717675D02*
Y739668D01*
X1935340D01*
X1939005Y736002D01*
Y728671D01*
X1935340Y725006D01*
X1924343D01*
X1960998Y739668D02*
X1946336D01*
Y717675D01*
X1960998D01*
X1946336Y728671D02*
X1953667D01*
X1982991Y736002D02*
X1979326Y739668D01*
X1971995D01*
X1968329Y736002D01*
Y721340D01*
X1971995Y717675D01*
X1979326D01*
X1982991Y721340D01*
X1990322Y739668D02*
X1997653D01*
X1993987D01*
Y717675D01*
X1990322D01*
X1997653D01*
X2023311Y739668D02*
X2008649D01*
Y728671D01*
X2015980D01*
X2008649D01*
Y717675D01*
X2030642Y739668D02*
X2037973D01*
X2034308D01*
Y717675D01*
X2030642D01*
X2037973D01*
X2063632Y736002D02*
X2059966Y739668D01*
X2052635D01*
X2048970Y736002D01*
Y721340D01*
X2052635Y717675D01*
X2059966D01*
X2063632Y721340D01*
X2070963Y717675D02*
Y732337D01*
X2078294Y739668D01*
X2085625Y732337D01*
Y717675D01*
Y728671D01*
X2070963D01*
X2092956Y739668D02*
X2107617D01*
X2100287D01*
Y717675D01*
X2114948Y739668D02*
X2122279D01*
X2118614D01*
Y717675D01*
X2114948D01*
X2122279D01*
X2144272Y739668D02*
X2136941D01*
X2133276Y736002D01*
Y721340D01*
X2136941Y717675D01*
X2144272D01*
X2147938Y721340D01*
Y736002D01*
X2144272Y739668D01*
X2155269Y717675D02*
Y739668D01*
X2169931Y717675D01*
Y739668D01*
X2191924Y736002D02*
X2188258Y739668D01*
X2180927D01*
X2177262Y736002D01*
Y732337D01*
X2180927Y728671D01*
X2188258D01*
X2191924Y725006D01*
Y721340D01*
X2188258Y717675D01*
X2180927D01*
X2177262Y721340D01*
X2199255Y717675D02*
Y721340D01*
X2202920D01*
Y717675D01*
X2199255D01*
X1055624Y703515D02*
X1059289Y707180D01*
X1066620D01*
X1070286Y703515D01*
Y699849D01*
X1066620Y696184D01*
X1062955D01*
X1066620D01*
X1070286Y692518D01*
Y688853D01*
X1066620Y685187D01*
X1059289D01*
X1055624Y688853D01*
X1077617Y685187D02*
Y688853D01*
X1081282D01*
Y685187D01*
X1077617D01*
X1132599Y707180D02*
X1117937D01*
Y696184D01*
X1125268D01*
X1117937D01*
Y685187D01*
X1139930D02*
Y699849D01*
X1147261Y707180D01*
X1154592Y699849D01*
Y685187D01*
Y696184D01*
X1139930D01*
X1161923Y707180D02*
Y685187D01*
X1172919D01*
X1176585Y688853D01*
Y692518D01*
X1172919Y696184D01*
X1161923D01*
X1172919D01*
X1176585Y699849D01*
Y703515D01*
X1172919Y707180D01*
X1161923D01*
X1183916Y685187D02*
Y707180D01*
X1194912D01*
X1198578Y703515D01*
Y696184D01*
X1194912Y692518D01*
X1183916D01*
X1191247D02*
X1198578Y685187D01*
X1205909Y707180D02*
X1213240D01*
X1209574D01*
Y685187D01*
X1205909D01*
X1213240D01*
X1238898Y703515D02*
X1235233Y707180D01*
X1227902D01*
X1224236Y703515D01*
Y688853D01*
X1227902Y685187D01*
X1235233D01*
X1238898Y688853D01*
X1246229Y685187D02*
Y699849D01*
X1253560Y707180D01*
X1260891Y699849D01*
Y685187D01*
Y696184D01*
X1246229D01*
X1268222Y707180D02*
X1282884D01*
X1275553D01*
Y685187D01*
X1304877Y707180D02*
X1290215D01*
Y685187D01*
X1304877D01*
X1290215Y696184D02*
X1297546D01*
X1334201Y685187D02*
Y707180D01*
X1345197D01*
X1348863Y703515D01*
Y696184D01*
X1345197Y692518D01*
X1334201D01*
X1370856Y703515D02*
X1367190Y707180D01*
X1359859D01*
X1356194Y703515D01*
Y688853D01*
X1359859Y685187D01*
X1367190D01*
X1370856Y688853D01*
X1378186Y707180D02*
Y685187D01*
X1389183D01*
X1392848Y688853D01*
Y692518D01*
X1389183Y696184D01*
X1378186D01*
X1389183D01*
X1392848Y699849D01*
Y703515D01*
X1389183Y707180D01*
X1378186D01*
X1422172D02*
X1429503D01*
X1425838D01*
Y685187D01*
X1422172D01*
X1429503D01*
X1440500D02*
Y707180D01*
X1455162Y685187D01*
Y707180D01*
X1484485Y685187D02*
Y699849D01*
X1491816Y707180D01*
X1499147Y699849D01*
Y685187D01*
Y696184D01*
X1484485D01*
X1521140Y703515D02*
X1517475Y707180D01*
X1510144D01*
X1506478Y703515D01*
Y688853D01*
X1510144Y685187D01*
X1517475D01*
X1521140Y688853D01*
X1543133Y703515D02*
X1539468Y707180D01*
X1532137D01*
X1528471Y703515D01*
Y688853D01*
X1532137Y685187D01*
X1539468D01*
X1543133Y688853D01*
X1561461Y707180D02*
X1554130D01*
X1550464Y703515D01*
Y688853D01*
X1554130Y685187D01*
X1561461D01*
X1565126Y688853D01*
Y703515D01*
X1561461Y707180D01*
X1572457Y685187D02*
Y707180D01*
X1583454D01*
X1587119Y703515D01*
Y696184D01*
X1583454Y692518D01*
X1572457D01*
X1579788D02*
X1587119Y685187D01*
X1594450Y707180D02*
Y685187D01*
X1605446D01*
X1609112Y688853D01*
Y703515D01*
X1605446Y707180D01*
X1594450D01*
X1616443Y685187D02*
Y699849D01*
X1623774Y707180D01*
X1631105Y699849D01*
Y685187D01*
Y696184D01*
X1616443D01*
X1638436Y685187D02*
Y707180D01*
X1653098Y685187D01*
Y707180D01*
X1675091Y703515D02*
X1671425Y707180D01*
X1664094D01*
X1660429Y703515D01*
Y688853D01*
X1664094Y685187D01*
X1671425D01*
X1675091Y688853D01*
X1697083Y707180D02*
X1682422D01*
Y685187D01*
X1697083D01*
X1682422Y696184D02*
X1689753D01*
X1726407Y707180D02*
Y685187D01*
X1733738Y692518D01*
X1741069Y685187D01*
Y707180D01*
X1748400D02*
X1755731D01*
X1752066D01*
Y685187D01*
X1748400D01*
X1755731D01*
X1766728Y707180D02*
X1781390D01*
X1774059D01*
Y685187D01*
X1788721Y707180D02*
Y685187D01*
Y696184D01*
X1803382D01*
Y707180D01*
Y685187D01*
X1832706Y707180D02*
X1840037D01*
X1836372D01*
Y685187D01*
X1832706D01*
X1840037D01*
X1851034D02*
Y707180D01*
X1862030D01*
X1865696Y703515D01*
Y696184D01*
X1862030Y692518D01*
X1851034D01*
X1887689Y703515D02*
X1884023Y707180D01*
X1876692D01*
X1873027Y703515D01*
Y688853D01*
X1876692Y685187D01*
X1884023D01*
X1887689Y688853D01*
X1895020Y696184D02*
X1909681D01*
X1931674Y707180D02*
X1924343Y703515D01*
X1917012Y696184D01*
Y688853D01*
X1920678Y685187D01*
X1928009D01*
X1931674Y688853D01*
Y692518D01*
X1928009Y696184D01*
X1917012D01*
X1939005Y703515D02*
X1942671Y707180D01*
X1950002D01*
X1953667Y703515D01*
Y688853D01*
X1950002Y685187D01*
X1942671D01*
X1939005Y688853D01*
Y703515D01*
X1960998Y685187D02*
X1968329D01*
X1964664D01*
Y707180D01*
X1960998Y703515D01*
X1979326D02*
X1982991Y707180D01*
X1990322D01*
X1993988Y703515D01*
Y699849D01*
X1990322Y696184D01*
X1986657D01*
X1990322D01*
X1993988Y692518D01*
Y688853D01*
X1990322Y685187D01*
X1982991D01*
X1979326Y688853D01*
X2015980Y703515D02*
X2012315Y707180D01*
X2004984D01*
X2001319Y703515D01*
Y688853D01*
X2004984Y685187D01*
X2012315D01*
X2015980Y688853D01*
X2045304Y707180D02*
X2059966D01*
X2052635D01*
Y685187D01*
X2067297Y707180D02*
Y703515D01*
X2074628Y696184D01*
X2081959Y703515D01*
Y707180D01*
X2074628Y696184D02*
Y685187D01*
X2089290D02*
Y707180D01*
X2100287D01*
X2103952Y703515D01*
Y696184D01*
X2100287Y692518D01*
X2089290D01*
X2125945Y707180D02*
X2111283D01*
Y685187D01*
X2125945D01*
X2111283Y696184D02*
X2118614D01*
X2169931Y685187D02*
X2155269D01*
X2169931Y699849D01*
Y703515D01*
X2166265Y707180D01*
X2158934D01*
X2155269Y703515D01*
X2199255Y707180D02*
Y688853D01*
X2202920Y685187D01*
X2210251D01*
X2213916Y688853D01*
Y707180D01*
X2235909Y703515D02*
X2232244Y707180D01*
X2224913D01*
X2221248Y703515D01*
Y699849D01*
X2224913Y696184D01*
X2232244D01*
X2235909Y692518D01*
Y688853D01*
X2232244Y685187D01*
X2224913D01*
X2221248Y688853D01*
X2243240Y707180D02*
X2250571D01*
X2246906D01*
Y685187D01*
X2243240D01*
X2250571D01*
X2261568D02*
Y707180D01*
X2276230Y685187D01*
Y707180D01*
X2298223Y703515D02*
X2294557Y707180D01*
X2287226D01*
X2283561Y703515D01*
Y688853D01*
X2287226Y685187D01*
X2294557D01*
X2298223Y688853D01*
Y696184D01*
X2290892D01*
X2342208Y703515D02*
X2338543Y707180D01*
X2331212D01*
X2327547Y703515D01*
Y699849D01*
X2331212Y696184D01*
X2338543D01*
X2342208Y692518D01*
Y688853D01*
X2338543Y685187D01*
X2331212D01*
X2327547Y688853D01*
X2349539Y707180D02*
Y688853D01*
X2353205Y685187D01*
X2360536D01*
X2364201Y688853D01*
Y707180D01*
X2371532Y685187D02*
Y707180D01*
X2382529D01*
X2386194Y703515D01*
Y696184D01*
X2382529Y692518D01*
X2371532D01*
X2393525Y685187D02*
Y707180D01*
X2404522D01*
X2408187Y703515D01*
Y696184D01*
X2404522Y692518D01*
X2393525D01*
X2415518Y707180D02*
Y685187D01*
X2430180D01*
X2437511Y707180D02*
X2444842D01*
X2441176D01*
Y685187D01*
X2437511D01*
X2444842D01*
X2470500Y707180D02*
X2455838D01*
Y685187D01*
X2470500D01*
X2455838Y696184D02*
X2463169D01*
X2477831Y707180D02*
Y685187D01*
X2488828D01*
X2492493Y688853D01*
Y703515D01*
X2488828Y707180D01*
X2477831D01*
X2536479Y703515D02*
X2532814Y707180D01*
X2525482D01*
X2521817Y703515D01*
Y688853D01*
X2525482Y685187D01*
X2532814D01*
X2536479Y688853D01*
Y696184D01*
X2529148D01*
X2558472Y707180D02*
X2543810D01*
Y685187D01*
X2558472D01*
X2543810Y696184D02*
X2551141D01*
X2565803Y685187D02*
Y707180D01*
X2576799D01*
X2580465Y703515D01*
Y696184D01*
X2576799Y692518D01*
X2565803D01*
X2573134D02*
X2580465Y685187D01*
X2587796Y707180D02*
Y685187D01*
X2598792D01*
X2602458Y688853D01*
Y692518D01*
X2598792Y696184D01*
X2587796D01*
X2598792D01*
X2602458Y699849D01*
Y703515D01*
X2598792Y707180D01*
X2587796D01*
X2624451D02*
X2609789D01*
Y685187D01*
X2624451D01*
X2609789Y696184D02*
X2617120D01*
X2631782Y685187D02*
Y707180D01*
X2642778D01*
X2646443Y703515D01*
Y696184D01*
X2642778Y692518D01*
X2631782D01*
X2639113D02*
X2646443Y685187D01*
X2686764Y707180D02*
X2679433D01*
X2675767Y703515D01*
Y688853D01*
X2679433Y685187D01*
X2686764D01*
X2690429Y688853D01*
Y703515D01*
X2686764Y707180D01*
X2697760Y685187D02*
Y707180D01*
X2708757D01*
X2712422Y703515D01*
Y696184D01*
X2708757Y692518D01*
X2697760D01*
X2705091D02*
X2712422Y685187D01*
X1066620Y674693D02*
X1059289D01*
X1055624Y671027D01*
Y656365D01*
X1059289Y652700D01*
X1066620D01*
X1070286Y656365D01*
Y671027D01*
X1066620Y674693D01*
X1077617D02*
Y652700D01*
X1088613D01*
X1092279Y656365D01*
Y671027D01*
X1088613Y674693D01*
X1077617D01*
X1099610D02*
Y652700D01*
X1110606D01*
X1114272Y656365D01*
Y660031D01*
X1110606Y663696D01*
X1099610D01*
X1110606D01*
X1114272Y667362D01*
Y671027D01*
X1110606Y674693D01*
X1099610D01*
X1121603Y663696D02*
X1136265D01*
X1128934Y671027D02*
Y656365D01*
X1143596Y663696D02*
X1158258D01*
X1150927Y671027D02*
Y656365D01*
X1202243Y671027D02*
X1198578Y674693D01*
X1191247D01*
X1187581Y671027D01*
Y656365D01*
X1191247Y652700D01*
X1198578D01*
X1202243Y656365D01*
X1209574Y652700D02*
Y667362D01*
X1216905Y674693D01*
X1224236Y667362D01*
Y652700D01*
Y663696D01*
X1209574D01*
X1231567Y674693D02*
Y652700D01*
X1242564D01*
X1246229Y656365D01*
Y671027D01*
X1242564Y674693D01*
X1231567D01*
X1275553D02*
Y652700D01*
X1286549D01*
X1290215Y656365D01*
Y671027D01*
X1286549Y674693D01*
X1275553D01*
X1297546Y652700D02*
Y667362D01*
X1304877Y674693D01*
X1312208Y667362D01*
Y652700D01*
Y663696D01*
X1297546D01*
X1319539Y674693D02*
X1334201D01*
X1326870D01*
Y652700D01*
X1341532D02*
Y667362D01*
X1348863Y674693D01*
X1356194Y667362D01*
Y652700D01*
Y663696D01*
X1341532D01*
X1363524Y652700D02*
Y656365D01*
X1367190D01*
Y652700D01*
X1363524D01*
X1275553Y587725D02*
Y609718D01*
X1286549D01*
X1290215Y606053D01*
Y598722D01*
X1286549Y595056D01*
X1275553D01*
X1308542Y587725D02*
X1301211D01*
X1297546Y591390D01*
Y598722D01*
X1301211Y602387D01*
X1308542D01*
X1312208Y598722D01*
Y595056D01*
X1297546D01*
X1319539Y602387D02*
Y587725D01*
Y595056D01*
X1323204Y598722D01*
X1326870Y602387D01*
X1330535D01*
X1345197Y587725D02*
Y606053D01*
Y598722D01*
X1341532D01*
X1348863D01*
X1345197D01*
Y606053D01*
X1348863Y609718D01*
X1363524Y587725D02*
X1370856D01*
X1374521Y591390D01*
Y598722D01*
X1370856Y602387D01*
X1363524D01*
X1359859Y598722D01*
Y591390D01*
X1363524Y587725D01*
X1381852Y602387D02*
Y587725D01*
Y595056D01*
X1385517Y598722D01*
X1389183Y602387D01*
X1392848D01*
X1403845Y587725D02*
Y602387D01*
X1407510D01*
X1411176Y598722D01*
Y587725D01*
Y598722D01*
X1414841Y602387D01*
X1418507Y598722D01*
Y587725D01*
X1429503Y602387D02*
X1436834D01*
X1440500Y598722D01*
Y587725D01*
X1429503D01*
X1425838Y591390D01*
X1429503Y595056D01*
X1440500D01*
X1447831Y587725D02*
Y602387D01*
X1458827D01*
X1462493Y598722D01*
Y587725D01*
X1484485Y602387D02*
X1473489D01*
X1469823Y598722D01*
Y591390D01*
X1473489Y587725D01*
X1484485D01*
X1502813D02*
X1495482D01*
X1491816Y591390D01*
Y598722D01*
X1495482Y602387D01*
X1502813D01*
X1506478Y598722D01*
Y595056D01*
X1491816D01*
X1550464Y606053D02*
X1546799Y609718D01*
X1539468D01*
X1535802Y606053D01*
Y591390D01*
X1539468Y587725D01*
X1546799D01*
X1550464Y591390D01*
X1557795Y587725D02*
X1565126D01*
X1561461D01*
Y609718D01*
X1557795D01*
X1579788Y602387D02*
X1587119D01*
X1590784Y598722D01*
Y587725D01*
X1579788D01*
X1576122Y591390D01*
X1579788Y595056D01*
X1590784D01*
X1598115Y587725D02*
X1609112D01*
X1612777Y591390D01*
X1609112Y595056D01*
X1601781D01*
X1598115Y598722D01*
X1601781Y602387D01*
X1612777D01*
X1620108Y587725D02*
X1631105D01*
X1634770Y591390D01*
X1631105Y595056D01*
X1623774D01*
X1620108Y598722D01*
X1623774Y602387D01*
X1634770D01*
X1708080Y598722D02*
X1722742D01*
X1766728Y606053D02*
X1763062Y609718D01*
X1755731D01*
X1752066Y606053D01*
Y591390D01*
X1755731Y587725D01*
X1763062D01*
X1766728Y591390D01*
X1774059Y587725D02*
X1781390D01*
X1777724D01*
Y609718D01*
X1774059D01*
X1796051Y602387D02*
X1803382D01*
X1807048Y598722D01*
Y587725D01*
X1796051D01*
X1792386Y591390D01*
X1796051Y595056D01*
X1807048D01*
X1814379Y587725D02*
X1825375D01*
X1829041Y591390D01*
X1825375Y595056D01*
X1818044D01*
X1814379Y598722D01*
X1818044Y602387D01*
X1829041D01*
X1836372Y587725D02*
X1847368D01*
X1851034Y591390D01*
X1847368Y595056D01*
X1840037D01*
X1836372Y598722D01*
X1840037Y602387D01*
X1851034D01*
X1895020Y587725D02*
X1880358D01*
X1895020Y602387D01*
Y606053D01*
X1891354Y609718D01*
X1884023D01*
X1880358Y606053D01*
X1275553Y577230D02*
X1282884D01*
X1279218D01*
Y555238D01*
X1275553D01*
X1282884D01*
X1293880D02*
Y569899D01*
X1304877D01*
X1308542Y566234D01*
Y555238D01*
X1315873D02*
X1326870D01*
X1330535Y558903D01*
X1326870Y562569D01*
X1319539D01*
X1315873Y566234D01*
X1319539Y569899D01*
X1330535D01*
X1341532Y573565D02*
Y569899D01*
X1337866D01*
X1345197D01*
X1341532D01*
Y558903D01*
X1345197Y555238D01*
X1359859Y569899D02*
X1367190D01*
X1370856Y566234D01*
Y555238D01*
X1359859D01*
X1356194Y558903D01*
X1359859Y562569D01*
X1370856D01*
X1378186Y555238D02*
X1385517D01*
X1381852D01*
Y577230D01*
X1378186D01*
X1396514Y555238D02*
X1403845D01*
X1400179D01*
Y577230D01*
X1396514D01*
X1418507Y569899D02*
X1425838D01*
X1429503Y566234D01*
Y555238D01*
X1418507D01*
X1414841Y558903D01*
X1418507Y562569D01*
X1429503D01*
X1440500Y573565D02*
Y569899D01*
X1436834D01*
X1444165D01*
X1440500D01*
Y558903D01*
X1444165Y555238D01*
X1455162D02*
X1462493D01*
X1458827D01*
Y569899D01*
X1455162D01*
X1477155Y555238D02*
X1484485D01*
X1488151Y558903D01*
Y566234D01*
X1484485Y569899D01*
X1477155D01*
X1473489Y566234D01*
Y558903D01*
X1477155Y555238D01*
X1495482D02*
Y569899D01*
X1506478D01*
X1510144Y566234D01*
Y555238D01*
X1539468Y577230D02*
Y558903D01*
X1543133Y555238D01*
X1550464D01*
X1554130Y558903D01*
Y577230D01*
X1561461Y555238D02*
X1572457D01*
X1576123Y558903D01*
X1572457Y562569D01*
X1565126D01*
X1561461Y566234D01*
X1565126Y569899D01*
X1576123D01*
X1587119D02*
X1594450D01*
X1598115Y566234D01*
Y555238D01*
X1587119D01*
X1583454Y558903D01*
X1587119Y562569D01*
X1598115D01*
X1612777Y547907D02*
X1616443D01*
X1620108Y551572D01*
Y569899D01*
X1609112D01*
X1605446Y566234D01*
Y558903D01*
X1609112Y555238D01*
X1620108D01*
X1638436D02*
X1631105D01*
X1627439Y558903D01*
Y566234D01*
X1631105Y569899D01*
X1638436D01*
X1642101Y566234D01*
Y562569D01*
X1627439D01*
X1693418Y566234D02*
X1708080D01*
X1737404Y577230D02*
Y558903D01*
X1741069Y555238D01*
X1748400D01*
X1752066Y558903D01*
Y577230D01*
X1759397Y555238D02*
X1770393D01*
X1774059Y558903D01*
X1770393Y562569D01*
X1763062D01*
X1759397Y566234D01*
X1763062Y569899D01*
X1774059D01*
X1792386Y555238D02*
X1785055D01*
X1781390Y558903D01*
Y566234D01*
X1785055Y569899D01*
X1792386D01*
X1796051Y566234D01*
Y562569D01*
X1781390D01*
X1825375Y577230D02*
Y555238D01*
X1836372D01*
X1840037Y558903D01*
Y562569D01*
X1836372Y566234D01*
X1825375D01*
X1836372D01*
X1840037Y569899D01*
Y573565D01*
X1836372Y577230D01*
X1825375D01*
X1066620Y482932D02*
Y504925D01*
X1055624Y493928D01*
X1070286D01*
X1077617Y482932D02*
Y486597D01*
X1081282D01*
Y482932D01*
X1077617D01*
X1132599Y504925D02*
X1117937D01*
Y493928D01*
X1125268D01*
X1117937D01*
Y482932D01*
X1139930Y504925D02*
X1147261D01*
X1143596D01*
Y482932D01*
X1139930D01*
X1147261D01*
X1158258D02*
Y504925D01*
X1172919Y482932D01*
Y504925D01*
X1180250D02*
X1187581D01*
X1183916D01*
Y482932D01*
X1180250D01*
X1187581D01*
X1213240Y501259D02*
X1209574Y504925D01*
X1202243D01*
X1198578Y501259D01*
Y497594D01*
X1202243Y493928D01*
X1209574D01*
X1213240Y490263D01*
Y486597D01*
X1209574Y482932D01*
X1202243D01*
X1198578Y486597D01*
X1220571Y504925D02*
Y482932D01*
Y493928D01*
X1235233D01*
Y504925D01*
Y482932D01*
X1242564Y497594D02*
X1246229D01*
Y493928D01*
X1242564D01*
Y497594D01*
Y486597D02*
X1246229D01*
Y482932D01*
X1242564D01*
Y486597D01*
X1304877Y504925D02*
X1312208D01*
X1308542D01*
Y482932D01*
X1304877D01*
X1312208D01*
X1323204D02*
Y504925D01*
X1330535Y497594D01*
X1337866Y504925D01*
Y482932D01*
X1345197D02*
Y504925D01*
X1352528Y497594D01*
X1359859Y504925D01*
Y482932D01*
X1381852Y504925D02*
X1367190D01*
Y482932D01*
X1381852D01*
X1367190Y493928D02*
X1374521D01*
X1389183Y482932D02*
Y504925D01*
X1400179D01*
X1403845Y501259D01*
Y493928D01*
X1400179Y490263D01*
X1389183D01*
X1396514D02*
X1403845Y482932D01*
X1425838Y501259D02*
X1422172Y504925D01*
X1414841D01*
X1411176Y501259D01*
Y497594D01*
X1414841Y493928D01*
X1422172D01*
X1425838Y490263D01*
Y486597D01*
X1422172Y482932D01*
X1414841D01*
X1411176Y486597D01*
X1433169Y504925D02*
X1440500D01*
X1436834D01*
Y482932D01*
X1433169D01*
X1440500D01*
X1462493Y504925D02*
X1455162D01*
X1451496Y501259D01*
Y486597D01*
X1455162Y482932D01*
X1462493D01*
X1466158Y486597D01*
Y501259D01*
X1462493Y504925D01*
X1473489Y482932D02*
Y504925D01*
X1488151Y482932D01*
Y504925D01*
X1532137Y501259D02*
X1528471Y504925D01*
X1521140D01*
X1517475Y501259D01*
Y486597D01*
X1521140Y482932D01*
X1528471D01*
X1532137Y486597D01*
Y493928D01*
X1524806D01*
X1550464Y504925D02*
X1543133D01*
X1539468Y501259D01*
Y486597D01*
X1543133Y482932D01*
X1550464D01*
X1554130Y486597D01*
Y501259D01*
X1550464Y504925D01*
X1561461D02*
Y482932D01*
X1576123D01*
X1583454Y504925D02*
Y482932D01*
X1594450D01*
X1598115Y486597D01*
Y501259D01*
X1594450Y504925D01*
X1583454D01*
X1055624Y417957D02*
Y432619D01*
X1062955Y439950D01*
X1070286Y432619D01*
Y417957D01*
Y428953D01*
X1055624D01*
X1077617Y439950D02*
Y417957D01*
X1092279D01*
X1099610Y439950D02*
Y417957D01*
X1114272D01*
X1158258Y439950D02*
X1143596D01*
Y417957D01*
X1158258D01*
X1143596Y428953D02*
X1150927D01*
X1165589Y439950D02*
X1180250Y417957D01*
Y439950D02*
X1165589Y417957D01*
X1187581D02*
Y439950D01*
X1198578D01*
X1202243Y436284D01*
Y428953D01*
X1198578Y425288D01*
X1187581D01*
X1220571Y439950D02*
X1213240D01*
X1209574Y436284D01*
Y421622D01*
X1213240Y417957D01*
X1220571D01*
X1224236Y421622D01*
Y436284D01*
X1220571Y439950D01*
X1246229Y436284D02*
X1242564Y439950D01*
X1235233D01*
X1231567Y436284D01*
Y432619D01*
X1235233Y428953D01*
X1242564D01*
X1246229Y425288D01*
Y421622D01*
X1242564Y417957D01*
X1235233D01*
X1231567Y421622D01*
X1268222Y439950D02*
X1253560D01*
Y417957D01*
X1268222D01*
X1253560Y428953D02*
X1260891D01*
X1275553Y439950D02*
Y417957D01*
X1286549D01*
X1290215Y421622D01*
Y436284D01*
X1286549Y439950D01*
X1275553D01*
X1334201Y436284D02*
X1330535Y439950D01*
X1323204D01*
X1319539Y436284D01*
Y421622D01*
X1323204Y417957D01*
X1330535D01*
X1334201Y421622D01*
X1352528Y439950D02*
X1345197D01*
X1341532Y436284D01*
Y421622D01*
X1345197Y417957D01*
X1352528D01*
X1356194Y421622D01*
Y436284D01*
X1352528Y439950D01*
X1363524Y417957D02*
Y439950D01*
X1378186Y417957D01*
Y439950D01*
X1385517D02*
Y417957D01*
X1396514D01*
X1400179Y421622D01*
Y436284D01*
X1396514Y439950D01*
X1385517D01*
X1407510D02*
Y421622D01*
X1411176Y417957D01*
X1418507D01*
X1422172Y421622D01*
Y439950D01*
X1444165Y436284D02*
X1440500Y439950D01*
X1433169D01*
X1429503Y436284D01*
Y421622D01*
X1433169Y417957D01*
X1440500D01*
X1444165Y421622D01*
X1451496Y439950D02*
X1466158D01*
X1458827D01*
Y417957D01*
X1473489Y439950D02*
X1480820D01*
X1477155D01*
Y417957D01*
X1473489D01*
X1480820D01*
X1491816Y439950D02*
Y425288D01*
X1499147Y417957D01*
X1506478Y425288D01*
Y439950D01*
X1528471D02*
X1513809D01*
Y417957D01*
X1528471D01*
X1513809Y428953D02*
X1521140D01*
X1557795Y417957D02*
Y439950D01*
X1568792D01*
X1572457Y436284D01*
Y428953D01*
X1568792Y425288D01*
X1557795D01*
X1579788Y417957D02*
Y432619D01*
X1587119Y439950D01*
X1594450Y432619D01*
Y417957D01*
Y428953D01*
X1579788D01*
X1601781Y439950D02*
X1616443D01*
X1609112D01*
Y417957D01*
X1623774Y439950D02*
X1638436D01*
X1631105D01*
Y417957D01*
X1660429Y439950D02*
X1645767D01*
Y417957D01*
X1660429D01*
X1645767Y428953D02*
X1653098D01*
X1667760Y417957D02*
Y439950D01*
X1678756D01*
X1682422Y436284D01*
Y428953D01*
X1678756Y425288D01*
X1667760D01*
X1675091D02*
X1682422Y417957D01*
X1689753D02*
Y439950D01*
X1704414Y417957D01*
Y439950D01*
X1733738Y417957D02*
Y432619D01*
X1741069Y439950D01*
X1748400Y432619D01*
Y417957D01*
Y428953D01*
X1733738D01*
X1755731Y417957D02*
Y439950D01*
X1766728D01*
X1770393Y436284D01*
Y428953D01*
X1766728Y425288D01*
X1755731D01*
X1763062D02*
X1770393Y417957D01*
X1792386Y439950D02*
X1777724D01*
Y417957D01*
X1792386D01*
X1777724Y428953D02*
X1785055D01*
X1799717Y417957D02*
Y432619D01*
X1807048Y439950D01*
X1814379Y432619D01*
Y417957D01*
Y428953D01*
X1799717D01*
X1836372Y436284D02*
X1832706Y439950D01*
X1825375D01*
X1821710Y436284D01*
Y432619D01*
X1825375Y428953D01*
X1832706D01*
X1836372Y425288D01*
Y421622D01*
X1832706Y417957D01*
X1825375D01*
X1821710Y421622D01*
X1865696Y417957D02*
Y439950D01*
X1880358Y417957D01*
Y439950D01*
X1898685D02*
X1891354D01*
X1887688Y436284D01*
Y421622D01*
X1891354Y417957D01*
X1898685D01*
X1902350Y421622D01*
Y436284D01*
X1898685Y439950D01*
X1909681D02*
X1924343D01*
X1917012D01*
Y417957D01*
X1968329Y436284D02*
X1964664Y439950D01*
X1957333D01*
X1953667Y436284D01*
Y421622D01*
X1957333Y417957D01*
X1964664D01*
X1968329Y421622D01*
X1986657Y439950D02*
X1979326D01*
X1975660Y436284D01*
Y421622D01*
X1979326Y417957D01*
X1986657D01*
X1990322Y421622D01*
Y436284D01*
X1986657Y439950D01*
X1997653D02*
Y425288D01*
X2004984Y417957D01*
X2012315Y425288D01*
Y439950D01*
X2034308D02*
X2019646D01*
Y417957D01*
X2034308D01*
X2019646Y428953D02*
X2026977D01*
X2041639Y417957D02*
Y439950D01*
X2052635D01*
X2056301Y436284D01*
Y428953D01*
X2052635Y425288D01*
X2041639D01*
X2048970D02*
X2056301Y417957D01*
X2078294Y439950D02*
X2063632D01*
Y417957D01*
X2078294D01*
X2063632Y428953D02*
X2070963D01*
X2085625Y439950D02*
Y417957D01*
X2096621D01*
X2100287Y421622D01*
Y436284D01*
X2096621Y439950D01*
X2085625D01*
X2129610D02*
Y417957D01*
X2136941Y425288D01*
X2144272Y417957D01*
Y439950D01*
X2151603D02*
X2158934D01*
X2155269D01*
Y417957D01*
X2151603D01*
X2158934D01*
X2169931Y439950D02*
X2184593D01*
X2177262D01*
Y417957D01*
X2191924Y439950D02*
Y417957D01*
Y428953D01*
X2206586D01*
Y439950D01*
Y417957D01*
X2250571Y436284D02*
X2246906Y439950D01*
X2239575D01*
X2235909Y436284D01*
Y421622D01*
X2239575Y417957D01*
X2246906D01*
X2250571Y421622D01*
X2268899Y439950D02*
X2261568D01*
X2257902Y436284D01*
Y421622D01*
X2261568Y417957D01*
X2268899D01*
X2272564Y421622D01*
Y436284D01*
X2268899Y439950D01*
X2279895D02*
Y425288D01*
X2287226Y417957D01*
X2294557Y425288D01*
Y439950D01*
X2316550D02*
X2301888D01*
Y417957D01*
X2316550D01*
X2301888Y428953D02*
X2309219D01*
X2323881Y417957D02*
Y439950D01*
X2334877D01*
X2338543Y436284D01*
Y428953D01*
X2334877Y425288D01*
X2323881D01*
X2331212D02*
X2338543Y417957D01*
X2345874Y439950D02*
Y417957D01*
X2360536D01*
X2367867D02*
Y432619D01*
X2375198Y439950D01*
X2382529Y432619D01*
Y417957D01*
Y428953D01*
X2367867D01*
X2389860Y439950D02*
Y436284D01*
X2397191Y428953D01*
X2404522Y436284D01*
Y439950D01*
X2397191Y428953D02*
Y417957D01*
X2433845D02*
Y439950D01*
X2441176Y432619D01*
X2448507Y439950D01*
Y417957D01*
X2455838D02*
Y432619D01*
X2463169Y439950D01*
X2470500Y432619D01*
Y417957D01*
Y428953D01*
X2455838D01*
X2477831Y439950D02*
X2492493D01*
X2485162D01*
Y417957D01*
X2514486Y439950D02*
X2499824D01*
Y417957D01*
X2514486D01*
X2499824Y428953D02*
X2507155D01*
X2521817Y417957D02*
Y439950D01*
X2532814D01*
X2536479Y436284D01*
Y428953D01*
X2532814Y425288D01*
X2521817D01*
X2529148D02*
X2536479Y417957D01*
X2543810Y439950D02*
X2551141D01*
X2547475D01*
Y417957D01*
X2543810D01*
X2551141D01*
X2562137D02*
Y432619D01*
X2569468Y439950D01*
X2576799Y432619D01*
Y417957D01*
Y428953D01*
X2562137D01*
X2584130Y439950D02*
Y417957D01*
X2598792D01*
X2639113Y439950D02*
X2631782D01*
X2628116Y436284D01*
Y421622D01*
X2631782Y417957D01*
X2639113D01*
X2642778Y421622D01*
Y436284D01*
X2639113Y439950D01*
X2650109Y417957D02*
Y439950D01*
X2661105D01*
X2664771Y436284D01*
Y428953D01*
X2661105Y425288D01*
X2650109D01*
X2657440D02*
X2664771Y417957D01*
X2705091Y439950D02*
X2697760D01*
X2694095Y436284D01*
Y421622D01*
X2697760Y417957D01*
X2705091D01*
X2708757Y421622D01*
Y436284D01*
X2705091Y439950D01*
X2716088D02*
X2730750D01*
X2723419D01*
Y417957D01*
X2738080Y439950D02*
Y417957D01*
Y428953D01*
X2752742D01*
Y439950D01*
Y417957D01*
X2774735Y439950D02*
X2760074D01*
Y417957D01*
X2774735D01*
X2760074Y428953D02*
X2767404D01*
X2782066Y417957D02*
Y439950D01*
X2793063D01*
X2796728Y436284D01*
Y428953D01*
X2793063Y425288D01*
X2782066D01*
X2789397D02*
X2796728Y417957D01*
X2826052D02*
Y439950D01*
X2837049D01*
X2840714Y436284D01*
Y428953D01*
X2837049Y425288D01*
X2826052D01*
X2848045Y439950D02*
Y417957D01*
X2862707D01*
X2870038D02*
Y432619D01*
X2877369Y439950D01*
X2884700Y432619D01*
Y417957D01*
Y428953D01*
X2870038D01*
X2892031Y439950D02*
X2906693D01*
X2899362D01*
Y417957D01*
X2914024Y439950D02*
X2921355D01*
X2917689D01*
Y417957D01*
X2914024D01*
X2921355D01*
X2932351D02*
Y439950D01*
X2947013Y417957D01*
Y439950D01*
X2969006Y436284D02*
X2965340Y439950D01*
X2958009D01*
X2954344Y436284D01*
Y421622D01*
X2958009Y417957D01*
X2965340D01*
X2969006Y421622D01*
Y428953D01*
X2961675D01*
X1070286Y403797D02*
X1066620Y407462D01*
X1059289D01*
X1055624Y403797D01*
Y400131D01*
X1059289Y396466D01*
X1066620D01*
X1070286Y392800D01*
Y389135D01*
X1066620Y385469D01*
X1059289D01*
X1055624Y389135D01*
X1077617Y407462D02*
Y385469D01*
Y396466D01*
X1092279D01*
Y407462D01*
Y385469D01*
X1099610D02*
Y400131D01*
X1106941Y407462D01*
X1114272Y400131D01*
Y385469D01*
Y396466D01*
X1099610D01*
X1121603Y407462D02*
Y385469D01*
X1136265D01*
X1143596Y407462D02*
Y385469D01*
X1158258D01*
X1187581Y407462D02*
Y385469D01*
X1198578D01*
X1202243Y389135D01*
Y392800D01*
X1198578Y396466D01*
X1187581D01*
X1198578D01*
X1202243Y400131D01*
Y403797D01*
X1198578Y407462D01*
X1187581D01*
X1224236D02*
X1209574D01*
Y385469D01*
X1224236D01*
X1209574Y396466D02*
X1216905D01*
X1253560Y407462D02*
X1260891D01*
X1257225D01*
Y385469D01*
X1253560D01*
X1260891D01*
X1271888D02*
Y407462D01*
X1279218Y400131D01*
X1286549Y407462D01*
Y385469D01*
X1293880D02*
Y407462D01*
X1301211Y400131D01*
X1308542Y407462D01*
Y385469D01*
X1330535Y407462D02*
X1315873D01*
Y385469D01*
X1330535D01*
X1315873Y396466D02*
X1323204D01*
X1337866Y385469D02*
Y407462D01*
X1348863D01*
X1352528Y403797D01*
Y396466D01*
X1348863Y392800D01*
X1337866D01*
X1345197D02*
X1352528Y385469D01*
X1374521Y403797D02*
X1370856Y407462D01*
X1363524D01*
X1359859Y403797D01*
Y400131D01*
X1363524Y396466D01*
X1370856D01*
X1374521Y392800D01*
Y389135D01*
X1370856Y385469D01*
X1363524D01*
X1359859Y389135D01*
X1381852Y407462D02*
X1389183D01*
X1385517D01*
Y385469D01*
X1381852D01*
X1389183D01*
X1411176Y407462D02*
X1403845D01*
X1400179Y403797D01*
Y389135D01*
X1403845Y385469D01*
X1411176D01*
X1414841Y389135D01*
Y403797D01*
X1411176Y407462D01*
X1422172Y385469D02*
Y407462D01*
X1436834Y385469D01*
Y407462D01*
X1480820Y403797D02*
X1477155Y407462D01*
X1469823D01*
X1466158Y403797D01*
Y389135D01*
X1469823Y385469D01*
X1477155D01*
X1480820Y389135D01*
Y396466D01*
X1473489D01*
X1499147Y407462D02*
X1491816D01*
X1488151Y403797D01*
Y389135D01*
X1491816Y385469D01*
X1499147D01*
X1502813Y389135D01*
Y403797D01*
X1499147Y407462D01*
X1510144D02*
Y385469D01*
X1524806D01*
X1532137Y407462D02*
Y385469D01*
X1543133D01*
X1546799Y389135D01*
Y403797D01*
X1543133Y407462D01*
X1532137D01*
X1583454Y385469D02*
X1576122Y392800D01*
Y400131D01*
X1583454Y407462D01*
X1594450Y403797D02*
X1598115Y407462D01*
X1605446D01*
X1609112Y403797D01*
Y389135D01*
X1605446Y385469D01*
X1598115D01*
X1594450Y389135D01*
Y403797D01*
X1616443Y385469D02*
Y389135D01*
X1620108D01*
Y385469D01*
X1616443D01*
X1634770Y403797D02*
X1638436Y407462D01*
X1645767D01*
X1649432Y403797D01*
Y389135D01*
X1645767Y385469D01*
X1638436D01*
X1634770Y389135D01*
Y403797D01*
X1656763D02*
X1660429Y407462D01*
X1667760D01*
X1671425Y403797D01*
Y389135D01*
X1667760Y385469D01*
X1660429D01*
X1656763Y389135D01*
Y403797D01*
X1678756D02*
X1682422Y407462D01*
X1689753D01*
X1693418Y403797D01*
Y389135D01*
X1689753Y385469D01*
X1682422D01*
X1678756Y389135D01*
Y403797D01*
X1700749D02*
X1704414Y407462D01*
X1711745D01*
X1715411Y403797D01*
Y389135D01*
X1711745Y385469D01*
X1704414D01*
X1700749Y389135D01*
Y403797D01*
X1722742D02*
X1726407Y407462D01*
X1733738D01*
X1737404Y403797D01*
Y400131D01*
X1733738Y396466D01*
X1730073D01*
X1733738D01*
X1737404Y392800D01*
Y389135D01*
X1733738Y385469D01*
X1726407D01*
X1722742Y389135D01*
X1744735Y403797D02*
X1748400Y407462D01*
X1755731D01*
X1759397Y403797D01*
Y389135D01*
X1755731Y385469D01*
X1748400D01*
X1744735Y389135D01*
Y403797D01*
X1766728Y396466D02*
X1781390D01*
X1788721Y403797D02*
X1792386Y407462D01*
X1799717D01*
X1803382Y403797D01*
Y389135D01*
X1799717Y385469D01*
X1792386D01*
X1788721Y389135D01*
Y403797D01*
X1810713Y385469D02*
Y389135D01*
X1814379D01*
Y385469D01*
X1810713D01*
X1829041Y403797D02*
X1832706Y407462D01*
X1840037D01*
X1843703Y403797D01*
Y389135D01*
X1840037Y385469D01*
X1832706D01*
X1829041Y389135D01*
Y403797D01*
X1851034D02*
X1854699Y407462D01*
X1862030D01*
X1865696Y403797D01*
Y389135D01*
X1862030Y385469D01*
X1854699D01*
X1851034Y389135D01*
Y403797D01*
X1873027D02*
X1876692Y407462D01*
X1884023D01*
X1887689Y403797D01*
Y389135D01*
X1884023Y385469D01*
X1876692D01*
X1873027Y389135D01*
Y403797D01*
X1895020D02*
X1898685Y407462D01*
X1906016D01*
X1909681Y403797D01*
Y389135D01*
X1906016Y385469D01*
X1898685D01*
X1895020Y389135D01*
Y403797D01*
X1917012Y389135D02*
X1920678Y385469D01*
X1928009D01*
X1931674Y389135D01*
Y403797D01*
X1928009Y407462D01*
X1920678D01*
X1917012Y403797D01*
Y400131D01*
X1920678Y396466D01*
X1931674D01*
X1939005Y403797D02*
X1942671Y407462D01*
X1950002D01*
X1953667Y403797D01*
Y389135D01*
X1950002Y385469D01*
X1942671D01*
X1939005Y389135D01*
Y403797D01*
X1982991Y385469D02*
Y400131D01*
X1986657D01*
X1990322Y396466D01*
Y385469D01*
Y396466D01*
X1993988Y400131D01*
X1997653Y396466D01*
Y385469D01*
X2004984D02*
Y400131D01*
X2008649D01*
X2012315Y396466D01*
Y385469D01*
Y396466D01*
X2015980Y400131D01*
X2019646Y396466D01*
Y385469D01*
X2026977D02*
X2034308Y392800D01*
Y400131D01*
X2026977Y407462D01*
X2078294D02*
X2070963D01*
X2067297Y403797D01*
Y389135D01*
X2070963Y385469D01*
X2078294D01*
X2081959Y389135D01*
Y403797D01*
X2078294Y407462D01*
X2089290D02*
Y392800D01*
X2096621Y385469D01*
X2103952Y392800D01*
Y407462D01*
X2125945D02*
X2111283D01*
Y385469D01*
X2125945D01*
X2111283Y396466D02*
X2118614D01*
X2133276Y385469D02*
Y407462D01*
X2144272D01*
X2147938Y403797D01*
Y396466D01*
X2144272Y392800D01*
X2133276D01*
X2140607D02*
X2147938Y385469D01*
X2191924Y407462D02*
X2177262D01*
Y385469D01*
X2191924D01*
X2177262Y396466D02*
X2184593D01*
X2199255Y407462D02*
Y385469D01*
X2213916D01*
X2235909Y407462D02*
X2221248D01*
Y385469D01*
X2235909D01*
X2221248Y396466D02*
X2228578D01*
X2257902Y403797D02*
X2254237Y407462D01*
X2246906D01*
X2243240Y403797D01*
Y389135D01*
X2246906Y385469D01*
X2254237D01*
X2257902Y389135D01*
X2265233Y407462D02*
X2279895D01*
X2272564D01*
Y385469D01*
X2287226D02*
Y407462D01*
X2298223D01*
X2301888Y403797D01*
Y396466D01*
X2298223Y392800D01*
X2287226D01*
X2294557D02*
X2301888Y385469D01*
X2320215Y407462D02*
X2312885D01*
X2309219Y403797D01*
Y389135D01*
X2312885Y385469D01*
X2320215D01*
X2323881Y389135D01*
Y403797D01*
X2320215Y407462D01*
X2331212D02*
Y385469D01*
X2345874D01*
X2367867Y407462D02*
X2353205D01*
Y385469D01*
X2367867D01*
X2353205Y396466D02*
X2360536D01*
X2389860Y403797D02*
X2386194Y407462D01*
X2378863D01*
X2375198Y403797D01*
Y400131D01*
X2378863Y396466D01*
X2386194D01*
X2389860Y392800D01*
Y389135D01*
X2386194Y385469D01*
X2378863D01*
X2375198Y389135D01*
X2411853Y403797D02*
X2408187Y407462D01*
X2400856D01*
X2397191Y403797D01*
Y400131D01*
X2400856Y396466D01*
X2408187D01*
X2411853Y392800D01*
Y389135D01*
X2408187Y385469D01*
X2400856D01*
X2397191Y389135D01*
X2441176Y385469D02*
Y407462D01*
X2455838Y385469D01*
Y407462D01*
X2463169D02*
X2470500D01*
X2466835D01*
Y385469D01*
X2463169D01*
X2470500D01*
X2496159Y403797D02*
X2492493Y407462D01*
X2485162D01*
X2481497Y403797D01*
Y389135D01*
X2485162Y385469D01*
X2492493D01*
X2496159Y389135D01*
X2503490Y407462D02*
Y385469D01*
Y392800D01*
X2518152Y407462D01*
X2507155Y396466D01*
X2518152Y385469D01*
X2540144Y407462D02*
X2525482D01*
Y385469D01*
X2540144D01*
X2525482Y396466D02*
X2532814D01*
X2547475Y407462D02*
Y385469D01*
X2562137D01*
X2598792D02*
X2591461Y392800D01*
Y400131D01*
X2598792Y407462D01*
X2609789Y403797D02*
X2613454Y407462D01*
X2620785D01*
X2624451Y403797D01*
Y389135D01*
X2620785Y385469D01*
X2613454D01*
X2609789Y389135D01*
Y403797D01*
X2631782Y385469D02*
Y389135D01*
X2635447D01*
Y385469D01*
X2631782D01*
X2650109Y403797D02*
X2653774Y407462D01*
X2661105D01*
X2664771Y403797D01*
Y389135D01*
X2661105Y385469D01*
X2653774D01*
X2650109Y389135D01*
Y403797D01*
X2672102D02*
X2675767Y407462D01*
X2683098D01*
X2686764Y403797D01*
Y389135D01*
X2683098Y385469D01*
X2675767D01*
X2672102Y389135D01*
Y403797D01*
X2694095Y385469D02*
X2701426D01*
X2697760D01*
Y407462D01*
X2694095Y403797D01*
X2712422Y396466D02*
X2727084D01*
X2734415Y403797D02*
X2738080Y407462D01*
X2745411D01*
X2749077Y403797D01*
Y389135D01*
X2745411Y385469D01*
X2738080D01*
X2734415Y389135D01*
Y403797D01*
X2756408Y385469D02*
Y389135D01*
X2760074D01*
Y385469D01*
X2756408D01*
X2774735Y403797D02*
X2778401Y407462D01*
X2785732D01*
X2789397Y403797D01*
Y389135D01*
X2785732Y385469D01*
X2778401D01*
X2774735Y389135D01*
Y403797D01*
X2796728D02*
X2800394Y407462D01*
X2807725D01*
X2811390Y403797D01*
Y389135D01*
X2807725Y385469D01*
X2800394D01*
X2796728Y389135D01*
Y403797D01*
X2833383Y407462D02*
X2826052Y403797D01*
X2818721Y396466D01*
Y389135D01*
X2822386Y385469D01*
X2829718D01*
X2833383Y389135D01*
Y392800D01*
X2829718Y396466D01*
X2818721D01*
X2862707Y385469D02*
Y400131D01*
X2866372D01*
X2870038Y396466D01*
Y385469D01*
Y396466D01*
X2873703Y400131D01*
X2877369Y396466D01*
Y385469D01*
X2884700D02*
Y400131D01*
X2888365D01*
X2892031Y396466D01*
Y385469D01*
Y396466D01*
X2895696Y400131D01*
X2899362Y396466D01*
Y385469D01*
X2906693D02*
X2914024Y392800D01*
Y400131D01*
X2906693Y407462D01*
X2925020Y385469D02*
Y389135D01*
X2928686D01*
Y385469D01*
X2925020D01*
X1070286Y342487D02*
X1055624D01*
Y331491D01*
X1062955Y335156D01*
X1066620D01*
X1070286Y331491D01*
Y324160D01*
X1066620Y320494D01*
X1059289D01*
X1055624Y324160D01*
X1077617Y320494D02*
Y324160D01*
X1081282D01*
Y320494D01*
X1077617D01*
X1117937Y342487D02*
Y320494D01*
X1132599D01*
X1154592Y342487D02*
X1139930D01*
Y320494D01*
X1154592D01*
X1139930Y331491D02*
X1147261D01*
X1176585Y338822D02*
X1172919Y342487D01*
X1165589D01*
X1161923Y338822D01*
Y324160D01*
X1165589Y320494D01*
X1172919D01*
X1176585Y324160D01*
Y331491D01*
X1169254D01*
X1198578Y342487D02*
X1183916D01*
Y320494D01*
X1198578D01*
X1183916Y331491D02*
X1191247D01*
X1205909Y320494D02*
Y342487D01*
X1220571Y320494D01*
Y342487D01*
X1227902D02*
Y320494D01*
X1238898D01*
X1242564Y324160D01*
Y338822D01*
X1238898Y342487D01*
X1227902D01*
X1286549Y338822D02*
X1282884Y342487D01*
X1275553D01*
X1271888Y338822D01*
Y335156D01*
X1275553Y331491D01*
X1282884D01*
X1286549Y327825D01*
Y324160D01*
X1282884Y320494D01*
X1275553D01*
X1271888Y324160D01*
X1293880Y342487D02*
Y320494D01*
Y331491D01*
X1308542D01*
Y342487D01*
Y320494D01*
X1315873D02*
Y335156D01*
X1323204Y342487D01*
X1330535Y335156D01*
Y320494D01*
Y331491D01*
X1315873D01*
X1337866Y342487D02*
Y320494D01*
X1352528D01*
X1359859Y342487D02*
Y320494D01*
X1374521D01*
X1403845Y342487D02*
Y320494D01*
X1414841D01*
X1418507Y324160D01*
Y327825D01*
X1414841Y331491D01*
X1403845D01*
X1414841D01*
X1418507Y335156D01*
Y338822D01*
X1414841Y342487D01*
X1403845D01*
X1440500D02*
X1425838D01*
Y320494D01*
X1440500D01*
X1425838Y331491D02*
X1433169D01*
X1469823Y342487D02*
Y320494D01*
X1477155Y327825D01*
X1484485Y320494D01*
Y342487D01*
X1491816D02*
Y320494D01*
Y331491D01*
X1506478D01*
Y342487D01*
Y320494D01*
X1513809Y342487D02*
X1521140D01*
X1517475D01*
Y320494D01*
X1513809D01*
X1521140D01*
X1532137Y342487D02*
X1546799D01*
X1539468D01*
Y320494D01*
X1568792Y342487D02*
X1554130D01*
Y320494D01*
X1568792D01*
X1554130Y331491D02*
X1561461D01*
X1579788Y316829D02*
X1583454Y320494D01*
Y324160D01*
X1579788D01*
Y320494D01*
X1583454D01*
X1579788Y316829D01*
X1576122Y313163D01*
X1620108Y320494D02*
Y342487D01*
X1631105D01*
X1634770Y338822D01*
Y331491D01*
X1631105Y327825D01*
X1620108D01*
X1656763Y342487D02*
X1642101D01*
Y320494D01*
X1656763D01*
X1642101Y331491D02*
X1649432D01*
X1664094Y320494D02*
Y342487D01*
X1675091D01*
X1678756Y338822D01*
Y331491D01*
X1675091Y327825D01*
X1664094D01*
X1671425D02*
X1678756Y320494D01*
X1686087D02*
Y342487D01*
X1693418Y335156D01*
X1700749Y342487D01*
Y320494D01*
X1708080D02*
Y335156D01*
X1715411Y342487D01*
X1722742Y335156D01*
Y320494D01*
Y331491D01*
X1708080D01*
X1730073Y320494D02*
Y342487D01*
X1744735Y320494D01*
Y342487D01*
X1766728D02*
X1752066D01*
Y320494D01*
X1766728D01*
X1752066Y331491D02*
X1759397D01*
X1774059Y320494D02*
Y342487D01*
X1788721Y320494D01*
Y342487D01*
X1796051D02*
X1810713D01*
X1803382D01*
Y320494D01*
X1821710Y316829D02*
X1825375Y320494D01*
Y324160D01*
X1821710D01*
Y320494D01*
X1825375D01*
X1821710Y316829D01*
X1818044Y313163D01*
X1873027Y342487D02*
X1865696D01*
X1862030Y338822D01*
Y324160D01*
X1865696Y320494D01*
X1873027D01*
X1876692Y324160D01*
Y338822D01*
X1873027Y342487D01*
X1884023Y320494D02*
Y342487D01*
X1895020D01*
X1898685Y338822D01*
Y331491D01*
X1895020Y327825D01*
X1884023D01*
X1891354D02*
X1898685Y320494D01*
X1920678Y338822D02*
X1917012Y342487D01*
X1909681D01*
X1906016Y338822D01*
Y324160D01*
X1909681Y320494D01*
X1917012D01*
X1920678Y324160D01*
Y331491D01*
X1913347D01*
X1928009Y320494D02*
Y335156D01*
X1935340Y342487D01*
X1942671Y335156D01*
Y320494D01*
Y331491D01*
X1928009D01*
X1950002Y320494D02*
Y342487D01*
X1964664Y320494D01*
Y342487D01*
X1971995D02*
X1979326D01*
X1975660D01*
Y320494D01*
X1971995D01*
X1979326D01*
X2004984Y338822D02*
X2001319Y342487D01*
X1993987D01*
X1990322Y338822D01*
Y324160D01*
X1993987Y320494D01*
X2001319D01*
X2004984Y324160D01*
X2015980Y316829D02*
X2019646Y320494D01*
Y324160D01*
X2015980D01*
Y320494D01*
X2019646D01*
X2015980Y316829D01*
X2012315Y313163D01*
X2056301Y320494D02*
Y342487D01*
X2070963Y320494D01*
Y342487D01*
X2089290D02*
X2081959D01*
X2078294Y338822D01*
Y324160D01*
X2081959Y320494D01*
X2089290D01*
X2092956Y324160D01*
Y338822D01*
X2089290Y342487D01*
X2100287Y320494D02*
Y342487D01*
X2114948Y320494D01*
Y342487D01*
X2122279Y331491D02*
X2136941D01*
X2158934Y338822D02*
X2155269Y342487D01*
X2147938D01*
X2144272Y338822D01*
Y324160D01*
X2147938Y320494D01*
X2155269D01*
X2158934Y324160D01*
X2177262Y342487D02*
X2169931D01*
X2166265Y338822D01*
Y324160D01*
X2169931Y320494D01*
X2177262D01*
X2180927Y324160D01*
Y338822D01*
X2177262Y342487D01*
X2188258Y320494D02*
Y342487D01*
X2202920Y320494D01*
Y342487D01*
X2210251D02*
Y320494D01*
X2221247D01*
X2224913Y324160D01*
Y338822D01*
X2221247Y342487D01*
X2210251D01*
X2232244D02*
Y324160D01*
X2235909Y320494D01*
X2243240D01*
X2246906Y324160D01*
Y342487D01*
X2268899Y338822D02*
X2265233Y342487D01*
X2257902D01*
X2254237Y338822D01*
Y324160D01*
X2257902Y320494D01*
X2265233D01*
X2268899Y324160D01*
X2276230Y342487D02*
X2290892D01*
X2283561D01*
Y320494D01*
X2298223Y342487D02*
X2305554D01*
X2301888D01*
Y320494D01*
X2298223D01*
X2305554D01*
X2316550Y342487D02*
Y327825D01*
X2323881Y320494D01*
X2331212Y327825D01*
Y342487D01*
X2353205D02*
X2338543D01*
Y320494D01*
X2353205D01*
X2338543Y331491D02*
X2345874D01*
X2382529Y342487D02*
Y324160D01*
X2386194Y320494D01*
X2393525D01*
X2397191Y324160D01*
Y342487D01*
X2404522D02*
Y327825D01*
X2411853Y320494D01*
X2419184Y327825D01*
Y342487D01*
X2459504D02*
X2452173D01*
X2448507Y338822D01*
Y324160D01*
X2452173Y320494D01*
X2459504D01*
X2463169Y324160D01*
Y338822D01*
X2459504Y342487D01*
X2470500Y320494D02*
Y342487D01*
X2481497D01*
X2485162Y338822D01*
Y331491D01*
X2481497Y327825D01*
X2470500D01*
X2477831D02*
X2485162Y320494D01*
X2529148Y342487D02*
X2514486D01*
Y320494D01*
X2529148D01*
X2514486Y331491D02*
X2521817D01*
X2536479Y320494D02*
Y342487D01*
X2547475D01*
X2551141Y338822D01*
Y331491D01*
X2547475Y327825D01*
X2536479D01*
X2569468Y342487D02*
X2562137D01*
X2558472Y338822D01*
Y324160D01*
X2562137Y320494D01*
X2569468D01*
X2573134Y324160D01*
Y338822D01*
X2569468Y342487D01*
X2580465D02*
X2595127Y320494D01*
Y342487D02*
X2580465Y320494D01*
X2602458Y342487D02*
Y338822D01*
X2609789Y331491D01*
X2617120Y338822D01*
Y342487D01*
X2609789Y331491D02*
Y320494D01*
X2646443Y342487D02*
X2661105D01*
X2653774D01*
Y320494D01*
X2668436Y342487D02*
Y338822D01*
X2675767Y331491D01*
X2683098Y338822D01*
Y342487D01*
X2675767Y331491D02*
Y320494D01*
X2690429D02*
Y342487D01*
X2701426D01*
X2705091Y338822D01*
Y331491D01*
X2701426Y327825D01*
X2690429D01*
X2727084Y342487D02*
X2712422D01*
Y320494D01*
X2727084D01*
X2712422Y331491D02*
X2719753D01*
X2756408Y342487D02*
X2763739D01*
X2760074D01*
Y320494D01*
X2756408D01*
X2763739D01*
X2774735D02*
Y342487D01*
X2789397Y320494D01*
Y342487D01*
X2796728D02*
Y320494D01*
Y327825D01*
X2811390Y342487D01*
X2800394Y331491D01*
X2811390Y320494D01*
X2840714D02*
Y335156D01*
X2848045Y342487D01*
X2855376Y335156D01*
Y320494D01*
Y331491D01*
X2840714D01*
X2862707Y320494D02*
Y342487D01*
X2873703D01*
X2877369Y338822D01*
Y331491D01*
X2873703Y327825D01*
X2862707D01*
X2884700Y320494D02*
Y342487D01*
X2895696D01*
X2899362Y338822D01*
Y331491D01*
X2895696Y327825D01*
X2884700D01*
X2906693Y342487D02*
Y320494D01*
X2921355D01*
X2928686Y342487D02*
X2936017D01*
X2932351D01*
Y320494D01*
X2928686D01*
X2936017D01*
X2961675Y342487D02*
X2947013D01*
Y320494D01*
X2961675D01*
X2947013Y331491D02*
X2954344D01*
X2969006Y342487D02*
Y320494D01*
X2980002D01*
X2983668Y324160D01*
Y338822D01*
X2980002Y342487D01*
X2969006D01*
X1055624Y310000D02*
X1070286D01*
X1062955D01*
Y288007D01*
X1088613Y310000D02*
X1081282D01*
X1077617Y306334D01*
Y291672D01*
X1081282Y288007D01*
X1088613D01*
X1092279Y291672D01*
Y306334D01*
X1088613Y310000D01*
X1121603D02*
X1136265D01*
X1128934D01*
Y288007D01*
X1143596Y310000D02*
Y288007D01*
Y299003D01*
X1158258D01*
Y310000D01*
Y288007D01*
X1180250Y310000D02*
X1165589D01*
Y288007D01*
X1180250D01*
X1165589Y299003D02*
X1172919D01*
X1209574Y310000D02*
X1224236D01*
X1216905D01*
Y288007D01*
X1242564Y310000D02*
X1235233D01*
X1231567Y306334D01*
Y291672D01*
X1235233Y288007D01*
X1242564D01*
X1246229Y291672D01*
Y306334D01*
X1242564Y310000D01*
X1253560Y288007D02*
Y310000D01*
X1264557D01*
X1268222Y306334D01*
Y299003D01*
X1264557Y295338D01*
X1253560D01*
X1312208Y306334D02*
X1308542Y310000D01*
X1301211D01*
X1297546Y306334D01*
Y302669D01*
X1301211Y299003D01*
X1308542D01*
X1312208Y295338D01*
Y291672D01*
X1308542Y288007D01*
X1301211D01*
X1297546Y291672D01*
X1319539Y310000D02*
X1326870D01*
X1323204D01*
Y288007D01*
X1319539D01*
X1326870D01*
X1337866Y310000D02*
Y288007D01*
X1348863D01*
X1352528Y291672D01*
Y306334D01*
X1348863Y310000D01*
X1337866D01*
X1374521D02*
X1359859D01*
Y288007D01*
X1374521D01*
X1359859Y299003D02*
X1367190D01*
X1414841Y310000D02*
X1407510D01*
X1403845Y306334D01*
Y291672D01*
X1407510Y288007D01*
X1414841D01*
X1418507Y291672D01*
Y306334D01*
X1414841Y310000D01*
X1440500D02*
X1425838D01*
Y299003D01*
X1433169D01*
X1425838D01*
Y288007D01*
X1469823Y310000D02*
X1484485D01*
X1477155D01*
Y288007D01*
X1491816Y310000D02*
Y288007D01*
Y299003D01*
X1506478D01*
Y310000D01*
Y288007D01*
X1528471Y310000D02*
X1513809D01*
Y288007D01*
X1528471D01*
X1513809Y299003D02*
X1521140D01*
X1557795Y310000D02*
Y288007D01*
X1568792D01*
X1572457Y291672D01*
Y295338D01*
X1568792Y299003D01*
X1557795D01*
X1568792D01*
X1572457Y302669D01*
Y306334D01*
X1568792Y310000D01*
X1557795D01*
X1590784D02*
X1583454D01*
X1579788Y306334D01*
Y291672D01*
X1583454Y288007D01*
X1590784D01*
X1594450Y291672D01*
Y306334D01*
X1590784Y310000D01*
X1601781Y288007D02*
Y302669D01*
X1609112Y310000D01*
X1616443Y302669D01*
Y288007D01*
Y299003D01*
X1601781D01*
X1623774Y288007D02*
Y310000D01*
X1634770D01*
X1638436Y306334D01*
Y299003D01*
X1634770Y295338D01*
X1623774D01*
X1631105D02*
X1638436Y288007D01*
X1645767Y310000D02*
Y288007D01*
X1656763D01*
X1660429Y291672D01*
Y306334D01*
X1656763Y310000D01*
X1645767D01*
X1667760Y288007D02*
Y291672D01*
X1671425D01*
Y288007D01*
X1667760D01*
X1708080Y310000D02*
X1722742D01*
X1715411D01*
Y288007D01*
X1730073Y310000D02*
Y288007D01*
Y299003D01*
X1744735D01*
Y310000D01*
Y288007D01*
X1766728Y310000D02*
X1752066D01*
Y288007D01*
X1766728D01*
X1752066Y299003D02*
X1759397D01*
X1774059Y288007D02*
Y310000D01*
X1785055D01*
X1788721Y306334D01*
Y299003D01*
X1785055Y295338D01*
X1774059D01*
X1781390D02*
X1788721Y288007D01*
X1810713Y310000D02*
X1796051D01*
Y288007D01*
X1810713D01*
X1796051Y299003D02*
X1803382D01*
X1854699Y306334D02*
X1851034Y310000D01*
X1843703D01*
X1840037Y306334D01*
Y302669D01*
X1843703Y299003D01*
X1851034D01*
X1854699Y295338D01*
Y291672D01*
X1851034Y288007D01*
X1843703D01*
X1840037Y291672D01*
X1862030Y310000D02*
Y288007D01*
Y299003D01*
X1876692D01*
Y310000D01*
Y288007D01*
X1884023D02*
Y302669D01*
X1891354Y310000D01*
X1898685Y302669D01*
Y288007D01*
Y299003D01*
X1884023D01*
X1906016Y310000D02*
Y288007D01*
X1920678D01*
X1928009Y310000D02*
Y288007D01*
X1942671D01*
X1971995Y310000D02*
Y288007D01*
X1982991D01*
X1986657Y291672D01*
Y295338D01*
X1982991Y299003D01*
X1971995D01*
X1982991D01*
X1986657Y302669D01*
Y306334D01*
X1982991Y310000D01*
X1971995D01*
X2008649D02*
X1993987D01*
Y288007D01*
X2008649D01*
X1993987Y299003D02*
X2001319D01*
X2037973Y288007D02*
Y310000D01*
X2052635Y288007D01*
Y310000D01*
X2070963D02*
X2063632D01*
X2059966Y306334D01*
Y291672D01*
X2063632Y288007D01*
X2070963D01*
X2074628Y291672D01*
Y306334D01*
X2070963Y310000D01*
X2103952D02*
Y288007D01*
X2118614D01*
X2140607Y310000D02*
X2125945D01*
Y288007D01*
X2140607D01*
X2125945Y299003D02*
X2133276D01*
X2162600Y306334D02*
X2158934Y310000D01*
X2151603D01*
X2147938Y306334D01*
Y291672D01*
X2151603Y288007D01*
X2158934D01*
X2162600Y291672D01*
Y299003D01*
X2155269D01*
X2184593Y310000D02*
X2169931D01*
Y288007D01*
X2184593D01*
X2169931Y299003D02*
X2177262D01*
X2191924Y288007D02*
Y310000D01*
X2206586Y288007D01*
Y310000D01*
X2213916D02*
Y288007D01*
X2224913D01*
X2228578Y291672D01*
Y306334D01*
X2224913Y310000D01*
X2213916D01*
X2268899D02*
X2261568D01*
X2257902Y306334D01*
Y291672D01*
X2261568Y288007D01*
X2268899D01*
X2272564Y291672D01*
Y306334D01*
X2268899Y310000D01*
X2279895Y288007D02*
Y310000D01*
X2294557Y288007D01*
Y310000D01*
X2323881Y288007D02*
Y302669D01*
X2331212Y310000D01*
X2338543Y302669D01*
Y288007D01*
Y299003D01*
X2323881D01*
X2345874Y288007D02*
Y310000D01*
X2360536Y288007D01*
Y310000D01*
X2367867D02*
Y306334D01*
X2375198Y299003D01*
X2382529Y306334D01*
Y310000D01*
X2375198Y299003D02*
Y288007D01*
X2426514Y306334D02*
X2422849Y310000D01*
X2415518D01*
X2411853Y306334D01*
Y302669D01*
X2415518Y299003D01*
X2422849D01*
X2426514Y295338D01*
Y291672D01*
X2422849Y288007D01*
X2415518D01*
X2411853Y291672D01*
X2444842Y310000D02*
X2437511D01*
X2433845Y306334D01*
Y291672D01*
X2437511Y288007D01*
X2444842D01*
X2448507Y291672D01*
Y306334D01*
X2444842Y310000D01*
X2455838D02*
Y288007D01*
X2470500D01*
X2477831Y310000D02*
Y288007D01*
X2488828D01*
X2492493Y291672D01*
Y306334D01*
X2488828Y310000D01*
X2477831D01*
X2514486D02*
X2499824D01*
Y288007D01*
X2514486D01*
X2499824Y299003D02*
X2507155D01*
X2521817Y288007D02*
Y310000D01*
X2532814D01*
X2536479Y306334D01*
Y299003D01*
X2532814Y295338D01*
X2521817D01*
X2529148D02*
X2536479Y288007D01*
X2543810D02*
Y302669D01*
X2551141Y310000D01*
X2558472Y302669D01*
Y288007D01*
Y299003D01*
X2543810D01*
X2565803Y310000D02*
Y288007D01*
X2576799D01*
X2580465Y291672D01*
Y295338D01*
X2576799Y299003D01*
X2565803D01*
X2576799D01*
X2580465Y302669D01*
Y306334D01*
X2576799Y310000D01*
X2565803D01*
X2587796D02*
Y288007D01*
X2602458D01*
X2624450Y310000D02*
X2609789D01*
Y288007D01*
X2624450D01*
X2609789Y299003D02*
X2617120D01*
X2668436Y306334D02*
X2664771Y310000D01*
X2657440D01*
X2653774Y306334D01*
Y291672D01*
X2657440Y288007D01*
X2664771D01*
X2668436Y291672D01*
X2686764Y310000D02*
X2679433D01*
X2675767Y306334D01*
Y291672D01*
X2679433Y288007D01*
X2686764D01*
X2690429Y291672D01*
Y306334D01*
X2686764Y310000D01*
X2697760Y288007D02*
Y310000D01*
X2705091Y302669D01*
X2712422Y310000D01*
Y288007D01*
X2719753D02*
Y310000D01*
X2730750D01*
X2734415Y306334D01*
Y299003D01*
X2730750Y295338D01*
X2719753D01*
X2752742Y310000D02*
X2745411D01*
X2741746Y306334D01*
Y291672D01*
X2745411Y288007D01*
X2752742D01*
X2756408Y291672D01*
Y306334D01*
X2752742Y310000D01*
X2763739Y288007D02*
Y310000D01*
X2778401Y288007D01*
Y310000D01*
X2800394D02*
X2785732D01*
Y288007D01*
X2800394D01*
X2785732Y299003D02*
X2793063D01*
X2807725Y288007D02*
Y310000D01*
X2822386Y288007D01*
Y310000D01*
X2829717D02*
X2844380D01*
X2837049D01*
Y288007D01*
X2873703Y310000D02*
Y288007D01*
X2888365D01*
X2895696D02*
Y302669D01*
X2903027Y310000D01*
X2910358Y302669D01*
Y288007D01*
Y299003D01*
X2895696D01*
X2917689Y288007D02*
Y310000D01*
X2932351Y288007D01*
Y310000D01*
X2939682D02*
Y288007D01*
X2950678D01*
X2954344Y291672D01*
Y306334D01*
X2950678Y310000D01*
X2939682D01*
X2961675Y288007D02*
Y291672D01*
X2965340D01*
Y288007D01*
X2961675D01*
X1070286Y245025D02*
X1062955Y241359D01*
X1055624Y234028D01*
Y226697D01*
X1059289Y223032D01*
X1066620D01*
X1070286Y226697D01*
Y230363D01*
X1066620Y234028D01*
X1055624D01*
X1077617Y223032D02*
Y226697D01*
X1081282D01*
Y223032D01*
X1077617D01*
X1117937D02*
Y237694D01*
X1125268Y245025D01*
X1132599Y237694D01*
Y223032D01*
Y234028D01*
X1117937D01*
X1139930Y245025D02*
Y223032D01*
X1154592D01*
X1161923Y245025D02*
Y223032D01*
X1176585D01*
X1205909D02*
Y237694D01*
X1213240Y245025D01*
X1220571Y237694D01*
Y223032D01*
Y234028D01*
X1205909D01*
X1242564Y241359D02*
X1238898Y245025D01*
X1231567D01*
X1227902Y241359D01*
Y237694D01*
X1231567Y234028D01*
X1238898D01*
X1242564Y230363D01*
Y226697D01*
X1238898Y223032D01*
X1231567D01*
X1227902Y226697D01*
X1264557Y241359D02*
X1260891Y245025D01*
X1253560D01*
X1249895Y241359D01*
Y237694D01*
X1253560Y234028D01*
X1260891D01*
X1264557Y230363D01*
Y226697D01*
X1260891Y223032D01*
X1253560D01*
X1249895Y226697D01*
X1286549Y245025D02*
X1271888D01*
Y223032D01*
X1286549D01*
X1271888Y234028D02*
X1279218D01*
X1293880Y223032D02*
Y245025D01*
X1301211Y237694D01*
X1308542Y245025D01*
Y223032D01*
X1315873Y245025D02*
Y223032D01*
X1326870D01*
X1330535Y226697D01*
Y230363D01*
X1326870Y234028D01*
X1315873D01*
X1326870D01*
X1330535Y237694D01*
Y241359D01*
X1326870Y245025D01*
X1315873D01*
X1337866D02*
Y223032D01*
X1352528D01*
X1359859Y245025D02*
Y241359D01*
X1367190Y234028D01*
X1374521Y241359D01*
Y245025D01*
X1367190Y234028D02*
Y223032D01*
X1403845D02*
Y245025D01*
X1411176Y237694D01*
X1418507Y245025D01*
Y223032D01*
X1425838D02*
Y237694D01*
X1433169Y245025D01*
X1440500Y237694D01*
Y223032D01*
Y234028D01*
X1425838D01*
X1447831Y245025D02*
X1462493D01*
X1455162D01*
Y223032D01*
X1484485Y245025D02*
X1469823D01*
Y223032D01*
X1484485D01*
X1469823Y234028D02*
X1477155D01*
X1491816Y223032D02*
Y245025D01*
X1502813D01*
X1506478Y241359D01*
Y234028D01*
X1502813Y230363D01*
X1491816D01*
X1499147D02*
X1506478Y223032D01*
X1513809Y245025D02*
X1521140D01*
X1517475D01*
Y223032D01*
X1513809D01*
X1521140D01*
X1532137D02*
Y237694D01*
X1539468Y245025D01*
X1546799Y237694D01*
Y223032D01*
Y234028D01*
X1532137D01*
X1554130Y245025D02*
Y223032D01*
X1568792D01*
X1590784Y241359D02*
X1587119Y245025D01*
X1579788D01*
X1576122Y241359D01*
Y237694D01*
X1579788Y234028D01*
X1587119D01*
X1590784Y230363D01*
Y226697D01*
X1587119Y223032D01*
X1579788D01*
X1576122Y226697D01*
X1620108Y245025D02*
X1634770D01*
X1627439D01*
Y223032D01*
X1653098Y245025D02*
X1645767D01*
X1642101Y241359D01*
Y226697D01*
X1645767Y223032D01*
X1653098D01*
X1656763Y226697D01*
Y241359D01*
X1653098Y245025D01*
X1686087D02*
Y223032D01*
X1697083D01*
X1700749Y226697D01*
Y230363D01*
X1697083Y234028D01*
X1686087D01*
X1697083D01*
X1700749Y237694D01*
Y241359D01*
X1697083Y245025D01*
X1686087D01*
X1722742D02*
X1708080D01*
Y223032D01*
X1722742D01*
X1708080Y234028D02*
X1715411D01*
X1752066Y223032D02*
Y245025D01*
X1763062D01*
X1766728Y241359D01*
Y234028D01*
X1763062Y230363D01*
X1752066D01*
X1759397D02*
X1766728Y223032D01*
X1777724D02*
X1785055D01*
X1788721Y226697D01*
Y234028D01*
X1785055Y237694D01*
X1777724D01*
X1774059Y234028D01*
Y226697D01*
X1777724Y223032D01*
X1796051Y245025D02*
Y223032D01*
Y234028D01*
X1810713D01*
Y245025D01*
Y223032D01*
X1832706Y241359D02*
X1829041Y245025D01*
X1821710D01*
X1818044Y241359D01*
Y237694D01*
X1821710Y234028D01*
X1829041D01*
X1832706Y230363D01*
Y226697D01*
X1829041Y223032D01*
X1821710D01*
X1818044Y226697D01*
X1876692Y241359D02*
X1873027Y245025D01*
X1865696D01*
X1862030Y241359D01*
Y226697D01*
X1865696Y223032D01*
X1873027D01*
X1876692Y226697D01*
X1895020Y245025D02*
X1887688D01*
X1884023Y241359D01*
Y226697D01*
X1887688Y223032D01*
X1895020D01*
X1898685Y226697D01*
Y241359D01*
X1895020Y245025D01*
X1906016Y223032D02*
Y245025D01*
X1913347Y237694D01*
X1920678Y245025D01*
Y223032D01*
X1928009D02*
Y245025D01*
X1939005D01*
X1942671Y241359D01*
Y234028D01*
X1939005Y230363D01*
X1928009D01*
X1950002Y245025D02*
Y223032D01*
X1964664D01*
X1971995Y245025D02*
X1979326D01*
X1975660D01*
Y223032D01*
X1971995D01*
X1979326D01*
X1990322D02*
Y237694D01*
X1997653Y245025D01*
X2004984Y237694D01*
Y223032D01*
Y234028D01*
X1990322D01*
X2012315Y223032D02*
Y245025D01*
X2026977Y223032D01*
Y245025D01*
X2034308D02*
X2048970D01*
X2041639D01*
Y223032D01*
X2056301D02*
Y226697D01*
X2059966D01*
Y223032D01*
X2056301D01*
X1055624Y176385D02*
X1070286D01*
Y172719D01*
X1055624Y158057D01*
Y154392D01*
X1077617D02*
Y158057D01*
X1081282D01*
Y154392D01*
X1077617D01*
X1117937Y176385D02*
X1132599D01*
X1125268D01*
Y154392D01*
X1139930Y176385D02*
Y154392D01*
Y165388D01*
X1154592D01*
Y176385D01*
Y154392D01*
X1161923Y176385D02*
X1169254D01*
X1165589D01*
Y154392D01*
X1161923D01*
X1169254D01*
X1194912Y172719D02*
X1191247Y176385D01*
X1183916D01*
X1180250Y172719D01*
Y169053D01*
X1183916Y165388D01*
X1191247D01*
X1194912Y161723D01*
Y158057D01*
X1191247Y154392D01*
X1183916D01*
X1180250Y158057D01*
X1224236Y176385D02*
X1231567D01*
X1227902D01*
Y154392D01*
X1224236D01*
X1231567D01*
X1257226Y172719D02*
X1253560Y176385D01*
X1246229D01*
X1242564Y172719D01*
Y169053D01*
X1246229Y165388D01*
X1253560D01*
X1257226Y161723D01*
Y158057D01*
X1253560Y154392D01*
X1246229D01*
X1242564Y158057D01*
X1286549Y154392D02*
Y169053D01*
X1293880Y176385D01*
X1301211Y169053D01*
Y154392D01*
Y165388D01*
X1286549D01*
X1330535Y154392D02*
Y176385D01*
X1345197Y154392D01*
Y176385D01*
X1363525D02*
X1356194D01*
X1352528Y172719D01*
Y158057D01*
X1356194Y154392D01*
X1363525D01*
X1367190Y158057D01*
Y172719D01*
X1363525Y176385D01*
X1374521Y154392D02*
Y176385D01*
X1389183Y154392D01*
Y176385D01*
X1396514Y165388D02*
X1411176D01*
X1418507Y176385D02*
Y154392D01*
X1425838Y161723D01*
X1433169Y154392D01*
Y176385D01*
X1440500Y154392D02*
Y169053D01*
X1447831Y176385D01*
X1455162Y169053D01*
Y154392D01*
Y165388D01*
X1440500D01*
X1477155Y172719D02*
X1473489Y176385D01*
X1466158D01*
X1462493Y172719D01*
Y169053D01*
X1466158Y165388D01*
X1473489D01*
X1477155Y161723D01*
Y158057D01*
X1473489Y154392D01*
X1466158D01*
X1462493Y158057D01*
X1484485Y176385D02*
Y154392D01*
Y165388D01*
X1499147D01*
Y176385D01*
Y154392D01*
X1506478D02*
Y169053D01*
X1513809Y176385D01*
X1521140Y169053D01*
Y154392D01*
Y165388D01*
X1506478D01*
X1528471Y176385D02*
Y154392D01*
X1539468D01*
X1543133Y158057D01*
Y161723D01*
X1539468Y165388D01*
X1528471D01*
X1539468D01*
X1543133Y169053D01*
Y172719D01*
X1539468Y176385D01*
X1528471D01*
X1550464D02*
Y154392D01*
X1565126D01*
X1587119Y176385D02*
X1572457D01*
Y154392D01*
X1587119D01*
X1572457Y165388D02*
X1579788D01*
X1616443Y154392D02*
Y169053D01*
X1623774Y176385D01*
X1631105Y169053D01*
Y154392D01*
Y165388D01*
X1616443D01*
X1653098Y172719D02*
X1649432Y176385D01*
X1642101D01*
X1638436Y172719D01*
Y169053D01*
X1642101Y165388D01*
X1649432D01*
X1653098Y161723D01*
Y158057D01*
X1649432Y154392D01*
X1642101D01*
X1638436Y158057D01*
X1675091Y172719D02*
X1671425Y176385D01*
X1664094D01*
X1660429Y172719D01*
Y169053D01*
X1664094Y165388D01*
X1671425D01*
X1675091Y161723D01*
Y158057D01*
X1671425Y154392D01*
X1664094D01*
X1660429Y158057D01*
X1697083Y176385D02*
X1682422D01*
Y154392D01*
X1697083D01*
X1682422Y165388D02*
X1689753D01*
X1704414Y154392D02*
Y176385D01*
X1711745Y169053D01*
X1719076Y176385D01*
Y154392D01*
X1726407Y176385D02*
Y154392D01*
X1737404D01*
X1741069Y158057D01*
Y161723D01*
X1737404Y165388D01*
X1726407D01*
X1737404D01*
X1741069Y169053D01*
Y172719D01*
X1737404Y176385D01*
X1726407D01*
X1748400D02*
Y154392D01*
X1763062D01*
X1770393Y176385D02*
Y172719D01*
X1777724Y165388D01*
X1785055Y172719D01*
Y176385D01*
X1777724Y165388D02*
Y154392D01*
X1792386Y161723D02*
Y180050D01*
Y158057D02*
Y154392D01*
X1055624Y107744D02*
X1059289Y111410D01*
X1066620D01*
X1070286Y107744D01*
Y104079D01*
X1066620Y100413D01*
X1070286Y96748D01*
Y93082D01*
X1066620Y89417D01*
X1059289D01*
X1055624Y93082D01*
Y96748D01*
X1059289Y100413D01*
X1055624Y104079D01*
Y107744D01*
X1059289Y100413D02*
X1066620D01*
X1077617Y89417D02*
Y93082D01*
X1081282D01*
Y89417D01*
X1077617D01*
X1117937D02*
Y104079D01*
X1125268Y111410D01*
X1132599Y104079D01*
Y89417D01*
Y100413D01*
X1117937D01*
X1139930Y89417D02*
Y111410D01*
X1154592Y89417D01*
Y111410D01*
X1161923D02*
Y107744D01*
X1169254Y100413D01*
X1176585Y107744D01*
Y111410D01*
X1169254Y100413D02*
Y89417D01*
X1205909Y111410D02*
Y89417D01*
X1220571D01*
X1227902D02*
Y104079D01*
X1235233Y111410D01*
X1242564Y104079D01*
Y89417D01*
Y100413D01*
X1227902D01*
X1249895Y111410D02*
Y89417D01*
X1260891D01*
X1264557Y93082D01*
Y96748D01*
X1260891Y100413D01*
X1249895D01*
X1260891D01*
X1264557Y104079D01*
Y107744D01*
X1260891Y111410D01*
X1249895D01*
X1286549D02*
X1271888D01*
Y89417D01*
X1286549D01*
X1271888Y100413D02*
X1279218D01*
X1293880Y111410D02*
Y89417D01*
X1308542D01*
X1330535Y107744D02*
X1326870Y111410D01*
X1319539D01*
X1315873Y107744D01*
Y104079D01*
X1319539Y100413D01*
X1326870D01*
X1330535Y96748D01*
Y93082D01*
X1326870Y89417D01*
X1319539D01*
X1315873Y93082D01*
X1370856Y111410D02*
X1363524D01*
X1359859Y107744D01*
Y93082D01*
X1363524Y89417D01*
X1370856D01*
X1374521Y93082D01*
Y107744D01*
X1370856Y111410D01*
X1381852Y89417D02*
Y111410D01*
X1392848D01*
X1396514Y107744D01*
Y100413D01*
X1392848Y96748D01*
X1381852D01*
X1389183D02*
X1396514Y89417D01*
X1440500Y107744D02*
X1436834Y111410D01*
X1429503D01*
X1425838Y107744D01*
Y93082D01*
X1429503Y89417D01*
X1436834D01*
X1440500Y93082D01*
X1458827Y111410D02*
X1451496D01*
X1447831Y107744D01*
Y93082D01*
X1451496Y89417D01*
X1458827D01*
X1462493Y93082D01*
Y107744D01*
X1458827Y111410D01*
X1469823Y89417D02*
Y111410D01*
X1477155Y104079D01*
X1484485Y111410D01*
Y89417D01*
X1491816D02*
Y111410D01*
X1502813D01*
X1506478Y107744D01*
Y100413D01*
X1502813Y96748D01*
X1491816D01*
X1524806Y111410D02*
X1517475D01*
X1513809Y107744D01*
Y93082D01*
X1517475Y89417D01*
X1524806D01*
X1528471Y93082D01*
Y107744D01*
X1524806Y111410D01*
X1550464Y107744D02*
X1546799Y111410D01*
X1539468D01*
X1535802Y107744D01*
Y104079D01*
X1539468Y100413D01*
X1546799D01*
X1550464Y96748D01*
Y93082D01*
X1546799Y89417D01*
X1539468D01*
X1535802Y93082D01*
X1557795Y111410D02*
X1565126D01*
X1561461D01*
Y89417D01*
X1557795D01*
X1565126D01*
X1576122Y111410D02*
X1590784D01*
X1583454D01*
Y89417D01*
X1598115Y111410D02*
X1605446D01*
X1601781D01*
Y89417D01*
X1598115D01*
X1605446D01*
X1627439Y111410D02*
X1620108D01*
X1616443Y107744D01*
Y93082D01*
X1620108Y89417D01*
X1627439D01*
X1631105Y93082D01*
Y107744D01*
X1627439Y111410D01*
X1638436Y89417D02*
Y111410D01*
X1653098Y89417D01*
Y111410D01*
X1693418D02*
X1686087D01*
X1682422Y107744D01*
Y93082D01*
X1686087Y89417D01*
X1693418D01*
X1697083Y93082D01*
Y107744D01*
X1693418Y111410D01*
X1719076D02*
X1704414D01*
Y100413D01*
X1711745D01*
X1704414D01*
Y89417D01*
X1730073Y85751D02*
X1733738Y89417D01*
Y93082D01*
X1730073D01*
Y89417D01*
X1733738D01*
X1730073Y85751D01*
X1726407Y82086D01*
X1770393Y89417D02*
Y104079D01*
X1777724Y111410D01*
X1785055Y104079D01*
Y89417D01*
Y100413D01*
X1770393D01*
X1792386Y89417D02*
Y111410D01*
X1803382D01*
X1807048Y107744D01*
Y100413D01*
X1803382Y96748D01*
X1792386D01*
X1814379Y89417D02*
Y111410D01*
X1825375D01*
X1829041Y107744D01*
Y100413D01*
X1825375Y96748D01*
X1814379D01*
X1836372Y111410D02*
Y89417D01*
X1851034D01*
X1858365Y111410D02*
X1865696D01*
X1862030D01*
Y89417D01*
X1858365D01*
X1865696D01*
X1891354Y111410D02*
X1876692D01*
Y89417D01*
X1891354D01*
X1876692Y100413D02*
X1884023D01*
X1898685Y111410D02*
Y89417D01*
X1909681D01*
X1913347Y93082D01*
Y107744D01*
X1909681Y111410D01*
X1898685D01*
X1942671D02*
X1957333D01*
X1950002D01*
Y89417D01*
X1975660Y111410D02*
X1968329D01*
X1964664Y107744D01*
Y93082D01*
X1968329Y89417D01*
X1975660D01*
X1979326Y93082D01*
Y107744D01*
X1975660Y111410D01*
X2008649D02*
X2023311D01*
X2015980D01*
Y89417D01*
X2030642Y111410D02*
Y89417D01*
Y100413D01*
X2045304D01*
Y111410D01*
Y89417D01*
X2067297Y111410D02*
X2052635D01*
Y89417D01*
X2067297D01*
X2052635Y100413D02*
X2059966D01*
X2096621Y111410D02*
Y89417D01*
X2107617D01*
X2111283Y93082D01*
Y96748D01*
X2107617Y100413D01*
X2096621D01*
X2107617D01*
X2111283Y104079D01*
Y107744D01*
X2107617Y111410D01*
X2096621D01*
X2129610D02*
X2122279D01*
X2118614Y107744D01*
Y93082D01*
X2122279Y89417D01*
X2129610D01*
X2133276Y93082D01*
Y107744D01*
X2129610Y111410D01*
X2140607Y89417D02*
Y104079D01*
X2147938Y111410D01*
X2155269Y104079D01*
Y89417D01*
Y100413D01*
X2140607D01*
X2162600Y89417D02*
Y111410D01*
X2173596D01*
X2177262Y107744D01*
Y100413D01*
X2173596Y96748D01*
X2162600D01*
X2169931D02*
X2177262Y89417D01*
X2184593Y111410D02*
Y89417D01*
X2195589D01*
X2199255Y93082D01*
Y107744D01*
X2195589Y111410D01*
X2184593D01*
X2228578Y89417D02*
Y111410D01*
X2243240Y89417D01*
Y111410D01*
X2265233D02*
X2250571D01*
Y89417D01*
X2265233D01*
X2250571Y100413D02*
X2257902D01*
X2287226Y111410D02*
X2272564D01*
Y89417D01*
X2287226D01*
X2272564Y100413D02*
X2279895D01*
X2294557Y111410D02*
Y89417D01*
X2305554D01*
X2309219Y93082D01*
Y107744D01*
X2305554Y111410D01*
X2294557D01*
X2338543D02*
X2353205D01*
X2345874D01*
Y89417D01*
X2371532Y111410D02*
X2364201D01*
X2360536Y107744D01*
Y93082D01*
X2364201Y89417D01*
X2371532D01*
X2375198Y93082D01*
Y107744D01*
X2371532Y111410D01*
X2404522D02*
Y89417D01*
X2415518D01*
X2419184Y93082D01*
Y96748D01*
X2415518Y100413D01*
X2404522D01*
X2415518D01*
X2419184Y104079D01*
Y107744D01*
X2415518Y111410D01*
X2404522D01*
X2441176D02*
X2426514D01*
Y89417D01*
X2441176D01*
X2426514Y100413D02*
X2433845D01*
X2470500Y89417D02*
Y104079D01*
X2477831Y111410D01*
X2485162Y104079D01*
Y89417D01*
Y100413D01*
X2470500D01*
X2492493Y89417D02*
Y111410D01*
X2503490D01*
X2507155Y107744D01*
Y100413D01*
X2503490Y96748D01*
X2492493D01*
X2514486Y89417D02*
Y111410D01*
X2525482D01*
X2529148Y107744D01*
Y100413D01*
X2525482Y96748D01*
X2514486D01*
X2536479Y89417D02*
Y111410D01*
X2547475D01*
X2551141Y107744D01*
Y100413D01*
X2547475Y96748D01*
X2536479D01*
X2543810D02*
X2551141Y89417D01*
X2569468Y111410D02*
X2562137D01*
X2558472Y107744D01*
Y93082D01*
X2562137Y89417D01*
X2569468D01*
X2573134Y93082D01*
Y107744D01*
X2569468Y111410D01*
X2580465D02*
Y96748D01*
X2587796Y89417D01*
X2595127Y96748D01*
Y111410D01*
X2602458D02*
X2609789D01*
X2606123D01*
Y89417D01*
X2602458D01*
X2609789D01*
X2635447Y111410D02*
X2620785D01*
Y89417D01*
X2635447D01*
X2620785Y100413D02*
X2628116D01*
X2642778Y111410D02*
Y89417D01*
X2653774D01*
X2657440Y93082D01*
Y107744D01*
X2653774Y111410D01*
X2642778D01*
X2686764D02*
Y89417D01*
X2697760D01*
X2701426Y93082D01*
Y96748D01*
X2697760Y100413D01*
X2686764D01*
X2697760D01*
X2701426Y104079D01*
Y107744D01*
X2697760Y111410D01*
X2686764D01*
X2708757D02*
Y107744D01*
X2716088Y100413D01*
X2723419Y107744D01*
Y111410D01*
X2716088Y100413D02*
Y89417D01*
X2752742D02*
Y104079D01*
X2760074Y111410D01*
X2767404Y104079D01*
Y89417D01*
Y100413D01*
X2752742D01*
X2774735Y111410D02*
X2782066D01*
X2778401D01*
Y89417D01*
X2774735D01*
X2782066D01*
X2793063D02*
Y111410D01*
X2804059D01*
X2807725Y107744D01*
Y100413D01*
X2804059Y96748D01*
X2793063D01*
X2800394D02*
X2807725Y89417D01*
X2815056Y111410D02*
X2829718D01*
Y107744D01*
X2815056Y93082D01*
Y89417D01*
X2829718D01*
X2837049D02*
Y104079D01*
X2844380Y111410D01*
X2851711Y104079D01*
Y89417D01*
Y100413D01*
X2837049D01*
X2859041Y111410D02*
X2866372D01*
X2862707D01*
Y89417D01*
X2859041D01*
X2866372D01*
X1055624Y24442D02*
X1062955D01*
X1059289D01*
Y46435D01*
X1055624Y42769D01*
X1084948Y24442D02*
Y46435D01*
X1073951Y35438D01*
X1088613D01*
X1095944Y24442D02*
Y28107D01*
X1099610D01*
Y24442D01*
X1095944D01*
X1136265D02*
Y46435D01*
X1143596Y39104D01*
X1150927Y46435D01*
Y24442D01*
X1158258Y46435D02*
X1165589D01*
X1161923D01*
Y24442D01*
X1158258D01*
X1165589D01*
X1176585D02*
Y46435D01*
X1191247Y24442D01*
Y46435D01*
X1198578D02*
X1205909D01*
X1202243D01*
Y24442D01*
X1198578D01*
X1205909D01*
X1216905D02*
Y46435D01*
X1224236Y39104D01*
X1231567Y46435D01*
Y24442D01*
X1238898Y46435D02*
Y28107D01*
X1242564Y24442D01*
X1249895D01*
X1253560Y28107D01*
Y46435D01*
X1260891Y24442D02*
Y46435D01*
X1268222Y39104D01*
X1275553Y46435D01*
Y24442D01*
X1304877Y46435D02*
X1319539D01*
X1312208D01*
Y24442D01*
X1326870D02*
Y46435D01*
X1337866D01*
X1341532Y42769D01*
Y35438D01*
X1337866Y31773D01*
X1326870D01*
X1334201D02*
X1341532Y24442D01*
X1348863D02*
Y39104D01*
X1356194Y46435D01*
X1363525Y39104D01*
Y24442D01*
Y35438D01*
X1348863D01*
X1385517Y42769D02*
X1381852Y46435D01*
X1374521D01*
X1370856Y42769D01*
Y28107D01*
X1374521Y24442D01*
X1381852D01*
X1385517Y28107D01*
X1407510Y46435D02*
X1392848D01*
Y24442D01*
X1407510D01*
X1392848Y35438D02*
X1400179D01*
X1436834Y46435D02*
Y24442D01*
X1444165Y31773D01*
X1451496Y24442D01*
Y46435D01*
X1458827D02*
X1466158D01*
X1462493D01*
Y24442D01*
X1458827D01*
X1466158D01*
X1477155Y46435D02*
Y24442D01*
X1488151D01*
X1491816Y28107D01*
Y42769D01*
X1488151Y46435D01*
X1477155D01*
X1499147D02*
X1513809D01*
X1506478D01*
Y24442D01*
X1521140Y46435D02*
Y24442D01*
Y35438D01*
X1535802D01*
Y46435D01*
Y24442D01*
X1557795Y42769D02*
X1554130Y46435D01*
X1546799D01*
X1543133Y42769D01*
Y39104D01*
X1546799Y35438D01*
X1554130D01*
X1557795Y31773D01*
Y28107D01*
X1554130Y24442D01*
X1546799D01*
X1543133Y28107D01*
X1565126Y39104D02*
X1568792D01*
Y35438D01*
X1565126D01*
Y39104D01*
Y28107D02*
X1568792D01*
Y24442D01*
X1565126D01*
Y28107D01*
X1290215Y13947D02*
X1275553D01*
Y-8046D01*
X1290215D01*
X1275553Y2951D02*
X1282884D01*
X1297546Y13947D02*
X1312208Y-8046D01*
Y13947D02*
X1297546Y-8046D01*
X1319539Y13947D02*
X1334201D01*
X1326870D01*
Y-8046D01*
X1356194Y13947D02*
X1341532D01*
Y-8046D01*
X1356194D01*
X1341532Y2951D02*
X1348863D01*
X1363524Y-8046D02*
Y13947D01*
X1374521D01*
X1378186Y10282D01*
Y2951D01*
X1374521Y-715D01*
X1363524D01*
X1370856D02*
X1378186Y-8046D01*
X1385517D02*
Y13947D01*
X1400179Y-8046D01*
Y13947D01*
X1407510Y-8046D02*
Y6616D01*
X1414841Y13947D01*
X1422172Y6616D01*
Y-8046D01*
Y2951D01*
X1407510D01*
X1429503Y13947D02*
Y-8046D01*
X1444165D01*
X1451496Y6616D02*
X1455162D01*
Y2951D01*
X1451496D01*
Y6616D01*
Y-4380D02*
X1455162D01*
Y-8046D01*
X1451496D01*
Y-4380D01*
X1491816Y10282D02*
X1495482Y13947D01*
X1502813D01*
X1506478Y10282D01*
Y-4380D01*
X1502813Y-8046D01*
X1495482D01*
X1491816Y-4380D01*
Y10282D01*
X1513809Y-8046D02*
Y-4380D01*
X1517475D01*
Y-8046D01*
X1513809D01*
X1532137D02*
X1539468D01*
X1535802D01*
Y13947D01*
X1532137Y10282D01*
X1550464Y13947D02*
X1565126D01*
Y10282D01*
X1550464Y-4380D01*
Y-8046D01*
X1572457Y10282D02*
X1576122Y13947D01*
X1583454D01*
X1587119Y10282D01*
Y6616D01*
X1583454Y2951D01*
X1587119Y-715D01*
Y-4380D01*
X1583454Y-8046D01*
X1576122D01*
X1572457Y-4380D01*
Y-715D01*
X1576122Y2951D01*
X1572457Y6616D01*
Y10282D01*
X1576122Y2951D02*
X1583454D01*
X1616443Y-8046D02*
Y6616D01*
X1620108D01*
X1623774Y2951D01*
Y-8046D01*
Y2951D01*
X1627439Y6616D01*
X1631105Y2951D01*
Y-8046D01*
X1638436D02*
Y6616D01*
X1642101D01*
X1645767Y2951D01*
Y-8046D01*
Y2951D01*
X1649432Y6616D01*
X1653098Y2951D01*
Y-8046D01*
X1704414Y13947D02*
X1711745D01*
X1708080D01*
Y-8046D01*
X1704414D01*
X1711745D01*
X1722742D02*
Y13947D01*
X1737404Y-8046D01*
Y13947D01*
X1744735D02*
X1759397D01*
X1752066D01*
Y-8046D01*
X1781390Y13947D02*
X1766728D01*
Y-8046D01*
X1781390D01*
X1766728Y2951D02*
X1774059D01*
X1788721Y-8046D02*
Y13947D01*
X1799717D01*
X1803382Y10282D01*
Y2951D01*
X1799717Y-715D01*
X1788721D01*
X1796051D02*
X1803382Y-8046D01*
X1810713D02*
Y13947D01*
X1825375Y-8046D01*
Y13947D01*
X1832706Y-8046D02*
Y6616D01*
X1840037Y13947D01*
X1847368Y6616D01*
Y-8046D01*
Y2951D01*
X1832706D01*
X1854699Y13947D02*
Y-8046D01*
X1869361D01*
X1876692Y6616D02*
X1880358D01*
Y2951D01*
X1876692D01*
Y6616D01*
Y-4380D02*
X1880358D01*
Y-8046D01*
X1876692D01*
Y-4380D01*
X1917012Y-8046D02*
Y13947D01*
X1931674Y-8046D01*
Y13947D01*
X1939005Y-8046D02*
X1953667Y6616D01*
X1960998Y-8046D02*
Y6616D01*
X1968329Y13947D01*
X1975660Y6616D01*
Y-8046D01*
Y2951D01*
X1960998D01*
X1055624Y-73021D02*
X1062955D01*
X1059289D01*
Y-51028D01*
X1055624Y-54693D01*
X1088613Y-51028D02*
X1073951D01*
Y-62024D01*
X1081282Y-58359D01*
X1084948D01*
X1088613Y-62024D01*
Y-69355D01*
X1084948Y-73021D01*
X1077617D01*
X1073951Y-69355D01*
X1095944Y-73021D02*
Y-69355D01*
X1099610D01*
Y-73021D01*
X1095944D01*
X1136265D02*
Y-51028D01*
X1143596Y-58359D01*
X1150927Y-51028D01*
Y-73021D01*
X1158258Y-51028D02*
X1165589D01*
X1161923D01*
Y-73021D01*
X1158258D01*
X1165589D01*
X1176585D02*
Y-51028D01*
X1191247Y-73021D01*
Y-51028D01*
X1198578D02*
X1205909D01*
X1202243D01*
Y-73021D01*
X1198578D01*
X1205909D01*
X1216905D02*
Y-51028D01*
X1224236Y-58359D01*
X1231567Y-51028D01*
Y-73021D01*
X1238898Y-51028D02*
Y-69355D01*
X1242564Y-73021D01*
X1249895D01*
X1253560Y-69355D01*
Y-51028D01*
X1260891Y-73021D02*
Y-51028D01*
X1268222Y-58359D01*
X1275553Y-51028D01*
Y-73021D01*
X1319539Y-54693D02*
X1315873Y-51028D01*
X1308542D01*
X1304877Y-54693D01*
Y-58359D01*
X1308542Y-62024D01*
X1315873D01*
X1319539Y-65690D01*
Y-69355D01*
X1315873Y-73021D01*
X1308542D01*
X1304877Y-69355D01*
X1326870Y-73021D02*
Y-51028D01*
X1337866D01*
X1341532Y-54693D01*
Y-62024D01*
X1337866Y-65690D01*
X1326870D01*
X1348863Y-73021D02*
Y-58359D01*
X1356194Y-51028D01*
X1363525Y-58359D01*
Y-73021D01*
Y-62024D01*
X1348863D01*
X1385517Y-54693D02*
X1381852Y-51028D01*
X1374521D01*
X1370856Y-54693D01*
Y-69355D01*
X1374521Y-73021D01*
X1381852D01*
X1385517Y-69355D01*
X1407510Y-51028D02*
X1392848D01*
Y-73021D01*
X1407510D01*
X1392848Y-62024D02*
X1400179D01*
X1436834Y-51028D02*
Y-73021D01*
X1447831D01*
X1451496Y-69355D01*
Y-65690D01*
X1447831Y-62024D01*
X1436834D01*
X1447831D01*
X1451496Y-58359D01*
Y-54693D01*
X1447831Y-51028D01*
X1436834D01*
X1473489D02*
X1458827D01*
Y-73021D01*
X1473489D01*
X1458827Y-62024D02*
X1466158D01*
X1480820Y-51028D02*
X1495482D01*
X1488151D01*
Y-73021D01*
X1502813Y-51028D02*
Y-73021D01*
X1510144Y-65690D01*
X1517475Y-73021D01*
Y-51028D01*
X1539468D02*
X1524806D01*
Y-73021D01*
X1539468D01*
X1524806Y-62024D02*
X1532137D01*
X1561461Y-51028D02*
X1546799D01*
Y-73021D01*
X1561461D01*
X1546799Y-62024D02*
X1554130D01*
X1568792Y-73021D02*
Y-51028D01*
X1583454Y-73021D01*
Y-51028D01*
X1627439D02*
X1612777D01*
Y-62024D01*
X1620108D01*
X1612777D01*
Y-73021D01*
X1649432Y-51028D02*
X1634770D01*
Y-73021D01*
X1649432D01*
X1634770Y-62024D02*
X1642101D01*
X1656763Y-73021D02*
Y-58359D01*
X1664094Y-51028D01*
X1671425Y-58359D01*
Y-73021D01*
Y-62024D01*
X1656763D01*
X1678756Y-51028D02*
X1693418D01*
X1686087D01*
Y-73021D01*
X1700749Y-51028D02*
Y-69355D01*
X1704414Y-73021D01*
X1711745D01*
X1715411Y-69355D01*
Y-51028D01*
X1722742Y-73021D02*
Y-51028D01*
X1733738D01*
X1737404Y-54693D01*
Y-62024D01*
X1733738Y-65690D01*
X1722742D01*
X1730073D02*
X1737404Y-73021D01*
X1759397Y-51028D02*
X1744735D01*
Y-73021D01*
X1759397D01*
X1744735Y-62024D02*
X1752066D01*
X1781390Y-54693D02*
X1777724Y-51028D01*
X1770393D01*
X1766728Y-54693D01*
Y-58359D01*
X1770393Y-62024D01*
X1777724D01*
X1781390Y-65690D01*
Y-69355D01*
X1777724Y-73021D01*
X1770393D01*
X1766728Y-69355D01*
X1788721Y-58359D02*
X1792386D01*
Y-62024D01*
X1788721D01*
Y-58359D01*
Y-69355D02*
X1792386D01*
Y-73021D01*
X1788721D01*
Y-69355D01*
X1268222Y-83515D02*
X1253560D01*
Y-105508D01*
X1268222D01*
X1253560Y-94512D02*
X1260891D01*
X1275553Y-83515D02*
X1290215Y-105508D01*
Y-83515D02*
X1275553Y-105508D01*
X1297546Y-83515D02*
X1312208D01*
X1304877D01*
Y-105508D01*
X1334201Y-83515D02*
X1319539D01*
Y-105508D01*
X1334201D01*
X1319539Y-94512D02*
X1326870D01*
X1341532Y-105508D02*
Y-83515D01*
X1352528D01*
X1356194Y-87181D01*
Y-94512D01*
X1352528Y-98177D01*
X1341532D01*
X1348863D02*
X1356194Y-105508D01*
X1363524D02*
Y-83515D01*
X1378186Y-105508D01*
Y-83515D01*
X1385517Y-105508D02*
Y-90846D01*
X1392848Y-83515D01*
X1400179Y-90846D01*
Y-105508D01*
Y-94512D01*
X1385517D01*
X1407510Y-83515D02*
Y-105508D01*
X1422172D01*
X1429503Y-90846D02*
X1433169D01*
Y-94512D01*
X1429503D01*
Y-90846D01*
Y-101843D02*
X1433169D01*
Y-105508D01*
X1429503D01*
Y-101843D01*
X1469823Y-87181D02*
X1473489Y-83515D01*
X1480820D01*
X1484485Y-87181D01*
Y-101843D01*
X1480820Y-105508D01*
X1473489D01*
X1469823Y-101843D01*
Y-87181D01*
X1491816Y-105508D02*
Y-101843D01*
X1495482D01*
Y-105508D01*
X1491816D01*
X1510144D02*
X1517475D01*
X1513809D01*
Y-83515D01*
X1510144Y-87181D01*
X1539468Y-105508D02*
Y-83515D01*
X1528471Y-94512D01*
X1543133D01*
X1550464Y-87181D02*
X1554130Y-83515D01*
X1561461D01*
X1565126Y-87181D01*
Y-90846D01*
X1561461Y-94512D01*
X1565126Y-98177D01*
Y-101843D01*
X1561461Y-105508D01*
X1554130D01*
X1550464Y-101843D01*
Y-98177D01*
X1554130Y-94512D01*
X1550464Y-90846D01*
Y-87181D01*
X1554130Y-94512D02*
X1561461D01*
X1594450Y-105508D02*
Y-90846D01*
X1598115D01*
X1601781Y-94512D01*
Y-105508D01*
Y-94512D01*
X1605446Y-90846D01*
X1609112Y-94512D01*
Y-105508D01*
X1616443D02*
Y-90846D01*
X1620108D01*
X1623774Y-94512D01*
Y-105508D01*
Y-94512D01*
X1627439Y-90846D01*
X1631105Y-94512D01*
Y-105508D01*
X1682422Y-83515D02*
X1689753D01*
X1686087D01*
Y-105508D01*
X1682422D01*
X1689753D01*
X1700749D02*
Y-83515D01*
X1715411Y-105508D01*
Y-83515D01*
X1722742D02*
X1737404D01*
X1730073D01*
Y-105508D01*
X1759397Y-83515D02*
X1744735D01*
Y-105508D01*
X1759397D01*
X1744735Y-94512D02*
X1752066D01*
X1766728Y-105508D02*
Y-83515D01*
X1777724D01*
X1781390Y-87181D01*
Y-94512D01*
X1777724Y-98177D01*
X1766728D01*
X1774059D02*
X1781390Y-105508D01*
X1788721D02*
Y-83515D01*
X1803382Y-105508D01*
Y-83515D01*
X1810713Y-105508D02*
Y-90846D01*
X1818044Y-83515D01*
X1825375Y-90846D01*
Y-105508D01*
Y-94512D01*
X1810713D01*
X1832706Y-83515D02*
Y-105508D01*
X1847368D01*
X1854699Y-90846D02*
X1858365D01*
Y-94512D01*
X1854699D01*
Y-90846D01*
Y-101843D02*
X1858365D01*
Y-105508D01*
X1854699D01*
Y-101843D01*
X1895020Y-105508D02*
Y-83515D01*
X1909681Y-105508D01*
Y-83515D01*
X1917012Y-105508D02*
X1931674Y-90846D01*
X1939005Y-105508D02*
Y-90846D01*
X1946336Y-83515D01*
X1953667Y-90846D01*
Y-105508D01*
Y-94512D01*
X1939005D01*
X1055624Y-170483D02*
X1062955D01*
X1059289D01*
Y-148490D01*
X1055624Y-152156D01*
X1088613Y-148490D02*
X1081282Y-152156D01*
X1073951Y-159487D01*
Y-166818D01*
X1077617Y-170483D01*
X1084948D01*
X1088613Y-166818D01*
Y-163152D01*
X1084948Y-159487D01*
X1073951D01*
X1095944Y-170483D02*
Y-166818D01*
X1099610D01*
Y-170483D01*
X1095944D01*
X1147261Y-148490D02*
X1139930D01*
X1136265Y-152156D01*
Y-166818D01*
X1139930Y-170483D01*
X1147261D01*
X1150927Y-166818D01*
Y-152156D01*
X1147261Y-148490D01*
X1158258Y-155821D02*
X1165589Y-170483D01*
X1172919Y-155821D01*
X1191247Y-170483D02*
X1183916D01*
X1180250Y-166818D01*
Y-159487D01*
X1183916Y-155821D01*
X1191247D01*
X1194912Y-159487D01*
Y-163152D01*
X1180250D01*
X1202243Y-155821D02*
Y-170483D01*
Y-163152D01*
X1205909Y-159487D01*
X1209574Y-155821D01*
X1213240D01*
X1227902D02*
X1235233D01*
X1238898Y-159487D01*
Y-170483D01*
X1227902D01*
X1224236Y-166818D01*
X1227902Y-163152D01*
X1238898D01*
X1246229Y-170483D02*
X1253560D01*
X1249895D01*
Y-148490D01*
X1246229D01*
X1264557Y-170483D02*
X1271888D01*
X1268222D01*
Y-148490D01*
X1264557D01*
X1304877D02*
Y-170483D01*
X1315873D01*
X1319539Y-166818D01*
Y-163152D01*
X1315873Y-159487D01*
X1304877D01*
X1315873D01*
X1319539Y-155821D01*
Y-152156D01*
X1315873Y-148490D01*
X1304877D01*
X1330535Y-170483D02*
X1337866D01*
X1341532Y-166818D01*
Y-159487D01*
X1337866Y-155821D01*
X1330535D01*
X1326870Y-159487D01*
Y-166818D01*
X1330535Y-170483D01*
X1352528Y-155821D02*
X1359859D01*
X1363525Y-159487D01*
Y-170483D01*
X1352528D01*
X1348863Y-166818D01*
X1352528Y-163152D01*
X1363525D01*
X1370856Y-155821D02*
Y-170483D01*
Y-163152D01*
X1374521Y-159487D01*
X1378186Y-155821D01*
X1381852D01*
X1407510Y-148490D02*
Y-170483D01*
X1396514D01*
X1392848Y-166818D01*
Y-159487D01*
X1396514Y-155821D01*
X1407510D01*
X1436834Y-148490D02*
X1451496D01*
X1444165D01*
Y-170483D01*
X1458827Y-148490D02*
Y-170483D01*
Y-159487D01*
X1462493Y-155821D01*
X1469824D01*
X1473489Y-159487D01*
Y-170483D01*
X1480820D02*
X1488151D01*
X1484485D01*
Y-155821D01*
X1480820D01*
X1513809D02*
X1502813D01*
X1499147Y-159487D01*
Y-166818D01*
X1502813Y-170483D01*
X1513809D01*
X1521140D02*
Y-148490D01*
Y-163152D02*
X1532137Y-155821D01*
X1521140Y-163152D02*
X1532137Y-170483D01*
X1543133D02*
Y-155821D01*
X1554130D01*
X1557795Y-159487D01*
Y-170483D01*
X1576123D02*
X1568792D01*
X1565126Y-166818D01*
Y-159487D01*
X1568792Y-155821D01*
X1576123D01*
X1579788Y-159487D01*
Y-163152D01*
X1565126D01*
X1587119Y-170483D02*
X1598115D01*
X1601781Y-166818D01*
X1598115Y-163152D01*
X1590784D01*
X1587119Y-159487D01*
X1590784Y-155821D01*
X1601781D01*
X1609112Y-170483D02*
X1620108D01*
X1623774Y-166818D01*
X1620108Y-163152D01*
X1612777D01*
X1609112Y-159487D01*
X1612777Y-155821D01*
X1623774D01*
X1631105D02*
X1634770D01*
Y-159487D01*
X1631105D01*
Y-155821D01*
Y-166818D02*
X1634770D01*
Y-170483D01*
X1631105D01*
Y-166818D01*
X1671425Y-152156D02*
X1675091Y-148490D01*
X1682422D01*
X1686087Y-152156D01*
Y-155821D01*
X1682422Y-159487D01*
X1678756D01*
X1682422D01*
X1686087Y-163152D01*
Y-166818D01*
X1682422Y-170483D01*
X1675091D01*
X1671425Y-166818D01*
X1693418Y-170483D02*
X1700749D01*
X1697083D01*
Y-148490D01*
X1693418Y-152156D01*
X1733738Y-170483D02*
Y-155821D01*
X1737404D01*
X1741069Y-159487D01*
Y-170483D01*
Y-159487D01*
X1744735Y-155821D01*
X1748400Y-159487D01*
Y-170483D01*
X1755731D02*
X1763062D01*
X1759397D01*
Y-155821D01*
X1755731D01*
X1774059Y-170483D02*
X1781390D01*
X1777724D01*
Y-148490D01*
X1774059D01*
X1792386Y-170483D02*
X1803383D01*
X1807048Y-166818D01*
X1803383Y-163152D01*
X1796051D01*
X1792386Y-159487D01*
X1796051Y-155821D01*
X1807048D01*
X2264560Y-1178500D02*
Y-1146011D01*
X2280805D01*
X2286220Y-1151425D01*
Y-1162255D01*
X2280805Y-1167670D01*
X2264560D01*
X2297050Y-1146011D02*
Y-1178500D01*
X2307879Y-1167670D01*
X2318709Y-1178500D01*
Y-1146011D01*
X2329539Y-1178500D02*
Y-1156840D01*
X2340369Y-1146011D01*
X2351199Y-1156840D01*
Y-1178500D01*
Y-1162255D01*
X2329539D01*
X2362029D02*
X2383688D01*
X2394518Y-1178500D02*
X2405348D01*
X2399933D01*
Y-1146011D01*
X2394518Y-1151425D01*
X2421593D02*
X2427007Y-1146011D01*
X2437837D01*
X2443252Y-1151425D01*
Y-1173085D01*
X2437837Y-1178500D01*
X2427007D01*
X2421593Y-1173085D01*
Y-1151425D01*
X2454082D02*
X2459497Y-1146011D01*
X2470327D01*
X2475742Y-1151425D01*
Y-1156840D01*
X2470327Y-1162255D01*
X2464912D01*
X2470327D01*
X2475742Y-1167670D01*
Y-1173085D01*
X2470327Y-1178500D01*
X2459497D01*
X2454082Y-1173085D01*
X2486572Y-1151425D02*
X2491987Y-1146011D01*
X2502816D01*
X2508231Y-1151425D01*
Y-1173085D01*
X2502816Y-1178500D01*
X2491987D01*
X2486572Y-1173085D01*
Y-1151425D01*
X2519061Y-1178500D02*
X2529891D01*
X2524476D01*
Y-1146011D01*
X2519061Y-1151425D01*
X2546136Y-1146011D02*
X2567795D01*
Y-1151425D01*
X2546136Y-1173085D01*
Y-1178500D01*
X2578625Y-1162255D02*
X2600285D01*
X2611115Y-1151425D02*
X2616530Y-1146011D01*
X2627359D01*
X2632774Y-1151425D01*
Y-1173085D01*
X2627359Y-1178500D01*
X2616530D01*
X2611115Y-1173085D01*
Y-1151425D01*
X2643604D02*
X2649019Y-1146011D01*
X2659849D01*
X2665264Y-1151425D01*
Y-1173085D01*
X2659849Y-1178500D01*
X2649019D01*
X2643604Y-1173085D01*
Y-1151425D01*
X2676094Y-1178500D02*
X2686924D01*
X2681508D01*
Y-1146011D01*
X2676094Y-1151425D01*
X111144Y-277373D02*
Y-292608D01*
X121301D01*
X128919Y-282451D02*
X133997D01*
X136536Y-284991D01*
Y-292608D01*
X128919D01*
X126379Y-290069D01*
X128919Y-287530D01*
X136536D01*
X141614Y-282451D02*
Y-290069D01*
X144154Y-292608D01*
X151771D01*
Y-295147D01*
X149232Y-297686D01*
X146693D01*
X151771Y-292608D02*
Y-282451D01*
X164467Y-292608D02*
X159389D01*
X156849Y-290069D01*
Y-284991D01*
X159389Y-282451D01*
X164467D01*
X167006Y-284991D01*
Y-287530D01*
X156849D01*
X172085Y-282451D02*
Y-292608D01*
Y-287530D01*
X174624Y-284991D01*
X177163Y-282451D01*
X179702D01*
X111144Y-627888D02*
X116223D01*
X113683D01*
Y-612653D01*
X111144Y-615192D01*
X123840Y-627888D02*
X128919D01*
X126379D01*
Y-612653D01*
X123840Y-615192D01*
X111144Y-597408D02*
X116223D01*
X113683D01*
Y-582173D01*
X111144Y-584712D01*
X123840D02*
X126379Y-582173D01*
X131458D01*
X133997Y-584712D01*
Y-594869D01*
X131458Y-597408D01*
X126379D01*
X123840Y-594869D01*
Y-584712D01*
X111144Y-564389D02*
X113683Y-566928D01*
X118762D01*
X121301Y-564389D01*
Y-554232D01*
X118762Y-551693D01*
X113683D01*
X111144Y-554232D01*
Y-556771D01*
X113683Y-559310D01*
X121301D01*
X111144Y-523752D02*
X113683Y-521213D01*
X118762D01*
X121301Y-523752D01*
Y-526291D01*
X118762Y-528830D01*
X121301Y-531370D01*
Y-533909D01*
X118762Y-536448D01*
X113683D01*
X111144Y-533909D01*
Y-531370D01*
X113683Y-528830D01*
X111144Y-526291D01*
Y-523752D01*
X113683Y-528830D02*
X118762D01*
X111144Y-490733D02*
X121301D01*
Y-493272D01*
X111144Y-503429D01*
Y-505968D01*
X121301Y-460253D02*
X116223Y-462792D01*
X111144Y-467870D01*
Y-472949D01*
X113683Y-475488D01*
X118762D01*
X121301Y-472949D01*
Y-470410D01*
X118762Y-467870D01*
X111144D01*
X121301Y-429773D02*
X111144D01*
Y-437391D01*
X116223Y-434851D01*
X118762D01*
X121301Y-437391D01*
Y-442469D01*
X118762Y-445008D01*
X113683D01*
X111144Y-442469D01*
X118762Y-414528D02*
Y-399293D01*
X111144Y-406911D01*
X121301D01*
X111144Y-371352D02*
X113683Y-368813D01*
X118762D01*
X121301Y-371352D01*
Y-373891D01*
X118762Y-376431D01*
X116223D01*
X118762D01*
X121301Y-378970D01*
Y-381509D01*
X118762Y-384048D01*
X113683D01*
X111144Y-381509D01*
X121301Y-353568D02*
X111144D01*
X121301Y-343411D01*
Y-340872D01*
X118762Y-338333D01*
X113683D01*
X111144Y-340872D01*
Y-323088D02*
X116223D01*
X113683D01*
Y-307853D01*
X111144Y-310392D01*
X215262Y-292608D02*
Y-277373D01*
X225419Y-292608D01*
Y-277373D01*
X233036Y-282451D02*
X238115D01*
X240654Y-284991D01*
Y-292608D01*
X233036D01*
X230497Y-290069D01*
X233036Y-287530D01*
X240654D01*
X245732Y-292608D02*
Y-282451D01*
X248271D01*
X250811Y-284991D01*
Y-292608D01*
Y-284991D01*
X253350Y-282451D01*
X255889Y-284991D01*
Y-292608D01*
X268585D02*
X263507D01*
X260967Y-290069D01*
Y-284991D01*
X263507Y-282451D01*
X268585D01*
X271124Y-284991D01*
Y-287530D01*
X260967D01*
X215262Y-612653D02*
Y-627888D01*
X222880D01*
X225419Y-625349D01*
Y-622810D01*
X222880Y-620271D01*
X215262D01*
X222880D01*
X225419Y-617731D01*
Y-615192D01*
X222880Y-612653D01*
X215262D01*
X233036Y-627888D02*
X238115D01*
X240654Y-625349D01*
Y-620271D01*
X238115Y-617731D01*
X233036D01*
X230497Y-620271D01*
Y-625349D01*
X233036Y-627888D01*
X248271Y-615192D02*
Y-617731D01*
X245732D01*
X250811D01*
X248271D01*
Y-625349D01*
X250811Y-627888D01*
X260967Y-615192D02*
Y-617731D01*
X258428D01*
X263506D01*
X260967D01*
Y-625349D01*
X263506Y-627888D01*
X273663D02*
X278741D01*
X281281Y-625349D01*
Y-620271D01*
X278741Y-617731D01*
X273663D01*
X271124Y-620271D01*
Y-625349D01*
X273663Y-627888D01*
X286359D02*
Y-617731D01*
X288898D01*
X291437Y-620271D01*
Y-627888D01*
Y-620271D01*
X293977Y-617731D01*
X296516Y-620271D01*
Y-627888D01*
X324447Y-612653D02*
X319368D01*
X316829Y-615192D01*
Y-625349D01*
X319368Y-627888D01*
X324447D01*
X326986Y-625349D01*
Y-615192D01*
X324447Y-612653D01*
X332064Y-617731D02*
X337143Y-627888D01*
X342221Y-617731D01*
X354917Y-627888D02*
X349838D01*
X347299Y-625349D01*
Y-620271D01*
X349838Y-617731D01*
X354917D01*
X357456Y-620271D01*
Y-622810D01*
X347299D01*
X362534Y-617731D02*
Y-627888D01*
Y-622810D01*
X365074Y-620271D01*
X367613Y-617731D01*
X370152D01*
X377770Y-627888D02*
X382848D01*
X380309D01*
Y-612653D01*
X377770D01*
X393004Y-617731D02*
X398083D01*
X400622Y-620271D01*
Y-627888D01*
X393004D01*
X390465Y-625349D01*
X393004Y-622810D01*
X400622D01*
X405700Y-617731D02*
Y-625349D01*
X408240Y-627888D01*
X415857D01*
Y-630427D01*
X413318Y-632966D01*
X410779D01*
X415857Y-627888D02*
Y-617731D01*
X215262Y-582173D02*
Y-597408D01*
X222880D01*
X225419Y-594869D01*
Y-592330D01*
X222880Y-589790D01*
X215262D01*
X222880D01*
X225419Y-587251D01*
Y-584712D01*
X222880Y-582173D01*
X215262D01*
X233036Y-597408D02*
X238115D01*
X240654Y-594869D01*
Y-589790D01*
X238115Y-587251D01*
X233036D01*
X230497Y-589790D01*
Y-594869D01*
X233036Y-597408D01*
X248271Y-584712D02*
Y-587251D01*
X245732D01*
X250811D01*
X248271D01*
Y-594869D01*
X250811Y-597408D01*
X260967Y-584712D02*
Y-587251D01*
X258428D01*
X263506D01*
X260967D01*
Y-594869D01*
X263506Y-597408D01*
X273663D02*
X278741D01*
X281281Y-594869D01*
Y-589790D01*
X278741Y-587251D01*
X273663D01*
X271124Y-589790D01*
Y-594869D01*
X273663Y-597408D01*
X286359D02*
Y-587251D01*
X288898D01*
X291437Y-589790D01*
Y-597408D01*
Y-589790D01*
X293977Y-587251D01*
X296516Y-589790D01*
Y-597408D01*
X326986Y-584712D02*
X324447Y-582173D01*
X319368D01*
X316829Y-584712D01*
Y-587251D01*
X319368Y-589790D01*
X324447D01*
X326986Y-592330D01*
Y-594869D01*
X324447Y-597408D01*
X319368D01*
X316829Y-594869D01*
X334603Y-597408D02*
X339682D01*
X342221Y-594869D01*
Y-589790D01*
X339682Y-587251D01*
X334603D01*
X332064Y-589790D01*
Y-594869D01*
X334603Y-597408D01*
X347299D02*
X352378D01*
X349838D01*
Y-582173D01*
X347299D01*
X370152D02*
Y-597408D01*
X362534D01*
X359995Y-594869D01*
Y-589790D01*
X362534Y-587251D01*
X370152D01*
X382848Y-597408D02*
X377770D01*
X375230Y-594869D01*
Y-589790D01*
X377770Y-587251D01*
X382848D01*
X385387Y-589790D01*
Y-592330D01*
X375230D01*
X390465Y-587251D02*
Y-597408D01*
Y-592330D01*
X393004Y-589790D01*
X395544Y-587251D01*
X398083D01*
X215262Y-551693D02*
Y-566928D01*
X222880D01*
X225419Y-564389D01*
Y-561850D01*
X222880Y-559310D01*
X215262D01*
X222880D01*
X225419Y-556771D01*
Y-554232D01*
X222880Y-551693D01*
X215262D01*
X233036Y-566928D02*
X238115D01*
X240654Y-564389D01*
Y-559310D01*
X238115Y-556771D01*
X233036D01*
X230497Y-559310D01*
Y-564389D01*
X233036Y-566928D01*
X248271Y-554232D02*
Y-556771D01*
X245732D01*
X250811D01*
X248271D01*
Y-564389D01*
X250811Y-566928D01*
X260967Y-554232D02*
Y-556771D01*
X258428D01*
X263506D01*
X260967D01*
Y-564389D01*
X263506Y-566928D01*
X273663D02*
X278741D01*
X281281Y-564389D01*
Y-559310D01*
X278741Y-556771D01*
X273663D01*
X271124Y-559310D01*
Y-564389D01*
X273663Y-566928D01*
X286359D02*
Y-556771D01*
X288898D01*
X291437Y-559310D01*
Y-566928D01*
Y-559310D01*
X293977Y-556771D01*
X296516Y-559310D01*
Y-566928D01*
X215262Y-521213D02*
Y-536448D01*
X222880D01*
X225419Y-533909D01*
Y-523752D01*
X222880Y-521213D01*
X215262D01*
X230497Y-536448D02*
X235576D01*
X233036D01*
Y-526291D01*
X230497D01*
X250811Y-536448D02*
X245732D01*
X243193Y-533909D01*
Y-528830D01*
X245732Y-526291D01*
X250811D01*
X253350Y-528830D01*
Y-531370D01*
X243193D01*
X258428Y-536448D02*
X263506D01*
X260967D01*
Y-521213D01*
X258428D01*
X278741Y-536448D02*
X273663D01*
X271124Y-533909D01*
Y-528830D01*
X273663Y-526291D01*
X278741D01*
X281281Y-528830D01*
Y-531370D01*
X271124D01*
X296516Y-526291D02*
X288898D01*
X286359Y-528830D01*
Y-533909D01*
X288898Y-536448D01*
X296516D01*
X304133Y-523752D02*
Y-526291D01*
X301594D01*
X306672D01*
X304133D01*
Y-533909D01*
X306672Y-536448D01*
X314290Y-526291D02*
Y-536448D01*
Y-531370D01*
X316829Y-528830D01*
X319368Y-526291D01*
X321908D01*
X329525Y-536448D02*
X334603D01*
X332064D01*
Y-526291D01*
X329525D01*
X352378D02*
X344760D01*
X342221Y-528830D01*
Y-533909D01*
X344760Y-536448D01*
X352378D01*
X357456Y-523752D02*
X359995Y-521213D01*
X365074D01*
X367613Y-523752D01*
Y-526291D01*
X365074Y-528830D01*
X362534D01*
X365074D01*
X367613Y-531370D01*
Y-533909D01*
X365074Y-536448D01*
X359995D01*
X357456Y-533909D01*
X215262Y-505968D02*
Y-490733D01*
X222880D01*
X225419Y-493272D01*
Y-498350D01*
X222880Y-500890D01*
X215262D01*
X230497Y-490733D02*
Y-505968D01*
X235576Y-500890D01*
X240654Y-505968D01*
Y-490733D01*
X245732Y-505968D02*
Y-490733D01*
X253350D01*
X255889Y-493272D01*
Y-498350D01*
X253350Y-500890D01*
X245732D01*
X250811D02*
X255889Y-505968D01*
X215262Y-460253D02*
Y-475488D01*
X222880D01*
X225419Y-472949D01*
Y-462792D01*
X222880Y-460253D01*
X215262D01*
X230497Y-475488D02*
X235576D01*
X233036D01*
Y-465331D01*
X230497D01*
X250811Y-475488D02*
X245732D01*
X243193Y-472949D01*
Y-467870D01*
X245732Y-465331D01*
X250811D01*
X253350Y-467870D01*
Y-470410D01*
X243193D01*
X258428Y-475488D02*
X263506D01*
X260967D01*
Y-460253D01*
X258428D01*
X278741Y-475488D02*
X273663D01*
X271124Y-472949D01*
Y-467870D01*
X273663Y-465331D01*
X278741D01*
X281281Y-467870D01*
Y-470410D01*
X271124D01*
X296516Y-465331D02*
X288898D01*
X286359Y-467870D01*
Y-472949D01*
X288898Y-475488D01*
X296516D01*
X304133Y-462792D02*
Y-465331D01*
X301594D01*
X306672D01*
X304133D01*
Y-472949D01*
X306672Y-475488D01*
X314290Y-465331D02*
Y-475488D01*
Y-470410D01*
X316829Y-467870D01*
X319368Y-465331D01*
X321908D01*
X329525Y-475488D02*
X334603D01*
X332064D01*
Y-465331D01*
X329525D01*
X352378D02*
X344760D01*
X342221Y-467870D01*
Y-472949D01*
X344760Y-475488D01*
X352378D01*
X382848D02*
X372691D01*
X382848Y-465331D01*
Y-462792D01*
X380309Y-460253D01*
X375230D01*
X372691Y-462792D01*
X225419Y-432312D02*
X222880Y-429773D01*
X217801D01*
X215262Y-432312D01*
Y-442469D01*
X217801Y-445008D01*
X222880D01*
X225419Y-442469D01*
Y-437391D01*
X220340D01*
X230497Y-445008D02*
Y-429773D01*
X240654Y-445008D01*
Y-429773D01*
X245732D02*
Y-445008D01*
X253350D01*
X255889Y-442469D01*
Y-432312D01*
X253350Y-429773D01*
X245732D01*
X215262Y-399293D02*
Y-414528D01*
X222880D01*
X225419Y-411989D01*
Y-401832D01*
X222880Y-399293D01*
X215262D01*
X230497Y-414528D02*
X235576D01*
X233036D01*
Y-404371D01*
X230497D01*
X250811Y-414528D02*
X245732D01*
X243193Y-411989D01*
Y-406911D01*
X245732Y-404371D01*
X250811D01*
X253350Y-406911D01*
Y-409450D01*
X243193D01*
X258428Y-414528D02*
X263506D01*
X260967D01*
Y-399293D01*
X258428D01*
X278741Y-414528D02*
X273663D01*
X271124Y-411989D01*
Y-406911D01*
X273663Y-404371D01*
X278741D01*
X281281Y-406911D01*
Y-409450D01*
X271124D01*
X296516Y-404371D02*
X288898D01*
X286359Y-406911D01*
Y-411989D01*
X288898Y-414528D01*
X296516D01*
X304133Y-401832D02*
Y-404371D01*
X301594D01*
X306672D01*
X304133D01*
Y-411989D01*
X306672Y-414528D01*
X314290Y-404371D02*
Y-414528D01*
Y-409450D01*
X316829Y-406911D01*
X319368Y-404371D01*
X321908D01*
X329525Y-414528D02*
X334603D01*
X332064D01*
Y-404371D01*
X329525D01*
X352378D02*
X344760D01*
X342221Y-406911D01*
Y-411989D01*
X344760Y-414528D01*
X352378D01*
X357456D02*
X362534D01*
X359995D01*
Y-399293D01*
X357456Y-401832D01*
X215262Y-368813D02*
X225419D01*
X220340D01*
Y-384048D01*
X233036D02*
X238115D01*
X240654Y-381509D01*
Y-376431D01*
X238115Y-373891D01*
X233036D01*
X230497Y-376431D01*
Y-381509D01*
X233036Y-384048D01*
X245732Y-389126D02*
Y-373891D01*
X253350D01*
X255889Y-376431D01*
Y-381509D01*
X253350Y-384048D01*
X245732D01*
X215262Y-338333D02*
X225419D01*
X220340D01*
Y-353568D01*
X233036D02*
X238115D01*
X240654Y-351029D01*
Y-345951D01*
X238115Y-343411D01*
X233036D01*
X230497Y-345951D01*
Y-351029D01*
X233036Y-353568D01*
X245732Y-358646D02*
Y-343411D01*
X253350D01*
X255889Y-345951D01*
Y-351029D01*
X253350Y-353568D01*
X245732D01*
X286359Y-340872D02*
X283820Y-338333D01*
X278741D01*
X276202Y-340872D01*
Y-343411D01*
X278741Y-345951D01*
X283820D01*
X286359Y-348490D01*
Y-351029D01*
X283820Y-353568D01*
X278741D01*
X276202Y-351029D01*
X293977Y-353568D02*
X299055D01*
X301594Y-351029D01*
Y-345951D01*
X299055Y-343411D01*
X293977D01*
X291437Y-345951D01*
Y-351029D01*
X293977Y-353568D01*
X306672D02*
X311751D01*
X309212D01*
Y-338333D01*
X306672D01*
X329525D02*
Y-353568D01*
X321908D01*
X319368Y-351029D01*
Y-345951D01*
X321908Y-343411D01*
X329525D01*
X342221Y-353568D02*
X337143D01*
X334603Y-351029D01*
Y-345951D01*
X337143Y-343411D01*
X342221D01*
X344760Y-345951D01*
Y-348490D01*
X334603D01*
X349838Y-343411D02*
Y-353568D01*
Y-348490D01*
X352378Y-345951D01*
X354917Y-343411D01*
X357456D01*
X215262Y-307853D02*
X225419D01*
X220340D01*
Y-323088D01*
X233036D02*
X238115D01*
X240654Y-320549D01*
Y-315471D01*
X238115Y-312931D01*
X233036D01*
X230497Y-315471D01*
Y-320549D01*
X233036Y-323088D01*
X245732Y-328166D02*
Y-312931D01*
X253350D01*
X255889Y-315471D01*
Y-320549D01*
X253350Y-323088D01*
X245732D01*
X283820Y-307853D02*
X278741D01*
X276202Y-310392D01*
Y-320549D01*
X278741Y-323088D01*
X283820D01*
X286359Y-320549D01*
Y-310392D01*
X283820Y-307853D01*
X291437Y-312931D02*
X296516Y-323088D01*
X301594Y-312931D01*
X314290Y-323088D02*
X309212D01*
X306672Y-320549D01*
Y-315471D01*
X309212Y-312931D01*
X314290D01*
X316829Y-315471D01*
Y-318010D01*
X306672D01*
X321908Y-312931D02*
Y-323088D01*
Y-318010D01*
X324447Y-315471D01*
X326986Y-312931D01*
X329525D01*
X337143Y-323088D02*
X342221D01*
X339682D01*
Y-307853D01*
X337143D01*
X352378Y-312931D02*
X357456D01*
X359995Y-315471D01*
Y-323088D01*
X352378D01*
X349838Y-320549D01*
X352378Y-318010D01*
X359995D01*
X365074Y-312931D02*
Y-320549D01*
X367613Y-323088D01*
X375230D01*
Y-325627D01*
X372691Y-328166D01*
X370152D01*
X375230Y-323088D02*
Y-312931D01*
X451417Y-292608D02*
Y-277373D01*
X456496Y-282451D01*
X461574Y-277373D01*
Y-292608D01*
X469191Y-282451D02*
X474270D01*
X476809Y-284991D01*
Y-292608D01*
X469191D01*
X466652Y-290069D01*
X469191Y-287530D01*
X476809D01*
X484426Y-279912D02*
Y-282451D01*
X481887D01*
X486966D01*
X484426D01*
Y-290069D01*
X486966Y-292608D01*
X502201D02*
X497122D01*
X494583Y-290069D01*
Y-284991D01*
X497122Y-282451D01*
X502201D01*
X504740Y-284991D01*
Y-287530D01*
X494583D01*
X509818Y-282451D02*
Y-292608D01*
Y-287530D01*
X512357Y-284991D01*
X514897Y-282451D01*
X517436D01*
X525053Y-292608D02*
X530132D01*
X527593D01*
Y-282451D01*
X525053D01*
X540288D02*
X545367D01*
X547906Y-284991D01*
Y-292608D01*
X540288D01*
X537749Y-290069D01*
X540288Y-287530D01*
X547906D01*
X552984Y-292608D02*
X558063D01*
X555523D01*
Y-277373D01*
X552984D01*
X461574Y-584712D02*
X459035Y-582173D01*
X453956D01*
X451417Y-584712D01*
Y-587251D01*
X453956Y-589790D01*
X459035D01*
X461574Y-592330D01*
Y-594869D01*
X459035Y-597408D01*
X453956D01*
X451417Y-594869D01*
X469191Y-597408D02*
X474270D01*
X476809Y-594869D01*
Y-589790D01*
X474270Y-587251D01*
X469191D01*
X466652Y-589790D01*
Y-594869D01*
X469191Y-597408D01*
X481887D02*
X486966D01*
X484426D01*
Y-582173D01*
X481887D01*
X504740D02*
Y-597408D01*
X497122D01*
X494583Y-594869D01*
Y-589790D01*
X497122Y-587251D01*
X504740D01*
X517436Y-597408D02*
X512357D01*
X509818Y-594869D01*
Y-589790D01*
X512357Y-587251D01*
X517436D01*
X519975Y-589790D01*
Y-592330D01*
X509818D01*
X525053Y-587251D02*
Y-597408D01*
Y-592330D01*
X527593Y-589790D01*
X530132Y-587251D01*
X532671D01*
X555523Y-597408D02*
Y-582173D01*
X563141D01*
X565680Y-584712D01*
Y-589790D01*
X563141Y-592330D01*
X555523D01*
X560602D02*
X565680Y-597408D01*
X578376D02*
X573298D01*
X570759Y-594869D01*
Y-589790D01*
X573298Y-587251D01*
X578376D01*
X580915Y-589790D01*
Y-592330D01*
X570759D01*
X585994Y-597408D02*
X593611D01*
X596150Y-594869D01*
X593611Y-592330D01*
X588533D01*
X585994Y-589790D01*
X588533Y-587251D01*
X596150D01*
X601229Y-597408D02*
X606307D01*
X603768D01*
Y-587251D01*
X601229D01*
X613925Y-597408D02*
X621542D01*
X624081Y-594869D01*
X621542Y-592330D01*
X616464D01*
X613925Y-589790D01*
X616464Y-587251D01*
X624081D01*
X631699Y-584712D02*
Y-587251D01*
X629160D01*
X634238D01*
X631699D01*
Y-594869D01*
X634238Y-597408D01*
X461574Y-554232D02*
X459035Y-551693D01*
X453956D01*
X451417Y-554232D01*
Y-564389D01*
X453956Y-566928D01*
X459035D01*
X461574Y-564389D01*
X469191Y-566928D02*
X474270D01*
X476809Y-564389D01*
Y-559310D01*
X474270Y-556771D01*
X469191D01*
X466652Y-559310D01*
Y-564389D01*
X469191Y-566928D01*
X481887Y-572006D02*
Y-556771D01*
X489505D01*
X492044Y-559310D01*
Y-564389D01*
X489505Y-566928D01*
X481887D01*
X497122Y-572006D02*
Y-556771D01*
X504740D01*
X507279Y-559310D01*
Y-564389D01*
X504740Y-566928D01*
X497122D01*
X519975D02*
X514897D01*
X512357Y-564389D01*
Y-559310D01*
X514897Y-556771D01*
X519975D01*
X522514Y-559310D01*
Y-561850D01*
X512357D01*
X527593Y-556771D02*
Y-566928D01*
Y-561850D01*
X530132Y-559310D01*
X532671Y-556771D01*
X535210D01*
X461574Y-521213D02*
X451417D01*
Y-528830D01*
X456496D01*
X451417D01*
Y-536448D01*
X466652D02*
Y-521213D01*
X474270D01*
X476809Y-523752D01*
Y-528830D01*
X474270Y-531370D01*
X466652D01*
X471731D02*
X476809Y-536448D01*
X481887Y-528830D02*
X492044D01*
X504740Y-536448D02*
Y-521213D01*
X497122Y-528830D01*
X507279D01*
X461574Y-493272D02*
X459035Y-490733D01*
X453956D01*
X451417Y-493272D01*
Y-503429D01*
X453956Y-505968D01*
X459035D01*
X461574Y-503429D01*
X469191Y-505968D02*
X474270D01*
X476809Y-503429D01*
Y-498350D01*
X474270Y-495811D01*
X469191D01*
X466652Y-498350D01*
Y-503429D01*
X469191Y-505968D01*
X481887Y-511046D02*
Y-495811D01*
X489505D01*
X492044Y-498350D01*
Y-503429D01*
X489505Y-505968D01*
X481887D01*
X497122Y-511046D02*
Y-495811D01*
X504740D01*
X507279Y-498350D01*
Y-503429D01*
X504740Y-505968D01*
X497122D01*
X519975D02*
X514897D01*
X512357Y-503429D01*
Y-498350D01*
X514897Y-495811D01*
X519975D01*
X522514Y-498350D01*
Y-500890D01*
X512357D01*
X527593Y-495811D02*
Y-505968D01*
Y-500890D01*
X530132Y-498350D01*
X532671Y-495811D01*
X535210D01*
X461574Y-432312D02*
X459035Y-429773D01*
X453956D01*
X451417Y-432312D01*
Y-442469D01*
X453956Y-445008D01*
X459035D01*
X461574Y-442469D01*
X469191Y-445008D02*
X474270D01*
X476809Y-442469D01*
Y-437391D01*
X474270Y-434851D01*
X469191D01*
X466652Y-437391D01*
Y-442469D01*
X469191Y-445008D01*
X481887Y-450086D02*
Y-434851D01*
X489505D01*
X492044Y-437391D01*
Y-442469D01*
X489505Y-445008D01*
X481887D01*
X497122Y-450086D02*
Y-434851D01*
X504740D01*
X507279Y-437391D01*
Y-442469D01*
X504740Y-445008D01*
X497122D01*
X519975D02*
X514897D01*
X512357Y-442469D01*
Y-437391D01*
X514897Y-434851D01*
X519975D01*
X522514Y-437391D01*
Y-439930D01*
X512357D01*
X527593Y-434851D02*
Y-445008D01*
Y-439930D01*
X530132Y-437391D01*
X532671Y-434851D01*
X535210D01*
X461574Y-399293D02*
X451417D01*
Y-406911D01*
X456496D01*
X451417D01*
Y-414528D01*
X466652D02*
Y-399293D01*
X474270D01*
X476809Y-401832D01*
Y-406911D01*
X474270Y-409450D01*
X466652D01*
X471731D02*
X476809Y-414528D01*
X481887Y-406911D02*
X492044D01*
X504740Y-414528D02*
Y-399293D01*
X497122Y-406911D01*
X507279D01*
X461574Y-371352D02*
X459035Y-368813D01*
X453956D01*
X451417Y-371352D01*
Y-381509D01*
X453956Y-384048D01*
X459035D01*
X461574Y-381509D01*
X469191Y-384048D02*
X474270D01*
X476809Y-381509D01*
Y-376431D01*
X474270Y-373891D01*
X469191D01*
X466652Y-376431D01*
Y-381509D01*
X469191Y-384048D01*
X481887Y-389126D02*
Y-373891D01*
X489505D01*
X492044Y-376431D01*
Y-381509D01*
X489505Y-384048D01*
X481887D01*
X497122Y-389126D02*
Y-373891D01*
X504740D01*
X507279Y-376431D01*
Y-381509D01*
X504740Y-384048D01*
X497122D01*
X519975D02*
X514897D01*
X512357Y-381509D01*
Y-376431D01*
X514897Y-373891D01*
X519975D01*
X522514Y-376431D01*
Y-378970D01*
X512357D01*
X527593Y-373891D02*
Y-384048D01*
Y-378970D01*
X530132Y-376431D01*
X532671Y-373891D01*
X535210D01*
X461574Y-340872D02*
X459035Y-338333D01*
X453956D01*
X451417Y-340872D01*
Y-343411D01*
X453956Y-345951D01*
X459035D01*
X461574Y-348490D01*
Y-351029D01*
X459035Y-353568D01*
X453956D01*
X451417Y-351029D01*
X469191Y-353568D02*
X474270D01*
X476809Y-351029D01*
Y-345951D01*
X474270Y-343411D01*
X469191D01*
X466652Y-345951D01*
Y-351029D01*
X469191Y-353568D01*
X481887D02*
X486966D01*
X484426D01*
Y-338333D01*
X481887D01*
X504740D02*
Y-353568D01*
X497122D01*
X494583Y-351029D01*
Y-345951D01*
X497122Y-343411D01*
X504740D01*
X517436Y-353568D02*
X512357D01*
X509818Y-351029D01*
Y-345951D01*
X512357Y-343411D01*
X517436D01*
X519975Y-345951D01*
Y-348490D01*
X509818D01*
X525053Y-343411D02*
Y-353568D01*
Y-348490D01*
X527593Y-345951D01*
X530132Y-343411D01*
X532671D01*
X555523Y-353568D02*
Y-338333D01*
X563141D01*
X565680Y-340872D01*
Y-345951D01*
X563141Y-348490D01*
X555523D01*
X560602D02*
X565680Y-353568D01*
X578376D02*
X573298D01*
X570759Y-351029D01*
Y-345951D01*
X573298Y-343411D01*
X578376D01*
X580915Y-345951D01*
Y-348490D01*
X570759D01*
X585994Y-353568D02*
X593611D01*
X596150Y-351029D01*
X593611Y-348490D01*
X588533D01*
X585994Y-345951D01*
X588533Y-343411D01*
X596150D01*
X601229Y-353568D02*
X606307D01*
X603768D01*
Y-343411D01*
X601229D01*
X613925Y-353568D02*
X621542D01*
X624081Y-351029D01*
X621542Y-348490D01*
X616464D01*
X613925Y-345951D01*
X616464Y-343411D01*
X624081D01*
X631699Y-340872D02*
Y-343411D01*
X629160D01*
X634238D01*
X631699D01*
Y-351029D01*
X634238Y-353568D01*
X669798Y-277373D02*
X679955D01*
X674876D01*
Y-292608D01*
X685033Y-277373D02*
Y-292608D01*
Y-284991D01*
X687572Y-282451D01*
X692651D01*
X695190Y-284991D01*
Y-292608D01*
X700268D02*
X705347D01*
X702807D01*
Y-282451D01*
X700268D01*
X723121D02*
X715503D01*
X712964Y-284991D01*
Y-290069D01*
X715503Y-292608D01*
X723121D01*
X728199D02*
Y-277373D01*
Y-287530D02*
X735817Y-282451D01*
X728199Y-287530D02*
X735817Y-292608D01*
X743434D02*
Y-282451D01*
X751052D01*
X753591Y-284991D01*
Y-292608D01*
X766287D02*
X761208D01*
X758669Y-290069D01*
Y-284991D01*
X761208Y-282451D01*
X766287D01*
X768826Y-284991D01*
Y-287530D01*
X758669D01*
X773904Y-292608D02*
X781522D01*
X784061Y-290069D01*
X781522Y-287530D01*
X776443D01*
X773904Y-284991D01*
X776443Y-282451D01*
X784061D01*
X789139Y-292608D02*
X796757D01*
X799296Y-290069D01*
X796757Y-287530D01*
X791679D01*
X789139Y-284991D01*
X791679Y-282451D01*
X799296D01*
X669798Y-584712D02*
X672337Y-582173D01*
X677415D01*
X679955Y-584712D01*
Y-594869D01*
X677415Y-597408D01*
X672337D01*
X669798Y-594869D01*
Y-584712D01*
X685033Y-597408D02*
Y-594869D01*
X687572D01*
Y-597408D01*
X685033D01*
X705347D02*
Y-582173D01*
X697729Y-589790D01*
X707886D01*
X712964Y-584712D02*
X715503Y-582173D01*
X720582D01*
X723121Y-584712D01*
Y-594869D01*
X720582Y-597408D01*
X715503D01*
X712964Y-594869D01*
Y-584712D01*
X728199Y-597408D02*
Y-587251D01*
X730738D01*
X733278Y-589790D01*
Y-597408D01*
Y-589790D01*
X735817Y-587251D01*
X738356Y-589790D01*
Y-597408D01*
X743434D02*
X748512D01*
X745973D01*
Y-587251D01*
X743434D01*
X756130Y-597408D02*
X761208D01*
X758669D01*
Y-582173D01*
X756130D01*
X679955Y-566928D02*
X669798D01*
X679955Y-556771D01*
Y-554232D01*
X677415Y-551693D01*
X672337D01*
X669798Y-554232D01*
X685033Y-566928D02*
Y-564389D01*
X687572D01*
Y-566928D01*
X685033D01*
X697729Y-554232D02*
X700268Y-551693D01*
X705347D01*
X707886Y-554232D01*
Y-556771D01*
X705347Y-559310D01*
X702807D01*
X705347D01*
X707886Y-561850D01*
Y-564389D01*
X705347Y-566928D01*
X700268D01*
X697729Y-564389D01*
X723121Y-551693D02*
X718042Y-554232D01*
X712964Y-559310D01*
Y-564389D01*
X715503Y-566928D01*
X720582D01*
X723121Y-564389D01*
Y-561850D01*
X720582Y-559310D01*
X712964D01*
X728199Y-566928D02*
Y-556771D01*
X730738D01*
X733278Y-559310D01*
Y-566928D01*
Y-559310D01*
X735817Y-556771D01*
X738356Y-559310D01*
Y-566928D01*
X743434D02*
X748512D01*
X745973D01*
Y-556771D01*
X743434D01*
X756130Y-566928D02*
X761208D01*
X758669D01*
Y-551693D01*
X756130D01*
X679955Y-521213D02*
X669798D01*
Y-528830D01*
X674876Y-526291D01*
X677415D01*
X679955Y-528830D01*
Y-533909D01*
X677415Y-536448D01*
X672337D01*
X669798Y-533909D01*
X685033Y-536448D02*
Y-533909D01*
X687572D01*
Y-536448D01*
X685033D01*
X707886D02*
X697729D01*
X707886Y-526291D01*
Y-523752D01*
X705347Y-521213D01*
X700268D01*
X697729Y-523752D01*
X712964D02*
X715503Y-521213D01*
X720582D01*
X723121Y-523752D01*
Y-533909D01*
X720582Y-536448D01*
X715503D01*
X712964Y-533909D01*
Y-523752D01*
X728199Y-536448D02*
Y-526291D01*
X730738D01*
X733278Y-528830D01*
Y-536448D01*
Y-528830D01*
X735817Y-526291D01*
X738356Y-528830D01*
Y-536448D01*
X743434D02*
X748512D01*
X745973D01*
Y-526291D01*
X743434D01*
X756130Y-536448D02*
X761208D01*
X758669D01*
Y-521213D01*
X756130D01*
X679955Y-505968D02*
X669798D01*
X679955Y-495811D01*
Y-493272D01*
X677415Y-490733D01*
X672337D01*
X669798Y-493272D01*
X685033Y-505968D02*
Y-503429D01*
X687572D01*
Y-505968D01*
X685033D01*
X697729Y-493272D02*
X700268Y-490733D01*
X705347D01*
X707886Y-493272D01*
Y-495811D01*
X705347Y-498350D01*
X702807D01*
X705347D01*
X707886Y-500890D01*
Y-503429D01*
X705347Y-505968D01*
X700268D01*
X697729Y-503429D01*
X723121Y-490733D02*
X718042Y-493272D01*
X712964Y-498350D01*
Y-503429D01*
X715503Y-505968D01*
X720582D01*
X723121Y-503429D01*
Y-500890D01*
X720582Y-498350D01*
X712964D01*
X728199Y-505968D02*
Y-495811D01*
X730738D01*
X733278Y-498350D01*
Y-505968D01*
Y-498350D01*
X735817Y-495811D01*
X738356Y-498350D01*
Y-505968D01*
X743434D02*
X748512D01*
X745973D01*
Y-495811D01*
X743434D01*
X756130Y-505968D02*
X761208D01*
X758669D01*
Y-490733D01*
X756130D01*
X669798Y-475488D02*
X674876D01*
X672337D01*
Y-460253D01*
X669798Y-462792D01*
X682494D02*
X685033Y-460253D01*
X690111D01*
X692651Y-462792D01*
Y-472949D01*
X690111Y-475488D01*
X685033D01*
X682494Y-472949D01*
Y-462792D01*
X697729Y-475488D02*
Y-472949D01*
X700268D01*
Y-475488D01*
X697729D01*
X710425Y-462792D02*
X712964Y-460253D01*
X718042D01*
X720582Y-462792D01*
Y-465331D01*
X718042Y-467870D01*
X720582Y-470410D01*
Y-472949D01*
X718042Y-475488D01*
X712964D01*
X710425Y-472949D01*
Y-470410D01*
X712964Y-467870D01*
X710425Y-465331D01*
Y-462792D01*
X712964Y-467870D02*
X718042D01*
X725660Y-460253D02*
X735817D01*
Y-462792D01*
X725660Y-472949D01*
Y-475488D01*
X740895D02*
Y-465331D01*
X743434D01*
X745973Y-467870D01*
Y-475488D01*
Y-467870D01*
X748512Y-465331D01*
X751052Y-467870D01*
Y-475488D01*
X756130D02*
X761208D01*
X758669D01*
Y-465331D01*
X756130D01*
X768826Y-475488D02*
X773904D01*
X771365D01*
Y-460253D01*
X768826D01*
X679955Y-445008D02*
X669798D01*
X679955Y-434851D01*
Y-432312D01*
X677415Y-429773D01*
X672337D01*
X669798Y-432312D01*
X685033Y-445008D02*
Y-442469D01*
X687572D01*
Y-445008D01*
X685033D01*
X697729Y-432312D02*
X700268Y-429773D01*
X705347D01*
X707886Y-432312D01*
Y-434851D01*
X705347Y-437391D01*
X702807D01*
X705347D01*
X707886Y-439930D01*
Y-442469D01*
X705347Y-445008D01*
X700268D01*
X697729Y-442469D01*
X723121Y-429773D02*
X718042Y-432312D01*
X712964Y-437391D01*
Y-442469D01*
X715503Y-445008D01*
X720582D01*
X723121Y-442469D01*
Y-439930D01*
X720582Y-437391D01*
X712964D01*
X728199Y-445008D02*
Y-434851D01*
X730738D01*
X733278Y-437391D01*
Y-445008D01*
Y-437391D01*
X735817Y-434851D01*
X738356Y-437391D01*
Y-445008D01*
X743434D02*
X748512D01*
X745973D01*
Y-434851D01*
X743434D01*
X756130Y-445008D02*
X761208D01*
X758669D01*
Y-429773D01*
X756130D01*
X679955Y-399293D02*
X669798D01*
Y-406911D01*
X674876Y-404371D01*
X677415D01*
X679955Y-406911D01*
Y-411989D01*
X677415Y-414528D01*
X672337D01*
X669798Y-411989D01*
X685033Y-414528D02*
Y-411989D01*
X687572D01*
Y-414528D01*
X685033D01*
X707886D02*
X697729D01*
X707886Y-404371D01*
Y-401832D01*
X705347Y-399293D01*
X700268D01*
X697729Y-401832D01*
X712964D02*
X715503Y-399293D01*
X720582D01*
X723121Y-401832D01*
Y-411989D01*
X720582Y-414528D01*
X715503D01*
X712964Y-411989D01*
Y-401832D01*
X728199Y-414528D02*
Y-404371D01*
X730738D01*
X733278Y-406911D01*
Y-414528D01*
Y-406911D01*
X735817Y-404371D01*
X738356Y-406911D01*
Y-414528D01*
X743434D02*
X748512D01*
X745973D01*
Y-404371D01*
X743434D01*
X756130Y-414528D02*
X761208D01*
X758669D01*
Y-399293D01*
X756130D01*
X679955Y-384048D02*
X669798D01*
X679955Y-373891D01*
Y-371352D01*
X677415Y-368813D01*
X672337D01*
X669798Y-371352D01*
X685033Y-384048D02*
Y-381509D01*
X687572D01*
Y-384048D01*
X685033D01*
X697729Y-371352D02*
X700268Y-368813D01*
X705347D01*
X707886Y-371352D01*
Y-373891D01*
X705347Y-376431D01*
X702807D01*
X705347D01*
X707886Y-378970D01*
Y-381509D01*
X705347Y-384048D01*
X700268D01*
X697729Y-381509D01*
X723121Y-368813D02*
X718042Y-371352D01*
X712964Y-376431D01*
Y-381509D01*
X715503Y-384048D01*
X720582D01*
X723121Y-381509D01*
Y-378970D01*
X720582Y-376431D01*
X712964D01*
X728199Y-384048D02*
Y-373891D01*
X730738D01*
X733278Y-376431D01*
Y-384048D01*
Y-376431D01*
X735817Y-373891D01*
X738356Y-376431D01*
Y-384048D01*
X743434D02*
X748512D01*
X745973D01*
Y-373891D01*
X743434D01*
X756130Y-384048D02*
X761208D01*
X758669D01*
Y-368813D01*
X756130D01*
X669798Y-340872D02*
X672337Y-338333D01*
X677415D01*
X679955Y-340872D01*
Y-351029D01*
X677415Y-353568D01*
X672337D01*
X669798Y-351029D01*
Y-340872D01*
X685033Y-353568D02*
Y-351029D01*
X687572D01*
Y-353568D01*
X685033D01*
X705347D02*
Y-338333D01*
X697729Y-345951D01*
X707886D01*
X712964Y-340872D02*
X715503Y-338333D01*
X720582D01*
X723121Y-340872D01*
Y-351029D01*
X720582Y-353568D01*
X715503D01*
X712964Y-351029D01*
Y-340872D01*
X728199Y-353568D02*
Y-343411D01*
X730738D01*
X733278Y-345951D01*
Y-353568D01*
Y-345951D01*
X735817Y-343411D01*
X738356Y-345951D01*
Y-353568D01*
X743434D02*
X748512D01*
X745973D01*
Y-343411D01*
X743434D01*
X756130Y-353568D02*
X761208D01*
X758669D01*
Y-338333D01*
X756130D01*
X845013Y-279912D02*
X842474Y-277373D01*
X837395D01*
X834856Y-279912D01*
Y-290069D01*
X837395Y-292608D01*
X842474D01*
X845013Y-290069D01*
X852630Y-292608D02*
X857709D01*
X860248Y-290069D01*
Y-284991D01*
X857709Y-282451D01*
X852630D01*
X850091Y-284991D01*
Y-290069D01*
X852630Y-292608D01*
X865326D02*
Y-282451D01*
X872944D01*
X875483Y-284991D01*
Y-292608D01*
X880561D02*
X888179D01*
X890718Y-290069D01*
X888179Y-287530D01*
X883101D01*
X880561Y-284991D01*
X883101Y-282451D01*
X890718D01*
X898336Y-279912D02*
Y-282451D01*
X895796D01*
X900875D01*
X898336D01*
Y-290069D01*
X900875Y-292608D01*
X911031Y-282451D02*
X916110D01*
X918649Y-284991D01*
Y-292608D01*
X911031D01*
X908492Y-290069D01*
X911031Y-287530D01*
X918649D01*
X923727Y-292608D02*
Y-282451D01*
X931345D01*
X933884Y-284991D01*
Y-292608D01*
X941502Y-279912D02*
Y-282451D01*
X938962D01*
X944041D01*
X941502D01*
Y-290069D01*
X944041Y-292608D01*
X834856Y-584712D02*
X837395Y-582173D01*
X842474D01*
X845013Y-584712D01*
Y-587251D01*
X842474Y-589790D01*
X839934D01*
X842474D01*
X845013Y-592330D01*
Y-594869D01*
X842474Y-597408D01*
X837395D01*
X834856Y-594869D01*
X850091Y-597408D02*
Y-594869D01*
X852630D01*
Y-597408D01*
X850091D01*
X872944Y-582173D02*
X862787D01*
Y-589790D01*
X867865Y-587251D01*
X870405D01*
X872944Y-589790D01*
Y-594869D01*
X870405Y-597408D01*
X865326D01*
X862787Y-594869D01*
X842474Y-536448D02*
Y-521213D01*
X834856Y-528830D01*
X845013D01*
X850091Y-536448D02*
Y-533909D01*
X852630D01*
Y-536448D01*
X850091D01*
X862787Y-523752D02*
X865326Y-521213D01*
X870405D01*
X872944Y-523752D01*
Y-526291D01*
X870405Y-528830D01*
X872944Y-531370D01*
Y-533909D01*
X870405Y-536448D01*
X865326D01*
X862787Y-533909D01*
Y-531370D01*
X865326Y-528830D01*
X862787Y-526291D01*
Y-523752D01*
X865326Y-528830D02*
X870405D01*
X842474Y-475488D02*
Y-460253D01*
X834856Y-467870D01*
X845013D01*
X850091Y-475488D02*
Y-472949D01*
X852630D01*
Y-475488D01*
X850091D01*
X872944D02*
X862787D01*
X872944Y-465331D01*
Y-462792D01*
X870405Y-460253D01*
X865326D01*
X862787Y-462792D01*
X842474Y-414528D02*
Y-399293D01*
X834856Y-406911D01*
X845013D01*
X850091Y-414528D02*
Y-411989D01*
X852630D01*
Y-414528D01*
X850091D01*
X862787Y-401832D02*
X865326Y-399293D01*
X870405D01*
X872944Y-401832D01*
Y-404371D01*
X870405Y-406911D01*
X872944Y-409450D01*
Y-411989D01*
X870405Y-414528D01*
X865326D01*
X862787Y-411989D01*
Y-409450D01*
X865326Y-406911D01*
X862787Y-404371D01*
Y-401832D01*
X865326Y-406911D02*
X870405D01*
X834856Y-340872D02*
X837395Y-338333D01*
X842474D01*
X845013Y-340872D01*
Y-343411D01*
X842474Y-345951D01*
X839934D01*
X842474D01*
X845013Y-348490D01*
Y-351029D01*
X842474Y-353568D01*
X837395D01*
X834856Y-351029D01*
X850091Y-353568D02*
Y-351029D01*
X852630D01*
Y-353568D01*
X850091D01*
X872944Y-338333D02*
X862787D01*
Y-345951D01*
X867865Y-343411D01*
X870405D01*
X872944Y-345951D01*
Y-351029D01*
X870405Y-353568D01*
X865326D01*
X862787Y-351029D01*
X979601Y-277373D02*
Y-292608D01*
X987218D01*
X989758Y-290069D01*
Y-287530D01*
X987218Y-284991D01*
X979601D01*
X987218D01*
X989758Y-282451D01*
Y-279912D01*
X987218Y-277373D01*
X979601D01*
X997375Y-292608D02*
X1002453D01*
X1004993Y-290069D01*
Y-284991D01*
X1002453Y-282451D01*
X997375D01*
X994836Y-284991D01*
Y-290069D01*
X997375Y-292608D01*
X1012610Y-282451D02*
X1017689D01*
X1020228Y-284991D01*
Y-292608D01*
X1012610D01*
X1010071Y-290069D01*
X1012610Y-287530D01*
X1020228D01*
X1025306Y-282451D02*
Y-292608D01*
Y-287530D01*
X1027845Y-284991D01*
X1030384Y-282451D01*
X1032924D01*
X1050698Y-277373D02*
Y-292608D01*
X1043080D01*
X1040541Y-290069D01*
Y-284991D01*
X1043080Y-282451D01*
X1050698D01*
X1071011Y-277373D02*
Y-292608D01*
X1081168D01*
X1088785Y-282451D02*
X1093864D01*
X1096403Y-284991D01*
Y-292608D01*
X1088785D01*
X1086246Y-290069D01*
X1088785Y-287530D01*
X1096403D01*
X1101481Y-282451D02*
Y-290069D01*
X1104021Y-292608D01*
X1111638D01*
Y-295147D01*
X1109099Y-297686D01*
X1106560D01*
X1111638Y-292608D02*
Y-282451D01*
X1124334Y-292608D02*
X1119256D01*
X1116716Y-290069D01*
Y-284991D01*
X1119256Y-282451D01*
X1124334D01*
X1126873Y-284991D01*
Y-287530D01*
X1116716D01*
X1131952Y-282451D02*
Y-292608D01*
Y-287530D01*
X1134491Y-284991D01*
X1137030Y-282451D01*
X1139569D01*
X1172578Y-279912D02*
X1170039Y-277373D01*
X1164961D01*
X1162422Y-279912D01*
Y-282451D01*
X1164961Y-284991D01*
X1170039D01*
X1172578Y-287530D01*
Y-290069D01*
X1170039Y-292608D01*
X1164961D01*
X1162422Y-290069D01*
X1180196Y-279912D02*
Y-282451D01*
X1177657D01*
X1182735D01*
X1180196D01*
Y-290069D01*
X1182735Y-292608D01*
X1192892Y-282451D02*
X1197970D01*
X1200509Y-284991D01*
Y-292608D01*
X1192892D01*
X1190353Y-290069D01*
X1192892Y-287530D01*
X1200509D01*
X1215744Y-282451D02*
X1208127D01*
X1205588Y-284991D01*
Y-290069D01*
X1208127Y-292608D01*
X1215744D01*
X1220823D02*
Y-277373D01*
Y-287530D02*
X1228440Y-282451D01*
X1220823Y-287530D02*
X1228440Y-292608D01*
D146*
X1233520Y-635508D02*
X1248760Y-620268D01*
X1218280Y-635508D02*
X1248760Y-605028D01*
X1203040Y-635508D02*
X1233520Y-605028D01*
X1187800Y-635508D02*
X1218280Y-605028D01*
X1172560Y-635508D02*
X1203040Y-605028D01*
X1157320Y-635508D02*
X1187800Y-605028D01*
X1142080Y-635508D02*
X1172560Y-605028D01*
X1126840Y-635508D02*
X1157320Y-605028D01*
X1111600Y-635508D02*
X1142080Y-605028D01*
X1096360Y-635508D02*
X1126840Y-605028D01*
X1081120Y-635508D02*
X1111600Y-605028D01*
X1065880Y-635508D02*
X1096360Y-605028D01*
X1050640Y-635508D02*
X1081120Y-605028D01*
X1035400Y-635508D02*
X1065880Y-605028D01*
X1020160Y-635508D02*
X1050640Y-605028D01*
X1004920Y-635508D02*
X1035400Y-605028D01*
X989680Y-635508D02*
X1020160Y-605028D01*
X974440Y-635508D02*
X1004920Y-605028D01*
X964361Y-630348D02*
X989680Y-605028D01*
X964361Y-615107D02*
X974440Y-605028D01*
X1233520D02*
X1248760Y-589788D01*
X1218280Y-605028D02*
X1248760Y-574548D01*
X1203040Y-605028D02*
X1233520Y-574548D01*
X1187800Y-605028D02*
X1218280Y-574548D01*
X1172560Y-605028D02*
X1203040Y-574548D01*
X1157320Y-605028D02*
X1187800Y-574548D01*
X1142080Y-605028D02*
X1172560Y-574548D01*
X1126840Y-605028D02*
X1157320Y-574548D01*
X1111600Y-605028D02*
X1142080Y-574548D01*
X1096360Y-605028D02*
X1126840Y-574548D01*
X1081120Y-605028D02*
X1111600Y-574548D01*
X1065880Y-605028D02*
X1096360Y-574548D01*
X1050640Y-605028D02*
X1081120Y-574548D01*
X1035400Y-605028D02*
X1065880Y-574548D01*
X1020160Y-605028D02*
X1050640Y-574548D01*
X1004920Y-605028D02*
X1035400Y-574548D01*
X989680Y-605028D02*
X1020160Y-574548D01*
X974440Y-605028D02*
X1004920Y-574548D01*
X964361Y-599868D02*
X989680Y-574548D01*
X964361Y-584627D02*
X974440Y-574548D01*
X1233520D02*
X1248760Y-559308D01*
X1218280Y-574548D02*
X1248760Y-544068D01*
X1203040Y-574548D02*
X1233520Y-544068D01*
X1187800Y-574548D02*
X1218280Y-544068D01*
X1172560Y-574548D02*
X1203040Y-544068D01*
X1157320Y-574548D02*
X1187800Y-544068D01*
X1142080Y-574548D02*
X1172560Y-544068D01*
X1126840Y-574548D02*
X1157320Y-544068D01*
X1111600Y-574548D02*
X1142080Y-544068D01*
X1096360Y-574548D02*
X1126840Y-544068D01*
X1081120Y-574548D02*
X1111600Y-544068D01*
X1065880Y-574548D02*
X1096360Y-544068D01*
X1050640Y-574548D02*
X1081120Y-544068D01*
X1035400Y-574548D02*
X1065880Y-544068D01*
X1020160Y-574548D02*
X1050640Y-544068D01*
X1004920Y-574548D02*
X1035400Y-544068D01*
X989680Y-574548D02*
X1020160Y-544068D01*
X974440Y-574548D02*
X1004920Y-544068D01*
X964361Y-569388D02*
X989680Y-544068D01*
X964361Y-554147D02*
X974440Y-544068D01*
X1233520D02*
X1248760Y-528828D01*
X1218280Y-544068D02*
X1248760Y-513588D01*
X1203040Y-544068D02*
X1233520Y-513588D01*
X1187800Y-544068D02*
X1218280Y-513588D01*
X1172560Y-544068D02*
X1203040Y-513588D01*
X1157320Y-544068D02*
X1187800Y-513588D01*
X1142080Y-544068D02*
X1172560Y-513588D01*
X1126840Y-544068D02*
X1157320Y-513588D01*
X1111600Y-544068D02*
X1142080Y-513588D01*
X1096360Y-544068D02*
X1126840Y-513588D01*
X1081120Y-544068D02*
X1111600Y-513588D01*
X1065880Y-544068D02*
X1096360Y-513588D01*
X1050640Y-544068D02*
X1081120Y-513588D01*
X1035400Y-544068D02*
X1065880Y-513588D01*
X1020160Y-544068D02*
X1050640Y-513588D01*
X1004920Y-544068D02*
X1035400Y-513588D01*
X989680Y-544068D02*
X1020160Y-513588D01*
X974440Y-544068D02*
X1004920Y-513588D01*
X964361Y-538908D02*
X989680Y-513588D01*
X964361Y-523667D02*
X974440Y-513588D01*
X1233520D02*
X1248760Y-498348D01*
X1218280Y-513588D02*
X1248760Y-483108D01*
X1203040Y-513588D02*
X1233520Y-483108D01*
X1187800Y-513588D02*
X1218280Y-483108D01*
X1172560Y-513588D02*
X1203040Y-483108D01*
X1157320Y-513588D02*
X1187800Y-483108D01*
X1142080Y-513588D02*
X1172560Y-483108D01*
X1126840Y-513588D02*
X1157320Y-483108D01*
X1111600Y-513588D02*
X1142080Y-483108D01*
X1096360Y-513588D02*
X1126840Y-483108D01*
X1081120Y-513588D02*
X1111600Y-483108D01*
X1065880Y-513588D02*
X1096360Y-483108D01*
X1050640Y-513588D02*
X1081120Y-483108D01*
X1035400Y-513588D02*
X1065880Y-483108D01*
X1020160Y-513588D02*
X1050640Y-483108D01*
X1004920Y-513588D02*
X1035400Y-483108D01*
X989680Y-513588D02*
X1020160Y-483108D01*
X974440Y-513588D02*
X1004920Y-483108D01*
X964361Y-508428D02*
X989680Y-483108D01*
X964361Y-493187D02*
X974440Y-483108D01*
X1233520D02*
X1248760Y-467868D01*
X1218280Y-483108D02*
X1248760Y-452628D01*
X1203040Y-483108D02*
X1233520Y-452628D01*
X1187800Y-483108D02*
X1218280Y-452628D01*
X1172560Y-483108D02*
X1203040Y-452628D01*
X1157320Y-483108D02*
X1187800Y-452628D01*
X1142080Y-483108D02*
X1172560Y-452628D01*
X1126840Y-483108D02*
X1157320Y-452628D01*
X1111600Y-483108D02*
X1142080Y-452628D01*
X1096360Y-483108D02*
X1126840Y-452628D01*
X1081120Y-483108D02*
X1111600Y-452628D01*
X1065880Y-483108D02*
X1096360Y-452628D01*
X1050640Y-483108D02*
X1081120Y-452628D01*
X1035400Y-483108D02*
X1065880Y-452628D01*
X1020160Y-483108D02*
X1050640Y-452628D01*
X1004920Y-483108D02*
X1035400Y-452628D01*
X989680Y-483108D02*
X1020160Y-452628D01*
X974440Y-483108D02*
X1004920Y-452628D01*
X964361Y-477948D02*
X989680Y-452628D01*
X964361Y-462707D02*
X974440Y-452628D01*
X1233520D02*
X1248760Y-437388D01*
X1218280Y-452628D02*
X1248760Y-422148D01*
X1203040Y-452628D02*
X1233520Y-422148D01*
X1187800Y-452628D02*
X1218280Y-422148D01*
X1172560Y-452628D02*
X1203040Y-422148D01*
X1157320Y-452628D02*
X1187800Y-422148D01*
X1142080Y-452628D02*
X1172560Y-422148D01*
X1126840Y-452628D02*
X1157320Y-422148D01*
X1111600Y-452628D02*
X1142080Y-422148D01*
X1096360Y-452628D02*
X1126840Y-422148D01*
X1081120Y-452628D02*
X1111600Y-422148D01*
X1065880Y-452628D02*
X1096360Y-422148D01*
X1050640Y-452628D02*
X1081120Y-422148D01*
X1035400Y-452628D02*
X1065880Y-422148D01*
X1020160Y-452628D02*
X1050640Y-422148D01*
X1004920Y-452628D02*
X1035400Y-422148D01*
X989680Y-452628D02*
X1020160Y-422148D01*
X974440Y-452628D02*
X1004920Y-422148D01*
X964361Y-447467D02*
X989680Y-422148D01*
X964361Y-432228D02*
X974440Y-422148D01*
X1233520D02*
X1248760Y-406908D01*
X1218280Y-422148D02*
X1248760Y-391668D01*
X1203040Y-422148D02*
X1233520Y-391668D01*
X1187800Y-422148D02*
X1218280Y-391668D01*
X1172560Y-422148D02*
X1203040Y-391668D01*
X1157320Y-422148D02*
X1187800Y-391668D01*
X1142080Y-422148D02*
X1172560Y-391668D01*
X1126840Y-422148D02*
X1157320Y-391668D01*
X1111600Y-422148D02*
X1142080Y-391668D01*
X1096360Y-422148D02*
X1126840Y-391668D01*
X1081120Y-422148D02*
X1111600Y-391668D01*
X1065880Y-422148D02*
X1096360Y-391668D01*
X1050640Y-422148D02*
X1081120Y-391668D01*
X1035400Y-422148D02*
X1065880Y-391668D01*
X1020160Y-422148D02*
X1050640Y-391668D01*
X1004920Y-422148D02*
X1035400Y-391668D01*
X989680Y-422148D02*
X1020160Y-391668D01*
X974440Y-422148D02*
X1004920Y-391668D01*
X964361Y-416987D02*
X989680Y-391668D01*
X964361Y-401748D02*
X974440Y-391668D01*
X1233520D02*
X1248760Y-376428D01*
X1218280Y-391668D02*
X1248760Y-361188D01*
X1203040Y-391668D02*
X1233520Y-361188D01*
X1187800Y-391668D02*
X1218280Y-361188D01*
X1172560Y-391668D02*
X1203040Y-361188D01*
X1157320Y-391668D02*
X1187800Y-361188D01*
X1142080Y-391668D02*
X1172560Y-361188D01*
X1126840Y-391668D02*
X1157320Y-361188D01*
X1111600Y-391668D02*
X1142080Y-361188D01*
X1096360Y-391668D02*
X1126840Y-361188D01*
X1081120Y-391668D02*
X1111600Y-361188D01*
X1065880Y-391668D02*
X1096360Y-361188D01*
X1050640Y-391668D02*
X1081120Y-361188D01*
X1035400Y-391668D02*
X1065880Y-361188D01*
X1020160Y-391668D02*
X1050640Y-361188D01*
X1004920Y-391668D02*
X1035400Y-361188D01*
X989680Y-391668D02*
X1020160Y-361188D01*
X974440Y-391668D02*
X1004920Y-361188D01*
X964361Y-386507D02*
X989680Y-361188D01*
X964361Y-371268D02*
X974440Y-361188D01*
X1233520D02*
X1248760Y-345948D01*
X1218280Y-361188D02*
X1248760Y-330708D01*
X1203040Y-361188D02*
X1233520Y-330708D01*
X1187800Y-361188D02*
X1218280Y-330708D01*
X1172560Y-361188D02*
X1203040Y-330708D01*
X1157320Y-361188D02*
X1187800Y-330708D01*
X1142080Y-361188D02*
X1172560Y-330708D01*
X1126840Y-361188D02*
X1157320Y-330708D01*
X1111600Y-361188D02*
X1142080Y-330708D01*
X1096360Y-361188D02*
X1126840Y-330708D01*
X1081120Y-361188D02*
X1111600Y-330708D01*
X1065880Y-361188D02*
X1096360Y-330708D01*
X1050640Y-361188D02*
X1081120Y-330708D01*
X1035400Y-361188D02*
X1065880Y-330708D01*
X1020160Y-361188D02*
X1050640Y-330708D01*
X1004920Y-361188D02*
X1035400Y-330708D01*
X989680Y-361188D02*
X1020160Y-330708D01*
X974440Y-361188D02*
X1004920Y-330708D01*
X964361Y-356027D02*
X989680Y-330708D01*
X964361Y-340788D02*
X974440Y-330708D01*
X1233520D02*
X1248760Y-315468D01*
X1218280Y-330708D02*
X1248760Y-300228D01*
X1203040Y-330708D02*
X1233520Y-300228D01*
X1187800Y-330708D02*
X1218280Y-300228D01*
X1172560Y-330708D02*
X1203040Y-300228D01*
X1157320Y-330708D02*
X1187800Y-300228D01*
X1142080Y-330708D02*
X1172560Y-300228D01*
X1126840Y-330708D02*
X1157320Y-300228D01*
X1111600Y-330708D02*
X1142080Y-300228D01*
X1096360Y-330708D02*
X1126840Y-300228D01*
X1081120Y-330708D02*
X1111600Y-300228D01*
X1065880Y-330708D02*
X1096360Y-300228D01*
X1050640Y-330708D02*
X1081120Y-300228D01*
X1035400Y-330708D02*
X1065880Y-300228D01*
X1020160Y-330708D02*
X1050640Y-300228D01*
X1004920Y-330708D02*
X1035400Y-300228D01*
X989680Y-330708D02*
X1020160Y-300228D01*
X974440Y-330708D02*
X1004920Y-300228D01*
X964361Y-325547D02*
X989680Y-300228D01*
X964361Y-310308D02*
X974440Y-300228D01*
X669241Y-1157177D02*
X683046Y-1143373D01*
X653243Y-1157935D02*
X682204Y-1128975D01*
X638003Y-1157935D02*
X676696Y-1119242D01*
X634385Y-1146314D02*
X671118Y-1109580D01*
X623840Y-1141618D02*
X665540Y-1099919D01*
X608600Y-1141618D02*
X659962Y-1090257D01*
X594425Y-1140553D02*
X654383Y-1080595D01*
X587391Y-1132348D02*
X648805Y-1070933D01*
X574615Y-1129883D02*
X643227Y-1061272D01*
X549918Y-1154581D02*
X563932Y-1140567D01*
X534678Y-1154581D02*
X637649Y-1051610D01*
X519438Y-1154581D02*
X632071Y-1041948D01*
X504198Y-1154581D02*
X626492Y-1032286D01*
X488958Y-1154581D02*
X620914Y-1022625D01*
X473718Y-1154581D02*
X615336Y-1012963D01*
X458478Y-1154581D02*
X609758Y-1003301D01*
X443238Y-1154581D02*
X604179Y-993639D01*
X427998Y-1154581D02*
X598601Y-983977D01*
X412758Y-1154581D02*
X593023Y-974316D01*
X397518Y-1154581D02*
X587445Y-964654D01*
X395340Y-1141518D02*
X581866Y-954992D01*
X382278Y-1154581D02*
X384425Y-1152434D01*
X390812Y-1130807D02*
X576288Y-945330D01*
X367038Y-1154581D02*
X384425Y-1137194D01*
X351798Y-1154581D02*
X570710Y-935668D01*
X336558Y-1154581D02*
X565132Y-926007D01*
X321318Y-1154581D02*
X559554Y-916345D01*
X306078Y-1154581D02*
X553975Y-906683D01*
X290838Y-1154581D02*
X548397Y-897021D01*
X275598Y-1154581D02*
X542819Y-887360D01*
X260358Y-1154581D02*
X537241Y-877698D01*
X245118Y-1154581D02*
X531662Y-868036D01*
X229878Y-1154581D02*
X526084Y-858374D01*
X216321Y-1152898D02*
X520506Y-848713D01*
X215207Y-1138772D02*
X514928Y-839051D01*
X207864Y-1130874D02*
X509350Y-829389D01*
X181880Y-1141618D02*
X503771Y-819727D01*
X166640Y-1141618D02*
X498193Y-810066D01*
X151377Y-1141641D02*
X492615Y-800404D01*
X135083Y-1157935D02*
X145049Y-1147969D01*
X119843Y-1157935D02*
X487037Y-790742D01*
X106867Y-1155671D02*
X481458Y-781080D01*
X98974Y-1148325D02*
X475880Y-771418D01*
X95904Y-1136154D02*
X470302Y-761757D01*
X110571Y-1106247D02*
X464724Y-752095D01*
X131390Y-1070189D02*
X459146Y-742433D01*
X152208Y-1034131D02*
X453567Y-732771D01*
X173026Y-998073D02*
X447989Y-723110D01*
X193844Y-962014D02*
X442411Y-713448D01*
X214662Y-925956D02*
X436833Y-703786D01*
X235481Y-889898D02*
X431254Y-694124D01*
X256299Y-853840D02*
X425676Y-684462D01*
X277117Y-817782D02*
X420098Y-674801D01*
X297935Y-781723D02*
X414520Y-665139D01*
X318754Y-745665D02*
X408941Y-655477D01*
X339572Y-709607D02*
X402178Y-647000D01*
X360390Y-673549D02*
X390948Y-642990D01*
D147*
X2223810Y-1104500D02*
Y-1064513D01*
X2243804D01*
X2250468Y-1071177D01*
Y-1084506D01*
X2243804Y-1091171D01*
X2223810D01*
X2263797Y-1064513D02*
Y-1104500D01*
X2277126Y-1091171D01*
X2290455Y-1104500D01*
Y-1064513D01*
X2303784Y-1104500D02*
Y-1077842D01*
X2317113Y-1064513D01*
X2330442Y-1077842D01*
Y-1104500D01*
Y-1084506D01*
X2303784D01*
X2350436Y-1111164D02*
X2357100Y-1104500D01*
Y-1097835D01*
X2350436D01*
Y-1104500D01*
X2357100D01*
X2350436Y-1111164D01*
X2343771Y-1117829D01*
X2423745Y-1064513D02*
Y-1104500D01*
X2450403D01*
X2463732Y-1064513D02*
X2477061D01*
X2470397D01*
Y-1104500D01*
X2463732D01*
X2477061D01*
X2497055Y-1064513D02*
Y-1104500D01*
X2517048D01*
X2523713Y-1097835D01*
Y-1071177D01*
X2517048Y-1064513D01*
X2497055D01*
X2577029D02*
Y-1104500D01*
X2597023D01*
X2603687Y-1097835D01*
Y-1091171D01*
X2597023Y-1084506D01*
X2577029D01*
X2597023D01*
X2603687Y-1077842D01*
Y-1071177D01*
X2597023Y-1064513D01*
X2577029D01*
X2637010D02*
X2623681D01*
X2617016Y-1071177D01*
Y-1097835D01*
X2623681Y-1104500D01*
X2637010D01*
X2643674Y-1097835D01*
Y-1071177D01*
X2637010Y-1064513D01*
X2657003Y-1104500D02*
Y-1077842D01*
X2670332Y-1064513D01*
X2683661Y-1077842D01*
Y-1104500D01*
Y-1084506D01*
X2657003D01*
X2696990Y-1104500D02*
Y-1064513D01*
X2716984D01*
X2723648Y-1071177D01*
Y-1084506D01*
X2716984Y-1091171D01*
X2696990D01*
X2710319D02*
X2723648Y-1104500D01*
X2736978Y-1064513D02*
Y-1104500D01*
X2756971D01*
X2763635Y-1097835D01*
Y-1071177D01*
X2756971Y-1064513D01*
X2736978D01*
M02*
