G04*
G04 #@! TF.GenerationSoftware,Altium Limited,Altium Designer,19.0.12 (326)*
G04*
G04 Layer_Color=32896*
%FSLAX44Y44*%
%MOMM*%
G71*
G01*
G75*
%ADD19C,0.0500*%
%ADD82C,0.2540*%
%ADD148C,0.1524*%
D19*
X422136Y640793D02*
G03*
X422136Y640793I-21250J0D01*
G01*
X426867Y709393D02*
G03*
X374905Y709393I-25981J-15000D01*
G01*
X-25992Y15018D02*
G03*
X-11Y-29982I25981J-15000D01*
G01*
X376136Y151476D02*
G03*
X376136Y151476I-113750J0D01*
G01*
X653136D02*
G03*
X653136Y151476I-113750J0D01*
G01*
X801784Y-29982D02*
G03*
X827764Y15018I0J30000D01*
G01*
X759783Y-15982D02*
G03*
X749783Y-5982I-10000J0D01*
G01*
X697066Y-357D02*
G03*
X655284Y-9982I-19783J-9625D01*
G01*
X697066Y-357D02*
G03*
X706059Y-5982I8992J4375D01*
G01*
X408886Y2018D02*
G03*
X392886Y2018I-8000J0D01*
G01*
X146489Y-9982D02*
G03*
X104706Y-357I-22000J0D01*
G01*
X95714Y-5982D02*
G03*
X104706Y-357I0J10000D01*
G01*
X51989Y-5982D02*
G03*
X41989Y-15982I0J-10000D01*
G01*
X-25992Y15018D02*
X374905Y709393D01*
X-11Y-29982D02*
X41989D01*
X426867Y709393D02*
X827764Y15018D01*
X759783Y-29982D02*
X801784D01*
X759783D02*
Y-15982D01*
X706059Y-5982D02*
X749783D01*
X655284Y-24982D02*
Y-9982D01*
X408886Y-24982D02*
X655284D01*
X408886D02*
Y2018D01*
X392886Y-24982D02*
Y2018D01*
X146489Y-24982D02*
X392886D01*
X51989Y-5982D02*
X95714D01*
X146489Y-24982D02*
Y-9982D01*
X41989Y-29982D02*
Y-15982D01*
D82*
X-37000Y0D02*
X-6250D01*
X0Y-34250D02*
Y-6750D01*
X-266330Y-14742D02*
X-261250Y-29982D01*
X-256170Y-14742D01*
X-261250Y724393D02*
X-256170Y709153D01*
X-266330D02*
X-261250Y724393D01*
Y-29982D02*
Y289878D01*
Y381484D02*
Y724393D01*
X-263790Y-29982D02*
X-17500D01*
X-263790Y724393D02*
X390636D01*
X-30000Y-202750D02*
X-14760Y-197670D01*
X-30000Y-202750D02*
X-14760Y-207830D01*
X816544D02*
X831784Y-202750D01*
X816544Y-197670D02*
X831784Y-202750D01*
X-30000D02*
X344834D01*
X433901D02*
X831784D01*
X-30000Y-205290D02*
Y-13750D01*
X831784Y-205290D02*
Y-10232D01*
X422099Y715606D02*
X429283Y729974D01*
X422099Y715606D02*
X436468Y722790D01*
X422099Y715606D02*
X476029Y769535D01*
X493268D01*
X167584Y239094D02*
X181953Y231910D01*
X174769Y246278D02*
X181953Y231910D01*
X78089Y335773D02*
X181953Y231910D01*
X-11786Y335773D02*
X78089D01*
X619819Y231910D02*
X627004Y246278D01*
X619819Y231910D02*
X634188Y239094D01*
X619819Y231910D02*
X703509Y315599D01*
X764037D01*
X415912Y655819D02*
X423096Y670187D01*
X415912Y655819D02*
X430280Y663003D01*
X415912Y655819D02*
X475575Y715481D01*
X505066D01*
X-107750Y-29982D02*
X-102670Y-45222D01*
X-112830D02*
X-107750Y-29982D01*
X-112830Y15240D02*
X-107750Y0D01*
X-102670Y15240D01*
X-107750Y-55382D02*
Y-29982D01*
Y0D02*
Y25400D01*
X-110290Y0D02*
X-13000D01*
X-110290Y-29982D02*
X-10261D01*
X-45251Y-155580D02*
X-30011Y-150500D01*
X-45251Y-145420D02*
X-30011Y-150500D01*
X0D02*
X15240Y-145420D01*
X0Y-150500D02*
X15240Y-155580D01*
X-55411Y-150500D02*
X-30011D01*
X0D02*
X25400D01*
X0Y-153040D02*
Y-45520D01*
X-30011Y-153040D02*
Y-10232D01*
X598750Y775485D02*
X608907D01*
X603828D01*
Y760250D01*
X613985Y775485D02*
Y772946D01*
X619063Y767868D01*
X624142Y772946D01*
Y775485D01*
X619063Y767868D02*
Y760250D01*
X629220D02*
Y775485D01*
X636838D01*
X639377Y772946D01*
Y767868D01*
X636838Y765328D01*
X629220D01*
X644455Y760250D02*
Y762789D01*
X646994D01*
Y760250D01*
X644455D01*
X662229D02*
X657151Y765328D01*
Y770407D01*
X662229Y775485D01*
X669847Y772946D02*
X672386Y775485D01*
X677465D01*
X680004Y772946D01*
Y770407D01*
X677465Y767868D01*
X674925D01*
X677465D01*
X680004Y765328D01*
Y762789D01*
X677465Y760250D01*
X672386D01*
X669847Y762789D01*
X700317Y760250D02*
Y775485D01*
X707935D01*
X710474Y772946D01*
Y767868D01*
X707935Y765328D01*
X700317D01*
X715552Y775485D02*
Y760250D01*
X725709D01*
X740944Y772946D02*
X738405Y775485D01*
X733326D01*
X730787Y772946D01*
Y762789D01*
X733326Y760250D01*
X738405D01*
X740944Y762789D01*
X756179Y772946D02*
X753640Y775485D01*
X748561D01*
X746022Y772946D01*
Y770407D01*
X748561Y767868D01*
X753640D01*
X756179Y765328D01*
Y762789D01*
X753640Y760250D01*
X748561D01*
X746022Y762789D01*
X761257Y760250D02*
X766336Y765328D01*
Y770407D01*
X761257Y775485D01*
X-189593Y297696D02*
X-192132Y300235D01*
X-197211D01*
X-199750Y297696D01*
Y287539D01*
X-197211Y285000D01*
X-192132D01*
X-189593Y287539D01*
X-174358Y300235D02*
X-184515D01*
Y285000D01*
X-174358D01*
X-184515Y292617D02*
X-179437D01*
X-169280Y285000D02*
Y300235D01*
X-159123Y285000D01*
Y300235D01*
X-154045D02*
X-143888D01*
X-148966D01*
Y285000D01*
X-128653Y300235D02*
X-138810D01*
Y285000D01*
X-128653D01*
X-138810Y292617D02*
X-133731D01*
X-123575Y285000D02*
Y300235D01*
X-115957D01*
X-113418Y297696D01*
Y292617D01*
X-115957Y290078D01*
X-123575D01*
X-118496D02*
X-113418Y285000D01*
X-82948D02*
X-93104D01*
X-82948Y295157D01*
Y297696D01*
X-85487Y300235D01*
X-90565D01*
X-93104Y297696D01*
X-67713Y300235D02*
X-72791Y297696D01*
X-77869Y292617D01*
Y287539D01*
X-75330Y285000D01*
X-70252D01*
X-67713Y287539D01*
Y290078D01*
X-70252Y292617D01*
X-77869D01*
X-62634Y285000D02*
Y287539D01*
X-60095D01*
Y285000D01*
X-62634D01*
X-39782D02*
X-49939D01*
X-39782Y295157D01*
Y297696D01*
X-42321Y300235D01*
X-47399D01*
X-49939Y297696D01*
X-34703D02*
X-32164Y300235D01*
X-27086D01*
X-24547Y297696D01*
Y295157D01*
X-27086Y292617D01*
X-29625D01*
X-27086D01*
X-24547Y290078D01*
Y287539D01*
X-27086Y285000D01*
X-32164D01*
X-34703Y287539D01*
X-19468D02*
X-16929Y285000D01*
X-11851D01*
X-9312Y287539D01*
Y297696D01*
X-11851Y300235D01*
X-16929D01*
X-19468Y297696D01*
Y295157D01*
X-16929Y292617D01*
X-9312D01*
X-4233Y300235D02*
X5924Y285000D01*
Y300235D02*
X-4233Y285000D01*
X11002D02*
X16080D01*
X13541D01*
Y300235D01*
X11002Y297696D01*
X33854Y300235D02*
X23698D01*
Y292617D01*
X28776Y295157D01*
X31315D01*
X33854Y292617D01*
Y287539D01*
X31315Y285000D01*
X26237D01*
X23698Y287539D01*
X38933Y285000D02*
Y287539D01*
X41472D01*
Y285000D01*
X38933D01*
X51629D02*
X56707D01*
X54168D01*
Y300235D01*
X51629Y297696D01*
X71942Y285000D02*
Y300235D01*
X64325Y292617D01*
X74481D01*
X79560Y297696D02*
X82099Y300235D01*
X87177D01*
X89716Y297696D01*
Y295157D01*
X87177Y292617D01*
X89716Y290078D01*
Y287539D01*
X87177Y285000D01*
X82099D01*
X79560Y287539D01*
Y290078D01*
X82099Y292617D01*
X79560Y295157D01*
Y297696D01*
X82099Y292617D02*
X87177D01*
X718036Y286254D02*
X715497Y288793D01*
X710419D01*
X707880Y286254D01*
Y276097D01*
X710419Y273558D01*
X715497D01*
X718036Y276097D01*
X733272Y288793D02*
X723115D01*
Y273558D01*
X733272D01*
X723115Y281175D02*
X728193D01*
X738350Y273558D02*
Y288793D01*
X748507Y273558D01*
Y288793D01*
X753585D02*
X763742D01*
X758663D01*
Y273558D01*
X778977Y288793D02*
X768820D01*
Y273558D01*
X778977D01*
X768820Y281175D02*
X773898D01*
X784055Y273558D02*
Y288793D01*
X791673D01*
X794212Y286254D01*
Y281175D01*
X791673Y278636D01*
X784055D01*
X789134D02*
X794212Y273558D01*
X824682Y288793D02*
X814525D01*
Y281175D01*
X819604Y283715D01*
X822143D01*
X824682Y281175D01*
Y276097D01*
X822143Y273558D01*
X817065D01*
X814525Y276097D01*
X829760Y286254D02*
X832300Y288793D01*
X837378D01*
X839917Y286254D01*
Y283715D01*
X837378Y281175D01*
X834839D01*
X837378D01*
X839917Y278636D01*
Y276097D01*
X837378Y273558D01*
X832300D01*
X829760Y276097D01*
X844995Y273558D02*
Y276097D01*
X847535D01*
Y273558D01*
X844995D01*
X857691Y276097D02*
X860230Y273558D01*
X865309D01*
X867848Y276097D01*
Y286254D01*
X865309Y288793D01*
X860230D01*
X857691Y286254D01*
Y283715D01*
X860230Y281175D01*
X867848D01*
X872926Y286254D02*
X875466Y288793D01*
X880544D01*
X883083Y286254D01*
Y283715D01*
X880544Y281175D01*
X878005D01*
X880544D01*
X883083Y278636D01*
Y276097D01*
X880544Y273558D01*
X875466D01*
X872926Y276097D01*
X888161D02*
X890701Y273558D01*
X895779D01*
X898318Y276097D01*
Y286254D01*
X895779Y288793D01*
X890701D01*
X888161Y286254D01*
Y283715D01*
X890701Y281175D01*
X898318D01*
X903397Y288793D02*
X913553Y273558D01*
Y288793D02*
X903397Y273558D01*
X918632D02*
X923710D01*
X921171D01*
Y288793D01*
X918632Y286254D01*
X941484Y288793D02*
X931328D01*
Y281175D01*
X936406Y283715D01*
X938945D01*
X941484Y281175D01*
Y276097D01*
X938945Y273558D01*
X933867D01*
X931328Y276097D01*
X946563Y273558D02*
Y276097D01*
X949102D01*
Y273558D01*
X946563D01*
X959258D02*
X964337D01*
X961798D01*
Y288793D01*
X959258Y286254D01*
X979572Y273558D02*
Y288793D01*
X971954Y281175D01*
X982111D01*
X987189Y286254D02*
X989729Y288793D01*
X994807D01*
X997346Y286254D01*
Y283715D01*
X994807Y281175D01*
X997346Y278636D01*
Y276097D01*
X994807Y273558D01*
X989729D01*
X987189Y276097D01*
Y278636D01*
X989729Y281175D01*
X987189Y283715D01*
Y286254D01*
X989729Y281175D02*
X994807D01*
X524157Y680696D02*
X521618Y683235D01*
X516539D01*
X514000Y680696D01*
Y670539D01*
X516539Y668000D01*
X521618D01*
X524157Y670539D01*
X539392Y683235D02*
X529235D01*
Y668000D01*
X539392D01*
X529235Y675618D02*
X534313D01*
X544470Y668000D02*
Y683235D01*
X554627Y668000D01*
Y683235D01*
X559705D02*
X569862D01*
X564784D01*
Y668000D01*
X585097Y683235D02*
X574940D01*
Y668000D01*
X585097D01*
X574940Y675618D02*
X580019D01*
X590175Y668000D02*
Y683235D01*
X597793D01*
X600332Y680696D01*
Y675618D01*
X597793Y673078D01*
X590175D01*
X595254D02*
X600332Y668000D01*
X628263D02*
Y683235D01*
X620645Y675618D01*
X630802D01*
X635881Y680696D02*
X638420Y683235D01*
X643498D01*
X646037Y680696D01*
Y670539D01*
X643498Y668000D01*
X638420D01*
X635881Y670539D01*
Y680696D01*
X651116Y668000D02*
Y670539D01*
X653655D01*
Y668000D01*
X651116D01*
X663811Y680696D02*
X666351Y683235D01*
X671429D01*
X673968Y680696D01*
Y670539D01*
X671429Y668000D01*
X666351D01*
X663811Y670539D01*
Y680696D01*
X679047D02*
X681586Y683235D01*
X686664D01*
X689203Y680696D01*
Y678157D01*
X686664Y675618D01*
X689203Y673078D01*
Y670539D01*
X686664Y668000D01*
X681586D01*
X679047Y670539D01*
Y673078D01*
X681586Y675618D01*
X679047Y678157D01*
Y680696D01*
X681586Y675618D02*
X686664D01*
X694282Y670539D02*
X696821Y668000D01*
X701899D01*
X704438Y670539D01*
Y680696D01*
X701899Y683235D01*
X696821D01*
X694282Y680696D01*
Y678157D01*
X696821Y675618D01*
X704438D01*
X709517Y683235D02*
X719673Y668000D01*
Y683235D02*
X709517Y668000D01*
X734909Y683235D02*
X729830Y680696D01*
X724752Y675618D01*
Y670539D01*
X727291Y668000D01*
X732369D01*
X734909Y670539D01*
Y673078D01*
X732369Y675618D01*
X724752D01*
X747604Y668000D02*
Y683235D01*
X739987Y675618D01*
X750144D01*
X755222Y668000D02*
Y670539D01*
X757761D01*
Y668000D01*
X755222D01*
X767918Y680696D02*
X770457Y683235D01*
X775535D01*
X778075Y680696D01*
Y670539D01*
X775535Y668000D01*
X770457D01*
X767918Y670539D01*
Y680696D01*
X783153Y683235D02*
X793310D01*
Y680696D01*
X783153Y670539D01*
Y668000D01*
X798388Y670539D02*
X800927Y668000D01*
X806005D01*
X808545Y670539D01*
Y680696D01*
X806005Y683235D01*
X800927D01*
X798388Y680696D01*
Y678157D01*
X800927Y675618D01*
X808545D01*
D148*
X-267344Y301402D02*
Y311559D01*
X-264804D01*
X-254648Y301402D01*
X-252108D01*
X-267344Y326794D02*
Y316637D01*
X-259726D01*
X-262265Y321716D01*
Y324255D01*
X-259726Y326794D01*
X-254648D01*
X-252108Y324255D01*
Y319177D01*
X-254648Y316637D01*
X-252108Y331873D02*
X-254648D01*
Y334412D01*
X-252108D01*
Y331873D01*
Y352186D02*
X-267344D01*
X-259726Y344568D01*
Y354725D01*
X-252108Y367421D02*
X-267344D01*
X-259726Y359804D01*
Y369960D01*
X356358Y-199196D02*
X358898Y-196656D01*
X363976D01*
X366515Y-199196D01*
Y-201735D01*
X363976Y-204274D01*
X366515Y-206813D01*
Y-209352D01*
X363976Y-211891D01*
X358898D01*
X356358Y-209352D01*
Y-206813D01*
X358898Y-204274D01*
X356358Y-201735D01*
Y-199196D01*
X358898Y-204274D02*
X363976D01*
X381750Y-196656D02*
X376672Y-199196D01*
X371594Y-204274D01*
Y-209352D01*
X374133Y-211891D01*
X379211D01*
X381750Y-209352D01*
Y-206813D01*
X379211Y-204274D01*
X371594D01*
X386829Y-211891D02*
Y-209352D01*
X389368D01*
Y-211891D01*
X386829D01*
X399524D02*
X404603D01*
X402064D01*
Y-196656D01*
X399524Y-199196D01*
X412220D02*
X414759Y-196656D01*
X419838D01*
X422377Y-199196D01*
Y-201735D01*
X419838Y-204274D01*
X422377Y-206813D01*
Y-209352D01*
X419838Y-211891D01*
X414759D01*
X412220Y-209352D01*
Y-206813D01*
X414759Y-204274D01*
X412220Y-201735D01*
Y-199196D01*
X414759Y-204274D02*
X419838D01*
X503268Y760394D02*
Y775629D01*
X510885D01*
X513425Y773090D01*
Y768011D01*
X510885Y765472D01*
X503268D01*
X508346D02*
X513425Y760394D01*
X533738Y773090D02*
X536277Y775629D01*
X541356D01*
X543895Y773090D01*
Y770551D01*
X541356Y768011D01*
X538816D01*
X541356D01*
X543895Y765472D01*
Y762933D01*
X541356Y760394D01*
X536277D01*
X533738Y762933D01*
X548973Y760394D02*
Y762933D01*
X551512D01*
Y760394D01*
X548973D01*
X561669Y773090D02*
X564208Y775629D01*
X569286D01*
X571826Y773090D01*
Y762933D01*
X569286Y760394D01*
X564208D01*
X561669Y762933D01*
Y773090D01*
X576904D02*
X579443Y775629D01*
X584522D01*
X587061Y773090D01*
Y762933D01*
X584522Y760394D01*
X579443D01*
X576904Y762933D01*
Y773090D01*
X-118784Y326632D02*
Y341866D01*
X-111166D01*
X-108627Y339327D01*
Y334249D01*
X-111166Y331710D01*
X-118784D01*
X-113706D02*
X-108627Y326632D01*
X-88314D02*
X-83235D01*
X-85774D01*
Y341866D01*
X-88314Y339327D01*
X-75618Y326632D02*
X-70539D01*
X-73079D01*
Y341866D01*
X-75618Y339327D01*
X-62922Y326632D02*
Y329171D01*
X-60383D01*
Y326632D01*
X-62922D01*
X-50226Y339327D02*
X-47687Y341866D01*
X-42608D01*
X-40069Y339327D01*
Y336788D01*
X-42608Y334249D01*
X-45148D01*
X-42608D01*
X-40069Y331710D01*
Y329171D01*
X-42608Y326632D01*
X-47687D01*
X-50226Y329171D01*
X-34991Y339327D02*
X-32452Y341866D01*
X-27373D01*
X-24834Y339327D01*
Y336788D01*
X-27373Y334249D01*
X-24834Y331710D01*
Y329171D01*
X-27373Y326632D01*
X-32452D01*
X-34991Y329171D01*
Y331710D01*
X-32452Y334249D01*
X-34991Y336788D01*
Y339327D01*
X-32452Y334249D02*
X-27373D01*
X774037Y306458D02*
Y321693D01*
X781655D01*
X784194Y319154D01*
Y314076D01*
X781655Y311536D01*
X774037D01*
X779116D02*
X784194Y306458D01*
X804507D02*
X809586D01*
X807046D01*
Y321693D01*
X804507Y319154D01*
X817203Y306458D02*
X822281D01*
X819742D01*
Y321693D01*
X817203Y319154D01*
X829899Y306458D02*
Y308997D01*
X832438D01*
Y306458D01*
X829899D01*
X842595Y319154D02*
X845134Y321693D01*
X850212D01*
X852752Y319154D01*
Y316615D01*
X850212Y314076D01*
X847673D01*
X850212D01*
X852752Y311536D01*
Y308997D01*
X850212Y306458D01*
X845134D01*
X842595Y308997D01*
X857830Y319154D02*
X860369Y321693D01*
X865447D01*
X867987Y319154D01*
Y316615D01*
X865447Y314076D01*
X867987Y311536D01*
Y308997D01*
X865447Y306458D01*
X860369D01*
X857830Y308997D01*
Y311536D01*
X860369Y314076D01*
X857830Y316615D01*
Y319154D01*
X860369Y314076D02*
X865447D01*
X515066Y706340D02*
Y721575D01*
X522683D01*
X525222Y719036D01*
Y713957D01*
X522683Y711418D01*
X515066D01*
X520144D02*
X525222Y706340D01*
X555692D02*
X545536D01*
X555692Y716496D01*
Y719036D01*
X553153Y721575D01*
X548075D01*
X545536Y719036D01*
X560771Y706340D02*
Y708879D01*
X563310D01*
Y706340D01*
X560771D01*
X573467D02*
X578545D01*
X576006D01*
Y721575D01*
X573467Y719036D01*
X586163D02*
X588702Y721575D01*
X593780D01*
X596319Y719036D01*
Y716496D01*
X593780Y713957D01*
X591241D01*
X593780D01*
X596319Y711418D01*
Y708879D01*
X593780Y706340D01*
X588702D01*
X586163Y708879D01*
X-111304Y-121753D02*
X-113843Y-119214D01*
Y-114135D01*
X-111304Y-111596D01*
X-108765D01*
X-106226Y-114135D01*
Y-116674D01*
Y-114135D01*
X-103687Y-111596D01*
X-101148D01*
X-98609Y-114135D01*
Y-119214D01*
X-101148Y-121753D01*
X-98609Y-106518D02*
X-101148D01*
Y-103979D01*
X-98609D01*
Y-106518D01*
X-111304Y-93822D02*
X-113843Y-91283D01*
Y-86204D01*
X-111304Y-83665D01*
X-101148D01*
X-98609Y-86204D01*
Y-91283D01*
X-101148Y-93822D01*
X-111304D01*
Y-78587D02*
X-113843Y-76048D01*
Y-70969D01*
X-111304Y-68430D01*
X-101148D01*
X-98609Y-70969D01*
Y-76048D01*
X-101148Y-78587D01*
X-111304D01*
X-121782Y-146946D02*
X-119243Y-144406D01*
X-114165D01*
X-111625Y-146946D01*
Y-149485D01*
X-114165Y-152024D01*
X-116704D01*
X-114165D01*
X-111625Y-154563D01*
Y-157102D01*
X-114165Y-159642D01*
X-119243D01*
X-121782Y-157102D01*
X-106547Y-159642D02*
Y-157102D01*
X-104008D01*
Y-159642D01*
X-106547D01*
X-93851Y-146946D02*
X-91312Y-144406D01*
X-86234D01*
X-83694Y-146946D01*
Y-157102D01*
X-86234Y-159642D01*
X-91312D01*
X-93851Y-157102D01*
Y-146946D01*
X-78616D02*
X-76077Y-144406D01*
X-70999D01*
X-68459Y-146946D01*
Y-157102D01*
X-70999Y-159642D01*
X-76077D01*
X-78616Y-157102D01*
Y-146946D01*
M02*
