G04*
G04 #@! TF.GenerationSoftware,Altium Limited,Altium Designer,19.0.12 (326)*
G04*
G04 Layer_Color=65535*
%FSLAX44Y44*%
%MOMM*%
G71*
G01*
G75*
%ADD10C,0.2500*%
%ADD11C,0.4000*%
%ADD12C,0.1000*%
%ADD13C,0.1270*%
%ADD14C,0.2000*%
%ADD15C,0.1981*%
%ADD16C,0.1700*%
%ADD17C,0.2032*%
%ADD18C,0.0762*%
%ADD19C,0.0500*%
D10*
X320216Y544925D02*
G03*
X320216Y544925I-1250J0D01*
G01*
X286999Y32004D02*
G03*
X286999Y32004I-1250J0D01*
G01*
X368010Y495384D02*
G03*
X368010Y495384I-1250J0D01*
G01*
X483320Y24502D02*
G03*
X483320Y24502I-1250J0D01*
G01*
X424948Y370270D02*
G03*
X424948Y370270I-1250J0D01*
G01*
D11*
X384279Y365788D02*
G03*
X384279Y365788I-1250J0D01*
G01*
X531006Y412474D02*
Y441474D01*
D12*
X220494Y10497D02*
G03*
X220494Y10497I-500J0D01*
G01*
X342887Y337384D02*
Y346384D01*
X362637D01*
Y337384D02*
Y346384D01*
X342887Y337384D02*
X362637D01*
X342890Y327224D02*
Y336224D01*
X362640D01*
Y327224D02*
Y336224D01*
X342890Y327224D02*
X362640D01*
X342890Y317064D02*
Y326064D01*
X362640D01*
Y317064D02*
Y326064D01*
X342890Y317064D02*
X362640D01*
X342887Y306904D02*
X362637D01*
Y315904D01*
X342887D02*
X362637D01*
X342887Y306904D02*
Y315904D01*
X342890Y296744D02*
X362640D01*
Y305744D01*
X342890D02*
X362640D01*
X342890Y296744D02*
Y305744D01*
D13*
X488522Y449834D02*
X496142D01*
X488522D02*
Y459994D01*
X496142D01*
X501222D02*
X508842D01*
Y449834D02*
Y459994D01*
X501222Y449834D02*
X508842D01*
X488522Y461772D02*
X496142D01*
X488522D02*
Y471932D01*
X496142D01*
X501222D02*
X508842D01*
Y461772D02*
Y471932D01*
X501222Y461772D02*
X508842D01*
X634777Y35560D02*
X648747D01*
Y15240D02*
Y35560D01*
X634777Y15240D02*
X648747D01*
X615727D02*
X629697D01*
X615727D02*
Y35560D01*
X629697D01*
X632660Y64098D02*
X642538Y73976D01*
X656907Y59608D01*
X647028Y49730D02*
X656907Y59608D01*
X633558Y36260D02*
X643436Y46138D01*
X619189Y50628D02*
X633558Y36260D01*
X619189Y50628D02*
X629068Y60506D01*
X419354Y74422D02*
Y82042D01*
X429514D01*
Y74422D02*
Y82042D01*
Y61722D02*
Y69342D01*
X419354Y61722D02*
X429514D01*
X419354D02*
Y69342D01*
X466344Y307086D02*
Y314706D01*
X456184D02*
X466344D01*
X456184Y307086D02*
Y314706D01*
Y294386D02*
Y302006D01*
Y294386D02*
X466344D01*
Y302006D01*
X630682Y-7874D02*
X638302D01*
X630682Y-18034D02*
Y-7874D01*
Y-18034D02*
X638302D01*
X643382D02*
X651002D01*
Y-7874D01*
X643382D02*
X651002D01*
X208534Y-8308D02*
X216154D01*
Y1852D01*
X208534D02*
X216154D01*
X195834D02*
X203454D01*
X195834Y-8308D02*
Y1852D01*
Y-8308D02*
X203454D01*
X208660Y28356D02*
X216280D01*
Y18196D02*
Y28356D01*
X208660Y18196D02*
X216280D01*
X195960D02*
X203580D01*
X195960D02*
Y28356D01*
X203580D01*
X426404Y473574D02*
Y481194D01*
X416244Y473574D02*
X426404D01*
X416244D02*
Y481194D01*
Y486274D02*
Y493894D01*
X426404D01*
Y486274D02*
Y493894D01*
X404560Y486274D02*
Y493894D01*
X414720D01*
Y486274D02*
Y493894D01*
Y473574D02*
Y481194D01*
X404560Y473574D02*
X414720D01*
X404560D02*
Y481194D01*
X372872Y362458D02*
X380492D01*
X372872Y352298D02*
Y362458D01*
Y352298D02*
X380492D01*
X385572D02*
X393192D01*
Y362458D01*
X385572D02*
X393192D01*
X409728Y334128D02*
X417348D01*
Y344288D01*
X409728D02*
X417348D01*
X397028D02*
X404648D01*
X397028Y334128D02*
Y344288D01*
Y334128D02*
X404648D01*
X409728Y322356D02*
X417348D01*
Y312196D02*
Y322356D01*
X409728Y312196D02*
X417348D01*
X397028D02*
X404648D01*
X397028D02*
Y322356D01*
X404648D01*
X397028Y323314D02*
X404648D01*
X397028D02*
Y333474D01*
X404648D01*
X409728D02*
X417348D01*
Y323314D02*
Y333474D01*
X409728Y323314D02*
X417348D01*
X492760Y327366D02*
Y334986D01*
X482600D02*
X492760D01*
X482600Y327366D02*
Y334986D01*
Y314666D02*
Y322286D01*
Y314666D02*
X492760D01*
Y322286D01*
X440299Y307458D02*
Y315078D01*
X450459D01*
Y307458D02*
Y315078D01*
Y294758D02*
Y302378D01*
X440299Y294758D02*
X450459D01*
X440299D02*
Y302378D01*
X397194Y307966D02*
X404814D01*
X397194Y297806D02*
Y307966D01*
Y297806D02*
X404814D01*
X409894D02*
X417514D01*
Y307966D01*
X409894D02*
X417514D01*
X440115Y307508D02*
Y315128D01*
X429955D02*
X440115D01*
X429955Y307508D02*
Y315128D01*
Y294808D02*
Y302428D01*
Y294808D02*
X440115D01*
Y302428D01*
X429577Y294808D02*
Y302428D01*
X419417Y294808D02*
X429577D01*
X419417D02*
Y302428D01*
Y307508D02*
Y315128D01*
X429577D01*
Y307508D02*
Y315128D01*
D14*
X583636Y333750D02*
X587254Y327812D01*
X574746D02*
X578810Y333750D01*
X587254Y327812D02*
X593096D01*
X578810Y333750D02*
X583636D01*
X568904Y327812D02*
X574746D01*
X559506Y373532D02*
X569151D01*
X592849D02*
X602494D01*
X223386Y333750D02*
X227004Y327812D01*
X214496D02*
X218560Y333750D01*
X227004Y327812D02*
X232846D01*
X218560Y333750D02*
X223386D01*
X208654Y327812D02*
X214496D01*
X199256Y373532D02*
X208901D01*
X232599D02*
X242244D01*
X324644Y590146D02*
X342299Y579953D01*
X326729Y547371D02*
X331492Y544621D01*
X331493Y544623D02*
X341909Y562664D01*
X299452Y563119D02*
X304213Y560371D01*
X299450Y563123D02*
X309867Y581164D01*
X368270Y399157D02*
Y411157D01*
X428270Y399157D02*
Y411157D01*
X392270Y375157D02*
X404270D01*
X392270Y435157D02*
X404270D01*
X395769Y385058D02*
X400769D01*
X418369Y402658D02*
Y407658D01*
X395769Y425258D02*
X400769D01*
X378169Y402658D02*
Y407658D01*
X267750Y-17998D02*
Y-15998D01*
Y14002D02*
Y26002D01*
X287750D01*
X267749Y-17998D02*
X373750D01*
X353750Y26002D02*
X373750D01*
Y14002D02*
Y26002D01*
Y-17998D02*
Y-15998D01*
X373260Y494884D02*
Y496884D01*
X377010D01*
X394010D02*
X397760D01*
Y494884D02*
Y496884D01*
Y472384D02*
Y474384D01*
X394010Y472384D02*
X397760D01*
X373260D02*
Y474384D01*
Y472384D02*
X377010D01*
X469180Y34952D02*
X604180D01*
Y-3298D02*
Y34952D01*
X484930Y-24048D02*
X588430D01*
X469180Y-3298D02*
Y34952D01*
X500772Y337748D02*
Y345748D01*
X525772Y337748D02*
Y345748D01*
X475856Y441474D02*
X521856D01*
X475856Y412474D02*
X521856D01*
X475856Y439174D02*
Y441474D01*
X521856Y439174D02*
Y441474D01*
Y412474D02*
Y414774D01*
X475856Y412474D02*
Y414774D01*
X430198Y328770D02*
X433698D01*
X430198D02*
Y332270D01*
X469698Y328770D02*
X473198D01*
Y332270D01*
Y368270D02*
Y371770D01*
X469698D02*
X473198D01*
X430198D02*
X433698D01*
X430198Y368270D02*
Y371770D01*
D15*
X559506Y373532D02*
X559510Y341528D01*
X602490D02*
X602494Y373532D01*
X199256D02*
X199260Y341528D01*
X242240D02*
X242244Y373532D01*
X388735Y264500D02*
X413385D01*
X388735Y198500D02*
X413385D01*
X434060Y198500D02*
Y264500D01*
X429060D02*
X434060D01*
X429060Y198500D02*
X434060D01*
X368060Y264500D02*
X373060D01*
X368060Y198500D02*
X373060D01*
X368060D02*
Y264500D01*
D16*
X330852Y293464D02*
X348852D01*
X330852Y273464D02*
X348852D01*
D17*
X651002Y-8382D02*
X653288Y-6096D01*
Y7587D01*
X665259Y19558D01*
X667258D01*
X325907Y347216D02*
X324638Y348485D01*
X322099D01*
X320829Y347216D01*
Y342138D01*
X322099Y340868D01*
X324638D01*
X325907Y342138D01*
X333525Y348485D02*
X330986Y347216D01*
X328447Y344677D01*
Y342138D01*
X329716Y340868D01*
X332255D01*
X333525Y342138D01*
Y343407D01*
X332255Y344677D01*
X328447D01*
X325405Y335278D02*
X324136Y336548D01*
X321597D01*
X320327Y335278D01*
Y330200D01*
X321597Y328930D01*
X324136D01*
X325405Y330200D01*
X333023Y336548D02*
X327945D01*
Y332739D01*
X330484Y334008D01*
X331753D01*
X333023Y332739D01*
Y330200D01*
X331753Y328930D01*
X329214D01*
X327945Y330200D01*
X325755Y323594D02*
X324486Y324864D01*
X321946D01*
X320677Y323594D01*
Y318516D01*
X321946Y317246D01*
X324486D01*
X325755Y318516D01*
X332103Y317246D02*
Y324864D01*
X328294Y321055D01*
X333373D01*
X512572Y463296D02*
Y470914D01*
X516381D01*
X517650Y469644D01*
Y467105D01*
X516381Y465835D01*
X512572D01*
X515111D02*
X517650Y463296D01*
X525268D02*
X520190D01*
X525268Y468374D01*
Y469644D01*
X523998Y470914D01*
X521459D01*
X520190Y469644D01*
X513842Y449834D02*
Y457452D01*
X517651D01*
X518920Y456182D01*
Y453643D01*
X517651Y452373D01*
X513842D01*
X516381D02*
X518920Y449834D01*
X521460D02*
X523999D01*
X522729D01*
Y457452D01*
X521460Y456182D01*
X650442Y48058D02*
X655828Y42672D01*
X659419Y46263D01*
X664805Y51649D02*
X661214Y48058D01*
Y55240D01*
X660317Y56138D01*
X658521Y56138D01*
X656726Y54343D01*
Y52547D01*
X653065Y35661D02*
Y28044D01*
X658143D01*
X660682D02*
X663221D01*
X661952D01*
Y35661D01*
X660682Y34392D01*
X339604Y547957D02*
X338335Y545758D01*
X338969Y546857D01*
X344467Y543683D01*
X344932Y541949D01*
X344297Y540849D01*
X342562Y540385D01*
X343413Y554554D02*
X340874Y550156D01*
X344172Y548251D01*
X344342Y551085D01*
X344977Y552185D01*
X346711Y552649D01*
X348910Y551380D01*
X349375Y549646D01*
X348106Y547447D01*
X346371Y546982D01*
X454663Y18449D02*
Y15910D01*
Y17180D01*
X461010D01*
X462280Y15910D01*
Y14641D01*
X461010Y13371D01*
X462280Y24797D02*
X454663D01*
X458471Y20989D01*
Y26067D01*
X194564Y32004D02*
Y39622D01*
X198373D01*
X199642Y38352D01*
Y35813D01*
X198373Y34543D01*
X194564D01*
X197103D02*
X199642Y32004D01*
X202181Y38352D02*
X203451Y39622D01*
X205990D01*
X207260Y38352D01*
Y37082D01*
X205990Y35813D01*
X204721D01*
X205990D01*
X207260Y34543D01*
Y33274D01*
X205990Y32004D01*
X203451D01*
X202181Y33274D01*
X213608Y32004D02*
Y39622D01*
X209799Y35813D01*
X214877D01*
X371856Y309118D02*
Y316735D01*
X375665D01*
X376934Y315466D01*
Y312927D01*
X375665Y311657D01*
X371856D01*
X374395D02*
X376934Y309118D01*
X384552D02*
X379473D01*
X384552Y314196D01*
Y315466D01*
X383282Y316735D01*
X380743D01*
X379473Y315466D01*
X392169Y316735D02*
X387091D01*
Y312927D01*
X389630Y314196D01*
X390900D01*
X392169Y312927D01*
Y310388D01*
X390900Y309118D01*
X388361D01*
X387091Y310388D01*
X371270Y322072D02*
Y329689D01*
X375079D01*
X376348Y328420D01*
Y325881D01*
X375079Y324611D01*
X371270D01*
X373809D02*
X376348Y322072D01*
X383966D02*
X378888D01*
X383966Y327150D01*
Y328420D01*
X382696Y329689D01*
X380157D01*
X378888Y328420D01*
X390314Y322072D02*
Y329689D01*
X386505Y325881D01*
X391584D01*
X449198Y275108D02*
X442850D01*
Y278282D01*
X443908Y279340D01*
X446024D01*
X447082Y278282D01*
Y275108D01*
Y277224D02*
X449198Y279340D01*
Y285688D02*
Y281456D01*
X444966Y285688D01*
X443908D01*
X442850Y284630D01*
Y282514D01*
X443908Y281456D01*
X449198Y292036D02*
Y287804D01*
X444966Y292036D01*
X443908D01*
X442850Y290978D01*
Y288862D01*
X443908Y287804D01*
X410848Y283972D02*
Y291590D01*
X414657D01*
X415926Y290320D01*
Y287781D01*
X414657Y286511D01*
X410848D01*
X413387D02*
X415926Y283972D01*
X423544D02*
X418465D01*
X423544Y289050D01*
Y290320D01*
X422274Y291590D01*
X419735D01*
X418465Y290320D01*
X426083Y283972D02*
X428622D01*
X427352D01*
Y291590D01*
X426083Y290320D01*
X376934Y303782D02*
X375665Y305051D01*
X373126D01*
X371856Y303782D01*
Y298704D01*
X373126Y297434D01*
X375665D01*
X376934Y298704D01*
X379473Y303782D02*
X380743Y305051D01*
X383282D01*
X384552Y303782D01*
Y302512D01*
X383282Y301243D01*
X382013D01*
X383282D01*
X384552Y299973D01*
Y298704D01*
X383282Y297434D01*
X380743D01*
X379473Y298704D01*
X387091Y297434D02*
X389630D01*
X388361D01*
Y305051D01*
X387091Y303782D01*
X432564Y277366D02*
X431295Y276097D01*
Y273558D01*
X432564Y272288D01*
X437642D01*
X438912Y273558D01*
Y276097D01*
X437642Y277366D01*
X432564Y279905D02*
X431295Y281175D01*
Y283714D01*
X432564Y284984D01*
X433834D01*
X435103Y283714D01*
Y282445D01*
Y283714D01*
X436373Y284984D01*
X437642D01*
X438912Y283714D01*
Y281175D01*
X437642Y279905D01*
X432564Y287523D02*
X431295Y288793D01*
Y291332D01*
X432564Y292601D01*
X437642D01*
X438912Y291332D01*
Y288793D01*
X437642Y287523D01*
X432564D01*
X353058Y361948D02*
X351789Y363218D01*
X349250D01*
X347980Y361948D01*
Y356870D01*
X349250Y355600D01*
X351789D01*
X353058Y356870D01*
X360676Y355600D02*
X355597D01*
X360676Y360678D01*
Y361948D01*
X359406Y363218D01*
X356867D01*
X355597Y361948D01*
X363215Y356870D02*
X364485Y355600D01*
X367024D01*
X368293Y356870D01*
Y361948D01*
X367024Y363218D01*
X364485D01*
X363215Y361948D01*
Y360678D01*
X364485Y359409D01*
X368293D01*
X376366Y510148D02*
Y503800D01*
X377636Y502530D01*
X380175D01*
X381444Y503800D01*
Y510148D01*
X389062D02*
X386523Y508878D01*
X383983Y506339D01*
Y503800D01*
X385253Y502530D01*
X387792D01*
X389062Y503800D01*
Y505069D01*
X387792Y506339D01*
X383983D01*
X414468Y347980D02*
X420815D01*
X422085Y349250D01*
Y351789D01*
X420815Y353058D01*
X414468D01*
Y360676D02*
Y355597D01*
X418276D01*
X417007Y358137D01*
Y359406D01*
X418276Y360676D01*
X420815D01*
X422085Y359406D01*
Y356867D01*
X420815Y355597D01*
X350263Y383058D02*
X355342D01*
X352802D01*
Y375440D01*
X357881D02*
X360420D01*
X359150D01*
Y383058D01*
X357881Y381788D01*
X484680Y302906D02*
Y310523D01*
X488489D01*
X489758Y309254D01*
Y306715D01*
X488489Y305445D01*
X484680D01*
X487219D02*
X489758Y302906D01*
X497376D02*
X492298D01*
X497376Y307984D01*
Y309254D01*
X496106Y310523D01*
X493567D01*
X492298Y309254D01*
X504993Y310523D02*
X502454Y309254D01*
X499915Y306715D01*
Y304175D01*
X501185Y302906D01*
X503724D01*
X504993Y304175D01*
Y305445D01*
X503724Y306715D01*
X499915D01*
X470408Y293370D02*
Y300987D01*
X474217D01*
X475486Y299718D01*
Y297179D01*
X474217Y295909D01*
X470408D01*
X472947D02*
X475486Y293370D01*
X483104D02*
X478026D01*
X483104Y298448D01*
Y299718D01*
X481834Y300987D01*
X479295D01*
X478026Y299718D01*
X485643D02*
X486913Y300987D01*
X489452D01*
X490721Y299718D01*
Y294640D01*
X489452Y293370D01*
X486913D01*
X485643Y294640D01*
Y299718D01*
X509608Y407355D02*
Y399738D01*
X513417D01*
X514686Y401008D01*
Y406086D01*
X513417Y407355D01*
X509608D01*
X517225Y406086D02*
X518495Y407355D01*
X521034D01*
X522304Y406086D01*
Y404816D01*
X521034Y403547D01*
X519765D01*
X521034D01*
X522304Y402277D01*
Y401008D01*
X521034Y399738D01*
X518495D01*
X517225Y401008D01*
X419102Y508252D02*
X417832Y506983D01*
Y504444D01*
X419102Y503174D01*
X424180D01*
X425450Y504444D01*
Y506983D01*
X424180Y508252D01*
X419102Y510792D02*
X417832Y512061D01*
Y514600D01*
X419102Y515870D01*
X420372D01*
X421641Y514600D01*
Y513331D01*
Y514600D01*
X422911Y515870D01*
X424180D01*
X425450Y514600D01*
Y512061D01*
X424180Y510792D01*
X425450Y522218D02*
X417832D01*
X421641Y518409D01*
Y523487D01*
X406792Y508506D02*
X405522Y507237D01*
Y504698D01*
X406792Y503428D01*
X411870D01*
X413140Y504698D01*
Y507237D01*
X411870Y508506D01*
X406792Y511045D02*
X405522Y512315D01*
Y514854D01*
X406792Y516124D01*
X408062D01*
X409331Y514854D01*
Y513585D01*
Y514854D01*
X410601Y516124D01*
X411870D01*
X413140Y514854D01*
Y512315D01*
X411870Y511045D01*
X406792Y518663D02*
X405522Y519933D01*
Y522472D01*
X406792Y523741D01*
X408062D01*
X409331Y522472D01*
Y521202D01*
Y522472D01*
X410601Y523741D01*
X411870D01*
X413140Y522472D01*
Y519933D01*
X411870Y518663D01*
X537716Y326624D02*
X536447Y327894D01*
X533908D01*
X532638Y326624D01*
Y321546D01*
X533908Y320276D01*
X536447D01*
X537716Y321546D01*
X540256Y326624D02*
X541525Y327894D01*
X544064D01*
X545334Y326624D01*
Y325354D01*
X544064Y324085D01*
X542795D01*
X544064D01*
X545334Y322815D01*
Y321546D01*
X544064Y320276D01*
X541525D01*
X540256Y321546D01*
X552951Y320276D02*
X547873D01*
X552951Y325354D01*
Y326624D01*
X551682Y327894D01*
X549143D01*
X547873Y326624D01*
X582966Y391773D02*
X580427D01*
X581697D01*
Y385425D01*
X580427Y384156D01*
X579158D01*
X577888Y385425D01*
X590584Y384156D02*
X585506D01*
X590584Y389234D01*
Y390504D01*
X589314Y391773D01*
X586775D01*
X585506Y390504D01*
X224655Y391055D02*
X222115D01*
X223385D01*
Y384707D01*
X222115Y383438D01*
X220846D01*
X219576Y384707D01*
X227194Y383438D02*
X229733D01*
X228463D01*
Y391055D01*
X227194Y389786D01*
X173736Y6604D02*
Y14222D01*
X177545D01*
X178814Y12952D01*
Y10413D01*
X177545Y9143D01*
X173736D01*
X176275D02*
X178814Y6604D01*
X181353Y14222D02*
X186432D01*
X183893D01*
Y6604D01*
X188971D02*
X191510D01*
X190241D01*
Y14222D01*
X188971Y12952D01*
X372364Y334010D02*
Y341628D01*
X376173D01*
X377442Y340358D01*
Y337819D01*
X376173Y336549D01*
X372364D01*
X374903D02*
X377442Y334010D01*
X385060D02*
X379981D01*
X385060Y339088D01*
Y340358D01*
X383790Y341628D01*
X381251D01*
X379981Y340358D01*
X387599D02*
X388869Y341628D01*
X391408D01*
X392677Y340358D01*
Y339088D01*
X391408Y337819D01*
X390138D01*
X391408D01*
X392677Y336549D01*
Y335280D01*
X391408Y334010D01*
X388869D01*
X387599Y335280D01*
X172464Y-65D02*
X171195Y1205D01*
X168656D01*
X167386Y-65D01*
Y-5143D01*
X168656Y-6413D01*
X171195D01*
X172464Y-5143D01*
X175004Y-65D02*
X176273Y1205D01*
X178812D01*
X180082Y-65D01*
Y-1334D01*
X178812Y-2604D01*
X177543D01*
X178812D01*
X180082Y-3873D01*
Y-5143D01*
X178812Y-6413D01*
X176273D01*
X175004Y-5143D01*
X182621D02*
X183891Y-6413D01*
X186430D01*
X187699Y-5143D01*
Y-65D01*
X186430Y1205D01*
X183891D01*
X182621Y-65D01*
Y-1334D01*
X183891Y-2604D01*
X187699D01*
X325880Y313180D02*
X324611Y314450D01*
X322072D01*
X320802Y313180D01*
Y308102D01*
X322072Y306832D01*
X324611D01*
X325880Y308102D01*
X328419Y313180D02*
X329689Y314450D01*
X332228D01*
X333498Y313180D01*
Y311910D01*
X332228Y310641D01*
X330959D01*
X332228D01*
X333498Y309371D01*
Y308102D01*
X332228Y306832D01*
X329689D01*
X328419Y308102D01*
X325880Y302512D02*
X324611Y303782D01*
X322072D01*
X320802Y302512D01*
Y297434D01*
X322072Y296164D01*
X324611D01*
X325880Y297434D01*
X333498Y296164D02*
X328419D01*
X333498Y301242D01*
Y302512D01*
X332228Y303782D01*
X329689D01*
X328419Y302512D01*
X308354Y285864D02*
X307085Y287134D01*
X304546D01*
X303276Y285864D01*
Y280786D01*
X304546Y279516D01*
X307085D01*
X308354Y280786D01*
X310893Y279516D02*
X313433D01*
X312163D01*
Y287134D01*
X310893Y285864D01*
X396578Y279848D02*
X395309Y281117D01*
X392770D01*
X391500Y279848D01*
Y278578D01*
X392770Y277309D01*
X395309D01*
X396578Y276039D01*
Y274770D01*
X395309Y273500D01*
X392770D01*
X391500Y274770D01*
X399118Y281117D02*
Y273500D01*
X401657Y276039D01*
X404196Y273500D01*
Y281117D01*
X406735Y273500D02*
X409274D01*
X408005D01*
Y281117D01*
X406735Y279848D01*
X387617Y22174D02*
Y24713D01*
Y23444D01*
X381270D01*
X380000Y24713D01*
Y25983D01*
X381270Y27252D01*
X386348Y19635D02*
X387617Y18365D01*
Y15826D01*
X386348Y14556D01*
X385078D01*
X383809Y15826D01*
Y17096D01*
Y15826D01*
X382539Y14556D01*
X381270D01*
X380000Y15826D01*
Y18365D01*
X381270Y19635D01*
X393327Y69086D02*
X392058Y67817D01*
Y65278D01*
X393327Y64008D01*
X398406D01*
X399675Y65278D01*
Y67817D01*
X398406Y69086D01*
X393327Y71625D02*
X392058Y72895D01*
Y75434D01*
X393327Y76704D01*
X394597D01*
X395866Y75434D01*
Y74165D01*
Y75434D01*
X397136Y76704D01*
X398406D01*
X399675Y75434D01*
Y72895D01*
X398406Y71625D01*
X393327Y79243D02*
X392058Y80513D01*
Y83052D01*
X393327Y84321D01*
X394597D01*
X395866Y83052D01*
X397136Y84321D01*
X398406D01*
X399675Y83052D01*
Y80513D01*
X398406Y79243D01*
X397136D01*
X395866Y80513D01*
X394597Y79243D01*
X393327D01*
X395866Y80513D02*
Y83052D01*
X421086Y94232D02*
X419817Y92963D01*
Y90424D01*
X421086Y89154D01*
X426164D01*
X427434Y90424D01*
Y92963D01*
X426164Y94232D01*
X421086Y96771D02*
X419817Y98041D01*
Y100580D01*
X421086Y101850D01*
X422356D01*
X423625Y100580D01*
Y99311D01*
Y100580D01*
X424895Y101850D01*
X426164D01*
X427434Y100580D01*
Y98041D01*
X426164Y96771D01*
X419817Y104389D02*
Y109467D01*
X421086D01*
X426164Y104389D01*
X427434D01*
X616248Y-3896D02*
X615190Y-4954D01*
Y-7070D01*
X616248Y-8128D01*
X620480D01*
X621538Y-7070D01*
Y-4954D01*
X620480Y-3896D01*
X621538Y2452D02*
Y-1780D01*
X617306Y2452D01*
X616248D01*
X615190Y1394D01*
Y-722D01*
X616248Y-1780D01*
X615190Y8800D02*
Y4568D01*
X618364D01*
X617306Y6684D01*
Y7742D01*
X618364Y8800D01*
X620480D01*
X621538Y7742D01*
Y5626D01*
X620480Y4568D01*
X676146Y25144D02*
X674877Y26414D01*
X672338D01*
X671068Y25144D01*
Y20066D01*
X672338Y18796D01*
X674877D01*
X676146Y20066D01*
X683764Y18796D02*
X678686D01*
X683764Y23874D01*
Y25144D01*
X682494Y26414D01*
X679955D01*
X678686Y25144D01*
X686303D02*
X687573Y26414D01*
X690112D01*
X691381Y25144D01*
Y23874D01*
X690112Y22605D01*
X688842D01*
X690112D01*
X691381Y21335D01*
Y20066D01*
X690112Y18796D01*
X687573D01*
X686303Y20066D01*
D18*
X403892Y87254D02*
X416892D01*
Y61504D02*
Y87254D01*
X403892Y61504D02*
X416892D01*
X403892D02*
Y87254D01*
X650682Y-5825D02*
Y7175D01*
X624932Y-5825D02*
X650682D01*
X624932D02*
Y7175D01*
X650682D01*
D19*
X422136Y640793D02*
G03*
X422136Y640793I-21250J0D01*
G01*
X426867Y709393D02*
G03*
X374905Y709393I-25981J-15000D01*
G01*
X-25992Y15018D02*
G03*
X-11Y-29982I25981J-15000D01*
G01*
X376136Y151476D02*
G03*
X376136Y151476I-113750J0D01*
G01*
X653136D02*
G03*
X653136Y151476I-113750J0D01*
G01*
X801784Y-29982D02*
G03*
X827764Y15018I0J30000D01*
G01*
X759783Y-15982D02*
G03*
X749783Y-5982I-10000J0D01*
G01*
X697066Y-357D02*
G03*
X655284Y-9982I-19783J-9625D01*
G01*
X697066Y-357D02*
G03*
X706059Y-5982I8992J4375D01*
G01*
X408886Y2018D02*
G03*
X392886Y2018I-8000J0D01*
G01*
X146489Y-9982D02*
G03*
X104706Y-357I-22000J0D01*
G01*
X95714Y-5982D02*
G03*
X104706Y-357I0J10000D01*
G01*
X51989Y-5982D02*
G03*
X41989Y-15982I0J-10000D01*
G01*
X-25992Y15018D02*
X374905Y709393D01*
X-11Y-29982D02*
X41989D01*
X426867Y709393D02*
X827764Y15018D01*
X759783Y-29982D02*
X801784D01*
X759783D02*
Y-15982D01*
X706059Y-5982D02*
X749783D01*
X655284Y-24982D02*
Y-9982D01*
X408886Y-24982D02*
X655284D01*
X408886D02*
Y2018D01*
X392886Y-24982D02*
Y2018D01*
X146489Y-24982D02*
X392886D01*
X51989Y-5982D02*
X95714D01*
X146489Y-24982D02*
Y-9982D01*
X41989Y-29982D02*
Y-15982D01*
M02*
