G04*
G04 #@! TF.GenerationSoftware,Altium Limited,Altium Designer,19.0.12 (326)*
G04*
G04 Layer_Color=32896*
%FSLAX44Y44*%
%MOMM*%
G71*
G01*
G75*
%ADD17C,0.2032*%
%ADD19C,0.0500*%
%ADD82C,0.2540*%
%ADD143C,0.0999*%
%ADD144R,11.0501X5.1054*%
G36*
X366417Y344271D02*
X363603D01*
Y346874D01*
X366417D01*
Y344271D01*
D02*
G37*
G36*
X331146D02*
X328332D01*
Y346874D01*
X331146D01*
Y344271D01*
D02*
G37*
G36*
X353510Y340526D02*
X349765Y340547D01*
X349236D01*
X349003Y340568D01*
X348686D01*
X348559Y340589D01*
X348475D01*
X348686Y340378D01*
X348898Y340145D01*
X349152Y339870D01*
X349384Y339616D01*
X349596Y339384D01*
X349765Y339193D01*
X349892Y339045D01*
X349913Y339024D01*
X349935Y339003D01*
X353891Y334454D01*
Y332232D01*
X344412D01*
Y334707D01*
X349109D01*
X349342Y334686D01*
X349596D01*
X349829Y334665D01*
X350019D01*
X350104Y334644D01*
X350210D01*
X348792Y336189D01*
X344730Y340864D01*
Y342853D01*
X353510D01*
Y340526D01*
D02*
G37*
G36*
X339101Y343044D02*
X339440Y343023D01*
X339736Y342959D01*
X340033Y342917D01*
X340286Y342853D01*
X340519Y342769D01*
X340731Y342705D01*
X340900Y342642D01*
X341069Y342557D01*
X341196Y342494D01*
X341323Y342451D01*
X341408Y342388D01*
X341471Y342367D01*
X341492Y342324D01*
X341513D01*
X341873Y342007D01*
X342169Y341647D01*
X342423Y341267D01*
X342635Y340907D01*
X342783Y340568D01*
X342846Y340420D01*
X342889Y340293D01*
X342931Y340187D01*
X342952Y340103D01*
X342974Y340061D01*
Y340039D01*
X340456Y339574D01*
X340350Y339828D01*
X340244Y340039D01*
X340138Y340230D01*
X340011Y340378D01*
X339927Y340484D01*
X339842Y340547D01*
X339800Y340589D01*
X339779Y340611D01*
X339609Y340716D01*
X339419Y340801D01*
X339207Y340843D01*
X339017Y340886D01*
X338848Y340907D01*
X338721Y340928D01*
X338594D01*
X338213Y340907D01*
X337896Y340864D01*
X337642Y340822D01*
X337430Y340759D01*
X337282Y340674D01*
X337176Y340632D01*
X337113Y340589D01*
X337091Y340568D01*
X336943Y340420D01*
X336838Y340251D01*
X336774Y340061D01*
X336711Y339870D01*
X336689Y339680D01*
X336668Y339532D01*
Y339447D01*
Y339405D01*
Y339130D01*
X336816Y339066D01*
X337007Y339003D01*
X337409Y338876D01*
X337874Y338770D01*
X338319Y338664D01*
X338742Y338558D01*
X338932Y338516D01*
X339101Y338495D01*
X339229Y338474D01*
X339334Y338452D01*
X339398Y338431D01*
X339419D01*
X339927Y338326D01*
X340392Y338220D01*
X340773Y338114D01*
X341090Y338008D01*
X341344Y337902D01*
X341513Y337839D01*
X341619Y337797D01*
X341662Y337775D01*
X341937Y337627D01*
X342169Y337458D01*
X342381Y337268D01*
X342529Y337098D01*
X342677Y336950D01*
X342762Y336823D01*
X342825Y336739D01*
X342846Y336696D01*
X342995Y336421D01*
X343100Y336146D01*
X343164Y335892D01*
X343206Y335639D01*
X343248Y335427D01*
X343270Y335258D01*
Y335152D01*
Y335109D01*
X343248Y334856D01*
X343227Y334623D01*
X343122Y334179D01*
X342974Y333798D01*
X342804Y333480D01*
X342635Y333226D01*
X342487Y333036D01*
X342381Y332909D01*
X342339Y332888D01*
Y332867D01*
X341958Y332570D01*
X341535Y332359D01*
X341111Y332211D01*
X340688Y332105D01*
X340329Y332042D01*
X340159Y332020D01*
X340033D01*
X339906Y331999D01*
X339757D01*
X339419Y332020D01*
X339080Y332063D01*
X338784Y332105D01*
X338530Y332169D01*
X338319Y332232D01*
X338149Y332295D01*
X338044Y332317D01*
X338001Y332338D01*
X337705Y332486D01*
X337409Y332634D01*
X337155Y332824D01*
X336922Y332994D01*
X336732Y333142D01*
X336584Y333269D01*
X336499Y333353D01*
X336457Y333374D01*
X336436Y333290D01*
X336393Y333184D01*
X336372Y333100D01*
X336351Y333078D01*
Y333057D01*
X336287Y332867D01*
X336245Y332697D01*
X336203Y332549D01*
X336161Y332444D01*
X336118Y332359D01*
X336097Y332274D01*
X336076Y332253D01*
Y332232D01*
X333304D01*
X333431Y332507D01*
X333537Y332761D01*
X333621Y332994D01*
X333706Y333205D01*
X333749Y333374D01*
X333791Y333523D01*
X333812Y333607D01*
Y333628D01*
X333854Y333904D01*
X333875Y334242D01*
X333918Y334581D01*
Y334919D01*
X333939Y335215D01*
Y335469D01*
Y335575D01*
Y335639D01*
Y335681D01*
Y335702D01*
X333897Y338982D01*
Y339320D01*
X333918Y339616D01*
X333939Y339891D01*
X333960Y340145D01*
X333981Y340378D01*
X334024Y340589D01*
X334045Y340780D01*
X334087Y340928D01*
X334129Y341076D01*
X334151Y341182D01*
X334214Y341372D01*
X334256Y341457D01*
X334277Y341499D01*
X334447Y341732D01*
X334637Y341965D01*
X334849Y342155D01*
X335081Y342324D01*
X335272Y342451D01*
X335441Y342536D01*
X335547Y342599D01*
X335568Y342621D01*
X335589D01*
X335780Y342705D01*
X335970Y342769D01*
X336414Y342896D01*
X336880Y342980D01*
X337324Y343023D01*
X337747Y343065D01*
X337917D01*
X338065Y343086D01*
X338763D01*
X339101Y343044D01*
D02*
G37*
G36*
X202060Y332232D02*
X199521D01*
X195310Y342853D01*
X198188D01*
X200219Y337416D01*
X200346Y337098D01*
X200431Y336802D01*
X200473Y336696D01*
X200494Y336612D01*
X200515Y336548D01*
Y336527D01*
X200536Y336421D01*
X200579Y336294D01*
X200685Y335977D01*
X200727Y335850D01*
X200769Y335723D01*
X200790Y335639D01*
X200812Y335617D01*
X201383Y337416D01*
X203393Y342853D01*
X206334D01*
X202060Y332232D01*
D02*
G37*
G36*
X212681Y343065D02*
X213041Y343023D01*
X213401Y342938D01*
X213718Y342853D01*
X214035Y342748D01*
X214310Y342621D01*
X214585Y342473D01*
X214818Y342346D01*
X215030Y342197D01*
X215220Y342049D01*
X215389Y341922D01*
X215516Y341817D01*
X215622Y341732D01*
X215707Y341647D01*
X215749Y341605D01*
X215770Y341584D01*
X216003Y341288D01*
X216215Y340970D01*
X216405Y340653D01*
X216574Y340314D01*
X216701Y339955D01*
X216807Y339616D01*
X216976Y338960D01*
X217040Y338643D01*
X217082Y338368D01*
X217103Y338114D01*
X217125Y337902D01*
X217146Y337712D01*
Y337564D01*
Y337479D01*
Y337458D01*
X217125Y337056D01*
X217103Y336654D01*
X217040Y336294D01*
X216976Y335956D01*
X216913Y335617D01*
X216807Y335321D01*
X216723Y335046D01*
X216617Y334792D01*
X216532Y334559D01*
X216426Y334369D01*
X216342Y334200D01*
X216278Y334052D01*
X216194Y333946D01*
X216151Y333861D01*
X216130Y333819D01*
X216109Y333798D01*
X215834Y333480D01*
X215559Y333205D01*
X215241Y332972D01*
X214903Y332761D01*
X214564Y332592D01*
X214226Y332444D01*
X213887Y332317D01*
X213549Y332232D01*
X213253Y332147D01*
X212956Y332105D01*
X212681Y332063D01*
X212449Y332020D01*
X212258D01*
X212131Y331999D01*
X212004D01*
X211391Y332042D01*
X210819Y332126D01*
X210333Y332253D01*
X209909Y332401D01*
X209719Y332486D01*
X209571Y332549D01*
X209423Y332613D01*
X209317Y332676D01*
X209233Y332740D01*
X209148Y332761D01*
X209127Y332803D01*
X209105D01*
X208703Y333142D01*
X208344Y333502D01*
X208048Y333904D01*
X207815Y334284D01*
X207624Y334623D01*
X207561Y334771D01*
X207498Y334898D01*
X207455Y335004D01*
X207413Y335088D01*
X207392Y335131D01*
Y335152D01*
X210185Y335617D01*
X210290Y335342D01*
X210396Y335088D01*
X210502Y334898D01*
X210629Y334729D01*
X210714Y334602D01*
X210798Y334517D01*
X210862Y334475D01*
X210883Y334454D01*
X211052Y334327D01*
X211243Y334242D01*
X211433Y334179D01*
X211602Y334136D01*
X211750Y334115D01*
X211877Y334094D01*
X211983D01*
X212322Y334115D01*
X212639Y334200D01*
X212935Y334305D01*
X213168Y334432D01*
X213358Y334559D01*
X213485Y334665D01*
X213591Y334750D01*
X213612Y334771D01*
X213824Y335046D01*
X213972Y335363D01*
X214099Y335702D01*
X214184Y335998D01*
X214226Y336294D01*
X214247Y336506D01*
X214268Y336591D01*
Y336654D01*
Y336696D01*
Y336717D01*
X207244D01*
Y337310D01*
X207286Y337839D01*
X207349Y338347D01*
X207434Y338812D01*
X207540Y339257D01*
X207646Y339637D01*
X207773Y339997D01*
X207899Y340314D01*
X208027Y340589D01*
X208153Y340843D01*
X208259Y341034D01*
X208365Y341203D01*
X208450Y341330D01*
X208513Y341436D01*
X208555Y341478D01*
X208577Y341499D01*
X208831Y341774D01*
X209127Y342028D01*
X209423Y342240D01*
X209719Y342409D01*
X210037Y342578D01*
X210354Y342705D01*
X210650Y342811D01*
X210946Y342896D01*
X211221Y342959D01*
X211475Y343002D01*
X211708Y343044D01*
X211898Y343065D01*
X212068Y343086D01*
X212300D01*
X212681Y343065D01*
D02*
G37*
G36*
X382645Y332232D02*
X379514D01*
X378308Y335554D01*
X372426D01*
X371156Y332232D01*
X367961D01*
X373843Y346874D01*
X376975D01*
X382645Y332232D01*
D02*
G37*
G36*
X366417D02*
X363603D01*
Y342853D01*
X366417D01*
Y332232D01*
D02*
G37*
G36*
X356091Y343065D02*
X356303Y343044D01*
X356515Y342980D01*
X356684Y342917D01*
X356832Y342853D01*
X356959Y342811D01*
X357023Y342769D01*
X357044Y342748D01*
X357255Y342599D01*
X357446Y342388D01*
X357657Y342155D01*
X357826Y341922D01*
X357996Y341690D01*
X358123Y341499D01*
X358207Y341372D01*
X358228Y341351D01*
Y342853D01*
X360831D01*
Y332232D01*
X358017D01*
Y335490D01*
Y335977D01*
Y336421D01*
X357996Y336823D01*
X357975Y337183D01*
Y337522D01*
X357953Y337797D01*
X357932Y338072D01*
X357911Y338283D01*
X357890Y338474D01*
X357869Y338643D01*
X357848Y338770D01*
Y338876D01*
X357826Y338939D01*
X357805Y339003D01*
Y339045D01*
X357721Y339341D01*
X357615Y339595D01*
X357509Y339807D01*
X357403Y339955D01*
X357319Y340082D01*
X357234Y340166D01*
X357192Y340209D01*
X357171Y340230D01*
X357001Y340336D01*
X356832Y340420D01*
X356663Y340484D01*
X356515Y340526D01*
X356388Y340547D01*
X356261Y340568D01*
X356176D01*
X355943Y340547D01*
X355711Y340505D01*
X355499Y340420D01*
X355288Y340336D01*
X355118Y340251D01*
X354991Y340166D01*
X354885Y340124D01*
X354864Y340103D01*
X353976Y342536D01*
X354314Y342727D01*
X354632Y342853D01*
X354949Y342959D01*
X355245Y343023D01*
X355478Y343065D01*
X355668Y343086D01*
X355838D01*
X356091Y343065D01*
D02*
G37*
G36*
X331146Y332232D02*
X328332D01*
Y342853D01*
X331146D01*
Y332232D01*
D02*
G37*
G36*
X319657D02*
X309332D01*
Y334707D01*
X316695D01*
Y346768D01*
X319657D01*
Y332232D01*
D02*
G37*
G36*
X307322D02*
X304360D01*
Y346874D01*
X307322D01*
Y332232D01*
D02*
G37*
G36*
X301525D02*
X295981D01*
X295410Y332253D01*
X294881Y332274D01*
X294436Y332317D01*
X294077Y332380D01*
X293781Y332444D01*
X293548Y332486D01*
X293484Y332507D01*
X293421D01*
X293400Y332528D01*
X293379D01*
X292913Y332697D01*
X292490Y332888D01*
X292152Y333078D01*
X291855Y333269D01*
X291623Y333438D01*
X291453Y333565D01*
X291347Y333650D01*
X291305Y333692D01*
X290945Y334094D01*
X290628Y334517D01*
X290353Y334961D01*
X290141Y335363D01*
X289972Y335744D01*
X289888Y335892D01*
X289845Y336019D01*
X289803Y336146D01*
X289761Y336231D01*
X289739Y336273D01*
Y336294D01*
X289591Y336802D01*
X289464Y337331D01*
X289380Y337839D01*
X289337Y338326D01*
X289316Y338558D01*
X289295Y338770D01*
Y338939D01*
X289274Y339108D01*
Y339235D01*
Y339320D01*
Y339384D01*
Y339405D01*
X289295Y340145D01*
X289359Y340801D01*
X289380Y341118D01*
X289422Y341394D01*
X289464Y341669D01*
X289507Y341901D01*
X289570Y342113D01*
X289613Y342303D01*
X289655Y342473D01*
X289676Y342599D01*
X289718Y342705D01*
X289739Y342790D01*
X289761Y342832D01*
Y342853D01*
X289951Y343361D01*
X290184Y343827D01*
X290417Y344229D01*
X290649Y344567D01*
X290840Y344842D01*
X291009Y345054D01*
X291115Y345181D01*
X291136Y345223D01*
X291157D01*
X291517Y345562D01*
X291876Y345837D01*
X292257Y346069D01*
X292596Y346260D01*
X292892Y346408D01*
X293146Y346514D01*
X293230Y346535D01*
X293294Y346556D01*
X293336Y346577D01*
X293358D01*
X293759Y346683D01*
X294204Y346746D01*
X294669Y346810D01*
X295114Y346831D01*
X295516Y346852D01*
X295685Y346874D01*
X301525D01*
Y332232D01*
D02*
G37*
G36*
X281065D02*
X274717D01*
X274357Y332253D01*
X273723D01*
X273469Y332274D01*
X273067D01*
X272919Y332295D01*
X272707D01*
X272622Y332317D01*
X272538D01*
X272115Y332380D01*
X271734Y332486D01*
X271395Y332592D01*
X271099Y332719D01*
X270866Y332824D01*
X270697Y332930D01*
X270591Y332994D01*
X270549Y333015D01*
X270253Y333248D01*
X270020Y333502D01*
X269787Y333734D01*
X269618Y333988D01*
X269470Y334200D01*
X269364Y334369D01*
X269301Y334475D01*
X269279Y334517D01*
X269131Y334877D01*
X269004Y335215D01*
X268920Y335554D01*
X268877Y335850D01*
X268835Y336104D01*
X268814Y336294D01*
Y336421D01*
Y336442D01*
Y336464D01*
X268835Y336929D01*
X268920Y337352D01*
X269047Y337712D01*
X269174Y338050D01*
X269301Y338304D01*
X269428Y338495D01*
X269512Y338622D01*
X269533Y338664D01*
X269830Y339003D01*
X270147Y339278D01*
X270507Y339510D01*
X270824Y339680D01*
X271120Y339828D01*
X271374Y339934D01*
X271459Y339955D01*
X271522Y339976D01*
X271565Y339997D01*
X271586D01*
X271247Y340187D01*
X270951Y340378D01*
X270697Y340611D01*
X270485Y340801D01*
X270337Y340992D01*
X270210Y341140D01*
X270126Y341245D01*
X270105Y341288D01*
X269914Y341626D01*
X269766Y341944D01*
X269681Y342261D01*
X269597Y342557D01*
X269555Y342811D01*
X269533Y343002D01*
Y343129D01*
Y343150D01*
Y343171D01*
X269555Y343509D01*
X269597Y343848D01*
X269681Y344123D01*
X269766Y344377D01*
X269851Y344588D01*
X269935Y344758D01*
X269978Y344842D01*
X269999Y344885D01*
X270168Y345160D01*
X270359Y345392D01*
X270549Y345604D01*
X270718Y345794D01*
X270888Y345921D01*
X271014Y346027D01*
X271099Y346091D01*
X271120Y346112D01*
X271374Y346281D01*
X271649Y346408D01*
X271903Y346514D01*
X272136Y346598D01*
X272347Y346662D01*
X272495Y346704D01*
X272601Y346725D01*
X272644D01*
X273003Y346768D01*
X273405Y346810D01*
X273829Y346831D01*
X274252Y346852D01*
X274632Y346874D01*
X281065D01*
Y332232D01*
D02*
G37*
G36*
X266296D02*
X263334D01*
Y338347D01*
X262382D01*
X262086Y338326D01*
X261832Y338304D01*
X261620Y338262D01*
X261451Y338241D01*
X261345Y338199D01*
X261282Y338177D01*
X261261D01*
X261091Y338093D01*
X260922Y338008D01*
X260774Y337902D01*
X260626Y337818D01*
X260520Y337712D01*
X260435Y337627D01*
X260393Y337585D01*
X260372Y337564D01*
X260287Y337458D01*
X260181Y337352D01*
X259949Y337035D01*
X259695Y336696D01*
X259420Y336315D01*
X259187Y335977D01*
X259081Y335808D01*
X258997Y335681D01*
X258912Y335575D01*
X258848Y335490D01*
X258827Y335427D01*
X258806Y335406D01*
X256690Y332232D01*
X253136D01*
X254934Y335088D01*
X255125Y335385D01*
X255315Y335681D01*
X255484Y335935D01*
X255654Y336167D01*
X255802Y336379D01*
X255929Y336591D01*
X256182Y336908D01*
X256373Y337162D01*
X256500Y337331D01*
X256606Y337437D01*
X256627Y337458D01*
X256860Y337712D01*
X257135Y337945D01*
X257388Y338135D01*
X257642Y338326D01*
X257854Y338474D01*
X258023Y338579D01*
X258150Y338664D01*
X258171Y338685D01*
X258193D01*
X257833Y338749D01*
X257516Y338833D01*
X257219Y338918D01*
X256923Y339024D01*
X256669Y339130D01*
X256436Y339235D01*
X256204Y339341D01*
X256013Y339468D01*
X255844Y339574D01*
X255696Y339680D01*
X255569Y339785D01*
X255484Y339870D01*
X255400Y339934D01*
X255336Y339997D01*
X255315Y340018D01*
X255294Y340039D01*
X255125Y340251D01*
X254977Y340462D01*
X254723Y340928D01*
X254553Y341372D01*
X254447Y341817D01*
X254363Y342197D01*
X254342Y342346D01*
Y342494D01*
X254321Y342599D01*
Y342705D01*
Y342748D01*
Y342769D01*
X254342Y343234D01*
X254426Y343679D01*
X254532Y344059D01*
X254638Y344398D01*
X254765Y344673D01*
X254871Y344885D01*
X254913Y344948D01*
X254955Y345012D01*
X254977Y345033D01*
Y345054D01*
X255230Y345414D01*
X255506Y345710D01*
X255781Y345942D01*
X256056Y346154D01*
X256310Y346281D01*
X256500Y346387D01*
X256627Y346450D01*
X256648Y346471D01*
X256669D01*
X256881Y346535D01*
X257113Y346598D01*
X257642Y346704D01*
X258214Y346768D01*
X258764Y346831D01*
X259039D01*
X259272Y346852D01*
X259504D01*
X259695Y346874D01*
X266296D01*
Y332232D01*
D02*
G37*
G36*
X251528D02*
X245984D01*
X245413Y332253D01*
X244884Y332274D01*
X244440Y332317D01*
X244080Y332380D01*
X243784Y332444D01*
X243551Y332486D01*
X243488Y332507D01*
X243424D01*
X243403Y332528D01*
X243382D01*
X242916Y332697D01*
X242493Y332888D01*
X242155Y333078D01*
X241858Y333269D01*
X241626Y333438D01*
X241456Y333565D01*
X241351Y333650D01*
X241308Y333692D01*
X240949Y334094D01*
X240631Y334517D01*
X240356Y334961D01*
X240145Y335363D01*
X239975Y335744D01*
X239891Y335892D01*
X239848Y336019D01*
X239806Y336146D01*
X239764Y336231D01*
X239743Y336273D01*
Y336294D01*
X239594Y336802D01*
X239468Y337331D01*
X239383Y337839D01*
X239341Y338326D01*
X239319Y338558D01*
X239298Y338770D01*
Y338939D01*
X239277Y339108D01*
Y339235D01*
Y339320D01*
Y339384D01*
Y339405D01*
X239298Y340145D01*
X239362Y340801D01*
X239383Y341118D01*
X239425Y341394D01*
X239468Y341669D01*
X239510Y341901D01*
X239573Y342113D01*
X239616Y342303D01*
X239658Y342473D01*
X239679Y342599D01*
X239721Y342705D01*
X239743Y342790D01*
X239764Y342832D01*
Y342853D01*
X239954Y343361D01*
X240187Y343827D01*
X240420Y344229D01*
X240652Y344567D01*
X240843Y344842D01*
X241012Y345054D01*
X241118Y345181D01*
X241139Y345223D01*
X241160D01*
X241520Y345562D01*
X241880Y345837D01*
X242260Y346069D01*
X242599Y346260D01*
X242895Y346408D01*
X243149Y346514D01*
X243234Y346535D01*
X243297Y346556D01*
X243340Y346577D01*
X243361D01*
X243763Y346683D01*
X244207Y346746D01*
X244673Y346810D01*
X245117Y346831D01*
X245519Y346852D01*
X245688Y346874D01*
X251528D01*
Y332232D01*
D02*
G37*
G36*
X231068D02*
X228106D01*
Y338347D01*
X227153D01*
X226857Y338326D01*
X226603Y338304D01*
X226392Y338262D01*
X226222Y338241D01*
X226117Y338199D01*
X226053Y338177D01*
X226032D01*
X225863Y338093D01*
X225694Y338008D01*
X225545Y337902D01*
X225397Y337818D01*
X225292Y337712D01*
X225207Y337627D01*
X225165Y337585D01*
X225143Y337564D01*
X225059Y337458D01*
X224953Y337352D01*
X224720Y337035D01*
X224466Y336696D01*
X224191Y336315D01*
X223959Y335977D01*
X223853Y335808D01*
X223768Y335681D01*
X223683Y335575D01*
X223620Y335490D01*
X223599Y335427D01*
X223578Y335406D01*
X221462Y332232D01*
X217907D01*
X219706Y335088D01*
X219896Y335385D01*
X220087Y335681D01*
X220256Y335935D01*
X220425Y336167D01*
X220573Y336379D01*
X220700Y336591D01*
X220954Y336908D01*
X221145Y337162D01*
X221271Y337331D01*
X221377Y337437D01*
X221398Y337458D01*
X221631Y337712D01*
X221906Y337945D01*
X222160Y338135D01*
X222414Y338326D01*
X222626Y338474D01*
X222795Y338579D01*
X222922Y338664D01*
X222943Y338685D01*
X222964D01*
X222605Y338749D01*
X222287Y338833D01*
X221991Y338918D01*
X221695Y339024D01*
X221441Y339130D01*
X221208Y339235D01*
X220975Y339341D01*
X220785Y339468D01*
X220616Y339574D01*
X220467Y339680D01*
X220340Y339785D01*
X220256Y339870D01*
X220171Y339934D01*
X220108Y339997D01*
X220087Y340018D01*
X220065Y340039D01*
X219896Y340251D01*
X219748Y340462D01*
X219494Y340928D01*
X219325Y341372D01*
X219219Y341817D01*
X219135Y342197D01*
X219113Y342346D01*
Y342494D01*
X219092Y342599D01*
Y342705D01*
Y342748D01*
Y342769D01*
X219113Y343234D01*
X219198Y343679D01*
X219304Y344059D01*
X219410Y344398D01*
X219536Y344673D01*
X219642Y344885D01*
X219685Y344948D01*
X219727Y345012D01*
X219748Y345033D01*
Y345054D01*
X220002Y345414D01*
X220277Y345710D01*
X220552Y345942D01*
X220827Y346154D01*
X221081Y346281D01*
X221271Y346387D01*
X221398Y346450D01*
X221420Y346471D01*
X221441D01*
X221652Y346535D01*
X221885Y346598D01*
X222414Y346704D01*
X222985Y346768D01*
X223535Y346831D01*
X223811D01*
X224043Y346852D01*
X224276D01*
X224466Y346874D01*
X231068D01*
Y332232D01*
D02*
G37*
G36*
X187841D02*
X181494D01*
X181134Y332253D01*
X180500D01*
X180246Y332274D01*
X179844D01*
X179696Y332295D01*
X179484D01*
X179399Y332317D01*
X179315D01*
X178892Y332380D01*
X178511Y332486D01*
X178172Y332592D01*
X177876Y332719D01*
X177643Y332824D01*
X177474Y332930D01*
X177368Y332994D01*
X177326Y333015D01*
X177030Y333248D01*
X176797Y333502D01*
X176564Y333734D01*
X176395Y333988D01*
X176247Y334200D01*
X176141Y334369D01*
X176078Y334475D01*
X176056Y334517D01*
X175908Y334877D01*
X175781Y335215D01*
X175697Y335554D01*
X175654Y335850D01*
X175612Y336104D01*
X175591Y336294D01*
Y336421D01*
Y336442D01*
Y336464D01*
X175612Y336929D01*
X175697Y337352D01*
X175824Y337712D01*
X175951Y338050D01*
X176078Y338304D01*
X176204Y338495D01*
X176289Y338622D01*
X176310Y338664D01*
X176607Y339003D01*
X176924Y339278D01*
X177284Y339510D01*
X177601Y339680D01*
X177897Y339828D01*
X178151Y339934D01*
X178236Y339955D01*
X178299Y339976D01*
X178342Y339997D01*
X178363D01*
X178024Y340187D01*
X177728Y340378D01*
X177474Y340611D01*
X177262Y340801D01*
X177114Y340992D01*
X176987Y341140D01*
X176903Y341245D01*
X176882Y341288D01*
X176691Y341626D01*
X176543Y341944D01*
X176458Y342261D01*
X176374Y342557D01*
X176332Y342811D01*
X176310Y343002D01*
Y343129D01*
Y343150D01*
Y343171D01*
X176332Y343509D01*
X176374Y343848D01*
X176458Y344123D01*
X176543Y344377D01*
X176628Y344588D01*
X176712Y344758D01*
X176755Y344842D01*
X176776Y344885D01*
X176945Y345160D01*
X177136Y345392D01*
X177326Y345604D01*
X177495Y345794D01*
X177664Y345921D01*
X177791Y346027D01*
X177876Y346091D01*
X177897Y346112D01*
X178151Y346281D01*
X178426Y346408D01*
X178680Y346514D01*
X178913Y346598D01*
X179124Y346662D01*
X179272Y346704D01*
X179378Y346725D01*
X179421D01*
X179780Y346768D01*
X180182Y346810D01*
X180605Y346831D01*
X181029Y346852D01*
X181409Y346874D01*
X187841D01*
Y332232D01*
D02*
G37*
%LPC*%
G36*
X336689Y337310D02*
X336668D01*
Y336739D01*
Y336400D01*
X336689Y336104D01*
X336711Y335871D01*
X336732Y335681D01*
X336753Y335554D01*
X336774Y335448D01*
X336795Y335406D01*
Y335385D01*
X336859Y335194D01*
X336964Y335004D01*
X337070Y334856D01*
X337176Y334707D01*
X337282Y334602D01*
X337366Y334517D01*
X337430Y334475D01*
X337451Y334454D01*
X337705Y334284D01*
X337980Y334179D01*
X338213Y334094D01*
X338446Y334030D01*
X338636Y333988D01*
X338784Y333967D01*
X338911D01*
X339144Y333988D01*
X339377Y334030D01*
X339567Y334094D01*
X339715Y334179D01*
X339863Y334263D01*
X339948Y334327D01*
X340011Y334369D01*
X340033Y334390D01*
X340181Y334559D01*
X340286Y334729D01*
X340350Y334898D01*
X340392Y335067D01*
X340434Y335194D01*
X340456Y335300D01*
Y335385D01*
Y335406D01*
X340434Y335617D01*
X340371Y335808D01*
X340286Y335977D01*
X340181Y336125D01*
X340096Y336231D01*
X340011Y336315D01*
X339948Y336358D01*
X339927Y336379D01*
X339757Y336464D01*
X339546Y336569D01*
X339292Y336654D01*
X339038Y336717D01*
X338784Y336781D01*
X338594Y336823D01*
X338509Y336844D01*
X338446Y336866D01*
X338403D01*
X337980Y336950D01*
X337642Y337035D01*
X337324Y337119D01*
X337091Y337183D01*
X336901Y337247D01*
X336774Y337268D01*
X336689Y337310D01*
D02*
G37*
G36*
X212279Y340928D02*
X212131D01*
X211814Y340907D01*
X211539Y340822D01*
X211285Y340716D01*
X211073Y340611D01*
X210904Y340484D01*
X210777Y340378D01*
X210692Y340293D01*
X210671Y340272D01*
X210481Y340018D01*
X210312Y339722D01*
X210206Y339405D01*
X210121Y339108D01*
X210079Y338854D01*
X210058Y338622D01*
X210037Y338537D01*
Y338495D01*
Y338452D01*
Y338431D01*
X214226D01*
X214205Y338833D01*
X214141Y339193D01*
X214056Y339510D01*
X213930Y339764D01*
X213824Y339976D01*
X213718Y340124D01*
X213654Y340230D01*
X213633Y340251D01*
X213401Y340484D01*
X213147Y340653D01*
X212893Y340759D01*
X212660Y340843D01*
X212449Y340886D01*
X212279Y340928D01*
D02*
G37*
G36*
X375430Y343467D02*
X373378Y338029D01*
X377419D01*
X375430Y343467D01*
D02*
G37*
G36*
X298562Y344398D02*
X296637D01*
X296362Y344377D01*
X296108D01*
X295896Y344356D01*
X295706D01*
X295516Y344334D01*
X295368D01*
X295135Y344292D01*
X294965Y344271D01*
X294860Y344250D01*
X294839D01*
X294542Y344165D01*
X294288Y344059D01*
X294056Y343954D01*
X293844Y343827D01*
X293696Y343721D01*
X293569Y343636D01*
X293506Y343573D01*
X293484Y343552D01*
X293294Y343340D01*
X293125Y343107D01*
X292977Y342875D01*
X292850Y342663D01*
X292765Y342451D01*
X292702Y342282D01*
X292659Y342176D01*
X292638Y342155D01*
Y342134D01*
X292532Y341753D01*
X292448Y341351D01*
X292405Y340907D01*
X292363Y340484D01*
X292342Y340124D01*
X292321Y339955D01*
Y339807D01*
Y339701D01*
Y339616D01*
Y339553D01*
Y339532D01*
X292342Y338939D01*
X292363Y338389D01*
X292426Y337945D01*
X292469Y337564D01*
X292532Y337247D01*
X292554Y337119D01*
X292596Y337035D01*
X292617Y336950D01*
Y336887D01*
X292638Y336866D01*
Y336844D01*
X292765Y336506D01*
X292871Y336210D01*
X293019Y335977D01*
X293125Y335787D01*
X293230Y335639D01*
X293315Y335533D01*
X293379Y335469D01*
X293400Y335448D01*
X293590Y335300D01*
X293781Y335173D01*
X293971Y335067D01*
X294161Y334983D01*
X294331Y334919D01*
X294458Y334877D01*
X294542Y334835D01*
X294585D01*
X294817Y334792D01*
X295093Y334771D01*
X295389Y334729D01*
X295685D01*
X295960Y334707D01*
X298562D01*
Y344398D01*
D02*
G37*
G36*
X278102Y344440D02*
X275161D01*
X274929Y344419D01*
X274379D01*
X274252Y344398D01*
X274019D01*
X273934Y344377D01*
X273913D01*
X273659Y344334D01*
X273426Y344271D01*
X273236Y344186D01*
X273067Y344102D01*
X272961Y344017D01*
X272855Y343932D01*
X272813Y343890D01*
X272792Y343869D01*
X272665Y343700D01*
X272580Y343509D01*
X272495Y343340D01*
X272453Y343171D01*
X272432Y343002D01*
X272411Y342875D01*
Y342790D01*
Y342769D01*
X272432Y342515D01*
X272474Y342282D01*
X272559Y342092D01*
X272622Y341922D01*
X272707Y341774D01*
X272792Y341690D01*
X272834Y341626D01*
X272855Y341605D01*
X273024Y341457D01*
X273215Y341351D01*
X273405Y341267D01*
X273596Y341203D01*
X273786Y341140D01*
X273913Y341118D01*
X273998Y341097D01*
X274125D01*
X274252Y341076D01*
X274907D01*
X275267Y341055D01*
X278102D01*
Y344440D01*
D02*
G37*
G36*
Y338622D02*
X275035D01*
X274738Y338601D01*
X274484Y338579D01*
X274230D01*
X274019Y338558D01*
X273829Y338537D01*
X273680Y338516D01*
X273532Y338495D01*
X273426Y338474D01*
X273257Y338452D01*
X273151Y338410D01*
X273130D01*
X272919Y338326D01*
X272728Y338220D01*
X272559Y338114D01*
X272432Y337987D01*
X272326Y337902D01*
X272263Y337818D01*
X272220Y337754D01*
X272199Y337733D01*
X272094Y337543D01*
X272009Y337352D01*
X271945Y337183D01*
X271903Y336993D01*
X271882Y336844D01*
X271861Y336717D01*
Y336633D01*
Y336612D01*
X271882Y336337D01*
X271924Y336083D01*
X271988Y335871D01*
X272072Y335702D01*
X272157Y335554D01*
X272220Y335448D01*
X272263Y335385D01*
X272284Y335363D01*
X272453Y335215D01*
X272622Y335088D01*
X272813Y334983D01*
X272982Y334898D01*
X273130Y334856D01*
X273257Y334813D01*
X273342Y334792D01*
X273363D01*
X273448Y334771D01*
X273575D01*
X273850Y334750D01*
X274188Y334729D01*
X274527D01*
X274844Y334707D01*
X278102D01*
Y338622D01*
D02*
G37*
G36*
X263334Y344398D02*
X259949D01*
X259758Y344377D01*
X259293D01*
X259102Y344356D01*
X258975D01*
X258912Y344334D01*
X258891D01*
X258637Y344271D01*
X258404Y344186D01*
X258214Y344102D01*
X258066Y343996D01*
X257939Y343890D01*
X257833Y343827D01*
X257791Y343763D01*
X257769Y343742D01*
X257642Y343573D01*
X257537Y343361D01*
X257473Y343171D01*
X257410Y342980D01*
X257388Y342811D01*
X257367Y342684D01*
Y342599D01*
Y342557D01*
X257388Y342324D01*
X257410Y342113D01*
X257473Y341922D01*
X257516Y341753D01*
X257579Y341626D01*
X257642Y341542D01*
X257664Y341478D01*
X257685Y341457D01*
X257812Y341309D01*
X257939Y341182D01*
X258214Y340992D01*
X258319Y340928D01*
X258425Y340886D01*
X258489Y340843D01*
X258510D01*
X258616Y340822D01*
X258785Y340780D01*
X258954Y340759D01*
X259145Y340738D01*
X259589Y340716D01*
X260033Y340695D01*
X260457Y340674D01*
X263334D01*
Y344398D01*
D02*
G37*
G36*
X248566D02*
X246640D01*
X246365Y344377D01*
X246111D01*
X245900Y344356D01*
X245709D01*
X245519Y344334D01*
X245371D01*
X245138Y344292D01*
X244969Y344271D01*
X244863Y344250D01*
X244842D01*
X244545Y344165D01*
X244292Y344059D01*
X244059Y343954D01*
X243847Y343827D01*
X243699Y343721D01*
X243572Y343636D01*
X243509Y343573D01*
X243488Y343552D01*
X243297Y343340D01*
X243128Y343107D01*
X242980Y342875D01*
X242853Y342663D01*
X242768Y342451D01*
X242705Y342282D01*
X242662Y342176D01*
X242641Y342155D01*
Y342134D01*
X242535Y341753D01*
X242451Y341351D01*
X242409Y340907D01*
X242366Y340484D01*
X242345Y340124D01*
X242324Y339955D01*
Y339807D01*
Y339701D01*
Y339616D01*
Y339553D01*
Y339532D01*
X242345Y338939D01*
X242366Y338389D01*
X242430Y337945D01*
X242472Y337564D01*
X242535Y337247D01*
X242557Y337119D01*
X242599Y337035D01*
X242620Y336950D01*
Y336887D01*
X242641Y336866D01*
Y336844D01*
X242768Y336506D01*
X242874Y336210D01*
X243022Y335977D01*
X243128Y335787D01*
X243234Y335639D01*
X243318Y335533D01*
X243382Y335469D01*
X243403Y335448D01*
X243593Y335300D01*
X243784Y335173D01*
X243974Y335067D01*
X244165Y334983D01*
X244334Y334919D01*
X244461Y334877D01*
X244545Y334835D01*
X244588D01*
X244821Y334792D01*
X245096Y334771D01*
X245392Y334729D01*
X245688D01*
X245963Y334707D01*
X248566D01*
Y344398D01*
D02*
G37*
G36*
X228106D02*
X224720D01*
X224530Y344377D01*
X224064D01*
X223874Y344356D01*
X223747D01*
X223683Y344334D01*
X223662D01*
X223409Y344271D01*
X223176Y344186D01*
X222985Y344102D01*
X222837Y343996D01*
X222710Y343890D01*
X222605Y343827D01*
X222562Y343763D01*
X222541Y343742D01*
X222414Y343573D01*
X222308Y343361D01*
X222245Y343171D01*
X222181Y342980D01*
X222160Y342811D01*
X222139Y342684D01*
Y342599D01*
Y342557D01*
X222160Y342324D01*
X222181Y342113D01*
X222245Y341922D01*
X222287Y341753D01*
X222351Y341626D01*
X222414Y341542D01*
X222435Y341478D01*
X222456Y341457D01*
X222583Y341309D01*
X222710Y341182D01*
X222985Y340992D01*
X223091Y340928D01*
X223197Y340886D01*
X223260Y340843D01*
X223281D01*
X223387Y340822D01*
X223557Y340780D01*
X223726Y340759D01*
X223916Y340738D01*
X224361Y340716D01*
X224805Y340695D01*
X225228Y340674D01*
X228106D01*
Y344398D01*
D02*
G37*
G36*
X184879Y344440D02*
X181938D01*
X181706Y344419D01*
X181155D01*
X181029Y344398D01*
X180796D01*
X180711Y344377D01*
X180690D01*
X180436Y344334D01*
X180203Y344271D01*
X180013Y344186D01*
X179844Y344102D01*
X179738Y344017D01*
X179632Y343932D01*
X179590Y343890D01*
X179569Y343869D01*
X179442Y343700D01*
X179357Y343509D01*
X179272Y343340D01*
X179230Y343171D01*
X179209Y343002D01*
X179188Y342875D01*
Y342790D01*
Y342769D01*
X179209Y342515D01*
X179251Y342282D01*
X179336Y342092D01*
X179399Y341922D01*
X179484Y341774D01*
X179569Y341690D01*
X179611Y341626D01*
X179632Y341605D01*
X179801Y341457D01*
X179992Y341351D01*
X180182Y341267D01*
X180373Y341203D01*
X180563Y341140D01*
X180690Y341118D01*
X180775Y341097D01*
X180902D01*
X181029Y341076D01*
X181684D01*
X182044Y341055D01*
X184879D01*
Y344440D01*
D02*
G37*
G36*
Y338622D02*
X181811D01*
X181515Y338601D01*
X181261Y338579D01*
X181007D01*
X180796Y338558D01*
X180605Y338537D01*
X180457Y338516D01*
X180309Y338495D01*
X180203Y338474D01*
X180034Y338452D01*
X179928Y338410D01*
X179907D01*
X179696Y338326D01*
X179505Y338220D01*
X179336Y338114D01*
X179209Y337987D01*
X179103Y337902D01*
X179040Y337818D01*
X178997Y337754D01*
X178976Y337733D01*
X178871Y337543D01*
X178786Y337352D01*
X178722Y337183D01*
X178680Y336993D01*
X178659Y336844D01*
X178638Y336717D01*
Y336633D01*
Y336612D01*
X178659Y336337D01*
X178701Y336083D01*
X178765Y335871D01*
X178849Y335702D01*
X178934Y335554D01*
X178997Y335448D01*
X179040Y335385D01*
X179061Y335363D01*
X179230Y335215D01*
X179399Y335088D01*
X179590Y334983D01*
X179759Y334898D01*
X179907Y334856D01*
X180034Y334813D01*
X180119Y334792D01*
X180140D01*
X180225Y334771D01*
X180352D01*
X180627Y334750D01*
X180965Y334729D01*
X181304D01*
X181621Y334707D01*
X184879D01*
Y338622D01*
D02*
G37*
%LPD*%
D17*
X478536Y493786D02*
X473458D01*
X475997D01*
Y486169D01*
X470919D02*
Y493786D01*
X467110D01*
X465840Y492517D01*
Y489977D01*
X467110Y488708D01*
X470919D01*
X463301Y492517D02*
X462031Y493786D01*
X459492D01*
X458223Y492517D01*
Y491247D01*
X459492Y489977D01*
X460762D01*
X459492D01*
X458223Y488708D01*
Y487438D01*
X459492Y486169D01*
X462031D01*
X463301Y487438D01*
X415139Y421129D02*
X410061D01*
X412600D01*
Y413512D01*
X407522D02*
Y421129D01*
X403713D01*
X402443Y419860D01*
Y417321D01*
X403713Y416051D01*
X407522D01*
X394826Y413512D02*
X399904D01*
X394826Y418590D01*
Y419860D01*
X396095Y421129D01*
X398635D01*
X399904Y419860D01*
X387208Y421129D02*
X392287D01*
Y417321D01*
X389748Y418590D01*
X388478D01*
X387208Y417321D01*
Y414782D01*
X388478Y413512D01*
X391017D01*
X392287Y414782D01*
X452120Y494027D02*
X447042D01*
X449581D01*
Y486410D01*
X444502D02*
Y494027D01*
X440694D01*
X439424Y492758D01*
Y490219D01*
X440694Y488949D01*
X444502D01*
X431807Y486410D02*
X436885D01*
X431807Y491488D01*
Y492758D01*
X433076Y494027D01*
X435615D01*
X436885Y492758D01*
X425459Y486410D02*
Y494027D01*
X429267Y490219D01*
X424189D01*
X559506Y429511D02*
X554428D01*
X556967D01*
Y421894D01*
X551889D02*
Y429511D01*
X548080D01*
X546810Y428242D01*
Y425703D01*
X548080Y424433D01*
X551889D01*
X539193Y421894D02*
X544271D01*
X539193Y426972D01*
Y428242D01*
X540462Y429511D01*
X543001D01*
X544271Y428242D01*
X531575Y421894D02*
X536654D01*
X531575Y426972D01*
Y428242D01*
X532845Y429511D01*
X535384D01*
X536654Y428242D01*
X447076Y65105D02*
X441997D01*
X444536D01*
Y57488D01*
X439458D02*
Y65105D01*
X435649D01*
X434380Y63836D01*
Y61296D01*
X435649Y60027D01*
X439458D01*
X426762Y57488D02*
X431840D01*
X426762Y62566D01*
Y63836D01*
X428032Y65105D01*
X430571D01*
X431840Y63836D01*
X424223D02*
X422953Y65105D01*
X420414D01*
X419145Y63836D01*
Y58757D01*
X420414Y57488D01*
X422953D01*
X424223Y58757D01*
Y63836D01*
X373920Y280921D02*
X368842D01*
X371381D01*
Y273304D01*
X366302D02*
Y280921D01*
X362494D01*
X361224Y279652D01*
Y277113D01*
X362494Y275843D01*
X366302D01*
X358685Y273304D02*
X356146D01*
X357415D01*
Y280921D01*
X358685Y279652D01*
X352337Y274574D02*
X351067Y273304D01*
X348528D01*
X347259Y274574D01*
Y279652D01*
X348528Y280921D01*
X351067D01*
X352337Y279652D01*
Y278382D01*
X351067Y277113D01*
X347259D01*
X266192Y423025D02*
X261114D01*
X263653D01*
Y415408D01*
X258575D02*
Y423025D01*
X254766D01*
X253496Y421756D01*
Y419217D01*
X254766Y417947D01*
X258575D01*
X250957Y415408D02*
X248418D01*
X249687D01*
Y423025D01*
X250957Y421756D01*
X244609D02*
X243339Y423025D01*
X240800D01*
X239531Y421756D01*
Y420486D01*
X240800Y419217D01*
X239531Y417947D01*
Y416678D01*
X240800Y415408D01*
X243339D01*
X244609Y416678D01*
Y417947D01*
X243339Y419217D01*
X244609Y420486D01*
Y421756D01*
X243339Y419217D02*
X240800D01*
X408686Y394459D02*
X403608D01*
X406147D01*
Y386842D01*
X401068D02*
Y394459D01*
X397260D01*
X395990Y393190D01*
Y390651D01*
X397260Y389381D01*
X401068D01*
X393451Y386842D02*
X390912D01*
X392181D01*
Y394459D01*
X393451Y393190D01*
X387103Y394459D02*
X382025D01*
Y393190D01*
X387103Y388112D01*
Y386842D01*
X524764Y429092D02*
X519686D01*
X522225D01*
Y421474D01*
X517146D02*
Y429092D01*
X513338D01*
X512068Y427822D01*
Y425283D01*
X513338Y424014D01*
X517146D01*
X509529Y421474D02*
X506990D01*
X508259D01*
Y429092D01*
X509529Y427822D01*
X498103Y429092D02*
X500642Y427822D01*
X503181Y425283D01*
Y422744D01*
X501911Y421474D01*
X499372D01*
X498103Y422744D01*
Y424014D01*
X499372Y425283D01*
X503181D01*
X395732Y370838D02*
X390654D01*
X393193D01*
Y363220D01*
X388115D02*
Y370838D01*
X384306D01*
X383036Y369568D01*
Y367029D01*
X384306Y365759D01*
X388115D01*
X380497Y363220D02*
X377958D01*
X379227D01*
Y370838D01*
X380497Y369568D01*
X374149Y363220D02*
X371610D01*
X372879D01*
Y370838D01*
X374149Y369568D01*
X711962Y73608D02*
X706884D01*
X709423D01*
Y65991D01*
X704344D02*
Y73608D01*
X700536D01*
X699266Y72339D01*
Y69800D01*
X700536Y68530D01*
X704344D01*
X696727Y65991D02*
X694188D01*
X695457D01*
Y73608D01*
X696727Y72339D01*
X690379D02*
X689109Y73608D01*
X686570D01*
X685301Y72339D01*
Y67260D01*
X686570Y65991D01*
X689109D01*
X690379Y67260D01*
Y72339D01*
X614680Y-3559D02*
X609602D01*
X612141D01*
Y-11176D01*
X607062D02*
Y-3559D01*
X603254D01*
X601984Y-4828D01*
Y-7367D01*
X603254Y-8637D01*
X607062D01*
X599445Y-9906D02*
X598175Y-11176D01*
X595636D01*
X594367Y-9906D01*
Y-4828D01*
X595636Y-3559D01*
X598175D01*
X599445Y-4828D01*
Y-6098D01*
X598175Y-7367D01*
X594367D01*
X415544Y123105D02*
X410466D01*
X413005D01*
Y115487D01*
X407926D02*
Y123105D01*
X404118D01*
X402848Y121835D01*
Y119296D01*
X404118Y118026D01*
X407926D01*
X400309Y121835D02*
X399039Y123105D01*
X396500D01*
X395231Y121835D01*
Y120565D01*
X396500Y119296D01*
X395231Y118026D01*
Y116757D01*
X396500Y115487D01*
X399039D01*
X400309Y116757D01*
Y118026D01*
X399039Y119296D01*
X400309Y120565D01*
Y121835D01*
X399039Y119296D02*
X396500D01*
X414020Y147571D02*
X408942D01*
X411481D01*
Y139954D01*
X406403D02*
Y147571D01*
X402594D01*
X401324Y146302D01*
Y143763D01*
X402594Y142493D01*
X406403D01*
X398785Y147571D02*
X393707D01*
Y146302D01*
X398785Y141224D01*
Y139954D01*
X357124Y508759D02*
X352046D01*
X354585D01*
Y501142D01*
X349506D02*
Y508759D01*
X345698D01*
X344428Y507490D01*
Y504951D01*
X345698Y503681D01*
X349506D01*
X336811Y508759D02*
X339350Y507490D01*
X341889Y504951D01*
Y502412D01*
X340619Y501142D01*
X338080D01*
X336811Y502412D01*
Y503681D01*
X338080Y504951D01*
X341889D01*
X359918Y467612D02*
X354840D01*
X357379D01*
Y459994D01*
X352300D02*
Y467612D01*
X348492D01*
X347222Y466342D01*
Y463803D01*
X348492Y462533D01*
X352300D01*
X339605Y467612D02*
X344683D01*
Y463803D01*
X342144Y465072D01*
X340874D01*
X339605Y463803D01*
Y461264D01*
X340874Y459994D01*
X343413D01*
X344683Y461264D01*
D19*
X422136Y640793D02*
G03*
X422136Y640793I-21250J0D01*
G01*
X426867Y709393D02*
G03*
X374905Y709393I-25981J-15000D01*
G01*
X-25992Y15018D02*
G03*
X-11Y-29982I25981J-15000D01*
G01*
X376136Y151476D02*
G03*
X376136Y151476I-113750J0D01*
G01*
X653136D02*
G03*
X653136Y151476I-113750J0D01*
G01*
X801784Y-29982D02*
G03*
X827764Y15018I0J30000D01*
G01*
X759783Y-15982D02*
G03*
X749783Y-5982I-10000J0D01*
G01*
X697066Y-357D02*
G03*
X655284Y-9982I-19783J-9625D01*
G01*
X697066Y-357D02*
G03*
X706059Y-5982I8992J4375D01*
G01*
X408886Y2018D02*
G03*
X392886Y2018I-8000J0D01*
G01*
X146489Y-9982D02*
G03*
X104706Y-357I-22000J0D01*
G01*
X95714Y-5982D02*
G03*
X104706Y-357I0J10000D01*
G01*
X51989Y-5982D02*
G03*
X41989Y-15982I0J-10000D01*
G01*
X-25992Y15018D02*
X374905Y709393D01*
X-11Y-29982D02*
X41989D01*
X426867Y709393D02*
X827764Y15018D01*
X759783Y-29982D02*
X801784D01*
X759783D02*
Y-15982D01*
X706059Y-5982D02*
X749783D01*
X655284Y-24982D02*
Y-9982D01*
X408886Y-24982D02*
X655284D01*
X408886D02*
Y2018D01*
X392886Y-24982D02*
Y2018D01*
X146489Y-24982D02*
X392886D01*
X51989Y-5982D02*
X95714D01*
X146489Y-24982D02*
Y-9982D01*
X41989Y-29982D02*
Y-15982D01*
D82*
X398018Y317108D02*
X392940D01*
X395479D01*
Y309490D01*
X390401D02*
Y317108D01*
X386592D01*
X385322Y315838D01*
Y313299D01*
X386592Y312029D01*
X390401D01*
X382783Y309490D02*
X380244D01*
X381513D01*
Y317108D01*
X382783Y315838D01*
X371357Y317108D02*
X376435D01*
Y313299D01*
X373896Y314568D01*
X372626D01*
X371357Y313299D01*
Y310760D01*
X372626Y309490D01*
X375165D01*
X376435Y310760D01*
X482170Y316150D02*
X477092D01*
X479631D01*
Y308532D01*
X474552D02*
Y316150D01*
X470744D01*
X469474Y314880D01*
Y312341D01*
X470744Y311071D01*
X474552D01*
X466935Y308532D02*
X464396D01*
X465665D01*
Y316150D01*
X466935Y314880D01*
X456778Y308532D02*
Y316150D01*
X460587Y312341D01*
X455509D01*
X440115Y304797D02*
X435037D01*
X437576D01*
Y297180D01*
X432498D02*
Y304797D01*
X428689D01*
X427419Y303528D01*
Y300989D01*
X428689Y299719D01*
X432498D01*
X424880Y297180D02*
X422341D01*
X423610D01*
Y304797D01*
X424880Y303528D01*
X418532D02*
X417262Y304797D01*
X414723D01*
X413454Y303528D01*
Y302258D01*
X414723Y300989D01*
X415993D01*
X414723D01*
X413454Y299719D01*
Y298450D01*
X414723Y297180D01*
X417262D01*
X418532Y298450D01*
X472568Y278330D02*
X467490D01*
X470029D01*
Y270713D01*
X464951D02*
Y278330D01*
X461142D01*
X459873Y277061D01*
Y274522D01*
X461142Y273252D01*
X464951D01*
X457333Y270713D02*
X454794D01*
X456064D01*
Y278330D01*
X457333Y277061D01*
X445907Y270713D02*
X450985D01*
X445907Y275791D01*
Y277061D01*
X447177Y278330D01*
X449716D01*
X450985Y277061D01*
D143*
X452340Y314198D02*
G03*
X452340Y314198I-5300J0D01*
G01*
X354042Y475488D02*
G03*
X354042Y475488I-5300J0D01*
G01*
X412462Y313944D02*
G03*
X412462Y313944I-5300J0D01*
G01*
X388078Y355854D02*
G03*
X388078Y355854I-5300J0D01*
G01*
X399254Y378968D02*
G03*
X399254Y378968I-5300J0D01*
G01*
X263364Y407924D02*
G03*
X263364Y407924I-5300J0D01*
G01*
X409160Y130556D02*
G03*
X409160Y130556I-5300J0D01*
G01*
X461104Y286004D02*
G03*
X461104Y286004I-5300J0D01*
G01*
X366742Y265802D02*
G03*
X366742Y265802I-5300J0D01*
G01*
X409160Y154940D02*
G03*
X409160Y154940I-5300J0D01*
G01*
X405096Y405384D02*
G03*
X405096Y405384I-5300J0D01*
G01*
X551654Y413258D02*
G03*
X551654Y413258I-5300J0D01*
G01*
X681448Y68812D02*
G03*
X681448Y68812I-5300J0D01*
G01*
X518888Y413258D02*
G03*
X518888Y413258I-5300J0D01*
G01*
X473422Y478234D02*
G03*
X473422Y478234I-5300J0D01*
G01*
X445482Y478028D02*
G03*
X445482Y478028I-5300J0D01*
G01*
X627600Y-7366D02*
G03*
X627600Y-7366I-5300J0D01*
G01*
X353280Y494030D02*
G03*
X353280Y494030I-5300J0D01*
G01*
X415546Y60560D02*
G03*
X415546Y60560I-5300J0D01*
G01*
X431860Y314276D02*
G03*
X431860Y314276I-5300J0D01*
G01*
D144*
X259456Y302133D02*
D03*
M02*
