G04*
G04 #@! TF.GenerationSoftware,Altium Limited,Altium Designer,19.0.12 (326)*
G04*
G04 Layer_Color=8388736*
%FSLAX44Y44*%
%MOMM*%
G71*
G01*
G75*
%ADD19C,0.0500*%
%ADD29C,0.9348*%
%ADD30C,0.8891*%
%ADD49R,0.7400X0.7400*%
%ADD50R,0.7620X0.7620*%
%ADD51R,0.9000X1.0000*%
%ADD52R,0.8000X1.0500*%
G04:AMPARAMS|DCode=53|XSize=0.44mm|YSize=1.14mm|CornerRadius=0mm|HoleSize=0mm|Usage=FLASHONLY|Rotation=150.000|XOffset=0mm|YOffset=0mm|HoleType=Round|Shape=Rectangle|*
%AMROTATEDRECTD53*
4,1,4,0.4755,0.3836,-0.0945,-0.6036,-0.4755,-0.3836,0.0945,0.6036,0.4755,0.3836,0.0*
%
%ADD53ROTATEDRECTD53*%

G04:AMPARAMS|DCode=54|XSize=0.44mm|YSize=0.84mm|CornerRadius=0mm|HoleSize=0mm|Usage=FLASHONLY|Rotation=150.000|XOffset=0mm|YOffset=0mm|HoleType=Round|Shape=Rectangle|*
%AMROTATEDRECTD54*
4,1,4,0.4005,0.2537,-0.0195,-0.4737,-0.4005,-0.2537,0.0195,0.4737,0.4005,0.2537,0.0*
%
%ADD54ROTATEDRECTD54*%

%ADD55R,1.2400X1.5400*%
G04:AMPARAMS|DCode=56|XSize=1.54mm|YSize=1.24mm|CornerRadius=0mm|HoleSize=0mm|Usage=FLASHONLY|Rotation=135.000|XOffset=0mm|YOffset=0mm|HoleType=Round|Shape=Rectangle|*
%AMROTATEDRECTD56*
4,1,4,0.9829,-0.1061,0.1061,-0.9829,-0.9829,0.1061,-0.1061,0.9829,0.9829,-0.1061,0.0*
%
%ADD56ROTATEDRECTD56*%

%ADD57R,1.2400X1.7400*%
%ADD58R,1.7400X2.3400*%
%ADD59R,0.4400X1.5400*%
%ADD60R,0.6400X0.3400*%
%ADD61R,0.3400X0.6400*%
%ADD62R,0.4400X1.3400*%
%ADD63R,1.8400X1.6400*%
%ADD64R,1.1684X1.0160*%
%ADD65R,0.7400X0.7400*%
%ADD66R,1.0160X1.1684*%
%ADD67R,0.8600X0.8600*%
%ADD68R,2.8400X1.4400*%
%ADD69R,0.7900X0.8400*%
%ADD70R,1.5400X1.7800*%
%ADD71R,0.8600X0.8600*%
%ADD72R,2.9400X2.9400*%
%ADD73R,0.4400X0.9400*%
%ADD74R,0.9400X0.4400*%
%ADD75R,1.2032X2.9532*%
%ADD76C,0.6480*%
G36*
X431270Y426407D02*
Y415157D01*
X420269D01*
Y411408D01*
X412469D01*
X404519Y420358D01*
Y427158D01*
X408270D01*
Y438157D01*
X419520D01*
X431270Y426407D01*
D02*
G37*
G36*
X388270Y427158D02*
X392019D01*
Y420358D01*
X384069Y411408D01*
X376269D01*
Y415157D01*
X365270D01*
Y426407D01*
X377020Y438157D01*
X388270D01*
Y427158D01*
D02*
G37*
G36*
X420269Y395157D02*
X431270D01*
Y383907D01*
X419520Y372157D01*
X408270D01*
Y383158D01*
X404519D01*
Y389958D01*
X412469Y398908D01*
X420269D01*
Y395157D01*
D02*
G37*
G36*
X392019Y389958D02*
Y383158D01*
X388270D01*
Y372157D01*
X377020D01*
X365270Y383907D01*
Y395157D01*
X376269D01*
Y398908D01*
X384069D01*
X392019Y389958D01*
D02*
G37*
D19*
X422136Y640793D02*
G03*
X422136Y640793I-21250J0D01*
G01*
X426867Y709393D02*
G03*
X374905Y709393I-25981J-15000D01*
G01*
X-25992Y15018D02*
G03*
X-11Y-29982I25981J-15000D01*
G01*
X376136Y151476D02*
G03*
X376136Y151476I-113750J0D01*
G01*
X653136D02*
G03*
X653136Y151476I-113750J0D01*
G01*
X801784Y-29982D02*
G03*
X827764Y15018I0J30000D01*
G01*
X759783Y-15982D02*
G03*
X749783Y-5982I-10000J0D01*
G01*
X697066Y-357D02*
G03*
X655284Y-9982I-19783J-9625D01*
G01*
X697066Y-357D02*
G03*
X706059Y-5982I8992J4375D01*
G01*
X408886Y2018D02*
G03*
X392886Y2018I-8000J0D01*
G01*
X146489Y-9982D02*
G03*
X104706Y-357I-22000J0D01*
G01*
X95714Y-5982D02*
G03*
X104706Y-357I0J10000D01*
G01*
X51989Y-5982D02*
G03*
X41989Y-15982I0J-10000D01*
G01*
X-25992Y15018D02*
X374905Y709393D01*
X-11Y-29982D02*
X41989D01*
X426867Y709393D02*
X827764Y15018D01*
X759783Y-29982D02*
X801784D01*
X759783D02*
Y-15982D01*
X706059Y-5982D02*
X749783D01*
X655284Y-24982D02*
Y-9982D01*
X408886Y-24982D02*
X655284D01*
X408886D02*
Y2018D01*
X392886Y-24982D02*
Y2018D01*
X146489Y-24982D02*
X392886D01*
X51989Y-5982D02*
X95714D01*
X146489Y-24982D02*
Y-9982D01*
X41989Y-29982D02*
Y-15982D01*
D29*
X384134Y419301D02*
D03*
X412404Y391015D02*
D03*
D30*
X412336Y419156D02*
D03*
X384202Y391160D02*
D03*
D49*
X503682Y454914D02*
D03*
X493682D02*
D03*
X503682Y466852D02*
D03*
X493682D02*
D03*
X645842Y-12954D02*
D03*
X635842D02*
D03*
X201120Y23276D02*
D03*
X211120D02*
D03*
X402188Y339208D02*
D03*
X412188D02*
D03*
X402188Y317276D02*
D03*
X412188D02*
D03*
X412188Y328394D02*
D03*
X402188D02*
D03*
D50*
X358137Y341884D02*
D03*
X347469D02*
D03*
X358140Y331724D02*
D03*
X347472D02*
D03*
X358140Y321564D02*
D03*
X347472D02*
D03*
X347469Y311404D02*
D03*
X358137D02*
D03*
X347472Y301244D02*
D03*
X358140D02*
D03*
D51*
X598500Y333750D02*
D03*
X563500D02*
D03*
X238250D02*
D03*
X203250D02*
D03*
D52*
X587000Y371500D02*
D03*
X575000D02*
D03*
X226750D02*
D03*
X214750D02*
D03*
D53*
X316884Y587119D02*
D03*
X343558Y571719D02*
D03*
D54*
X310476Y560219D02*
D03*
X314806Y557719D02*
D03*
X319136Y555219D02*
D03*
X323466Y552719D02*
D03*
D55*
X639737Y25400D02*
D03*
X624737D02*
D03*
D56*
X643351Y60421D02*
D03*
X632745Y49815D02*
D03*
D57*
X322852Y283464D02*
D03*
X356852D02*
D03*
D58*
X374750Y-998D02*
D03*
X266750D02*
D03*
D59*
X338250Y29232D02*
D03*
X333250D02*
D03*
X328250D02*
D03*
X323250D02*
D03*
X318250D02*
D03*
X313250D02*
D03*
X308250D02*
D03*
X303250D02*
D03*
X298250D02*
D03*
X293250D02*
D03*
X343250D02*
D03*
X348250D02*
D03*
D60*
X375772Y489884D02*
D03*
Y486384D02*
D03*
Y482884D02*
D03*
Y479384D02*
D03*
X395248D02*
D03*
Y482884D02*
D03*
Y486384D02*
D03*
Y489884D02*
D03*
D61*
X382010Y474896D02*
D03*
X385510D02*
D03*
X389010D02*
D03*
Y494372D02*
D03*
X385510D02*
D03*
X382010D02*
D03*
D62*
X489180Y24452D02*
D03*
X494180D02*
D03*
X499180D02*
D03*
X504180D02*
D03*
X509180D02*
D03*
X514180D02*
D03*
X519180D02*
D03*
X524180D02*
D03*
X529180D02*
D03*
X534180D02*
D03*
X539180D02*
D03*
X544180D02*
D03*
X549180D02*
D03*
X554180D02*
D03*
X559180D02*
D03*
X564180D02*
D03*
X569180D02*
D03*
X574180D02*
D03*
X579180D02*
D03*
X584180D02*
D03*
D63*
X472680Y-14548D02*
D03*
X600680D02*
D03*
D64*
X410392Y81478D02*
D03*
Y67254D02*
D03*
D65*
X424434Y66882D02*
D03*
Y76882D02*
D03*
X461264Y299546D02*
D03*
Y309546D02*
D03*
X421324Y488734D02*
D03*
Y478734D02*
D03*
X409640Y478734D02*
D03*
Y488734D02*
D03*
X487680Y319826D02*
D03*
Y329826D02*
D03*
X445379Y299918D02*
D03*
Y309918D02*
D03*
X424497Y309968D02*
D03*
Y299968D02*
D03*
D66*
X644906Y675D02*
D03*
X630682D02*
D03*
D67*
X210994Y-3228D02*
D03*
X200994D02*
D03*
X378032Y357378D02*
D03*
X388032D02*
D03*
X402354Y302886D02*
D03*
X412354D02*
D03*
D68*
X513272Y327248D02*
D03*
Y356248D02*
D03*
D69*
X212744Y10497D02*
D03*
X199244D02*
D03*
D70*
X478706Y426974D02*
D03*
X519006D02*
D03*
D71*
X435035Y309968D02*
D03*
Y299968D02*
D03*
D72*
X451698Y350270D02*
D03*
D73*
X439198Y370270D02*
D03*
X444198D02*
D03*
X449198D02*
D03*
X454198D02*
D03*
X459198D02*
D03*
X464198D02*
D03*
Y330270D02*
D03*
X459198D02*
D03*
X454198D02*
D03*
X449198D02*
D03*
X444198D02*
D03*
X439198D02*
D03*
D74*
X471698Y362770D02*
D03*
Y357770D02*
D03*
Y352770D02*
D03*
Y347770D02*
D03*
Y342770D02*
D03*
Y337770D02*
D03*
X431698D02*
D03*
Y342770D02*
D03*
Y347770D02*
D03*
Y352770D02*
D03*
Y357770D02*
D03*
Y362770D02*
D03*
D75*
X381060Y203250D02*
D03*
X421060Y203250D02*
D03*
Y259750D02*
D03*
X381060D02*
D03*
D76*
X451698Y350270D02*
D03*
X461698Y340270D02*
D03*
X441698D02*
D03*
X461698Y360270D02*
D03*
X441698D02*
D03*
M02*
