G04*
G04 #@! TF.GenerationSoftware,Altium Limited,Altium Designer,19.0.12 (326)*
G04*
G04 Layer_Color=16711935*
%FSLAX44Y44*%
%MOMM*%
G71*
G01*
G75*
%ADD19C,0.0500*%
%ADD147C,0.5000*%
%ADD149C,2.1000*%
%ADD150C,2.0000*%
%ADD151C,10.0000*%
%ADD152C,0.8000*%
%ADD153C,2.4000*%
%ADD154C,0.9000*%
D19*
X422136Y640793D02*
G03*
X422136Y640793I-21250J0D01*
G01*
X426867Y709393D02*
G03*
X374905Y709393I-25981J-15000D01*
G01*
X-25992Y15018D02*
G03*
X-11Y-29982I25981J-15000D01*
G01*
X376136Y151476D02*
G03*
X376136Y151476I-113750J0D01*
G01*
X653136D02*
G03*
X653136Y151476I-113750J0D01*
G01*
X801784Y-29982D02*
G03*
X827764Y15018I0J30000D01*
G01*
X759783Y-15982D02*
G03*
X749783Y-5982I-10000J0D01*
G01*
X697066Y-357D02*
G03*
X655284Y-9982I-19783J-9625D01*
G01*
X697066Y-357D02*
G03*
X706059Y-5982I8992J4375D01*
G01*
X408886Y2018D02*
G03*
X392886Y2018I-8000J0D01*
G01*
X146489Y-9982D02*
G03*
X104706Y-357I-22000J0D01*
G01*
X95714Y-5982D02*
G03*
X104706Y-357I0J10000D01*
G01*
X51989Y-5982D02*
G03*
X41989Y-15982I0J-10000D01*
G01*
X-25992Y15018D02*
X374905Y709393D01*
X-11Y-29982D02*
X41989D01*
X426867Y709393D02*
X827764Y15018D01*
X759783Y-29982D02*
X801784D01*
X759783D02*
Y-15982D01*
X706059Y-5982D02*
X749783D01*
X655284Y-24982D02*
Y-9982D01*
X408886Y-24982D02*
X655284D01*
X408886D02*
Y2018D01*
X392886Y-24982D02*
Y2018D01*
X146489Y-24982D02*
X392886D01*
X51989Y-5982D02*
X95714D01*
X146489Y-24982D02*
Y-9982D01*
X41989Y-29982D02*
Y-15982D01*
D147*
X408886Y-24982D02*
X655284D01*
X146489D02*
X392886D01*
D149*
X688500Y-10250D02*
G03*
X688500Y-10250I-11000J0D01*
G01*
X135000Y-9500D02*
G03*
X135000Y-9500I-11000J0D01*
G01*
D150*
X549140Y149290D02*
G03*
X549140Y149290I-10000J0D01*
G01*
X273390Y152540D02*
G03*
X273390Y152540I-10000J0D01*
G01*
X410890Y640790D02*
G03*
X410890Y640790I-10000J0D01*
G01*
D151*
X599390Y151480D02*
G03*
X599390Y151480I-60000J0D01*
G01*
X322390D02*
G03*
X322390Y151480I-60000J0D01*
G01*
D152*
X422140Y640790D02*
G03*
X422140Y640790I-21250J0D01*
G01*
X376140Y151480D02*
G03*
X376140Y151480I-113750J0D01*
G01*
X653140D02*
G03*
X653140Y151480I-113750J0D01*
G01*
X426867Y709393D02*
G03*
X374905Y709393I-25981J-15000D01*
G01*
X801784Y-29982D02*
G03*
X827764Y15018I0J30000D01*
G01*
X759783Y-15982D02*
G03*
X749783Y-5982I-10000J0D01*
G01*
X697066Y-357D02*
G03*
X706059Y-5982I8992J4375D01*
G01*
X697066Y-357D02*
G03*
X655284Y-9982I-19783J-9625D01*
G01*
X408886Y2018D02*
G03*
X392886Y2018I-8000J0D01*
G01*
X146489Y-9982D02*
G03*
X104706Y-357I-22000J0D01*
G01*
X95714Y-5982D02*
G03*
X104706Y-357I0J10000D01*
G01*
X51989Y-5982D02*
G03*
X41989Y-15982I0J-10000D01*
G01*
X-25992Y15018D02*
G03*
X-11Y-29982I25981J-15000D01*
G01*
X426867Y709393D02*
X827764Y15018D01*
X759783Y-29982D02*
X801784D01*
X759783D02*
Y-15982D01*
X706059Y-5982D02*
X749783D01*
X655284Y-24982D02*
Y-9982D01*
X408886Y-24982D02*
Y2018D01*
X392886Y-24982D02*
Y2018D01*
X146489Y-24982D02*
Y-9982D01*
X-25992Y15018D02*
X374905Y709393D01*
X51989Y-5982D02*
X95714D01*
X41989Y-29982D02*
Y-15982D01*
X-11Y-29982D02*
X41989D01*
D153*
X51482Y-20000D02*
X138250D01*
X663482Y-17500D02*
X750250D01*
D154*
X400750Y-24732D02*
Y2268D01*
M02*
