G04*
G04 #@! TF.GenerationSoftware,Altium Limited,Altium Designer,19.0.12 (326)*
G04*
G04 Layer_Color=255*
%FSLAX44Y44*%
%MOMM*%
G71*
G01*
G75*
%ADD19C,0.0500*%
%ADD129C,0.8500*%
D19*
X422136Y640793D02*
G03*
X422136Y640793I-21250J0D01*
G01*
X426867Y709393D02*
G03*
X374905Y709393I-25981J-15000D01*
G01*
X-25992Y15018D02*
G03*
X-11Y-29982I25981J-15000D01*
G01*
X376136Y151476D02*
G03*
X376136Y151476I-113750J0D01*
G01*
X653136D02*
G03*
X653136Y151476I-113750J0D01*
G01*
X801784Y-29982D02*
G03*
X827764Y15018I0J30000D01*
G01*
X759783Y-15982D02*
G03*
X749783Y-5982I-10000J0D01*
G01*
X697066Y-357D02*
G03*
X655284Y-9982I-19783J-9625D01*
G01*
X697066Y-357D02*
G03*
X706059Y-5982I8992J4375D01*
G01*
X408886Y2018D02*
G03*
X392886Y2018I-8000J0D01*
G01*
X146489Y-9982D02*
G03*
X104706Y-357I-22000J0D01*
G01*
X95714Y-5982D02*
G03*
X104706Y-357I0J10000D01*
G01*
X51989Y-5982D02*
G03*
X41989Y-15982I0J-10000D01*
G01*
X-25992Y15018D02*
X374905Y709393D01*
X-11Y-29982D02*
X41989D01*
X426867Y709393D02*
X827764Y15018D01*
X759783Y-29982D02*
X801784D01*
X759783D02*
Y-15982D01*
X706059Y-5982D02*
X749783D01*
X655284Y-24982D02*
Y-9982D01*
X408886Y-24982D02*
X655284D01*
X408886D02*
Y2018D01*
X392886Y-24982D02*
Y2018D01*
X146489Y-24982D02*
X392886D01*
X51989Y-5982D02*
X95714D01*
X146489Y-24982D02*
Y-9982D01*
X41989Y-29982D02*
Y-15982D01*
D129*
X447040Y314198D02*
D03*
X348742Y475488D02*
D03*
X407162Y313944D02*
D03*
X382778Y355854D02*
D03*
X393954Y378968D02*
D03*
X258064Y407924D02*
D03*
X403860Y130556D02*
D03*
X455804Y286004D02*
D03*
X361442Y265802D02*
D03*
X403860Y154940D02*
D03*
X399796Y405384D02*
D03*
X546354Y413258D02*
D03*
X676148Y68812D02*
D03*
X513588Y413258D02*
D03*
X468122Y478234D02*
D03*
X440182Y478028D02*
D03*
X622300Y-7366D02*
D03*
X347980Y494030D02*
D03*
X410246Y60560D02*
D03*
X426560Y314276D02*
D03*
M02*
