G04*
G04 #@! TF.GenerationSoftware,Altium Limited,Altium Designer,19.0.12 (326)*
G04*
G04 Layer_Color=16711935*
%FSLAX44Y44*%
%MOMM*%
G71*
G01*
G75*
%ADD14C,0.2000*%
%ADD18C,0.0127*%
%ADD19C,0.0130*%
%ADD53C,0.2540*%
%ADD89C,0.5000*%
D14*
X2154090Y-1330799D02*
X2155519Y-1330085D01*
X2157661Y-1327943D01*
Y-1342939D01*
X2202090Y-1330799D02*
X2203519Y-1330085D01*
X2205661Y-1327943D01*
Y-1342939D01*
D18*
X510723Y-19142D02*
X566304Y-476337D01*
X0Y0D02*
X403392D01*
X403397Y0D02*
X461304Y-476337D01*
X735904Y-19138D02*
Y489996D01*
X4Y0D02*
Y489996D01*
X461304Y-640804D02*
X566304D01*
Y-476337D01*
X461304Y-640804D02*
Y-476337D01*
X399804Y864296D02*
X399804Y489996D01*
X504804Y864296D02*
X504804Y489996D01*
X4Y489996D02*
X399804Y489996D01*
X504804Y489996D02*
X735904Y489996D01*
X399804Y864296D02*
X504804D01*
D19*
X510723Y-19138D02*
X735904Y-19138D01*
D53*
X-1350010Y-365922D02*
Y-345928D01*
X-1336681Y-365922D01*
Y-345928D01*
X-1320020D02*
X-1326684D01*
X-1330016Y-349260D01*
Y-362589D01*
X-1326684Y-365922D01*
X-1320020D01*
X-1316687Y-362589D01*
Y-349260D01*
X-1320020Y-345928D01*
X-1310023D02*
X-1296694D01*
X-1303358D01*
Y-365922D01*
X-1276700Y-345928D02*
X-1290029D01*
Y-365922D01*
X-1276700D01*
X-1290029Y-355925D02*
X-1283365D01*
X-1256707Y-349260D02*
X-1260039Y-345928D01*
X-1266703D01*
X-1270036Y-349260D01*
Y-352593D01*
X-1266703Y-355925D01*
X-1260039D01*
X-1256707Y-359257D01*
Y-362589D01*
X-1260039Y-365922D01*
X-1266703D01*
X-1270036Y-362589D01*
X-1250042Y-352593D02*
X-1246710D01*
Y-355925D01*
X-1250042D01*
Y-352593D01*
Y-362589D02*
X-1246710D01*
Y-365922D01*
X-1250042D01*
Y-362589D01*
X-1350010Y-426098D02*
X-1343345D01*
X-1346678D01*
Y-406105D01*
X-1350010Y-409437D01*
X-1333349Y-426098D02*
Y-422766D01*
X-1330016D01*
Y-426098D01*
X-1333349D01*
X-1296694D02*
Y-412769D01*
X-1290029Y-406105D01*
X-1283365Y-412769D01*
Y-426098D01*
Y-416101D01*
X-1296694D01*
X-1276700Y-406105D02*
Y-426098D01*
X-1263371D01*
X-1256707Y-406105D02*
Y-426098D01*
X-1243378D01*
X-1216720D02*
Y-412769D01*
X-1210055Y-406105D01*
X-1203391Y-412769D01*
Y-426098D01*
Y-416101D01*
X-1216720D01*
X-1183397Y-409437D02*
X-1186729Y-406105D01*
X-1193394D01*
X-1196726Y-409437D01*
Y-412769D01*
X-1193394Y-416101D01*
X-1186729D01*
X-1183397Y-419434D01*
Y-422766D01*
X-1186729Y-426098D01*
X-1193394D01*
X-1196726Y-422766D01*
X-1163403Y-409437D02*
X-1166736Y-406105D01*
X-1173400D01*
X-1176732Y-409437D01*
Y-412769D01*
X-1173400Y-416101D01*
X-1166736D01*
X-1163403Y-419434D01*
Y-422766D01*
X-1166736Y-426098D01*
X-1173400D01*
X-1176732Y-422766D01*
X-1143410Y-406105D02*
X-1156739D01*
Y-426098D01*
X-1143410D01*
X-1156739Y-416101D02*
X-1150074D01*
X-1136745Y-426098D02*
Y-406105D01*
X-1130081Y-412769D01*
X-1123416Y-406105D01*
Y-426098D01*
X-1116752Y-406105D02*
Y-426098D01*
X-1106755D01*
X-1103423Y-422766D01*
Y-419434D01*
X-1106755Y-416101D01*
X-1116752D01*
X-1106755D01*
X-1103423Y-412769D01*
Y-409437D01*
X-1106755Y-406105D01*
X-1116752D01*
X-1096758D02*
Y-426098D01*
X-1083429D01*
X-1076765Y-406105D02*
Y-409437D01*
X-1070100Y-416101D01*
X-1063436Y-409437D01*
Y-406105D01*
X-1070100Y-416101D02*
Y-426098D01*
X-1036778D02*
Y-406105D01*
X-1030113Y-412769D01*
X-1023449Y-406105D01*
Y-426098D01*
X-1016784D02*
Y-412769D01*
X-1010119Y-406105D01*
X-1003455Y-412769D01*
Y-426098D01*
Y-416101D01*
X-1016784D01*
X-996790Y-406105D02*
X-983462D01*
X-990126D01*
Y-426098D01*
X-963468Y-406105D02*
X-976797D01*
Y-426098D01*
X-963468D01*
X-976797Y-416101D02*
X-970132D01*
X-956803Y-426098D02*
Y-406105D01*
X-946807D01*
X-943474Y-409437D01*
Y-416101D01*
X-946807Y-419434D01*
X-956803D01*
X-950139D02*
X-943474Y-426098D01*
X-936810Y-406105D02*
X-930145D01*
X-933478D01*
Y-426098D01*
X-936810D01*
X-930145D01*
X-920148D02*
Y-412769D01*
X-913484Y-406105D01*
X-906820Y-412769D01*
Y-426098D01*
Y-416101D01*
X-920148D01*
X-900155Y-406105D02*
Y-426098D01*
X-886826D01*
X-866832Y-409437D02*
X-870165Y-406105D01*
X-876829D01*
X-880161Y-409437D01*
Y-412769D01*
X-876829Y-416101D01*
X-870165D01*
X-866832Y-419434D01*
Y-422766D01*
X-870165Y-426098D01*
X-876829D01*
X-880161Y-422766D01*
X-840174Y-406105D02*
X-826845D01*
X-833510D01*
Y-426098D01*
X-810184Y-406105D02*
X-816849D01*
X-820181Y-409437D01*
Y-422766D01*
X-816849Y-426098D01*
X-810184D01*
X-806852Y-422766D01*
Y-409437D01*
X-810184Y-406105D01*
X-780194D02*
Y-426098D01*
X-770197D01*
X-766865Y-422766D01*
Y-419434D01*
X-770197Y-416101D01*
X-780194D01*
X-770197D01*
X-766865Y-412769D01*
Y-409437D01*
X-770197Y-406105D01*
X-780194D01*
X-746871D02*
X-760200D01*
Y-426098D01*
X-746871D01*
X-760200Y-416101D02*
X-753536D01*
X-720213Y-426098D02*
Y-406105D01*
X-710216D01*
X-706884Y-409437D01*
Y-416101D01*
X-710216Y-419434D01*
X-720213D01*
X-713548D02*
X-706884Y-426098D01*
X-696887D02*
X-690223D01*
X-686890Y-422766D01*
Y-416101D01*
X-690223Y-412769D01*
X-696887D01*
X-700219Y-416101D01*
Y-422766D01*
X-696887Y-426098D01*
X-680226Y-406105D02*
Y-426098D01*
Y-416101D01*
X-666897D01*
Y-406105D01*
Y-426098D01*
X-646903Y-409437D02*
X-650236Y-406105D01*
X-656900D01*
X-660232Y-409437D01*
Y-412769D01*
X-656900Y-416101D01*
X-650236D01*
X-646903Y-419434D01*
Y-422766D01*
X-650236Y-426098D01*
X-656900D01*
X-660232Y-422766D01*
X-606916Y-409437D02*
X-610248Y-406105D01*
X-616913D01*
X-620245Y-409437D01*
Y-422766D01*
X-616913Y-426098D01*
X-610248D01*
X-606916Y-422766D01*
X-590255Y-406105D02*
X-596919D01*
X-600252Y-409437D01*
Y-422766D01*
X-596919Y-426098D01*
X-590255D01*
X-586922Y-422766D01*
Y-409437D01*
X-590255Y-406105D01*
X-580258Y-426098D02*
Y-406105D01*
X-573593Y-412769D01*
X-566929Y-406105D01*
Y-426098D01*
X-560265D02*
Y-406105D01*
X-550268D01*
X-546935Y-409437D01*
Y-416101D01*
X-550268Y-419434D01*
X-560265D01*
X-540271Y-406105D02*
Y-426098D01*
X-526942D01*
X-520277Y-406105D02*
X-513613D01*
X-516945D01*
Y-426098D01*
X-520277D01*
X-513613D01*
X-503616D02*
Y-412769D01*
X-496952Y-406105D01*
X-490287Y-412769D01*
Y-426098D01*
Y-416101D01*
X-503616D01*
X-483623Y-426098D02*
Y-406105D01*
X-470294Y-426098D01*
Y-406105D01*
X-463629D02*
X-450300D01*
X-456964D01*
Y-426098D01*
X-443635D02*
Y-422766D01*
X-440303D01*
Y-426098D01*
X-443635D01*
X-1336681Y-486275D02*
X-1350010D01*
X-1336681Y-472946D01*
Y-469613D01*
X-1340013Y-466281D01*
X-1346678D01*
X-1350010Y-469613D01*
X-1330016Y-486275D02*
Y-482942D01*
X-1326684D01*
Y-486275D01*
X-1330016D01*
X-1293362D02*
Y-466281D01*
X-1286697Y-472946D01*
X-1280033Y-466281D01*
Y-486275D01*
X-1273368D02*
Y-472946D01*
X-1266703Y-466281D01*
X-1260039Y-472946D01*
Y-486275D01*
Y-476278D01*
X-1273368D01*
X-1253374Y-466281D02*
X-1240045D01*
X-1246710D01*
Y-486275D01*
X-1220052Y-466281D02*
X-1233381D01*
Y-486275D01*
X-1220052D01*
X-1233381Y-476278D02*
X-1226716D01*
X-1213387Y-486275D02*
Y-466281D01*
X-1203391D01*
X-1200058Y-469613D01*
Y-476278D01*
X-1203391Y-479610D01*
X-1213387D01*
X-1206723D02*
X-1200058Y-486275D01*
X-1193394Y-466281D02*
X-1186729D01*
X-1190062D01*
Y-486275D01*
X-1193394D01*
X-1186729D01*
X-1176732D02*
Y-472946D01*
X-1170068Y-466281D01*
X-1163403Y-472946D01*
Y-486275D01*
Y-476278D01*
X-1176732D01*
X-1156739Y-466281D02*
Y-486275D01*
X-1143410D01*
X-1136745Y-472946D02*
X-1133413D01*
Y-476278D01*
X-1136745D01*
Y-472946D01*
Y-482942D02*
X-1133413D01*
Y-486275D01*
X-1136745D01*
Y-482942D01*
X-1146742Y-519695D02*
X-1140078D01*
X-1136745Y-516363D01*
Y-509698D01*
X-1140078Y-506366D01*
X-1146742D01*
X-1150074Y-509698D01*
Y-516363D01*
X-1146742Y-519695D01*
Y-496369D02*
X-1140078Y-499702D01*
X-1096758D02*
X-1110087D01*
Y-509698D01*
X-1103423D01*
X-1110087D01*
Y-519695D01*
X-1090094Y-499702D02*
Y-519695D01*
X-1076765D01*
X-1056771Y-499702D02*
X-1070100D01*
Y-519695D01*
X-1056771D01*
X-1070100Y-509698D02*
X-1063436D01*
X-1050107Y-499702D02*
X-1036778Y-519695D01*
Y-499702D02*
X-1050107Y-519695D01*
X-1030113Y-499702D02*
X-1023448D01*
X-1026781D01*
Y-519695D01*
X-1030113D01*
X-1023448D01*
X-1013452Y-499702D02*
Y-519695D01*
X-1003455D01*
X-1000123Y-516363D01*
Y-513031D01*
X-1003455Y-509698D01*
X-1013452D01*
X-1003455D01*
X-1000123Y-506366D01*
Y-503034D01*
X-1003455Y-499702D01*
X-1013452D01*
X-993458D02*
Y-519695D01*
X-980129D01*
X-960136Y-499702D02*
X-973465D01*
Y-519695D01*
X-960136D01*
X-973465Y-509698D02*
X-966800D01*
X-933477Y-519695D02*
Y-499702D01*
X-926813Y-506366D01*
X-920148Y-499702D01*
Y-519695D01*
X-900155Y-499702D02*
X-913484D01*
Y-519695D01*
X-900155D01*
X-913484Y-509698D02*
X-906820D01*
X-893490Y-499702D02*
X-880161D01*
X-886826D01*
Y-519695D01*
X-873497D02*
Y-506366D01*
X-866832Y-499702D01*
X-860168Y-506366D01*
Y-519695D01*
Y-509698D01*
X-873497D01*
X-853503Y-499702D02*
Y-519695D01*
X-840174D01*
X-800187Y-503034D02*
X-803519Y-499702D01*
X-810184D01*
X-813516Y-503034D01*
Y-516363D01*
X-810184Y-519695D01*
X-803519D01*
X-800187Y-516363D01*
X-793523Y-499702D02*
Y-519695D01*
X-780194D01*
X-773529D02*
Y-506366D01*
X-766865Y-499702D01*
X-760200Y-506366D01*
Y-519695D01*
Y-509698D01*
X-773529D01*
X-753536Y-499702D02*
Y-519695D01*
X-743539D01*
X-740207Y-516363D01*
Y-503034D01*
X-743539Y-499702D01*
X-753536D01*
X-713548D02*
Y-519695D01*
X-703552D01*
X-700219Y-516363D01*
Y-503034D01*
X-703552Y-499702D01*
X-713548D01*
X-693555D02*
X-686890D01*
X-690223D01*
Y-519695D01*
X-693555D01*
X-686890D01*
X-663565Y-499702D02*
X-676893D01*
Y-519695D01*
X-663565D01*
X-676893Y-509698D02*
X-670229D01*
X-656900Y-499702D02*
Y-519695D01*
X-643571D01*
X-623577Y-499702D02*
X-636906D01*
Y-519695D01*
X-623577D01*
X-636906Y-509698D02*
X-630242D01*
X-603584Y-503034D02*
X-606916Y-499702D01*
X-613581D01*
X-616913Y-503034D01*
Y-516363D01*
X-613581Y-519695D01*
X-606916D01*
X-603584Y-516363D01*
X-596919Y-499702D02*
X-583590D01*
X-590255D01*
Y-519695D01*
X-576926D02*
Y-499702D01*
X-566929D01*
X-563597Y-503034D01*
Y-509698D01*
X-566929Y-513031D01*
X-576926D01*
X-570261D02*
X-563597Y-519695D01*
X-556932Y-499702D02*
X-550268D01*
X-553600D01*
Y-519695D01*
X-556932D01*
X-550268D01*
X-526942Y-503034D02*
X-530274Y-499702D01*
X-536939D01*
X-540271Y-503034D01*
Y-516363D01*
X-536939Y-519695D01*
X-530274D01*
X-526942Y-516363D01*
X-500284Y-499702D02*
X-493619D01*
X-496951D01*
Y-519695D01*
X-500284D01*
X-493619D01*
X-483623D02*
Y-506366D01*
X-476958Y-499702D01*
X-470294Y-506366D01*
Y-519695D01*
Y-509698D01*
X-483623D01*
X-463629Y-499702D02*
Y-519695D01*
X-456964Y-513031D01*
X-450300Y-519695D01*
Y-499702D01*
X-1110087Y-529790D02*
X-1103423D01*
X-1106755D01*
Y-549783D01*
X-1110087D01*
X-1103423D01*
X-1093426D02*
Y-529790D01*
X-1083429D01*
X-1080097Y-533122D01*
Y-539787D01*
X-1083429Y-543119D01*
X-1093426D01*
X-1060103Y-533122D02*
X-1063436Y-529790D01*
X-1070100D01*
X-1073432Y-533122D01*
Y-546451D01*
X-1070100Y-549783D01*
X-1063436D01*
X-1060103Y-546451D01*
X-1053439Y-539787D02*
X-1040110D01*
X-1023448Y-549783D02*
Y-529790D01*
X-1033445Y-539787D01*
X-1020116D01*
X-1000123Y-549783D02*
X-1013452D01*
X-1000123Y-536454D01*
Y-533122D01*
X-1003455Y-529790D01*
X-1010119D01*
X-1013452Y-533122D01*
X-993458D02*
X-990126Y-529790D01*
X-983461D01*
X-980129Y-533122D01*
Y-546451D01*
X-983461Y-549783D01*
X-990126D01*
X-993458Y-546451D01*
Y-533122D01*
X-963468Y-549783D02*
Y-529790D01*
X-973465Y-539787D01*
X-960136D01*
X-953471Y-549783D02*
X-940142Y-536454D01*
X-933477Y-549783D02*
X-926813D01*
X-930145D01*
Y-529790D01*
X-933477Y-533122D01*
X-916816Y-549783D02*
X-910152D01*
X-913484D01*
Y-529790D01*
X-916816Y-533122D01*
X-866832Y-529790D02*
X-880161D01*
Y-549783D01*
X-866832D01*
X-880161Y-539787D02*
X-873497D01*
X-860168Y-549783D02*
X-853503D01*
X-856836D01*
Y-529790D01*
X-860168Y-533122D01*
X-830178Y-529790D02*
X-843507D01*
Y-549783D01*
X-830178D01*
X-843507Y-539787D02*
X-836842D01*
X-810184Y-549783D02*
X-823513D01*
X-810184Y-536454D01*
Y-533122D01*
X-813516Y-529790D01*
X-820181D01*
X-823513Y-533122D01*
X-773529Y-529790D02*
X-780194D01*
X-783526Y-533122D01*
Y-546451D01*
X-780194Y-549783D01*
X-773529D01*
X-770197Y-546451D01*
Y-533122D01*
X-773529Y-529790D01*
X-763532Y-533122D02*
X-760200Y-529790D01*
X-753536D01*
X-750203Y-533122D01*
Y-546451D01*
X-753536Y-549783D01*
X-760200D01*
X-763532Y-546451D01*
Y-533122D01*
X-743539Y-549783D02*
X-730210Y-536454D01*
X-723545Y-533122D02*
X-720213Y-529790D01*
X-713548D01*
X-710216Y-533122D01*
Y-546451D01*
X-713548Y-549783D01*
X-720213D01*
X-723545Y-546451D01*
Y-533122D01*
X-670229D02*
X-673561Y-529790D01*
X-680226D01*
X-683558Y-533122D01*
Y-546451D01*
X-680226Y-549783D01*
X-673561D01*
X-670229Y-546451D01*
X-663565Y-529790D02*
Y-546451D01*
X-660232Y-549783D01*
X-653568D01*
X-650236Y-546451D01*
Y-529790D01*
X-623577D02*
Y-549783D01*
X-616913Y-543119D01*
X-610248Y-549783D01*
Y-529790D01*
X-603584D02*
X-590255D01*
Y-533122D01*
X-603584Y-546451D01*
Y-549783D01*
X-563597Y-529790D02*
X-550268D01*
X-556932D01*
Y-549783D01*
X-543603D02*
X-530274Y-536454D01*
X-523610Y-529790D02*
X-510281D01*
X-516945D01*
Y-549783D01*
X-1146742Y-583204D02*
X-1140078D01*
X-1136745Y-579872D01*
Y-573207D01*
X-1140078Y-569875D01*
X-1146742D01*
X-1150074Y-573207D01*
Y-579872D01*
X-1146742Y-583204D01*
Y-559878D02*
X-1140078Y-563210D01*
X-1096758Y-566543D02*
X-1100090Y-563210D01*
X-1106755D01*
X-1110087Y-566543D01*
Y-569875D01*
X-1106755Y-573207D01*
X-1100090D01*
X-1096758Y-576539D01*
Y-579872D01*
X-1100090Y-583204D01*
X-1106755D01*
X-1110087Y-579872D01*
X-1090094Y-563210D02*
X-1076765D01*
X-1083429D01*
Y-583204D01*
X-1070100Y-563210D02*
X-1063436D01*
X-1066768D01*
Y-583204D01*
X-1070100D01*
X-1063436D01*
X-1040110Y-563210D02*
X-1053439D01*
Y-573207D01*
X-1046774D01*
X-1053439D01*
Y-583204D01*
X-1020116Y-563210D02*
X-1033445D01*
Y-573207D01*
X-1026781D01*
X-1033445D01*
Y-583204D01*
X-1000123Y-563210D02*
X-1013452D01*
Y-583204D01*
X-1000123D01*
X-1013452Y-573207D02*
X-1006787D01*
X-993458Y-583204D02*
Y-563210D01*
X-980129Y-583204D01*
Y-563210D01*
X-960136D02*
X-973465D01*
Y-583204D01*
X-960136D01*
X-973465Y-573207D02*
X-966800D01*
X-953471Y-583204D02*
Y-563210D01*
X-943474D01*
X-940142Y-566543D01*
Y-573207D01*
X-943474Y-576539D01*
X-953471D01*
X-946807D02*
X-940142Y-583204D01*
X-913484Y-563210D02*
X-906820D01*
X-910152D01*
Y-583204D01*
X-913484D01*
X-906820D01*
X-896823D02*
Y-569875D01*
X-890158Y-563210D01*
X-883494Y-569875D01*
Y-583204D01*
Y-573207D01*
X-896823D01*
X-876829Y-563210D02*
Y-583204D01*
X-870165Y-576539D01*
X-863500Y-583204D01*
Y-563210D01*
X-836842D02*
X-830178D01*
X-833510D01*
Y-583204D01*
X-836842D01*
X-830178D01*
X-820181D02*
Y-563210D01*
X-810184D01*
X-806852Y-566543D01*
Y-573207D01*
X-810184Y-576539D01*
X-820181D01*
X-786858Y-566543D02*
X-790190Y-563210D01*
X-796855D01*
X-800187Y-566543D01*
Y-579872D01*
X-796855Y-583204D01*
X-790190D01*
X-786858Y-579872D01*
X-780194Y-573207D02*
X-766865D01*
X-750203Y-583204D02*
Y-563210D01*
X-760200Y-573207D01*
X-746871D01*
X-726878Y-583204D02*
X-740207D01*
X-726878Y-569875D01*
Y-566543D01*
X-730210Y-563210D01*
X-736874D01*
X-740207Y-566543D01*
X-720213D02*
X-716881Y-563210D01*
X-710216D01*
X-706884Y-566543D01*
Y-579872D01*
X-710216Y-583204D01*
X-716881D01*
X-720213Y-579872D01*
Y-566543D01*
X-700219D02*
X-696887Y-563210D01*
X-690223D01*
X-686890Y-566543D01*
Y-569875D01*
X-690223Y-573207D01*
X-693555D01*
X-690223D01*
X-686890Y-576539D01*
Y-579872D01*
X-690223Y-583204D01*
X-696887D01*
X-700219Y-579872D01*
X-680226Y-583204D02*
X-666897Y-569875D01*
X-660232Y-583204D02*
X-653568D01*
X-656900D01*
Y-563210D01*
X-660232Y-566543D01*
X-643571Y-573207D02*
X-630242D01*
X-610248Y-563210D02*
X-623577D01*
Y-583204D01*
X-610248D01*
X-623577Y-573207D02*
X-616913D01*
X-603584Y-583204D02*
X-596919D01*
X-600252D01*
Y-563210D01*
X-603584Y-566543D01*
X-573593Y-563210D02*
X-586923D01*
Y-583204D01*
X-573593D01*
X-586923Y-573207D02*
X-580258D01*
X-566929Y-566543D02*
X-563597Y-563210D01*
X-556932D01*
X-553600Y-566543D01*
Y-569875D01*
X-556932Y-573207D01*
X-553600Y-576539D01*
Y-579872D01*
X-556932Y-583204D01*
X-563597D01*
X-566929Y-579872D01*
Y-576539D01*
X-563597Y-573207D01*
X-566929Y-569875D01*
Y-566543D01*
X-563597Y-573207D02*
X-556932D01*
X-546936Y-583204D02*
Y-563210D01*
X-540271Y-569875D01*
X-533606Y-563210D01*
Y-583204D01*
X-526942D02*
X-520277D01*
X-523610D01*
Y-563210D01*
X-526942Y-566543D01*
X-1350010Y-626719D02*
X-1346678Y-623387D01*
X-1340013D01*
X-1336681Y-626719D01*
Y-630051D01*
X-1340013Y-633384D01*
X-1343345D01*
X-1340013D01*
X-1336681Y-636716D01*
Y-640048D01*
X-1340013Y-643381D01*
X-1346678D01*
X-1350010Y-640048D01*
X-1330016Y-643381D02*
Y-640048D01*
X-1326684D01*
Y-643381D01*
X-1330016D01*
X-1280033Y-623387D02*
X-1293362D01*
Y-633384D01*
X-1286697D01*
X-1293362D01*
Y-643381D01*
X-1273368Y-623387D02*
X-1266703D01*
X-1270036D01*
Y-643381D01*
X-1273368D01*
X-1266703D01*
X-1256707D02*
Y-623387D01*
X-1243378Y-643381D01*
Y-623387D01*
X-1236713D02*
X-1230049D01*
X-1233381D01*
Y-643381D01*
X-1236713D01*
X-1230049D01*
X-1206723Y-626719D02*
X-1210055Y-623387D01*
X-1216720D01*
X-1220052Y-626719D01*
Y-630051D01*
X-1216720Y-633384D01*
X-1210055D01*
X-1206723Y-636716D01*
Y-640048D01*
X-1210055Y-643381D01*
X-1216720D01*
X-1220052Y-640048D01*
X-1200058Y-623387D02*
Y-643381D01*
Y-633384D01*
X-1186729D01*
Y-623387D01*
Y-643381D01*
X-1180065Y-630051D02*
X-1176732D01*
Y-633384D01*
X-1180065D01*
Y-630051D01*
Y-640048D02*
X-1176732D01*
Y-643381D01*
X-1180065D01*
Y-640048D01*
X-1123416Y-623387D02*
X-1116752D01*
X-1120084D01*
Y-643381D01*
X-1123416D01*
X-1116752D01*
X-1106755D02*
Y-623387D01*
X-1100091Y-630051D01*
X-1093426Y-623387D01*
Y-643381D01*
X-1086762D02*
Y-623387D01*
X-1080097Y-630051D01*
X-1073432Y-623387D01*
Y-643381D01*
X-1053439Y-623387D02*
X-1066768D01*
Y-643381D01*
X-1053439D01*
X-1066768Y-633384D02*
X-1060104D01*
X-1046774Y-643381D02*
Y-623387D01*
X-1036778D01*
X-1033445Y-626719D01*
Y-633384D01*
X-1036778Y-636716D01*
X-1046774D01*
X-1040110D02*
X-1033445Y-643381D01*
X-1013452Y-626719D02*
X-1016784Y-623387D01*
X-1023449D01*
X-1026781Y-626719D01*
Y-630051D01*
X-1023449Y-633384D01*
X-1016784D01*
X-1013452Y-636716D01*
Y-640048D01*
X-1016784Y-643381D01*
X-1023449D01*
X-1026781Y-640048D01*
X-1006787Y-623387D02*
X-1000123D01*
X-1003455D01*
Y-643381D01*
X-1006787D01*
X-1000123D01*
X-980129Y-623387D02*
X-986794D01*
X-990126Y-626719D01*
Y-640048D01*
X-986794Y-643381D01*
X-980129D01*
X-976797Y-640048D01*
Y-626719D01*
X-980129Y-623387D01*
X-970133Y-643381D02*
Y-623387D01*
X-956803Y-643381D01*
Y-623387D01*
X-916816Y-626719D02*
X-920149Y-623387D01*
X-926813D01*
X-930145Y-626719D01*
Y-640048D01*
X-926813Y-643381D01*
X-920149D01*
X-916816Y-640048D01*
Y-633384D01*
X-923481D01*
X-900155Y-623387D02*
X-906820D01*
X-910152Y-626719D01*
Y-640048D01*
X-906820Y-643381D01*
X-900155D01*
X-896823Y-640048D01*
Y-626719D01*
X-900155Y-623387D01*
X-890158D02*
Y-643381D01*
X-876829D01*
X-870165Y-623387D02*
Y-643381D01*
X-860168D01*
X-856836Y-640048D01*
Y-626719D01*
X-860168Y-623387D01*
X-870165D01*
X-1350010Y-703557D02*
Y-690228D01*
X-1343345Y-683564D01*
X-1336681Y-690228D01*
Y-703557D01*
Y-693560D01*
X-1350010D01*
X-1330016Y-683564D02*
Y-703557D01*
X-1316687D01*
X-1310023Y-683564D02*
Y-703557D01*
X-1296694D01*
X-1256707Y-683564D02*
X-1270036D01*
Y-703557D01*
X-1256707D01*
X-1270036Y-693560D02*
X-1263371D01*
X-1250042Y-683564D02*
X-1236713Y-703557D01*
Y-683564D02*
X-1250042Y-703557D01*
X-1230049D02*
Y-683564D01*
X-1220052D01*
X-1216720Y-686896D01*
Y-693560D01*
X-1220052Y-696893D01*
X-1230049D01*
X-1200058Y-683564D02*
X-1206723D01*
X-1210055Y-686896D01*
Y-700225D01*
X-1206723Y-703557D01*
X-1200058D01*
X-1196726Y-700225D01*
Y-686896D01*
X-1200058Y-683564D01*
X-1176732Y-686896D02*
X-1180065Y-683564D01*
X-1186729D01*
X-1190061Y-686896D01*
Y-690228D01*
X-1186729Y-693560D01*
X-1180065D01*
X-1176732Y-696893D01*
Y-700225D01*
X-1180065Y-703557D01*
X-1186729D01*
X-1190061Y-700225D01*
X-1156739Y-683564D02*
X-1170068D01*
Y-703557D01*
X-1156739D01*
X-1170068Y-693560D02*
X-1163403D01*
X-1150074Y-683564D02*
Y-703557D01*
X-1140078D01*
X-1136745Y-700225D01*
Y-686896D01*
X-1140078Y-683564D01*
X-1150074D01*
X-1096758Y-686896D02*
X-1100090Y-683564D01*
X-1106755D01*
X-1110087Y-686896D01*
Y-700225D01*
X-1106755Y-703557D01*
X-1100090D01*
X-1096758Y-700225D01*
X-1080097Y-683564D02*
X-1086761D01*
X-1090094Y-686896D01*
Y-700225D01*
X-1086761Y-703557D01*
X-1080097D01*
X-1076765Y-700225D01*
Y-686896D01*
X-1080097Y-683564D01*
X-1070100Y-703557D02*
Y-683564D01*
X-1056771Y-703557D01*
Y-683564D01*
X-1050107D02*
Y-703557D01*
X-1040110D01*
X-1036778Y-700225D01*
Y-686896D01*
X-1040110Y-683564D01*
X-1050107D01*
X-1030113D02*
Y-700225D01*
X-1026781Y-703557D01*
X-1020116D01*
X-1016784Y-700225D01*
Y-683564D01*
X-996790Y-686896D02*
X-1000123Y-683564D01*
X-1006787D01*
X-1010119Y-686896D01*
Y-700225D01*
X-1006787Y-703557D01*
X-1000123D01*
X-996790Y-700225D01*
X-990126Y-683564D02*
X-976797D01*
X-983461D01*
Y-703557D01*
X-970132Y-683564D02*
X-963468D01*
X-966800D01*
Y-703557D01*
X-970132D01*
X-963468D01*
X-953471Y-683564D02*
Y-696893D01*
X-946807Y-703557D01*
X-940142Y-696893D01*
Y-683564D01*
X-920148D02*
X-933477D01*
Y-703557D01*
X-920148D01*
X-933477Y-693560D02*
X-926813D01*
X-893490Y-703557D02*
Y-683564D01*
X-883494D01*
X-880161Y-686896D01*
Y-693560D01*
X-883494Y-696893D01*
X-893490D01*
X-873497Y-703557D02*
Y-690228D01*
X-866832Y-683564D01*
X-860168Y-690228D01*
Y-703557D01*
Y-693560D01*
X-873497D01*
X-853503Y-683564D02*
X-840174D01*
X-846839D01*
Y-703557D01*
X-833510Y-683564D02*
X-820181D01*
X-826845D01*
Y-703557D01*
X-800187Y-683564D02*
X-813516D01*
Y-703557D01*
X-800187D01*
X-813516Y-693560D02*
X-806852D01*
X-793523Y-703557D02*
Y-683564D01*
X-783526D01*
X-780194Y-686896D01*
Y-693560D01*
X-783526Y-696893D01*
X-793523D01*
X-786858D02*
X-780194Y-703557D01*
X-773529D02*
Y-683564D01*
X-760200Y-703557D01*
Y-683564D01*
X-733542Y-703557D02*
Y-690228D01*
X-726877Y-683564D01*
X-720213Y-690228D01*
Y-703557D01*
Y-693560D01*
X-733542D01*
X-713548Y-703557D02*
Y-683564D01*
X-703552D01*
X-700219Y-686896D01*
Y-693560D01*
X-703552Y-696893D01*
X-713548D01*
X-706884D02*
X-700219Y-703557D01*
X-680226Y-683564D02*
X-693555D01*
Y-703557D01*
X-680226D01*
X-693555Y-693560D02*
X-686890D01*
X-673561Y-703557D02*
Y-690228D01*
X-666897Y-683564D01*
X-660232Y-690228D01*
Y-703557D01*
Y-693560D01*
X-673561D01*
X-640239Y-686896D02*
X-643571Y-683564D01*
X-650236D01*
X-653568Y-686896D01*
Y-690228D01*
X-650236Y-693560D01*
X-643571D01*
X-640239Y-696893D01*
Y-700225D01*
X-643571Y-703557D01*
X-650236D01*
X-653568Y-700225D01*
X-613581Y-703557D02*
Y-683564D01*
X-600252Y-703557D01*
Y-683564D01*
X-583590D02*
X-590255D01*
X-593587Y-686896D01*
Y-700225D01*
X-590255Y-703557D01*
X-583590D01*
X-580258Y-700225D01*
Y-686896D01*
X-583590Y-683564D01*
X-573593D02*
X-560264D01*
X-566929D01*
Y-703557D01*
X-520277Y-686896D02*
X-523610Y-683564D01*
X-530274D01*
X-533606Y-686896D01*
Y-700225D01*
X-530274Y-703557D01*
X-523610D01*
X-520277Y-700225D01*
X-503616Y-683564D02*
X-510280D01*
X-513613Y-686896D01*
Y-700225D01*
X-510280Y-703557D01*
X-503616D01*
X-500284Y-700225D01*
Y-686896D01*
X-503616Y-683564D01*
X-493619D02*
Y-696893D01*
X-486955Y-703557D01*
X-480290Y-696893D01*
Y-683564D01*
X-460297D02*
X-473626D01*
Y-703557D01*
X-460297D01*
X-473626Y-693560D02*
X-466961D01*
X-453632Y-703557D02*
Y-683564D01*
X-443635D01*
X-440303Y-686896D01*
Y-693560D01*
X-443635Y-696893D01*
X-453632D01*
X-446968D02*
X-440303Y-703557D01*
X-420309Y-683564D02*
X-433639D01*
Y-703557D01*
X-420309D01*
X-433639Y-693560D02*
X-426974D01*
X-413645Y-683564D02*
Y-703557D01*
X-403648D01*
X-400316Y-700225D01*
Y-686896D01*
X-403648Y-683564D01*
X-413645D01*
X-373658D02*
Y-703557D01*
X-366993Y-696893D01*
X-360329Y-703557D01*
Y-683564D01*
X-353664D02*
X-347000D01*
X-350332D01*
Y-703557D01*
X-353664D01*
X-347000D01*
X-337003Y-683564D02*
X-323674D01*
X-330339D01*
Y-703557D01*
X-317010Y-683564D02*
Y-703557D01*
Y-693560D01*
X-303680D01*
Y-683564D01*
Y-703557D01*
X-263693Y-686896D02*
X-267026Y-683564D01*
X-273690D01*
X-277022Y-686896D01*
Y-700225D01*
X-273690Y-703557D01*
X-267026D01*
X-263693Y-700225D01*
X-247032Y-683564D02*
X-253696D01*
X-257029Y-686896D01*
Y-700225D01*
X-253696Y-703557D01*
X-247032D01*
X-243700Y-700225D01*
Y-686896D01*
X-247032Y-683564D01*
X-237035D02*
Y-696893D01*
X-230371Y-703557D01*
X-223706Y-696893D01*
Y-683564D01*
X-203713D02*
X-217042D01*
Y-703557D01*
X-203713D01*
X-217042Y-693560D02*
X-210377D01*
X-197048Y-703557D02*
Y-683564D01*
X-187051D01*
X-183719Y-686896D01*
Y-693560D01*
X-187051Y-696893D01*
X-197048D01*
X-190384D02*
X-183719Y-703557D01*
X-177055Y-683564D02*
Y-703557D01*
X-163725D01*
X-157061D02*
Y-690228D01*
X-150396Y-683564D01*
X-143732Y-690228D01*
Y-703557D01*
Y-693560D01*
X-157061D01*
X-137067Y-683564D02*
Y-686896D01*
X-130403Y-693560D01*
X-123738Y-686896D01*
Y-683564D01*
X-130403Y-693560D02*
Y-703557D01*
X-97080D02*
Y-683564D01*
X-90416Y-690228D01*
X-83751Y-683564D01*
Y-703557D01*
X-77087D02*
Y-690228D01*
X-70422Y-683564D01*
X-63758Y-690228D01*
Y-703557D01*
Y-693560D01*
X-77087D01*
X-57093Y-683564D02*
X-43764D01*
X-50429D01*
Y-703557D01*
X-23771Y-683564D02*
X-37100D01*
Y-703557D01*
X-23771D01*
X-37100Y-693560D02*
X-30435D01*
X-17106Y-703557D02*
Y-683564D01*
X-7109D01*
X-3777Y-686896D01*
Y-693560D01*
X-7109Y-696893D01*
X-17106D01*
X-10442D02*
X-3777Y-703557D01*
X2887Y-683564D02*
X9552D01*
X6220D01*
Y-703557D01*
X2887D01*
X9552D01*
X19549D02*
Y-690228D01*
X26213Y-683564D01*
X32878Y-690228D01*
Y-703557D01*
Y-693560D01*
X19549D01*
X39542Y-683564D02*
Y-703557D01*
X52871D01*
X89526Y-683564D02*
X82862D01*
X79529Y-686896D01*
Y-700225D01*
X82862Y-703557D01*
X89526D01*
X92858Y-700225D01*
Y-686896D01*
X89526Y-683564D01*
X99523Y-703557D02*
Y-683564D01*
X109520D01*
X112852Y-686896D01*
Y-693560D01*
X109520Y-696893D01*
X99523D01*
X106187D02*
X112852Y-703557D01*
X149507Y-683564D02*
X142842D01*
X139510Y-686896D01*
Y-700225D01*
X142842Y-703557D01*
X149507D01*
X152839Y-700225D01*
Y-686896D01*
X149507Y-683564D01*
X159504D02*
X172833D01*
X166168D01*
Y-703557D01*
X179497Y-683564D02*
Y-703557D01*
Y-693560D01*
X192826D01*
Y-683564D01*
Y-703557D01*
X212820Y-683564D02*
X199491D01*
Y-703557D01*
X212820D01*
X199491Y-693560D02*
X206155D01*
X219484Y-703557D02*
Y-683564D01*
X229481D01*
X232813Y-686896D01*
Y-693560D01*
X229481Y-696893D01*
X219484D01*
X226149D02*
X232813Y-703557D01*
X259471D02*
Y-683564D01*
X269468D01*
X272801Y-686896D01*
Y-693560D01*
X269468Y-696893D01*
X259471D01*
X279465Y-683564D02*
Y-703557D01*
X292794D01*
X299459D02*
Y-690228D01*
X306123Y-683564D01*
X312788Y-690228D01*
Y-703557D01*
Y-693560D01*
X299459D01*
X319452Y-683564D02*
X332781D01*
X326117D01*
Y-703557D01*
X339446Y-683564D02*
X346110D01*
X342778D01*
Y-703557D01*
X339446D01*
X346110D01*
X356107D02*
Y-683564D01*
X369436Y-703557D01*
Y-683564D01*
X389430Y-686896D02*
X386097Y-683564D01*
X379433D01*
X376101Y-686896D01*
Y-700225D01*
X379433Y-703557D01*
X386097D01*
X389430Y-700225D01*
Y-693560D01*
X382765D01*
X-1336681Y-716984D02*
X-1340013Y-713652D01*
X-1346678D01*
X-1350010Y-716984D01*
Y-720316D01*
X-1346678Y-723649D01*
X-1340013D01*
X-1336681Y-726981D01*
Y-730313D01*
X-1340013Y-733645D01*
X-1346678D01*
X-1350010Y-730313D01*
X-1330016Y-713652D02*
Y-733645D01*
Y-723649D01*
X-1316687D01*
Y-713652D01*
Y-733645D01*
X-1310023D02*
Y-720316D01*
X-1303358Y-713652D01*
X-1296694Y-720316D01*
Y-733645D01*
Y-723649D01*
X-1310023D01*
X-1290029Y-713652D02*
Y-733645D01*
X-1276700D01*
X-1270036Y-713652D02*
Y-733645D01*
X-1256707D01*
X-1230049Y-713652D02*
Y-733645D01*
X-1220052D01*
X-1216720Y-730313D01*
Y-726981D01*
X-1220052Y-723649D01*
X-1230049D01*
X-1220052D01*
X-1216720Y-720316D01*
Y-716984D01*
X-1220052Y-713652D01*
X-1230049D01*
X-1196726D02*
X-1210055D01*
Y-733645D01*
X-1196726D01*
X-1210055Y-723649D02*
X-1203391D01*
X-1170068Y-713652D02*
X-1163403D01*
X-1166736D01*
Y-733645D01*
X-1170068D01*
X-1163403D01*
X-1153407D02*
Y-713652D01*
X-1146742Y-720316D01*
X-1140078Y-713652D01*
Y-733645D01*
X-1133413D02*
Y-713652D01*
X-1126749Y-720316D01*
X-1120084Y-713652D01*
Y-733645D01*
X-1100090Y-713652D02*
X-1113420D01*
Y-733645D01*
X-1100090D01*
X-1113420Y-723649D02*
X-1106755D01*
X-1093426Y-733645D02*
Y-713652D01*
X-1083429D01*
X-1080097Y-716984D01*
Y-723649D01*
X-1083429Y-726981D01*
X-1093426D01*
X-1086761D02*
X-1080097Y-733645D01*
X-1060103Y-716984D02*
X-1063436Y-713652D01*
X-1070100D01*
X-1073432Y-716984D01*
Y-720316D01*
X-1070100Y-723649D01*
X-1063436D01*
X-1060103Y-726981D01*
Y-730313D01*
X-1063436Y-733645D01*
X-1070100D01*
X-1073432Y-730313D01*
X-1053439Y-713652D02*
X-1046774D01*
X-1050107D01*
Y-733645D01*
X-1053439D01*
X-1046774D01*
X-1026781Y-713652D02*
X-1033445D01*
X-1036778Y-716984D01*
Y-730313D01*
X-1033445Y-733645D01*
X-1026781D01*
X-1023449Y-730313D01*
Y-716984D01*
X-1026781Y-713652D01*
X-1016784Y-733645D02*
Y-713652D01*
X-1003455Y-733645D01*
Y-713652D01*
X-963468Y-716984D02*
X-966800Y-713652D01*
X-973465D01*
X-976797Y-716984D01*
Y-730313D01*
X-973465Y-733645D01*
X-966800D01*
X-963468Y-730313D01*
Y-723649D01*
X-970132D01*
X-946807Y-713652D02*
X-953471D01*
X-956803Y-716984D01*
Y-730313D01*
X-953471Y-733645D01*
X-946807D01*
X-943474Y-730313D01*
Y-716984D01*
X-946807Y-713652D01*
X-936810D02*
Y-733645D01*
X-923481D01*
X-916816Y-713652D02*
Y-733645D01*
X-906820D01*
X-903487Y-730313D01*
Y-716984D01*
X-906820Y-713652D01*
X-916816D01*
X-870165Y-733645D02*
X-876829Y-726981D01*
Y-720316D01*
X-870165Y-713652D01*
X-860168Y-716984D02*
X-856836Y-713652D01*
X-850171D01*
X-846839Y-716984D01*
Y-730313D01*
X-850171Y-733645D01*
X-856836D01*
X-860168Y-730313D01*
Y-716984D01*
X-840174Y-733645D02*
Y-730313D01*
X-836842D01*
Y-733645D01*
X-840174D01*
X-823513Y-716984D02*
X-820181Y-713652D01*
X-813516D01*
X-810184Y-716984D01*
Y-730313D01*
X-813516Y-733645D01*
X-820181D01*
X-823513Y-730313D01*
Y-716984D01*
X-803519D02*
X-800187Y-713652D01*
X-793523D01*
X-790190Y-716984D01*
Y-730313D01*
X-793523Y-733645D01*
X-800187D01*
X-803519Y-730313D01*
Y-716984D01*
X-783526D02*
X-780194Y-713652D01*
X-773529D01*
X-770197Y-716984D01*
Y-730313D01*
X-773529Y-733645D01*
X-780194D01*
X-783526Y-730313D01*
Y-716984D01*
X-763532D02*
X-760200Y-713652D01*
X-753536D01*
X-750203Y-716984D01*
Y-730313D01*
X-753536Y-733645D01*
X-760200D01*
X-763532Y-730313D01*
Y-716984D01*
X-743539D02*
X-740207Y-713652D01*
X-733542D01*
X-730210Y-716984D01*
Y-720316D01*
X-733542Y-723649D01*
X-736874D01*
X-733542D01*
X-730210Y-726981D01*
Y-730313D01*
X-733542Y-733645D01*
X-740207D01*
X-743539Y-730313D01*
X-723545Y-716984D02*
X-720213Y-713652D01*
X-713548D01*
X-710216Y-716984D01*
Y-730313D01*
X-713548Y-733645D01*
X-720213D01*
X-723545Y-730313D01*
Y-716984D01*
X-703552Y-723649D02*
X-690223D01*
X-683558Y-716984D02*
X-680226Y-713652D01*
X-673561D01*
X-670229Y-716984D01*
Y-730313D01*
X-673561Y-733645D01*
X-680226D01*
X-683558Y-730313D01*
Y-716984D01*
X-663565Y-733645D02*
Y-730313D01*
X-660232D01*
Y-733645D01*
X-663565D01*
X-646903Y-716984D02*
X-643571Y-713652D01*
X-636907D01*
X-633574Y-716984D01*
Y-730313D01*
X-636907Y-733645D01*
X-643571D01*
X-646903Y-730313D01*
Y-716984D01*
X-626910D02*
X-623577Y-713652D01*
X-616913D01*
X-613581Y-716984D01*
Y-730313D01*
X-616913Y-733645D01*
X-623577D01*
X-626910Y-730313D01*
Y-716984D01*
X-606916D02*
X-603584Y-713652D01*
X-596919D01*
X-593587Y-716984D01*
Y-730313D01*
X-596919Y-733645D01*
X-603584D01*
X-606916Y-730313D01*
Y-716984D01*
X-586923D02*
X-583590Y-713652D01*
X-576926D01*
X-573593Y-716984D01*
Y-730313D01*
X-576926Y-733645D01*
X-583590D01*
X-586923Y-730313D01*
Y-716984D01*
X-566929Y-730313D02*
X-563597Y-733645D01*
X-556932D01*
X-553600Y-730313D01*
Y-716984D01*
X-556932Y-713652D01*
X-563597D01*
X-566929Y-716984D01*
Y-720316D01*
X-563597Y-723649D01*
X-553600D01*
X-546936Y-716984D02*
X-543603Y-713652D01*
X-536939D01*
X-533606Y-716984D01*
Y-730313D01*
X-536939Y-733645D01*
X-543603D01*
X-546936Y-730313D01*
Y-716984D01*
X-506948Y-733645D02*
Y-720316D01*
X-503616D01*
X-500284Y-723649D01*
Y-733645D01*
Y-723649D01*
X-496952Y-720316D01*
X-493619Y-723649D01*
Y-733645D01*
X-486955D02*
Y-720316D01*
X-483623D01*
X-480290Y-723649D01*
Y-733645D01*
Y-723649D01*
X-476958Y-720316D01*
X-473626Y-723649D01*
Y-733645D01*
X-466961D02*
X-460297Y-726981D01*
Y-720316D01*
X-466961Y-713652D01*
X-420310D02*
X-426974D01*
X-430306Y-716984D01*
Y-730313D01*
X-426974Y-733645D01*
X-420310D01*
X-416977Y-730313D01*
Y-716984D01*
X-420310Y-713652D01*
X-410313D02*
Y-726981D01*
X-403648Y-733645D01*
X-396984Y-726981D01*
Y-713652D01*
X-376990D02*
X-390319D01*
Y-733645D01*
X-376990D01*
X-390319Y-723649D02*
X-383655D01*
X-370326Y-733645D02*
Y-713652D01*
X-360329D01*
X-356997Y-716984D01*
Y-723649D01*
X-360329Y-726981D01*
X-370326D01*
X-363661D02*
X-356997Y-733645D01*
X-317010Y-713652D02*
X-330339D01*
Y-733645D01*
X-317010D01*
X-330339Y-723649D02*
X-323674D01*
X-310345Y-713652D02*
Y-733645D01*
X-297016D01*
X-277022Y-713652D02*
X-290352D01*
Y-733645D01*
X-277022D01*
X-290352Y-723649D02*
X-283687D01*
X-257029Y-716984D02*
X-260361Y-713652D01*
X-267026D01*
X-270358Y-716984D01*
Y-730313D01*
X-267026Y-733645D01*
X-260361D01*
X-257029Y-730313D01*
X-250364Y-713652D02*
X-237035D01*
X-243700D01*
Y-733645D01*
X-230371D02*
Y-713652D01*
X-220374D01*
X-217042Y-716984D01*
Y-723649D01*
X-220374Y-726981D01*
X-230371D01*
X-223706D02*
X-217042Y-733645D01*
X-200380Y-713652D02*
X-207045D01*
X-210377Y-716984D01*
Y-730313D01*
X-207045Y-733645D01*
X-200380D01*
X-197048Y-730313D01*
Y-716984D01*
X-200380Y-713652D01*
X-190384D02*
Y-733645D01*
X-177055D01*
X-157061Y-713652D02*
X-170390D01*
Y-733645D01*
X-157061D01*
X-170390Y-723649D02*
X-163726D01*
X-137067Y-716984D02*
X-140400Y-713652D01*
X-147064D01*
X-150396Y-716984D01*
Y-720316D01*
X-147064Y-723649D01*
X-140400D01*
X-137067Y-726981D01*
Y-730313D01*
X-140400Y-733645D01*
X-147064D01*
X-150396Y-730313D01*
X-117074Y-716984D02*
X-120406Y-713652D01*
X-127071D01*
X-130403Y-716984D01*
Y-720316D01*
X-127071Y-723649D01*
X-120406D01*
X-117074Y-726981D01*
Y-730313D01*
X-120406Y-733645D01*
X-127071D01*
X-130403Y-730313D01*
X-90416Y-733645D02*
Y-713652D01*
X-77087Y-733645D01*
Y-713652D01*
X-70422D02*
X-63758D01*
X-67090D01*
Y-733645D01*
X-70422D01*
X-63758D01*
X-40432Y-716984D02*
X-43764Y-713652D01*
X-50429D01*
X-53761Y-716984D01*
Y-730313D01*
X-50429Y-733645D01*
X-43764D01*
X-40432Y-730313D01*
X-33767Y-713652D02*
Y-733645D01*
Y-726981D01*
X-20438Y-713652D01*
X-30435Y-723649D01*
X-20438Y-733645D01*
X-445Y-713652D02*
X-13774D01*
Y-733645D01*
X-445D01*
X-13774Y-723649D02*
X-7109D01*
X6220Y-713652D02*
Y-733645D01*
X19549D01*
X52871D02*
X46207Y-726981D01*
Y-720316D01*
X52871Y-713652D01*
X62868Y-716984D02*
X66200Y-713652D01*
X72865D01*
X76197Y-716984D01*
Y-730313D01*
X72865Y-733645D01*
X66200D01*
X62868Y-730313D01*
Y-716984D01*
X82862Y-733645D02*
Y-730313D01*
X86194D01*
Y-733645D01*
X82862D01*
X99523Y-716984D02*
X102855Y-713652D01*
X109520D01*
X112852Y-716984D01*
Y-730313D01*
X109520Y-733645D01*
X102855D01*
X99523Y-730313D01*
Y-716984D01*
X119516D02*
X122849Y-713652D01*
X129513D01*
X132845Y-716984D01*
Y-730313D01*
X129513Y-733645D01*
X122849D01*
X119516Y-730313D01*
Y-716984D01*
X139510Y-733645D02*
X146174D01*
X142842D01*
Y-713652D01*
X139510Y-716984D01*
X156171Y-723649D02*
X169500D01*
X176165Y-716984D02*
X179497Y-713652D01*
X186162D01*
X189494Y-716984D01*
Y-730313D01*
X186162Y-733645D01*
X179497D01*
X176165Y-730313D01*
Y-716984D01*
X196158Y-733645D02*
Y-730313D01*
X199491D01*
Y-733645D01*
X196158D01*
X212820Y-716984D02*
X216152Y-713652D01*
X222817D01*
X226149Y-716984D01*
Y-730313D01*
X222817Y-733645D01*
X216152D01*
X212820Y-730313D01*
Y-716984D01*
X232813D02*
X236145Y-713652D01*
X242810D01*
X246142Y-716984D01*
Y-730313D01*
X242810Y-733645D01*
X236145D01*
X232813Y-730313D01*
Y-716984D01*
X266136Y-713652D02*
X259471Y-716984D01*
X252807Y-723649D01*
Y-730313D01*
X256139Y-733645D01*
X262804D01*
X266136Y-730313D01*
Y-726981D01*
X262804Y-723649D01*
X252807D01*
X292794Y-733645D02*
Y-720316D01*
X296126D01*
X299458Y-723649D01*
Y-733645D01*
Y-723649D01*
X302791Y-720316D01*
X306123Y-723649D01*
Y-733645D01*
X312787D02*
Y-720316D01*
X316120D01*
X319452Y-723649D01*
Y-733645D01*
Y-723649D01*
X322784Y-720316D01*
X326116Y-723649D01*
Y-733645D01*
X332781D02*
X339445Y-726981D01*
Y-720316D01*
X332781Y-713652D01*
X349442Y-733645D02*
Y-730313D01*
X352775D01*
Y-733645D01*
X349442D01*
X-1340013Y-793822D02*
Y-773828D01*
X-1350010Y-783825D01*
X-1336681D01*
X-1330016Y-793822D02*
Y-790490D01*
X-1326684D01*
Y-793822D01*
X-1330016D01*
X-1293362Y-773828D02*
Y-793822D01*
X-1280033D01*
X-1260039Y-773828D02*
X-1273368D01*
Y-793822D01*
X-1260039D01*
X-1273368Y-783825D02*
X-1266703D01*
X-1240045Y-777161D02*
X-1243378Y-773828D01*
X-1250042D01*
X-1253374Y-777161D01*
Y-790490D01*
X-1250042Y-793822D01*
X-1243378D01*
X-1240045Y-790490D01*
Y-783825D01*
X-1246710D01*
X-1220052Y-773828D02*
X-1233381D01*
Y-793822D01*
X-1220052D01*
X-1233381Y-783825D02*
X-1226716D01*
X-1213387Y-793822D02*
Y-773828D01*
X-1200058Y-793822D01*
Y-773828D01*
X-1193394D02*
Y-793822D01*
X-1183397D01*
X-1180065Y-790490D01*
Y-777161D01*
X-1183397Y-773828D01*
X-1193394D01*
X-1140078Y-777161D02*
X-1143410Y-773828D01*
X-1150074D01*
X-1153407Y-777161D01*
Y-780493D01*
X-1150074Y-783825D01*
X-1143410D01*
X-1140078Y-787157D01*
Y-790490D01*
X-1143410Y-793822D01*
X-1150074D01*
X-1153407Y-790490D01*
X-1133413Y-773828D02*
Y-793822D01*
Y-783825D01*
X-1120084D01*
Y-773828D01*
Y-793822D01*
X-1113420D02*
Y-780493D01*
X-1106755Y-773828D01*
X-1100090Y-780493D01*
Y-793822D01*
Y-783825D01*
X-1113420D01*
X-1093426Y-773828D02*
Y-793822D01*
X-1080097D01*
X-1073432Y-773828D02*
Y-793822D01*
X-1060103D01*
X-1033445Y-773828D02*
Y-793822D01*
X-1023448D01*
X-1020116Y-790490D01*
Y-787157D01*
X-1023448Y-783825D01*
X-1033445D01*
X-1023448D01*
X-1020116Y-780493D01*
Y-777161D01*
X-1023448Y-773828D01*
X-1033445D01*
X-1000123D02*
X-1013452D01*
Y-793822D01*
X-1000123D01*
X-1013452Y-783825D02*
X-1006787D01*
X-973465Y-773828D02*
Y-793822D01*
X-966800Y-787157D01*
X-960136Y-793822D01*
Y-773828D01*
X-953471D02*
Y-793822D01*
Y-783825D01*
X-940142D01*
Y-773828D01*
Y-793822D01*
X-933477Y-773828D02*
X-926813D01*
X-930145D01*
Y-793822D01*
X-933477D01*
X-926813D01*
X-916816Y-773828D02*
X-903487D01*
X-910152D01*
Y-793822D01*
X-883494Y-773828D02*
X-896823D01*
Y-793822D01*
X-883494D01*
X-896823Y-783825D02*
X-890158D01*
X-873497Y-797154D02*
X-870165Y-793822D01*
Y-790490D01*
X-873497D01*
Y-793822D01*
X-870165D01*
X-873497Y-797154D01*
X-876829Y-800486D01*
X-836842Y-793822D02*
Y-773828D01*
X-826845D01*
X-823513Y-777161D01*
Y-783825D01*
X-826845Y-787157D01*
X-836842D01*
X-803519Y-773828D02*
X-816849D01*
Y-793822D01*
X-803519D01*
X-816849Y-783825D02*
X-810184D01*
X-796855Y-793822D02*
Y-773828D01*
X-786858D01*
X-783526Y-777161D01*
Y-783825D01*
X-786858Y-787157D01*
X-796855D01*
X-790190D02*
X-783526Y-793822D01*
X-776861D02*
Y-773828D01*
X-770197Y-780493D01*
X-763532Y-773828D01*
Y-793822D01*
X-756868D02*
Y-780493D01*
X-750203Y-773828D01*
X-743539Y-780493D01*
Y-793822D01*
Y-783825D01*
X-756868D01*
X-736874Y-793822D02*
Y-773828D01*
X-723545Y-793822D01*
Y-773828D01*
X-703552D02*
X-716881D01*
Y-793822D01*
X-703552D01*
X-716881Y-783825D02*
X-710216D01*
X-696887Y-793822D02*
Y-773828D01*
X-683558Y-793822D01*
Y-773828D01*
X-676893D02*
X-663565D01*
X-670229D01*
Y-793822D01*
X-653568Y-797154D02*
X-650236Y-793822D01*
Y-790490D01*
X-653568D01*
Y-793822D01*
X-650236D01*
X-653568Y-797154D01*
X-656900Y-800486D01*
X-606916Y-773828D02*
X-613581D01*
X-616913Y-777161D01*
Y-790490D01*
X-613581Y-793822D01*
X-606916D01*
X-603584Y-790490D01*
Y-777161D01*
X-606916Y-773828D01*
X-596919Y-793822D02*
Y-773828D01*
X-586922D01*
X-583590Y-777161D01*
Y-783825D01*
X-586922Y-787157D01*
X-596919D01*
X-590255D02*
X-583590Y-793822D01*
X-563597Y-777161D02*
X-566929Y-773828D01*
X-573593D01*
X-576926Y-777161D01*
Y-790490D01*
X-573593Y-793822D01*
X-566929D01*
X-563597Y-790490D01*
Y-783825D01*
X-570261D01*
X-556932Y-793822D02*
Y-780493D01*
X-550268Y-773828D01*
X-543603Y-780493D01*
Y-793822D01*
Y-783825D01*
X-556932D01*
X-536939Y-793822D02*
Y-773828D01*
X-523610Y-793822D01*
Y-773828D01*
X-516945D02*
X-510281D01*
X-513613D01*
Y-793822D01*
X-516945D01*
X-510281D01*
X-486955Y-777161D02*
X-490287Y-773828D01*
X-496951D01*
X-500284Y-777161D01*
Y-790490D01*
X-496951Y-793822D01*
X-490287D01*
X-486955Y-790490D01*
X-476958Y-797154D02*
X-473626Y-793822D01*
Y-790490D01*
X-476958D01*
Y-793822D01*
X-473626D01*
X-476958Y-797154D01*
X-480290Y-800486D01*
X-440303Y-793822D02*
Y-773828D01*
X-426974Y-793822D01*
Y-773828D01*
X-410313D02*
X-416977D01*
X-420309Y-777161D01*
Y-790490D01*
X-416977Y-793822D01*
X-410313D01*
X-406981Y-790490D01*
Y-777161D01*
X-410313Y-773828D01*
X-400316Y-793822D02*
Y-773828D01*
X-386987Y-793822D01*
Y-773828D01*
X-380322Y-783825D02*
X-366993D01*
X-347000Y-777161D02*
X-350332Y-773828D01*
X-356997D01*
X-360329Y-777161D01*
Y-790490D01*
X-356997Y-793822D01*
X-350332D01*
X-347000Y-790490D01*
X-330339Y-773828D02*
X-337003D01*
X-340335Y-777161D01*
Y-790490D01*
X-337003Y-793822D01*
X-330339D01*
X-327006Y-790490D01*
Y-777161D01*
X-330339Y-773828D01*
X-320342Y-793822D02*
Y-773828D01*
X-307013Y-793822D01*
Y-773828D01*
X-300348D02*
Y-793822D01*
X-290351D01*
X-287019Y-790490D01*
Y-777161D01*
X-290351Y-773828D01*
X-300348D01*
X-280355D02*
Y-790490D01*
X-277022Y-793822D01*
X-270358D01*
X-267026Y-790490D01*
Y-773828D01*
X-247032Y-777161D02*
X-250364Y-773828D01*
X-257029D01*
X-260361Y-777161D01*
Y-790490D01*
X-257029Y-793822D01*
X-250364D01*
X-247032Y-790490D01*
X-240368Y-773828D02*
X-227038D01*
X-233703D01*
Y-793822D01*
X-220374Y-773828D02*
X-213710D01*
X-217042D01*
Y-793822D01*
X-220374D01*
X-213710D01*
X-203713Y-773828D02*
Y-787157D01*
X-197048Y-793822D01*
X-190384Y-787157D01*
Y-773828D01*
X-170390D02*
X-183719D01*
Y-793822D01*
X-170390D01*
X-183719Y-783825D02*
X-177055D01*
X-143732Y-773828D02*
Y-790490D01*
X-140400Y-793822D01*
X-133735D01*
X-130403Y-790490D01*
Y-773828D01*
X-123738D02*
Y-787157D01*
X-117074Y-793822D01*
X-110409Y-787157D01*
Y-773828D01*
X-73755D02*
X-80419D01*
X-83751Y-777161D01*
Y-790490D01*
X-80419Y-793822D01*
X-73755D01*
X-70422Y-790490D01*
Y-777161D01*
X-73755Y-773828D01*
X-63758Y-793822D02*
Y-773828D01*
X-53761D01*
X-50429Y-777161D01*
Y-783825D01*
X-53761Y-787157D01*
X-63758D01*
X-57093D02*
X-50429Y-793822D01*
X-10442Y-773828D02*
X-23771D01*
Y-793822D01*
X-10442D01*
X-23771Y-783825D02*
X-17106D01*
X-3777Y-793822D02*
Y-773828D01*
X6220D01*
X9552Y-777161D01*
Y-783825D01*
X6220Y-787157D01*
X-3777D01*
X26213Y-773828D02*
X19549D01*
X16216Y-777161D01*
Y-790490D01*
X19549Y-793822D01*
X26213D01*
X29546Y-790490D01*
Y-777161D01*
X26213Y-773828D01*
X36210D02*
X49539Y-793822D01*
Y-773828D02*
X36210Y-793822D01*
X56204Y-773828D02*
Y-777161D01*
X62868Y-783825D01*
X69533Y-777161D01*
Y-773828D01*
X62868Y-783825D02*
Y-793822D01*
X96191Y-773828D02*
X109520D01*
X102855D01*
Y-793822D01*
X116184Y-773828D02*
Y-777161D01*
X122849Y-783825D01*
X129513Y-777161D01*
Y-773828D01*
X122849Y-783825D02*
Y-793822D01*
X136178D02*
Y-773828D01*
X146175D01*
X149507Y-777161D01*
Y-783825D01*
X146175Y-787157D01*
X136178D01*
X169500Y-773828D02*
X156171D01*
Y-793822D01*
X169500D01*
X156171Y-783825D02*
X162836D01*
X196159Y-773828D02*
X202823D01*
X199491D01*
Y-793822D01*
X196159D01*
X202823D01*
X212820D02*
Y-773828D01*
X226149Y-793822D01*
Y-773828D01*
X232813D02*
Y-793822D01*
Y-787157D01*
X246142Y-773828D01*
X236146Y-783825D01*
X246142Y-793822D01*
X272801D02*
Y-780493D01*
X279465Y-773828D01*
X286129Y-780493D01*
Y-793822D01*
Y-783825D01*
X272801D01*
X292794Y-793822D02*
Y-773828D01*
X302791D01*
X306123Y-777161D01*
Y-783825D01*
X302791Y-787157D01*
X292794D01*
X312788Y-793822D02*
Y-773828D01*
X322784D01*
X326117Y-777161D01*
Y-783825D01*
X322784Y-787157D01*
X312788D01*
X332781Y-773828D02*
Y-793822D01*
X346110D01*
X352775Y-773828D02*
X359439D01*
X356107D01*
Y-793822D01*
X352775D01*
X359439D01*
X382765Y-773828D02*
X369436D01*
Y-793822D01*
X382765D01*
X369436Y-783825D02*
X376101D01*
X389430Y-773828D02*
Y-793822D01*
X399426D01*
X402759Y-790490D01*
Y-777161D01*
X399426Y-773828D01*
X389430D01*
X-1350010Y-803917D02*
X-1336681D01*
X-1343345D01*
Y-823910D01*
X-1320020Y-803917D02*
X-1326684D01*
X-1330016Y-807249D01*
Y-820578D01*
X-1326684Y-823910D01*
X-1320020D01*
X-1316687Y-820578D01*
Y-807249D01*
X-1320020Y-803917D01*
X-1290029D02*
X-1276700D01*
X-1283365D01*
Y-823910D01*
X-1270036Y-803917D02*
Y-823910D01*
Y-813913D01*
X-1256707D01*
Y-803917D01*
Y-823910D01*
X-1236713Y-803917D02*
X-1250042D01*
Y-823910D01*
X-1236713D01*
X-1250042Y-813913D02*
X-1243378D01*
X-1210055Y-803917D02*
X-1196726D01*
X-1203391D01*
Y-823910D01*
X-1180065Y-803917D02*
X-1186729D01*
X-1190061Y-807249D01*
Y-820578D01*
X-1186729Y-823910D01*
X-1180065D01*
X-1176732Y-820578D01*
Y-807249D01*
X-1180065Y-803917D01*
X-1170068Y-823910D02*
Y-803917D01*
X-1160071D01*
X-1156739Y-807249D01*
Y-813913D01*
X-1160071Y-817246D01*
X-1170068D01*
X-1116752Y-807249D02*
X-1120084Y-803917D01*
X-1126749D01*
X-1130081Y-807249D01*
Y-810581D01*
X-1126749Y-813913D01*
X-1120084D01*
X-1116752Y-817246D01*
Y-820578D01*
X-1120084Y-823910D01*
X-1126749D01*
X-1130081Y-820578D01*
X-1110087Y-803917D02*
X-1103423D01*
X-1106755D01*
Y-823910D01*
X-1110087D01*
X-1103423D01*
X-1093426Y-803917D02*
Y-823910D01*
X-1083429D01*
X-1080097Y-820578D01*
Y-807249D01*
X-1083429Y-803917D01*
X-1093426D01*
X-1060103D02*
X-1073432D01*
Y-823910D01*
X-1060103D01*
X-1073432Y-813913D02*
X-1066768D01*
X-1023448Y-803917D02*
X-1030113D01*
X-1033445Y-807249D01*
Y-820578D01*
X-1030113Y-823910D01*
X-1023448D01*
X-1020116Y-820578D01*
Y-807249D01*
X-1023448Y-803917D01*
X-1000123D02*
X-1013452D01*
Y-813913D01*
X-1006787D01*
X-1013452D01*
Y-823910D01*
X-973465Y-803917D02*
X-960136D01*
X-966800D01*
Y-823910D01*
X-953471Y-803917D02*
Y-823910D01*
Y-813913D01*
X-940142D01*
Y-803917D01*
Y-823910D01*
X-920148Y-803917D02*
X-933477D01*
Y-823910D01*
X-920148D01*
X-933477Y-813913D02*
X-926813D01*
X-893490Y-803917D02*
Y-823910D01*
X-883494D01*
X-880161Y-820578D01*
Y-817246D01*
X-883494Y-813913D01*
X-893490D01*
X-883494D01*
X-880161Y-810581D01*
Y-807249D01*
X-883494Y-803917D01*
X-893490D01*
X-863500D02*
X-870165D01*
X-873497Y-807249D01*
Y-820578D01*
X-870165Y-823910D01*
X-863500D01*
X-860168Y-820578D01*
Y-807249D01*
X-863500Y-803917D01*
X-853503Y-823910D02*
Y-810581D01*
X-846839Y-803917D01*
X-840174Y-810581D01*
Y-823910D01*
Y-813913D01*
X-853503D01*
X-833510Y-823910D02*
Y-803917D01*
X-823513D01*
X-820181Y-807249D01*
Y-813913D01*
X-823513Y-817246D01*
X-833510D01*
X-826845D02*
X-820181Y-823910D01*
X-813516Y-803917D02*
Y-823910D01*
X-803519D01*
X-800187Y-820578D01*
Y-807249D01*
X-803519Y-803917D01*
X-813516D01*
X-793523Y-823910D02*
Y-820578D01*
X-790190D01*
Y-823910D01*
X-793523D01*
X-756868Y-803917D02*
X-743539D01*
X-750203D01*
Y-823910D01*
X-736874Y-803917D02*
Y-823910D01*
Y-813913D01*
X-723545D01*
Y-803917D01*
Y-823910D01*
X-703552Y-803917D02*
X-716881D01*
Y-823910D01*
X-703552D01*
X-716881Y-813913D02*
X-710216D01*
X-696887Y-823910D02*
Y-803917D01*
X-686890D01*
X-683558Y-807249D01*
Y-813913D01*
X-686890Y-817246D01*
X-696887D01*
X-690223D02*
X-683558Y-823910D01*
X-663565Y-803917D02*
X-676893D01*
Y-823910D01*
X-663565D01*
X-676893Y-813913D02*
X-670229D01*
X-623577Y-807249D02*
X-626910Y-803917D01*
X-633574D01*
X-636906Y-807249D01*
Y-810581D01*
X-633574Y-813913D01*
X-626910D01*
X-623577Y-817246D01*
Y-820578D01*
X-626910Y-823910D01*
X-633574D01*
X-636906Y-820578D01*
X-616913Y-803917D02*
Y-823910D01*
Y-813913D01*
X-603584D01*
Y-803917D01*
Y-823910D01*
X-596919D02*
Y-810581D01*
X-590255Y-803917D01*
X-583590Y-810581D01*
Y-823910D01*
Y-813913D01*
X-596919D01*
X-576926Y-803917D02*
Y-823910D01*
X-563597D01*
X-556932Y-803917D02*
Y-823910D01*
X-543603D01*
X-516945Y-803917D02*
Y-823910D01*
X-506948D01*
X-503616Y-820578D01*
Y-817246D01*
X-506948Y-813913D01*
X-516945D01*
X-506948D01*
X-503616Y-810581D01*
Y-807249D01*
X-506948Y-803917D01*
X-516945D01*
X-483623D02*
X-496951D01*
Y-823910D01*
X-483623D01*
X-496951Y-813913D02*
X-490287D01*
X-456964Y-823910D02*
Y-803917D01*
X-443635Y-823910D01*
Y-803917D01*
X-426974D02*
X-433639D01*
X-436971Y-807249D01*
Y-820578D01*
X-433639Y-823910D01*
X-426974D01*
X-423642Y-820578D01*
Y-807249D01*
X-426974Y-803917D01*
X-396984D02*
Y-823910D01*
X-383655D01*
X-363661Y-803917D02*
X-376990D01*
Y-823910D01*
X-363661D01*
X-376990Y-813913D02*
X-370326D01*
X-343668Y-807249D02*
X-347000Y-803917D01*
X-353664D01*
X-356997Y-807249D01*
Y-820578D01*
X-353664Y-823910D01*
X-347000D01*
X-343668Y-820578D01*
Y-813913D01*
X-350332D01*
X-323674Y-803917D02*
X-337003D01*
Y-823910D01*
X-323674D01*
X-337003Y-813913D02*
X-330339D01*
X-317010Y-823910D02*
Y-803917D01*
X-303680Y-823910D01*
Y-803917D01*
X-297016D02*
Y-823910D01*
X-287019D01*
X-283687Y-820578D01*
Y-807249D01*
X-287019Y-803917D01*
X-297016D01*
X-247032D02*
X-253696D01*
X-257029Y-807249D01*
Y-820578D01*
X-253696Y-823910D01*
X-247032D01*
X-243700Y-820578D01*
Y-807249D01*
X-247032Y-803917D01*
X-237035Y-823910D02*
Y-803917D01*
X-223706Y-823910D01*
Y-803917D01*
X-197048Y-823910D02*
Y-810581D01*
X-190384Y-803917D01*
X-183719Y-810581D01*
Y-823910D01*
Y-813913D01*
X-197048D01*
X-177055Y-823910D02*
Y-803917D01*
X-163725Y-823910D01*
Y-803917D01*
X-157061D02*
Y-807249D01*
X-150396Y-813913D01*
X-143732Y-807249D01*
Y-803917D01*
X-150396Y-813913D02*
Y-823910D01*
X-103745Y-807249D02*
X-107077Y-803917D01*
X-113742D01*
X-117074Y-807249D01*
Y-810581D01*
X-113742Y-813913D01*
X-107077D01*
X-103745Y-817246D01*
Y-820578D01*
X-107077Y-823910D01*
X-113742D01*
X-117074Y-820578D01*
X-87084Y-803917D02*
X-93748D01*
X-97080Y-807249D01*
Y-820578D01*
X-93748Y-823910D01*
X-87084D01*
X-83751Y-820578D01*
Y-807249D01*
X-87084Y-803917D01*
X-77087D02*
Y-823910D01*
X-63758D01*
X-57093Y-803917D02*
Y-823910D01*
X-47096D01*
X-43764Y-820578D01*
Y-807249D01*
X-47096Y-803917D01*
X-57093D01*
X-23771D02*
X-37100D01*
Y-823910D01*
X-23771D01*
X-37100Y-813913D02*
X-30435D01*
X-17106Y-823910D02*
Y-803917D01*
X-7109D01*
X-3777Y-807249D01*
Y-813913D01*
X-7109Y-817246D01*
X-17106D01*
X-10442D02*
X-3777Y-823910D01*
X2887D02*
Y-810581D01*
X9552Y-803917D01*
X16216Y-810581D01*
Y-823910D01*
Y-813913D01*
X2887D01*
X22881Y-803917D02*
Y-823910D01*
X32878D01*
X36210Y-820578D01*
Y-817246D01*
X32878Y-813913D01*
X22881D01*
X32878D01*
X36210Y-810581D01*
Y-807249D01*
X32878Y-803917D01*
X22881D01*
X42875D02*
Y-823910D01*
X56204D01*
X76197Y-803917D02*
X62868D01*
Y-823910D01*
X76197D01*
X62868Y-813913D02*
X69533D01*
X116184Y-807249D02*
X112852Y-803917D01*
X106187D01*
X102855Y-807249D01*
Y-820578D01*
X106187Y-823910D01*
X112852D01*
X116184Y-820578D01*
X132846Y-803917D02*
X126181D01*
X122849Y-807249D01*
Y-820578D01*
X126181Y-823910D01*
X132846D01*
X136178Y-820578D01*
Y-807249D01*
X132846Y-803917D01*
X142842Y-823910D02*
Y-803917D01*
X149507Y-810581D01*
X156171Y-803917D01*
Y-823910D01*
X162836D02*
Y-803917D01*
X172833D01*
X176165Y-807249D01*
Y-813913D01*
X172833Y-817246D01*
X162836D01*
X192826Y-803917D02*
X186162D01*
X182829Y-807249D01*
Y-820578D01*
X186162Y-823910D01*
X192826D01*
X196159Y-820578D01*
Y-807249D01*
X192826Y-803917D01*
X202823Y-823910D02*
Y-803917D01*
X216152Y-823910D01*
Y-803917D01*
X236146D02*
X222817D01*
Y-823910D01*
X236146D01*
X222817Y-813913D02*
X229481D01*
X242810Y-823910D02*
Y-803917D01*
X256139Y-823910D01*
Y-803917D01*
X262804D02*
X276133D01*
X269468D01*
Y-823910D01*
X302791Y-803917D02*
Y-823910D01*
X316120D01*
X322784D02*
Y-810581D01*
X329449Y-803917D01*
X336114Y-810581D01*
Y-823910D01*
Y-813913D01*
X322784D01*
X342778Y-823910D02*
Y-803917D01*
X356107Y-823910D01*
Y-803917D01*
X362771D02*
Y-823910D01*
X372768D01*
X376101Y-820578D01*
Y-807249D01*
X372768Y-803917D01*
X362771D01*
X382765Y-823910D02*
Y-820578D01*
X386097D01*
Y-823910D01*
X382765D01*
X-1336681Y-864093D02*
X-1350010D01*
Y-874090D01*
X-1343345Y-870758D01*
X-1340013D01*
X-1336681Y-874090D01*
Y-880754D01*
X-1340013Y-884087D01*
X-1346678D01*
X-1350010Y-880754D01*
X-1330016Y-884087D02*
Y-880754D01*
X-1326684D01*
Y-884087D01*
X-1330016D01*
X-1293362D02*
Y-870758D01*
X-1286697Y-864093D01*
X-1280033Y-870758D01*
Y-884087D01*
Y-874090D01*
X-1293362D01*
X-1273368Y-864093D02*
Y-884087D01*
X-1260039D01*
X-1253374Y-864093D02*
Y-884087D01*
X-1240045D01*
X-1213387D02*
Y-870758D01*
X-1206723Y-864093D01*
X-1200058Y-870758D01*
Y-884087D01*
Y-874090D01*
X-1213387D01*
X-1180065Y-867426D02*
X-1183397Y-864093D01*
X-1190062D01*
X-1193394Y-867426D01*
Y-870758D01*
X-1190062Y-874090D01*
X-1183397D01*
X-1180065Y-877422D01*
Y-880754D01*
X-1183397Y-884087D01*
X-1190062D01*
X-1193394Y-880754D01*
X-1160071Y-867426D02*
X-1163403Y-864093D01*
X-1170068D01*
X-1173400Y-867426D01*
Y-870758D01*
X-1170068Y-874090D01*
X-1163403D01*
X-1160071Y-877422D01*
Y-880754D01*
X-1163403Y-884087D01*
X-1170068D01*
X-1173400Y-880754D01*
X-1140078Y-864093D02*
X-1153407D01*
Y-884087D01*
X-1140078D01*
X-1153407Y-874090D02*
X-1146742D01*
X-1133413Y-884087D02*
Y-864093D01*
X-1126749Y-870758D01*
X-1120084Y-864093D01*
Y-884087D01*
X-1113420Y-864093D02*
Y-884087D01*
X-1103423D01*
X-1100090Y-880754D01*
Y-877422D01*
X-1103423Y-874090D01*
X-1113420D01*
X-1103423D01*
X-1100090Y-870758D01*
Y-867426D01*
X-1103423Y-864093D01*
X-1113420D01*
X-1093426D02*
Y-884087D01*
X-1080097D01*
X-1073432Y-864093D02*
Y-867426D01*
X-1066768Y-874090D01*
X-1060103Y-867426D01*
Y-864093D01*
X-1066768Y-874090D02*
Y-884087D01*
X-1033445D02*
Y-864093D01*
X-1026781Y-870758D01*
X-1020116Y-864093D01*
Y-884087D01*
X-1013452D02*
Y-870758D01*
X-1006787Y-864093D01*
X-1000123Y-870758D01*
Y-884087D01*
Y-874090D01*
X-1013452D01*
X-993458Y-864093D02*
X-980129D01*
X-986794D01*
Y-884087D01*
X-960136Y-864093D02*
X-973465D01*
Y-884087D01*
X-960136D01*
X-973465Y-874090D02*
X-966800D01*
X-953471Y-884087D02*
Y-864093D01*
X-943474D01*
X-940142Y-867426D01*
Y-874090D01*
X-943474Y-877422D01*
X-953471D01*
X-946807D02*
X-940142Y-884087D01*
X-933477Y-864093D02*
X-926813D01*
X-930145D01*
Y-884087D01*
X-933477D01*
X-926813D01*
X-916816D02*
Y-870758D01*
X-910152Y-864093D01*
X-903487Y-870758D01*
Y-884087D01*
Y-874090D01*
X-916816D01*
X-896823Y-864093D02*
Y-884087D01*
X-883494D01*
X-863500Y-867426D02*
X-866832Y-864093D01*
X-873497D01*
X-876829Y-867426D01*
Y-870758D01*
X-873497Y-874090D01*
X-866832D01*
X-863500Y-877422D01*
Y-880754D01*
X-866832Y-884087D01*
X-873497D01*
X-876829Y-880754D01*
X-836842Y-864093D02*
X-823513D01*
X-830178D01*
Y-884087D01*
X-806852Y-864093D02*
X-813516D01*
X-816849Y-867426D01*
Y-880754D01*
X-813516Y-884087D01*
X-806852D01*
X-803519Y-880754D01*
Y-867426D01*
X-806852Y-864093D01*
X-776861D02*
Y-884087D01*
X-766865D01*
X-763532Y-880754D01*
Y-877422D01*
X-766865Y-874090D01*
X-776861D01*
X-766865D01*
X-763532Y-870758D01*
Y-867426D01*
X-766865Y-864093D01*
X-776861D01*
X-743539D02*
X-756868D01*
Y-884087D01*
X-743539D01*
X-756868Y-874090D02*
X-750203D01*
X-716881Y-884087D02*
Y-864093D01*
X-706884D01*
X-703552Y-867426D01*
Y-874090D01*
X-706884Y-877422D01*
X-716881D01*
X-710216D02*
X-703552Y-884087D01*
X-693555D02*
X-686890D01*
X-683558Y-880754D01*
Y-874090D01*
X-686890Y-870758D01*
X-693555D01*
X-696887Y-874090D01*
Y-880754D01*
X-693555Y-884087D01*
X-676893Y-864093D02*
Y-884087D01*
Y-874090D01*
X-663565D01*
Y-864093D01*
Y-884087D01*
X-643571Y-867426D02*
X-646903Y-864093D01*
X-653568D01*
X-656900Y-867426D01*
Y-870758D01*
X-653568Y-874090D01*
X-646903D01*
X-643571Y-877422D01*
Y-880754D01*
X-646903Y-884087D01*
X-653568D01*
X-656900Y-880754D01*
X-603584Y-867426D02*
X-606916Y-864093D01*
X-613581D01*
X-616913Y-867426D01*
Y-880754D01*
X-613581Y-884087D01*
X-606916D01*
X-603584Y-880754D01*
X-586922Y-864093D02*
X-593587D01*
X-596919Y-867426D01*
Y-880754D01*
X-593587Y-884087D01*
X-586922D01*
X-583590Y-880754D01*
Y-867426D01*
X-586922Y-864093D01*
X-576926Y-884087D02*
Y-864093D01*
X-570261Y-870758D01*
X-563597Y-864093D01*
Y-884087D01*
X-556932D02*
Y-864093D01*
X-546935D01*
X-543603Y-867426D01*
Y-874090D01*
X-546935Y-877422D01*
X-556932D01*
X-536939Y-864093D02*
Y-884087D01*
X-523610D01*
X-516945Y-864093D02*
X-510281D01*
X-513613D01*
Y-884087D01*
X-516945D01*
X-510281D01*
X-500284D02*
Y-870758D01*
X-493619Y-864093D01*
X-486955Y-870758D01*
Y-884087D01*
Y-874090D01*
X-500284D01*
X-480290Y-884087D02*
Y-864093D01*
X-466961Y-884087D01*
Y-864093D01*
X-460297D02*
X-446968D01*
X-453632D01*
Y-884087D01*
X-440303D02*
Y-880754D01*
X-436971D01*
Y-884087D01*
X-440303D01*
X-1336681Y-924270D02*
X-1343345Y-927602D01*
X-1350010Y-934267D01*
Y-940931D01*
X-1346678Y-944263D01*
X-1340013D01*
X-1336681Y-940931D01*
Y-937599D01*
X-1340013Y-934267D01*
X-1350010D01*
X-1330016Y-944263D02*
Y-940931D01*
X-1326684D01*
Y-944263D01*
X-1330016D01*
X-1293362D02*
Y-930934D01*
X-1286697Y-924270D01*
X-1280033Y-930934D01*
Y-944263D01*
Y-934267D01*
X-1293362D01*
X-1273368Y-944263D02*
Y-924270D01*
X-1260039Y-944263D01*
Y-924270D01*
X-1253374D02*
Y-927602D01*
X-1246710Y-934267D01*
X-1240045Y-927602D01*
Y-924270D01*
X-1246710Y-934267D02*
Y-944263D01*
X-1213387Y-924270D02*
Y-944263D01*
X-1200058D01*
X-1193394D02*
Y-930934D01*
X-1186729Y-924270D01*
X-1180065Y-930934D01*
Y-944263D01*
Y-934267D01*
X-1193394D01*
X-1173400Y-924270D02*
Y-944263D01*
X-1163403D01*
X-1160071Y-940931D01*
Y-937599D01*
X-1163403Y-934267D01*
X-1173400D01*
X-1163403D01*
X-1160071Y-930934D01*
Y-927602D01*
X-1163403Y-924270D01*
X-1173400D01*
X-1140078D02*
X-1153407D01*
Y-944263D01*
X-1140078D01*
X-1153407Y-934267D02*
X-1146742D01*
X-1133413Y-924270D02*
Y-944263D01*
X-1120084D01*
X-1100090Y-927602D02*
X-1103423Y-924270D01*
X-1110087D01*
X-1113420Y-927602D01*
Y-930934D01*
X-1110087Y-934267D01*
X-1103423D01*
X-1100090Y-937599D01*
Y-940931D01*
X-1103423Y-944263D01*
X-1110087D01*
X-1113420Y-940931D01*
X-1063436Y-924270D02*
X-1070100D01*
X-1073432Y-927602D01*
Y-940931D01*
X-1070100Y-944263D01*
X-1063436D01*
X-1060103Y-940931D01*
Y-927602D01*
X-1063436Y-924270D01*
X-1053439Y-944263D02*
Y-924270D01*
X-1043442D01*
X-1040110Y-927602D01*
Y-934267D01*
X-1043442Y-937599D01*
X-1053439D01*
X-1046774D02*
X-1040110Y-944263D01*
X-1000123Y-927602D02*
X-1003455Y-924270D01*
X-1010119D01*
X-1013452Y-927602D01*
Y-940931D01*
X-1010119Y-944263D01*
X-1003455D01*
X-1000123Y-940931D01*
X-983461Y-924270D02*
X-990126D01*
X-993458Y-927602D01*
Y-940931D01*
X-990126Y-944263D01*
X-983461D01*
X-980129Y-940931D01*
Y-927602D01*
X-983461Y-924270D01*
X-973465Y-944263D02*
Y-924270D01*
X-966800Y-930934D01*
X-960136Y-924270D01*
Y-944263D01*
X-953471D02*
Y-924270D01*
X-943474D01*
X-940142Y-927602D01*
Y-934267D01*
X-943474Y-937599D01*
X-953471D01*
X-923481Y-924270D02*
X-930145D01*
X-933477Y-927602D01*
Y-940931D01*
X-930145Y-944263D01*
X-923481D01*
X-920148Y-940931D01*
Y-927602D01*
X-923481Y-924270D01*
X-900155Y-927602D02*
X-903487Y-924270D01*
X-910152D01*
X-913484Y-927602D01*
Y-930934D01*
X-910152Y-934267D01*
X-903487D01*
X-900155Y-937599D01*
Y-940931D01*
X-903487Y-944263D01*
X-910152D01*
X-913484Y-940931D01*
X-893490Y-924270D02*
X-886826D01*
X-890158D01*
Y-944263D01*
X-893490D01*
X-886826D01*
X-876829Y-924270D02*
X-863500D01*
X-870165D01*
Y-944263D01*
X-856836Y-924270D02*
X-850171D01*
X-853503D01*
Y-944263D01*
X-856836D01*
X-850171D01*
X-830178Y-924270D02*
X-836842D01*
X-840174Y-927602D01*
Y-940931D01*
X-836842Y-944263D01*
X-830178D01*
X-826845Y-940931D01*
Y-927602D01*
X-830178Y-924270D01*
X-820181Y-944263D02*
Y-924270D01*
X-806852Y-944263D01*
Y-924270D01*
X-770197D02*
X-776861D01*
X-780194Y-927602D01*
Y-940931D01*
X-776861Y-944263D01*
X-770197D01*
X-766865Y-940931D01*
Y-927602D01*
X-770197Y-924270D01*
X-746871D02*
X-760200D01*
Y-934267D01*
X-753536D01*
X-760200D01*
Y-944263D01*
X-736874Y-947596D02*
X-733542Y-944263D01*
Y-940931D01*
X-736874D01*
Y-944263D01*
X-733542D01*
X-736874Y-947596D01*
X-740207Y-950928D01*
X-700219Y-944263D02*
Y-930934D01*
X-693555Y-924270D01*
X-686890Y-930934D01*
Y-944263D01*
Y-934267D01*
X-700219D01*
X-680226Y-944263D02*
Y-924270D01*
X-670229D01*
X-666897Y-927602D01*
Y-934267D01*
X-670229Y-937599D01*
X-680226D01*
X-660232Y-944263D02*
Y-924270D01*
X-650236D01*
X-646903Y-927602D01*
Y-934267D01*
X-650236Y-937599D01*
X-660232D01*
X-640239Y-924270D02*
Y-944263D01*
X-626910D01*
X-620245Y-924270D02*
X-613581D01*
X-616913D01*
Y-944263D01*
X-620245D01*
X-613581D01*
X-590255Y-924270D02*
X-603584D01*
Y-944263D01*
X-590255D01*
X-603584Y-934267D02*
X-596919D01*
X-583590Y-924270D02*
Y-944263D01*
X-573593D01*
X-570261Y-940931D01*
Y-927602D01*
X-573593Y-924270D01*
X-583590D01*
X-543603D02*
X-530274D01*
X-536939D01*
Y-944263D01*
X-513613Y-924270D02*
X-520277D01*
X-523610Y-927602D01*
Y-940931D01*
X-520277Y-944263D01*
X-513613D01*
X-510281Y-940931D01*
Y-927602D01*
X-513613Y-924270D01*
X-483623D02*
X-470294D01*
X-476958D01*
Y-944263D01*
X-463629Y-924270D02*
Y-944263D01*
Y-934267D01*
X-450300D01*
Y-924270D01*
Y-944263D01*
X-430306Y-924270D02*
X-443635D01*
Y-944263D01*
X-430306D01*
X-443635Y-934267D02*
X-436971D01*
X-403648Y-924270D02*
Y-944263D01*
X-393652D01*
X-390319Y-940931D01*
Y-937599D01*
X-393652Y-934267D01*
X-403648D01*
X-393652D01*
X-390319Y-930934D01*
Y-927602D01*
X-393652Y-924270D01*
X-403648D01*
X-373658D02*
X-380322D01*
X-383655Y-927602D01*
Y-940931D01*
X-380322Y-944263D01*
X-373658D01*
X-370326Y-940931D01*
Y-927602D01*
X-373658Y-924270D01*
X-363661Y-944263D02*
Y-930934D01*
X-356997Y-924270D01*
X-350332Y-930934D01*
Y-944263D01*
Y-934267D01*
X-363661D01*
X-343668Y-944263D02*
Y-924270D01*
X-333671D01*
X-330339Y-927602D01*
Y-934267D01*
X-333671Y-937599D01*
X-343668D01*
X-337003D02*
X-330339Y-944263D01*
X-323674Y-924270D02*
Y-944263D01*
X-313677D01*
X-310345Y-940931D01*
Y-927602D01*
X-313677Y-924270D01*
X-323674D01*
X-283687Y-944263D02*
Y-924270D01*
X-270358Y-944263D01*
Y-924270D01*
X-250364D02*
X-263693D01*
Y-944263D01*
X-250364D01*
X-263693Y-934267D02*
X-257029D01*
X-230371Y-924270D02*
X-243700D01*
Y-944263D01*
X-230371D01*
X-243700Y-934267D02*
X-237035D01*
X-223706Y-924270D02*
Y-944263D01*
X-213710D01*
X-210377Y-940931D01*
Y-927602D01*
X-213710Y-924270D01*
X-223706D01*
X-183719D02*
X-170390D01*
X-177055D01*
Y-944263D01*
X-153729Y-924270D02*
X-160393D01*
X-163726Y-927602D01*
Y-940931D01*
X-160393Y-944263D01*
X-153729D01*
X-150396Y-940931D01*
Y-927602D01*
X-153729Y-924270D01*
X-123738D02*
Y-944263D01*
X-113742D01*
X-110409Y-940931D01*
Y-937599D01*
X-113742Y-934267D01*
X-123738D01*
X-113742D01*
X-110409Y-930934D01*
Y-927602D01*
X-113742Y-924270D01*
X-123738D01*
X-90416D02*
X-103745D01*
Y-944263D01*
X-90416D01*
X-103745Y-934267D02*
X-97080D01*
X-63758Y-944263D02*
Y-930934D01*
X-57093Y-924270D01*
X-50429Y-930934D01*
Y-944263D01*
Y-934267D01*
X-63758D01*
X-43764Y-944263D02*
Y-924270D01*
X-33767D01*
X-30435Y-927602D01*
Y-934267D01*
X-33767Y-937599D01*
X-43764D01*
X-23771Y-944263D02*
Y-924270D01*
X-13774D01*
X-10442Y-927602D01*
Y-934267D01*
X-13774Y-937599D01*
X-23771D01*
X-3777Y-944263D02*
Y-924270D01*
X6220D01*
X9552Y-927602D01*
Y-934267D01*
X6220Y-937599D01*
X-3777D01*
X2887D02*
X9552Y-944263D01*
X26213Y-924270D02*
X19549D01*
X16216Y-927602D01*
Y-940931D01*
X19549Y-944263D01*
X26213D01*
X29546Y-940931D01*
Y-927602D01*
X26213Y-924270D01*
X36210D02*
Y-937599D01*
X42874Y-944263D01*
X49539Y-937599D01*
Y-924270D01*
X56204D02*
X62868D01*
X59536D01*
Y-944263D01*
X56204D01*
X62868D01*
X86194Y-924270D02*
X72865D01*
Y-944263D01*
X86194D01*
X72865Y-934267D02*
X79529D01*
X92858Y-924270D02*
Y-944263D01*
X102855D01*
X106187Y-940931D01*
Y-927602D01*
X102855Y-924270D01*
X92858D01*
X132846D02*
Y-944263D01*
X142842D01*
X146175Y-940931D01*
Y-937599D01*
X142842Y-934267D01*
X132846D01*
X142842D01*
X146175Y-930934D01*
Y-927602D01*
X142842Y-924270D01*
X132846D01*
X152839D02*
Y-927602D01*
X159504Y-934267D01*
X166168Y-927602D01*
Y-924270D01*
X159504Y-934267D02*
Y-944263D01*
X192826D02*
Y-930934D01*
X199491Y-924270D01*
X206155Y-930934D01*
Y-944263D01*
Y-934267D01*
X192826D01*
X212820Y-924270D02*
X219484D01*
X216152D01*
Y-944263D01*
X212820D01*
X219484D01*
X229481D02*
Y-924270D01*
X239478D01*
X242810Y-927602D01*
Y-934267D01*
X239478Y-937599D01*
X229481D01*
X236146D02*
X242810Y-944263D01*
X249475Y-924270D02*
X262804D01*
Y-927602D01*
X249475Y-940931D01*
Y-944263D01*
X262804D01*
X269468D02*
Y-930934D01*
X276133Y-924270D01*
X282797Y-930934D01*
Y-944263D01*
Y-934267D01*
X269468D01*
X289462Y-924270D02*
X296126D01*
X292794D01*
Y-944263D01*
X289462D01*
X296126D01*
X-1350010Y-984446D02*
X-1336681D01*
Y-987779D01*
X-1350010Y-1001108D01*
Y-1004440D01*
X-1330016D02*
Y-1001108D01*
X-1326684D01*
Y-1004440D01*
X-1330016D01*
X-1293362D02*
Y-984446D01*
X-1286697Y-991111D01*
X-1280033Y-984446D01*
Y-1004440D01*
X-1273368Y-984446D02*
X-1266703D01*
X-1270036D01*
Y-1004440D01*
X-1273368D01*
X-1266703D01*
X-1256707D02*
Y-984446D01*
X-1243378Y-1004440D01*
Y-984446D01*
X-1236713D02*
X-1230049D01*
X-1233381D01*
Y-1004440D01*
X-1236713D01*
X-1230049D01*
X-1220052D02*
Y-984446D01*
X-1213387Y-991111D01*
X-1206723Y-984446D01*
Y-1004440D01*
X-1200058Y-984446D02*
Y-1001108D01*
X-1196726Y-1004440D01*
X-1190062D01*
X-1186729Y-1001108D01*
Y-984446D01*
X-1180065Y-1004440D02*
Y-984446D01*
X-1173400Y-991111D01*
X-1166736Y-984446D01*
Y-1004440D01*
X-1140078Y-984446D02*
X-1126749D01*
X-1133413D01*
Y-1004440D01*
X-1120084D02*
Y-984446D01*
X-1110087D01*
X-1106755Y-987779D01*
Y-994443D01*
X-1110087Y-997775D01*
X-1120084D01*
X-1113420D02*
X-1106755Y-1004440D01*
X-1100091D02*
Y-991111D01*
X-1093426Y-984446D01*
X-1086761Y-991111D01*
Y-1004440D01*
Y-994443D01*
X-1100091D01*
X-1066768Y-987779D02*
X-1070100Y-984446D01*
X-1076765D01*
X-1080097Y-987779D01*
Y-1001108D01*
X-1076765Y-1004440D01*
X-1070100D01*
X-1066768Y-1001108D01*
X-1046774Y-984446D02*
X-1060103D01*
Y-1004440D01*
X-1046774D01*
X-1060103Y-994443D02*
X-1053439D01*
X-1020116Y-984446D02*
Y-1004440D01*
X-1013452Y-997775D01*
X-1006787Y-1004440D01*
Y-984446D01*
X-1000123D02*
X-993458D01*
X-996790D01*
Y-1004440D01*
X-1000123D01*
X-993458D01*
X-983462Y-984446D02*
Y-1004440D01*
X-973465D01*
X-970133Y-1001108D01*
Y-987779D01*
X-973465Y-984446D01*
X-983462D01*
X-963468D02*
X-950139D01*
X-956803D01*
Y-1004440D01*
X-943474Y-984446D02*
Y-1004440D01*
Y-994443D01*
X-930145D01*
Y-984446D01*
Y-1004440D01*
X-910152Y-987779D02*
X-913484Y-984446D01*
X-920149D01*
X-923481Y-987779D01*
Y-991111D01*
X-920149Y-994443D01*
X-913484D01*
X-910152Y-997775D01*
Y-1001108D01*
X-913484Y-1004440D01*
X-920149D01*
X-923481Y-1001108D01*
X-903487Y-991111D02*
X-900155D01*
Y-994443D01*
X-903487D01*
Y-991111D01*
Y-1001108D02*
X-900155D01*
Y-1004440D01*
X-903487D01*
Y-1001108D01*
X-1136745Y-1014535D02*
X-1150074D01*
Y-1034528D01*
X-1136745D01*
X-1150074Y-1024531D02*
X-1143410D01*
X-1130081Y-1014535D02*
X-1116752Y-1034528D01*
Y-1014535D02*
X-1130081Y-1034528D01*
X-1110087Y-1014535D02*
X-1096758D01*
X-1103423D01*
Y-1034528D01*
X-1076765Y-1014535D02*
X-1090094D01*
Y-1034528D01*
X-1076765D01*
X-1090094Y-1024531D02*
X-1083429D01*
X-1070100Y-1034528D02*
Y-1014535D01*
X-1060103D01*
X-1056771Y-1017867D01*
Y-1024531D01*
X-1060103Y-1027864D01*
X-1070100D01*
X-1063436D02*
X-1056771Y-1034528D01*
X-1050107D02*
Y-1014535D01*
X-1036778Y-1034528D01*
Y-1014535D01*
X-1030113Y-1034528D02*
Y-1021199D01*
X-1023448Y-1014535D01*
X-1016784Y-1021199D01*
Y-1034528D01*
Y-1024531D01*
X-1030113D01*
X-1010119Y-1014535D02*
Y-1034528D01*
X-996790D01*
X-990126Y-1021199D02*
X-986794D01*
Y-1024531D01*
X-990126D01*
Y-1021199D01*
Y-1031196D02*
X-986794D01*
Y-1034528D01*
X-990126D01*
Y-1031196D01*
X-953471Y-1017867D02*
X-950139Y-1014535D01*
X-943474D01*
X-940142Y-1017867D01*
Y-1031196D01*
X-943474Y-1034528D01*
X-950139D01*
X-953471Y-1031196D01*
Y-1017867D01*
X-933477Y-1034528D02*
Y-1031196D01*
X-930145D01*
Y-1034528D01*
X-933477D01*
X-903487D02*
X-916816D01*
X-903487Y-1021199D01*
Y-1017867D01*
X-906820Y-1014535D01*
X-913484D01*
X-916816Y-1017867D01*
X-896823D02*
X-893490Y-1014535D01*
X-886826D01*
X-883494Y-1017867D01*
Y-1031196D01*
X-886826Y-1034528D01*
X-893490D01*
X-896823Y-1031196D01*
Y-1017867D01*
X-876829D02*
X-873497Y-1014535D01*
X-866832D01*
X-863500Y-1017867D01*
Y-1021199D01*
X-866832Y-1024531D01*
X-870165D01*
X-866832D01*
X-863500Y-1027864D01*
Y-1031196D01*
X-866832Y-1034528D01*
X-873497D01*
X-876829Y-1031196D01*
X-836842Y-1034528D02*
Y-1021199D01*
X-833510D01*
X-830178Y-1024531D01*
Y-1034528D01*
Y-1024531D01*
X-826845Y-1021199D01*
X-823513Y-1024531D01*
Y-1034528D01*
X-816849D02*
Y-1021199D01*
X-813516D01*
X-810184Y-1024531D01*
Y-1034528D01*
Y-1024531D01*
X-806852Y-1021199D01*
X-803519Y-1024531D01*
Y-1034528D01*
X-756868Y-1014535D02*
X-750203D01*
X-753536D01*
Y-1034528D01*
X-756868D01*
X-750203D01*
X-740207D02*
Y-1014535D01*
X-726878Y-1034528D01*
Y-1014535D01*
X-720213D02*
X-706884D01*
X-713548D01*
Y-1034528D01*
X-686890Y-1014535D02*
X-700219D01*
Y-1034528D01*
X-686890D01*
X-700219Y-1024531D02*
X-693555D01*
X-680226Y-1034528D02*
Y-1014535D01*
X-670229D01*
X-666897Y-1017867D01*
Y-1024531D01*
X-670229Y-1027864D01*
X-680226D01*
X-673561D02*
X-666897Y-1034528D01*
X-660232D02*
Y-1014535D01*
X-646903Y-1034528D01*
Y-1014535D01*
X-640239Y-1034528D02*
Y-1021199D01*
X-633574Y-1014535D01*
X-626910Y-1021199D01*
Y-1034528D01*
Y-1024531D01*
X-640239D01*
X-620245Y-1014535D02*
Y-1034528D01*
X-606916D01*
X-600252Y-1021199D02*
X-596919D01*
Y-1024531D01*
X-600252D01*
Y-1021199D01*
Y-1031196D02*
X-596919D01*
Y-1034528D01*
X-600252D01*
Y-1031196D01*
X-563597Y-1034528D02*
Y-1014535D01*
X-550268Y-1034528D01*
Y-1014535D01*
X-543603Y-1034528D02*
X-530274Y-1021199D01*
X-523610Y-1034528D02*
Y-1021199D01*
X-516945Y-1014535D01*
X-510281Y-1021199D01*
Y-1034528D01*
Y-1024531D01*
X-523610D01*
X-1350010Y-1078044D02*
X-1346678Y-1074711D01*
X-1340013D01*
X-1336681Y-1078044D01*
Y-1081376D01*
X-1340013Y-1084708D01*
X-1336681Y-1088040D01*
Y-1091373D01*
X-1340013Y-1094705D01*
X-1346678D01*
X-1350010Y-1091373D01*
Y-1088040D01*
X-1346678Y-1084708D01*
X-1350010Y-1081376D01*
Y-1078044D01*
X-1346678Y-1084708D02*
X-1340013D01*
X-1330016Y-1094705D02*
Y-1091373D01*
X-1326684D01*
Y-1094705D01*
X-1330016D01*
X-1293362D02*
Y-1074711D01*
X-1286697Y-1081376D01*
X-1280033Y-1074711D01*
Y-1094705D01*
X-1273368Y-1074711D02*
X-1266703D01*
X-1270036D01*
Y-1094705D01*
X-1273368D01*
X-1266703D01*
X-1256707D02*
Y-1074711D01*
X-1243378Y-1094705D01*
Y-1074711D01*
X-1236713D02*
X-1230049D01*
X-1233381D01*
Y-1094705D01*
X-1236713D01*
X-1230049D01*
X-1220052D02*
Y-1074711D01*
X-1213387Y-1081376D01*
X-1206723Y-1074711D01*
Y-1094705D01*
X-1200058Y-1074711D02*
Y-1091373D01*
X-1196726Y-1094705D01*
X-1190062D01*
X-1186729Y-1091373D01*
Y-1074711D01*
X-1180065Y-1094705D02*
Y-1074711D01*
X-1173400Y-1081376D01*
X-1166736Y-1074711D01*
Y-1094705D01*
X-1126749Y-1078044D02*
X-1130081Y-1074711D01*
X-1136745D01*
X-1140078Y-1078044D01*
Y-1081376D01*
X-1136745Y-1084708D01*
X-1130081D01*
X-1126749Y-1088040D01*
Y-1091373D01*
X-1130081Y-1094705D01*
X-1136745D01*
X-1140078Y-1091373D01*
X-1120084Y-1094705D02*
Y-1074711D01*
X-1110087D01*
X-1106755Y-1078044D01*
Y-1084708D01*
X-1110087Y-1088040D01*
X-1120084D01*
X-1100091Y-1094705D02*
Y-1081376D01*
X-1093426Y-1074711D01*
X-1086761Y-1081376D01*
Y-1094705D01*
Y-1084708D01*
X-1100091D01*
X-1066768Y-1078044D02*
X-1070100Y-1074711D01*
X-1076765D01*
X-1080097Y-1078044D01*
Y-1091373D01*
X-1076765Y-1094705D01*
X-1070100D01*
X-1066768Y-1091373D01*
X-1046774Y-1074711D02*
X-1060103D01*
Y-1094705D01*
X-1046774D01*
X-1060103Y-1084708D02*
X-1053439D01*
X-1020116Y-1074711D02*
Y-1094705D01*
X-1010119D01*
X-1006787Y-1091373D01*
Y-1088040D01*
X-1010119Y-1084708D01*
X-1020116D01*
X-1010119D01*
X-1006787Y-1081376D01*
Y-1078044D01*
X-1010119Y-1074711D01*
X-1020116D01*
X-986794D02*
X-1000123D01*
Y-1094705D01*
X-986794D01*
X-1000123Y-1084708D02*
X-993458D01*
X-980129Y-1074711D02*
X-966800D01*
X-973465D01*
Y-1094705D01*
X-960136Y-1074711D02*
Y-1094705D01*
X-953471Y-1088040D01*
X-946807Y-1094705D01*
Y-1074711D01*
X-926813D02*
X-940142D01*
Y-1094705D01*
X-926813D01*
X-940142Y-1084708D02*
X-933478D01*
X-906820Y-1074711D02*
X-920148D01*
Y-1094705D01*
X-906820D01*
X-920148Y-1084708D02*
X-913484D01*
X-900155Y-1094705D02*
Y-1074711D01*
X-886826Y-1094705D01*
Y-1074711D01*
X-846839D02*
X-860168D01*
Y-1084708D01*
X-853503D01*
X-860168D01*
Y-1094705D01*
X-826845Y-1074711D02*
X-840174D01*
Y-1094705D01*
X-826845D01*
X-840174Y-1084708D02*
X-833510D01*
X-820181Y-1094705D02*
Y-1081376D01*
X-813516Y-1074711D01*
X-806852Y-1081376D01*
Y-1094705D01*
Y-1084708D01*
X-820181D01*
X-800187Y-1074711D02*
X-786858D01*
X-793523D01*
Y-1094705D01*
X-780194Y-1074711D02*
Y-1091373D01*
X-776861Y-1094705D01*
X-770197D01*
X-766865Y-1091373D01*
Y-1074711D01*
X-760200Y-1094705D02*
Y-1074711D01*
X-750203D01*
X-746871Y-1078044D01*
Y-1084708D01*
X-750203Y-1088040D01*
X-760200D01*
X-753536D02*
X-746871Y-1094705D01*
X-726878Y-1074711D02*
X-740207D01*
Y-1094705D01*
X-726878D01*
X-740207Y-1084708D02*
X-733542D01*
X-706884Y-1078044D02*
X-710216Y-1074711D01*
X-716881D01*
X-720213Y-1078044D01*
Y-1081376D01*
X-716881Y-1084708D01*
X-710216D01*
X-706884Y-1088040D01*
Y-1091373D01*
X-710216Y-1094705D01*
X-716881D01*
X-720213Y-1091373D01*
X-700219Y-1081376D02*
X-696887D01*
Y-1084708D01*
X-700219D01*
Y-1081376D01*
Y-1091373D02*
X-696887D01*
Y-1094705D01*
X-700219D01*
Y-1091373D01*
X-1156739Y-1104799D02*
X-1170068D01*
Y-1124793D01*
X-1156739D01*
X-1170068Y-1114796D02*
X-1163403D01*
X-1150074Y-1104799D02*
X-1136745Y-1124793D01*
Y-1104799D02*
X-1150074Y-1124793D01*
X-1130081Y-1104799D02*
X-1116752D01*
X-1123416D01*
Y-1124793D01*
X-1096758Y-1104799D02*
X-1110087D01*
Y-1124793D01*
X-1096758D01*
X-1110087Y-1114796D02*
X-1103423D01*
X-1090094Y-1124793D02*
Y-1104799D01*
X-1080097D01*
X-1076765Y-1108132D01*
Y-1114796D01*
X-1080097Y-1118129D01*
X-1090094D01*
X-1083429D02*
X-1076765Y-1124793D01*
X-1070100D02*
Y-1104799D01*
X-1056771Y-1124793D01*
Y-1104799D01*
X-1050107Y-1124793D02*
Y-1111464D01*
X-1043442Y-1104799D01*
X-1036778Y-1111464D01*
Y-1124793D01*
Y-1114796D01*
X-1050107D01*
X-1030113Y-1104799D02*
Y-1124793D01*
X-1016784D01*
X-1010119Y-1111464D02*
X-1006787D01*
Y-1114796D01*
X-1010119D01*
Y-1111464D01*
Y-1121461D02*
X-1006787D01*
Y-1124793D01*
X-1010119D01*
Y-1121461D01*
X-973465Y-1108132D02*
X-970132Y-1104799D01*
X-963468D01*
X-960136Y-1108132D01*
Y-1121461D01*
X-963468Y-1124793D01*
X-970132D01*
X-973465Y-1121461D01*
Y-1108132D01*
X-953471Y-1124793D02*
Y-1121461D01*
X-950139D01*
Y-1124793D01*
X-953471D01*
X-936810D02*
X-930145D01*
X-933478D01*
Y-1104799D01*
X-936810Y-1108132D01*
X-906820Y-1104799D02*
X-920148D01*
Y-1114796D01*
X-913484Y-1111464D01*
X-910152D01*
X-906820Y-1114796D01*
Y-1121461D01*
X-910152Y-1124793D01*
X-916816D01*
X-920148Y-1121461D01*
X-880161Y-1124793D02*
Y-1111464D01*
X-876829D01*
X-873497Y-1114796D01*
Y-1124793D01*
Y-1114796D01*
X-870165Y-1111464D01*
X-866832Y-1114796D01*
Y-1124793D01*
X-860168D02*
Y-1111464D01*
X-856836D01*
X-853503Y-1114796D01*
Y-1124793D01*
Y-1114796D01*
X-850171Y-1111464D01*
X-846839Y-1114796D01*
Y-1124793D01*
X-800187Y-1104799D02*
X-793523D01*
X-796855D01*
Y-1124793D01*
X-800187D01*
X-793523D01*
X-783526D02*
Y-1104799D01*
X-770197Y-1124793D01*
Y-1104799D01*
X-763532D02*
X-750203D01*
X-756868D01*
Y-1124793D01*
X-730210Y-1104799D02*
X-743539D01*
Y-1124793D01*
X-730210D01*
X-743539Y-1114796D02*
X-736874D01*
X-723545Y-1124793D02*
Y-1104799D01*
X-713548D01*
X-710216Y-1108132D01*
Y-1114796D01*
X-713548Y-1118129D01*
X-723545D01*
X-716881D02*
X-710216Y-1124793D01*
X-703552D02*
Y-1104799D01*
X-690223Y-1124793D01*
Y-1104799D01*
X-683558Y-1124793D02*
Y-1111464D01*
X-676894Y-1104799D01*
X-670229Y-1111464D01*
Y-1124793D01*
Y-1114796D01*
X-683558D01*
X-663565Y-1104799D02*
Y-1124793D01*
X-650236D01*
X-643571Y-1111464D02*
X-640239D01*
Y-1114796D01*
X-643571D01*
Y-1111464D01*
Y-1121461D02*
X-640239D01*
Y-1124793D01*
X-643571D01*
Y-1121461D01*
X-606916Y-1124793D02*
Y-1104799D01*
X-593587Y-1124793D01*
Y-1104799D01*
X-586923Y-1124793D02*
X-573593Y-1111464D01*
X-566929Y-1124793D02*
Y-1111464D01*
X-560265Y-1104799D01*
X-553600Y-1111464D01*
Y-1124793D01*
Y-1114796D01*
X-566929D01*
X-1350010Y-1181637D02*
X-1346678Y-1184970D01*
X-1340013D01*
X-1336681Y-1181637D01*
Y-1168308D01*
X-1340013Y-1164976D01*
X-1346678D01*
X-1350010Y-1168308D01*
Y-1171641D01*
X-1346678Y-1174973D01*
X-1336681D01*
X-1330016Y-1184970D02*
Y-1181637D01*
X-1326684D01*
Y-1184970D01*
X-1330016D01*
X-1283365Y-1164976D02*
X-1290029D01*
X-1293362Y-1168308D01*
Y-1181637D01*
X-1290029Y-1184970D01*
X-1283365D01*
X-1280033Y-1181637D01*
Y-1168308D01*
X-1283365Y-1164976D01*
X-1273368Y-1171641D02*
X-1266703Y-1184970D01*
X-1260039Y-1171641D01*
X-1243378Y-1184970D02*
X-1250042D01*
X-1253374Y-1181637D01*
Y-1174973D01*
X-1250042Y-1171641D01*
X-1243378D01*
X-1240045Y-1174973D01*
Y-1178305D01*
X-1253374D01*
X-1233381Y-1171641D02*
Y-1184970D01*
Y-1178305D01*
X-1230049Y-1174973D01*
X-1226716Y-1171641D01*
X-1223384D01*
X-1210055D02*
X-1203391D01*
X-1200058Y-1174973D01*
Y-1184970D01*
X-1210055D01*
X-1213387Y-1181637D01*
X-1210055Y-1178305D01*
X-1200058D01*
X-1193394Y-1184970D02*
X-1186729D01*
X-1190062D01*
Y-1164976D01*
X-1193394D01*
X-1176732Y-1184970D02*
X-1170068D01*
X-1173400D01*
Y-1164976D01*
X-1176732D01*
X-1140078D02*
Y-1184970D01*
X-1130081D01*
X-1126749Y-1181637D01*
Y-1178305D01*
X-1130081Y-1174973D01*
X-1140078D01*
X-1130081D01*
X-1126749Y-1171641D01*
Y-1168308D01*
X-1130081Y-1164976D01*
X-1140078D01*
X-1116752Y-1184970D02*
X-1110087D01*
X-1106755Y-1181637D01*
Y-1174973D01*
X-1110087Y-1171641D01*
X-1116752D01*
X-1120084Y-1174973D01*
Y-1181637D01*
X-1116752Y-1184970D01*
X-1096758Y-1171641D02*
X-1090094D01*
X-1086761Y-1174973D01*
Y-1184970D01*
X-1096758D01*
X-1100091Y-1181637D01*
X-1096758Y-1178305D01*
X-1086761D01*
X-1080097Y-1171641D02*
Y-1184970D01*
Y-1178305D01*
X-1076765Y-1174973D01*
X-1073432Y-1171641D01*
X-1070100D01*
X-1046774Y-1164976D02*
Y-1184970D01*
X-1056771D01*
X-1060103Y-1181637D01*
Y-1174973D01*
X-1056771Y-1171641D01*
X-1046774D01*
X-1020116Y-1164976D02*
X-1006787D01*
X-1013452D01*
Y-1184970D01*
X-1000123Y-1164976D02*
Y-1184970D01*
Y-1174973D01*
X-996790Y-1171641D01*
X-990126D01*
X-986794Y-1174973D01*
Y-1184970D01*
X-980129D02*
X-973465D01*
X-976797D01*
Y-1171641D01*
X-980129D01*
X-950139D02*
X-960136D01*
X-963468Y-1174973D01*
Y-1181637D01*
X-960136Y-1184970D01*
X-950139D01*
X-943474D02*
Y-1164976D01*
Y-1178305D02*
X-933478Y-1171641D01*
X-943474Y-1178305D02*
X-933478Y-1184970D01*
X-923481D02*
Y-1171641D01*
X-913484D01*
X-910152Y-1174973D01*
Y-1184970D01*
X-893491D02*
X-900155D01*
X-903487Y-1181637D01*
Y-1174973D01*
X-900155Y-1171641D01*
X-893491D01*
X-890158Y-1174973D01*
Y-1178305D01*
X-903487D01*
X-883494Y-1184970D02*
X-873497D01*
X-870165Y-1181637D01*
X-873497Y-1178305D01*
X-880161D01*
X-883494Y-1174973D01*
X-880161Y-1171641D01*
X-870165D01*
X-863500Y-1184970D02*
X-853503D01*
X-850171Y-1181637D01*
X-853503Y-1178305D01*
X-860168D01*
X-863500Y-1174973D01*
X-860168Y-1171641D01*
X-850171D01*
X-843507D02*
X-840174D01*
Y-1174973D01*
X-843507D01*
Y-1171641D01*
Y-1181637D02*
X-840174D01*
Y-1184970D01*
X-843507D01*
Y-1181637D01*
X-806852Y-1168308D02*
X-803520Y-1164976D01*
X-796855D01*
X-793523Y-1168308D01*
Y-1181637D01*
X-796855Y-1184970D01*
X-803520D01*
X-806852Y-1181637D01*
Y-1168308D01*
X-786858Y-1184970D02*
Y-1181637D01*
X-783526D01*
Y-1184970D01*
X-786858D01*
X-770197D02*
X-763532D01*
X-766865D01*
Y-1164976D01*
X-770197Y-1168308D01*
X-753536Y-1184970D02*
Y-1171641D01*
X-750203D01*
X-746871Y-1174973D01*
Y-1184970D01*
Y-1174973D01*
X-743539Y-1171641D01*
X-740207Y-1174973D01*
Y-1184970D01*
X-733542D02*
Y-1171641D01*
X-730210D01*
X-726878Y-1174973D01*
Y-1184970D01*
Y-1174973D01*
X-723545Y-1171641D01*
X-720213Y-1174973D01*
Y-1184970D01*
X-1350010Y-1245146D02*
X-1343345D01*
X-1346678D01*
Y-1225153D01*
X-1350010Y-1228485D01*
X-1333349D02*
X-1330016Y-1225153D01*
X-1323352D01*
X-1320020Y-1228485D01*
Y-1241814D01*
X-1323352Y-1245146D01*
X-1330016D01*
X-1333349Y-1241814D01*
Y-1228485D01*
X-1313355Y-1245146D02*
Y-1241814D01*
X-1310023D01*
Y-1245146D01*
X-1313355D01*
X-1263371Y-1228485D02*
X-1266703Y-1225153D01*
X-1273368D01*
X-1276700Y-1228485D01*
Y-1231817D01*
X-1273368Y-1235149D01*
X-1266703D01*
X-1263371Y-1238482D01*
Y-1241814D01*
X-1266703Y-1245146D01*
X-1273368D01*
X-1276700Y-1241814D01*
X-1253374Y-1228485D02*
Y-1231817D01*
X-1256707D01*
X-1250042D01*
X-1253374D01*
Y-1241814D01*
X-1250042Y-1245146D01*
X-1240045D02*
X-1233381D01*
X-1236713D01*
Y-1231817D01*
X-1240045D01*
X-1220052Y-1245146D02*
Y-1228485D01*
Y-1235149D01*
X-1223384D01*
X-1216720D01*
X-1220052D01*
Y-1228485D01*
X-1216720Y-1225153D01*
X-1203391Y-1245146D02*
Y-1228485D01*
Y-1235149D01*
X-1206723D01*
X-1200058D01*
X-1203391D01*
Y-1228485D01*
X-1200058Y-1225153D01*
X-1180065Y-1245146D02*
X-1186729D01*
X-1190062Y-1241814D01*
Y-1235149D01*
X-1186729Y-1231817D01*
X-1180065D01*
X-1176733Y-1235149D01*
Y-1238482D01*
X-1190062D01*
X-1170068Y-1245146D02*
Y-1231817D01*
X-1160071D01*
X-1156739Y-1235149D01*
Y-1245146D01*
X-1140078D02*
X-1146742D01*
X-1150074Y-1241814D01*
Y-1235149D01*
X-1146742Y-1231817D01*
X-1140078D01*
X-1136746Y-1235149D01*
Y-1238482D01*
X-1150074D01*
X-1130081Y-1231817D02*
Y-1245146D01*
Y-1238482D01*
X-1126749Y-1235149D01*
X-1123416Y-1231817D01*
X-1120084D01*
X-1170068Y-1255241D02*
X-1156739D01*
X-1163403D01*
Y-1275234D01*
X-1150074Y-1255241D02*
Y-1275234D01*
Y-1265238D01*
X-1146742Y-1261905D01*
X-1140078D01*
X-1136745Y-1265238D01*
Y-1275234D01*
X-1130081D02*
X-1123416D01*
X-1126749D01*
Y-1261905D01*
X-1130081D01*
X-1100090D02*
X-1110087D01*
X-1113420Y-1265238D01*
Y-1271902D01*
X-1110087Y-1275234D01*
X-1100090D01*
X-1093426D02*
Y-1255241D01*
Y-1268570D02*
X-1083429Y-1261905D01*
X-1093426Y-1268570D02*
X-1083429Y-1275234D01*
X-1073432D02*
Y-1261905D01*
X-1063436D01*
X-1060103Y-1265238D01*
Y-1275234D01*
X-1043442D02*
X-1050107D01*
X-1053439Y-1271902D01*
Y-1265238D01*
X-1050107Y-1261905D01*
X-1043442D01*
X-1040110Y-1265238D01*
Y-1268570D01*
X-1053439D01*
X-1033445Y-1275234D02*
X-1023448D01*
X-1020116Y-1271902D01*
X-1023448Y-1268570D01*
X-1030113D01*
X-1033445Y-1265238D01*
X-1030113Y-1261905D01*
X-1020116D01*
X-1013452Y-1275234D02*
X-1003455D01*
X-1000123Y-1271902D01*
X-1003455Y-1268570D01*
X-1010119D01*
X-1013452Y-1265238D01*
X-1010119Y-1261905D01*
X-1000123D01*
X-993458D02*
X-990126D01*
Y-1265238D01*
X-993458D01*
Y-1261905D01*
Y-1271902D02*
X-990126D01*
Y-1275234D01*
X-993458D01*
Y-1271902D01*
X-956803Y-1258573D02*
X-953471Y-1255241D01*
X-946807D01*
X-943474Y-1258573D01*
Y-1271902D01*
X-946807Y-1275234D01*
X-953471D01*
X-956803Y-1271902D01*
Y-1258573D01*
X-936810Y-1275234D02*
Y-1271902D01*
X-933478D01*
Y-1275234D01*
X-936810D01*
X-906820D02*
X-920148D01*
X-906820Y-1261905D01*
Y-1258573D01*
X-910152Y-1255241D01*
X-916816D01*
X-920148Y-1258573D01*
X-900155Y-1275234D02*
Y-1261905D01*
X-896823D01*
X-893491Y-1265238D01*
Y-1275234D01*
Y-1265238D01*
X-890158Y-1261905D01*
X-886826Y-1265238D01*
Y-1275234D01*
X-880161D02*
Y-1261905D01*
X-876829D01*
X-873497Y-1265238D01*
Y-1275234D01*
Y-1265238D01*
X-870165Y-1261905D01*
X-866832Y-1265238D01*
Y-1275234D01*
X-1170068Y-1305323D02*
Y-1285329D01*
X-1160071D01*
X-1156739Y-1288661D01*
Y-1295326D01*
X-1160071Y-1298658D01*
X-1170068D01*
X-1150074Y-1305323D02*
X-1143410D01*
X-1146742D01*
Y-1285329D01*
X-1150074D01*
X-1130081Y-1291994D02*
X-1123416D01*
X-1120084Y-1295326D01*
Y-1305323D01*
X-1130081D01*
X-1133413Y-1301991D01*
X-1130081Y-1298658D01*
X-1120084D01*
X-1100090Y-1291994D02*
X-1110087D01*
X-1113420Y-1295326D01*
Y-1301991D01*
X-1110087Y-1305323D01*
X-1100090D01*
X-1083429D02*
X-1090094D01*
X-1093426Y-1301991D01*
Y-1295326D01*
X-1090094Y-1291994D01*
X-1083429D01*
X-1080097Y-1295326D01*
Y-1298658D01*
X-1093426D01*
X-1073432Y-1305323D02*
Y-1291994D01*
X-1070100D01*
X-1066768Y-1295326D01*
Y-1305323D01*
Y-1295326D01*
X-1063436Y-1291994D01*
X-1060103Y-1295326D01*
Y-1305323D01*
X-1043442D02*
X-1050107D01*
X-1053439Y-1301991D01*
Y-1295326D01*
X-1050107Y-1291994D01*
X-1043442D01*
X-1040110Y-1295326D01*
Y-1298658D01*
X-1053439D01*
X-1033445Y-1305323D02*
Y-1291994D01*
X-1023448D01*
X-1020116Y-1295326D01*
Y-1305323D01*
X-1010119Y-1288661D02*
Y-1291994D01*
X-1013452D01*
X-1006787D01*
X-1010119D01*
Y-1301991D01*
X-1006787Y-1305323D01*
X-976797Y-1285329D02*
Y-1305323D01*
X-963468D01*
X-953471Y-1291994D02*
X-946807D01*
X-943474Y-1295326D01*
Y-1305323D01*
X-953471D01*
X-956803Y-1301991D01*
X-953471Y-1298658D01*
X-943474D01*
X-936810Y-1291994D02*
Y-1301991D01*
X-933478Y-1305323D01*
X-923481D01*
Y-1308655D01*
X-926813Y-1311987D01*
X-930145D01*
X-923481Y-1305323D02*
Y-1291994D01*
X-906820Y-1305323D02*
X-913484D01*
X-916816Y-1301991D01*
Y-1295326D01*
X-913484Y-1291994D01*
X-906820D01*
X-903487Y-1295326D01*
Y-1298658D01*
X-916816D01*
X-896823Y-1291994D02*
Y-1305323D01*
Y-1298658D01*
X-893490Y-1295326D01*
X-890158Y-1291994D01*
X-886826D01*
X-876829D02*
X-873497D01*
Y-1295326D01*
X-876829D01*
Y-1291994D01*
Y-1301991D02*
X-873497D01*
Y-1305323D01*
X-876829D01*
Y-1301991D01*
X-840174Y-1285329D02*
Y-1305323D01*
X-830178D01*
X-826845Y-1301991D01*
Y-1298658D01*
X-830178Y-1295326D01*
X-840174D01*
X-830178D01*
X-826845Y-1291994D01*
Y-1288661D01*
X-830178Y-1285329D01*
X-840174D01*
X-816849Y-1305323D02*
X-810184D01*
X-806852Y-1301991D01*
Y-1295326D01*
X-810184Y-1291994D01*
X-816849D01*
X-820181Y-1295326D01*
Y-1301991D01*
X-816849Y-1305323D01*
X-796855Y-1288661D02*
Y-1291994D01*
X-800187D01*
X-793523D01*
X-796855D01*
Y-1301991D01*
X-793523Y-1305323D01*
X-780194Y-1288661D02*
Y-1291994D01*
X-783526D01*
X-776861D01*
X-780194D01*
Y-1301991D01*
X-776861Y-1305323D01*
X-763532D02*
X-756868D01*
X-753536Y-1301991D01*
Y-1295326D01*
X-756868Y-1291994D01*
X-763532D01*
X-766865Y-1295326D01*
Y-1301991D01*
X-763532Y-1305323D01*
X-746871D02*
Y-1291994D01*
X-743539D01*
X-740207Y-1295326D01*
Y-1305323D01*
Y-1295326D01*
X-736874Y-1291994D01*
X-733542Y-1295326D01*
Y-1305323D01*
X-1170068Y-1322082D02*
Y-1342076D01*
X-1156739D01*
X-1146742D02*
X-1140078D01*
X-1136745Y-1338743D01*
Y-1332079D01*
X-1140078Y-1328746D01*
X-1146742D01*
X-1150074Y-1332079D01*
Y-1338743D01*
X-1146742Y-1342076D01*
X-1116752Y-1328746D02*
X-1126749D01*
X-1130081Y-1332079D01*
Y-1338743D01*
X-1126749Y-1342076D01*
X-1116752D01*
X-1106755Y-1328746D02*
X-1100090D01*
X-1096758Y-1332079D01*
Y-1342076D01*
X-1106755D01*
X-1110087Y-1338743D01*
X-1106755Y-1335411D01*
X-1096758D01*
X-1086761Y-1325414D02*
Y-1328746D01*
X-1090094D01*
X-1083429D01*
X-1086761D01*
Y-1338743D01*
X-1083429Y-1342076D01*
X-1073432D02*
X-1066768D01*
X-1070100D01*
Y-1328746D01*
X-1073432D01*
X-1053439Y-1342076D02*
X-1046774D01*
X-1043442Y-1338743D01*
Y-1332079D01*
X-1046774Y-1328746D01*
X-1053439D01*
X-1056771Y-1332079D01*
Y-1338743D01*
X-1053439Y-1342076D01*
X-1036778D02*
Y-1328746D01*
X-1026781D01*
X-1023449Y-1332079D01*
Y-1342076D01*
X-1016784Y-1328746D02*
X-1013452D01*
Y-1332079D01*
X-1016784D01*
Y-1328746D01*
Y-1338743D02*
X-1013452D01*
Y-1342076D01*
X-1016784D01*
Y-1338743D01*
X-980129Y-1342076D02*
Y-1322082D01*
X-973465Y-1328746D01*
X-966800Y-1322082D01*
Y-1342076D01*
X-950139D02*
X-956803D01*
X-960136Y-1338743D01*
Y-1332079D01*
X-956803Y-1328746D01*
X-950139D01*
X-946807Y-1332079D01*
Y-1335411D01*
X-960136D01*
X-940142Y-1342076D02*
Y-1328746D01*
X-930145D01*
X-926813Y-1332079D01*
Y-1342076D01*
X-916816Y-1325414D02*
Y-1328746D01*
X-920148D01*
X-913484D01*
X-916816D01*
Y-1338743D01*
X-913484Y-1342076D01*
X-903487D02*
X-896823D01*
X-900155D01*
Y-1328746D01*
X-903487D01*
X-883494Y-1342076D02*
X-876829D01*
X-873497Y-1338743D01*
Y-1332079D01*
X-876829Y-1328746D01*
X-883494D01*
X-886826Y-1332079D01*
Y-1338743D01*
X-883494Y-1342076D01*
X-866832D02*
Y-1328746D01*
X-856836D01*
X-853503Y-1332079D01*
Y-1342076D01*
X-836842D02*
X-843507D01*
X-846839Y-1338743D01*
Y-1332079D01*
X-843507Y-1328746D01*
X-836842D01*
X-833510Y-1332079D01*
Y-1335411D01*
X-846839D01*
X-813516Y-1322082D02*
Y-1342076D01*
X-823513D01*
X-826845Y-1338743D01*
Y-1332079D01*
X-823513Y-1328746D01*
X-813516D01*
X-783526Y-1342076D02*
X-776861D01*
X-773529Y-1338743D01*
Y-1332079D01*
X-776861Y-1328746D01*
X-783526D01*
X-786858Y-1332079D01*
Y-1338743D01*
X-783526Y-1342076D01*
X-766865D02*
Y-1328746D01*
X-756868D01*
X-753536Y-1332079D01*
Y-1342076D01*
X-726878Y-1322082D02*
Y-1342076D01*
X-713549D01*
X-703552Y-1328746D02*
X-696887D01*
X-693555Y-1332079D01*
Y-1342076D01*
X-703552D01*
X-706884Y-1338743D01*
X-703552Y-1335411D01*
X-693555D01*
X-686890Y-1328746D02*
Y-1338743D01*
X-683558Y-1342076D01*
X-673561D01*
Y-1345408D01*
X-676894Y-1348740D01*
X-680226D01*
X-673561Y-1342076D02*
Y-1328746D01*
X-656900Y-1342076D02*
X-663565D01*
X-666897Y-1338743D01*
Y-1332079D01*
X-663565Y-1328746D01*
X-656900D01*
X-653568Y-1332079D01*
Y-1335411D01*
X-666897D01*
X-646903Y-1328746D02*
Y-1342076D01*
Y-1335411D01*
X-643571Y-1332079D01*
X-640239Y-1328746D01*
X-636907D01*
X-606916Y-1342076D02*
Y-1338743D01*
X-603584D01*
Y-1342076D01*
X-606916D01*
X-576926Y-1325414D02*
X-580258Y-1322082D01*
X-586923D01*
X-590255Y-1325414D01*
Y-1338743D01*
X-586923Y-1342076D01*
X-580258D01*
X-576926Y-1338743D01*
Y-1332079D01*
X-583590D01*
X-570261Y-1342076D02*
Y-1322082D01*
X-563597Y-1328746D01*
X-556932Y-1322082D01*
Y-1342076D01*
X-536939D02*
X-550268D01*
X-536939Y-1328746D01*
Y-1325414D01*
X-540271Y-1322082D01*
X-546936D01*
X-550268Y-1325414D01*
X1554186Y-1337400D02*
Y-1304910D01*
X1575846Y-1337400D01*
Y-1304910D01*
X1608335D02*
X1586676D01*
Y-1321155D01*
X1597505D01*
X1586676D01*
Y-1337400D01*
X1640825Y-1310325D02*
X1635410Y-1304910D01*
X1624580D01*
X1619165Y-1310325D01*
Y-1331985D01*
X1624580Y-1337400D01*
X1635410D01*
X1640825Y-1331985D01*
X1673314Y-1304910D02*
X1651655D01*
Y-1321155D01*
X1662484D01*
X1651655D01*
Y-1337400D01*
X1684144Y-1304910D02*
Y-1337400D01*
X1705804D01*
X1716633Y-1304910D02*
X1738293Y-1337400D01*
Y-1304910D02*
X1716633Y-1337400D01*
X1749123Y-1321155D02*
X1770783D01*
X1781613Y-1310325D02*
X1787027Y-1304910D01*
X1797857D01*
X1803272Y-1310325D01*
Y-1331985D01*
X1797857Y-1337400D01*
X1787027D01*
X1781613Y-1331985D01*
Y-1310325D01*
X1835762Y-1304910D02*
X1824932Y-1310325D01*
X1814102Y-1321155D01*
Y-1331985D01*
X1819517Y-1337400D01*
X1830347D01*
X1835762Y-1331985D01*
Y-1326570D01*
X1830347Y-1321155D01*
X1814102D01*
X1846591Y-1337400D02*
X1857421D01*
X1852006D01*
Y-1304910D01*
X1846591Y-1310325D01*
X1873666D02*
X1879081Y-1304910D01*
X1889911D01*
X1895326Y-1310325D01*
Y-1315740D01*
X1889911Y-1321155D01*
X1884496D01*
X1889911D01*
X1895326Y-1326570D01*
Y-1331985D01*
X1889911Y-1337400D01*
X1879081D01*
X1873666Y-1331985D01*
X1906156Y-1337400D02*
X1916985D01*
X1911570D01*
Y-1304910D01*
X1906156Y-1310325D01*
X1933230Y-1331985D02*
X1938645Y-1337400D01*
X1949475D01*
X1954890Y-1331985D01*
Y-1310325D01*
X1949475Y-1304910D01*
X1938645D01*
X1933230Y-1310325D01*
Y-1315740D01*
X1938645Y-1321155D01*
X1954890D01*
X1965720D02*
X1987379D01*
X1998209Y-1310325D02*
X2003624Y-1304910D01*
X2014454D01*
X2019869Y-1310325D01*
Y-1331985D01*
X2014454Y-1337400D01*
X2003624D01*
X1998209Y-1331985D01*
Y-1310325D01*
X2030699D02*
X2036114Y-1304910D01*
X2046943D01*
X2052358Y-1310325D01*
Y-1331985D01*
X2046943Y-1337400D01*
X2036114D01*
X2030699Y-1331985D01*
Y-1310325D01*
X2063188Y-1337400D02*
X2074018D01*
X2068603D01*
Y-1304910D01*
X2063188Y-1310325D01*
D89*
X1551417Y-1266135D02*
Y-1226148D01*
X1578075Y-1266135D01*
Y-1226148D01*
X1618062D02*
X1591404D01*
Y-1246142D01*
X1604733D01*
X1591404D01*
Y-1266135D01*
X1658049Y-1232813D02*
X1651384Y-1226148D01*
X1638055D01*
X1631391Y-1232813D01*
Y-1259471D01*
X1638055Y-1266135D01*
X1651384D01*
X1658049Y-1259471D01*
X1738023Y-1226148D02*
X1711365D01*
Y-1246142D01*
X1724694D01*
X1711365D01*
Y-1266135D01*
X1751352D02*
X1764681D01*
X1758017D01*
Y-1226148D01*
X1751352D01*
X1804668Y-1266135D02*
X1791339D01*
X1784675Y-1259471D01*
Y-1246142D01*
X1791339Y-1239477D01*
X1804668D01*
X1811333Y-1246142D01*
Y-1252806D01*
X1784675D01*
X1824662Y-1239477D02*
X1851320Y-1266135D01*
X1837991Y-1252806D01*
X1851320Y-1239477D01*
X1824662Y-1266135D01*
M02*
