G04*
G04 #@! TF.GenerationSoftware,Altium Limited,Altium Designer,19.0.12 (326)*
G04*
G04 Layer_Color=8388736*
%FSLAX44Y44*%
%MOMM*%
G71*
G01*
G75*
%ADD13C,0.1270*%
%ADD14C,0.2000*%
%ADD16C,0.1778*%
%ADD18C,0.0127*%
%ADD19C,0.0130*%
%ADD53C,0.2540*%
D13*
X2334004Y-810541D02*
X2384804D01*
X2334004Y395959D02*
X2384804D01*
X2334004Y-207291D02*
X2384804D01*
X1749804Y948409D02*
Y999209D01*
X1114804Y948409D02*
Y999209D01*
X479804Y948409D02*
Y999209D01*
X-155196Y948409D02*
Y999209D01*
X-790196Y948409D02*
Y999209D01*
X-1425196Y395959D02*
X-1374396D01*
X-1425196Y-207291D02*
X-1374396D01*
X-1425196Y-810541D02*
X-1374396D01*
X-790196Y-1413791D02*
Y-1362991D01*
X-155196Y-1413791D02*
Y-1362991D01*
X1749804Y-1413791D02*
Y-1362991D01*
X479804Y-1413791D02*
Y-1362991D01*
X1114804Y-1413791D02*
Y-1362991D01*
X2238202Y-1363553D02*
Y-1287353D01*
X1462752Y-1363553D02*
Y-1058753D01*
X1349752Y-1363803D02*
Y-1059003D01*
X1190802Y-1112953D02*
X1462752D01*
X1190802Y-1166503D02*
X1462752D01*
X1190802Y-1225953D02*
X1462752D01*
X1190802Y-1363553D02*
Y-1058753D01*
X835202Y-1363553D02*
Y-1058753D01*
X1190802D01*
X1571802D01*
X1549102D02*
X2333802D01*
X1190802Y-1287353D02*
X2333802D01*
X835202Y-1363553D02*
X1190802D01*
X835202D02*
X1190802D01*
X1191004Y-1362991D02*
X2334004D01*
X1190802Y-1363553D02*
X2333802D01*
X1190802D02*
X2333802D01*
X-1425196Y-1413791D02*
X2384804D01*
X-1374396Y-1362991D02*
X2334004D01*
X-1425196Y-1413791D02*
Y999209D01*
X-1374396Y-1362991D02*
Y948409D01*
X-1425196Y999209D02*
X2384804D01*
X-1374396Y948409D02*
X2334004D01*
X1462752Y-1194153D02*
X2333764D01*
X2333802Y-1363553D02*
Y-1058753D01*
Y-1363553D02*
Y-1058753D01*
X2334004Y-1362991D02*
Y-1058191D01*
X2384804Y-1413791D02*
Y999209D01*
X2334004Y-1362991D02*
Y948409D01*
X1357502Y-1063126D02*
Y-1074553D01*
Y-1063126D02*
X1361311D01*
X1362943Y-1063670D01*
X1364032Y-1064758D01*
X1364576Y-1065847D01*
X1365120Y-1067479D01*
Y-1070200D01*
X1364576Y-1071833D01*
X1364032Y-1072921D01*
X1362943Y-1074009D01*
X1361311Y-1074553D01*
X1357502D01*
X1376384D02*
X1372031Y-1063126D01*
X1367678Y-1074553D01*
X1369310Y-1070744D02*
X1374752D01*
X1382860Y-1063126D02*
Y-1074553D01*
X1379051Y-1063126D02*
X1386669D01*
X1395104D02*
X1388030D01*
Y-1074553D01*
X1395104D01*
X1388030Y-1068568D02*
X1392383D01*
X1397552Y-1066935D02*
X1397008Y-1067479D01*
X1397552Y-1068023D01*
X1398097Y-1067479D01*
X1397552Y-1066935D01*
Y-1073465D02*
X1397008Y-1074009D01*
X1397552Y-1074553D01*
X1398097Y-1074009D01*
X1397552Y-1073465D01*
X1354502Y-1118126D02*
Y-1129553D01*
Y-1118126D02*
X1358311D01*
X1359943Y-1118670D01*
X1361032Y-1119758D01*
X1361576Y-1120847D01*
X1362120Y-1122479D01*
Y-1125200D01*
X1361576Y-1126833D01*
X1361032Y-1127921D01*
X1359943Y-1129009D01*
X1358311Y-1129553D01*
X1354502D01*
X1373384D02*
X1369031Y-1118126D01*
X1364678Y-1129553D01*
X1366310Y-1125744D02*
X1371752D01*
X1379860Y-1118126D02*
Y-1129553D01*
X1376051Y-1118126D02*
X1383669D01*
X1392104D02*
X1385030D01*
Y-1129553D01*
X1392104D01*
X1385030Y-1123568D02*
X1389383D01*
X1394552Y-1121935D02*
X1394008Y-1122479D01*
X1394552Y-1123023D01*
X1395097Y-1122479D01*
X1394552Y-1121935D01*
Y-1128465D02*
X1394008Y-1129009D01*
X1394552Y-1129553D01*
X1395097Y-1129009D01*
X1394552Y-1128465D01*
X1354502Y-1172126D02*
Y-1183553D01*
Y-1172126D02*
X1358311D01*
X1359943Y-1172670D01*
X1361032Y-1173758D01*
X1361576Y-1174847D01*
X1362120Y-1176479D01*
Y-1179200D01*
X1361576Y-1180833D01*
X1361032Y-1181921D01*
X1359943Y-1183009D01*
X1358311Y-1183553D01*
X1354502D01*
X1373384D02*
X1369031Y-1172126D01*
X1364678Y-1183553D01*
X1366310Y-1179744D02*
X1371752D01*
X1379860Y-1172126D02*
Y-1183553D01*
X1376051Y-1172126D02*
X1383669D01*
X1392104D02*
X1385030D01*
Y-1183553D01*
X1392104D01*
X1385030Y-1177568D02*
X1389383D01*
X1394552Y-1175935D02*
X1394008Y-1176479D01*
X1394552Y-1177023D01*
X1395097Y-1176479D01*
X1394552Y-1175935D01*
Y-1182465D02*
X1394008Y-1183009D01*
X1394552Y-1183553D01*
X1395097Y-1183009D01*
X1394552Y-1182465D01*
X1358502Y-1233126D02*
Y-1244553D01*
Y-1233126D02*
X1362311D01*
X1363943Y-1233670D01*
X1365032Y-1234758D01*
X1365576Y-1235847D01*
X1366120Y-1237479D01*
Y-1240200D01*
X1365576Y-1241833D01*
X1365032Y-1242921D01*
X1363943Y-1244009D01*
X1362311Y-1244553D01*
X1358502D01*
X1377384D02*
X1373031Y-1233126D01*
X1368678Y-1244553D01*
X1370310Y-1240744D02*
X1375752D01*
X1383860Y-1233126D02*
Y-1244553D01*
X1380051Y-1233126D02*
X1387669D01*
X1396104D02*
X1389030D01*
Y-1244553D01*
X1396104D01*
X1389030Y-1238568D02*
X1393383D01*
X1398553Y-1236935D02*
X1398008Y-1237479D01*
X1398553Y-1238023D01*
X1399097Y-1237479D01*
X1398553Y-1236935D01*
Y-1243465D02*
X1398008Y-1244009D01*
X1398553Y-1244553D01*
X1399097Y-1244009D01*
X1398553Y-1243465D01*
X1474502Y-1294326D02*
Y-1305753D01*
Y-1294326D02*
X1478311D01*
X1479943Y-1294870D01*
X1481032Y-1295958D01*
X1481576Y-1297047D01*
X1482120Y-1298679D01*
Y-1301400D01*
X1481576Y-1303033D01*
X1481032Y-1304121D01*
X1479943Y-1305209D01*
X1478311Y-1305753D01*
X1474502D01*
X1484678Y-1294326D02*
X1487398Y-1305753D01*
X1490119Y-1294326D02*
X1487398Y-1305753D01*
X1490119Y-1294326D02*
X1492840Y-1305753D01*
X1495561Y-1294326D02*
X1492840Y-1305753D01*
X1506009Y-1297047D02*
X1505465Y-1295958D01*
X1504377Y-1294870D01*
X1503288Y-1294326D01*
X1501111D01*
X1500023Y-1294870D01*
X1498935Y-1295958D01*
X1498391Y-1297047D01*
X1497847Y-1298679D01*
Y-1301400D01*
X1498391Y-1303033D01*
X1498935Y-1304121D01*
X1500023Y-1305209D01*
X1501111Y-1305753D01*
X1503288D01*
X1504377Y-1305209D01*
X1505465Y-1304121D01*
X1506009Y-1303033D01*
Y-1301400D01*
X1503288D02*
X1506009D01*
X1517600Y-1294326D02*
Y-1305753D01*
Y-1294326D02*
X1525218Y-1305753D01*
Y-1294326D02*
Y-1305753D01*
X1531639Y-1294326D02*
X1530551Y-1294870D01*
X1529463Y-1295958D01*
X1528919Y-1297047D01*
X1528374Y-1298679D01*
Y-1301400D01*
X1528919Y-1303033D01*
X1529463Y-1304121D01*
X1530551Y-1305209D01*
X1531639Y-1305753D01*
X1533816D01*
X1534904Y-1305209D01*
X1535993Y-1304121D01*
X1536537Y-1303033D01*
X1537081Y-1301400D01*
Y-1298679D01*
X1536537Y-1297047D01*
X1535993Y-1295958D01*
X1534904Y-1294870D01*
X1533816Y-1294326D01*
X1531639D01*
X1540292Y-1298135D02*
X1539747Y-1298679D01*
X1540292Y-1299223D01*
X1540836Y-1298679D01*
X1540292Y-1298135D01*
Y-1304665D02*
X1539747Y-1305209D01*
X1540292Y-1305753D01*
X1540836Y-1305209D01*
X1540292Y-1304665D01*
X1367520Y-1293958D02*
X1366432Y-1292870D01*
X1364799Y-1292326D01*
X1362623D01*
X1360990Y-1292870D01*
X1359902Y-1293958D01*
Y-1295047D01*
X1360446Y-1296135D01*
X1360990Y-1296679D01*
X1362078Y-1297223D01*
X1365343Y-1298312D01*
X1366432Y-1298856D01*
X1366976Y-1299400D01*
X1367520Y-1300488D01*
Y-1302121D01*
X1366432Y-1303209D01*
X1364799Y-1303753D01*
X1362623D01*
X1360990Y-1303209D01*
X1359902Y-1302121D01*
X1378240Y-1295047D02*
X1377696Y-1293958D01*
X1376608Y-1292870D01*
X1375519Y-1292326D01*
X1373343D01*
X1372254Y-1292870D01*
X1371166Y-1293958D01*
X1370622Y-1295047D01*
X1370078Y-1296679D01*
Y-1299400D01*
X1370622Y-1301033D01*
X1371166Y-1302121D01*
X1372254Y-1303209D01*
X1373343Y-1303753D01*
X1375519D01*
X1376608Y-1303209D01*
X1377696Y-1302121D01*
X1378240Y-1301033D01*
X1390157Y-1303753D02*
X1385804Y-1292326D01*
X1381451Y-1303753D01*
X1383083Y-1299944D02*
X1388525D01*
X1392824Y-1292326D02*
Y-1303753D01*
X1399354D01*
X1407680Y-1292326D02*
X1400605D01*
Y-1303753D01*
X1407680D01*
X1400605Y-1297767D02*
X1404959D01*
X1410128Y-1296135D02*
X1409584Y-1296679D01*
X1410128Y-1297223D01*
X1410673Y-1296679D01*
X1410128Y-1296135D01*
Y-1302665D02*
X1409584Y-1303209D01*
X1410128Y-1303753D01*
X1410673Y-1303209D01*
X1410128Y-1302665D01*
X2179745Y-1342326D02*
X2178657Y-1342870D01*
X2177569Y-1343958D01*
X2177025Y-1345047D01*
X2176480Y-1346679D01*
Y-1349400D01*
X2177025Y-1351033D01*
X2177569Y-1352121D01*
X2178657Y-1353209D01*
X2179745Y-1353753D01*
X2181922D01*
X2183011Y-1353209D01*
X2184099Y-1352121D01*
X2184643Y-1351033D01*
X2185187Y-1349400D01*
Y-1346679D01*
X2184643Y-1345047D01*
X2184099Y-1343958D01*
X2183011Y-1342870D01*
X2181922Y-1342326D01*
X2179745D01*
X2187854D02*
Y-1353753D01*
Y-1342326D02*
X2194928D01*
X2187854Y-1347767D02*
X2192207D01*
X2108120Y-1343958D02*
X2107032Y-1342870D01*
X2105399Y-1342326D01*
X2103223D01*
X2101590Y-1342870D01*
X2100502Y-1343958D01*
Y-1345047D01*
X2101046Y-1346135D01*
X2101590Y-1346679D01*
X2102678Y-1347223D01*
X2105943Y-1348312D01*
X2107032Y-1348856D01*
X2107576Y-1349400D01*
X2108120Y-1350488D01*
Y-1352121D01*
X2107032Y-1353209D01*
X2105399Y-1353753D01*
X2103223D01*
X2101590Y-1353209D01*
X2100502Y-1352121D01*
X2110678Y-1342326D02*
Y-1353753D01*
X2118296Y-1342326D02*
Y-1353753D01*
X2110678Y-1347767D02*
X2118296D01*
X2128526Y-1342326D02*
X2121452D01*
Y-1353753D01*
X2128526D01*
X2121452Y-1347767D02*
X2125806D01*
X2137505Y-1342326D02*
X2130431D01*
Y-1353753D01*
X2137505D01*
X2130431Y-1347767D02*
X2134784D01*
X2143219Y-1342326D02*
Y-1353753D01*
X2139410Y-1342326D02*
X2147028D01*
X2243902Y-1292126D02*
Y-1303553D01*
Y-1292126D02*
X2248799D01*
X2250432Y-1292670D01*
X2250976Y-1293214D01*
X2251520Y-1294303D01*
Y-1295391D01*
X2250976Y-1296479D01*
X2250432Y-1297023D01*
X2248799Y-1297567D01*
X2243902D01*
X2247711D02*
X2251520Y-1303553D01*
X2261152Y-1292126D02*
X2254078D01*
Y-1303553D01*
X2261152D01*
X2254078Y-1297567D02*
X2258431D01*
X2263056Y-1292126D02*
X2267410Y-1303553D01*
X2271763Y-1292126D02*
X2267410Y-1303553D01*
X2273777Y-1295935D02*
X2273232Y-1296479D01*
X2273777Y-1297023D01*
X2274321Y-1296479D01*
X2273777Y-1295935D01*
Y-1302465D02*
X2273232Y-1303009D01*
X2273777Y-1303553D01*
X2274321Y-1303009D01*
X2273777Y-1302465D01*
X1479713Y-1198914D02*
Y-1210341D01*
X1475904Y-1198914D02*
X1483523D01*
X1484883D02*
Y-1210341D01*
X1491087Y-1198914D02*
Y-1210341D01*
X1487278Y-1198914D02*
X1494896D01*
X1496256D02*
Y-1210341D01*
X1502786D01*
X1511112Y-1198914D02*
X1504038D01*
Y-1210341D01*
X1511112D01*
X1504038Y-1204356D02*
X1508391D01*
X1513561Y-1202723D02*
X1513017Y-1203267D01*
X1513561Y-1203811D01*
X1514105Y-1203267D01*
X1513561Y-1202723D01*
Y-1209253D02*
X1513017Y-1209797D01*
X1513561Y-1210341D01*
X1514105Y-1209797D01*
X1513561Y-1209253D01*
X1206120Y-1296758D02*
X1205032Y-1295670D01*
X1203399Y-1295126D01*
X1201223D01*
X1199590Y-1295670D01*
X1198502Y-1296758D01*
Y-1297847D01*
X1199046Y-1298935D01*
X1199590Y-1299479D01*
X1200678Y-1300023D01*
X1203943Y-1301112D01*
X1205032Y-1301656D01*
X1205576Y-1302200D01*
X1206120Y-1303288D01*
Y-1304921D01*
X1205032Y-1306009D01*
X1203399Y-1306553D01*
X1201223D01*
X1199590Y-1306009D01*
X1198502Y-1304921D01*
X1208678Y-1295126D02*
Y-1306553D01*
X1218690Y-1295126D02*
X1211072Y-1306553D01*
Y-1295126D02*
X1218690D01*
X1211072Y-1306553D02*
X1218690D01*
X1228322Y-1295126D02*
X1221248D01*
Y-1306553D01*
X1228322D01*
X1221248Y-1300567D02*
X1225601D01*
X1198502Y-1231326D02*
Y-1242753D01*
Y-1231326D02*
X1203399D01*
X1205032Y-1231870D01*
X1205576Y-1232414D01*
X1206120Y-1233503D01*
Y-1234591D01*
X1205576Y-1235679D01*
X1205032Y-1236223D01*
X1203399Y-1236768D01*
X1198502D01*
X1202311D02*
X1206120Y-1242753D01*
X1215752Y-1231326D02*
X1208678D01*
Y-1242753D01*
X1215752D01*
X1208678Y-1236768D02*
X1213031D01*
X1217656Y-1231326D02*
Y-1242753D01*
X1224186D01*
X1203664Y-1175377D02*
X1203120Y-1174288D01*
X1202032Y-1173200D01*
X1200943Y-1172656D01*
X1198767D01*
X1197678Y-1173200D01*
X1196590Y-1174288D01*
X1196046Y-1175377D01*
X1195502Y-1177009D01*
Y-1179730D01*
X1196046Y-1181363D01*
X1196590Y-1182451D01*
X1197678Y-1183539D01*
X1198767Y-1184083D01*
X1200943D01*
X1202032Y-1183539D01*
X1203120Y-1182451D01*
X1203664Y-1181363D01*
X1206875Y-1172656D02*
Y-1184083D01*
X1214493Y-1172656D02*
Y-1184083D01*
X1206875Y-1178098D02*
X1214493D01*
X1224724Y-1172656D02*
X1217649D01*
Y-1184083D01*
X1224724D01*
X1217649Y-1178098D02*
X1222003D01*
X1234791Y-1175377D02*
X1234247Y-1174288D01*
X1233158Y-1173200D01*
X1232070Y-1172656D01*
X1229893D01*
X1228805Y-1173200D01*
X1227716Y-1174288D01*
X1227172Y-1175377D01*
X1226628Y-1177009D01*
Y-1179730D01*
X1227172Y-1181363D01*
X1227716Y-1182451D01*
X1228805Y-1183539D01*
X1229893Y-1184083D01*
X1232070D01*
X1233158Y-1183539D01*
X1234247Y-1182451D01*
X1234791Y-1181363D01*
X1238001Y-1172656D02*
Y-1184083D01*
X1245620Y-1172656D02*
X1238001Y-1180274D01*
X1240722Y-1177553D02*
X1245620Y-1184083D01*
X1195502Y-1123642D02*
X1200399D01*
X1202032Y-1123098D01*
X1202576Y-1122553D01*
X1203120Y-1121465D01*
Y-1119833D01*
X1202576Y-1118744D01*
X1202032Y-1118200D01*
X1200399Y-1117656D01*
X1195502D01*
Y-1129083D01*
X1213840Y-1120377D02*
X1213296Y-1119288D01*
X1212208Y-1118200D01*
X1211119Y-1117656D01*
X1208943D01*
X1207854Y-1118200D01*
X1206766Y-1119288D01*
X1206222Y-1120377D01*
X1205678Y-1122009D01*
Y-1124730D01*
X1206222Y-1126363D01*
X1206766Y-1127451D01*
X1207854Y-1128539D01*
X1208943Y-1129083D01*
X1211119D01*
X1212208Y-1128539D01*
X1213296Y-1127451D01*
X1213840Y-1126363D01*
X1217051Y-1117656D02*
Y-1129083D01*
Y-1117656D02*
X1221948D01*
X1223581Y-1118200D01*
X1224125Y-1118744D01*
X1224669Y-1119833D01*
Y-1120921D01*
X1224125Y-1122009D01*
X1223581Y-1122553D01*
X1221948Y-1123098D01*
X1217051D02*
X1221948D01*
X1223581Y-1123642D01*
X1224125Y-1124186D01*
X1224669Y-1125274D01*
Y-1126907D01*
X1224125Y-1127995D01*
X1223581Y-1128539D01*
X1221948Y-1129083D01*
X1217051D01*
X1236206Y-1117656D02*
Y-1129083D01*
Y-1117656D02*
X1240015D01*
X1241647Y-1118200D01*
X1242736Y-1119288D01*
X1243280Y-1120377D01*
X1243824Y-1122009D01*
Y-1124730D01*
X1243280Y-1126363D01*
X1242736Y-1127451D01*
X1241647Y-1128539D01*
X1240015Y-1129083D01*
X1236206D01*
X1253456Y-1117656D02*
X1246381D01*
Y-1129083D01*
X1253456D01*
X1246381Y-1123098D02*
X1250735D01*
X1262979Y-1119288D02*
X1261890Y-1118200D01*
X1260258Y-1117656D01*
X1258081D01*
X1256449Y-1118200D01*
X1255360Y-1119288D01*
Y-1120377D01*
X1255904Y-1121465D01*
X1256449Y-1122009D01*
X1257537Y-1122553D01*
X1260802Y-1123642D01*
X1261890Y-1124186D01*
X1262434Y-1124730D01*
X1262979Y-1125818D01*
Y-1127451D01*
X1261890Y-1128539D01*
X1260258Y-1129083D01*
X1258081D01*
X1256449Y-1128539D01*
X1255360Y-1127451D01*
X1265536Y-1117656D02*
Y-1129083D01*
X1276093Y-1120377D02*
X1275549Y-1119288D01*
X1274461Y-1118200D01*
X1273372Y-1117656D01*
X1271196D01*
X1270107Y-1118200D01*
X1269019Y-1119288D01*
X1268475Y-1120377D01*
X1267931Y-1122009D01*
Y-1124730D01*
X1268475Y-1126363D01*
X1269019Y-1127451D01*
X1270107Y-1128539D01*
X1271196Y-1129083D01*
X1273372D01*
X1274461Y-1128539D01*
X1275549Y-1127451D01*
X1276093Y-1126363D01*
Y-1124730D01*
X1273372D02*
X1276093D01*
X1278705Y-1117656D02*
Y-1129083D01*
Y-1117656D02*
X1286323Y-1129083D01*
Y-1117656D02*
Y-1129083D01*
X1296554Y-1117656D02*
X1289480D01*
Y-1129083D01*
X1296554D01*
X1289480Y-1123098D02*
X1293833D01*
X1298458Y-1117656D02*
Y-1129083D01*
Y-1117656D02*
X1303356D01*
X1304988Y-1118200D01*
X1305533Y-1118744D01*
X1306077Y-1119833D01*
Y-1120921D01*
X1305533Y-1122009D01*
X1304988Y-1122553D01*
X1303356Y-1123098D01*
X1298458D01*
X1302268D02*
X1306077Y-1129083D01*
X1309178Y-1121465D02*
X1308634Y-1122009D01*
X1309178Y-1122553D01*
X1309723Y-1122009D01*
X1309178Y-1121465D01*
Y-1127995D02*
X1308634Y-1128539D01*
X1309178Y-1129083D01*
X1309723Y-1128539D01*
X1309178Y-1127995D01*
X1203576Y-1064726D02*
X1196502D01*
Y-1076153D01*
X1203576D01*
X1196502Y-1070167D02*
X1200855D01*
X1205480Y-1064726D02*
Y-1076153D01*
Y-1064726D02*
X1213099Y-1076153D01*
Y-1064726D02*
Y-1076153D01*
X1224417Y-1067447D02*
X1223873Y-1066358D01*
X1222785Y-1065270D01*
X1221697Y-1064726D01*
X1219520D01*
X1218432Y-1065270D01*
X1217343Y-1066358D01*
X1216799Y-1067447D01*
X1216255Y-1069079D01*
Y-1071800D01*
X1216799Y-1073432D01*
X1217343Y-1074521D01*
X1218432Y-1075609D01*
X1219520Y-1076153D01*
X1221697D01*
X1222785Y-1075609D01*
X1223873Y-1074521D01*
X1224417Y-1073432D01*
Y-1071800D01*
X1221697D02*
X1224417D01*
X1227030Y-1064726D02*
Y-1076153D01*
X1229424Y-1064726D02*
Y-1076153D01*
Y-1064726D02*
X1237042Y-1076153D01*
Y-1064726D02*
Y-1076153D01*
X1247273Y-1064726D02*
X1240199D01*
Y-1076153D01*
X1247273D01*
X1240199Y-1070167D02*
X1244552D01*
X1256252Y-1064726D02*
X1249177D01*
Y-1076153D01*
X1256252D01*
X1249177Y-1070167D02*
X1253531D01*
X1258156Y-1064726D02*
Y-1076153D01*
Y-1064726D02*
X1263054D01*
X1264686Y-1065270D01*
X1265230Y-1065814D01*
X1265774Y-1066902D01*
Y-1067991D01*
X1265230Y-1069079D01*
X1264686Y-1069623D01*
X1263054Y-1070167D01*
X1258156D01*
X1261965D02*
X1265774Y-1076153D01*
X1268876Y-1068535D02*
X1268332Y-1069079D01*
X1268876Y-1069623D01*
X1269420Y-1069079D01*
X1268876Y-1068535D01*
Y-1075065D02*
X1268332Y-1075609D01*
X1268876Y-1076153D01*
X1269420Y-1075609D01*
X1268876Y-1075065D01*
D14*
X860502Y-1322557D02*
Y-1340553D01*
Y-1322557D02*
X866500D01*
X869071Y-1323414D01*
X870785Y-1325128D01*
X871642Y-1326842D01*
X872499Y-1329413D01*
Y-1333698D01*
X871642Y-1336268D01*
X870785Y-1337982D01*
X869071Y-1339696D01*
X866500Y-1340553D01*
X860502D01*
X881669Y-1322557D02*
X879955Y-1323414D01*
X878241Y-1325128D01*
X877384Y-1326842D01*
X876527Y-1329413D01*
Y-1333698D01*
X877384Y-1336268D01*
X878241Y-1337982D01*
X879955Y-1339696D01*
X881669Y-1340553D01*
X885097D01*
X886810Y-1339696D01*
X888524Y-1337982D01*
X889381Y-1336268D01*
X890238Y-1333698D01*
Y-1329413D01*
X889381Y-1326842D01*
X888524Y-1325128D01*
X886810Y-1323414D01*
X885097Y-1322557D01*
X881669D01*
X908577D02*
Y-1340553D01*
Y-1322557D02*
X920574Y-1340553D01*
Y-1322557D02*
Y-1340553D01*
X930687Y-1322557D02*
X928973Y-1323414D01*
X927259Y-1325128D01*
X926402Y-1326842D01*
X925545Y-1329413D01*
Y-1333698D01*
X926402Y-1336268D01*
X927259Y-1337982D01*
X928973Y-1339696D01*
X930687Y-1340553D01*
X934115D01*
X935828Y-1339696D01*
X937542Y-1337982D01*
X938399Y-1336268D01*
X939256Y-1333698D01*
Y-1329413D01*
X938399Y-1326842D01*
X937542Y-1325128D01*
X935828Y-1323414D01*
X934115Y-1322557D01*
X930687D01*
X949454D02*
Y-1340553D01*
X943455Y-1322557D02*
X955453D01*
X983732Y-1325128D02*
X982019Y-1323414D01*
X979448Y-1322557D01*
X976020D01*
X973449Y-1323414D01*
X971735Y-1325128D01*
Y-1326842D01*
X972592Y-1328556D01*
X973449Y-1329413D01*
X975163Y-1330270D01*
X980305Y-1331984D01*
X982019Y-1332841D01*
X982876Y-1333698D01*
X983732Y-1335412D01*
Y-1337982D01*
X982019Y-1339696D01*
X979448Y-1340553D01*
X976020D01*
X973449Y-1339696D01*
X971735Y-1337982D01*
X1000614Y-1326842D02*
X999758Y-1325128D01*
X998044Y-1323414D01*
X996330Y-1322557D01*
X992902D01*
X991188Y-1323414D01*
X989474Y-1325128D01*
X988617Y-1326842D01*
X987760Y-1329413D01*
Y-1333698D01*
X988617Y-1336268D01*
X989474Y-1337982D01*
X991188Y-1339696D01*
X992902Y-1340553D01*
X996330D01*
X998044Y-1339696D01*
X999758Y-1337982D01*
X1000614Y-1336268D01*
X1019382Y-1340553D02*
X1012526Y-1322557D01*
X1005671Y-1340553D01*
X1008241Y-1334555D02*
X1016811D01*
X1023581Y-1322557D02*
Y-1340553D01*
X1033865D01*
X1046976Y-1322557D02*
X1035835D01*
Y-1340553D01*
X1046976D01*
X1035835Y-1331127D02*
X1042691D01*
X1064115Y-1322557D02*
Y-1340553D01*
Y-1322557D02*
X1070114D01*
X1072685Y-1323414D01*
X1074399Y-1325128D01*
X1075256Y-1326842D01*
X1076113Y-1329413D01*
Y-1333698D01*
X1075256Y-1336268D01*
X1074399Y-1337982D01*
X1072685Y-1339696D01*
X1070114Y-1340553D01*
X1064115D01*
X1080140Y-1322557D02*
Y-1340553D01*
Y-1322557D02*
X1087853D01*
X1090424Y-1323414D01*
X1091281Y-1324271D01*
X1092138Y-1325985D01*
Y-1327699D01*
X1091281Y-1329413D01*
X1090424Y-1330270D01*
X1087853Y-1331127D01*
X1080140D01*
X1086139D02*
X1092138Y-1340553D01*
X1109877D02*
X1103021Y-1322557D01*
X1096165Y-1340553D01*
X1098736Y-1334555D02*
X1107306D01*
X1114076Y-1322557D02*
X1118361Y-1340553D01*
X1122645Y-1322557D02*
X1118361Y-1340553D01*
X1122645Y-1322557D02*
X1126930Y-1340553D01*
X1131215Y-1322557D02*
X1126930Y-1340553D01*
X1134814Y-1322557D02*
Y-1340553D01*
X1138585Y-1322557D02*
Y-1340553D01*
Y-1322557D02*
X1150582Y-1340553D01*
Y-1322557D02*
Y-1340553D01*
X1168407Y-1326842D02*
X1167550Y-1325128D01*
X1165836Y-1323414D01*
X1164122Y-1322557D01*
X1160694D01*
X1158980Y-1323414D01*
X1157267Y-1325128D01*
X1156410Y-1326842D01*
X1155553Y-1329413D01*
Y-1333698D01*
X1156410Y-1336268D01*
X1157267Y-1337982D01*
X1158980Y-1339696D01*
X1160694Y-1340553D01*
X1164122D01*
X1165836Y-1339696D01*
X1167550Y-1337982D01*
X1168407Y-1336268D01*
Y-1333698D01*
X1164122D02*
X1168407D01*
X847216Y-1278125D02*
X846502Y-1278839D01*
X847216Y-1279553D01*
X847930Y-1278839D01*
X847216Y-1278125D01*
X851215Y-1264557D02*
X861213Y-1279553D01*
Y-1264557D02*
X851215Y-1279553D01*
X864569Y-1264557D02*
X874567Y-1279553D01*
Y-1264557D02*
X864569Y-1279553D01*
X877924Y-1264557D02*
X887921Y-1279553D01*
Y-1264557D02*
X877924Y-1279553D01*
X909488Y-1266699D02*
Y-1279553D01*
X903061Y-1273126D02*
X915915D01*
X920343Y-1281696D02*
X930341Y-1264557D01*
X931341Y-1273126D02*
X944195D01*
X961120Y-1278125D02*
X960406Y-1278839D01*
X961120Y-1279553D01*
X961834Y-1278839D01*
X961120Y-1278125D01*
X969404Y-1264557D02*
X967262Y-1265271D01*
X965833Y-1267413D01*
X965119Y-1270984D01*
Y-1273126D01*
X965833Y-1276697D01*
X967262Y-1278839D01*
X969404Y-1279553D01*
X970832D01*
X972975Y-1278839D01*
X974403Y-1276697D01*
X975117Y-1273126D01*
Y-1270984D01*
X974403Y-1267413D01*
X972975Y-1265271D01*
X970832Y-1264557D01*
X969404D01*
X982044D02*
X979902Y-1265271D01*
X979188Y-1266699D01*
Y-1268127D01*
X979902Y-1269556D01*
X981330Y-1270270D01*
X984186Y-1270984D01*
X986329Y-1271698D01*
X987757Y-1273126D01*
X988471Y-1274554D01*
Y-1276697D01*
X987757Y-1278125D01*
X987043Y-1278839D01*
X984901Y-1279553D01*
X982044D01*
X979902Y-1278839D01*
X979188Y-1278125D01*
X978473Y-1276697D01*
Y-1274554D01*
X979188Y-1273126D01*
X980616Y-1271698D01*
X982758Y-1270984D01*
X985615Y-1270270D01*
X987043Y-1269556D01*
X987757Y-1268127D01*
Y-1266699D01*
X987043Y-1265271D01*
X984901Y-1264557D01*
X982044D01*
X996113D02*
X993970Y-1265271D01*
X992542Y-1267413D01*
X991828Y-1270984D01*
Y-1273126D01*
X992542Y-1276697D01*
X993970Y-1278839D01*
X996113Y-1279553D01*
X997541D01*
X999683Y-1278839D01*
X1001111Y-1276697D01*
X1001826Y-1273126D01*
Y-1270984D01*
X1001111Y-1267413D01*
X999683Y-1265271D01*
X997541Y-1264557D01*
X996113D01*
X1005182D02*
Y-1279553D01*
Y-1264557D02*
X1010895Y-1279553D01*
X1016608Y-1264557D02*
X1010895Y-1279553D01*
X1016608Y-1264557D02*
Y-1279553D01*
X1020893Y-1264557D02*
Y-1279553D01*
Y-1264557D02*
X1026606Y-1279553D01*
X1032319Y-1264557D02*
X1026606Y-1279553D01*
X1032319Y-1264557D02*
Y-1279553D01*
X850216Y-1237125D02*
X849502Y-1237839D01*
X850216Y-1238553D01*
X850930Y-1237839D01*
X850216Y-1237125D01*
X854215Y-1223557D02*
X864213Y-1238553D01*
Y-1223557D02*
X854215Y-1238553D01*
X867569Y-1223557D02*
X877567Y-1238553D01*
Y-1223557D02*
X867569Y-1238553D01*
X899134Y-1225699D02*
Y-1238553D01*
X892707Y-1232126D02*
X905561D01*
X909989Y-1240696D02*
X919987Y-1223557D01*
X920986Y-1232126D02*
X933841D01*
X950766Y-1237125D02*
X950052Y-1237839D01*
X950766Y-1238553D01*
X951480Y-1237839D01*
X950766Y-1237125D01*
X954765Y-1226413D02*
X956193Y-1225699D01*
X958335Y-1223557D01*
Y-1238553D01*
X966477Y-1227127D02*
Y-1226413D01*
X967191Y-1224985D01*
X967905Y-1224271D01*
X969333Y-1223557D01*
X972190D01*
X973618Y-1224271D01*
X974332Y-1224985D01*
X975046Y-1226413D01*
Y-1227841D01*
X974332Y-1229270D01*
X972904Y-1231412D01*
X965762Y-1238553D01*
X975760D01*
X989115Y-1223557D02*
X981973Y-1238553D01*
X979117Y-1223557D02*
X989115D01*
X992471D02*
Y-1238553D01*
Y-1223557D02*
X998184Y-1238553D01*
X1003897Y-1223557D02*
X998184Y-1238553D01*
X1003897Y-1223557D02*
Y-1238553D01*
X1008182Y-1223557D02*
Y-1238553D01*
Y-1223557D02*
X1013895Y-1238553D01*
X1019608Y-1223557D02*
X1013895Y-1238553D01*
X1019608Y-1223557D02*
Y-1238553D01*
X1068929Y-1226699D02*
Y-1239553D01*
X1062502Y-1233126D02*
X1075356D01*
X1079784Y-1241696D02*
X1089782Y-1224557D01*
X1090781Y-1233126D02*
X1103636D01*
X1076928Y-1195553D02*
X1071215Y-1180557D01*
X1065502Y-1195553D01*
X1067644Y-1190554D02*
X1074786D01*
X1080427Y-1180557D02*
Y-1195553D01*
Y-1180557D02*
X1090425Y-1195553D01*
Y-1180557D02*
Y-1195553D01*
X1105279Y-1184127D02*
X1104565Y-1182699D01*
X1103137Y-1181271D01*
X1101708Y-1180557D01*
X1098852D01*
X1097423Y-1181271D01*
X1095995Y-1182699D01*
X1095281Y-1184127D01*
X1094567Y-1186270D01*
Y-1189840D01*
X1095281Y-1191983D01*
X1095995Y-1193411D01*
X1097423Y-1194839D01*
X1098852Y-1195553D01*
X1101708D01*
X1103137Y-1194839D01*
X1104565Y-1193411D01*
X1105279Y-1191983D01*
Y-1189840D01*
X1101708D02*
X1105279D01*
X1108707Y-1180557D02*
Y-1191268D01*
X1109421Y-1193411D01*
X1110849Y-1194839D01*
X1112992Y-1195553D01*
X1114420D01*
X1116562Y-1194839D01*
X1117990Y-1193411D01*
X1118705Y-1191268D01*
Y-1180557D01*
X1122847D02*
Y-1195553D01*
X1131416D01*
X1144485D02*
X1138772Y-1180557D01*
X1133059Y-1195553D01*
X1135201Y-1190554D02*
X1142342D01*
X1147984Y-1180557D02*
Y-1195553D01*
Y-1180557D02*
X1154411D01*
X1156554Y-1181271D01*
X1157268Y-1181985D01*
X1157982Y-1183413D01*
Y-1184841D01*
X1157268Y-1186270D01*
X1156554Y-1186984D01*
X1154411Y-1187698D01*
X1147984D01*
X1152983D02*
X1157982Y-1195553D01*
X861502Y-1183557D02*
Y-1198553D01*
Y-1183557D02*
X866501D01*
X868643Y-1184271D01*
X870071Y-1185699D01*
X870786Y-1187127D01*
X871500Y-1189270D01*
Y-1192840D01*
X870786Y-1194983D01*
X870071Y-1196411D01*
X868643Y-1197839D01*
X866501Y-1198553D01*
X861502D01*
X884140Y-1183557D02*
X874856D01*
Y-1198553D01*
X884140D01*
X874856Y-1190698D02*
X880569D01*
X897351Y-1187127D02*
X896637Y-1185699D01*
X895209Y-1184271D01*
X893781Y-1183557D01*
X890924D01*
X889496Y-1184271D01*
X888067Y-1185699D01*
X887353Y-1187127D01*
X886639Y-1189270D01*
Y-1192840D01*
X887353Y-1194983D01*
X888067Y-1196411D01*
X889496Y-1197839D01*
X890924Y-1198553D01*
X893781D01*
X895209Y-1197839D01*
X896637Y-1196411D01*
X897351Y-1194983D01*
X901565Y-1183557D02*
Y-1198553D01*
X904707Y-1183557D02*
Y-1198553D01*
Y-1183557D02*
X910420Y-1198553D01*
X916133Y-1183557D02*
X910420Y-1198553D01*
X916133Y-1183557D02*
Y-1198553D01*
X931844D02*
X926131Y-1183557D01*
X920418Y-1198553D01*
X922560Y-1193554D02*
X929701D01*
X935343Y-1183557D02*
Y-1198553D01*
X943913D01*
X955553Y-1185699D02*
X954125Y-1184271D01*
X951982Y-1183557D01*
X949126D01*
X946983Y-1184271D01*
X945555Y-1185699D01*
Y-1187127D01*
X946269Y-1188556D01*
X946983Y-1189270D01*
X948412Y-1189984D01*
X952697Y-1191412D01*
X954125Y-1192126D01*
X954839Y-1192840D01*
X955553Y-1194268D01*
Y-1196411D01*
X954125Y-1197839D01*
X951982Y-1198553D01*
X949126D01*
X946983Y-1197839D01*
X945555Y-1196411D01*
X947501Y-1140556D02*
Y-1155553D01*
X942502Y-1140556D02*
X952500D01*
X958570D02*
X957141Y-1141271D01*
X955713Y-1142699D01*
X954999Y-1144127D01*
X954285Y-1146270D01*
Y-1149840D01*
X954999Y-1151983D01*
X955713Y-1153411D01*
X957141Y-1154839D01*
X958570Y-1155553D01*
X961426D01*
X962855Y-1154839D01*
X964283Y-1153411D01*
X964997Y-1151983D01*
X965711Y-1149840D01*
Y-1146270D01*
X964997Y-1144127D01*
X964283Y-1142699D01*
X962855Y-1141271D01*
X961426Y-1140556D01*
X958570D01*
X969210D02*
Y-1155553D01*
X977780D01*
X988706Y-1140556D02*
X979422D01*
Y-1155553D01*
X988706D01*
X979422Y-1147698D02*
X985135D01*
X991206Y-1140556D02*
Y-1155553D01*
Y-1140556D02*
X997633D01*
X999775Y-1141271D01*
X1000489Y-1141985D01*
X1001203Y-1143413D01*
Y-1144841D01*
X1000489Y-1146270D01*
X999775Y-1146984D01*
X997633Y-1147698D01*
X991206D01*
X996205D02*
X1001203Y-1155553D01*
X1015986D02*
X1010273Y-1140556D01*
X1004560Y-1155553D01*
X1006702Y-1150554D02*
X1013844D01*
X1019485Y-1140556D02*
Y-1155553D01*
Y-1140556D02*
X1029483Y-1155553D01*
Y-1140556D02*
Y-1155553D01*
X1044337Y-1144127D02*
X1043623Y-1142699D01*
X1042195Y-1141271D01*
X1040766Y-1140556D01*
X1037910D01*
X1036482Y-1141271D01*
X1035053Y-1142699D01*
X1034339Y-1144127D01*
X1033625Y-1146270D01*
Y-1149840D01*
X1034339Y-1151983D01*
X1035053Y-1153411D01*
X1036482Y-1154839D01*
X1037910Y-1155553D01*
X1040766D01*
X1042195Y-1154839D01*
X1043623Y-1153411D01*
X1044337Y-1151983D01*
X1057834Y-1140556D02*
X1048550D01*
Y-1155553D01*
X1057834D01*
X1048550Y-1147698D02*
X1054264D01*
X1070331Y-1142699D02*
X1068903Y-1141271D01*
X1066761Y-1140556D01*
X1063904D01*
X1061762Y-1141271D01*
X1060334Y-1142699D01*
Y-1144127D01*
X1061048Y-1145555D01*
X1061762Y-1146270D01*
X1063190Y-1146984D01*
X1067475Y-1148412D01*
X1068903Y-1149126D01*
X1069617Y-1149840D01*
X1070331Y-1151268D01*
Y-1153411D01*
X1068903Y-1154839D01*
X1066761Y-1155553D01*
X1063904D01*
X1061762Y-1154839D01*
X1060334Y-1153411D01*
X891502Y-1108557D02*
Y-1123553D01*
Y-1108557D02*
X896501D01*
X898643Y-1109271D01*
X900071Y-1110699D01*
X900785Y-1112127D01*
X901500Y-1114270D01*
Y-1117840D01*
X900785Y-1119983D01*
X900071Y-1121411D01*
X898643Y-1122839D01*
X896501Y-1123553D01*
X891502D01*
X904856Y-1108557D02*
Y-1123553D01*
X907998Y-1108557D02*
Y-1123553D01*
Y-1108557D02*
X913711Y-1123553D01*
X919424Y-1108557D02*
X913711Y-1123553D01*
X919424Y-1108557D02*
Y-1123553D01*
X932993Y-1108557D02*
X923709D01*
Y-1123553D01*
X932993D01*
X923709Y-1115698D02*
X929422D01*
X935492Y-1108557D02*
Y-1123553D01*
Y-1108557D02*
X945490Y-1123553D01*
Y-1108557D02*
Y-1123553D01*
X959630Y-1110699D02*
X958202Y-1109271D01*
X956059Y-1108557D01*
X953203D01*
X951060Y-1109271D01*
X949632Y-1110699D01*
Y-1112127D01*
X950346Y-1113556D01*
X951060Y-1114270D01*
X952489Y-1114984D01*
X956773Y-1116412D01*
X958202Y-1117126D01*
X958916Y-1117840D01*
X959630Y-1119268D01*
Y-1121411D01*
X958202Y-1122839D01*
X956059Y-1123553D01*
X953203D01*
X951060Y-1122839D01*
X949632Y-1121411D01*
X962986Y-1108557D02*
Y-1123553D01*
X970413Y-1108557D02*
X968985Y-1109271D01*
X967557Y-1110699D01*
X966843Y-1112127D01*
X966129Y-1114270D01*
Y-1117840D01*
X966843Y-1119983D01*
X967557Y-1121411D01*
X968985Y-1122839D01*
X970413Y-1123553D01*
X973270D01*
X974698Y-1122839D01*
X976126Y-1121411D01*
X976841Y-1119983D01*
X977555Y-1117840D01*
Y-1114270D01*
X976841Y-1112127D01*
X976126Y-1110699D01*
X974698Y-1109271D01*
X973270Y-1108557D01*
X970413D01*
X981054D02*
Y-1123553D01*
Y-1108557D02*
X991052Y-1123553D01*
Y-1108557D02*
Y-1123553D01*
X1005192Y-1110699D02*
X1003763Y-1109271D01*
X1001621Y-1108557D01*
X998764D01*
X996622Y-1109271D01*
X995194Y-1110699D01*
Y-1112127D01*
X995908Y-1113556D01*
X996622Y-1114270D01*
X998050Y-1114984D01*
X1002335Y-1116412D01*
X1003763Y-1117126D01*
X1004477Y-1117840D01*
X1005192Y-1119268D01*
Y-1121411D01*
X1003763Y-1122839D01*
X1001621Y-1123553D01*
X998764D01*
X996622Y-1122839D01*
X995194Y-1121411D01*
X1031757Y-1123553D02*
X1026044Y-1108557D01*
X1020331Y-1123553D01*
X1022474Y-1118554D02*
X1029615D01*
X1035257Y-1108557D02*
Y-1123553D01*
Y-1108557D02*
X1041684D01*
X1043826Y-1109271D01*
X1044540Y-1109985D01*
X1045254Y-1111413D01*
Y-1112841D01*
X1044540Y-1114270D01*
X1043826Y-1114984D01*
X1041684Y-1115698D01*
X1035257D01*
X1040256D02*
X1045254Y-1123553D01*
X1057895Y-1108557D02*
X1048611D01*
Y-1123553D01*
X1057895D01*
X1048611Y-1115698D02*
X1054324D01*
X1072177Y-1108557D02*
Y-1123553D01*
X1075319Y-1108557D02*
Y-1123553D01*
Y-1108557D02*
X1085317Y-1123553D01*
Y-1108557D02*
Y-1123553D01*
X1101243Y-1108557D02*
Y-1123553D01*
Y-1108557D02*
X1106955Y-1123553D01*
X1112669Y-1108557D02*
X1106955Y-1123553D01*
X1112669Y-1108557D02*
Y-1123553D01*
X1116953Y-1108557D02*
Y-1123553D01*
Y-1108557D02*
X1122666Y-1123553D01*
X1128380Y-1108557D02*
X1122666Y-1123553D01*
X1128380Y-1108557D02*
Y-1123553D01*
X860502Y-1076557D02*
Y-1087269D01*
X861216Y-1089411D01*
X862644Y-1090839D01*
X864787Y-1091553D01*
X866215D01*
X868357Y-1090839D01*
X869785Y-1089411D01*
X870500Y-1087269D01*
Y-1076557D01*
X874641D02*
Y-1091553D01*
Y-1076557D02*
X884639Y-1091553D01*
Y-1076557D02*
Y-1091553D01*
X888781Y-1076557D02*
Y-1091553D01*
X897351D01*
X908277Y-1076557D02*
X898994D01*
Y-1091553D01*
X908277D01*
X898994Y-1083698D02*
X904706D01*
X920775Y-1078699D02*
X919346Y-1077271D01*
X917204Y-1076557D01*
X914347D01*
X912205Y-1077271D01*
X910777Y-1078699D01*
Y-1080127D01*
X911491Y-1081555D01*
X912205Y-1082270D01*
X913633Y-1082984D01*
X917918Y-1084412D01*
X919346Y-1085126D01*
X920060Y-1085840D01*
X920775Y-1087269D01*
Y-1089411D01*
X919346Y-1090839D01*
X917204Y-1091553D01*
X914347D01*
X912205Y-1090839D01*
X910777Y-1089411D01*
X934129Y-1078699D02*
X932701Y-1077271D01*
X930558Y-1076557D01*
X927702D01*
X925559Y-1077271D01*
X924131Y-1078699D01*
Y-1080127D01*
X924845Y-1081555D01*
X925559Y-1082270D01*
X926988Y-1082984D01*
X931272Y-1084412D01*
X932701Y-1085126D01*
X933415Y-1085840D01*
X934129Y-1087269D01*
Y-1089411D01*
X932701Y-1090839D01*
X930558Y-1091553D01*
X927702D01*
X925559Y-1090839D01*
X924131Y-1089411D01*
X953553Y-1076557D02*
X952125Y-1077271D01*
X950697Y-1078699D01*
X949983Y-1080127D01*
X949268Y-1082270D01*
Y-1085840D01*
X949983Y-1087983D01*
X950697Y-1089411D01*
X952125Y-1090839D01*
X953553Y-1091553D01*
X956410D01*
X957838Y-1090839D01*
X959266Y-1089411D01*
X959980Y-1087983D01*
X960695Y-1085840D01*
Y-1082270D01*
X959980Y-1080127D01*
X959266Y-1078699D01*
X957838Y-1077271D01*
X956410Y-1076557D01*
X953553D01*
X969193D02*
Y-1091553D01*
X964194Y-1076557D02*
X974192D01*
X975977D02*
Y-1091553D01*
X985975Y-1076557D02*
Y-1091553D01*
X975977Y-1083698D02*
X985975D01*
X999400Y-1076557D02*
X990117D01*
Y-1091553D01*
X999400D01*
X990117Y-1083698D02*
X995830D01*
X1001900Y-1076557D02*
Y-1091553D01*
Y-1076557D02*
X1008327D01*
X1010470Y-1077271D01*
X1011184Y-1077985D01*
X1011898Y-1079413D01*
Y-1080841D01*
X1011184Y-1082270D01*
X1010470Y-1082984D01*
X1008327Y-1083698D01*
X1001900D01*
X1006899D02*
X1011898Y-1091553D01*
X1015254Y-1076557D02*
X1018825Y-1091553D01*
X1022396Y-1076557D02*
X1018825Y-1091553D01*
X1022396Y-1076557D02*
X1025966Y-1091553D01*
X1029537Y-1076557D02*
X1025966Y-1091553D01*
X1032536Y-1076557D02*
Y-1091553D01*
X1045676Y-1078699D02*
X1044248Y-1077271D01*
X1042106Y-1076557D01*
X1039249D01*
X1037107Y-1077271D01*
X1035678Y-1078699D01*
Y-1080127D01*
X1036393Y-1081555D01*
X1037107Y-1082270D01*
X1038535Y-1082984D01*
X1042820Y-1084412D01*
X1044248Y-1085126D01*
X1044962Y-1085840D01*
X1045676Y-1087269D01*
Y-1089411D01*
X1044248Y-1090839D01*
X1042106Y-1091553D01*
X1039249D01*
X1037107Y-1090839D01*
X1035678Y-1089411D01*
X1058316Y-1076557D02*
X1049033D01*
Y-1091553D01*
X1058316D01*
X1049033Y-1083698D02*
X1054746D01*
X1082597Y-1078699D02*
X1081169Y-1077271D01*
X1079026Y-1076557D01*
X1076170D01*
X1074027Y-1077271D01*
X1072599Y-1078699D01*
Y-1080127D01*
X1073313Y-1081555D01*
X1074027Y-1082270D01*
X1075456Y-1082984D01*
X1079740Y-1084412D01*
X1081169Y-1085126D01*
X1081883Y-1085840D01*
X1082597Y-1087269D01*
Y-1089411D01*
X1081169Y-1090839D01*
X1079026Y-1091553D01*
X1076170D01*
X1074027Y-1090839D01*
X1072599Y-1089411D01*
X1085953Y-1084412D02*
X1092381D01*
X1094523Y-1083698D01*
X1095237Y-1082984D01*
X1095951Y-1081555D01*
Y-1079413D01*
X1095237Y-1077985D01*
X1094523Y-1077271D01*
X1092381Y-1076557D01*
X1085953D01*
Y-1091553D01*
X1108591Y-1076557D02*
X1099308D01*
Y-1091553D01*
X1108591D01*
X1099308Y-1083698D02*
X1105021D01*
X1121803Y-1080127D02*
X1121089Y-1078699D01*
X1119660Y-1077271D01*
X1118232Y-1076557D01*
X1115376D01*
X1113947Y-1077271D01*
X1112519Y-1078699D01*
X1111805Y-1080127D01*
X1111091Y-1082270D01*
Y-1085840D01*
X1111805Y-1087983D01*
X1112519Y-1089411D01*
X1113947Y-1090839D01*
X1115376Y-1091553D01*
X1118232D01*
X1119660Y-1090839D01*
X1121089Y-1089411D01*
X1121803Y-1087983D01*
X1126016Y-1076557D02*
Y-1091553D01*
X1129158Y-1076557D02*
Y-1091553D01*
Y-1076557D02*
X1138442D01*
X1129158Y-1083698D02*
X1134871D01*
X1140156Y-1076557D02*
Y-1091553D01*
X1152582Y-1076557D02*
X1143298D01*
Y-1091553D01*
X1152582D01*
X1143298Y-1083698D02*
X1149011D01*
X1155081Y-1076557D02*
Y-1091553D01*
Y-1076557D02*
X1160080D01*
X1162223Y-1077271D01*
X1163651Y-1078699D01*
X1164365Y-1080127D01*
X1165079Y-1082270D01*
Y-1085840D01*
X1164365Y-1087983D01*
X1163651Y-1089411D01*
X1162223Y-1090839D01*
X1160080Y-1091553D01*
X1155081D01*
X1363648Y-1087145D02*
X1361506Y-1087859D01*
X1360078Y-1090001D01*
X1359364Y-1093572D01*
Y-1095714D01*
X1360078Y-1099285D01*
X1361506Y-1101427D01*
X1363648Y-1102141D01*
X1365077D01*
X1367219Y-1101427D01*
X1368647Y-1099285D01*
X1369362Y-1095714D01*
Y-1093572D01*
X1368647Y-1090001D01*
X1367219Y-1087859D01*
X1365077Y-1087145D01*
X1363648D01*
X1381288Y-1089287D02*
X1380573Y-1087859D01*
X1378431Y-1087145D01*
X1377003D01*
X1374860Y-1087859D01*
X1373432Y-1090001D01*
X1372718Y-1093572D01*
Y-1097142D01*
X1373432Y-1099999D01*
X1374860Y-1101427D01*
X1377003Y-1102141D01*
X1377717D01*
X1379859Y-1101427D01*
X1381288Y-1099999D01*
X1382002Y-1097857D01*
Y-1097142D01*
X1381288Y-1095000D01*
X1379859Y-1093572D01*
X1377717Y-1092858D01*
X1377003D01*
X1374860Y-1093572D01*
X1373432Y-1095000D01*
X1372718Y-1097142D01*
X1385287Y-1104284D02*
X1395284Y-1087145D01*
X1396284Y-1090001D02*
X1397713Y-1089287D01*
X1399855Y-1087145D01*
Y-1102141D01*
X1408710Y-1087145D02*
X1416566D01*
X1412281Y-1092858D01*
X1414423D01*
X1415851Y-1093572D01*
X1416566Y-1094286D01*
X1417280Y-1096428D01*
Y-1097857D01*
X1416566Y-1099999D01*
X1415137Y-1101427D01*
X1412995Y-1102141D01*
X1410853D01*
X1408710Y-1101427D01*
X1407996Y-1100713D01*
X1407282Y-1099285D01*
X1420636Y-1104284D02*
X1430634Y-1087145D01*
X1431634Y-1090001D02*
X1433062Y-1089287D01*
X1435204Y-1087145D01*
Y-1102141D01*
X1451915Y-1092143D02*
X1451201Y-1094286D01*
X1449773Y-1095714D01*
X1447630Y-1096428D01*
X1446916D01*
X1444774Y-1095714D01*
X1443346Y-1094286D01*
X1442632Y-1092143D01*
Y-1091429D01*
X1443346Y-1089287D01*
X1444774Y-1087859D01*
X1446916Y-1087145D01*
X1447630D01*
X1449773Y-1087859D01*
X1451201Y-1089287D01*
X1451915Y-1092143D01*
Y-1095714D01*
X1451201Y-1099285D01*
X1449773Y-1101427D01*
X1447630Y-1102141D01*
X1446202D01*
X1444060Y-1101427D01*
X1443346Y-1099999D01*
X1363648Y-1141645D02*
X1361506Y-1142359D01*
X1360078Y-1144501D01*
X1359364Y-1148072D01*
Y-1150214D01*
X1360078Y-1153785D01*
X1361506Y-1155927D01*
X1363648Y-1156641D01*
X1365077D01*
X1367219Y-1155927D01*
X1368647Y-1153785D01*
X1369362Y-1150214D01*
Y-1148072D01*
X1368647Y-1144501D01*
X1367219Y-1142359D01*
X1365077Y-1141645D01*
X1363648D01*
X1381288Y-1143787D02*
X1380573Y-1142359D01*
X1378431Y-1141645D01*
X1377003D01*
X1374860Y-1142359D01*
X1373432Y-1144501D01*
X1372718Y-1148072D01*
Y-1151642D01*
X1373432Y-1154499D01*
X1374860Y-1155927D01*
X1377003Y-1156641D01*
X1377717D01*
X1379859Y-1155927D01*
X1381288Y-1154499D01*
X1382002Y-1152356D01*
Y-1151642D01*
X1381288Y-1149500D01*
X1379859Y-1148072D01*
X1377717Y-1147358D01*
X1377003D01*
X1374860Y-1148072D01*
X1373432Y-1149500D01*
X1372718Y-1151642D01*
X1385287Y-1158784D02*
X1395284Y-1141645D01*
X1396284Y-1144501D02*
X1397713Y-1143787D01*
X1399855Y-1141645D01*
Y-1156641D01*
X1408710Y-1141645D02*
X1416566D01*
X1412281Y-1147358D01*
X1414423D01*
X1415851Y-1148072D01*
X1416566Y-1148786D01*
X1417280Y-1150928D01*
Y-1152356D01*
X1416566Y-1154499D01*
X1415137Y-1155927D01*
X1412995Y-1156641D01*
X1410853D01*
X1408710Y-1155927D01*
X1407996Y-1155213D01*
X1407282Y-1153785D01*
X1420636Y-1158784D02*
X1430634Y-1141645D01*
X1431634Y-1144501D02*
X1433062Y-1143787D01*
X1435204Y-1141645D01*
Y-1156641D01*
X1451915Y-1146644D02*
X1451201Y-1148786D01*
X1449773Y-1150214D01*
X1447630Y-1150928D01*
X1446916D01*
X1444774Y-1150214D01*
X1443346Y-1148786D01*
X1442632Y-1146644D01*
Y-1145929D01*
X1443346Y-1143787D01*
X1444774Y-1142359D01*
X1446916Y-1141645D01*
X1447630D01*
X1449773Y-1142359D01*
X1451201Y-1143787D01*
X1451915Y-1146644D01*
Y-1150214D01*
X1451201Y-1153785D01*
X1449773Y-1155927D01*
X1447630Y-1156641D01*
X1446202D01*
X1444060Y-1155927D01*
X1443346Y-1154499D01*
D16*
X2365751Y-518360D02*
X2364904Y-516667D01*
X2363212Y-514974D01*
X2361519Y-514127D01*
X2358133D01*
X2356440Y-514974D01*
X2354747Y-516667D01*
X2353900Y-518360D01*
X2353054Y-520899D01*
Y-525131D01*
X2353900Y-527671D01*
X2354747Y-529364D01*
X2356440Y-531057D01*
X2358133Y-531903D01*
X2361519D01*
X2363212Y-531057D01*
X2364904Y-529364D01*
X2365751Y-527671D01*
X2353054Y89123D02*
Y71347D01*
Y89123D02*
X2360672D01*
X2363212Y88276D01*
X2364058Y87430D01*
X2364904Y85737D01*
Y84044D01*
X2364058Y82351D01*
X2363212Y81504D01*
X2360672Y80658D01*
X2353054D02*
X2360672D01*
X2363212Y79812D01*
X2364058Y78965D01*
X2364904Y77272D01*
Y74733D01*
X2364058Y73040D01*
X2363212Y72193D01*
X2360672Y71347D01*
X2353054D01*
X2366597Y675867D02*
X2359826Y693643D01*
X2353054Y675867D01*
X2355593Y681792D02*
X2364058D01*
X2071620Y981425D02*
X2070773Y983118D01*
X2068234Y983965D01*
X2066541D01*
X2064001Y983118D01*
X2062308Y980579D01*
X2061462Y976346D01*
Y972114D01*
X2062308Y968728D01*
X2064001Y967035D01*
X2066541Y966189D01*
X2067387D01*
X2069926Y967035D01*
X2071620Y968728D01*
X2072466Y971267D01*
Y972114D01*
X2071620Y974653D01*
X2069926Y976346D01*
X2067387Y977193D01*
X2066541D01*
X2064001Y976346D01*
X2062308Y974653D01*
X2061462Y972114D01*
X1435349Y983965D02*
X1426885D01*
X1426038Y976346D01*
X1426885Y977193D01*
X1429424Y978039D01*
X1431964D01*
X1434503Y977193D01*
X1436196Y975500D01*
X1437043Y972961D01*
Y971267D01*
X1436196Y968728D01*
X1434503Y967035D01*
X1431964Y966189D01*
X1429424D01*
X1426885Y967035D01*
X1426038Y967882D01*
X1425192Y969575D01*
X798913Y983965D02*
X790448Y972114D01*
X803146D01*
X798913Y983965D02*
Y966189D01*
X155448Y983965D02*
X164759D01*
X159680Y977193D01*
X162220D01*
X163913Y976346D01*
X164759Y975500D01*
X165606Y972961D01*
Y971267D01*
X164759Y968728D01*
X163066Y967035D01*
X160527Y966189D01*
X157987D01*
X155448Y967035D01*
X154601Y967882D01*
X153755Y969575D01*
X-477692Y979732D02*
Y980579D01*
X-476845Y982272D01*
X-475999Y983118D01*
X-474306Y983965D01*
X-470920D01*
X-469227Y983118D01*
X-468381Y982272D01*
X-467534Y980579D01*
Y978886D01*
X-468381Y977193D01*
X-470074Y974653D01*
X-478538Y966189D01*
X-466688D01*
X-1112437Y980579D02*
X-1110744Y981425D01*
X-1108204Y983965D01*
Y966189D01*
X-1392603Y675867D02*
X-1399374Y693643D01*
X-1406146Y675867D01*
X-1403607Y681792D02*
X-1395142D01*
X-1406146Y89123D02*
Y71347D01*
Y89123D02*
X-1398528D01*
X-1395988Y88276D01*
X-1395142Y87430D01*
X-1394296Y85737D01*
Y84044D01*
X-1395142Y82351D01*
X-1395988Y81504D01*
X-1398528Y80658D01*
X-1406146D02*
X-1398528D01*
X-1395988Y79812D01*
X-1395142Y78965D01*
X-1394296Y77272D01*
Y74733D01*
X-1395142Y73040D01*
X-1395988Y72193D01*
X-1398528Y71347D01*
X-1406146D01*
X-1393449Y-518360D02*
X-1394296Y-516667D01*
X-1395988Y-514974D01*
X-1397681Y-514127D01*
X-1401067D01*
X-1402760Y-514974D01*
X-1404453Y-516667D01*
X-1405300Y-518360D01*
X-1406146Y-520899D01*
Y-525131D01*
X-1405300Y-527671D01*
X-1404453Y-529364D01*
X-1402760Y-531057D01*
X-1401067Y-531903D01*
X-1397681D01*
X-1395988Y-531057D01*
X-1394296Y-529364D01*
X-1393449Y-527671D01*
X-1406146Y-1116107D02*
Y-1133883D01*
Y-1116107D02*
X-1400221D01*
X-1397681Y-1116954D01*
X-1395988Y-1118647D01*
X-1395142Y-1120340D01*
X-1394296Y-1122879D01*
Y-1127112D01*
X-1395142Y-1129651D01*
X-1395988Y-1131344D01*
X-1397681Y-1133037D01*
X-1400221Y-1133883D01*
X-1406146D01*
X-1112437Y-1381621D02*
X-1110744Y-1380775D01*
X-1108204Y-1378235D01*
Y-1396011D01*
X-477692Y-1382468D02*
Y-1381621D01*
X-476845Y-1379928D01*
X-475999Y-1379082D01*
X-474306Y-1378235D01*
X-470920D01*
X-469227Y-1379082D01*
X-468381Y-1379928D01*
X-467534Y-1381621D01*
Y-1383314D01*
X-468381Y-1385007D01*
X-470074Y-1387547D01*
X-478538Y-1396011D01*
X-466688D01*
X1435349Y-1378235D02*
X1426885D01*
X1426038Y-1385854D01*
X1426885Y-1385007D01*
X1429424Y-1384161D01*
X1431964D01*
X1434503Y-1385007D01*
X1436196Y-1386700D01*
X1437043Y-1389240D01*
Y-1390932D01*
X1436196Y-1393472D01*
X1434503Y-1395165D01*
X1431964Y-1396011D01*
X1429424D01*
X1426885Y-1395165D01*
X1426038Y-1394318D01*
X1425192Y-1392625D01*
X155448Y-1378235D02*
X164759D01*
X159680Y-1385007D01*
X162220D01*
X163913Y-1385854D01*
X164759Y-1386700D01*
X165606Y-1389240D01*
Y-1390932D01*
X164759Y-1393472D01*
X163066Y-1395165D01*
X160527Y-1396011D01*
X157987D01*
X155448Y-1395165D01*
X154601Y-1394318D01*
X153755Y-1392625D01*
X798913Y-1378235D02*
X790448Y-1390086D01*
X803146D01*
X798913Y-1378235D02*
Y-1396011D01*
X2071620Y-1380775D02*
X2070773Y-1379082D01*
X2068234Y-1378235D01*
X2066541D01*
X2064001Y-1379082D01*
X2062308Y-1381621D01*
X2061462Y-1385854D01*
Y-1390086D01*
X2062308Y-1393472D01*
X2064001Y-1395165D01*
X2066541Y-1396011D01*
X2067387D01*
X2069926Y-1395165D01*
X2071620Y-1393472D01*
X2072466Y-1390932D01*
Y-1390086D01*
X2071620Y-1387547D01*
X2069926Y-1385854D01*
X2067387Y-1385007D01*
X2066541D01*
X2064001Y-1385854D01*
X2062308Y-1387547D01*
X2061462Y-1390086D01*
X2353054Y-1116107D02*
Y-1133883D01*
Y-1116107D02*
X2358979D01*
X2361519Y-1116954D01*
X2363212Y-1118647D01*
X2364058Y-1120340D01*
X2364904Y-1122879D01*
Y-1127112D01*
X2364058Y-1129651D01*
X2363212Y-1131344D01*
X2361519Y-1133037D01*
X2358979Y-1133883D01*
X2353054D01*
D18*
X510723Y-19142D02*
X566304Y-476337D01*
X0Y0D02*
X403392D01*
X403397Y0D02*
X461304Y-476337D01*
X735904Y-19138D02*
Y489996D01*
X4Y0D02*
Y489996D01*
X461304Y-640804D02*
X566304D01*
Y-476337D01*
X461304Y-640804D02*
Y-476337D01*
X399804Y864296D02*
X399804Y489996D01*
X504804Y864296D02*
X504804Y489996D01*
X4Y489996D02*
X399804Y489996D01*
X504804Y489996D02*
X735904Y489996D01*
X399804Y864296D02*
X504804D01*
D19*
X510723Y-19138D02*
X735904Y-19138D01*
D53*
X1230404Y-1030591D02*
Y-1008932D01*
X1241234Y-998102D01*
X1252064Y-1008932D01*
Y-1030591D01*
Y-1014347D01*
X1230404D01*
X1262894Y-998102D02*
X1273724D01*
X1268309D01*
Y-1030591D01*
X1262894D01*
X1273724D01*
X1289968D02*
Y-998102D01*
X1306213D01*
X1311628Y-1003517D01*
Y-1014347D01*
X1306213Y-1019762D01*
X1289968D01*
X1300798D02*
X1311628Y-1030591D01*
X1322458Y-998102D02*
X1344118D01*
Y-1003517D01*
X1322458Y-1025176D01*
Y-1030591D01*
X1344118D01*
X1354947D02*
Y-1008932D01*
X1365777Y-998102D01*
X1376607Y-1008932D01*
Y-1030591D01*
Y-1014347D01*
X1354947D01*
X1387437Y-998102D02*
X1398267D01*
X1392852D01*
Y-1030591D01*
X1387437D01*
X1398267D01*
X1447001D02*
Y-998102D01*
X1463246D01*
X1468661Y-1003517D01*
Y-1014347D01*
X1463246Y-1019762D01*
X1447001D01*
X1479491Y-1030591D02*
Y-998102D01*
X1495735D01*
X1501150Y-1003517D01*
Y-1014347D01*
X1495735Y-1019762D01*
X1479491D01*
X1490320D02*
X1501150Y-1030591D01*
X1528225Y-998102D02*
X1517395D01*
X1511980Y-1003517D01*
Y-1025176D01*
X1517395Y-1030591D01*
X1528225D01*
X1533640Y-1025176D01*
Y-1003517D01*
X1528225Y-998102D01*
X1544469Y-1030591D02*
Y-998102D01*
X1560714D01*
X1566129Y-1003517D01*
Y-1014347D01*
X1560714Y-1019762D01*
X1544469D01*
X1576959Y-1030591D02*
Y-998102D01*
X1593204D01*
X1598619Y-1003517D01*
Y-1014347D01*
X1593204Y-1019762D01*
X1576959D01*
X1587789D02*
X1598619Y-1030591D01*
X1609449Y-998102D02*
X1620278D01*
X1614863D01*
Y-1030591D01*
X1609449D01*
X1620278D01*
X1658183Y-998102D02*
X1636523D01*
Y-1030591D01*
X1658183D01*
X1636523Y-1014347D02*
X1647353D01*
X1669013Y-998102D02*
X1690672D01*
X1679842D01*
Y-1030591D01*
X1701502D02*
Y-1008932D01*
X1712332Y-998102D01*
X1723162Y-1008932D01*
Y-1030591D01*
Y-1014347D01*
X1701502D01*
X1733992Y-1030591D02*
Y-998102D01*
X1750236D01*
X1755651Y-1003517D01*
Y-1014347D01*
X1750236Y-1019762D01*
X1733992D01*
X1744821D02*
X1755651Y-1030591D01*
X1766481Y-998102D02*
Y-1003517D01*
X1777311Y-1014347D01*
X1788141Y-1003517D01*
Y-998102D01*
X1777311Y-1014347D02*
Y-1030591D01*
X1853120D02*
X1847705Y-1025176D01*
X1842290Y-1030591D01*
X1836875D01*
X1831460Y-1025176D01*
Y-1019762D01*
X1836875Y-1014347D01*
X1831460Y-1008932D01*
Y-1003517D01*
X1836875Y-998102D01*
X1842290D01*
X1847705Y-1003517D01*
Y-1008932D01*
X1842290Y-1014347D01*
X1847705Y-1019762D01*
Y-1025176D01*
X1853120Y-1014347D02*
X1847705Y-1019762D01*
X1836875Y-1014347D02*
X1842290D01*
X1918099Y-1003517D02*
X1912684Y-998102D01*
X1901854D01*
X1896439Y-1003517D01*
Y-1025176D01*
X1901854Y-1030591D01*
X1912684D01*
X1918099Y-1025176D01*
X1945173Y-998102D02*
X1934344D01*
X1928929Y-1003517D01*
Y-1025176D01*
X1934344Y-1030591D01*
X1945173D01*
X1950588Y-1025176D01*
Y-1003517D01*
X1945173Y-998102D01*
X1961418Y-1030591D02*
Y-998102D01*
X1983078Y-1030591D01*
Y-998102D01*
X2015567D02*
X1993907D01*
Y-1014347D01*
X2004737D01*
X1993907D01*
Y-1030591D01*
X2026397Y-998102D02*
X2037227D01*
X2031812D01*
Y-1030591D01*
X2026397D01*
X2037227D01*
X2053472Y-998102D02*
Y-1030591D01*
X2069716D01*
X2075131Y-1025176D01*
Y-1003517D01*
X2069716Y-998102D01*
X2053472D01*
X2107621D02*
X2085961D01*
Y-1030591D01*
X2107621D01*
X2085961Y-1014347D02*
X2096791D01*
X2118451Y-1030591D02*
Y-998102D01*
X2140110Y-1030591D01*
Y-998102D01*
X2150940D02*
X2172600D01*
X2161770D01*
Y-1030591D01*
X2183430Y-998102D02*
X2194259D01*
X2188844D01*
Y-1030591D01*
X2183430D01*
X2194259D01*
X2210504D02*
Y-1008932D01*
X2221334Y-998102D01*
X2232164Y-1008932D01*
Y-1030591D01*
Y-1014347D01*
X2210504D01*
X2242994Y-998102D02*
Y-1030591D01*
X2264653D01*
X1372252Y-1345723D02*
X1382408D01*
X1377330D01*
Y-1315253D01*
X1372252Y-1320332D01*
X1397643Y-1325410D02*
X1402722D01*
Y-1330488D01*
X1397643D01*
Y-1325410D01*
Y-1340645D02*
X1402722D01*
Y-1345723D01*
X1397643D01*
Y-1340645D01*
X1423035Y-1345723D02*
X1433192D01*
X1428114D01*
Y-1315253D01*
X1423035Y-1320332D01*
X1250252Y-1309253D02*
Y-1339723D01*
X1265487D01*
X1270565Y-1334645D01*
Y-1329567D01*
X1265487Y-1324488D01*
X1250252D01*
X1265487D01*
X1270565Y-1319410D01*
Y-1314332D01*
X1265487Y-1309253D01*
X1250252D01*
X2265154Y-1314121D02*
Y-1344591D01*
X2280389D01*
X2285468Y-1339513D01*
Y-1334435D01*
X2280389Y-1329356D01*
X2265154D01*
X2280389D01*
X2285468Y-1324278D01*
Y-1319200D01*
X2280389Y-1314121D01*
X2265154D01*
X1238792Y-1137050D02*
Y-1157043D01*
X1248789D01*
X1252121Y-1153711D01*
Y-1140382D01*
X1248789Y-1137050D01*
X1238792D01*
X1272114D02*
X1258785D01*
Y-1147047D01*
X1265450D01*
X1258785D01*
Y-1157043D01*
X1278779D02*
Y-1137050D01*
X1285443Y-1143714D01*
X1292108Y-1137050D01*
Y-1157043D01*
X1258821Y-1083740D02*
X1245492D01*
Y-1093737D01*
X1252156D01*
X1245492D01*
Y-1103733D01*
X1265485Y-1083740D02*
Y-1103733D01*
X1275482D01*
X1278814Y-1100401D01*
Y-1087072D01*
X1275482Y-1083740D01*
X1265485D01*
X1536654Y-1143591D02*
Y-1121932D01*
X1547484Y-1111102D01*
X1558314Y-1121932D01*
Y-1143591D01*
Y-1127347D01*
X1536654D01*
X1569144Y-1111102D02*
X1579974D01*
X1574559D01*
Y-1143591D01*
X1569144D01*
X1579974D01*
X1596218D02*
Y-1111102D01*
X1612463D01*
X1617878Y-1116517D01*
Y-1127347D01*
X1612463Y-1132762D01*
X1596218D01*
X1607048D02*
X1617878Y-1143591D01*
X1628708Y-1111102D02*
X1650368D01*
Y-1116517D01*
X1628708Y-1138176D01*
Y-1143591D01*
X1650368D01*
X1661197D02*
Y-1121932D01*
X1672027Y-1111102D01*
X1682857Y-1121932D01*
Y-1143591D01*
Y-1127347D01*
X1661197D01*
X1693687Y-1111102D02*
X1704517D01*
X1699102D01*
Y-1143591D01*
X1693687D01*
X1704517D01*
X1268821Y-1193740D02*
X1255492D01*
Y-1203737D01*
X1262156D01*
X1255492D01*
Y-1213733D01*
X1275485Y-1193740D02*
Y-1213733D01*
X1285482D01*
X1288814Y-1210401D01*
Y-1197072D01*
X1285482Y-1193740D01*
X1275485D01*
X1266321Y-1248740D02*
X1252992D01*
Y-1258737D01*
X1259656D01*
X1252992D01*
Y-1268733D01*
X1272985Y-1248740D02*
Y-1268733D01*
X1282982D01*
X1286314Y-1265401D01*
Y-1252072D01*
X1282982Y-1248740D01*
X1272985D01*
M02*
