G04*
G04 #@! TF.GenerationSoftware,Altium Limited,Altium Designer,19.0.12 (326)*
G04*
G04 Layer_Color=8388736*
%FSLAX44Y44*%
%MOMM*%
G71*
G01*
G75*
%ADD16C,0.1778*%
%ADD17C,0.2032*%
%ADD18C,0.0127*%
%ADD19C,0.0130*%
%ADD81R,6.8218X5.6642*%
%ADD82R,5.8045X5.3086*%
%ADD83R,16.8910X4.2420*%
%ADD84R,24.8666X11.4164*%
%ADD85R,10.5000X3.6576*%
%ADD86R,10.5386X3.0480*%
%ADD87R,10.5000X3.2028*%
%ADD88R,10.5000X4.4836*%
D16*
X-219418Y121276D02*
X-220687Y122545D01*
X-223226D01*
X-224496Y121276D01*
Y120006D01*
X-223226Y118737D01*
X-220687D01*
X-219418Y117467D01*
Y116198D01*
X-220687Y114928D01*
X-223226D01*
X-224496Y116198D01*
X-215609Y121276D02*
Y120006D01*
X-216879D01*
X-214339D01*
X-215609D01*
Y116198D01*
X-214339Y114928D01*
X-210530D02*
X-207991D01*
X-209261D01*
Y120006D01*
X-210530D01*
X-202913Y114928D02*
Y121276D01*
Y118737D01*
X-204183D01*
X-201643D01*
X-202913D01*
Y121276D01*
X-201643Y122545D01*
X-196565Y114928D02*
Y121276D01*
Y118737D01*
X-197835D01*
X-195295D01*
X-196565D01*
Y121276D01*
X-195295Y122545D01*
X-187678Y114928D02*
X-190217D01*
X-191487Y116198D01*
Y118737D01*
X-190217Y120006D01*
X-187678D01*
X-186408Y118737D01*
Y117467D01*
X-191487D01*
X-183869Y114928D02*
Y120006D01*
X-180060D01*
X-178791Y118737D01*
Y114928D01*
X-172443D02*
X-174982D01*
X-176252Y116198D01*
Y118737D01*
X-174982Y120006D01*
X-172443D01*
X-171173Y118737D01*
Y117467D01*
X-176252D01*
X-168634Y120006D02*
Y114928D01*
Y117467D01*
X-167365Y118737D01*
X-166095Y120006D01*
X-164825D01*
X-153399Y122545D02*
Y114928D01*
X-148321D01*
X-144512D02*
X-141973D01*
X-140703Y116198D01*
Y118737D01*
X-141973Y120006D01*
X-144512D01*
X-145781Y118737D01*
Y116198D01*
X-144512Y114928D01*
X-133086Y120006D02*
X-136894D01*
X-138164Y118737D01*
Y116198D01*
X-136894Y114928D01*
X-133086D01*
X-129277Y120006D02*
X-126738D01*
X-125468Y118737D01*
Y114928D01*
X-129277D01*
X-130546Y116198D01*
X-129277Y117467D01*
X-125468D01*
X-121659Y121276D02*
Y120006D01*
X-122929D01*
X-120390D01*
X-121659D01*
Y116198D01*
X-120390Y114928D01*
X-116581D02*
X-114042D01*
X-115311D01*
Y120006D01*
X-116581D01*
X-108963Y114928D02*
X-106424D01*
X-105155Y116198D01*
Y118737D01*
X-106424Y120006D01*
X-108963D01*
X-110233Y118737D01*
Y116198D01*
X-108963Y114928D01*
X-102615D02*
Y120006D01*
X-98807D01*
X-97537Y118737D01*
Y114928D01*
X-94998D02*
X-91189D01*
X-89920Y116198D01*
X-91189Y117467D01*
X-93728D01*
X-94998Y118737D01*
X-93728Y120006D01*
X-89920D01*
D17*
X512104Y-369024D02*
G03*
X503124Y-347344I-30661J0D01*
G01*
X46104Y109676D02*
G03*
X24424Y118656I-21680J-21680D01*
G01*
X16804D02*
G03*
X38484Y127636I0J30661D01*
G01*
X338288Y80096D02*
X343876Y84494D01*
X338288Y88732D02*
X343876Y84494D01*
X285456D02*
X343876D01*
X251294Y118656D02*
X285456Y84494D01*
X16804Y118656D02*
X251294D01*
X391628Y755736D02*
X397216Y760134D01*
X391628Y764372D02*
X397216Y760134D01*
X368514D02*
X397216D01*
X391882Y825078D02*
X397470Y829476D01*
X391882Y833714D02*
X397470Y829476D01*
X380706D02*
X397470D01*
X368514Y817284D02*
X380706Y829476D01*
X368514Y718478D02*
Y817284D01*
Y718478D02*
X431506Y655486D01*
Y354496D02*
Y655486D01*
X701762Y429426D02*
X706160Y423838D01*
X697524D02*
X701762Y429426D01*
Y399200D02*
Y429426D01*
X657058Y354496D02*
X701762Y399200D01*
X265390Y354496D02*
X657058D01*
X234448Y323554D02*
X265390Y354496D01*
X234402Y323554D02*
X234448D01*
X281138Y319156D02*
X286726Y323554D01*
X281138Y327792D02*
X286726Y323554D01*
X234402D02*
X286726D01*
X234402Y373292D02*
X238800Y367704D01*
X230164D02*
X234402Y373292D01*
Y323554D02*
Y373292D01*
X475622Y-588098D02*
X480020Y-593686D01*
X484258Y-588098D01*
X480020Y-593686D02*
Y-564222D01*
X451826Y-536028D02*
X480020Y-564222D01*
X451826Y-536028D02*
Y-498944D01*
X512104Y-438666D01*
Y-437904D01*
Y-434936D01*
Y-496150D02*
X516342Y-490562D01*
X507706D02*
X512104Y-496150D01*
Y-369024D01*
X46104Y109676D02*
X503124Y-347344D01*
X4104Y118656D02*
X24424D01*
X38484Y127636D02*
X234402Y323554D01*
X-84796Y118656D02*
X16804D01*
D18*
X510723Y-19142D02*
X566304Y-476337D01*
X0Y0D02*
X403392D01*
X403397Y0D02*
X461304Y-476337D01*
X735904Y-19138D02*
Y489996D01*
X4Y0D02*
Y489996D01*
X461304Y-640804D02*
X566304D01*
Y-476337D01*
X461304Y-640804D02*
Y-476337D01*
X399804Y864296D02*
X399804Y489996D01*
X504804Y864296D02*
X504804Y489996D01*
X4Y489996D02*
X399804Y489996D01*
X504804Y489996D02*
X735904Y489996D01*
X399804Y864296D02*
X504804D01*
D19*
X510723Y-19138D02*
X735904Y-19138D01*
D81*
X701835Y461557D02*
D03*
D82*
X375305Y83325D02*
D03*
D83*
X374991Y307632D02*
D03*
D84*
X288885Y432914D02*
D03*
D85*
X452304Y759626D02*
D03*
D86*
X513687Y-514438D02*
D03*
D87*
X452304Y848282D02*
D03*
D88*
X513804Y-618386D02*
D03*
M02*
