M48
;Layer_Color=9474304
;FILE_FORMAT=4:4
METRIC,TZ
;TYPE=PLATED
T1F00S00C0.2032
T2F00S00C0.2540
T3F00S00C0.3000
%
T01
X191994Y-3228
X192532Y23114
X211328Y-11684
X306972Y10734
X308356Y17780
X412496Y17018
X400886Y61214
X398846Y70104
X399034Y82042
X410392Y90932
X423926Y85852
X433070Y77216
X399034Y165608
X403860Y172974
X387742Y181102
X411164Y203250
X488442Y-15494
X523748Y7242
X534162Y12397
X541782Y7175
X543623Y-7429
X551353Y-9687
X559180Y8128
X564180Y13462
X554180Y13656
X633805Y11380
X629068Y-7112
X733536Y93202
X736219Y103251
X596620Y344678
X586232Y344932
X592836Y353568
X586740Y361950
X555498Y366268
Y375666
Y385318
X546862Y380492
X546122Y371094
X538352Y366522
X538226Y375666
Y385318
X513842Y404876
X487006Y396494
X480060Y392430
X477578Y385064
Y374396
X484124Y378968
X490728Y373888
X487680Y366268
X479552Y364744
X481640Y342646
X490914Y339598
X496062Y314706
X487934Y312420
X502158Y304918
X514858Y305308
X509016Y314620
X520954
X530098Y321564
X530352Y332486
X529844Y305680
X487934Y290322
X464566Y290068
X470916Y303016
X456438Y318516
X463038Y385064
X464566Y392430
X464198Y403352
X472948Y398272
X479552Y403860
X455422Y398272
X470662Y380904
X490982Y384810
X505968Y366584
X529272Y454914
X536094Y492252
X525839Y497637
X417392Y497332
X408686Y496824
X400558Y494792
X385572Y502666
X357632Y494030
X354838Y486384
X375158Y473202
X421320Y470634
X429514Y478028
X409448Y413258
X406908Y373380
X405638Y354838
X395732Y350774
X395224Y337820
X394208Y316992
X393700Y305308
X379476Y290322
X368010Y301752
X368300Y314706
X368270Y327660
X370388Y357770
X366865Y364490
X354330
X423418Y362966
X419936Y329184
X435543Y320040
X444198Y321564
X452882Y302094
X452882Y381254
X450596Y388620
X403860Y271018
X411265Y260096
X399034Y236220
X388366Y229870
X370840Y265176
X253746Y354330
Y368046
X245110Y361950
X235712Y368300
X236220Y353940
X227004Y361950
X251714Y382778
Y395382
X260350Y389128
X268224Y395478
X268986Y383286
T02
X221031Y23368
X261620Y20574
X273558Y20320
X295148Y15494
X293878Y4064
X313182Y6088
X340106Y15494
X343154Y41910
X356108Y41912
X356616Y29210
X355914Y57150
X367538Y51562
X367284Y68580
X384556
X403098Y51816
X416306Y49730
X440690Y52324
X439198Y67564
X438150Y36576
X451698Y45720
X447802Y-13548
X434295Y-12954
X432700Y1457
X422402Y-6350
X421249Y10368
X389595Y31201
X460756Y36068
X473710Y30734
X477068Y21844
X484930Y37338
X472186Y43180
X534180Y-3714
X618744Y-190
X617982Y-13462
X622492Y10922
X653034Y13830
X659638Y21082
X668528Y60452
X664815Y73406
X653034Y67056
X651256Y80010
X461698Y340270
Y360270
X474472Y472440
X451698Y350270
X441698Y340270
Y360270
X395248Y328394
X368554Y341122
X339598Y342208
X339344Y331470
Y321326
Y310468
Y299212
X318770Y296744
X308787Y548506
X300228Y553038
X310642Y570230
X319024Y564642
T03
X0Y0
M30
