G04*
G04 #@! TF.GenerationSoftware,Altium Limited,Altium Designer,19.0.12 (326)*
G04*
G04 Layer_Color=32768*
%FSLAX44Y44*%
%MOMM*%
G71*
G01*
G75*
%ADD11C,0.1270*%
%ADD40C,0.1000*%
%ADD41C,0.0500*%
D11*
X1707500Y43640D02*
G03*
X1701140Y50000I-6360J0D01*
G01*
X1682500Y-5000D02*
G03*
X1677500Y0I-5000J0D01*
G01*
Y-15922D02*
G03*
X1682500Y-10922I0J5000D01*
G01*
X1657096Y-15922D02*
G03*
X1652528Y-20320I-85J-4483D01*
G01*
X1702500Y-33702D02*
G03*
X1707500Y-28702I0J5000D01*
G01*
X1681734Y-33702D02*
G03*
X1677528Y-38608I350J-4556D01*
G01*
X1652528Y-129568D02*
X1677528D01*
Y-38608D01*
X1682500Y50000D02*
X1701140D01*
X1677500Y0D02*
X1677500D01*
X1652528Y-129568D02*
Y-20320D01*
X1597500Y50000D02*
X1682500D01*
X0D02*
X1597500D01*
X0Y-0D02*
X1677500Y0D01*
X0D02*
Y50000D01*
X1682500Y-10922D02*
Y-5000D01*
X1657096Y-15922D02*
X1677500D01*
X1707500Y-27686D02*
Y43640D01*
X1681734Y-33702D02*
X1702500D01*
D40*
X71708Y16256D02*
Y34256D01*
X79708Y16256D02*
Y34256D01*
X71708Y16256D02*
X79708D01*
X71708Y34256D02*
X79708D01*
X146626Y15666D02*
Y33666D01*
X154626Y15666D02*
Y33666D01*
X146626Y15666D02*
X154626D01*
X146626Y33666D02*
X154626D01*
X221228Y16294D02*
Y34294D01*
X229228Y16294D02*
Y34294D01*
X221228Y16294D02*
X229228D01*
X221228Y34294D02*
X229228D01*
X296118Y16054D02*
Y34054D01*
X304118Y16054D02*
Y34054D01*
X296118Y16054D02*
X304118D01*
X296118Y34054D02*
X304118D01*
X371118Y15920D02*
Y33920D01*
X379118Y15920D02*
Y33920D01*
X371118Y15920D02*
X379118D01*
X371118Y33920D02*
X379118D01*
X445958Y16308D02*
Y34308D01*
X453958Y16308D02*
Y34308D01*
X445958Y16308D02*
X453958D01*
X445958Y34308D02*
X453958D01*
X521118Y15920D02*
Y33920D01*
X529118Y15920D02*
Y33920D01*
X521118Y15920D02*
X529118D01*
X521118Y33920D02*
X529118D01*
X595974Y15919D02*
Y33919D01*
X603974Y15919D02*
Y33919D01*
X595974Y15919D02*
X603974D01*
X595974Y33919D02*
X603974D01*
X671118Y15237D02*
Y33237D01*
X679118Y15237D02*
Y33237D01*
X671118Y15237D02*
X679118D01*
X671118Y33237D02*
X679118D01*
X896118Y15666D02*
Y33666D01*
X904118Y15666D02*
Y33666D01*
X896118Y15666D02*
X904118D01*
X896118Y33666D02*
X904118D01*
X821036Y15920D02*
Y33920D01*
X829036Y15920D02*
Y33920D01*
X821036Y15920D02*
X829036D01*
X821036Y33920D02*
X829036D01*
X746118Y15792D02*
Y33792D01*
X754118Y15792D02*
Y33792D01*
X746118Y15792D02*
X754118D01*
X746118Y33792D02*
X754118D01*
X971118Y15620D02*
Y33620D01*
X979118Y15620D02*
Y33620D01*
X971118Y15620D02*
X979118D01*
X971118Y33620D02*
X979118D01*
X1045864Y15754D02*
Y33754D01*
X1053864Y15754D02*
Y33754D01*
X1045864Y15754D02*
X1053864D01*
X1045864Y33754D02*
X1053864D01*
X1120864Y15920D02*
Y33920D01*
X1128864Y15920D02*
Y33920D01*
X1120864Y15920D02*
X1128864D01*
X1120864Y33920D02*
X1128864D01*
X1271144Y15412D02*
Y33412D01*
X1279144Y15412D02*
Y33412D01*
X1271144Y15412D02*
X1279144D01*
X1271144Y33412D02*
X1279144D01*
X1195864Y16000D02*
Y34000D01*
X1203864Y16000D02*
Y34000D01*
X1195864Y16000D02*
X1203864D01*
X1195864Y34000D02*
X1203864D01*
X1346244Y33238D02*
X1354244D01*
X1346244Y15238D02*
X1354244D01*
Y33238D01*
X1346244Y15238D02*
Y33238D01*
X1420864Y34174D02*
X1428864D01*
X1420864Y16174D02*
X1428864D01*
Y34174D01*
X1420864Y16174D02*
Y34174D01*
X1495398Y34000D02*
X1503398D01*
X1495398Y16000D02*
X1503398D01*
Y34000D01*
X1495398Y16000D02*
Y34000D01*
X1570864D02*
X1578864D01*
X1570864Y16000D02*
X1578864D01*
Y34000D01*
X1570864Y16000D02*
Y34000D01*
D41*
X78208Y25256D02*
G03*
X78208Y25256I-2500J0D01*
G01*
X153126Y24666D02*
G03*
X153126Y24666I-2500J0D01*
G01*
X227728Y25294D02*
G03*
X227728Y25294I-2500J0D01*
G01*
X302618Y25054D02*
G03*
X302618Y25054I-2500J0D01*
G01*
X377618Y24920D02*
G03*
X377618Y24920I-2500J0D01*
G01*
X452458Y25308D02*
G03*
X452458Y25308I-2500J0D01*
G01*
X527618Y24920D02*
G03*
X527618Y24920I-2500J0D01*
G01*
X602474Y24919D02*
G03*
X602474Y24919I-2500J0D01*
G01*
X677618Y24237D02*
G03*
X677618Y24237I-2500J0D01*
G01*
X902618Y24666D02*
G03*
X902618Y24666I-2500J0D01*
G01*
X827536Y24920D02*
G03*
X827536Y24920I-2500J0D01*
G01*
X752618Y24792D02*
G03*
X752618Y24792I-2500J0D01*
G01*
X977618Y24620D02*
G03*
X977618Y24620I-2500J0D01*
G01*
X1052364Y24754D02*
G03*
X1052364Y24754I-2500J0D01*
G01*
X1127364Y24920D02*
G03*
X1127364Y24920I-2500J0D01*
G01*
X1277644Y24412D02*
G03*
X1277644Y24412I-2500J0D01*
G01*
X1202364Y25000D02*
G03*
X1202364Y25000I-2500J0D01*
G01*
X1352744Y24238D02*
G03*
X1352744Y24238I-2500J0D01*
G01*
X1427364Y25174D02*
G03*
X1427364Y25174I-2500J0D01*
G01*
X1501898Y25000D02*
G03*
X1501898Y25000I-2500J0D01*
G01*
X1577364D02*
G03*
X1577364Y25000I-2500J0D01*
G01*
X75708Y21756D02*
Y28756D01*
X72208Y25256D02*
X79208D01*
X150626Y21166D02*
Y28166D01*
X147126Y24666D02*
X154126D01*
X225228Y21794D02*
Y28794D01*
X221728Y25294D02*
X228728D01*
X300118Y21554D02*
Y28554D01*
X296618Y25054D02*
X303618D01*
X375118Y21420D02*
Y28420D01*
X371618Y24920D02*
X378618D01*
X449958Y21808D02*
Y28808D01*
X446458Y25308D02*
X453458D01*
X525118Y21420D02*
Y28420D01*
X521618Y24920D02*
X528618D01*
X599974Y21419D02*
Y28419D01*
X596474Y24919D02*
X603474D01*
X675118Y20737D02*
Y27737D01*
X671618Y24237D02*
X678618D01*
X900118Y21166D02*
Y28166D01*
X896618Y24666D02*
X903618D01*
X825036Y21420D02*
Y28420D01*
X821536Y24920D02*
X828536D01*
X750118Y21292D02*
Y28292D01*
X746618Y24792D02*
X753618D01*
X975118Y21120D02*
Y28120D01*
X971618Y24620D02*
X978618D01*
X1049864Y21254D02*
Y28254D01*
X1046364Y24754D02*
X1053364D01*
X1124864Y21420D02*
Y28420D01*
X1121364Y24920D02*
X1128364D01*
X1275144Y20912D02*
Y27912D01*
X1271644Y24412D02*
X1278644D01*
X1199864Y21500D02*
Y28500D01*
X1196364Y25000D02*
X1203364D01*
X1346744Y24238D02*
X1353744D01*
X1350244Y20738D02*
Y27738D01*
X1421364Y25174D02*
X1428364D01*
X1424864Y21674D02*
Y28674D01*
X1495898Y25000D02*
X1502898D01*
X1499398Y21500D02*
Y28500D01*
X1571364Y25000D02*
X1578364D01*
X1574864Y21500D02*
Y28500D01*
M02*
