G04*
G04 #@! TF.GenerationSoftware,Altium Limited,Altium Designer,19.0.12 (326)*
G04*
G04 Layer_Physical_Order=3*
G04 Layer_Color=128*
%FSLAX44Y44*%
%MOMM*%
G71*
G01*
G75*
%ADD19C,0.0500*%
%ADD82C,0.2540*%
%ADD123C,1.0160*%
G04:AMPARAMS|DCode=124|XSize=0.9652mm|YSize=0.9652mm|CornerRadius=0mm|HoleSize=0mm|Usage=FLASHONLY|Rotation=0.000|XOffset=0mm|YOffset=0mm|HoleType=Round|Shape=Relief|Width=0.254mm|Gap=0.1778mm|Entries=4|*
%AMTHD124*
7,0,0,0.9652,0.6096,0.2540,45*
%
%ADD124THD124*%
%ADD125C,0.6096*%
G04:AMPARAMS|DCode=126|XSize=1.016mm|YSize=1.016mm|CornerRadius=0mm|HoleSize=0mm|Usage=FLASHONLY|Rotation=0.000|XOffset=0mm|YOffset=0mm|HoleType=Round|Shape=Relief|Width=0.254mm|Gap=0.1778mm|Entries=4|*
%AMTHD126*
7,0,0,1.0160,0.6604,0.2540,45*
%
%ADD126THD126*%
%ADD127C,0.5588*%
%ADD128C,0.6556*%
G36*
X404705Y724137D02*
X407259Y723630D01*
X409750Y722874D01*
X412156Y721877D01*
X414452Y720650D01*
X416617Y719203D01*
X418629Y717552D01*
X419550Y716631D01*
X426974Y709207D01*
X499074Y584327D01*
X302006Y583946D01*
Y584454D01*
X376682Y712724D01*
X379539Y715581D01*
X380584Y716626D01*
X382869Y718502D01*
X385327Y720144D01*
X387934Y721537D01*
X390665Y722668D01*
X393493Y723526D01*
X396392Y724103D01*
X399334Y724393D01*
X400812Y724393D01*
X402114Y724393D01*
X404705Y724137D01*
D02*
G37*
G36*
X552766Y264525D02*
X561595Y263127D01*
X570286Y261040D01*
X578787Y258278D01*
X587045Y254857D01*
X595010Y250799D01*
X602631Y246129D01*
X609862Y240875D01*
X616659Y235070D01*
X622980Y228749D01*
X628785Y221952D01*
X634039Y214721D01*
X638709Y207100D01*
X642767Y199135D01*
X646188Y190877D01*
X648950Y182376D01*
X651037Y173685D01*
X652435Y164856D01*
X653136Y155946D01*
Y151476D01*
Y147007D01*
X652435Y138096D01*
X651037Y129268D01*
X648950Y120576D01*
X646188Y112075D01*
X642767Y103817D01*
X638709Y95853D01*
X634039Y88231D01*
X628785Y81000D01*
X622980Y74203D01*
X616659Y67883D01*
X609862Y62077D01*
X602631Y56824D01*
X595010Y52153D01*
X587045Y48095D01*
X578787Y44675D01*
X570286Y41912D01*
X561595Y39826D01*
X552766Y38428D01*
X543855Y37726D01*
X534917D01*
X526006Y38428D01*
X517177Y39826D01*
X508486Y41912D01*
X499985Y44675D01*
X491727Y48095D01*
X483763Y52153D01*
X476141Y56824D01*
X468910Y62077D01*
X462113Y67883D01*
X455793Y74203D01*
X449987Y81000D01*
X444734Y88231D01*
X440063Y95853D01*
X436005Y103817D01*
X432584Y112075D01*
X429822Y120576D01*
X427736Y129268D01*
X426337Y138096D01*
X425636Y147007D01*
Y151476D01*
Y155946D01*
X426337Y164856D01*
X427736Y173685D01*
X429822Y182376D01*
X432584Y190877D01*
X436005Y199135D01*
X440063Y207100D01*
X444734Y214721D01*
X449987Y221952D01*
X455793Y228749D01*
X462113Y235070D01*
X468910Y240875D01*
X476141Y246129D01*
X483763Y250799D01*
X491727Y254857D01*
X499985Y258278D01*
X508486Y261040D01*
X517177Y263127D01*
X526006Y264525D01*
X534917Y265226D01*
X543855D01*
X552766Y264525D01*
D02*
G37*
G36*
X275766D02*
X284595Y263127D01*
X293286Y261040D01*
X301787Y258278D01*
X310045Y254857D01*
X318010Y250799D01*
X325631Y246129D01*
X332862Y240875D01*
X339659Y235070D01*
X345980Y228749D01*
X351785Y221952D01*
X357039Y214721D01*
X361709Y207100D01*
X365767Y199135D01*
X369188Y190877D01*
X371950Y182376D01*
X374036Y173685D01*
X375435Y164856D01*
X376136Y155946D01*
Y151476D01*
Y147007D01*
X375435Y138096D01*
X374036Y129268D01*
X371950Y120576D01*
X369188Y112075D01*
X365767Y103817D01*
X361709Y95853D01*
X357039Y88231D01*
X351785Y81000D01*
X345980Y74203D01*
X339659Y67883D01*
X332862Y62077D01*
X325631Y56824D01*
X318010Y52153D01*
X310045Y48095D01*
X301787Y44675D01*
X293286Y41912D01*
X284595Y39826D01*
X275766Y38428D01*
X266855Y37726D01*
X257917D01*
X249006Y38428D01*
X240177Y39826D01*
X231486Y41912D01*
X222985Y44675D01*
X214727Y48095D01*
X206763Y52153D01*
X199141Y56824D01*
X191910Y62077D01*
X185113Y67883D01*
X178792Y74203D01*
X172987Y81000D01*
X167733Y88231D01*
X163063Y95853D01*
X159005Y103817D01*
X155584Y112075D01*
X152822Y120576D01*
X150736Y129268D01*
X149337Y138096D01*
X148636Y147007D01*
Y151476D01*
Y155946D01*
X149337Y164856D01*
X150736Y173685D01*
X152822Y182376D01*
X155584Y190877D01*
X159005Y199135D01*
X163063Y207100D01*
X167733Y214721D01*
X172987Y221952D01*
X178792Y228749D01*
X185113Y235070D01*
X191910Y240875D01*
X199141Y246129D01*
X206763Y250799D01*
X214727Y254857D01*
X222985Y258278D01*
X231486Y261040D01*
X240177Y263127D01*
X249006Y264525D01*
X257917Y265226D01*
X266855D01*
X275766Y264525D01*
D02*
G37*
D19*
X422136Y640793D02*
G03*
X422136Y640793I-21250J0D01*
G01*
X426867Y709393D02*
G03*
X374905Y709393I-25981J-15000D01*
G01*
X-25992Y15018D02*
G03*
X-11Y-29982I25981J-15000D01*
G01*
X376136Y151476D02*
G03*
X376136Y151476I-113750J0D01*
G01*
X653136D02*
G03*
X653136Y151476I-113750J0D01*
G01*
X801784Y-29982D02*
G03*
X827764Y15018I0J30000D01*
G01*
X759783Y-15982D02*
G03*
X749783Y-5982I-10000J0D01*
G01*
X697066Y-357D02*
G03*
X655284Y-9982I-19783J-9625D01*
G01*
X697066Y-357D02*
G03*
X706059Y-5982I8992J4375D01*
G01*
X408886Y2018D02*
G03*
X392886Y2018I-8000J0D01*
G01*
X146489Y-9982D02*
G03*
X104706Y-357I-22000J0D01*
G01*
X95714Y-5982D02*
G03*
X104706Y-357I0J10000D01*
G01*
X51989Y-5982D02*
G03*
X41989Y-15982I0J-10000D01*
G01*
X-25992Y15018D02*
X374905Y709393D01*
X-11Y-29982D02*
X41989D01*
X426867Y709393D02*
X827764Y15018D01*
X759783Y-29982D02*
X801784D01*
X759783D02*
Y-15982D01*
X706059Y-5982D02*
X749783D01*
X655284Y-24982D02*
Y-9982D01*
X408886Y-24982D02*
X655284D01*
X408886D02*
Y2018D01*
X392886Y-24982D02*
Y2018D01*
X146489Y-24982D02*
X392886D01*
X51989Y-5982D02*
X95714D01*
X146489Y-24982D02*
Y-9982D01*
X41989Y-29982D02*
Y-15982D01*
D82*
X279908Y-2919D02*
X325578D01*
X279908D02*
Y10453D01*
X249682Y39624D02*
X279908D01*
X633476Y91186D02*
X677550D01*
Y60330D02*
Y91186D01*
X646938Y29718D02*
X677550Y60330D01*
X612394Y29718D02*
X646938D01*
X361391Y203065D02*
X366048Y198408D01*
X361391Y203065D02*
Y203243D01*
X461264Y235483D02*
X475221Y249440D01*
X461264Y235483D02*
Y464678D01*
X436992Y488950D02*
X461264Y464678D01*
X366742Y488950D02*
X436992D01*
X366742Y465527D02*
Y488950D01*
Y465527D02*
X417576Y414693D01*
Y259428D02*
Y414693D01*
X361391Y203243D02*
X417576Y259428D01*
X279908Y10453D02*
Y39624D01*
X612394Y12954D02*
Y29718D01*
X478536Y12954D02*
X612394D01*
X446278Y45212D02*
X478536Y12954D01*
X373709Y45212D02*
X446278D01*
X325578Y-2919D02*
X373709Y45212D01*
D123*
X266855Y265226D02*
X275766Y264525D01*
X284595Y263127D01*
X293286Y261040D01*
X301787Y258278D01*
X310045Y254857D01*
X318010Y250799D01*
X325631Y246129D01*
X332862Y240875D01*
X339659Y235070D01*
X345980Y228749D01*
X351785Y221952D01*
X357039Y214721D01*
X361709Y207100D01*
X365767Y199135D01*
X369188Y190877D01*
X371950Y182376D01*
X374036Y173685D01*
X375435Y164856D01*
X376136Y155946D01*
Y151476D02*
Y155946D01*
Y147007D02*
Y151476D01*
X375435Y138096D02*
X376136Y147007D01*
X374036Y129268D02*
X375435Y138096D01*
X371950Y120576D02*
X374036Y129268D01*
X369188Y112075D02*
X371950Y120576D01*
X365767Y103817D02*
X369188Y112075D01*
X361709Y95853D02*
X365767Y103817D01*
X357039Y88231D02*
X361709Y95853D01*
X351785Y81000D02*
X357039Y88231D01*
X345980Y74203D02*
X351785Y81000D01*
X339659Y67883D02*
X345980Y74203D01*
X332862Y62077D02*
X339659Y67883D01*
X325631Y56824D02*
X332862Y62077D01*
X318010Y52153D02*
X325631Y56824D01*
X310045Y48095D02*
X318010Y52153D01*
X301787Y44675D02*
X310045Y48095D01*
X293286Y41912D02*
X301787Y44675D01*
X284595Y39826D02*
X293286Y41912D01*
X275766Y38428D02*
X284595Y39826D01*
X266855Y37726D02*
X275766Y38428D01*
X257917Y37726D02*
X266855D01*
X249006Y38428D02*
X257917Y37726D01*
X240177Y39826D02*
X249006Y38428D01*
X231486Y41912D02*
X240177Y39826D01*
X222985Y44675D02*
X231486Y41912D01*
X214727Y48095D02*
X222985Y44675D01*
X206763Y52153D02*
X214727Y48095D01*
X199141Y56824D02*
X206763Y52153D01*
X191910Y62077D02*
X199141Y56824D01*
X185113Y67883D02*
X191910Y62077D01*
X178792Y74203D02*
X185113Y67883D01*
X172987Y81000D02*
X178792Y74203D01*
X167733Y88231D02*
X172987Y81000D01*
X163063Y95853D02*
X167733Y88231D01*
X159005Y103817D02*
X163063Y95853D01*
X155584Y112075D02*
X159005Y103817D01*
X152822Y120576D02*
X155584Y112075D01*
X150736Y129268D02*
X152822Y120576D01*
X149337Y138096D02*
X150736Y129268D01*
X148636Y147007D02*
X149337Y138096D01*
X148636Y147007D02*
Y151476D01*
Y155946D01*
X149337Y164856D01*
X150736Y173685D01*
X152822Y182376D01*
X155584Y190877D01*
X159005Y199135D01*
X163063Y207100D01*
X167733Y214721D01*
X172987Y221952D01*
X178792Y228749D01*
X185113Y235070D01*
X191910Y240875D01*
X199141Y246129D01*
X206763Y250799D01*
X214727Y254857D01*
X222985Y258278D01*
X231486Y261040D01*
X240177Y263127D01*
X249006Y264525D01*
X257917Y265226D01*
X266855D01*
X543855D02*
X552766Y264525D01*
X561595Y263127D01*
X570286Y261040D01*
X578787Y258278D01*
X587045Y254857D01*
X595010Y250799D01*
X602631Y246129D01*
X609862Y240875D01*
X616659Y235070D01*
X622980Y228749D01*
X628785Y221952D01*
X634039Y214721D01*
X638709Y207100D01*
X642767Y199135D01*
X646188Y190877D01*
X648950Y182376D01*
X651037Y173685D01*
X652435Y164856D01*
X653136Y155946D01*
Y151476D02*
Y155946D01*
Y147007D02*
Y151476D01*
X652435Y138096D02*
X653136Y147007D01*
X651037Y129268D02*
X652435Y138096D01*
X648950Y120576D02*
X651037Y129268D01*
X646188Y112075D02*
X648950Y120576D01*
X642767Y103817D02*
X646188Y112075D01*
X638709Y95853D02*
X642767Y103817D01*
X634039Y88231D02*
X638709Y95853D01*
X628785Y81000D02*
X634039Y88231D01*
X622980Y74203D02*
X628785Y81000D01*
X616659Y67883D02*
X622980Y74203D01*
X609862Y62077D02*
X616659Y67883D01*
X602631Y56824D02*
X609862Y62077D01*
X595010Y52153D02*
X602631Y56824D01*
X587045Y48095D02*
X595010Y52153D01*
X578787Y44675D02*
X587045Y48095D01*
X570286Y41912D02*
X578787Y44675D01*
X561595Y39826D02*
X570286Y41912D01*
X552766Y38428D02*
X561595Y39826D01*
X543855Y37726D02*
X552766Y38428D01*
X534917Y37726D02*
X543855D01*
X526006Y38428D02*
X534917Y37726D01*
X517177Y39826D02*
X526006Y38428D01*
X508486Y41912D02*
X517177Y39826D01*
X499985Y44675D02*
X508486Y41912D01*
X491727Y48095D02*
X499985Y44675D01*
X483763Y52153D02*
X491727Y48095D01*
X476141Y56824D02*
X483763Y52153D01*
X468910Y62077D02*
X476141Y56824D01*
X462113Y67883D02*
X468910Y62077D01*
X455793Y74203D02*
X462113Y67883D01*
X449987Y81000D02*
X455793Y74203D01*
X444734Y88231D02*
X449987Y81000D01*
X440063Y95853D02*
X444734Y88231D01*
X436005Y103817D02*
X440063Y95853D01*
X432584Y112075D02*
X436005Y103817D01*
X429822Y120576D02*
X432584Y112075D01*
X427736Y129268D02*
X429822Y120576D01*
X426337Y138096D02*
X427736Y129268D01*
X425636Y147007D02*
X426337Y138096D01*
X425636Y147007D02*
Y151476D01*
Y155946D01*
X426337Y164856D01*
X427736Y173685D01*
X429822Y182376D01*
X432584Y190877D01*
X436005Y199135D01*
X440063Y207100D01*
X444734Y214721D01*
X449987Y221952D01*
X455793Y228749D01*
X462113Y235070D01*
X468910Y240875D01*
X476141Y246129D01*
X483763Y250799D01*
X491727Y254857D01*
X499985Y258278D01*
X508486Y261040D01*
X517177Y263127D01*
X526006Y264525D01*
X534917Y265226D01*
X543855D01*
X402979Y662043D02*
X407085Y661226D01*
X410952Y659624D01*
X414432Y657299D01*
X417392Y654339D01*
X419718Y650858D01*
X421320Y646991D01*
X422136Y642886D01*
Y640793D02*
Y642886D01*
Y638700D02*
Y640793D01*
X421320Y634594D02*
X422136Y638700D01*
X419718Y630727D02*
X421320Y634594D01*
X417392Y627247D02*
X419718Y630727D01*
X414432Y624287D02*
X417392Y627247D01*
X410952Y621961D02*
X414432Y624287D01*
X407085Y620359D02*
X410952Y621961D01*
X402979Y619543D02*
X407085Y620359D01*
X398793Y619543D02*
X402979D01*
X394688Y620359D02*
X398793Y619543D01*
X390820Y621961D02*
X394688Y620359D01*
X387340Y624287D02*
X390820Y621961D01*
X384380Y627247D02*
X387340Y624287D01*
X382055Y630727D02*
X384380Y627247D01*
X380453Y634594D02*
X382055Y630727D01*
X379636Y638700D02*
X380453Y634594D01*
X379636Y638700D02*
Y640793D01*
Y642886D01*
X380453Y646991D01*
X382055Y650858D01*
X384380Y654339D01*
X387340Y657299D01*
X390820Y659624D01*
X394688Y661226D01*
X398793Y662043D01*
X402979D01*
X403511Y724393D02*
X408680Y723481D01*
X398261Y724393D02*
X403511D01*
X393092Y723481D02*
X398261Y724393D01*
X388159Y721686D02*
X393092Y723481D01*
X383613Y719061D02*
X388159Y721686D01*
X379592Y715687D02*
X383613Y719061D01*
X376218Y711666D02*
X379592Y715687D01*
X374905Y709393D02*
X376218Y711666D01*
X-25992Y15018D02*
X374905Y709393D01*
X-27304Y12745D02*
X-25992Y15018D01*
X-29100Y7812D02*
X-27304Y12745D01*
X-30011Y2643D02*
X-29100Y7812D01*
X-30011Y-2607D02*
Y2643D01*
Y-2607D02*
X-29100Y-7776D01*
X-27304Y-12709D01*
X-24680Y-17255D01*
X-21306Y-21276D01*
X-17284Y-24650D01*
X-12738Y-27275D01*
X-7806Y-29070D01*
X-2636Y-29982D01*
X41989D01*
Y-15982D01*
X42037Y-15002D01*
X42419Y-13079D01*
X43169Y-11268D01*
X44258Y-9638D01*
X45645Y-8252D01*
X47275Y-7163D01*
X49086Y-6413D01*
X51008Y-6030D01*
X51989Y-5982D01*
X97120D01*
X99824Y-5206D01*
X102209Y-3714D01*
X104090Y-1622D01*
X104706Y-357D01*
X105583Y1269D01*
X107732Y4273D01*
X110352Y6875D01*
X113371Y9002D01*
X116702Y10594D01*
X120253Y11607D01*
X123924Y12011D01*
X127611Y11795D01*
X131209Y10966D01*
X134618Y9547D01*
X137742Y7578D01*
X140492Y5114D01*
X142792Y2224D01*
X144576Y-1009D01*
X145793Y-4495D01*
X146411Y-8136D01*
X146489Y-9982D01*
Y-24982D02*
Y-9982D01*
Y-24982D02*
X392886D01*
Y2018D01*
X392954Y3062D01*
X393495Y5079D01*
X394539Y6888D01*
X396016Y8365D01*
X397825Y9409D01*
X399842Y9949D01*
X401930D01*
X403948Y9409D01*
X405756Y8365D01*
X407233Y6888D01*
X408277Y5079D01*
X408818Y3062D01*
X408886Y2018D01*
Y-24982D02*
Y2018D01*
Y-24982D02*
X655284D01*
Y-9982D01*
X655361Y-8136D01*
X655979Y-4495D01*
X657197Y-1009D01*
X658980Y2224D01*
X661280Y5114D01*
X664030Y7578D01*
X667154Y9547D01*
X670563Y10966D01*
X674162Y11795D01*
X677848Y12011D01*
X681519Y11607D01*
X685070Y10594D01*
X688402Y9002D01*
X691420Y6875D01*
X694041Y4273D01*
X696189Y1269D01*
X697066Y-357D01*
X697682Y-1622D01*
X699563Y-3714D01*
X701948Y-5206D01*
X704652Y-5982D01*
X749783D01*
X750764Y-6030D01*
X752686Y-6413D01*
X754498Y-7163D01*
X756127Y-8252D01*
X757514Y-9638D01*
X758603Y-11268D01*
X759353Y-13079D01*
X759735Y-15002D01*
X759783Y-15982D01*
Y-29982D02*
Y-15982D01*
Y-29982D02*
X804408D01*
X809578Y-29070D01*
X814510Y-27275D01*
X819057Y-24650D01*
X823078Y-21276D01*
X826452Y-17255D01*
X829077Y-12709D01*
X830872Y-7776D01*
X831784Y-2607D01*
Y2643D01*
X830872Y7812D02*
X831784Y2643D01*
X829077Y12745D02*
X830872Y7812D01*
X827764Y15018D02*
X829077Y12745D01*
X426867Y709393D02*
X827764Y15018D01*
X425555Y711666D02*
X426867Y709393D01*
X422180Y715687D02*
X425555Y711666D01*
X418159Y719061D02*
X422180Y715687D01*
X413613Y721686D02*
X418159Y719061D01*
X408680Y723481D02*
X413613Y721686D01*
D124*
X405638Y354838D02*
D03*
X395732Y350774D02*
D03*
X379476Y290322D02*
D03*
X368010Y301752D02*
D03*
X368300Y314706D02*
D03*
X368270Y327660D02*
D03*
X629068Y-7112D02*
D03*
X633805Y11380D02*
D03*
X375158Y473202D02*
D03*
X400886Y61214D02*
D03*
X398846Y70104D02*
D03*
X470916Y303016D02*
D03*
X429514Y478028D02*
D03*
X421320Y470634D02*
D03*
X481640Y342646D02*
D03*
D125*
X395248Y328394D02*
D03*
X477068Y21844D02*
D03*
X339344Y299212D02*
D03*
Y310468D02*
D03*
Y321326D02*
D03*
Y331470D02*
D03*
X339598Y342208D02*
D03*
X318770Y296744D02*
D03*
X416306Y49730D02*
D03*
X308787Y548506D02*
D03*
X319024Y564642D02*
D03*
X451698Y45720D02*
D03*
X440690Y52324D02*
D03*
X438150Y36576D02*
D03*
X221031Y23368D02*
D03*
X460756Y36068D02*
D03*
X367538Y51562D02*
D03*
X403098Y51816D02*
D03*
X313182Y6088D02*
D03*
X389595Y31201D02*
D03*
X534180Y-3714D02*
D03*
X367284Y68580D02*
D03*
X340106Y15494D02*
D03*
X355914Y57150D02*
D03*
X356616Y29210D02*
D03*
X356108Y41912D02*
D03*
X343154Y41910D02*
D03*
X472186Y43180D02*
D03*
X484930Y37338D02*
D03*
X473710Y30734D02*
D03*
X474472Y472440D02*
D03*
X447802Y-13548D02*
D03*
X434295Y-12954D02*
D03*
X432700Y1457D02*
D03*
X659638Y21082D02*
D03*
X653034Y13830D02*
D03*
X421249Y10368D02*
D03*
X384556Y68580D02*
D03*
X422402Y-6350D02*
D03*
X451698Y350270D02*
D03*
X461698Y340270D02*
D03*
X441698D02*
D03*
X461698Y360270D02*
D03*
X441698D02*
D03*
D126*
X273558Y20320D02*
D03*
X261620Y20574D02*
D03*
X293878Y4064D02*
D03*
X439198Y67564D02*
D03*
X310642Y570230D02*
D03*
X300228Y553038D02*
D03*
X295148Y15494D02*
D03*
X668528Y60452D02*
D03*
X664815Y73406D02*
D03*
X651256Y80010D02*
D03*
X653034Y67056D02*
D03*
X617982Y-13462D02*
D03*
X618744Y-190D02*
D03*
X622492Y10922D02*
D03*
X368554Y341122D02*
D03*
D127*
X370388Y357770D02*
D03*
X399034Y82042D02*
D03*
X523748Y7242D02*
D03*
X395224Y337820D02*
D03*
X488442Y-15494D02*
D03*
X412496Y17018D02*
D03*
X543623Y-7429D02*
D03*
X551353Y-9687D02*
D03*
X541782Y7175D02*
D03*
X534162Y12397D02*
D03*
X559180Y8128D02*
D03*
X308356Y17780D02*
D03*
X306972Y10734D02*
D03*
X464566Y290068D02*
D03*
X733536Y93202D02*
D03*
X736219Y103251D02*
D03*
X536094Y492252D02*
D03*
X525839Y497637D02*
D03*
X529272Y454914D02*
D03*
X554180Y13656D02*
D03*
X564180Y13462D02*
D03*
X406908Y373380D02*
D03*
X399034Y236220D02*
D03*
X388366Y229870D02*
D03*
X487934Y290322D02*
D03*
X455422Y398272D02*
D03*
X479552Y403860D02*
D03*
X472948Y398272D02*
D03*
X464198Y403352D02*
D03*
X393700Y305308D02*
D03*
X409448Y413258D02*
D03*
X530098Y321564D02*
D03*
X505968Y366584D02*
D03*
X211328Y-11684D02*
D03*
X502158Y304918D02*
D03*
X410392Y90932D02*
D03*
X423926Y85852D02*
D03*
X433070Y77216D02*
D03*
X408686Y496824D02*
D03*
X417392Y497332D02*
D03*
X444198Y321564D02*
D03*
X435543Y320040D02*
D03*
X354838Y486384D02*
D03*
X357632Y494030D02*
D03*
X385572Y502666D02*
D03*
X400558Y494792D02*
D03*
X251714Y382778D02*
D03*
Y395382D02*
D03*
X260350Y389128D02*
D03*
X268986Y383286D02*
D03*
X268224Y395478D02*
D03*
X419936Y329184D02*
D03*
X370840Y265176D02*
D03*
X513842Y404876D02*
D03*
X192532Y23114D02*
D03*
X191994Y-3228D02*
D03*
X487934Y312420D02*
D03*
X452882Y302094D02*
D03*
X387742Y181102D02*
D03*
X403860Y271018D02*
D03*
X399034Y165608D02*
D03*
X403860Y172974D02*
D03*
X456438Y318516D02*
D03*
X555498Y366268D02*
D03*
Y375666D02*
D03*
Y385318D02*
D03*
X546122Y371094D02*
D03*
X546862Y380492D02*
D03*
X538352Y366522D02*
D03*
X538226Y375666D02*
D03*
Y385318D02*
D03*
X411164Y203250D02*
D03*
X411265Y260096D02*
D03*
X596620Y344678D02*
D03*
X586232Y344932D02*
D03*
X592836Y353568D02*
D03*
X586740Y361950D02*
D03*
X253746Y368046D02*
D03*
Y354330D02*
D03*
X236220Y353940D02*
D03*
X245110Y361950D02*
D03*
X235712Y368300D02*
D03*
X227004Y361950D02*
D03*
X354330Y364490D02*
D03*
X394208Y316992D02*
D03*
X487006Y396494D02*
D03*
X480060Y392430D02*
D03*
X490982Y384810D02*
D03*
X477578Y385064D02*
D03*
X484124Y378968D02*
D03*
X490728Y373888D02*
D03*
X477578Y374396D02*
D03*
X464566Y392430D02*
D03*
X450596Y388620D02*
D03*
X452882Y381254D02*
D03*
X366865Y364490D02*
D03*
X514858Y305308D02*
D03*
X529844Y305680D02*
D03*
X520954Y314620D02*
D03*
X509016D02*
D03*
X496062Y314706D02*
D03*
X490914Y339598D02*
D03*
X530352Y332486D02*
D03*
X487680Y366268D02*
D03*
X479552Y364744D02*
D03*
X470662Y380904D02*
D03*
X463038Y385064D02*
D03*
X423418Y362966D02*
D03*
D128*
X0Y0D02*
D03*
M02*
