G04*
G04 #@! TF.GenerationSoftware,Altium Limited,Altium Designer,19.0.12 (326)*
G04*
G04 Layer_Color=16711935*
%FSLAX44Y44*%
%MOMM*%
G71*
G01*
G75*
%ADD12C,0.1000*%
%ADD19C,0.0500*%
D12*
X386760Y487384D02*
G03*
X386760Y487384I-4000J0D01*
G01*
X445698Y361270D02*
G03*
X445698Y361270I-5000J0D01*
G01*
X504182Y451914D02*
Y457914D01*
X493182Y451914D02*
Y457914D01*
Y451914D02*
X504182D01*
X493182Y457914D02*
X504182D01*
Y463852D02*
Y469852D01*
X493182Y463852D02*
Y469852D01*
Y463852D02*
X504182D01*
X493182Y469852D02*
X504182D01*
X299452Y563122D02*
X306380Y559122D01*
X299450Y563121D02*
X315201Y590402D01*
X318579Y588452D02*
X320829Y592349D01*
X315202Y590402D02*
X318579Y588452D01*
X308930Y563538D02*
X327116Y553038D01*
X306380Y559122D02*
X308930Y563538D01*
X324566Y548622D02*
X327116Y553038D01*
X324566Y548622D02*
X331493Y544623D01*
X347243Y571903D01*
X343868Y573852D02*
X347243Y571903D01*
X320829Y592349D02*
X346117Y577748D01*
X319745Y590088D02*
X344867Y575583D01*
X343868Y573852D02*
X346117Y577748D01*
X621237Y18150D02*
X643237D01*
X621237Y32650D02*
X643237D01*
Y18150D02*
Y32650D01*
X621237Y18150D02*
Y32650D01*
X635396Y42213D02*
X650953Y57770D01*
X625143Y52466D02*
X640700Y68023D01*
X650953Y57770D01*
X625143Y52466D02*
X635396Y42213D01*
X292900Y-22998D02*
X348599D01*
X267749Y-17998D02*
Y26002D01*
X373750Y-17998D02*
Y26002D01*
X267749Y-17998D02*
X292900D01*
X348600D02*
X373750D01*
X292900Y-22998D02*
Y-17998D01*
X348600Y-22997D02*
Y-17998D01*
X285749Y25502D02*
X355749D01*
Y26002D02*
X373750D01*
X267749Y26002D02*
X285749D01*
Y25502D02*
Y26002D01*
X355749Y25502D02*
Y26002D01*
X374760Y473884D02*
Y495384D01*
X396260Y473884D02*
Y495384D01*
X374760D02*
X396260D01*
X374760Y473884D02*
X396260D01*
X421434Y66382D02*
X427434D01*
X421434Y77382D02*
X427434D01*
X421434Y66382D02*
Y77382D01*
X427434Y66382D02*
Y77382D01*
X458264Y299046D02*
Y310046D01*
X464264Y299046D02*
Y310046D01*
X458264Y299046D02*
X464264D01*
X458264Y310046D02*
X464264D01*
X635342Y-15954D02*
X646342D01*
X635342Y-9954D02*
X646342D01*
Y-15954D02*
Y-9954D01*
X635342Y-15954D02*
Y-9954D01*
X211494Y-6228D02*
Y-228D01*
X200494Y-6228D02*
Y-228D01*
Y-6228D02*
X211494D01*
X200494Y-228D02*
X211494D01*
X200620Y20276D02*
Y26276D01*
X211620Y20276D02*
Y26276D01*
X200620D02*
X211620D01*
X200620Y20276D02*
X211620D01*
X499772Y324748D02*
X526772D01*
X499772Y358748D02*
X526772D01*
X499772Y324748D02*
Y358748D01*
X526772Y324748D02*
Y358748D01*
X197994Y6497D02*
X213994D01*
Y14497D01*
X197994D02*
X213994D01*
X197994Y6497D02*
Y14497D01*
X418324Y489234D02*
X424324D01*
X418324Y478234D02*
X424324D01*
Y489234D01*
X418324Y478234D02*
Y489234D01*
X406640Y478234D02*
X412640D01*
X406640Y489234D02*
X412640D01*
X406640Y478234D02*
Y489234D01*
X412640Y478234D02*
Y489234D01*
X521856Y412474D02*
Y441474D01*
X475856Y412474D02*
Y441474D01*
Y412474D02*
X521856D01*
X475856Y441474D02*
X521856D01*
X377532Y354378D02*
Y360378D01*
X388532Y354378D02*
Y360378D01*
X377532D02*
X388532D01*
X377532Y354378D02*
X388532D01*
X401688Y342208D02*
X412688D01*
X401688Y336208D02*
X412688D01*
X401688D02*
Y342208D01*
X412688Y336208D02*
Y342208D01*
X401688Y314276D02*
Y320276D01*
X412688Y314276D02*
Y320276D01*
X401688D02*
X412688D01*
X401688Y314276D02*
X412688D01*
X412688Y325394D02*
Y331394D01*
X401688Y325394D02*
Y331394D01*
Y325394D02*
X412688D01*
X401688Y331394D02*
X412688D01*
X484680Y319326D02*
Y330326D01*
X490680Y319326D02*
Y330326D01*
X484680Y319326D02*
X490680D01*
X484680Y330326D02*
X490680D01*
X442379Y299418D02*
X448379D01*
X442379Y310418D02*
X448379D01*
X442379Y299418D02*
Y310418D01*
X448379Y299418D02*
Y310418D01*
X401854Y299886D02*
Y305886D01*
X412854Y299886D02*
Y305886D01*
X401854D02*
X412854D01*
X401854Y299886D02*
X412854D01*
X432035Y310468D02*
X438035D01*
X432035Y299468D02*
X438035D01*
Y310468D01*
X432035Y299468D02*
Y310468D01*
X421497D02*
X427497D01*
X421497Y299468D02*
X427497D01*
Y310468D01*
X421497Y299468D02*
Y310468D01*
X431698Y330270D02*
X471698D01*
X431698Y370270D02*
X471698D01*
Y330270D02*
Y370270D01*
X431698Y330270D02*
Y370270D01*
D19*
X422136Y640793D02*
G03*
X422136Y640793I-21250J0D01*
G01*
X426867Y709393D02*
G03*
X374905Y709393I-25981J-15000D01*
G01*
X-25992Y15018D02*
G03*
X-11Y-29982I25981J-15000D01*
G01*
X376136Y151476D02*
G03*
X376136Y151476I-113750J0D01*
G01*
X653136D02*
G03*
X653136Y151476I-113750J0D01*
G01*
X801784Y-29982D02*
G03*
X827764Y15018I0J30000D01*
G01*
X759783Y-15982D02*
G03*
X749783Y-5982I-10000J0D01*
G01*
X697066Y-357D02*
G03*
X655284Y-9982I-19783J-9625D01*
G01*
X697066Y-357D02*
G03*
X706059Y-5982I8992J4375D01*
G01*
X408886Y2018D02*
G03*
X392886Y2018I-8000J0D01*
G01*
X146489Y-9982D02*
G03*
X104706Y-357I-22000J0D01*
G01*
X95714Y-5982D02*
G03*
X104706Y-357I0J10000D01*
G01*
X51989Y-5982D02*
G03*
X41989Y-15982I0J-10000D01*
G01*
X-25992Y15018D02*
X374905Y709393D01*
X-11Y-29982D02*
X41989D01*
X426867Y709393D02*
X827764Y15018D01*
X759783Y-29982D02*
X801784D01*
X759783D02*
Y-15982D01*
X706059Y-5982D02*
X749783D01*
X655284Y-24982D02*
Y-9982D01*
X408886Y-24982D02*
X655284D01*
X408886D02*
Y2018D01*
X392886Y-24982D02*
Y2018D01*
X146489Y-24982D02*
X392886D01*
X51989Y-5982D02*
X95714D01*
X146489Y-24982D02*
Y-9982D01*
X41989Y-29982D02*
Y-15982D01*
M02*
