M48
;Layer_Color=9474304
;FILE_FORMAT=4:4
METRIC,TZ
;TYPE=PLATED
T1F00S00C0.2032
T2F00S00C0.2540
%
T01
X55925Y15410
X64910Y77266
X75578Y64772
X82182Y68884
X87262Y43738
X117516Y54019
X130628Y48097
X132728Y63256
X143128Y73656
X153528Y84056
X168796Y89204
X171110Y81157
X168062Y76157
X166497Y98094
X150628Y102199
X145628Y99405
X141138Y103913
X135804Y107533
X132728Y84056
X113198Y99341
X88457Y100634
X79642Y107238
X153528Y63256
X186096Y52161
X192192Y57495
X200066
X283764Y154388
X282566Y266007
X287508Y274048
X292507Y279214
X297507Y274643
X302508Y279214
X307508Y274932
X312507Y279214
X317507Y274643
X322508Y279214
X327508Y274932
X282566Y279336
X277507Y276034
X272507Y279214
X120616Y229279
X80309Y248582
X630728Y304716
X550346Y464160
X218058Y465377
X271341Y620185
X279445Y621963
X281985Y628567
X288081Y624319
X300273Y637202
X311703Y636694
X317507Y641520
X354325Y648957
X372105Y640067
X399537Y651497
X360218Y689527
X411272Y741088
X395652Y1072812
T02
X311745Y17951
X65114Y118499
X50940Y120192
X109529Y74529
X163716Y40182
X182925
X257348Y95626
X322371Y57495
X407145Y49193
X480774Y40810
X384602Y1000930
X365298Y1000169
X371089Y992803
X358947Y993056
X378506Y1018710
X371903Y1037717
X381045Y1042714
M30
