G04*
G04 #@! TF.GenerationSoftware,Altium Limited,Altium Designer,19.0.12 (326)*
G04*
G04 Layer_Color=8388736*
%FSLAX44Y44*%
%MOMM*%
G71*
G01*
G75*
%ADD11C,0.1270*%
%ADD13C,0.1778*%
%ADD31C,0.2540*%
%ADD42C,0.2000*%
D11*
X2755646Y-960120D02*
X2806446D01*
X2755646Y246380D02*
X2806446D01*
X2171446Y798830D02*
Y849630D01*
X1536446Y798830D02*
Y849630D01*
X901446Y798830D02*
Y849630D01*
X266446Y798830D02*
Y849630D01*
X-368554Y798830D02*
Y849630D01*
X-1003554Y246380D02*
X-952754D01*
X-1003554Y-356870D02*
X-952754D01*
X-1003554Y-960120D02*
X-952754D01*
X-368554Y-1563370D02*
Y-1512570D01*
X266446Y-1563370D02*
Y-1512570D01*
X2171446Y-1563370D02*
Y-1512570D01*
X901446Y-1563370D02*
Y-1512570D01*
X1536446Y-1563370D02*
Y-1512570D01*
X2659844Y-1513132D02*
Y-1436932D01*
X1884394Y-1513132D02*
Y-1208332D01*
X1771394Y-1513382D02*
Y-1208582D01*
X1612444Y-1262532D02*
X1884394D01*
X1612444Y-1316082D02*
X1884394D01*
X1612444Y-1375532D02*
X1884394D01*
X1612444Y-1513132D02*
Y-1208332D01*
X1256844Y-1513132D02*
Y-1208332D01*
X1612444D01*
X1993444D01*
X1970744D02*
X2755444D01*
X1612444Y-1436932D02*
X2755444D01*
X1256844Y-1513132D02*
X1612444D01*
X1256844D02*
X1612444D01*
X1612646Y-1512570D02*
X2755646D01*
X1612444Y-1513132D02*
X2755444D01*
X1612444D02*
X2755444D01*
X-1003554Y-1563370D02*
X2806446D01*
X-952754Y-1512570D02*
X2755646D01*
X-1003554Y-1563370D02*
Y849630D01*
X-952754Y-1512570D02*
Y798830D01*
X-1003554Y849630D02*
X2806446D01*
X-952754Y798830D02*
X2755646D01*
X1884394Y-1343732D02*
X2755406D01*
X2755444Y-1513132D02*
Y-1208332D01*
Y-1513132D02*
Y-1208332D01*
X2755646Y-1512570D02*
Y-1207770D01*
X2806446Y-1563370D02*
Y849630D01*
X2755646Y-1512570D02*
Y798830D01*
X1779144Y-1212704D02*
Y-1224132D01*
Y-1212704D02*
X1782953D01*
X1784586Y-1213249D01*
X1785674Y-1214337D01*
X1786218Y-1215425D01*
X1786762Y-1217058D01*
Y-1219779D01*
X1786218Y-1221411D01*
X1785674Y-1222499D01*
X1784586Y-1223588D01*
X1782953Y-1224132D01*
X1779144D01*
X1798027D02*
X1793673Y-1212704D01*
X1789320Y-1224132D01*
X1790952Y-1220323D02*
X1796394D01*
X1804502Y-1212704D02*
Y-1224132D01*
X1800693Y-1212704D02*
X1808311D01*
X1816746D02*
X1809672D01*
Y-1224132D01*
X1816746D01*
X1809672Y-1218146D02*
X1814025D01*
X1819195Y-1216514D02*
X1818651Y-1217058D01*
X1819195Y-1217602D01*
X1819739Y-1217058D01*
X1819195Y-1216514D01*
Y-1223044D02*
X1818651Y-1223588D01*
X1819195Y-1224132D01*
X1819739Y-1223588D01*
X1819195Y-1223044D01*
X1776144Y-1267704D02*
Y-1279132D01*
Y-1267704D02*
X1779953D01*
X1781586Y-1268249D01*
X1782674Y-1269337D01*
X1783218Y-1270425D01*
X1783762Y-1272058D01*
Y-1274779D01*
X1783218Y-1276411D01*
X1782674Y-1277499D01*
X1781586Y-1278588D01*
X1779953Y-1279132D01*
X1776144D01*
X1795027D02*
X1790673Y-1267704D01*
X1786320Y-1279132D01*
X1787953Y-1275323D02*
X1793394D01*
X1801502Y-1267704D02*
Y-1279132D01*
X1797693Y-1267704D02*
X1805311D01*
X1813746D02*
X1806672D01*
Y-1279132D01*
X1813746D01*
X1806672Y-1273146D02*
X1811025D01*
X1816195Y-1271514D02*
X1815651Y-1272058D01*
X1816195Y-1272602D01*
X1816739Y-1272058D01*
X1816195Y-1271514D01*
Y-1278044D02*
X1815651Y-1278588D01*
X1816195Y-1279132D01*
X1816739Y-1278588D01*
X1816195Y-1278044D01*
X1776144Y-1321704D02*
Y-1333132D01*
Y-1321704D02*
X1779953D01*
X1781586Y-1322249D01*
X1782674Y-1323337D01*
X1783218Y-1324425D01*
X1783762Y-1326058D01*
Y-1328779D01*
X1783218Y-1330411D01*
X1782674Y-1331499D01*
X1781586Y-1332588D01*
X1779953Y-1333132D01*
X1776144D01*
X1795027D02*
X1790673Y-1321704D01*
X1786320Y-1333132D01*
X1787953Y-1329323D02*
X1793394D01*
X1801502Y-1321704D02*
Y-1333132D01*
X1797693Y-1321704D02*
X1805311D01*
X1813746D02*
X1806672D01*
Y-1333132D01*
X1813746D01*
X1806672Y-1327146D02*
X1811025D01*
X1816195Y-1325514D02*
X1815651Y-1326058D01*
X1816195Y-1326602D01*
X1816739Y-1326058D01*
X1816195Y-1325514D01*
Y-1332044D02*
X1815651Y-1332588D01*
X1816195Y-1333132D01*
X1816739Y-1332588D01*
X1816195Y-1332044D01*
X1780144Y-1382704D02*
Y-1394132D01*
Y-1382704D02*
X1783953D01*
X1785586Y-1383249D01*
X1786674Y-1384337D01*
X1787218Y-1385425D01*
X1787762Y-1387058D01*
Y-1389779D01*
X1787218Y-1391411D01*
X1786674Y-1392500D01*
X1785586Y-1393588D01*
X1783953Y-1394132D01*
X1780144D01*
X1799027D02*
X1794673Y-1382704D01*
X1790320Y-1394132D01*
X1791953Y-1390323D02*
X1797394D01*
X1805502Y-1382704D02*
Y-1394132D01*
X1801693Y-1382704D02*
X1809312D01*
X1817746D02*
X1810672D01*
Y-1394132D01*
X1817746D01*
X1810672Y-1388146D02*
X1815025D01*
X1820195Y-1386514D02*
X1819651Y-1387058D01*
X1820195Y-1387602D01*
X1820739Y-1387058D01*
X1820195Y-1386514D01*
Y-1393044D02*
X1819651Y-1393588D01*
X1820195Y-1394132D01*
X1820739Y-1393588D01*
X1820195Y-1393044D01*
X1896144Y-1443904D02*
Y-1455332D01*
Y-1443904D02*
X1899953D01*
X1901586Y-1444449D01*
X1902674Y-1445537D01*
X1903218Y-1446625D01*
X1903762Y-1448258D01*
Y-1450979D01*
X1903218Y-1452611D01*
X1902674Y-1453699D01*
X1901586Y-1454788D01*
X1899953Y-1455332D01*
X1896144D01*
X1906320Y-1443904D02*
X1909041Y-1455332D01*
X1911762Y-1443904D02*
X1909041Y-1455332D01*
X1911762Y-1443904D02*
X1914483Y-1455332D01*
X1917203Y-1443904D02*
X1914483Y-1455332D01*
X1927651Y-1446625D02*
X1927107Y-1445537D01*
X1926019Y-1444449D01*
X1924931Y-1443904D01*
X1922754D01*
X1921665Y-1444449D01*
X1920577Y-1445537D01*
X1920033Y-1446625D01*
X1919489Y-1448258D01*
Y-1450979D01*
X1920033Y-1452611D01*
X1920577Y-1453699D01*
X1921665Y-1454788D01*
X1922754Y-1455332D01*
X1924931D01*
X1926019Y-1454788D01*
X1927107Y-1453699D01*
X1927651Y-1452611D01*
Y-1450979D01*
X1924931D02*
X1927651D01*
X1939242Y-1443904D02*
Y-1455332D01*
Y-1443904D02*
X1946861Y-1455332D01*
Y-1443904D02*
Y-1455332D01*
X1953282Y-1443904D02*
X1952193Y-1444449D01*
X1951105Y-1445537D01*
X1950561Y-1446625D01*
X1950017Y-1448258D01*
Y-1450979D01*
X1950561Y-1452611D01*
X1951105Y-1453699D01*
X1952193Y-1454788D01*
X1953282Y-1455332D01*
X1955458D01*
X1956547Y-1454788D01*
X1957635Y-1453699D01*
X1958179Y-1452611D01*
X1958723Y-1450979D01*
Y-1448258D01*
X1958179Y-1446625D01*
X1957635Y-1445537D01*
X1956547Y-1444449D01*
X1955458Y-1443904D01*
X1953282D01*
X1961934Y-1447714D02*
X1961390Y-1448258D01*
X1961934Y-1448802D01*
X1962478Y-1448258D01*
X1961934Y-1447714D01*
Y-1454244D02*
X1961390Y-1454788D01*
X1961934Y-1455332D01*
X1962478Y-1454788D01*
X1961934Y-1454244D01*
X1789162Y-1443537D02*
X1788074Y-1442449D01*
X1786441Y-1441904D01*
X1784265D01*
X1782632Y-1442449D01*
X1781544Y-1443537D01*
Y-1444625D01*
X1782088Y-1445714D01*
X1782632Y-1446258D01*
X1783721Y-1446802D01*
X1786986Y-1447890D01*
X1788074Y-1448434D01*
X1788618Y-1448979D01*
X1789162Y-1450067D01*
Y-1451700D01*
X1788074Y-1452788D01*
X1786441Y-1453332D01*
X1784265D01*
X1782632Y-1452788D01*
X1781544Y-1451700D01*
X1799883Y-1444625D02*
X1799338Y-1443537D01*
X1798250Y-1442449D01*
X1797162Y-1441904D01*
X1794985D01*
X1793897Y-1442449D01*
X1792808Y-1443537D01*
X1792264Y-1444625D01*
X1791720Y-1446258D01*
Y-1448979D01*
X1792264Y-1450611D01*
X1792808Y-1451700D01*
X1793897Y-1452788D01*
X1794985Y-1453332D01*
X1797162D01*
X1798250Y-1452788D01*
X1799338Y-1451700D01*
X1799883Y-1450611D01*
X1811800Y-1453332D02*
X1807446Y-1441904D01*
X1803093Y-1453332D01*
X1804726Y-1449523D02*
X1810167D01*
X1814466Y-1441904D02*
Y-1453332D01*
X1820996D01*
X1829322Y-1441904D02*
X1822248D01*
Y-1453332D01*
X1829322D01*
X1822248Y-1447346D02*
X1826601D01*
X1831771Y-1445714D02*
X1831227Y-1446258D01*
X1831771Y-1446802D01*
X1832315Y-1446258D01*
X1831771Y-1445714D01*
Y-1452244D02*
X1831227Y-1452788D01*
X1831771Y-1453332D01*
X1832315Y-1452788D01*
X1831771Y-1452244D01*
X2601388Y-1491904D02*
X2600299Y-1492449D01*
X2599211Y-1493537D01*
X2598667Y-1494625D01*
X2598123Y-1496258D01*
Y-1498979D01*
X2598667Y-1500611D01*
X2599211Y-1501700D01*
X2600299Y-1502788D01*
X2601388Y-1503332D01*
X2603564D01*
X2604653Y-1502788D01*
X2605741Y-1501700D01*
X2606285Y-1500611D01*
X2606830Y-1498979D01*
Y-1496258D01*
X2606285Y-1494625D01*
X2605741Y-1493537D01*
X2604653Y-1492449D01*
X2603564Y-1491904D01*
X2601388D01*
X2609496D02*
Y-1503332D01*
Y-1491904D02*
X2616570D01*
X2609496Y-1497346D02*
X2613849D01*
X2529762Y-1493537D02*
X2528674Y-1492449D01*
X2527041Y-1491904D01*
X2524865D01*
X2523232Y-1492449D01*
X2522144Y-1493537D01*
Y-1494625D01*
X2522688Y-1495714D01*
X2523232Y-1496258D01*
X2524321Y-1496802D01*
X2527586Y-1497890D01*
X2528674Y-1498434D01*
X2529218Y-1498979D01*
X2529762Y-1500067D01*
Y-1501700D01*
X2528674Y-1502788D01*
X2527041Y-1503332D01*
X2524865D01*
X2523232Y-1502788D01*
X2522144Y-1501700D01*
X2532320Y-1491904D02*
Y-1503332D01*
X2539938Y-1491904D02*
Y-1503332D01*
X2532320Y-1497346D02*
X2539938D01*
X2550169Y-1491904D02*
X2543094D01*
Y-1503332D01*
X2550169D01*
X2543094Y-1497346D02*
X2547448D01*
X2559147Y-1491904D02*
X2552073D01*
Y-1503332D01*
X2559147D01*
X2552073Y-1497346D02*
X2556427D01*
X2564861Y-1491904D02*
Y-1503332D01*
X2561052Y-1491904D02*
X2568670D01*
X2665544Y-1441704D02*
Y-1453132D01*
Y-1441704D02*
X2670442D01*
X2672074Y-1442249D01*
X2672618Y-1442793D01*
X2673163Y-1443881D01*
Y-1444969D01*
X2672618Y-1446058D01*
X2672074Y-1446602D01*
X2670442Y-1447146D01*
X2665544D01*
X2669353D02*
X2673163Y-1453132D01*
X2682794Y-1441704D02*
X2675720D01*
Y-1453132D01*
X2682794D01*
X2675720Y-1447146D02*
X2680073D01*
X2684699Y-1441704D02*
X2689052Y-1453132D01*
X2693405Y-1441704D02*
X2689052Y-1453132D01*
X2695419Y-1445514D02*
X2694875Y-1446058D01*
X2695419Y-1446602D01*
X2695963Y-1446058D01*
X2695419Y-1445514D01*
Y-1452044D02*
X2694875Y-1452588D01*
X2695419Y-1453132D01*
X2695963Y-1452588D01*
X2695419Y-1452044D01*
X1901356Y-1348492D02*
Y-1359920D01*
X1897547Y-1348492D02*
X1905165D01*
X1906526D02*
Y-1359920D01*
X1912729Y-1348492D02*
Y-1359920D01*
X1908920Y-1348492D02*
X1916538D01*
X1917899D02*
Y-1359920D01*
X1924429D01*
X1932755Y-1348492D02*
X1925680D01*
Y-1359920D01*
X1932755D01*
X1925680Y-1353934D02*
X1930034D01*
X1935203Y-1352302D02*
X1934659Y-1352846D01*
X1935203Y-1353390D01*
X1935747Y-1352846D01*
X1935203Y-1352302D01*
Y-1358832D02*
X1934659Y-1359376D01*
X1935203Y-1359920D01*
X1935747Y-1359376D01*
X1935203Y-1358832D01*
X1627762Y-1446337D02*
X1626674Y-1445249D01*
X1625042Y-1444704D01*
X1622865D01*
X1621232Y-1445249D01*
X1620144Y-1446337D01*
Y-1447425D01*
X1620688Y-1448514D01*
X1621232Y-1449058D01*
X1622321Y-1449602D01*
X1625586Y-1450690D01*
X1626674Y-1451234D01*
X1627218Y-1451779D01*
X1627762Y-1452867D01*
Y-1454500D01*
X1626674Y-1455588D01*
X1625042Y-1456132D01*
X1622865D01*
X1621232Y-1455588D01*
X1620144Y-1454500D01*
X1630320Y-1444704D02*
Y-1456132D01*
X1640333Y-1444704D02*
X1632714Y-1456132D01*
Y-1444704D02*
X1640333D01*
X1632714Y-1456132D02*
X1640333D01*
X1649964Y-1444704D02*
X1642890D01*
Y-1456132D01*
X1649964D01*
X1642890Y-1450146D02*
X1647244D01*
X1620144Y-1380905D02*
Y-1392332D01*
Y-1380905D02*
X1625042D01*
X1626674Y-1381449D01*
X1627218Y-1381993D01*
X1627762Y-1383081D01*
Y-1384169D01*
X1627218Y-1385258D01*
X1626674Y-1385802D01*
X1625042Y-1386346D01*
X1620144D01*
X1623953D02*
X1627762Y-1392332D01*
X1637394Y-1380905D02*
X1630320D01*
Y-1392332D01*
X1637394D01*
X1630320Y-1386346D02*
X1634673D01*
X1639299Y-1380905D02*
Y-1392332D01*
X1645829D01*
X1625307Y-1324955D02*
X1624762Y-1323867D01*
X1623674Y-1322779D01*
X1622586Y-1322234D01*
X1620409D01*
X1619321Y-1322779D01*
X1618232Y-1323867D01*
X1617688Y-1324955D01*
X1617144Y-1326588D01*
Y-1329309D01*
X1617688Y-1330941D01*
X1618232Y-1332030D01*
X1619321Y-1333118D01*
X1620409Y-1333662D01*
X1622586D01*
X1623674Y-1333118D01*
X1624762Y-1332030D01*
X1625307Y-1330941D01*
X1628517Y-1322234D02*
Y-1333662D01*
X1636136Y-1322234D02*
Y-1333662D01*
X1628517Y-1327676D02*
X1636136D01*
X1646366Y-1322234D02*
X1639292D01*
Y-1333662D01*
X1646366D01*
X1639292Y-1327676D02*
X1643645D01*
X1656433Y-1324955D02*
X1655889Y-1323867D01*
X1654801Y-1322779D01*
X1653712Y-1322234D01*
X1651535D01*
X1650447Y-1322779D01*
X1649359Y-1323867D01*
X1648815Y-1324955D01*
X1648270Y-1326588D01*
Y-1329309D01*
X1648815Y-1330941D01*
X1649359Y-1332030D01*
X1650447Y-1333118D01*
X1651535Y-1333662D01*
X1653712D01*
X1654801Y-1333118D01*
X1655889Y-1332030D01*
X1656433Y-1330941D01*
X1659644Y-1322234D02*
Y-1333662D01*
X1667262Y-1322234D02*
X1659644Y-1329853D01*
X1662364Y-1327132D02*
X1667262Y-1333662D01*
X1617144Y-1273220D02*
X1622041D01*
X1623674Y-1272676D01*
X1624218Y-1272132D01*
X1624762Y-1271044D01*
Y-1269411D01*
X1624218Y-1268323D01*
X1623674Y-1267779D01*
X1622041Y-1267234D01*
X1617144D01*
Y-1278662D01*
X1635482Y-1269955D02*
X1634938Y-1268867D01*
X1633850Y-1267779D01*
X1632762Y-1267234D01*
X1630585D01*
X1629497Y-1267779D01*
X1628408Y-1268867D01*
X1627864Y-1269955D01*
X1627320Y-1271588D01*
Y-1274309D01*
X1627864Y-1275941D01*
X1628408Y-1277029D01*
X1629497Y-1278118D01*
X1630585Y-1278662D01*
X1632762D01*
X1633850Y-1278118D01*
X1634938Y-1277029D01*
X1635482Y-1275941D01*
X1638693Y-1267234D02*
Y-1278662D01*
Y-1267234D02*
X1643591D01*
X1645223Y-1267779D01*
X1645767Y-1268323D01*
X1646311Y-1269411D01*
Y-1270499D01*
X1645767Y-1271588D01*
X1645223Y-1272132D01*
X1643591Y-1272676D01*
X1638693D02*
X1643591D01*
X1645223Y-1273220D01*
X1645767Y-1273764D01*
X1646311Y-1274853D01*
Y-1276485D01*
X1645767Y-1277574D01*
X1645223Y-1278118D01*
X1643591Y-1278662D01*
X1638693D01*
X1657848Y-1267234D02*
Y-1278662D01*
Y-1267234D02*
X1661657D01*
X1663289Y-1267779D01*
X1664378Y-1268867D01*
X1664922Y-1269955D01*
X1665466Y-1271588D01*
Y-1274309D01*
X1664922Y-1275941D01*
X1664378Y-1277029D01*
X1663289Y-1278118D01*
X1661657Y-1278662D01*
X1657848D01*
X1675098Y-1267234D02*
X1668024D01*
Y-1278662D01*
X1675098D01*
X1668024Y-1272676D02*
X1672377D01*
X1684621Y-1268867D02*
X1683533Y-1267779D01*
X1681900Y-1267234D01*
X1679723D01*
X1678091Y-1267779D01*
X1677003Y-1268867D01*
Y-1269955D01*
X1677547Y-1271044D01*
X1678091Y-1271588D01*
X1679179Y-1272132D01*
X1682444Y-1273220D01*
X1683533Y-1273764D01*
X1684077Y-1274309D01*
X1684621Y-1275397D01*
Y-1277029D01*
X1683533Y-1278118D01*
X1681900Y-1278662D01*
X1679723D01*
X1678091Y-1278118D01*
X1677003Y-1277029D01*
X1687178Y-1267234D02*
Y-1278662D01*
X1697735Y-1269955D02*
X1697191Y-1268867D01*
X1696103Y-1267779D01*
X1695014Y-1267234D01*
X1692838D01*
X1691750Y-1267779D01*
X1690661Y-1268867D01*
X1690117Y-1269955D01*
X1689573Y-1271588D01*
Y-1274309D01*
X1690117Y-1275941D01*
X1690661Y-1277029D01*
X1691750Y-1278118D01*
X1692838Y-1278662D01*
X1695014D01*
X1696103Y-1278118D01*
X1697191Y-1277029D01*
X1697735Y-1275941D01*
Y-1274309D01*
X1695014D02*
X1697735D01*
X1700347Y-1267234D02*
Y-1278662D01*
Y-1267234D02*
X1707966Y-1278662D01*
Y-1267234D02*
Y-1278662D01*
X1718196Y-1267234D02*
X1711122D01*
Y-1278662D01*
X1718196D01*
X1711122Y-1272676D02*
X1715475D01*
X1720101Y-1267234D02*
Y-1278662D01*
Y-1267234D02*
X1724998D01*
X1726631Y-1267779D01*
X1727175Y-1268323D01*
X1727719Y-1269411D01*
Y-1270499D01*
X1727175Y-1271588D01*
X1726631Y-1272132D01*
X1724998Y-1272676D01*
X1720101D01*
X1723910D02*
X1727719Y-1278662D01*
X1730821Y-1271044D02*
X1730277Y-1271588D01*
X1730821Y-1272132D01*
X1731365Y-1271588D01*
X1730821Y-1271044D01*
Y-1277574D02*
X1730277Y-1278118D01*
X1730821Y-1278662D01*
X1731365Y-1278118D01*
X1730821Y-1277574D01*
X1625218Y-1214305D02*
X1618144D01*
Y-1225732D01*
X1625218D01*
X1618144Y-1219746D02*
X1622497D01*
X1627123Y-1214305D02*
Y-1225732D01*
Y-1214305D02*
X1634741Y-1225732D01*
Y-1214305D02*
Y-1225732D01*
X1646060Y-1217025D02*
X1645516Y-1215937D01*
X1644427Y-1214849D01*
X1643339Y-1214305D01*
X1641162D01*
X1640074Y-1214849D01*
X1638986Y-1215937D01*
X1638441Y-1217025D01*
X1637897Y-1218658D01*
Y-1221379D01*
X1638441Y-1223011D01*
X1638986Y-1224100D01*
X1640074Y-1225188D01*
X1641162Y-1225732D01*
X1643339D01*
X1644427Y-1225188D01*
X1645516Y-1224100D01*
X1646060Y-1223011D01*
Y-1221379D01*
X1643339D02*
X1646060D01*
X1648672Y-1214305D02*
Y-1225732D01*
X1651066Y-1214305D02*
Y-1225732D01*
Y-1214305D02*
X1658685Y-1225732D01*
Y-1214305D02*
Y-1225732D01*
X1668915Y-1214305D02*
X1661841D01*
Y-1225732D01*
X1668915D01*
X1661841Y-1219746D02*
X1666194D01*
X1677894Y-1214305D02*
X1670820D01*
Y-1225732D01*
X1677894D01*
X1670820Y-1219746D02*
X1675173D01*
X1679798Y-1214305D02*
Y-1225732D01*
Y-1214305D02*
X1684696D01*
X1686328Y-1214849D01*
X1686873Y-1215393D01*
X1687417Y-1216481D01*
Y-1217570D01*
X1686873Y-1218658D01*
X1686328Y-1219202D01*
X1684696Y-1219746D01*
X1679798D01*
X1683608D02*
X1687417Y-1225732D01*
X1690518Y-1218114D02*
X1689974Y-1218658D01*
X1690518Y-1219202D01*
X1691063Y-1218658D01*
X1690518Y-1218114D01*
Y-1224644D02*
X1689974Y-1225188D01*
X1690518Y-1225732D01*
X1691063Y-1225188D01*
X1690518Y-1224644D01*
X1707500Y43640D02*
G03*
X1701140Y50000I-6360J0D01*
G01*
X1682500Y-5000D02*
G03*
X1677500Y0I-5000J0D01*
G01*
Y-15922D02*
G03*
X1682500Y-10922I0J5000D01*
G01*
X1657096Y-15922D02*
G03*
X1652528Y-20320I-85J-4483D01*
G01*
X1702500Y-33702D02*
G03*
X1707500Y-28702I0J5000D01*
G01*
X1681734Y-33702D02*
G03*
X1677528Y-38608I350J-4556D01*
G01*
X1652528Y-129568D02*
X1677528D01*
Y-38608D01*
X1682500Y50000D02*
X1701140D01*
X1677500Y0D02*
X1677500D01*
X1652528Y-129568D02*
Y-20320D01*
X1597500Y50000D02*
X1682500D01*
X0D02*
X1597500D01*
X0Y-0D02*
X1677500Y0D01*
X0D02*
Y50000D01*
X1682500Y-10922D02*
Y-5000D01*
X1657096Y-15922D02*
X1677500D01*
X1707500Y-27686D02*
Y43640D01*
X1681734Y-33702D02*
X1702500D01*
D13*
X2787393Y-667938D02*
X2786547Y-666245D01*
X2784854Y-664552D01*
X2783161Y-663706D01*
X2779775D01*
X2778082Y-664552D01*
X2776389Y-666245D01*
X2775543Y-667938D01*
X2774696Y-670478D01*
Y-674710D01*
X2775543Y-677250D01*
X2776389Y-678942D01*
X2778082Y-680636D01*
X2779775Y-681482D01*
X2783161D01*
X2784854Y-680636D01*
X2786547Y-678942D01*
X2787393Y-677250D01*
X2774696Y-60456D02*
Y-78232D01*
Y-60456D02*
X2782314D01*
X2784854Y-61302D01*
X2785700Y-62149D01*
X2786547Y-63842D01*
Y-65535D01*
X2785700Y-67228D01*
X2784854Y-68074D01*
X2782314Y-68921D01*
X2774696D02*
X2782314D01*
X2784854Y-69767D01*
X2785700Y-70614D01*
X2786547Y-72307D01*
Y-74846D01*
X2785700Y-76539D01*
X2784854Y-77386D01*
X2782314Y-78232D01*
X2774696D01*
X2788240Y526288D02*
X2781468Y544064D01*
X2774696Y526288D01*
X2777235Y532213D02*
X2785700D01*
X2493262Y831847D02*
X2492415Y833540D01*
X2489876Y834386D01*
X2488183D01*
X2485643Y833540D01*
X2483951Y831000D01*
X2483104Y826768D01*
Y822535D01*
X2483951Y819149D01*
X2485643Y817457D01*
X2488183Y816610D01*
X2489029D01*
X2491569Y817457D01*
X2493262Y819149D01*
X2494108Y821689D01*
Y822535D01*
X2493262Y825075D01*
X2491569Y826768D01*
X2489029Y827614D01*
X2488183D01*
X2485643Y826768D01*
X2483951Y825075D01*
X2483104Y822535D01*
X1856992Y834386D02*
X1848527D01*
X1847681Y826768D01*
X1848527Y827614D01*
X1851066Y828461D01*
X1853606D01*
X1856145Y827614D01*
X1857838Y825921D01*
X1858685Y823382D01*
Y821689D01*
X1857838Y819149D01*
X1856145Y817457D01*
X1853606Y816610D01*
X1851066D01*
X1848527Y817457D01*
X1847681Y818303D01*
X1846834Y819996D01*
X1220556Y834386D02*
X1212091Y822535D01*
X1224788D01*
X1220556Y834386D02*
Y816610D01*
X577090Y834386D02*
X586401D01*
X581323Y827614D01*
X583862D01*
X585555Y826768D01*
X586401Y825921D01*
X587248Y823382D01*
Y821689D01*
X586401Y819149D01*
X584709Y817457D01*
X582169Y816610D01*
X579630D01*
X577090Y817457D01*
X576244Y818303D01*
X575397Y819996D01*
X-56049Y830154D02*
Y831000D01*
X-55203Y832693D01*
X-54356Y833540D01*
X-52664Y834386D01*
X-49278D01*
X-47585Y833540D01*
X-46738Y832693D01*
X-45892Y831000D01*
Y829307D01*
X-46738Y827614D01*
X-48431Y825075D01*
X-56896Y816610D01*
X-45045D01*
X-690794Y831000D02*
X-689101Y831847D01*
X-686562Y834386D01*
Y816610D01*
X-970960Y526288D02*
X-977732Y544064D01*
X-984504Y526288D01*
X-981964Y532213D02*
X-973500D01*
X-984504Y-60456D02*
Y-78232D01*
Y-60456D02*
X-976886D01*
X-974346Y-61302D01*
X-973500Y-62149D01*
X-972653Y-63842D01*
Y-65535D01*
X-973500Y-67228D01*
X-974346Y-68074D01*
X-976886Y-68921D01*
X-984504D02*
X-976886D01*
X-974346Y-69767D01*
X-973500Y-70614D01*
X-972653Y-72307D01*
Y-74846D01*
X-973500Y-76539D01*
X-974346Y-77386D01*
X-976886Y-78232D01*
X-984504D01*
X-971807Y-667938D02*
X-972653Y-666245D01*
X-974346Y-664552D01*
X-976039Y-663706D01*
X-979425D01*
X-981118Y-664552D01*
X-982811Y-666245D01*
X-983658Y-667938D01*
X-984504Y-670478D01*
Y-674710D01*
X-983658Y-677250D01*
X-982811Y-678942D01*
X-981118Y-680636D01*
X-979425Y-681482D01*
X-976039D01*
X-974346Y-680636D01*
X-972653Y-678942D01*
X-971807Y-677250D01*
X-984504Y-1265686D02*
Y-1283462D01*
Y-1265686D02*
X-978579D01*
X-976039Y-1266532D01*
X-974346Y-1268225D01*
X-973500Y-1269918D01*
X-972653Y-1272458D01*
Y-1276690D01*
X-973500Y-1279230D01*
X-974346Y-1280923D01*
X-976039Y-1282616D01*
X-978579Y-1283462D01*
X-984504D01*
X-690794Y-1531200D02*
X-689101Y-1530353D01*
X-686562Y-1527814D01*
Y-1545590D01*
X-56049Y-1532046D02*
Y-1531200D01*
X-55203Y-1529507D01*
X-54356Y-1528660D01*
X-52664Y-1527814D01*
X-49278D01*
X-47585Y-1528660D01*
X-46738Y-1529507D01*
X-45892Y-1531200D01*
Y-1532893D01*
X-46738Y-1534586D01*
X-48431Y-1537125D01*
X-56896Y-1545590D01*
X-45045D01*
X1856992Y-1527814D02*
X1848527D01*
X1847681Y-1535432D01*
X1848527Y-1534586D01*
X1851066Y-1533739D01*
X1853606D01*
X1856145Y-1534586D01*
X1857838Y-1536279D01*
X1858685Y-1538818D01*
Y-1540511D01*
X1857838Y-1543051D01*
X1856145Y-1544743D01*
X1853606Y-1545590D01*
X1851066D01*
X1848527Y-1544743D01*
X1847681Y-1543897D01*
X1846834Y-1542204D01*
X577090Y-1527814D02*
X586401D01*
X581323Y-1534586D01*
X583862D01*
X585555Y-1535432D01*
X586401Y-1536279D01*
X587248Y-1538818D01*
Y-1540511D01*
X586401Y-1543051D01*
X584709Y-1544743D01*
X582169Y-1545590D01*
X579630D01*
X577090Y-1544743D01*
X576244Y-1543897D01*
X575397Y-1542204D01*
X1220556Y-1527814D02*
X1212091Y-1539665D01*
X1224788D01*
X1220556Y-1527814D02*
Y-1545590D01*
X2493262Y-1530353D02*
X2492415Y-1528660D01*
X2489876Y-1527814D01*
X2488183D01*
X2485643Y-1528660D01*
X2483951Y-1531200D01*
X2483104Y-1535432D01*
Y-1539665D01*
X2483951Y-1543051D01*
X2485643Y-1544743D01*
X2488183Y-1545590D01*
X2489029D01*
X2491569Y-1544743D01*
X2493262Y-1543051D01*
X2494108Y-1540511D01*
Y-1539665D01*
X2493262Y-1537125D01*
X2491569Y-1535432D01*
X2489029Y-1534586D01*
X2488183D01*
X2485643Y-1535432D01*
X2483951Y-1537125D01*
X2483104Y-1539665D01*
X2774696Y-1265686D02*
Y-1283462D01*
Y-1265686D02*
X2780621D01*
X2783161Y-1266532D01*
X2784854Y-1268225D01*
X2785700Y-1269918D01*
X2786547Y-1272458D01*
Y-1276690D01*
X2785700Y-1279230D01*
X2784854Y-1280923D01*
X2783161Y-1282616D01*
X2780621Y-1283462D01*
X2774696D01*
D31*
X1652047Y-1180170D02*
Y-1158510D01*
X1662876Y-1147681D01*
X1673706Y-1158510D01*
Y-1180170D01*
Y-1163925D01*
X1652047D01*
X1684536Y-1147681D02*
X1695366D01*
X1689951D01*
Y-1180170D01*
X1684536D01*
X1695366D01*
X1711611D02*
Y-1147681D01*
X1727856D01*
X1733270Y-1153095D01*
Y-1163925D01*
X1727856Y-1169340D01*
X1711611D01*
X1722441D02*
X1733270Y-1180170D01*
X1744100Y-1147681D02*
X1765760D01*
Y-1153095D01*
X1744100Y-1174755D01*
Y-1180170D01*
X1765760D01*
X1776590D02*
Y-1158510D01*
X1787420Y-1147681D01*
X1798249Y-1158510D01*
Y-1180170D01*
Y-1163925D01*
X1776590D01*
X1809079Y-1147681D02*
X1819909D01*
X1814494D01*
Y-1180170D01*
X1809079D01*
X1819909D01*
X1868643D02*
Y-1147681D01*
X1884888D01*
X1890303Y-1153095D01*
Y-1163925D01*
X1884888Y-1169340D01*
X1868643D01*
X1901133Y-1180170D02*
Y-1147681D01*
X1917378D01*
X1922793Y-1153095D01*
Y-1163925D01*
X1917378Y-1169340D01*
X1901133D01*
X1911963D02*
X1922793Y-1180170D01*
X1949867Y-1147681D02*
X1939037D01*
X1933622Y-1153095D01*
Y-1174755D01*
X1939037Y-1180170D01*
X1949867D01*
X1955282Y-1174755D01*
Y-1153095D01*
X1949867Y-1147681D01*
X1966112Y-1180170D02*
Y-1147681D01*
X1982357D01*
X1987771Y-1153095D01*
Y-1163925D01*
X1982357Y-1169340D01*
X1966112D01*
X1998601Y-1180170D02*
Y-1147681D01*
X2014846D01*
X2020261Y-1153095D01*
Y-1163925D01*
X2014846Y-1169340D01*
X1998601D01*
X2009431D02*
X2020261Y-1180170D01*
X2031091Y-1147681D02*
X2041921D01*
X2036506D01*
Y-1180170D01*
X2031091D01*
X2041921D01*
X2079825Y-1147681D02*
X2058165D01*
Y-1180170D01*
X2079825D01*
X2058165Y-1163925D02*
X2068995D01*
X2090655Y-1147681D02*
X2112315D01*
X2101485D01*
Y-1180170D01*
X2123144D02*
Y-1158510D01*
X2133974Y-1147681D01*
X2144804Y-1158510D01*
Y-1180170D01*
Y-1163925D01*
X2123144D01*
X2155634Y-1180170D02*
Y-1147681D01*
X2171879D01*
X2177294Y-1153095D01*
Y-1163925D01*
X2171879Y-1169340D01*
X2155634D01*
X2166464D02*
X2177294Y-1180170D01*
X2188123Y-1147681D02*
Y-1153095D01*
X2198953Y-1163925D01*
X2209783Y-1153095D01*
Y-1147681D01*
X2198953Y-1163925D02*
Y-1180170D01*
X2274762D02*
X2269347Y-1174755D01*
X2263932Y-1180170D01*
X2258517D01*
X2253102Y-1174755D01*
Y-1169340D01*
X2258517Y-1163925D01*
X2253102Y-1158510D01*
Y-1153095D01*
X2258517Y-1147681D01*
X2263932D01*
X2269347Y-1153095D01*
Y-1158510D01*
X2263932Y-1163925D01*
X2269347Y-1169340D01*
Y-1174755D01*
X2274762Y-1163925D02*
X2269347Y-1169340D01*
X2258517Y-1163925D02*
X2263932D01*
X2339741Y-1153095D02*
X2334326Y-1147681D01*
X2323496D01*
X2318081Y-1153095D01*
Y-1174755D01*
X2323496Y-1180170D01*
X2334326D01*
X2339741Y-1174755D01*
X2366816Y-1147681D02*
X2355986D01*
X2350571Y-1153095D01*
Y-1174755D01*
X2355986Y-1180170D01*
X2366816D01*
X2372231Y-1174755D01*
Y-1153095D01*
X2366816Y-1147681D01*
X2383060Y-1180170D02*
Y-1147681D01*
X2404720Y-1180170D01*
Y-1147681D01*
X2437210D02*
X2415550D01*
Y-1163925D01*
X2426380D01*
X2415550D01*
Y-1180170D01*
X2448039Y-1147681D02*
X2458869D01*
X2453454D01*
Y-1180170D01*
X2448039D01*
X2458869D01*
X2475114Y-1147681D02*
Y-1180170D01*
X2491359D01*
X2496774Y-1174755D01*
Y-1153095D01*
X2491359Y-1147681D01*
X2475114D01*
X2529263D02*
X2507603D01*
Y-1180170D01*
X2529263D01*
X2507603Y-1163925D02*
X2518433D01*
X2540093Y-1180170D02*
Y-1147681D01*
X2561753Y-1180170D01*
Y-1147681D01*
X2572582D02*
X2594242D01*
X2583412D01*
Y-1180170D01*
X2605072Y-1147681D02*
X2615902D01*
X2610487D01*
Y-1180170D01*
X2605072D01*
X2615902D01*
X2632147D02*
Y-1158510D01*
X2642976Y-1147681D01*
X2653806Y-1158510D01*
Y-1180170D01*
Y-1163925D01*
X2632147D01*
X2664636Y-1147681D02*
Y-1180170D01*
X2686296D01*
X1793894Y-1495302D02*
X1804051D01*
X1798972D01*
Y-1464832D01*
X1793894Y-1469910D01*
X1819286Y-1474989D02*
X1824364D01*
Y-1480067D01*
X1819286D01*
Y-1474989D01*
Y-1490224D02*
X1824364D01*
Y-1495302D01*
X1819286D01*
Y-1490224D01*
X1844678Y-1495302D02*
X1854834D01*
X1849756D01*
Y-1464832D01*
X1844678Y-1469910D01*
X1671894Y-1458832D02*
Y-1489302D01*
X1687129D01*
X1692207Y-1484224D01*
Y-1479145D01*
X1687129Y-1474067D01*
X1671894D01*
X1687129D01*
X1692207Y-1468989D01*
Y-1463910D01*
X1687129Y-1458832D01*
X1671894D01*
X2686797Y-1494170D02*
Y-1473857D01*
X2696953Y-1463700D01*
X2707110Y-1473857D01*
Y-1494170D01*
Y-1478935D01*
X2686797D01*
X1660434Y-1286628D02*
Y-1306622D01*
X1670431D01*
X1673763Y-1303290D01*
Y-1289961D01*
X1670431Y-1286628D01*
X1660434D01*
X1693757D02*
X1680428D01*
Y-1296625D01*
X1687092D01*
X1680428D01*
Y-1306622D01*
X1700421D02*
Y-1286628D01*
X1707086Y-1293293D01*
X1713750Y-1286628D01*
Y-1306622D01*
X1680463Y-1233318D02*
X1667134D01*
Y-1243315D01*
X1673799D01*
X1667134D01*
Y-1253312D01*
X1687128Y-1233318D02*
Y-1253312D01*
X1697124D01*
X1700457Y-1249980D01*
Y-1236651D01*
X1697124Y-1233318D01*
X1687128D01*
X1958297Y-1293170D02*
Y-1271510D01*
X1969126Y-1260680D01*
X1979956Y-1271510D01*
Y-1293170D01*
Y-1276925D01*
X1958297D01*
X1990786Y-1260680D02*
X2001616D01*
X1996201D01*
Y-1293170D01*
X1990786D01*
X2001616D01*
X2017861D02*
Y-1260680D01*
X2034106D01*
X2039520Y-1266095D01*
Y-1276925D01*
X2034106Y-1282340D01*
X2017861D01*
X2028691D02*
X2039520Y-1293170D01*
X2050350Y-1260680D02*
X2072010D01*
Y-1266095D01*
X2050350Y-1287755D01*
Y-1293170D01*
X2072010D01*
X2082840D02*
Y-1271510D01*
X2093670Y-1260680D01*
X2104499Y-1271510D01*
Y-1293170D01*
Y-1276925D01*
X2082840D01*
X2115329Y-1260680D02*
X2126159D01*
X2120744D01*
Y-1293170D01*
X2115329D01*
X2126159D01*
X1690463Y-1343318D02*
X1677134D01*
Y-1353315D01*
X1683799D01*
X1677134D01*
Y-1363312D01*
X1697128Y-1343318D02*
Y-1363312D01*
X1707124D01*
X1710457Y-1359980D01*
Y-1346651D01*
X1707124Y-1343318D01*
X1697128D01*
X1687963Y-1398318D02*
X1674634D01*
Y-1408315D01*
X1681299D01*
X1674634D01*
Y-1418312D01*
X1694628Y-1398318D02*
Y-1418312D01*
X1704624D01*
X1707957Y-1414980D01*
Y-1401651D01*
X1704624Y-1398318D01*
X1694628D01*
D42*
X1282144Y-1472136D02*
Y-1490132D01*
Y-1472136D02*
X1288143D01*
X1290714Y-1472993D01*
X1292428Y-1474707D01*
X1293284Y-1476421D01*
X1294142Y-1478992D01*
Y-1483276D01*
X1293284Y-1485847D01*
X1292428Y-1487561D01*
X1290714Y-1489275D01*
X1288143Y-1490132D01*
X1282144D01*
X1303311Y-1472136D02*
X1301597Y-1472993D01*
X1299883Y-1474707D01*
X1299026Y-1476421D01*
X1298169Y-1478992D01*
Y-1483276D01*
X1299026Y-1485847D01*
X1299883Y-1487561D01*
X1301597Y-1489275D01*
X1303311Y-1490132D01*
X1306739D01*
X1308453Y-1489275D01*
X1310167Y-1487561D01*
X1311024Y-1485847D01*
X1311880Y-1483276D01*
Y-1478992D01*
X1311024Y-1476421D01*
X1310167Y-1474707D01*
X1308453Y-1472993D01*
X1306739Y-1472136D01*
X1303311D01*
X1330220D02*
Y-1490132D01*
Y-1472136D02*
X1342217Y-1490132D01*
Y-1472136D02*
Y-1490132D01*
X1352329Y-1472136D02*
X1350615Y-1472993D01*
X1348901Y-1474707D01*
X1348044Y-1476421D01*
X1347187Y-1478992D01*
Y-1483276D01*
X1348044Y-1485847D01*
X1348901Y-1487561D01*
X1350615Y-1489275D01*
X1352329Y-1490132D01*
X1355757D01*
X1357471Y-1489275D01*
X1359185Y-1487561D01*
X1360042Y-1485847D01*
X1360899Y-1483276D01*
Y-1478992D01*
X1360042Y-1476421D01*
X1359185Y-1474707D01*
X1357471Y-1472993D01*
X1355757Y-1472136D01*
X1352329D01*
X1371096D02*
Y-1490132D01*
X1365098Y-1472136D02*
X1377095D01*
X1405375Y-1474707D02*
X1403661Y-1472993D01*
X1401090Y-1472136D01*
X1397662D01*
X1395091Y-1472993D01*
X1393377Y-1474707D01*
Y-1476421D01*
X1394234Y-1478135D01*
X1395091Y-1478992D01*
X1396805Y-1479848D01*
X1401947Y-1481562D01*
X1403661Y-1482419D01*
X1404518Y-1483276D01*
X1405375Y-1484990D01*
Y-1487561D01*
X1403661Y-1489275D01*
X1401090Y-1490132D01*
X1397662D01*
X1395091Y-1489275D01*
X1393377Y-1487561D01*
X1422257Y-1476421D02*
X1421400Y-1474707D01*
X1419686Y-1472993D01*
X1417972Y-1472136D01*
X1414544D01*
X1412830Y-1472993D01*
X1411116Y-1474707D01*
X1410259Y-1476421D01*
X1409402Y-1478992D01*
Y-1483276D01*
X1410259Y-1485847D01*
X1411116Y-1487561D01*
X1412830Y-1489275D01*
X1414544Y-1490132D01*
X1417972D01*
X1419686Y-1489275D01*
X1421400Y-1487561D01*
X1422257Y-1485847D01*
X1441024Y-1490132D02*
X1434169Y-1472136D01*
X1427313Y-1490132D01*
X1429884Y-1484133D02*
X1438453D01*
X1445223Y-1472136D02*
Y-1490132D01*
X1455507D01*
X1468618Y-1472136D02*
X1457478D01*
Y-1490132D01*
X1468618D01*
X1457478Y-1480705D02*
X1464333D01*
X1485757Y-1472136D02*
Y-1490132D01*
Y-1472136D02*
X1491756D01*
X1494327Y-1472993D01*
X1496041Y-1474707D01*
X1496898Y-1476421D01*
X1497755Y-1478992D01*
Y-1483276D01*
X1496898Y-1485847D01*
X1496041Y-1487561D01*
X1494327Y-1489275D01*
X1491756Y-1490132D01*
X1485757D01*
X1501783Y-1472136D02*
Y-1490132D01*
Y-1472136D02*
X1509495D01*
X1512066Y-1472993D01*
X1512923Y-1473850D01*
X1513780Y-1475564D01*
Y-1477278D01*
X1512923Y-1478992D01*
X1512066Y-1479848D01*
X1509495Y-1480705D01*
X1501783D01*
X1507781D02*
X1513780Y-1490132D01*
X1531519D02*
X1524663Y-1472136D01*
X1517808Y-1490132D01*
X1520379Y-1484133D02*
X1528948D01*
X1535718Y-1472136D02*
X1540003Y-1490132D01*
X1544288Y-1472136D02*
X1540003Y-1490132D01*
X1544288Y-1472136D02*
X1548573Y-1490132D01*
X1552857Y-1472136D02*
X1548573Y-1490132D01*
X1556457Y-1472136D02*
Y-1490132D01*
X1560227Y-1472136D02*
Y-1490132D01*
Y-1472136D02*
X1572225Y-1490132D01*
Y-1472136D02*
Y-1490132D01*
X1590049Y-1476421D02*
X1589192Y-1474707D01*
X1587478Y-1472993D01*
X1585765Y-1472136D01*
X1582337D01*
X1580623Y-1472993D01*
X1578909Y-1474707D01*
X1578052Y-1476421D01*
X1577195Y-1478992D01*
Y-1483276D01*
X1578052Y-1485847D01*
X1578909Y-1487561D01*
X1580623Y-1489275D01*
X1582337Y-1490132D01*
X1585765D01*
X1587478Y-1489275D01*
X1589192Y-1487561D01*
X1590049Y-1485847D01*
Y-1483276D01*
X1585765D02*
X1590049D01*
X1268858Y-1427704D02*
X1268144Y-1428418D01*
X1268858Y-1429132D01*
X1269572Y-1428418D01*
X1268858Y-1427704D01*
X1272857Y-1414135D02*
X1282855Y-1429132D01*
Y-1414135D02*
X1272857Y-1429132D01*
X1286212Y-1414135D02*
X1296210Y-1429132D01*
Y-1414135D02*
X1286212Y-1429132D01*
X1299566Y-1414135D02*
X1309564Y-1429132D01*
Y-1414135D02*
X1299566Y-1429132D01*
X1331131Y-1416278D02*
Y-1429132D01*
X1324703Y-1422705D02*
X1337558D01*
X1341985Y-1431274D02*
X1351983Y-1414135D01*
X1352983Y-1422705D02*
X1365837D01*
X1382762Y-1427704D02*
X1382048Y-1428418D01*
X1382762Y-1429132D01*
X1383477Y-1428418D01*
X1382762Y-1427704D01*
X1391046Y-1414135D02*
X1388904Y-1414849D01*
X1387476Y-1416992D01*
X1386761Y-1420562D01*
Y-1422705D01*
X1387476Y-1426275D01*
X1388904Y-1428418D01*
X1391046Y-1429132D01*
X1392475D01*
X1394617Y-1428418D01*
X1396045Y-1426275D01*
X1396759Y-1422705D01*
Y-1420562D01*
X1396045Y-1416992D01*
X1394617Y-1414849D01*
X1392475Y-1414135D01*
X1391046D01*
X1403686D02*
X1401544Y-1414849D01*
X1400830Y-1416278D01*
Y-1417706D01*
X1401544Y-1419134D01*
X1402972Y-1419848D01*
X1405829Y-1420562D01*
X1407971Y-1421277D01*
X1409400Y-1422705D01*
X1410114Y-1424133D01*
Y-1426275D01*
X1409400Y-1427704D01*
X1408685Y-1428418D01*
X1406543Y-1429132D01*
X1403686D01*
X1401544Y-1428418D01*
X1400830Y-1427704D01*
X1400116Y-1426275D01*
Y-1424133D01*
X1400830Y-1422705D01*
X1402258Y-1421277D01*
X1404401Y-1420562D01*
X1407257Y-1419848D01*
X1408685Y-1419134D01*
X1409400Y-1417706D01*
Y-1416278D01*
X1408685Y-1414849D01*
X1406543Y-1414135D01*
X1403686D01*
X1417755D02*
X1415612Y-1414849D01*
X1414184Y-1416992D01*
X1413470Y-1420562D01*
Y-1422705D01*
X1414184Y-1426275D01*
X1415612Y-1428418D01*
X1417755Y-1429132D01*
X1419183D01*
X1421326Y-1428418D01*
X1422754Y-1426275D01*
X1423468Y-1422705D01*
Y-1420562D01*
X1422754Y-1416992D01*
X1421326Y-1414849D01*
X1419183Y-1414135D01*
X1417755D01*
X1426824D02*
Y-1429132D01*
Y-1414135D02*
X1432537Y-1429132D01*
X1438250Y-1414135D02*
X1432537Y-1429132D01*
X1438250Y-1414135D02*
Y-1429132D01*
X1442535Y-1414135D02*
Y-1429132D01*
Y-1414135D02*
X1448248Y-1429132D01*
X1453961Y-1414135D02*
X1448248Y-1429132D01*
X1453961Y-1414135D02*
Y-1429132D01*
X1271858Y-1386704D02*
X1271144Y-1387418D01*
X1271858Y-1388132D01*
X1272572Y-1387418D01*
X1271858Y-1386704D01*
X1275857Y-1373135D02*
X1285855Y-1388132D01*
Y-1373135D02*
X1275857Y-1388132D01*
X1289212Y-1373135D02*
X1299209Y-1388132D01*
Y-1373135D02*
X1289212Y-1388132D01*
X1320776Y-1375278D02*
Y-1388132D01*
X1314349Y-1381705D02*
X1327204D01*
X1331631Y-1390274D02*
X1341629Y-1373135D01*
X1342629Y-1381705D02*
X1355483D01*
X1372408Y-1386704D02*
X1371694Y-1387418D01*
X1372408Y-1388132D01*
X1373122Y-1387418D01*
X1372408Y-1386704D01*
X1376407Y-1375992D02*
X1377836Y-1375278D01*
X1379978Y-1373135D01*
Y-1388132D01*
X1388119Y-1376706D02*
Y-1375992D01*
X1388833Y-1374563D01*
X1389547Y-1373849D01*
X1390975Y-1373135D01*
X1393832D01*
X1395260Y-1373849D01*
X1395974Y-1374563D01*
X1396689Y-1375992D01*
Y-1377420D01*
X1395974Y-1378848D01*
X1394546Y-1380991D01*
X1387405Y-1388132D01*
X1397403D01*
X1410757Y-1373135D02*
X1403616Y-1388132D01*
X1400759Y-1373135D02*
X1410757D01*
X1414113D02*
Y-1388132D01*
Y-1373135D02*
X1419827Y-1388132D01*
X1425540Y-1373135D02*
X1419827Y-1388132D01*
X1425540Y-1373135D02*
Y-1388132D01*
X1429824Y-1373135D02*
Y-1388132D01*
Y-1373135D02*
X1435537Y-1388132D01*
X1441250Y-1373135D02*
X1435537Y-1388132D01*
X1441250Y-1373135D02*
Y-1388132D01*
X1490571Y-1376278D02*
Y-1389132D01*
X1484144Y-1382705D02*
X1496998D01*
X1501426Y-1391274D02*
X1511424Y-1374135D01*
X1512424Y-1382705D02*
X1525278D01*
X1498570Y-1345132D02*
X1492857Y-1330135D01*
X1487144Y-1345132D01*
X1489286Y-1340133D02*
X1496428D01*
X1502069Y-1330135D02*
Y-1345132D01*
Y-1330135D02*
X1512067Y-1345132D01*
Y-1330135D02*
Y-1345132D01*
X1526921Y-1333706D02*
X1526207Y-1332278D01*
X1524779Y-1330849D01*
X1523351Y-1330135D01*
X1520494D01*
X1519066Y-1330849D01*
X1517637Y-1332278D01*
X1516923Y-1333706D01*
X1516209Y-1335848D01*
Y-1339419D01*
X1516923Y-1341561D01*
X1517637Y-1342990D01*
X1519066Y-1344418D01*
X1520494Y-1345132D01*
X1523351D01*
X1524779Y-1344418D01*
X1526207Y-1342990D01*
X1526921Y-1341561D01*
Y-1339419D01*
X1523351D02*
X1526921D01*
X1530349Y-1330135D02*
Y-1340847D01*
X1531063Y-1342990D01*
X1532491Y-1344418D01*
X1534634Y-1345132D01*
X1536062D01*
X1538204Y-1344418D01*
X1539633Y-1342990D01*
X1540347Y-1340847D01*
Y-1330135D01*
X1544489D02*
Y-1345132D01*
X1553058D01*
X1566127D02*
X1560414Y-1330135D01*
X1554701Y-1345132D01*
X1556843Y-1340133D02*
X1563985D01*
X1569626Y-1330135D02*
Y-1345132D01*
Y-1330135D02*
X1576054D01*
X1578196Y-1330849D01*
X1578910Y-1331563D01*
X1579624Y-1332992D01*
Y-1334420D01*
X1578910Y-1335848D01*
X1578196Y-1336562D01*
X1576054Y-1337276D01*
X1569626D01*
X1574625D02*
X1579624Y-1345132D01*
X1283144Y-1333135D02*
Y-1348132D01*
Y-1333135D02*
X1288143D01*
X1290285Y-1333849D01*
X1291714Y-1335278D01*
X1292428Y-1336706D01*
X1293142Y-1338848D01*
Y-1342419D01*
X1292428Y-1344561D01*
X1291714Y-1345990D01*
X1290285Y-1347418D01*
X1288143Y-1348132D01*
X1283144D01*
X1305782Y-1333135D02*
X1296498D01*
Y-1348132D01*
X1305782D01*
X1296498Y-1340276D02*
X1302211D01*
X1318994Y-1336706D02*
X1318279Y-1335278D01*
X1316851Y-1333849D01*
X1315423Y-1333135D01*
X1312566D01*
X1311138Y-1333849D01*
X1309710Y-1335278D01*
X1308996Y-1336706D01*
X1308282Y-1338848D01*
Y-1342419D01*
X1308996Y-1344561D01*
X1309710Y-1345990D01*
X1311138Y-1347418D01*
X1312566Y-1348132D01*
X1315423D01*
X1316851Y-1347418D01*
X1318279Y-1345990D01*
X1318994Y-1344561D01*
X1323207Y-1333135D02*
Y-1348132D01*
X1326349Y-1333135D02*
Y-1348132D01*
Y-1333135D02*
X1332062Y-1348132D01*
X1337775Y-1333135D02*
X1332062Y-1348132D01*
X1337775Y-1333135D02*
Y-1348132D01*
X1353486D02*
X1347773Y-1333135D01*
X1342060Y-1348132D01*
X1344202Y-1343133D02*
X1351344D01*
X1356985Y-1333135D02*
Y-1348132D01*
X1365555D01*
X1377195Y-1335278D02*
X1375767Y-1333849D01*
X1373625Y-1333135D01*
X1370768D01*
X1368626Y-1333849D01*
X1367198Y-1335278D01*
Y-1336706D01*
X1367912Y-1338134D01*
X1368626Y-1338848D01*
X1370054Y-1339562D01*
X1374339Y-1340991D01*
X1375767Y-1341705D01*
X1376481Y-1342419D01*
X1377195Y-1343847D01*
Y-1345990D01*
X1375767Y-1347418D01*
X1373625Y-1348132D01*
X1370768D01*
X1368626Y-1347418D01*
X1367198Y-1345990D01*
X1369143Y-1290135D02*
Y-1305132D01*
X1364144Y-1290135D02*
X1374142D01*
X1380212D02*
X1378784Y-1290849D01*
X1377355Y-1292278D01*
X1376641Y-1293706D01*
X1375927Y-1295848D01*
Y-1299419D01*
X1376641Y-1301561D01*
X1377355Y-1302990D01*
X1378784Y-1304418D01*
X1380212Y-1305132D01*
X1383069D01*
X1384497Y-1304418D01*
X1385925Y-1302990D01*
X1386639Y-1301561D01*
X1387353Y-1299419D01*
Y-1295848D01*
X1386639Y-1293706D01*
X1385925Y-1292278D01*
X1384497Y-1290849D01*
X1383069Y-1290135D01*
X1380212D01*
X1390853D02*
Y-1305132D01*
X1399422D01*
X1410348Y-1290135D02*
X1401065D01*
Y-1305132D01*
X1410348D01*
X1401065Y-1297276D02*
X1406778D01*
X1412848Y-1290135D02*
Y-1305132D01*
Y-1290135D02*
X1419275D01*
X1421418Y-1290849D01*
X1422132Y-1291563D01*
X1422846Y-1292992D01*
Y-1294420D01*
X1422132Y-1295848D01*
X1421418Y-1296562D01*
X1419275Y-1297276D01*
X1412848D01*
X1417847D02*
X1422846Y-1305132D01*
X1437628D02*
X1431915Y-1290135D01*
X1426202Y-1305132D01*
X1428345Y-1300133D02*
X1435486D01*
X1441127Y-1290135D02*
Y-1305132D01*
Y-1290135D02*
X1451125Y-1305132D01*
Y-1290135D02*
Y-1305132D01*
X1465979Y-1293706D02*
X1465265Y-1292278D01*
X1463837Y-1290849D01*
X1462409Y-1290135D01*
X1459552D01*
X1458124Y-1290849D01*
X1456696Y-1292278D01*
X1455981Y-1293706D01*
X1455267Y-1295848D01*
Y-1299419D01*
X1455981Y-1301561D01*
X1456696Y-1302990D01*
X1458124Y-1304418D01*
X1459552Y-1305132D01*
X1462409D01*
X1463837Y-1304418D01*
X1465265Y-1302990D01*
X1465979Y-1301561D01*
X1479476Y-1290135D02*
X1470193D01*
Y-1305132D01*
X1479476D01*
X1470193Y-1297276D02*
X1475906D01*
X1491974Y-1292278D02*
X1490546Y-1290849D01*
X1488403Y-1290135D01*
X1485547D01*
X1483404Y-1290849D01*
X1481976Y-1292278D01*
Y-1293706D01*
X1482690Y-1295134D01*
X1483404Y-1295848D01*
X1484832Y-1296562D01*
X1489117Y-1297991D01*
X1490546Y-1298705D01*
X1491260Y-1299419D01*
X1491974Y-1300847D01*
Y-1302990D01*
X1490546Y-1304418D01*
X1488403Y-1305132D01*
X1485547D01*
X1483404Y-1304418D01*
X1481976Y-1302990D01*
X1313144Y-1258135D02*
Y-1273132D01*
Y-1258135D02*
X1318143D01*
X1320285Y-1258849D01*
X1321714Y-1260278D01*
X1322428Y-1261706D01*
X1323142Y-1263848D01*
Y-1267419D01*
X1322428Y-1269561D01*
X1321714Y-1270990D01*
X1320285Y-1272418D01*
X1318143Y-1273132D01*
X1313144D01*
X1326498Y-1258135D02*
Y-1273132D01*
X1329641Y-1258135D02*
Y-1273132D01*
Y-1258135D02*
X1335354Y-1273132D01*
X1341067Y-1258135D02*
X1335354Y-1273132D01*
X1341067Y-1258135D02*
Y-1273132D01*
X1354635Y-1258135D02*
X1345351D01*
Y-1273132D01*
X1354635D01*
X1345351Y-1265276D02*
X1351064D01*
X1357135Y-1258135D02*
Y-1273132D01*
Y-1258135D02*
X1367133Y-1273132D01*
Y-1258135D02*
Y-1273132D01*
X1381272Y-1260278D02*
X1379844Y-1258849D01*
X1377702Y-1258135D01*
X1374845D01*
X1372703Y-1258849D01*
X1371274Y-1260278D01*
Y-1261706D01*
X1371989Y-1263134D01*
X1372703Y-1263848D01*
X1374131Y-1264562D01*
X1378416Y-1265991D01*
X1379844Y-1266705D01*
X1380558Y-1267419D01*
X1381272Y-1268847D01*
Y-1270990D01*
X1379844Y-1272418D01*
X1377702Y-1273132D01*
X1374845D01*
X1372703Y-1272418D01*
X1371274Y-1270990D01*
X1384629Y-1258135D02*
Y-1273132D01*
X1392056Y-1258135D02*
X1390627Y-1258849D01*
X1389199Y-1260278D01*
X1388485Y-1261706D01*
X1387771Y-1263848D01*
Y-1267419D01*
X1388485Y-1269561D01*
X1389199Y-1270990D01*
X1390627Y-1272418D01*
X1392056Y-1273132D01*
X1394912D01*
X1396340Y-1272418D01*
X1397769Y-1270990D01*
X1398483Y-1269561D01*
X1399197Y-1267419D01*
Y-1263848D01*
X1398483Y-1261706D01*
X1397769Y-1260278D01*
X1396340Y-1258849D01*
X1394912Y-1258135D01*
X1392056D01*
X1402696D02*
Y-1273132D01*
Y-1258135D02*
X1412694Y-1273132D01*
Y-1258135D02*
Y-1273132D01*
X1426834Y-1260278D02*
X1425406Y-1258849D01*
X1423263Y-1258135D01*
X1420407D01*
X1418264Y-1258849D01*
X1416836Y-1260278D01*
Y-1261706D01*
X1417550Y-1263134D01*
X1418264Y-1263848D01*
X1419693Y-1264562D01*
X1423977Y-1265991D01*
X1425406Y-1266705D01*
X1426120Y-1267419D01*
X1426834Y-1268847D01*
Y-1270990D01*
X1425406Y-1272418D01*
X1423263Y-1273132D01*
X1420407D01*
X1418264Y-1272418D01*
X1416836Y-1270990D01*
X1453400Y-1273132D02*
X1447687Y-1258135D01*
X1441974Y-1273132D01*
X1444116Y-1268133D02*
X1451257D01*
X1456899Y-1258135D02*
Y-1273132D01*
Y-1258135D02*
X1463326D01*
X1465468Y-1258849D01*
X1466183Y-1259563D01*
X1466897Y-1260992D01*
Y-1262420D01*
X1466183Y-1263848D01*
X1465468Y-1264562D01*
X1463326Y-1265276D01*
X1456899D01*
X1461898D02*
X1466897Y-1273132D01*
X1479537Y-1258135D02*
X1470253D01*
Y-1273132D01*
X1479537D01*
X1470253Y-1265276D02*
X1475966D01*
X1493820Y-1258135D02*
Y-1273132D01*
X1496962Y-1258135D02*
Y-1273132D01*
Y-1258135D02*
X1506960Y-1273132D01*
Y-1258135D02*
Y-1273132D01*
X1522885Y-1258135D02*
Y-1273132D01*
Y-1258135D02*
X1528598Y-1273132D01*
X1534311Y-1258135D02*
X1528598Y-1273132D01*
X1534311Y-1258135D02*
Y-1273132D01*
X1538596Y-1258135D02*
Y-1273132D01*
Y-1258135D02*
X1544309Y-1273132D01*
X1550022Y-1258135D02*
X1544309Y-1273132D01*
X1550022Y-1258135D02*
Y-1273132D01*
X1282144Y-1226135D02*
Y-1236847D01*
X1282858Y-1238990D01*
X1284286Y-1240418D01*
X1286429Y-1241132D01*
X1287857D01*
X1290000Y-1240418D01*
X1291428Y-1238990D01*
X1292142Y-1236847D01*
Y-1226135D01*
X1296284D02*
Y-1241132D01*
Y-1226135D02*
X1306282Y-1241132D01*
Y-1226135D02*
Y-1241132D01*
X1310424Y-1226135D02*
Y-1241132D01*
X1318993D01*
X1329919Y-1226135D02*
X1320636D01*
Y-1241132D01*
X1329919D01*
X1320636Y-1233277D02*
X1326349D01*
X1342417Y-1228278D02*
X1340989Y-1226849D01*
X1338846Y-1226135D01*
X1335990D01*
X1333847Y-1226849D01*
X1332419Y-1228278D01*
Y-1229706D01*
X1333133Y-1231134D01*
X1333847Y-1231848D01*
X1335276Y-1232562D01*
X1339560Y-1233991D01*
X1340989Y-1234705D01*
X1341703Y-1235419D01*
X1342417Y-1236847D01*
Y-1238990D01*
X1340989Y-1240418D01*
X1338846Y-1241132D01*
X1335990D01*
X1333847Y-1240418D01*
X1332419Y-1238990D01*
X1355771Y-1228278D02*
X1354343Y-1226849D01*
X1352200Y-1226135D01*
X1349344D01*
X1347202Y-1226849D01*
X1345773Y-1228278D01*
Y-1229706D01*
X1346487Y-1231134D01*
X1347202Y-1231848D01*
X1348630Y-1232562D01*
X1352915Y-1233991D01*
X1354343Y-1234705D01*
X1355057Y-1235419D01*
X1355771Y-1236847D01*
Y-1238990D01*
X1354343Y-1240418D01*
X1352200Y-1241132D01*
X1349344D01*
X1347202Y-1240418D01*
X1345773Y-1238990D01*
X1375195Y-1226135D02*
X1373767Y-1226849D01*
X1372339Y-1228278D01*
X1371625Y-1229706D01*
X1370911Y-1231848D01*
Y-1235419D01*
X1371625Y-1237561D01*
X1372339Y-1238990D01*
X1373767Y-1240418D01*
X1375195Y-1241132D01*
X1378052D01*
X1379480Y-1240418D01*
X1380909Y-1238990D01*
X1381623Y-1237561D01*
X1382337Y-1235419D01*
Y-1231848D01*
X1381623Y-1229706D01*
X1380909Y-1228278D01*
X1379480Y-1226849D01*
X1378052Y-1226135D01*
X1375195D01*
X1390835D02*
Y-1241132D01*
X1385836Y-1226135D02*
X1395834D01*
X1397619D02*
Y-1241132D01*
X1407617Y-1226135D02*
Y-1241132D01*
X1397619Y-1233277D02*
X1407617D01*
X1421043Y-1226135D02*
X1411759D01*
Y-1241132D01*
X1421043D01*
X1411759Y-1233277D02*
X1417472D01*
X1423542Y-1226135D02*
Y-1241132D01*
Y-1226135D02*
X1429969D01*
X1432112Y-1226849D01*
X1432826Y-1227563D01*
X1433540Y-1228992D01*
Y-1230420D01*
X1432826Y-1231848D01*
X1432112Y-1232562D01*
X1429969Y-1233277D01*
X1423542D01*
X1428541D02*
X1433540Y-1241132D01*
X1436897Y-1226135D02*
X1440467Y-1241132D01*
X1444038Y-1226135D02*
X1440467Y-1241132D01*
X1444038Y-1226135D02*
X1447609Y-1241132D01*
X1451179Y-1226135D02*
X1447609Y-1241132D01*
X1454179Y-1226135D02*
Y-1241132D01*
X1467319Y-1228278D02*
X1465890Y-1226849D01*
X1463748Y-1226135D01*
X1460891D01*
X1458749Y-1226849D01*
X1457321Y-1228278D01*
Y-1229706D01*
X1458035Y-1231134D01*
X1458749Y-1231848D01*
X1460177Y-1232562D01*
X1464462Y-1233991D01*
X1465890Y-1234705D01*
X1466604Y-1235419D01*
X1467319Y-1236847D01*
Y-1238990D01*
X1465890Y-1240418D01*
X1463748Y-1241132D01*
X1460891D01*
X1458749Y-1240418D01*
X1457321Y-1238990D01*
X1479959Y-1226135D02*
X1470675D01*
Y-1241132D01*
X1479959D01*
X1470675Y-1233277D02*
X1476388D01*
X1504239Y-1228278D02*
X1502811Y-1226849D01*
X1500669Y-1226135D01*
X1497812D01*
X1495670Y-1226849D01*
X1494241Y-1228278D01*
Y-1229706D01*
X1494955Y-1231134D01*
X1495670Y-1231848D01*
X1497098Y-1232562D01*
X1501383Y-1233991D01*
X1502811Y-1234705D01*
X1503525Y-1235419D01*
X1504239Y-1236847D01*
Y-1238990D01*
X1502811Y-1240418D01*
X1500669Y-1241132D01*
X1497812D01*
X1495670Y-1240418D01*
X1494241Y-1238990D01*
X1507596Y-1233991D02*
X1514023D01*
X1516165Y-1233277D01*
X1516879Y-1232562D01*
X1517594Y-1231134D01*
Y-1228992D01*
X1516879Y-1227563D01*
X1516165Y-1226849D01*
X1514023Y-1226135D01*
X1507596D01*
Y-1241132D01*
X1530234Y-1226135D02*
X1520950D01*
Y-1241132D01*
X1530234D01*
X1520950Y-1233277D02*
X1526663D01*
X1543445Y-1229706D02*
X1542731Y-1228278D01*
X1541303Y-1226849D01*
X1539875Y-1226135D01*
X1537018D01*
X1535590Y-1226849D01*
X1534161Y-1228278D01*
X1533447Y-1229706D01*
X1532733Y-1231848D01*
Y-1235419D01*
X1533447Y-1237561D01*
X1534161Y-1238990D01*
X1535590Y-1240418D01*
X1537018Y-1241132D01*
X1539875D01*
X1541303Y-1240418D01*
X1542731Y-1238990D01*
X1543445Y-1237561D01*
X1547659Y-1226135D02*
Y-1241132D01*
X1550801Y-1226135D02*
Y-1241132D01*
Y-1226135D02*
X1560084D01*
X1550801Y-1233277D02*
X1556514D01*
X1561798Y-1226135D02*
Y-1241132D01*
X1574224Y-1226135D02*
X1564940D01*
Y-1241132D01*
X1574224D01*
X1564940Y-1233277D02*
X1570654D01*
X1576724Y-1226135D02*
Y-1241132D01*
Y-1226135D02*
X1581723D01*
X1583865Y-1226849D01*
X1585293Y-1228278D01*
X1586007Y-1229706D01*
X1586722Y-1231848D01*
Y-1235419D01*
X1586007Y-1237561D01*
X1585293Y-1238990D01*
X1583865Y-1240418D01*
X1581723Y-1241132D01*
X1576724D01*
X1785291Y-1236723D02*
X1783148Y-1237437D01*
X1781720Y-1239580D01*
X1781006Y-1243150D01*
Y-1245293D01*
X1781720Y-1248863D01*
X1783148Y-1251006D01*
X1785291Y-1251720D01*
X1786719D01*
X1788861Y-1251006D01*
X1790290Y-1248863D01*
X1791004Y-1245293D01*
Y-1243150D01*
X1790290Y-1239580D01*
X1788861Y-1237437D01*
X1786719Y-1236723D01*
X1785291D01*
X1795074Y-1240294D02*
Y-1239580D01*
X1795789Y-1238151D01*
X1796503Y-1237437D01*
X1797931Y-1236723D01*
X1800787D01*
X1802216Y-1237437D01*
X1802930Y-1238151D01*
X1803644Y-1239580D01*
Y-1241008D01*
X1802930Y-1242436D01*
X1801502Y-1244579D01*
X1794360Y-1251720D01*
X1804358D01*
X1807715Y-1253862D02*
X1817712Y-1236723D01*
X1822997D02*
X1820854Y-1237437D01*
X1819426Y-1239580D01*
X1818712Y-1243150D01*
Y-1245293D01*
X1819426Y-1248863D01*
X1820854Y-1251006D01*
X1822997Y-1251720D01*
X1824425D01*
X1826568Y-1251006D01*
X1827996Y-1248863D01*
X1828710Y-1245293D01*
Y-1243150D01*
X1827996Y-1239580D01*
X1826568Y-1237437D01*
X1824425Y-1236723D01*
X1822997D01*
X1840636D02*
X1833495D01*
X1832781Y-1243150D01*
X1833495Y-1242436D01*
X1835637Y-1241722D01*
X1837780D01*
X1839922Y-1242436D01*
X1841350Y-1243865D01*
X1842064Y-1246007D01*
Y-1247435D01*
X1841350Y-1249578D01*
X1839922Y-1251006D01*
X1837780Y-1251720D01*
X1835637D01*
X1833495Y-1251006D01*
X1832781Y-1250292D01*
X1832066Y-1248863D01*
X1845421Y-1253862D02*
X1855419Y-1236723D01*
X1856418Y-1239580D02*
X1857847Y-1238866D01*
X1859989Y-1236723D01*
Y-1251720D01*
X1876700Y-1241722D02*
X1875986Y-1243865D01*
X1874557Y-1245293D01*
X1872415Y-1246007D01*
X1871701D01*
X1869558Y-1245293D01*
X1868130Y-1243865D01*
X1867416Y-1241722D01*
Y-1241008D01*
X1868130Y-1238866D01*
X1869558Y-1237437D01*
X1871701Y-1236723D01*
X1872415D01*
X1874557Y-1237437D01*
X1875986Y-1238866D01*
X1876700Y-1241722D01*
Y-1245293D01*
X1875986Y-1248863D01*
X1874557Y-1251006D01*
X1872415Y-1251720D01*
X1870987D01*
X1868844Y-1251006D01*
X1868130Y-1249578D01*
X1785291Y-1291223D02*
X1783148Y-1291937D01*
X1781720Y-1294080D01*
X1781006Y-1297650D01*
Y-1299793D01*
X1781720Y-1303363D01*
X1783148Y-1305506D01*
X1785291Y-1306220D01*
X1786719D01*
X1788861Y-1305506D01*
X1790290Y-1303363D01*
X1791004Y-1299793D01*
Y-1297650D01*
X1790290Y-1294080D01*
X1788861Y-1291937D01*
X1786719Y-1291223D01*
X1785291D01*
X1795074Y-1294794D02*
Y-1294080D01*
X1795789Y-1292651D01*
X1796503Y-1291937D01*
X1797931Y-1291223D01*
X1800787D01*
X1802216Y-1291937D01*
X1802930Y-1292651D01*
X1803644Y-1294080D01*
Y-1295508D01*
X1802930Y-1296936D01*
X1801502Y-1299079D01*
X1794360Y-1306220D01*
X1804358D01*
X1807715Y-1308362D02*
X1817712Y-1291223D01*
X1822997D02*
X1820854Y-1291937D01*
X1819426Y-1294080D01*
X1818712Y-1297650D01*
Y-1299793D01*
X1819426Y-1303363D01*
X1820854Y-1305506D01*
X1822997Y-1306220D01*
X1824425D01*
X1826568Y-1305506D01*
X1827996Y-1303363D01*
X1828710Y-1299793D01*
Y-1297650D01*
X1827996Y-1294080D01*
X1826568Y-1291937D01*
X1824425Y-1291223D01*
X1822997D01*
X1840636D02*
X1833495D01*
X1832781Y-1297650D01*
X1833495Y-1296936D01*
X1835637Y-1296222D01*
X1837780D01*
X1839922Y-1296936D01*
X1841350Y-1298365D01*
X1842064Y-1300507D01*
Y-1301935D01*
X1841350Y-1304078D01*
X1839922Y-1305506D01*
X1837780Y-1306220D01*
X1835637D01*
X1833495Y-1305506D01*
X1832781Y-1304792D01*
X1832066Y-1303363D01*
X1845421Y-1308362D02*
X1855419Y-1291223D01*
X1856418Y-1294080D02*
X1857847Y-1293366D01*
X1859989Y-1291223D01*
Y-1306220D01*
X1876700Y-1296222D02*
X1875986Y-1298365D01*
X1874557Y-1299793D01*
X1872415Y-1300507D01*
X1871701D01*
X1869558Y-1299793D01*
X1868130Y-1298365D01*
X1867416Y-1296222D01*
Y-1295508D01*
X1868130Y-1293366D01*
X1869558Y-1291937D01*
X1871701Y-1291223D01*
X1872415D01*
X1874557Y-1291937D01*
X1875986Y-1293366D01*
X1876700Y-1296222D01*
Y-1299793D01*
X1875986Y-1303363D01*
X1874557Y-1305506D01*
X1872415Y-1306220D01*
X1870987D01*
X1868844Y-1305506D01*
X1868130Y-1304078D01*
M02*
