G04*
G04 #@! TF.GenerationSoftware,Altium Limited,Altium Designer,19.0.12 (326)*
G04*
G04 Layer_Physical_Order=2*
G04 Layer_Color=16711680*
%FSLAX44Y44*%
%MOMM*%
G71*
G01*
G75*
%ADD11C,0.1270*%
%ADD19R,0.3000X4.0000*%
%ADD26C,0.2410*%
%ADD29C,0.1524*%
%ADD31C,0.2540*%
%ADD34C,0.4064*%
%ADD35C,0.5080*%
%ADD36C,0.5080*%
D11*
X1707500Y43640D02*
G03*
X1701140Y50000I-6360J0D01*
G01*
X1682500Y-5000D02*
G03*
X1677500Y0I-5000J0D01*
G01*
Y-15922D02*
G03*
X1682500Y-10922I0J5000D01*
G01*
X1657096Y-15922D02*
G03*
X1652528Y-20320I-85J-4483D01*
G01*
X1702500Y-33702D02*
G03*
X1707500Y-28702I0J5000D01*
G01*
X1681734Y-33702D02*
G03*
X1677528Y-38608I350J-4556D01*
G01*
X1652528Y-129568D02*
X1677528D01*
Y-38608D01*
X1682500Y50000D02*
X1701140D01*
X1677500Y0D02*
X1677500D01*
X1652528Y-129568D02*
Y-20320D01*
X1597500Y50000D02*
X1682500D01*
X0D02*
X1597500D01*
X0Y-0D02*
X1677500Y0D01*
X0D02*
Y50000D01*
X1682500Y-10922D02*
Y-5000D01*
X1657096Y-15922D02*
X1677500D01*
X1707500Y-27686D02*
Y43640D01*
X1681734Y-33702D02*
X1702500D01*
D19*
X1672528Y-109572D02*
D03*
X1662528D02*
D03*
X1657528D02*
D03*
X1667528D02*
D03*
D26*
X1703120Y43640D02*
G03*
X1701140Y45620I-1980J0D01*
G01*
X1686880Y-5000D02*
G03*
X1677500Y4380I-9380J0D01*
G01*
Y-20302D02*
G03*
X1686880Y-10922I0J9380D01*
G01*
X1702500Y-29322D02*
G03*
X1703120Y-28702I0J620D01*
G01*
X1681398Y-29335D02*
G03*
X1673148Y-38748I685J-8923D01*
G01*
Y-39952D02*
G03*
X1668529Y-46707I-300J-4752D01*
G01*
X1666019Y-48955D02*
G03*
X1667258Y-45750I-3521J3204D01*
G01*
D02*
G03*
X1658047Y-44058I-4761J0D01*
G01*
D02*
G03*
X1656908Y-44028I-697J-4710D01*
G01*
X1680204Y45620D02*
X1703120Y22704D01*
X1690981Y45620D02*
X1703120Y33481D01*
X1682500Y45620D02*
X1701140D01*
X1651160Y4380D02*
X1692400Y45620D01*
X1669428D02*
X1703120Y11928D01*
X1629607Y4380D02*
X1670847Y45620D01*
X1626323D02*
X1667563Y4380D01*
X1640383D02*
X1681623Y45620D01*
X1615546D02*
X1656786Y4380D01*
X1608054D02*
X1649294Y45620D01*
X1618831Y4380D02*
X1660071Y45620D01*
X1604770D02*
X1646010Y4380D01*
X1597278D02*
X1638518Y45620D01*
X1597500D02*
X1682500D01*
X1586502Y4380D02*
X1627742Y45620D01*
X1583217D02*
X1624457Y4380D01*
X1593994Y45620D02*
X1635234Y4380D01*
X1572441Y45620D02*
X1613681Y4380D01*
X1564949D02*
X1606189Y45620D01*
X1575725Y4380D02*
X1616965Y45620D01*
X1486230D02*
X1527470Y4380D01*
X1478739D02*
X1519979Y45620D01*
X1561665D02*
X1602905Y4380D01*
X1701915Y45462D02*
X1702962Y44415D01*
X1661936Y4380D02*
X1702568Y45012D01*
X1672712Y4380D02*
X1703120Y34788D01*
X1550889Y45620D02*
X1592128Y4380D01*
X1550888Y45620D02*
X1592128Y4380D01*
X1554173D02*
X1595413Y45620D01*
X1540112D02*
X1581352Y4380D01*
X1532620Y4380D02*
X1573860Y45620D01*
X1543396Y4380D02*
X1584637Y45620D01*
X1521844Y4380D02*
X1563084Y45620D01*
X1518559D02*
X1559799Y4380D01*
X1529336Y45620D02*
X1570576Y4380D01*
X1507783Y45620D02*
X1549023Y4380D01*
X1500291Y4380D02*
X1541531Y45620D01*
X1511068Y4380D02*
X1552308Y45620D01*
X1489515Y4380D02*
X1530755Y45620D01*
X1475454D02*
X1516694Y4380D01*
X1497007Y45620D02*
X1538247Y4380D01*
X1464678Y45620D02*
X1505918Y4380D01*
X1457186D02*
X1498426Y45620D01*
X1467962Y4380D02*
X1509202Y45620D01*
X1446410Y4380D02*
X1487650Y45620D01*
X1453902D02*
X1495141Y4380D01*
X1281481Y45620D02*
X1322721Y4380D01*
X1273989D02*
X1315229Y45620D01*
X1284765Y4380D02*
X1326005Y45620D01*
X1263213Y4380D02*
X1304453Y45620D01*
X1259928D02*
X1301168Y4380D01*
X1270704Y45620D02*
X1311944Y4380D01*
X1313810Y45620D02*
X1355049Y4380D01*
X1306318D02*
X1347558Y45620D01*
X1317094Y4380D02*
X1358334Y45620D01*
X1295542Y4380D02*
X1336781Y45620D01*
X1292257D02*
X1333497Y4380D01*
X1303033Y45620D02*
X1344273Y4380D01*
X1238375Y45620D02*
X1279615Y4380D01*
X1227599Y45620D02*
X1268839Y4380D01*
X1249152Y45620D02*
X1290392Y4380D01*
X1065955Y45620D02*
X1107195Y4380D01*
X1058463D02*
X1099703Y45620D01*
X1087507D02*
X1128747Y4380D01*
X1047686D02*
X1088926Y45620D01*
X1044402D02*
X1085642Y4380D01*
X1055178Y45620D02*
X1096418Y4380D01*
X1033626Y45620D02*
X1074866Y4380D01*
X1036910D02*
X1078150Y45620D01*
X1403304Y4380D02*
X1444545Y45620D01*
X1400020D02*
X1441260Y4380D01*
X1410796Y45620D02*
X1452036Y4380D01*
X1389244Y45620D02*
X1430484Y4380D01*
X1381752D02*
X1422992Y45620D01*
X1392528Y4380D02*
X1433768Y45620D01*
X1435633Y4380D02*
X1476873Y45620D01*
X1432349D02*
X1473589Y4380D01*
X1443125Y45620D02*
X1484365Y4380D01*
X1421573Y45620D02*
X1462813Y4380D01*
X1414081D02*
X1455321Y45620D01*
X1424857Y4380D02*
X1466097Y45620D01*
X1346138D02*
X1387379Y4380D01*
X1338647D02*
X1379887Y45620D01*
X1349423Y4380D02*
X1390663Y45620D01*
X1327870Y4380D02*
X1369110Y45620D01*
X1324586D02*
X1365826Y4380D01*
X1335362Y45620D02*
X1376602Y4380D01*
X1370976D02*
X1412216Y45620D01*
X1367691D02*
X1408931Y4380D01*
X1378467Y45620D02*
X1419707Y4380D01*
X1356915Y45620D02*
X1398155Y4380D01*
X1360199D02*
X1401439Y45620D01*
X1686702Y-3182D02*
X1703120Y13235D01*
X1682216Y3108D02*
X1703120Y24012D01*
X1686178Y-14483D02*
X1703120Y2459D01*
X1686880Y-10922D02*
Y-5000D01*
X1703120Y-27686D02*
Y43640D01*
X1686839Y-4119D02*
X1703120Y-20401D01*
X1692892Y-29322D02*
X1703120Y-19094D01*
X1686248Y-14306D02*
X1701265Y-29322D01*
X1682115D02*
X1703120Y-8317D01*
X1680850Y-19683D02*
X1690488Y-29322D01*
X1647875Y45620D02*
X1703120Y-9625D01*
X1637099Y45620D02*
X1678380Y4339D01*
X1658652Y45620D02*
X1703120Y1152D01*
X1252436Y4380D02*
X1293676Y45620D01*
X1241660Y4380D02*
X1282900Y45620D01*
X1657111Y-20302D02*
X1677500D01*
X1670692D02*
X1679955Y-29565D01*
X1656908Y-43753D02*
X1681061Y-19600D01*
X1659916Y-20302D02*
X1674010Y-34397D01*
X1656908Y-22200D02*
X1658806Y-20302D01*
X1656908Y-32977D02*
X1669583Y-20302D01*
X1656908Y-44028D02*
Y-20392D01*
X1681734Y-29322D02*
X1702500D01*
X1673148Y-39952D02*
Y-38748D01*
X1671200Y-40237D02*
X1673135Y-38303D01*
X1667057Y-44380D02*
X1668381Y-43056D01*
X1666456Y-48395D02*
X1668529Y-50468D01*
X1666019Y-69510D02*
X1668529Y-72020D01*
Y-85344D02*
Y-46707D01*
X1666019Y-85344D02*
X1668529D01*
X1666019Y-56195D02*
X1668529Y-53685D01*
X1656908Y-28070D02*
X1669846Y-41009D01*
X1666019Y-58734D02*
X1668529Y-61244D01*
X1656908Y-38847D02*
X1659853Y-41792D01*
X1666019Y-69511D02*
X1668529Y-72021D01*
X1666019Y-66971D02*
X1668529Y-64461D01*
X1666019Y-77747D02*
X1668529Y-75237D01*
X1666019Y-85344D02*
Y-48955D01*
Y-80287D02*
X1668529Y-82797D01*
X1022849Y45620D02*
X1064089Y4380D01*
X1015358D02*
X1056598Y45620D01*
X1026134Y4380D02*
X1067374Y45620D01*
X1004581Y4380D02*
X1045821Y45620D01*
X1001297D02*
X1042537Y4380D01*
X1012073Y45620D02*
X1053313Y4380D01*
X1098283Y45620D02*
X1139523Y4380D01*
X1090792D02*
X1132032Y45620D01*
X1101568Y4380D02*
X1142808Y45620D01*
X1076731D02*
X1117971Y4380D01*
X1069239D02*
X1110479Y45620D01*
X1080015Y4380D02*
X1121255Y45620D01*
X990520D02*
X1031760Y4380D01*
X983029D02*
X1024269Y45620D01*
X993805Y4380D02*
X1035045Y45620D01*
X968968D02*
X1010208Y4380D01*
X958191Y45620D02*
X999432Y4380D01*
X979744Y45620D02*
X1020984Y4380D01*
X961476Y4380D02*
X1002716Y45620D01*
X950700Y4380D02*
X991940Y45620D01*
X972252Y4380D02*
X1013492Y45620D01*
X939923Y4380D02*
X981163Y45620D01*
X947415D02*
X988655Y4380D01*
X1187778D02*
X1229018Y45620D01*
X1184494D02*
X1225734Y4380D01*
X1195270Y45620D02*
X1236510Y4380D01*
X1173717Y45620D02*
X1214958Y4380D01*
X1166226D02*
X1207466Y45620D01*
X1177002Y4380D02*
X1218242Y45620D01*
X1220107Y4380D02*
X1261347Y45620D01*
X1216823D02*
X1258063Y4380D01*
X1230884D02*
X1272124Y45620D01*
X1206047D02*
X1247287Y4380D01*
X1198555D02*
X1239795Y45620D01*
X1209331Y4380D02*
X1250571Y45620D01*
X1130612D02*
X1171852Y4380D01*
X1123120D02*
X1164361Y45620D01*
X1133897Y4380D02*
X1175137Y45620D01*
X1112344Y4380D02*
X1153584Y45620D01*
X1109060D02*
X1150300Y4380D01*
X1119836Y45620D02*
X1161076Y4380D01*
X1155450D02*
X1196690Y45620D01*
X1152165D02*
X1193405Y4380D01*
X1162941Y45620D02*
X1204181Y4380D01*
X1141389Y45620D02*
X1182629Y4380D01*
X1144673D02*
X1185913Y45620D01*
X778279Y4380D02*
X819519Y45620D01*
X774994D02*
X816234Y4380D01*
X785770Y45620D02*
X827011Y4380D01*
X764218Y45620D02*
X805458Y4380D01*
X756726D02*
X797966Y45620D01*
X767502Y4380D02*
X808743Y45620D01*
X810608Y4380D02*
X851848Y45620D01*
X807323D02*
X848563Y4380D01*
X818100Y45620D02*
X859340Y4380D01*
X796547Y45620D02*
X837787Y4380D01*
X789055D02*
X830295Y45620D01*
X799831Y4380D02*
X841071Y45620D01*
X745950Y4380D02*
X787190Y45620D01*
X742665D02*
X783905Y4380D01*
X753442Y45620D02*
X794682Y4380D01*
X731889Y45620D02*
X773129Y4380D01*
X724397D02*
X765637Y45620D01*
X735173Y4380D02*
X776414Y45620D01*
X713621Y4380D02*
X754861Y45620D01*
X710336D02*
X751577Y4380D01*
X721113Y45620D02*
X762353Y4380D01*
X699560Y45620D02*
X740800Y4380D01*
X692068Y4380D02*
X733308Y45620D01*
X702845Y4380D02*
X744085Y45620D01*
X896818Y4380D02*
X938058Y45620D01*
X893534D02*
X934774Y4380D01*
X904310Y45620D02*
X945550Y4380D01*
X882757Y45620D02*
X923997Y4380D01*
X875266D02*
X916506Y45620D01*
X886042Y4380D02*
X927282Y45620D01*
X929147Y4380D02*
X970387Y45620D01*
X925863D02*
X967103Y4380D01*
X936639Y45620D02*
X977879Y4380D01*
X915086Y45620D02*
X956326Y4380D01*
X907594D02*
X948835Y45620D01*
X918371Y4380D02*
X959611Y45620D01*
X842937Y4380D02*
X884177Y45620D01*
X839652D02*
X880892Y4380D01*
X4380Y45620D02*
X1597500D01*
X828876D02*
X870116Y4380D01*
X821384D02*
X862624Y45620D01*
X832160Y4380D02*
X873400Y45620D01*
X864489Y4380D02*
X905729Y45620D01*
X861205D02*
X902445Y4380D01*
X871981Y45620D02*
X913221Y4380D01*
X850428Y45620D02*
X891668Y4380D01*
X853713D02*
X894953Y45620D01*
X516363D02*
X557603Y4380D01*
X508871D02*
X550111Y45620D01*
X519647Y4380D02*
X560887Y45620D01*
X498095Y4380D02*
X539335Y45620D01*
X494810D02*
X536050Y4380D01*
X505587Y45620D02*
X546827Y4380D01*
X548692Y45620D02*
X589932Y4380D01*
X541200D02*
X582440Y45620D01*
X551976Y4380D02*
X593216Y45620D01*
X530424Y4380D02*
X571664Y45620D01*
X527139D02*
X568379Y4380D01*
X537915Y45620D02*
X579156Y4380D01*
X454990D02*
X496230Y45620D01*
X4380Y6375D02*
X43625Y45620D01*
X462481D02*
X503722Y4380D01*
X4380Y27928D02*
X22072Y45620D01*
X4380Y38704D02*
X11296Y45620D01*
X4380Y17152D02*
X32848Y45620D01*
X484034D02*
X525274Y4380D01*
X476542D02*
X517782Y45620D01*
X487318Y4380D02*
X528559Y45620D01*
X465766Y4380D02*
X507006Y45620D01*
X473258D02*
X514498Y4380D01*
X681292D02*
X722532Y45620D01*
X678008D02*
X719248Y4380D01*
X688784Y45620D02*
X730024Y4380D01*
X667231Y45620D02*
X708471Y4380D01*
X659739Y4380D02*
X700979Y45620D01*
X670516Y4380D02*
X711756Y45620D01*
X648963Y4380D02*
X690203Y45620D01*
X645679D02*
X686919Y4380D01*
X656455Y45620D02*
X697695Y4380D01*
X634902Y45620D02*
X676142Y4380D01*
X627410D02*
X668651Y45620D01*
X638187Y4380D02*
X679427Y45620D01*
X581021D02*
X622261Y4380D01*
X573529D02*
X614769Y45620D01*
X584305Y4380D02*
X625545Y45620D01*
X562753Y4380D02*
X603993Y45620D01*
X559468D02*
X600708Y4380D01*
X570244Y45620D02*
X611484Y4380D01*
X616634D02*
X657874Y45620D01*
X613350D02*
X654590Y4380D01*
X624126Y45620D02*
X665366Y4380D01*
X591797Y45620D02*
X633037Y4380D01*
X605858D02*
X647098Y45620D01*
X304121Y4380D02*
X345361Y45620D01*
X300837D02*
X342077Y4380D01*
X311613Y45620D02*
X352853Y4380D01*
X290061Y45620D02*
X331301Y4380D01*
X282569D02*
X323809Y45620D01*
X293345Y4380D02*
X334585Y45620D01*
X336450Y4380D02*
X377690Y45620D01*
X333166D02*
X374406Y4380D01*
X343942Y45620D02*
X385182Y4380D01*
X322389Y45620D02*
X363629Y4380D01*
X314897D02*
X356138Y45620D01*
X325674Y4380D02*
X366914Y45620D01*
X246955D02*
X288195Y4380D01*
X239463D02*
X280704Y45620D01*
X250240Y4380D02*
X291480Y45620D01*
X228687Y4380D02*
X269927Y45620D01*
X225403D02*
X266643Y4380D01*
X236179Y45620D02*
X277419Y4380D01*
X271792D02*
X313032Y45620D01*
X268508D02*
X309748Y4380D01*
X279284Y45620D02*
X320524Y4380D01*
X257732Y45620D02*
X298972Y4380D01*
X261016D02*
X302256Y45620D01*
X595081Y4380D02*
X636322Y45620D01*
X451705D02*
X492945Y4380D01*
X602573Y45620D02*
X643813Y4380D01*
X440929Y45620D02*
X482169Y4380D01*
X433437D02*
X474677Y45620D01*
X444213Y4380D02*
X485453Y45620D01*
X422661Y4380D02*
X463901Y45620D01*
X419376D02*
X460616Y4380D01*
X430153Y45620D02*
X471393Y4380D01*
X408600Y45620D02*
X449840Y4380D01*
X401108Y4380D02*
X442348Y45620D01*
X411884Y4380D02*
X453124Y45620D01*
X390332Y4380D02*
X431572Y45620D01*
X387047D02*
X428287Y4380D01*
X397823Y45620D02*
X439064Y4380D01*
X376271Y45620D02*
X417511Y4380D01*
X368779D02*
X410019Y45620D01*
X379555Y4380D02*
X420796Y45620D01*
X365495D02*
X406735Y4380D01*
X358003D02*
X399243Y45620D01*
X4380Y4380D02*
X1677500Y4380D01*
X347226Y4380D02*
X388467Y45620D01*
X354718D02*
X395958Y4380D01*
X182297Y45620D02*
X223538Y4380D01*
X174806D02*
X216046Y45620D01*
X185582Y4380D02*
X226822Y45620D01*
X164029Y4380D02*
X205269Y45620D01*
X160745D02*
X201985Y4380D01*
X171521Y45620D02*
X212761Y4380D01*
X214626Y45620D02*
X255867Y4380D01*
X207134D02*
X248375Y45620D01*
X217911Y4380D02*
X259151Y45620D01*
X196358Y4380D02*
X237598Y45620D01*
X193074D02*
X234314Y4380D01*
X203850Y45620D02*
X245090Y4380D01*
X149969Y45620D02*
X191209Y4380D01*
X139192Y45620D02*
X180432Y4380D01*
X153253D02*
X194493Y45620D01*
X117640D02*
X158880Y4380D01*
X106863Y45620D02*
X148103Y4380D01*
X128416Y45620D02*
X169656Y4380D01*
X131700Y4380D02*
X172941Y45620D01*
X120924Y4380D02*
X162164Y45620D01*
X142477Y4380D02*
X183717Y45620D01*
X110148Y4380D02*
X151388Y45620D01*
X120924Y4380D02*
X162164Y45620D01*
X63758D02*
X104998Y4380D01*
X56266D02*
X97506Y45620D01*
X67042Y4380D02*
X108283Y45620D01*
X45490Y4380D02*
X86730Y45620D01*
X42206D02*
X83446Y4380D01*
X52982Y45620D02*
X94222Y4380D01*
X96087Y45620D02*
X137327Y4380D01*
X88595D02*
X129835Y45620D01*
X99371Y4380D02*
X140612Y45620D01*
X77819Y4380D02*
X119059Y45620D01*
X74534D02*
X115774Y4380D01*
X85311Y45620D02*
X126551Y4380D01*
X9876Y45620D02*
X51117Y4380D01*
X4380Y40340D02*
X40340Y4380D01*
X4380Y29564D02*
X29564Y4380D01*
X4380Y18788D02*
X18788Y4380D01*
X4380D02*
Y45620D01*
Y8012D02*
X8012Y4380D01*
X31429Y45620D02*
X72669Y4380D01*
X23937D02*
X65177Y45620D01*
X34714Y4380D02*
X75954Y45620D01*
X13161Y4380D02*
X54401Y45620D01*
X20653D02*
X61893Y4380D01*
D29*
X1662528Y-101444D02*
Y-45781D01*
X1662498Y-45750D02*
X1662528Y-45781D01*
X1657608Y-101364D02*
Y-49026D01*
X1657350Y-48768D02*
X1657608Y-49026D01*
D31*
X1667528Y-42513D02*
G03*
X1666752Y-40640I-2649J0D01*
G01*
X1670050Y-27178D02*
G03*
X1666752Y-35140I7962J-7962D01*
G01*
X1675569Y-24892D02*
G03*
X1670050Y-27178I0J-7805D01*
G01*
X1684694Y-24892D02*
G03*
X1693279Y-21336I0J12141D01*
G01*
X1696724Y-7390D02*
G03*
X1690434Y7796I-21475J0D01*
G01*
X1693279Y-21336D02*
G03*
X1696724Y-13018I-8317J8317D01*
G01*
X1690434Y7796D02*
G03*
X1677980Y12954I-12454J-12454D01*
G01*
X1667528Y-101444D02*
Y-42513D01*
X1666752Y-40640D02*
Y-35140D01*
X1675569Y-24892D02*
X1684694D01*
X1696724Y-13018D02*
Y-7390D01*
X1672528Y-45024D02*
X1672556Y-45052D01*
X1672528Y-101444D02*
Y-46101D01*
X1672556Y-46073D01*
Y-45052D01*
X1569174Y12954D02*
X1677980D01*
X1672528Y-45024D02*
X1672848Y-44704D01*
D34*
X1662498Y-45750D02*
D03*
X1657350Y-48768D02*
D03*
X1672848Y-44704D02*
D03*
D35*
X69935Y12368D02*
D03*
X38227Y7796D02*
D03*
X144935Y12368D02*
D03*
X113227Y7796D02*
D03*
X1666752Y-40640D02*
D03*
X1463226Y7795D02*
D03*
X1313226D02*
D03*
X1163226D02*
D03*
X1013226D02*
D03*
X863227Y7796D02*
D03*
X713227D02*
D03*
X563226Y7795D02*
D03*
X413226D02*
D03*
X263226D02*
D03*
X188227Y7796D02*
D03*
X219935Y12368D02*
D03*
X338226Y7795D02*
D03*
X369934Y12367D02*
D03*
X294430Y12367D02*
D03*
X488226Y7795D02*
D03*
X519934Y12367D02*
D03*
X444406Y12367D02*
D03*
X638226Y7795D02*
D03*
X669934Y12367D02*
D03*
X594416D02*
D03*
X788226Y7795D02*
D03*
X819934Y12367D02*
D03*
X744431Y12368D02*
D03*
X938226Y7795D02*
D03*
X969934Y12367D02*
D03*
X894431Y12368D02*
D03*
X1088226Y7795D02*
D03*
X1119934Y12367D02*
D03*
X1044430D02*
D03*
X1194430D02*
D03*
X1269961Y12368D02*
D03*
X1238253Y7796D02*
D03*
X1344430Y13129D02*
D03*
X1419934D02*
D03*
X1388480Y8557D02*
D03*
X1537720Y8382D02*
D03*
X1569174Y12954D02*
D03*
X1493708D02*
D03*
D36*
X38227Y7796D02*
X42799Y12368D01*
X69935D01*
X74507Y7796D01*
X113227D01*
X117799Y12368D01*
X144935D01*
X149507Y7796D01*
X188227D01*
X1493708Y12954D02*
X1533148D01*
X1419934Y13129D02*
X1457892D01*
X1344430D02*
X1383908D01*
X1308654Y12368D02*
X1313226Y7795D01*
X1269961Y12368D02*
X1308654D01*
X1233680Y12367D02*
X1233681Y12368D01*
X1119934Y12367D02*
X1158654D01*
X1044430D02*
X1083654D01*
X1008654D02*
X1008654Y12368D01*
X969934Y12367D02*
X1008654D01*
X933654Y12368D02*
X938226Y7795D01*
X894431Y12368D02*
X933654D01*
X858654Y12367D02*
X858655Y12368D01*
X819934Y12367D02*
X858654D01*
X708654D02*
X708654Y12368D01*
X669934Y12367D02*
X708654D01*
X594416D02*
X633654D01*
X558654D02*
X563226Y7795D01*
X483654Y12367D02*
X483654Y12367D01*
X444406Y12367D02*
X483654D01*
X408654Y12367D02*
X413226Y7795D01*
X369934Y12367D02*
X408654D01*
X333654Y12367D02*
X333654Y12367D01*
X258654Y12368D02*
X263226Y7795D01*
X219935Y12368D02*
X258654D01*
X1564602Y8382D02*
X1569174Y12954D01*
X1537720Y8382D02*
X1564602D01*
X1533148Y12954D02*
X1537720Y8382D01*
X1488549Y7795D02*
X1493708Y12954D01*
X1463226Y7795D02*
X1488549D01*
X1457892Y13129D02*
X1463226Y7795D01*
X1415362Y8557D02*
X1419934Y13129D01*
X1388480Y8557D02*
X1415362D01*
X1383908Y13129D02*
X1388480Y8557D01*
X1339096Y7795D02*
X1344430Y13129D01*
X1313226Y7795D02*
X1339096D01*
X1265389Y7796D02*
X1269961Y12368D01*
X1238253Y7796D02*
X1265389D01*
X1233681Y12368D02*
X1238253Y7796D01*
X1194430Y12367D02*
X1233680D01*
X1189858Y7795D02*
X1194430Y12367D01*
X1163226Y7795D02*
X1189858D01*
X1158654Y12367D02*
X1163226Y7795D01*
X1115362D02*
X1119934Y12367D01*
X1088226Y7795D02*
X1115362D01*
X1083654Y12367D02*
X1088226Y7795D01*
X1039858D02*
X1044430Y12367D01*
X1013226Y7795D02*
X1039858D01*
X1008654Y12368D02*
X1013226Y7795D01*
X965362D02*
X969934Y12367D01*
X938226Y7795D02*
X965362D01*
X889859Y7796D02*
X894431Y12368D01*
X863227Y7796D02*
X889859D01*
X858655Y12368D02*
X863227Y7796D01*
X815362Y7795D02*
X819934Y12367D01*
X788226Y7795D02*
X815362D01*
X783654Y12368D02*
X788226Y7795D01*
X744431Y12368D02*
X783654D01*
X739859Y7796D02*
X744431Y12368D01*
X713227Y7796D02*
X739859D01*
X708654Y12368D02*
X713227Y7796D01*
X665362Y7795D02*
X669934Y12367D01*
X638226Y7795D02*
X665362D01*
X633654Y12367D02*
X638226Y7795D01*
X589844D02*
X594416Y12367D01*
X563226Y7795D02*
X589844D01*
X519934Y12367D02*
X558654D01*
X515362Y7795D02*
X519934Y12367D01*
X488226Y7795D02*
X515362D01*
X483654Y12367D02*
X488226Y7795D01*
X439835D02*
X444406Y12367D01*
X413226Y7795D02*
X439835D01*
X365362D02*
X369934Y12367D01*
X338226Y7795D02*
X365362D01*
X333654Y12367D02*
X338226Y7795D01*
X294430Y12367D02*
X333654D01*
X289858Y7795D02*
X294430Y12367D01*
X263226Y7795D02*
X289858D01*
X215363Y7796D02*
X219935Y12368D01*
X188227Y7796D02*
X215363D01*
M02*
