G04*
G04 #@! TF.GenerationSoftware,Altium Limited,Altium Designer,19.0.12 (326)*
G04*
G04 Layer_Physical_Order=1*
G04 Layer_Color=255*
%FSLAX44Y44*%
%MOMM*%
G71*
G01*
G75*
%ADD11C,0.1270*%
%ADD15R,0.6000X0.6000*%
%ADD16R,0.5000X0.8000*%
%ADD17R,0.3000X0.8000*%
%ADD18R,1.0000X0.3000*%
%ADD19R,0.3000X4.0000*%
%ADD26C,0.2410*%
%ADD27C,0.6350*%
%ADD28C,0.4064*%
%ADD29C,0.1524*%
%ADD30C,1.0000*%
%ADD31C,0.2540*%
%ADD32C,0.3048*%
%ADD33C,0.2032*%
%ADD34C,0.4064*%
%ADD35C,0.5080*%
D11*
X1707500Y43640D02*
G03*
X1701140Y50000I-6360J0D01*
G01*
X1682500Y-5000D02*
G03*
X1677500Y0I-5000J0D01*
G01*
Y-15922D02*
G03*
X1682500Y-10922I0J5000D01*
G01*
X1657096Y-15922D02*
G03*
X1652528Y-20320I-85J-4483D01*
G01*
X1702500Y-33702D02*
G03*
X1707500Y-28702I0J5000D01*
G01*
X1681734Y-33702D02*
G03*
X1677528Y-38608I350J-4556D01*
G01*
X1652528Y-129568D02*
X1677528D01*
Y-38608D01*
X1682500Y50000D02*
X1701140D01*
X1677500Y0D02*
X1677500D01*
X1652528Y-129568D02*
Y-20320D01*
X1597500Y50000D02*
X1682500D01*
X0D02*
X1597500D01*
X0Y-0D02*
X1677500Y0D01*
X0D02*
Y50000D01*
X1682500Y-10922D02*
Y-5000D01*
X1657096Y-15922D02*
X1677500D01*
X1707500Y-27686D02*
Y43640D01*
X1681734Y-33702D02*
X1702500D01*
D15*
X75708Y20256D02*
D03*
Y30256D02*
D03*
X150626Y19666D02*
D03*
Y29666D02*
D03*
X225228Y20294D02*
D03*
Y30294D02*
D03*
X300118Y20054D02*
D03*
Y30054D02*
D03*
X375118Y19920D02*
D03*
Y29920D02*
D03*
X449958Y20308D02*
D03*
Y30308D02*
D03*
X525118Y19920D02*
D03*
Y29920D02*
D03*
X599974Y19919D02*
D03*
Y29919D02*
D03*
X675118Y19237D02*
D03*
Y29237D02*
D03*
X900118Y19666D02*
D03*
Y29666D02*
D03*
X825036Y19920D02*
D03*
Y29920D02*
D03*
X750118Y19792D02*
D03*
Y29792D02*
D03*
X975118Y19620D02*
D03*
Y29620D02*
D03*
X1049864Y19754D02*
D03*
Y29754D02*
D03*
X1124864Y19920D02*
D03*
Y29920D02*
D03*
X1275144Y19412D02*
D03*
Y29412D02*
D03*
X1199864Y20000D02*
D03*
Y30000D02*
D03*
X1350244Y29238D02*
D03*
Y19238D02*
D03*
X1424864Y30174D02*
D03*
Y20174D02*
D03*
X1499398Y30000D02*
D03*
Y20000D02*
D03*
X1574864Y30000D02*
D03*
Y20000D02*
D03*
D16*
X118766Y17500D02*
D03*
X136766D02*
D03*
X118766Y32500D02*
D03*
X136766D02*
D03*
X43766Y17500D02*
D03*
X61766D02*
D03*
X43766Y32500D02*
D03*
X61766D02*
D03*
X1561766D02*
D03*
X1543766D02*
D03*
X1561766Y17500D02*
D03*
X1543766D02*
D03*
X1468766D02*
D03*
X1486766D02*
D03*
X1468766Y32500D02*
D03*
X1486766D02*
D03*
X1411766D02*
D03*
X1393766D02*
D03*
X1411766Y17500D02*
D03*
X1393766D02*
D03*
X1318766D02*
D03*
X1336766D02*
D03*
X1318766Y32500D02*
D03*
X1336766D02*
D03*
X1261792Y32500D02*
D03*
X1243792D02*
D03*
X1261792Y17500D02*
D03*
X1243792D02*
D03*
X1168766Y17500D02*
D03*
X1186766D02*
D03*
X1168766Y32500D02*
D03*
X1186766D02*
D03*
X1111766D02*
D03*
X1093766D02*
D03*
X1111766Y17500D02*
D03*
X1093766D02*
D03*
X1018766D02*
D03*
X1036766D02*
D03*
X1018766Y32500D02*
D03*
X1036766D02*
D03*
X961766D02*
D03*
X943766D02*
D03*
X961766Y17500D02*
D03*
X943766D02*
D03*
X868766D02*
D03*
X886766D02*
D03*
X868766Y32500D02*
D03*
X886766D02*
D03*
X811766D02*
D03*
X793766D02*
D03*
X811766Y17500D02*
D03*
X793766D02*
D03*
X718766D02*
D03*
X736766D02*
D03*
X718766Y32500D02*
D03*
X736766D02*
D03*
X661766D02*
D03*
X643766D02*
D03*
X661766Y17500D02*
D03*
X643766D02*
D03*
X568766D02*
D03*
X586766D02*
D03*
X568766Y32500D02*
D03*
X586766D02*
D03*
X511766D02*
D03*
X493766D02*
D03*
X511766Y17500D02*
D03*
X493766D02*
D03*
X418766D02*
D03*
X436766D02*
D03*
X418766Y32500D02*
D03*
X436766D02*
D03*
X361766D02*
D03*
X343766D02*
D03*
X361766Y17500D02*
D03*
X343766D02*
D03*
X268766D02*
D03*
X286766D02*
D03*
X268766Y32500D02*
D03*
X286766D02*
D03*
X211766Y32500D02*
D03*
X193766D02*
D03*
X211766Y17500D02*
D03*
X193766D02*
D03*
D17*
X127766Y32500D02*
D03*
Y17500D02*
D03*
X52766Y32500D02*
D03*
Y17500D02*
D03*
X1552766D02*
D03*
Y32500D02*
D03*
X1477766D02*
D03*
Y17500D02*
D03*
X1402766D02*
D03*
Y32500D02*
D03*
X1327766D02*
D03*
Y17500D02*
D03*
X1252792Y17500D02*
D03*
Y32500D02*
D03*
X1177766Y32500D02*
D03*
Y17500D02*
D03*
X1102766D02*
D03*
Y32500D02*
D03*
X1027766D02*
D03*
Y17500D02*
D03*
X952766D02*
D03*
Y32500D02*
D03*
X877766D02*
D03*
Y17500D02*
D03*
X802766D02*
D03*
Y32500D02*
D03*
X727766D02*
D03*
Y17500D02*
D03*
X652766D02*
D03*
Y32500D02*
D03*
X577766D02*
D03*
Y17500D02*
D03*
X502766D02*
D03*
Y32500D02*
D03*
X427766D02*
D03*
Y17500D02*
D03*
X352766D02*
D03*
Y32500D02*
D03*
X277766D02*
D03*
Y17500D02*
D03*
X202766Y17500D02*
D03*
Y32500D02*
D03*
D18*
X119466Y25000D02*
D03*
X136066D02*
D03*
X44466D02*
D03*
X61066D02*
D03*
X1561066D02*
D03*
X1544466D02*
D03*
X1469466D02*
D03*
X1486066D02*
D03*
X1411066D02*
D03*
X1394466D02*
D03*
X1319466D02*
D03*
X1336066D02*
D03*
X1261092Y25000D02*
D03*
X1244492D02*
D03*
X1169466Y25000D02*
D03*
X1186066D02*
D03*
X1111066D02*
D03*
X1094466D02*
D03*
X1019466D02*
D03*
X1036066D02*
D03*
X961066D02*
D03*
X944466D02*
D03*
X869466D02*
D03*
X886066D02*
D03*
X811066D02*
D03*
X794466D02*
D03*
X719466D02*
D03*
X736066D02*
D03*
X661066D02*
D03*
X644466D02*
D03*
X569466D02*
D03*
X586066D02*
D03*
X511066D02*
D03*
X494466D02*
D03*
X419466D02*
D03*
X436066D02*
D03*
X361066D02*
D03*
X344466D02*
D03*
X269466D02*
D03*
X286066D02*
D03*
X211066Y25000D02*
D03*
X194466D02*
D03*
D19*
X1657528Y-109572D02*
D03*
X1662528D02*
D03*
X1667528D02*
D03*
X1672528D02*
D03*
D26*
X1683169Y32633D02*
G03*
X1669384Y38343I-13786J-13786D01*
G01*
X1580593Y28573D02*
G03*
X1580768Y30000I-5729J1427D01*
G01*
X1690794Y19237D02*
G03*
X1672447Y10603I-11205J0D01*
G01*
X1430593Y26986D02*
G03*
X1431528Y30175I-4969J3189D01*
G01*
X1355973Y29398D02*
G03*
X1356024Y30175I-5853J777D01*
G01*
X1573437Y24271D02*
G03*
X1576291Y24271I1427J5729D01*
G01*
X1505127Y28573D02*
G03*
X1505302Y30000I-5729J1427D01*
G01*
X1497971Y24271D02*
G03*
X1500825Y24271I1427J5729D01*
G01*
X1693356Y14371D02*
G03*
X1687646Y28157I-19496J0D01*
G01*
X1424203Y24445D02*
G03*
X1427046Y24445I1422J5730D01*
G01*
X1280873Y26660D02*
G03*
X1281555Y29414I-5223J2753D01*
G01*
X1205593Y27198D02*
G03*
X1206024Y29413I-5473J2215D01*
G01*
X1130593Y26224D02*
G03*
X1131528Y29413I-4969J3189D01*
G01*
X1055593Y27198D02*
G03*
X1056024Y29413I-5473J2215D01*
G01*
X905847Y27976D02*
G03*
X906025Y29414I-5726J1438D01*
G01*
X980847Y26660D02*
G03*
X981528Y29413I-5223J2753D01*
G01*
X1197220Y24271D02*
G03*
X1203021Y24271I2901J5142D01*
G01*
X1274229Y23683D02*
G03*
X1277072Y23683I1422J5730D01*
G01*
X1122870Y24191D02*
G03*
X1128379Y24191I2754J5222D01*
G01*
X1047707Y24025D02*
G03*
X1052534Y24025I2413J5388D01*
G01*
X973536Y23891D02*
G03*
X977713Y23891I2088J5522D01*
G01*
X897915Y23937D02*
G03*
X902327Y23937I2206J5476D01*
G01*
X1684126Y8991D02*
G03*
X1690794Y19237I-4537J10245D01*
G01*
X1540275Y9448D02*
G03*
X1541305Y6972I3491J0D01*
G01*
X1540275Y9448D02*
G03*
X1541297Y6980I3491J0D01*
G01*
X1692845Y-5029D02*
G03*
X1688266Y6025I-15632J0D01*
G01*
X1688266Y6025D02*
G03*
X1684126Y8991I-11054J-11054D01*
G01*
X1692845Y-12146D02*
G03*
X1693356Y-7740I-18734J4405D01*
G01*
X1673148Y-26605D02*
G03*
X1672018Y-27622I8972J-11119D01*
G01*
D02*
G03*
X1668087Y-37110I9489J-9489D01*
G01*
Y-44704D02*
G03*
X1668529Y-46707I4761J0D01*
G01*
X1668087Y-44704D02*
G03*
X1668529Y-46707I4761J0D01*
G01*
X1666004Y-48971D02*
G03*
X1667258Y-45750I-3506J3221D01*
G01*
X1465275Y8940D02*
G03*
X1466305Y6464I3491J0D01*
G01*
X1465275Y8940D02*
G03*
X1466297Y6472I3491J0D01*
G01*
X1315997Y9115D02*
G03*
X1317020Y6647I3491J0D01*
G01*
X1390959Y8353D02*
G03*
X1391989Y5877I3491J0D01*
G01*
X1315997Y9115D02*
G03*
X1317027Y6639I3491J0D01*
G01*
X1390959Y8353D02*
G03*
X1391982Y5885I3491J0D01*
G01*
X1666821Y-26605D02*
G03*
X1664996Y-27360I0J-2580D01*
G01*
X1664991Y-27366D02*
G03*
X1664401Y-28798I1443J-1432D01*
G01*
X1665676Y-42206D02*
G03*
X1664401Y-40210I-5204J-1919D01*
G01*
X1667258Y-45750D02*
G03*
X1665676Y-42206I-4761J0D01*
G01*
X1241024Y8354D02*
G03*
X1242046Y5885I3491J0D01*
G01*
X1241024Y8354D02*
G03*
X1242054Y5878I3491J0D01*
G01*
X1165997Y8353D02*
G03*
X1167028Y5877I3491J0D01*
G01*
X1165997Y8353D02*
G03*
X1167020Y5885I3491J0D01*
G01*
X1090997Y8353D02*
G03*
X1092020Y5885I3491J0D01*
G01*
X1090997Y8353D02*
G03*
X1092028Y5877I3491J0D01*
G01*
X1015997Y8353D02*
G03*
X1017020Y5885I3491J0D01*
G01*
X940997Y8353D02*
G03*
X942020Y5885I3491J0D01*
G01*
X865998Y8354D02*
G03*
X867020Y5885I3491J0D01*
G01*
X1015997Y8353D02*
G03*
X1017028Y5877I3491J0D01*
G01*
X940997Y8353D02*
G03*
X942027Y5877I3491J0D01*
G01*
X865998Y8354D02*
G03*
X867028Y5878I3491J0D01*
G01*
X830765Y26510D02*
G03*
X831528Y29413I-5141J2904D01*
G01*
X755847Y27977D02*
G03*
X756025Y29414I-5726J1437D01*
G01*
X680847Y26660D02*
G03*
X681528Y29413I-5223J2753D01*
G01*
X605703Y27533D02*
G03*
X606010Y29413I-5597J1880D01*
G01*
X530847Y26660D02*
G03*
X531528Y29413I-5223J2753D01*
G01*
X455687Y27517D02*
G03*
X456000Y29413I-5591J1896D01*
G01*
X822870Y24191D02*
G03*
X828379Y24191I2754J5222D01*
G01*
X747625Y24063D02*
G03*
X752617Y24063I2496J5350D01*
G01*
X522870Y24191D02*
G03*
X528378Y24191I2754J5222D01*
G01*
X597354Y24190D02*
G03*
X602859Y24190I2752J5223D01*
G01*
X446707Y24579D02*
G03*
X453486Y24579I3390J4834D01*
G01*
X230957Y26880D02*
G03*
X231529Y29414I-5333J2534D01*
G01*
X156355Y27991D02*
G03*
X156529Y29414I-5730J1423D01*
G01*
X71747Y42552D02*
G03*
X69771Y38862I3879J-4451D01*
G01*
X71747Y42552D02*
G03*
X69771Y38862I3879J-4451D01*
G01*
X81437Y28374D02*
G03*
X81529Y29414I-5812J1040D01*
G01*
X26953Y33528D02*
G03*
X26953Y33528I-11205J0D01*
G01*
X380847Y26660D02*
G03*
X381528Y29413I-5223J2753D01*
G01*
X305847Y27978D02*
G03*
X306024Y29413I-5727J1435D01*
G01*
X372870Y24191D02*
G03*
X378378Y24191I2754J5222D01*
G01*
X297125Y24325D02*
G03*
X303115Y24325I2995J5088D01*
G01*
X222255Y24565D02*
G03*
X228994Y24565I3369J4848D01*
G01*
X148419Y23937D02*
G03*
X152830Y23937I2206J5477D01*
G01*
X72313Y24527D02*
G03*
X78938Y24527I3313J4887D01*
G01*
X790997Y8353D02*
G03*
X792020Y5885I3491J0D01*
G01*
X715998Y8354D02*
G03*
X717028Y5878I3491J0D01*
G01*
X715998Y8354D02*
G03*
X717020Y5885I3491J0D01*
G01*
X640997Y8353D02*
G03*
X642020Y5885I3491J0D01*
G01*
X790997Y8353D02*
G03*
X792028Y5877I3491J0D01*
G01*
X640997Y8353D02*
G03*
X642027Y5877I3491J0D01*
G01*
X491035Y8354D02*
G03*
X492058Y5885I3491J0D01*
G01*
X565983Y8353D02*
G03*
X567006Y5885I3491J0D01*
G01*
X565983Y8353D02*
G03*
X567014Y5877I3491J0D01*
G01*
X491035Y8354D02*
G03*
X492066Y5878I3491J0D01*
G01*
X415973Y8353D02*
G03*
X416996Y5885I3491J0D01*
G01*
X415973Y8353D02*
G03*
X417003Y5877I3491J0D01*
G01*
X340997Y8354D02*
G03*
X342028Y5878I3491J0D01*
G01*
X340997Y8354D02*
G03*
X342020Y5885I3491J0D01*
G01*
X265997Y8353D02*
G03*
X267020Y5885I3491J0D01*
G01*
X265997Y8353D02*
G03*
X267027Y5877I3491J0D01*
G01*
X190998Y8354D02*
G03*
X192020Y5885I3491J0D01*
G01*
X115998Y8354D02*
G03*
X117028Y5878I3491J0D01*
G01*
X115998Y8354D02*
G03*
X117021Y5885I3491J0D01*
G01*
X40999Y8354D02*
G03*
X42021Y5886I3491J0D01*
G01*
X40999Y8354D02*
G03*
X42029Y5878I3491J0D01*
G01*
X190998Y8354D02*
G03*
X192028Y5878I3491J0D01*
G01*
X1665928Y38343D02*
X1674872Y29400D01*
X1655152Y38343D02*
X1669463Y24033D01*
X1644376Y38343D02*
X1672116Y10603D01*
X1683169Y32633D02*
X1687646Y28157D01*
X1679589Y35459D02*
X1690471Y24577D01*
X1676892Y30112D02*
X1681162Y34383D01*
X1580768Y30975D02*
X1588136Y38343D01*
X1580768Y30000D02*
Y38343D01*
X1669384D01*
X1515060D02*
X1520579Y32824D01*
X1508951Y38343D02*
X1526098D01*
X1506617Y36010D02*
X1515191Y27436D01*
X1625054Y10603D02*
X1652794Y38343D01*
X1633600D02*
X1661340Y10603D01*
X1614277D02*
X1642018Y38343D01*
X1622823D02*
X1650563Y10603D01*
X1646606D02*
X1673832Y37829D01*
X1635830Y10603D02*
X1663570Y38343D01*
X1590494D02*
X1618234Y10603D01*
X1592725D02*
X1620465Y38343D01*
X1581948Y10603D02*
X1609689Y38343D01*
X1603501Y10603D02*
X1631241Y38343D01*
X1612047D02*
X1639787Y10603D01*
X1601271Y38343D02*
X1629011Y10603D01*
X1431528Y32604D02*
X1437268Y38343D01*
X1439626D02*
X1445997Y31971D01*
X1359789Y38343D02*
X1376645D01*
X1374968D02*
X1375807Y37505D01*
X1450402Y38343D02*
X1451386Y37360D01*
X1505302Y34695D02*
X1508951Y38343D01*
X1431528D02*
X1452369D01*
X1299534D02*
X1300984Y36893D01*
X1288757Y38343D02*
X1295595Y31505D01*
X1281555Y38343D02*
X1302433D01*
X1356024Y32534D02*
X1361834Y38343D01*
X1364192D02*
X1370418Y32116D01*
X1356024Y34579D02*
X1359789Y38343D01*
X1505302Y30944D02*
X1512702Y38343D01*
X1498866Y11111D02*
X1526098Y38343D01*
X1431528Y30175D02*
Y38343D01*
X1496246Y11111D02*
X1523478Y38343D01*
X1505302Y30000D02*
Y34695D01*
X1431528Y35664D02*
X1440609Y26583D01*
X1345553Y11286D02*
X1372610Y38343D01*
X1349588Y11286D02*
X1376645Y38343D01*
X1270004Y11172D02*
X1297176Y38343D01*
X1356024Y30175D02*
Y34579D01*
X1356602Y35157D02*
X1365030Y26728D01*
X1685990Y28434D02*
X1686679Y29123D01*
X1580593Y24271D02*
Y28573D01*
X1535170Y29009D02*
X1538228Y25951D01*
X1569978Y24271D02*
X1573437D01*
X1576291D02*
X1580593D01*
X1690424Y22092D02*
X1691339Y23007D01*
X1530956Y29009D02*
X1538228D01*
X1505127Y24271D02*
Y28573D01*
Y26723D02*
X1509803Y22048D01*
X1500825Y24271D02*
X1505127D01*
X1494978D02*
X1497971D01*
X1657383Y10603D02*
X1668714Y21934D01*
X1569978Y15754D02*
X1575129Y10603D01*
X1580593Y26692D02*
X1596682Y10603D01*
X1689753Y14519D02*
X1693356Y10916D01*
X1668159Y10603D02*
X1670392Y12837D01*
X1569978Y10603D02*
X1672447D01*
X1527675Y25728D02*
X1538228Y15175D01*
X1569978Y10603D02*
Y24271D01*
X1496803D02*
X1504415Y16660D01*
X1494978Y20619D02*
X1498520Y24162D01*
X1569978Y20185D02*
X1573959Y24166D01*
X1494978Y11111D02*
X1498866D01*
X1456640Y28422D02*
X1463228D01*
X1460323D02*
X1463228Y25517D01*
X1384127Y29184D02*
X1388266Y25045D01*
X1430593Y24445D02*
Y26986D01*
X1427046Y24445D02*
X1430593D01*
X1420016D02*
X1424203D01*
X1381678Y29184D02*
X1388266D01*
X1355973Y23509D02*
Y29398D01*
X1306705Y28422D02*
X1313228D01*
X1344978Y23509D02*
X1355973D01*
X1344978Y21488D02*
X1346999Y23509D01*
X1309455Y28422D02*
X1313228Y24649D01*
X1430593Y25823D02*
X1435221Y21195D01*
X1453094Y24876D02*
X1463228Y14741D01*
X1420016Y21092D02*
X1423369Y24445D01*
X1377514Y25020D02*
X1388266Y14269D01*
X1494978Y15320D02*
X1499026Y11272D01*
X1494978Y11111D02*
Y24271D01*
X1421195Y24445D02*
X1429833Y15807D01*
X1355973Y25009D02*
X1359642Y21340D01*
X1346697Y23509D02*
X1354254Y15952D01*
X1302691Y24409D02*
X1313228Y13873D01*
X1344978Y14452D02*
X1348143Y11286D01*
X1344978D02*
X1349588D01*
X1344978D02*
Y23509D01*
X1281555Y33499D02*
X1286399Y38343D01*
X1281555Y29414D02*
Y38343D01*
X1211509D02*
X1227407D01*
X1224100D02*
X1225753Y36690D01*
X1206024Y32859D02*
X1211509Y38343D01*
X1213323D02*
X1220365Y31301D01*
X1206024Y29413D02*
Y32859D01*
X1073231Y38343D02*
X1075319Y36255D01*
X1131528Y34341D02*
X1135531Y38343D01*
X1058639D02*
X1077407D01*
X1062455D02*
X1069931Y30867D01*
X1148665Y38343D02*
X1150536Y36472D01*
X1137889Y38343D02*
X1145148Y31084D01*
X1131528Y38343D02*
X1152407D01*
X1281555Y34770D02*
X1290207Y26117D01*
X1207028Y33863D02*
X1214977Y25913D01*
X1194940Y11542D02*
X1221742Y38343D01*
X1231678Y28423D02*
X1238254D01*
X1234020D02*
X1238254Y24189D01*
X1131528Y29413D02*
Y38343D01*
Y33928D02*
X1139760Y25696D01*
X1120016Y12052D02*
X1146308Y38343D01*
X1083152Y28422D02*
X1088266Y23309D01*
X1081678Y28422D02*
X1088266D01*
X997797Y38343D02*
X1000102Y36038D01*
X987021Y38343D02*
X994714Y30650D01*
X909687Y38343D02*
X927407D01*
X981528Y35209D02*
X984663Y38343D01*
X1056024Y35729D02*
X1058639Y38343D01*
X1056024Y34271D02*
X1060097Y38343D01*
X981528D02*
X1002407D01*
X922363D02*
X924885Y35821D01*
X911587Y38343D02*
X919497Y30433D01*
X906025Y34681D02*
X909687Y38343D01*
X846929D02*
X849668Y35604D01*
X906025Y29414D02*
Y34681D01*
X836153Y38343D02*
X844280Y30216D01*
X1056024Y29413D02*
Y35729D01*
X1044978Y12448D02*
X1070873Y38343D01*
X981528Y29413D02*
Y38343D01*
X969978Y12882D02*
X995439Y38343D01*
X1056024Y33998D02*
X1064543Y25479D01*
X981528Y33059D02*
X989326Y25262D01*
X906025Y33129D02*
X914109Y25045D01*
X905847Y24185D02*
X920005Y38343D01*
X856850Y28423D02*
X863190Y22082D01*
X856679Y28423D02*
X863190D01*
X1205593Y24271D02*
Y27198D01*
X1280873Y23683D02*
Y26660D01*
X1203021Y24271D02*
X1205593D01*
X1277072Y23683D02*
X1280873D01*
X1270004D02*
X1274229D01*
X1156678Y28422D02*
X1163190D01*
X1158586D02*
X1163190Y23819D01*
X1130593Y24191D02*
Y26224D01*
X1055593Y24025D02*
Y27198D01*
X1194940Y24271D02*
X1197220D01*
X1128379Y24191D02*
X1130593D01*
X1120016D02*
X1122870D01*
X1280873Y24675D02*
X1284819Y20729D01*
X1205593Y24521D02*
X1209589Y20525D01*
X1194940Y22318D02*
X1196893Y24271D01*
X1195067D02*
X1204201Y15137D01*
X1270004Y21948D02*
X1271739Y23683D01*
X1271088D02*
X1279431Y15341D01*
X1227461Y24205D02*
X1238254Y13412D01*
X1130489Y24191D02*
X1134372Y20308D01*
X1120016Y22828D02*
X1121379Y24191D01*
X1120016Y23888D02*
X1128984Y14920D01*
X1152244Y23988D02*
X1163190Y13043D01*
X1077027Y23771D02*
X1088266Y12532D01*
X1052534Y24025D02*
X1055593D01*
X1006678Y28422D02*
X1013228D01*
X980847Y23891D02*
Y26660D01*
X1044978Y24025D02*
X1047707D01*
X977713Y23891D02*
X980847D01*
X931679Y28422D02*
X938228D01*
X905847Y23937D02*
Y27976D01*
X902327Y23937D02*
X905847D01*
X969978Y23891D02*
X973536D01*
X894940Y23937D02*
X897915D01*
X1044978Y23224D02*
X1045779Y24025D01*
X1055221D02*
X1059155Y20091D01*
X1007718Y28422D02*
X1013228Y22912D01*
X979920Y23891D02*
X983938Y19874D01*
X1044978Y23491D02*
X1053767Y14703D01*
X1001810Y23554D02*
X1013228Y12136D01*
X969978Y23058D02*
X978549Y14486D01*
X932284Y28422D02*
X938228Y22479D01*
X904440Y23937D02*
X908721Y19657D01*
X894940Y13278D02*
X905599Y23937D01*
X894940Y22661D02*
X903333Y14268D01*
X926593Y23337D02*
X938228Y11702D01*
X851376Y23120D02*
X863190Y11306D01*
X1572238Y24271D02*
X1585905Y10603D01*
X1580768Y37293D02*
X1607458Y10603D01*
X1571172D02*
X1598912Y38343D01*
X1572237Y24271D02*
X1585905Y10603D01*
X1686588Y7480D02*
X1693356Y14248D01*
X1538228Y9826D02*
X1540275D01*
X1538228D02*
Y29009D01*
X1463228Y9826D02*
Y28422D01*
X1532620Y4380D02*
X1538228Y9988D01*
X1465275Y8940D02*
Y9826D01*
X1463228D02*
X1465275D01*
X1522287Y20340D02*
X1538247Y4380D01*
X1521844Y4380D02*
X1538228Y20764D01*
X1506327Y4380D02*
X1530956Y29009D01*
X1511068Y4380D02*
X1535697Y29009D01*
X1516899Y14952D02*
X1527470Y4380D01*
X1693356Y-7740D02*
Y14371D01*
X1511511Y9564D02*
X1516694Y4380D01*
X1435633D02*
X1459676Y28422D01*
X1446410Y4380D02*
X1463228Y21198D01*
X1432598Y4380D02*
X1456640Y28422D01*
X1447705Y19487D02*
X1462813Y4380D01*
X1457186D02*
X1463228Y10422D01*
X1442317Y14099D02*
X1452036Y4380D01*
X1420225Y10524D02*
X1448044Y38343D01*
X1424550Y10524D02*
X1452369Y38343D01*
X1420016Y10524D02*
Y24445D01*
X1388266Y9826D02*
Y29184D01*
X1420016Y10524D02*
X1424550D01*
X1420016Y14848D02*
X1424339Y10524D01*
X1388266Y9826D02*
X1390959D01*
X1274615Y10525D02*
X1302433Y38343D01*
X1313228Y9826D02*
Y28422D01*
X1270004Y10525D02*
Y23683D01*
Y10525D02*
X1274615D01*
X1313228Y9826D02*
X1315997D01*
X1270004Y13991D02*
X1273471Y10525D01*
X1370976Y4380D02*
X1388266Y21670D01*
X1372126Y19632D02*
X1387379Y4380D01*
X1356874D02*
X1381678Y29184D01*
X1360199Y4380D02*
X1385004Y29184D01*
X1390959Y8353D02*
Y9826D01*
X1381752Y4380D02*
X1388266Y10894D01*
X1366738Y14244D02*
X1376602Y4380D01*
X1284765D02*
X1308808Y28422D01*
X1295542Y4380D02*
X1313228Y22067D01*
X1282662Y4380D02*
X1306705Y28422D01*
X1297303Y19021D02*
X1311944Y4380D01*
X1306318D02*
X1313228Y11290D01*
X1291915Y13633D02*
X1301168Y4380D01*
X1691406Y1522D02*
X1693356Y3471D01*
X1684385Y9110D02*
X1684930Y8565D01*
X1692845Y-12146D02*
Y-5029D01*
X1690807Y2688D02*
X1693356Y139D01*
X1666821Y-26605D02*
X1673148D01*
X1666277Y-26663D02*
X1669933Y-30319D01*
X1668087Y-44704D02*
Y-37110D01*
X1667057Y-44380D02*
X1668087Y-43350D01*
X1668529Y-85344D02*
Y-46707D01*
X1666456Y-48395D02*
X1668529Y-50468D01*
X1666004Y-56210D02*
X1668529Y-53685D01*
X1666004Y-66986D02*
X1668529Y-64461D01*
X1666004Y-69495D02*
X1668529Y-72020D01*
X1666004Y-58719D02*
X1668529Y-61244D01*
X1666004Y-69495D02*
X1668529Y-72021D01*
X1666004Y-85344D02*
Y-48971D01*
Y-80272D02*
X1668529Y-82797D01*
X1666004Y-85344D02*
X1668529D01*
X1666004Y-77762D02*
X1668529Y-75237D01*
X1541305Y6972D02*
X1543897Y4380D01*
X1436929Y8711D02*
X1441260Y4380D01*
X1466305Y6464D02*
X1468389Y4380D01*
X1506327D02*
X1543897Y4380D01*
X1432598Y4380D02*
X1468389D01*
X1391989Y5877D02*
X1393487Y4380D01*
X1317027Y6639D02*
X1319287Y4380D01*
X1664401Y-36260D02*
X1669457Y-31204D01*
X1664401Y-40210D02*
Y-28798D01*
Y-35563D02*
X1668087Y-39249D01*
X1317094Y4380D02*
X1318190Y5476D01*
X1361350Y8856D02*
X1365826Y4380D01*
X1286527Y8245D02*
X1290392Y4380D01*
X1282662D02*
X1319287D01*
X1356874D02*
X1393487D01*
X1207636Y4380D02*
X1243551D01*
X1238254Y9826D02*
Y28423D01*
X1209331Y4380D02*
X1233373Y28423D01*
X1199588Y10524D02*
X1227407Y38343D01*
X1207636Y4380D02*
X1231678Y28423D01*
X1194940Y10524D02*
Y24271D01*
X1222073Y18817D02*
X1236510Y4380D01*
X1194940Y13621D02*
X1198037Y10524D01*
X1124588D02*
X1152407Y38343D01*
X1163190Y9826D02*
Y28422D01*
X1049588Y10524D02*
X1077407Y38343D01*
X1088266Y9826D02*
Y28422D01*
X1120016Y13111D02*
X1122603Y10524D01*
X1155450Y4380D02*
X1163190Y12121D01*
X1120016Y10524D02*
Y24191D01*
X1144673Y4380D02*
X1163190Y22897D01*
X1220107Y4380D02*
X1238254Y22527D01*
X1132636Y4380D02*
X1156678Y28422D01*
X1133897Y4380D02*
X1157939Y28422D01*
X1146856Y18600D02*
X1161076Y4380D01*
X1216685Y13429D02*
X1225734Y4380D01*
X1141468Y13212D02*
X1150300Y4380D01*
X1058463D02*
X1082505Y28422D01*
X1069239Y4380D02*
X1088266Y23407D01*
X1057636Y4380D02*
X1081678Y28422D01*
X1071639Y18383D02*
X1085642Y4380D01*
X1080015D02*
X1088266Y12631D01*
X1066251Y12995D02*
X1074866Y4380D01*
X1044978Y10524D02*
Y24025D01*
X1013228Y9826D02*
Y28422D01*
X974588Y10524D02*
X1002407Y38343D01*
X983029Y4380D02*
X1007071Y28422D01*
X1044978Y12715D02*
X1047169Y10524D01*
X991034Y12778D02*
X999432Y4380D01*
X969978Y12281D02*
X971735Y10524D01*
X899589Y10525D02*
X927407Y38343D01*
X938228Y9826D02*
Y28422D01*
X863190Y9826D02*
Y28423D01*
X894940Y10525D02*
Y23937D01*
X969978Y10524D02*
Y23891D01*
X894940Y11885D02*
X896300Y10525D01*
X993805Y4380D02*
X1013228Y23803D01*
X996422Y18166D02*
X1010208Y4380D01*
X982636D02*
X1006678Y28422D01*
X918371Y4380D02*
X938228Y24237D01*
X1004581Y4380D02*
X1013228Y13027D01*
X929147Y4380D02*
X938228Y13461D01*
X921205Y17949D02*
X934774Y4380D01*
X845988Y17732D02*
X859340Y4380D01*
X907636D02*
X931679Y28422D01*
X842937Y4380D02*
X863190Y24634D01*
X853713Y4380D02*
X863190Y13857D01*
X915817Y12561D02*
X923997Y4380D01*
X840600Y12344D02*
X848563Y4380D01*
X1241024Y8354D02*
Y9826D01*
X1194940Y10524D02*
X1199588D01*
X1238254Y9826D02*
X1241024D01*
X1163190Y9826D02*
X1165997D01*
Y8353D02*
Y9826D01*
X1044978Y10524D02*
X1049588D01*
X1120016D02*
X1124588D01*
X1090997Y8353D02*
Y9826D01*
X1088266D02*
X1090997D01*
X1230884Y4380D02*
X1238254Y11751D01*
X1242054Y5878D02*
X1243551Y4380D01*
X1167028Y5877D02*
X1168525Y4380D01*
X1211297Y8041D02*
X1214958Y4380D01*
X1166226D02*
X1167375Y5530D01*
X1241660Y4380D02*
X1242606Y5326D01*
X1132636Y4380D02*
X1168525D01*
X1136080Y7824D02*
X1139523Y4380D01*
X1060863Y7607D02*
X1064089Y4380D01*
X1090792D02*
X1092158Y5747D01*
X1092028Y5877D02*
X1093525Y4380D01*
X1057636D02*
X1093525D01*
X1013228Y9826D02*
X1015997D01*
Y8353D02*
Y9826D01*
X969978Y10524D02*
X974588D01*
X940104Y9826D02*
X940997Y8933D01*
Y8353D02*
Y9826D01*
X894940Y10525D02*
X899589D01*
X865998Y8354D02*
Y9826D01*
X863190D02*
X865998D01*
X938228Y9826D02*
X940997D01*
X864670Y9826D02*
X865998Y8498D01*
X1017028Y5877D02*
X1018525Y4380D01*
X985646Y7390D02*
X988655Y4380D01*
X1015358D02*
X1016942Y5965D01*
X982636Y4380D02*
X1018525D01*
X942027Y5877D02*
X943524Y4380D01*
X907636D02*
X943524D01*
X910429Y7172D02*
X913221Y4380D01*
X867028Y5878D02*
X868525Y4380D01*
X939923D02*
X941742Y6198D01*
X864489Y4380D02*
X866561Y6452D01*
X831528Y38343D02*
X852407D01*
X831528Y36077D02*
X833795Y38343D01*
X763795D02*
X777407D01*
X771495D02*
X774451Y35387D01*
X756025Y30573D02*
X763795Y38343D01*
X762257Y36805D02*
X769063Y29999D01*
X681528Y38343D02*
X702407D01*
X696061D02*
X699234Y35170D01*
X685284Y38343D02*
X693846Y29782D01*
X619175Y38343D02*
X627393D01*
X681528Y36945D02*
X682926Y38343D01*
X620626D02*
X624010Y34960D01*
X609851Y38343D02*
X618622Y29572D01*
X608143Y38343D02*
X619175D01*
X831528Y29413D02*
Y38343D01*
Y32191D02*
X838892Y24828D01*
X755847Y25054D02*
X769137Y38343D01*
X830765Y24537D02*
X844571Y38343D01*
X756869Y31417D02*
X763675Y24611D01*
X681528Y29413D02*
Y38343D01*
Y31323D02*
X688458Y24394D01*
X680847Y25488D02*
X693703Y38343D01*
X756025Y29414D02*
Y30573D01*
X706678Y28423D02*
X713228D01*
X545192Y38343D02*
X548819Y34717D01*
X534416Y38343D02*
X543431Y29329D01*
X531528Y38343D02*
X552445D01*
X531528Y29413D02*
Y38343D01*
X608142Y38343D02*
X619108D01*
X606010Y36211D02*
X608142Y38343D01*
X606010Y29413D02*
Y36211D01*
X459933Y38343D02*
X477383D01*
X469758D02*
X473571Y34531D01*
X456000Y34411D02*
X459933Y38343D01*
X394324D02*
X398366Y34302D01*
X456000Y29413D02*
Y34411D01*
X381528Y38343D02*
X402407D01*
X605703Y25778D02*
X618268Y38343D01*
X606010Y31407D02*
X613234Y24184D01*
X459457Y37868D02*
X468183Y29143D01*
X530847Y26356D02*
X542834Y38343D01*
X531528Y30455D02*
X538042Y23941D01*
X383548Y38343D02*
X392977Y28914D01*
X455687Y26630D02*
X467400Y38343D01*
X381253Y27630D02*
X391966Y38343D01*
X456000Y30549D02*
X462794Y23754D01*
X381528Y29586D02*
X387589Y23526D01*
X828379Y24191D02*
X830765D01*
Y26510D01*
X781678Y28422D02*
X788266D01*
X755847Y24063D02*
Y27977D01*
X820016Y24191D02*
X822870D01*
X752617Y24063D02*
X755847D01*
X631664Y28422D02*
X638228D01*
X680847Y23508D02*
Y26660D01*
X604115Y24190D02*
X605703Y25778D01*
Y24190D02*
Y27533D01*
X754857Y24063D02*
X755847Y25054D01*
X744978Y24063D02*
X747625D01*
X828752Y24191D02*
X833504Y19440D01*
X820016Y13788D02*
X830419Y24191D01*
X781547Y28291D02*
X788266Y21572D01*
X744978Y14185D02*
X754857Y24063D01*
X753446D02*
X758287Y19223D01*
X820016Y22151D02*
X828115Y14052D01*
X744978Y21755D02*
X752898Y13834D01*
X706330Y28074D02*
X713228Y21176D01*
X678567Y23508D02*
X683070Y19006D01*
X631106Y27864D02*
X638228Y20742D01*
X669978Y14619D02*
X678867Y23508D01*
X669978Y21321D02*
X677681Y13617D01*
X669978Y23508D02*
X680847D01*
X556716Y28422D02*
X563176D01*
X530847Y24191D02*
Y26660D01*
X528378Y24191D02*
X530847D01*
X602859Y24190D02*
X605703D01*
X594926D02*
X597354D01*
X481655Y28422D02*
X488290D01*
X455687Y24579D02*
Y27517D01*
X406671Y28422D02*
X413228D01*
X453486Y24579D02*
X455687D01*
X520040Y24191D02*
X522870D01*
X444978Y24579D02*
X446707D01*
X602586Y24055D02*
X607845Y18795D01*
X594926Y15001D02*
X604115Y24190D01*
X555915Y27621D02*
X563176Y20360D01*
X520040Y15549D02*
X528682Y24191D01*
X527418Y23788D02*
X532654Y18552D01*
X594926Y20939D02*
X602457Y13407D01*
X520040Y20390D02*
X527266Y13164D01*
X480667Y27435D02*
X488290Y19811D01*
X444978Y15921D02*
X453636Y24579D01*
X405458Y27209D02*
X413228Y19439D01*
X451961Y23812D02*
X457406Y18366D01*
X444978Y20018D02*
X452018Y12978D01*
X234237Y38343D02*
X252407D01*
X243456D02*
X247932Y33867D01*
X159237Y38344D02*
X177408D01*
X231529Y35635D02*
X234237Y38343D01*
X310037D02*
X327407D01*
X318890D02*
X323149Y34085D01*
X306024Y34331D02*
X310037Y38343D01*
X84237Y38344D02*
X102408D01*
X92587D02*
X97498Y33433D01*
X81529Y35635D02*
X84237Y38344D01*
X81529Y29643D02*
X90230Y38344D01*
X156529Y35635D02*
X159237Y38344D01*
X168022D02*
X172715Y33650D01*
X156529Y29414D02*
Y35635D01*
X381528Y29413D02*
Y38343D01*
X305847Y27658D02*
X316532Y38343D01*
X231490Y28735D02*
X241098Y38343D01*
X233458Y37565D02*
X242544Y28479D01*
X306024Y29413D02*
Y34331D01*
X309075Y37382D02*
X317760Y28696D01*
X306024Y29657D02*
X312372Y23308D01*
X156525Y29205D02*
X165664Y38344D01*
X158241Y37348D02*
X167327Y28262D01*
X83024Y37130D02*
X92109Y28045D01*
X231529Y29414D02*
Y35635D01*
X71747Y42552D02*
X74815Y45620D01*
X63758D02*
X69887Y39491D01*
X4380Y45620D02*
X74815D01*
X58786Y39229D02*
X65177Y45620D01*
X56995Y39229D02*
X66995D01*
X69196Y38862D02*
X69908Y39575D01*
X52982Y45620D02*
X59373Y39229D01*
X42206Y45620D02*
X48596Y39229D01*
X48010D02*
X54401Y45620D01*
X9876D02*
X11571Y43925D01*
X38537Y39229D02*
X48537D01*
X48995D02*
X56537D01*
X20244Y43792D02*
X22072Y45620D01*
X20653D02*
X38266Y28007D01*
X24338Y26334D02*
X43625Y45620D01*
X81529Y29414D02*
Y35635D01*
X66995Y38862D02*
X69771D01*
X31429Y45620D02*
X38227Y38823D01*
X25769Y38541D02*
X32848Y45620D01*
X4380Y38704D02*
X11296Y45620D01*
X4380Y40340D02*
X5882Y38839D01*
X4380Y29564D02*
X6080Y27864D01*
X380847Y24191D02*
Y26660D01*
X331678Y28422D02*
X338228D01*
X369978Y24191D02*
Y25190D01*
X378378Y24191D02*
X380847D01*
X369978D02*
X372870D01*
X294940Y24325D02*
Y25160D01*
X305847Y24325D02*
Y27978D01*
X256679Y28422D02*
X263190D01*
X230957Y24565D02*
Y26880D01*
X294940Y24325D02*
X297125D01*
X303115D02*
X305847D01*
X228994Y24565D02*
X230957D01*
X369978Y16355D02*
X377408Y23785D01*
X330245Y26989D02*
X338228Y19005D01*
X376726Y23613D02*
X382201Y18137D01*
X369978Y19584D02*
X376813Y12749D01*
X301280Y23624D02*
X306984Y17920D01*
X231492Y28755D02*
X237155Y23091D01*
X255028Y26772D02*
X263190Y18609D01*
X294940Y16751D02*
X302008Y23819D01*
X294940Y19188D02*
X301596Y12532D01*
X225951Y23519D02*
X231767Y17703D01*
X181679Y28423D02*
X188266D01*
X220016Y24565D02*
X222255D01*
X145012Y23937D02*
Y25187D01*
X156355Y23937D02*
Y27991D01*
X152830Y23937D02*
X156355D01*
X145012D02*
X148419D01*
X106679Y28423D02*
X113262D01*
X81437Y24527D02*
Y28374D01*
X4380Y27928D02*
X5484Y29032D01*
X78938Y24527D02*
X81437D01*
X70016D02*
X72313D01*
X179811Y26554D02*
X188266Y18099D01*
X220016Y17262D02*
X226303Y23549D01*
X156437Y28375D02*
X161938Y22874D01*
X145012Y17692D02*
X150834Y23513D01*
X150526Y23511D02*
X156550Y17486D01*
X220016Y18678D02*
X226379Y12315D01*
X145012Y18247D02*
X151162Y12098D01*
X81437Y27941D02*
X86721Y22657D01*
X104594Y26337D02*
X113262Y17668D01*
X26145Y29351D02*
X38266Y17230D01*
X70016Y18130D02*
X75400Y23514D01*
X75065Y23537D02*
X81333Y17269D01*
X4380Y17152D02*
X10735Y23507D01*
X820016Y10524D02*
Y24191D01*
X824588Y10524D02*
X852407Y38343D01*
X776159Y22903D02*
X788266Y10796D01*
X749589Y10525D02*
X777407Y38343D01*
X820016Y10524D02*
X824588D01*
X820016Y11375D02*
X820866Y10524D01*
X744978Y10525D02*
X749589D01*
X744978D02*
Y24063D01*
X713228Y9826D02*
Y28423D01*
X674588Y10524D02*
X702407Y38343D01*
X638228Y9826D02*
Y28422D01*
X669978Y10524D02*
Y23508D01*
X700942Y22686D02*
X713228Y10400D01*
X625718Y22476D02*
X638228Y9966D01*
X788266Y9826D02*
Y28422D01*
X832636Y4380D02*
X856679Y28423D01*
X757636Y4380D02*
X781678Y28422D01*
X767502Y4380D02*
X788266Y25143D01*
X770771Y17515D02*
X783905Y4380D01*
X778279D02*
X788266Y14367D01*
X765383Y12127D02*
X773129Y4380D01*
X695554Y17298D02*
X708471Y4380D01*
X692068Y4380D02*
X713228Y25540D01*
X682636Y4380D02*
X706678Y28423D01*
X702845Y4380D02*
X713228Y14763D01*
X690165Y11910D02*
X697695Y4380D01*
X627410D02*
X638228Y15197D01*
X594926Y10524D02*
Y24190D01*
X599574Y10524D02*
X627393Y38343D01*
X563176Y9826D02*
Y28422D01*
X550527Y22233D02*
X568379Y4380D01*
X551976D02*
X563176Y15580D01*
X620330Y17088D02*
X633037Y4380D01*
X545139Y16845D02*
X557603Y4380D01*
X524627Y10525D02*
X552445Y38343D01*
X488290Y9826D02*
Y28422D01*
X449564Y10524D02*
X477383Y38343D01*
X520040Y10525D02*
Y24191D01*
Y10525D02*
X524627D01*
X444978Y10524D02*
Y24579D01*
X607622Y4380D02*
X631664Y28422D01*
X616634Y4380D02*
X638228Y25974D01*
X532674Y4380D02*
X556716Y28422D01*
X541200Y4380D02*
X563176Y26356D01*
X539750Y11456D02*
X546827Y4380D01*
X614941Y11700D02*
X622261Y4380D01*
X475279Y22047D02*
X492945Y4380D01*
X457612D02*
X481655Y28422D01*
X465766Y4380D02*
X488290Y26904D01*
X400070Y21821D02*
X417511Y4380D01*
X469891Y16659D02*
X482169Y4380D01*
X476542D02*
X488290Y16128D01*
X464502Y11270D02*
X471393Y4380D01*
X790997Y8353D02*
Y9826D01*
X789236D02*
X791011Y8051D01*
X788266Y9826D02*
X790997D01*
X713802Y9826D02*
X716096Y7532D01*
X713228Y9826D02*
X715998D01*
Y8354D02*
Y9826D01*
X669978Y10524D02*
X674588D01*
X638228Y9826D02*
X640997D01*
Y8353D02*
Y9826D01*
X638368D02*
X641332Y6861D01*
X835211Y6956D02*
X837787Y4380D01*
X759994Y6738D02*
X762353Y4380D01*
X789055D02*
X791400Y6725D01*
X792028Y5877D02*
X793525Y4380D01*
X832636D02*
X868525D01*
X757636D02*
X793525D01*
X713621D02*
X716262Y7021D01*
X684777Y6521D02*
X686919Y4380D01*
X717028Y5878D02*
X718525Y4380D01*
X682636Y4380D02*
X718525Y4380D01*
X642027Y5877D02*
X643524Y4380D01*
X594926Y10524D02*
X599574D01*
X565983Y8353D02*
Y9826D01*
X563176D02*
X565983D01*
X488290Y9826D02*
X491035D01*
Y8354D02*
Y9826D01*
X444978Y10524D02*
X449564D01*
X415973Y8353D02*
Y9826D01*
X609553Y6311D02*
X611484Y4380D01*
X638187D02*
X641147Y7341D01*
X534362Y6068D02*
X536050Y4380D01*
X562753D02*
X566050Y7677D01*
X567014Y5877D02*
X568511Y4380D01*
X607622D02*
X643524D01*
X532674D02*
X568511D01*
X487318D02*
X491044Y8106D01*
X492066Y5878D02*
X493563Y4380D01*
X459114Y5882D02*
X460616Y4380D01*
X457612D02*
X493563D01*
X417003Y5877D02*
X418500Y4380D01*
X382636D02*
X418500D01*
X413228Y9826D02*
Y28422D01*
X387375Y9127D02*
X406671Y28422D01*
X374589Y10525D02*
X402407Y38343D01*
X299588Y10524D02*
X327407Y38343D01*
X369978Y10525D02*
Y24191D01*
X394682Y16433D02*
X406735Y4380D01*
X338228Y9826D02*
Y28422D01*
X224589Y10525D02*
X252407Y38343D01*
X299489Y10524D02*
X327308Y38343D01*
X224056Y10525D02*
X251874Y38343D01*
X188266Y9826D02*
Y28423D01*
X294940Y10524D02*
Y24325D01*
X263190Y9826D02*
Y28422D01*
X220016Y10525D02*
Y24565D01*
X324856Y21600D02*
X342077Y4380D01*
X390332D02*
X413228Y27276D01*
X307636Y4380D02*
X331678Y28422D01*
X314897Y4380D02*
X338228Y27710D01*
X389293Y11045D02*
X395958Y4380D01*
X401108D02*
X413228Y16500D01*
X325674Y4380D02*
X338228Y16934D01*
X239463Y4380D02*
X263190Y28106D01*
X249639Y21383D02*
X266643Y4380D01*
X232636D02*
X256679Y28422D01*
X250240Y4380D02*
X263190Y17330D01*
X319468Y16212D02*
X331301Y4380D01*
X244251Y15995D02*
X255867Y4380D01*
X149589Y10525D02*
X177408Y38344D01*
X157636Y4380D02*
X181679Y28423D01*
X148622Y10525D02*
X176440Y38344D01*
X113262Y9826D02*
Y28423D01*
X164029Y4380D02*
X188072Y28423D01*
X169034Y15778D02*
X180432Y4380D01*
X145012Y10525D02*
Y23937D01*
X73188Y10525D02*
X101006Y38344D01*
X74590Y10525D02*
X102408Y38344D01*
X38266Y9826D02*
Y38710D01*
X70016Y17809D02*
X75945Y11881D01*
X70016Y10525D02*
Y24527D01*
X4380Y6375D02*
X22942Y24938D01*
X174422Y21166D02*
X191209Y4380D01*
X99206Y20949D02*
X115774Y4380D01*
X82636D02*
X106679Y28423D01*
X88595Y4380D02*
X112638Y28423D01*
X174806Y4380D02*
X188266Y17841D01*
X99371Y4380D02*
X113262Y18271D01*
X93817Y15561D02*
X104998Y4380D01*
X10084Y23860D02*
X29564Y4380D01*
X13161D02*
X38266Y29485D01*
X4380Y4380D02*
Y45620D01*
X21059Y23661D02*
X40340Y4380D01*
X23937D02*
X38266Y18709D01*
X4380Y18788D02*
X18788Y4380D01*
X369978Y10525D02*
X374589D01*
X413228Y9826D02*
X415973D01*
X338228D02*
X340997D01*
Y8354D02*
Y9826D01*
X383909Y5653D02*
X385182Y4380D01*
X294940Y10524D02*
X299588D01*
X263190Y9826D02*
X265997D01*
X220016Y10525D02*
X224589D01*
X265997Y8353D02*
Y9826D01*
X382636Y4380D02*
X387243Y8987D01*
X411884Y4380D02*
X415973Y8469D01*
X314080Y10824D02*
X320524Y4380D01*
X336450D02*
X340997Y8927D01*
X308692Y5436D02*
X309748Y4380D01*
X342028Y5878D02*
X343525Y4380D01*
X307636D02*
X343525D01*
X238863Y10607D02*
X245090Y4380D01*
X261016D02*
X265997Y9361D01*
X192028Y5878D02*
X193526Y4380D01*
X233475Y5219D02*
X234314Y4380D01*
X267027Y5877D02*
X268524Y4380D01*
X232636D02*
X268524D01*
X188266Y9826D02*
X190998D01*
Y8354D02*
Y9826D01*
X145012Y10525D02*
X149589D01*
X113262Y9826D02*
X115998D01*
X70016Y10525D02*
X74590D01*
X40999Y8354D02*
Y9826D01*
X38266D02*
X40999D01*
X115998Y8354D02*
Y9826D01*
X185582Y4380D02*
X190998Y9796D01*
X163646Y10390D02*
X169656Y4380D01*
X117028Y5878D02*
X118526Y4380D01*
X157636Y4380D02*
X193526D01*
X158258Y5002D02*
X158880Y4380D01*
X82636Y4380D02*
X118526D01*
X88429Y10173D02*
X94222Y4380D01*
X110148D02*
X115594Y9826D01*
X34714Y4380D02*
X40160Y9826D01*
X4380Y8012D02*
X8012Y4380D01*
X42029Y5878D02*
X43527Y4380D01*
X4380D02*
X43527D01*
D27*
X1685437Y-28198D02*
G03*
X1691894Y-25523I0J9131D01*
G01*
D02*
G03*
X1699260Y-7740I-17783J17783D01*
G01*
Y14371D02*
G03*
X1691821Y32332I-25400J0D01*
G01*
X1687344Y36808D02*
G03*
X1669384Y44247I-17960J-17960D01*
G01*
X75625Y29414D02*
Y38101D01*
X75645D01*
X231791Y44247D02*
X1275651D01*
X1570689D01*
X1699260Y-7740D02*
Y14371D01*
X1687344Y36808D02*
X1691821Y32332D01*
X1570689Y44247D02*
X1669384D01*
X150645Y38101D02*
X156792Y44247D01*
X231791D01*
X225625Y29414D02*
Y38100D01*
X150625Y29414D02*
Y38101D01*
X231791Y44247D02*
X231791Y44247D01*
X156791Y44248D02*
X156792Y44247D01*
X81792Y44248D02*
X156791D01*
X75645Y38101D02*
X81792Y44248D01*
X150625Y38101D02*
X150645D01*
X1050120Y29413D02*
Y38175D01*
X825624Y29413D02*
Y42418D01*
X525624Y29413D02*
Y42868D01*
X823795Y44247D02*
X825624D01*
X786349D02*
X823795D01*
X1125624Y29413D02*
Y42894D01*
X975624Y29413D02*
Y44247D01*
X600106Y29413D02*
Y38657D01*
X375624Y29413D02*
Y42768D01*
X1570689Y44247D02*
X1574864Y40072D01*
X225625Y38100D02*
X225644D01*
X231791Y44247D01*
X605697Y44247D02*
X619108D01*
X482511Y44247D02*
X524245D01*
X1103526Y44247D02*
X1124271D01*
X1499398Y37140D02*
X1506304Y44046D01*
X1506103Y44247D02*
X1506304Y44046D01*
X1499398Y30000D02*
Y37140D01*
X1421624Y44247D02*
X1425624Y40247D01*
X1350120Y37025D02*
X1356184Y43088D01*
X1350120Y30175D02*
Y37025D01*
X1275651Y29414D02*
Y44247D01*
X1200120Y35305D02*
X1209063Y44247D01*
X1200120Y29413D02*
Y35305D01*
X1124271Y44247D02*
X1125624Y42894D01*
X1103526Y44247D02*
X1124271D01*
X1050120Y38175D02*
X1056193Y44247D01*
X900121Y37127D02*
X907241Y44247D01*
X900121Y29414D02*
Y37127D01*
X823795Y44247D02*
X825624Y42418D01*
X750121Y33019D02*
X761349Y44247D01*
X750121Y29414D02*
Y33019D01*
X786349Y44247D02*
X786349Y44247D01*
X675624Y29413D02*
Y43681D01*
X675059Y44247D02*
X675624Y43681D01*
X600106Y38657D02*
X605697Y44247D01*
X524245Y44247D02*
X525624Y42868D01*
X450096Y36856D02*
X457487Y44247D01*
X450096Y29413D02*
Y36856D01*
X374145Y44247D02*
X375624Y42768D01*
X300120Y36776D02*
X307591Y44247D01*
X300120Y29413D02*
Y36776D01*
X1103526Y44247D02*
X1103526Y44247D01*
X644122D02*
X675059D01*
X644121Y44247D02*
X644122Y44247D01*
X1425624Y30175D02*
Y40247D01*
X1574864Y30000D02*
Y40072D01*
D28*
X1675384Y-30988D02*
G03*
X1672848Y-37110I6122J-6122D01*
G01*
X1682120Y-28198D02*
G03*
X1675384Y-30988I0J-9527D01*
G01*
X1682120Y-28198D02*
X1685437D01*
X1672848Y-44704D02*
Y-37110D01*
D29*
X1662528Y-44125D02*
G03*
X1661926Y-42672I-2055J0D01*
G01*
X1660910Y-40219D02*
G03*
X1661926Y-42672I3469J0D01*
G01*
X1662528Y-24892D02*
G03*
X1660910Y-28798I3906J-3906D01*
G01*
X1666821Y-23114D02*
G03*
X1662528Y-24892I0J-6071D01*
G01*
X1678940Y-23114D02*
G03*
X1685444Y-20420I0J9198D01*
G01*
X1689354Y-5029D02*
G03*
X1685798Y3556I-12141J0D01*
G01*
D02*
G03*
X1677213Y7112I-8585J-8585D01*
G01*
X1686560Y-19304D02*
G03*
X1689354Y-12559I-6745J6745D01*
G01*
X1658874Y-21844D02*
G03*
X1657350Y-25523I3679J-3679D01*
G01*
X1664393Y-19558D02*
G03*
X1658874Y-21844I0J-7805D01*
G01*
X1678940Y-19558D02*
G03*
X1683276Y-17762I0J6132D01*
G01*
X1683768Y-17270D02*
G03*
X1685798Y-12366I-4908J4903D01*
G01*
X1683766Y-17272D02*
G03*
X1683768Y-17270I-4906J4906D01*
G01*
X1685798Y-5221D02*
G03*
X1683004Y1524I-9539J0D01*
G01*
X1682978Y1550D02*
G03*
X1676908Y4064I-6070J-6070D01*
G01*
X1660910Y-40219D02*
Y-28798D01*
X1666821Y-23114D02*
X1678940D01*
X1685444Y-20420D02*
X1686560Y-19304D01*
X1689354Y-12559D02*
Y-5029D01*
X1556008Y7112D02*
X1677213D01*
X1657350Y-48768D02*
Y-25523D01*
X1664393Y-19558D02*
X1678940D01*
X1683766Y-17272D02*
X1683768Y-17270D01*
X1683276Y-17762D02*
X1683766Y-17272D01*
X1685798Y-12366D02*
Y-5221D01*
X1549150Y4064D02*
X1676908D01*
X1682978Y1550D02*
X1683004Y1524D01*
X1662528Y-45720D02*
Y-44125D01*
X1657528Y-101444D02*
Y-49026D01*
X1662498Y-45750D02*
X1662513Y-45766D01*
Y-101429D02*
Y-45766D01*
X1662498Y-45750D02*
X1662528Y-45720D01*
X49112Y3732D02*
X77052D01*
X55560Y7034D02*
X76036D01*
X52767Y9826D02*
X55560Y7034D01*
X44490Y8354D02*
X49112Y3732D01*
X44490Y8354D02*
Y16914D01*
X123892Y38786D02*
X128527Y34152D01*
X52767Y9826D02*
Y17501D01*
X76036Y7034D02*
X107788Y38786D01*
X123892D01*
X77052Y3732D02*
X105233Y31914D01*
X119527D01*
X124111Y3732D02*
X152051D01*
X130559Y7034D02*
X151035D01*
X127767Y9826D02*
X130559Y7034D01*
X119489Y8354D02*
X124111Y3732D01*
X119489Y8354D02*
Y16914D01*
X198892Y38786D02*
X203527Y34152D01*
X127767Y9826D02*
Y17501D01*
X151035Y7034D02*
X182788Y38786D01*
X198892D01*
X152051Y3732D02*
X180233Y31914D01*
X194527D01*
X255233Y31913D02*
X269526D01*
X227051Y3732D02*
X255233Y31913D01*
X257787Y38786D02*
X273892D01*
X226035Y7034D02*
X257787Y38786D01*
X302050Y3731D02*
X330232Y31913D01*
X344526D01*
X301034Y7033D02*
X332787Y38786D01*
X377051Y3732D02*
X384774Y11455D01*
X405225Y31913D02*
X419526D01*
X382957Y9645D02*
X405225Y31913D01*
X407787Y38786D02*
X423892D01*
X376035Y7034D02*
X407787Y38786D01*
X480209Y31913D02*
X494526D01*
X452026Y3731D02*
X480209Y31913D01*
X451010Y7033D02*
X482763Y38786D01*
X498892D01*
X555270Y31913D02*
X569526D01*
X527089Y3732D02*
X555270Y31913D01*
X526073Y7034D02*
X557825Y38786D01*
X630218Y31913D02*
X644526D01*
X602036Y3731D02*
X630218Y31913D01*
X632773Y38786D02*
X648892D01*
X601020Y7033D02*
X632773Y38786D01*
X705232Y31914D02*
X719527D01*
X677050Y3731D02*
X705232Y31914D01*
X707787Y38786D02*
X723892D01*
X676034Y7033D02*
X707787Y38786D01*
X780232Y31913D02*
X794526D01*
X752051Y3732D02*
X780232Y31913D01*
X751035Y7034D02*
X782787Y38786D01*
X855233Y31914D02*
X869527D01*
X827050Y3731D02*
X855233Y31914D01*
X826034Y7033D02*
X857787Y38786D01*
X930233Y31913D02*
X944526D01*
X902051Y3732D02*
X930233Y31913D01*
X901035Y7034D02*
X932787Y38786D01*
X1005232Y31913D02*
X1019526D01*
X977050Y3731D02*
X1005232Y31913D01*
X1007787Y38786D02*
X1023892D01*
X976034Y7033D02*
X1007787Y38786D01*
X1080232Y31913D02*
X1094526D01*
X1052050Y3731D02*
X1080232Y31913D01*
X1082787Y38786D02*
X1098892D01*
X1051034Y7033D02*
X1082787Y38786D01*
X1155232Y31913D02*
X1169526D01*
X1127050Y3731D02*
X1155232Y31913D01*
X1126034Y7033D02*
X1157787Y38786D01*
X1230232Y31914D02*
X1244553D01*
X1202050Y3731D02*
X1230232Y31914D01*
X1201034Y7033D02*
X1232787Y38786D01*
X1305259Y31913D02*
X1319526D01*
X1277077Y3732D02*
X1305259Y31913D01*
X1276061Y7034D02*
X1307813Y38786D01*
X1380232Y32675D02*
X1394526D01*
X1352050Y4493D02*
X1380232Y32675D01*
X1351034Y7795D02*
X1382025Y38786D01*
X1399654D01*
X1455194Y31913D02*
X1469526D01*
X1427012Y3731D02*
X1455194Y31913D01*
X1425996Y7033D02*
X1457749Y38786D01*
X1529510Y32500D02*
X1543766D01*
X1501328Y4318D02*
X1529510Y32500D01*
X1500312Y7620D02*
X1531478Y38786D01*
X1552766Y10354D02*
X1556008Y7112D01*
X1552766Y10354D02*
Y17500D01*
X1543766Y9448D02*
Y17500D01*
Y9448D02*
X1549150Y4064D01*
X1402728Y9826D02*
Y17500D01*
X1478526Y32500D02*
Y34151D01*
X1473892Y38786D02*
X1478526Y34151D01*
X1457749Y38786D02*
X1473892D01*
X1394450Y8353D02*
Y16913D01*
Y8353D02*
X1399072Y3731D01*
X1402728Y9826D02*
X1405520Y7033D01*
X1425996D01*
X1399072Y3731D02*
X1427012D01*
X1252792Y9826D02*
Y17500D01*
X1328526Y32500D02*
Y34151D01*
X1323892Y38786D02*
X1328526Y34151D01*
X1307813Y38786D02*
X1323892D01*
X1244515Y8354D02*
Y16914D01*
Y8354D02*
X1249137Y3732D01*
X1252792Y9826D02*
X1255585Y7034D01*
X1276061D01*
X1249137Y3732D02*
X1277077D01*
X1102766Y9826D02*
Y17500D01*
X1178526Y32500D02*
Y34151D01*
X1173892Y38786D02*
X1178526Y34151D01*
X1157787Y38786D02*
X1173892D01*
X1094488Y8353D02*
Y16913D01*
Y8353D02*
X1099110Y3731D01*
X1102766Y9826D02*
X1105558Y7033D01*
X1126034D01*
X1099110Y3731D02*
X1127050D01*
X952766Y9826D02*
Y17500D01*
X1028526Y32500D02*
Y34151D01*
X1023892Y38786D02*
X1028526Y34151D01*
X944488Y8353D02*
Y16913D01*
Y8353D02*
X949110Y3731D01*
X952766Y9826D02*
X955558Y7033D01*
X976034D01*
X949110Y3731D02*
X977050D01*
X802766Y9826D02*
Y17500D01*
X878527Y32500D02*
Y34152D01*
X873892Y38786D02*
X878527Y34152D01*
X857787Y38786D02*
X873892D01*
X794489Y8353D02*
Y16913D01*
Y8353D02*
X799110Y3731D01*
X802766Y9826D02*
X805558Y7033D01*
X826034D01*
X799110Y3731D02*
X827050D01*
X652766Y9826D02*
Y17500D01*
X728527Y32500D02*
Y34152D01*
X723892Y38786D02*
X728527Y34152D01*
X644488Y8353D02*
Y16913D01*
Y8353D02*
X649110Y3731D01*
X652766Y9826D02*
X655558Y7033D01*
X676034D01*
X649110Y3731D02*
X677050D01*
X502804Y9826D02*
Y17500D01*
X578526Y32500D02*
Y34151D01*
X573892Y38786D02*
X578526Y34151D01*
X557825Y38786D02*
X573892D01*
X494526Y8354D02*
Y16914D01*
Y8354D02*
X499149Y3732D01*
X502804Y9826D02*
X505597Y7034D01*
X526073D01*
X499149Y3732D02*
X527089D01*
X352766Y9826D02*
Y17500D01*
X428526Y32500D02*
Y34151D01*
X423892Y38786D02*
X428526Y34151D01*
X344488Y8354D02*
Y16914D01*
Y8354D02*
X349110Y3732D01*
X352766Y9826D02*
X355558Y7034D01*
X376035D01*
X349110Y3732D02*
X377051D01*
X202767Y9826D02*
Y17500D01*
X278526Y32500D02*
Y34151D01*
X273892Y38786D02*
X278526Y34151D01*
X194489Y8354D02*
Y16914D01*
Y8354D02*
X199111Y3732D01*
X202767Y9826D02*
X205559Y7034D01*
X226035D01*
X199111Y3732D02*
X227051D01*
X1548718Y38786D02*
X1552766Y34738D01*
X1531478Y38786D02*
X1548718D01*
X1399654D02*
X1403526Y34913D01*
X274110Y3731D02*
X302050D01*
X280558Y7033D02*
X301034D01*
X277766Y9826D02*
X280558Y7033D01*
X269488Y8353D02*
X274110Y3731D01*
X269488Y8353D02*
Y16913D01*
X332787Y38786D02*
X348892D01*
X353526Y34151D01*
Y32500D02*
Y34151D01*
X277766Y9826D02*
Y17500D01*
X424086Y3731D02*
X452026D01*
X430534Y7033D02*
X451010D01*
X427742Y9826D02*
X430534Y7033D01*
X419464Y8353D02*
X424086Y3731D01*
X419464Y8353D02*
Y16913D01*
X498892Y38786D02*
X503526Y34151D01*
Y32500D02*
Y34151D01*
X427742Y9826D02*
Y17500D01*
X574096Y3731D02*
X602036D01*
X580544Y7033D02*
X601020D01*
X577752Y9826D02*
X580544Y7033D01*
X569474Y8353D02*
X574096Y3731D01*
X569474Y8353D02*
Y16913D01*
X648892Y38786D02*
X653526Y34151D01*
Y32500D02*
Y34151D01*
X577752Y9826D02*
Y17500D01*
X724111Y3732D02*
X752051D01*
X730559Y7034D02*
X751035D01*
X727766Y9826D02*
X730559Y7034D01*
X719489Y8354D02*
X724111Y3732D01*
X719489Y8354D02*
Y16914D01*
X782787Y38786D02*
X798892D01*
X803526Y34151D01*
Y32500D02*
Y34151D01*
X727766Y9826D02*
Y17500D01*
X874111Y3732D02*
X902051D01*
X880559Y7034D02*
X901035D01*
X877766Y9826D02*
X880559Y7034D01*
X869489Y8354D02*
X874111Y3732D01*
X869489Y8354D02*
Y16914D01*
X932787Y38786D02*
X948892D01*
X953526Y34151D01*
Y32500D02*
Y34151D01*
X877766Y9826D02*
Y17500D01*
X1024110Y3731D02*
X1052050D01*
X1030558Y7033D02*
X1051034D01*
X1027766Y9826D02*
X1030558Y7033D01*
X1019488Y8353D02*
X1024110Y3731D01*
X1019488Y8353D02*
Y16913D01*
X1098892Y38786D02*
X1103526Y34151D01*
Y32500D02*
Y34151D01*
X1027766Y9826D02*
Y17500D01*
X1177766Y9826D02*
Y17500D01*
X1327766Y10588D02*
Y17500D01*
X1253553Y32500D02*
Y34152D01*
X1248918Y38786D02*
X1253553Y34152D01*
X1232787Y38786D02*
X1248918D01*
X1169488Y8353D02*
Y16913D01*
Y8353D02*
X1174110Y3731D01*
X1177766Y9826D02*
X1180558Y7033D01*
X1201034D01*
X1174110Y3731D02*
X1202050D01*
X1319488Y9115D02*
Y17675D01*
Y9115D02*
X1324110Y4493D01*
X1327766Y10588D02*
X1330558Y7795D01*
X1403526Y32675D02*
Y34913D01*
X1330558Y7795D02*
X1351034D01*
X1324110Y4493D02*
X1352050D01*
X1473388Y4318D02*
X1501328D01*
X1479836Y7620D02*
X1500312D01*
X1552766Y32500D02*
Y34738D01*
X1477766Y9690D02*
X1479836Y7620D01*
X1477766Y9690D02*
Y17500D01*
X1468766Y8940D02*
X1473388Y4318D01*
X1468766Y8940D02*
Y17500D01*
D30*
X1679589Y19237D02*
D03*
X15748Y33528D02*
D03*
D31*
X61702Y24813D02*
Y31326D01*
X136632Y25400D02*
Y31913D01*
X1672528Y-101444D02*
Y-46101D01*
X1672556Y-46073D01*
Y-44995D01*
X1666752Y-43180D02*
X1667528Y-43956D01*
Y-101444D02*
Y-43956D01*
X1666752Y-43180D02*
Y-40640D01*
X1667238Y-41126D01*
X1672556Y-44995D02*
X1672848Y-44704D01*
X212763Y25400D02*
Y31914D01*
X287488Y25000D02*
Y31913D01*
X362762Y25400D02*
Y31913D01*
X437464Y25000D02*
Y31913D01*
X512762Y25400D02*
Y31913D01*
X587474Y25000D02*
Y31913D01*
X662762Y25400D02*
Y31913D01*
X737489Y25000D02*
Y31914D01*
X812762Y25400D02*
Y31913D01*
X887489Y25000D02*
Y31914D01*
X962762Y25400D02*
Y31913D01*
X1037488Y25000D02*
Y31913D01*
X1112762Y25400D02*
Y31913D01*
X1262789Y25400D02*
Y31914D01*
X1187488Y25000D02*
Y31913D01*
X1336788Y25175D02*
X1337258D01*
X1337488Y25405D01*
Y32675D01*
X1412992Y25405D02*
Y32675D01*
X1412762Y25175D02*
X1412992Y25405D01*
X1562002Y25000D02*
X1562232Y25230D01*
Y32500D01*
X1486766Y25230D02*
Y32500D01*
X1486536Y25000D02*
X1486766Y25230D01*
X1486066Y25000D02*
X1486536D01*
D32*
X70483Y29414D02*
X75625D01*
X75708Y18141D02*
Y20256D01*
X69935Y12368D02*
X75708Y18141D01*
X62763Y31914D02*
X67983D01*
X70483Y29414D01*
X69385Y12368D02*
X69935D01*
X67315Y14438D02*
X69385Y12368D01*
X63969Y14438D02*
X67315D01*
X62993Y15414D02*
X63969Y14438D01*
X62993Y15414D02*
Y16914D01*
X137763Y31914D02*
X142983D01*
X145483Y29414D02*
X150625D01*
X142983Y31914D02*
X145483Y29414D01*
X144935Y12368D02*
X149149Y16582D01*
Y17938D01*
X150625Y19414D01*
X144385Y12368D02*
X144935D01*
X142315Y14438D02*
X144385Y12368D01*
X138969Y14438D02*
X142315D01*
X137993Y15414D02*
X138969Y14438D01*
X137993Y15414D02*
Y16914D01*
X1562232Y16000D02*
Y17500D01*
X1412992Y16175D02*
Y17675D01*
X1337488Y16175D02*
Y17675D01*
X212993Y15414D02*
Y16914D01*
Y15414D02*
X213969Y14438D01*
X217315D01*
X219385Y12368D01*
X219935D01*
X224149Y17938D02*
X225625Y19414D01*
X224149Y16582D02*
Y17938D01*
X219935Y12368D02*
X224149Y16582D01*
X217983Y31914D02*
X220483Y29414D01*
X225625D01*
X212763Y31914D02*
X217983D01*
X362992Y15413D02*
Y16913D01*
Y15413D02*
X363968Y14437D01*
X367314D01*
X369384Y12367D01*
X369934D01*
X374148Y17937D02*
X375624Y19413D01*
X374148Y16581D02*
Y17937D01*
X369934Y12367D02*
X374148Y16581D01*
X367982Y31913D02*
X370482Y29413D01*
X375624D01*
X294978Y29413D02*
X300120D01*
X292478Y31913D02*
X294978Y29413D01*
X287488Y31913D02*
X292478D01*
X294430Y12367D02*
X298644Y16581D01*
Y17937D01*
X300120Y19413D01*
X293880Y12367D02*
X294430D01*
X291810Y14437D02*
X293880Y12367D01*
X288464Y14437D02*
X291810D01*
X287488Y15413D02*
X288464Y14437D01*
X287488Y15413D02*
Y16913D01*
X362762Y31913D02*
X367982D01*
X512992Y15413D02*
Y16913D01*
Y15413D02*
X513968Y14437D01*
X517314D01*
X519384Y12367D01*
X519934D01*
X524148Y17937D02*
X525624Y19413D01*
X524148Y16581D02*
Y17937D01*
X519934Y12367D02*
X524148Y16581D01*
X517982Y31913D02*
X520482Y29413D01*
X525624D01*
X444954Y29413D02*
X450096D01*
X442454Y31913D02*
X444954Y29413D01*
X437464Y31913D02*
X442454D01*
X444406Y12367D02*
X448620Y16581D01*
Y17937D01*
X450096Y19413D01*
X443856Y12367D02*
X444406D01*
X441786Y14437D02*
X443856Y12367D01*
X438440Y14437D02*
X441786D01*
X437464Y15413D02*
X438440Y14437D01*
X437464Y15413D02*
Y16913D01*
X512762Y31913D02*
X517982D01*
X662992Y15413D02*
Y16913D01*
Y15413D02*
X663968Y14437D01*
X667315D01*
X669385Y12367D01*
X669934D01*
X674148Y17937D02*
X675624Y19413D01*
X674148Y16581D02*
Y17937D01*
X669934Y12367D02*
X674148Y16581D01*
X667982Y31913D02*
X670482Y29413D01*
X675624D01*
X594964D02*
X600106D01*
X592464Y31913D02*
X594964Y29413D01*
X587474Y31913D02*
X592464D01*
X594416Y12367D02*
X598630Y16581D01*
Y17937D01*
X600106Y19413D01*
X593867Y12367D02*
X594416D01*
X591797Y14437D02*
X593867Y12367D01*
X588450Y14437D02*
X591797D01*
X587474Y15413D02*
X588450Y14437D01*
X587474Y15413D02*
Y16913D01*
X662762Y31913D02*
X667982D01*
X812992Y15413D02*
Y16913D01*
Y15413D02*
X813968Y14437D01*
X817315D01*
X819385Y12367D01*
X819934D01*
X824148Y17937D02*
X825624Y19413D01*
X824148Y16581D02*
Y17937D01*
X819934Y12367D02*
X824148Y16581D01*
X817982Y31913D02*
X820482Y29413D01*
X825624D01*
X744979Y29414D02*
X750121D01*
X742479Y31914D02*
X744979Y29414D01*
X737489Y31914D02*
X742479D01*
X744431Y12368D02*
X748645Y16582D01*
Y17938D01*
X750121Y19414D01*
X743881Y12368D02*
X744431D01*
X741811Y14438D02*
X743881Y12368D01*
X738465Y14438D02*
X741811D01*
X737489Y15414D02*
X738465Y14438D01*
X737489Y15414D02*
Y16914D01*
X812762Y31913D02*
X817982D01*
X962992Y15413D02*
Y16913D01*
Y15413D02*
X963968Y14437D01*
X967315D01*
X969385Y12367D01*
X969934D01*
X974148Y17937D02*
X975624Y19413D01*
X974148Y16581D02*
Y17937D01*
X969934Y12367D02*
X974148Y16581D01*
X967982Y31913D02*
X970482Y29413D01*
X975624D01*
X894979Y29414D02*
X900121D01*
X892479Y31914D02*
X894979Y29414D01*
X887489Y31914D02*
X892479D01*
X894431Y12368D02*
X898645Y16582D01*
Y17938D01*
X900121Y19414D01*
X893881Y12368D02*
X894431D01*
X891811Y14438D02*
X893881Y12368D01*
X888465Y14438D02*
X891811D01*
X887489Y15414D02*
X888465Y14438D01*
X887489Y15414D02*
Y16914D01*
X962762Y31913D02*
X967982D01*
X1112992Y15413D02*
Y16913D01*
Y15413D02*
X1113968Y14437D01*
X1117315D01*
X1119385Y12367D01*
X1119934D01*
X1124148Y17937D02*
X1125624Y19413D01*
X1124148Y16581D02*
Y17937D01*
X1119934Y12367D02*
X1124148Y16581D01*
X1117982Y31913D02*
X1120482Y29413D01*
X1125624D01*
X1044978D02*
X1050120D01*
X1042478Y31913D02*
X1044978Y29413D01*
X1037488Y31913D02*
X1042478D01*
X1044430Y12367D02*
X1048644Y16581D01*
Y17937D01*
X1050120Y19413D01*
X1043880Y12367D02*
X1044430D01*
X1041811Y14437D02*
X1043880Y12367D01*
X1038464Y14437D02*
X1041811D01*
X1037488Y15413D02*
X1038464Y14437D01*
X1037488Y15413D02*
Y16913D01*
X1112762Y31913D02*
X1117982D01*
X1262789Y31914D02*
X1268009D01*
X1187488Y15413D02*
Y16913D01*
Y15413D02*
X1188464Y14437D01*
X1191811D01*
X1193880Y12367D01*
X1194430D01*
X1198644Y17937D02*
X1200120Y19413D01*
X1198644Y16581D02*
Y17937D01*
X1194430Y12367D02*
X1198644Y16581D01*
X1187488Y31913D02*
X1192478D01*
X1194978Y29413D01*
X1200120D01*
X1270509Y29414D02*
X1275651D01*
X1268009Y31914D02*
X1270509Y29414D01*
X1269961Y12368D02*
X1274175Y16582D01*
Y17938D01*
X1275651Y19414D01*
X1269411Y12368D02*
X1269961D01*
X1267341Y14438D02*
X1269411Y12368D01*
X1263995Y14438D02*
X1267341D01*
X1263019Y15414D02*
X1263995Y14438D01*
X1263019Y15414D02*
Y16914D01*
X1337488Y16175D02*
X1338464Y15199D01*
X1341810D01*
X1343880Y13129D01*
X1344430D01*
X1348644Y18699D02*
X1350120Y20175D01*
X1348644Y17343D02*
Y18699D01*
X1344430Y13129D02*
X1348644Y17343D01*
X1337488Y32675D02*
X1342478D01*
X1344978Y30175D01*
X1350120D01*
X1420482D02*
X1425624D01*
X1417982Y32675D02*
X1420482Y30175D01*
X1412992Y32675D02*
X1417982D01*
X1419934Y13129D02*
X1424148Y17343D01*
Y18699D01*
X1425624Y20175D01*
X1419384Y13129D02*
X1419934D01*
X1417314Y15199D02*
X1419384Y13129D01*
X1413968Y15199D02*
X1417314D01*
X1412992Y16175D02*
X1413968Y15199D01*
X1562232Y16000D02*
X1563208Y15024D01*
X1566554D01*
X1568624Y12954D01*
X1569174D01*
X1573388Y18524D02*
X1574864Y20000D01*
X1573388Y17168D02*
Y18524D01*
X1569174Y12954D02*
X1573388Y17168D01*
X1562232Y32500D02*
X1567222D01*
X1569722Y30000D01*
X1574864D01*
X1494256D02*
X1499398D01*
X1491756Y32500D02*
X1494256Y30000D01*
X1486766Y32500D02*
X1491756D01*
X1493708Y12954D02*
X1497922Y17168D01*
Y18524D01*
X1499398Y20000D01*
X1493158Y12954D02*
X1493708D01*
X1491088Y15024D02*
X1493158Y12954D01*
X1487742Y15024D02*
X1491088D01*
X1486766Y16000D02*
X1487742Y15024D01*
X1486766Y16000D02*
Y17500D01*
D33*
X36655Y25001D02*
X44467D01*
X34653Y22999D02*
X36655Y25001D01*
X34653Y11370D02*
Y22999D01*
Y11370D02*
X38227Y7796D01*
X111655Y25001D02*
X119467D01*
X109653Y22999D02*
X111655Y25001D01*
X109653Y11370D02*
Y22999D01*
Y11370D02*
X113227Y7796D01*
X1537272Y25000D02*
X1543373D01*
X1534146Y21874D02*
X1537272Y25000D01*
X1534146Y11956D02*
Y21874D01*
Y11956D02*
X1537720Y8382D01*
X1459652Y11370D02*
X1463226Y7795D01*
X1459652Y11370D02*
Y22998D01*
X1461654Y25000D01*
X1469466D01*
X1387158D02*
X1393958D01*
X1384906Y22748D02*
X1387158Y25000D01*
X1384906Y12132D02*
Y22748D01*
Y12132D02*
X1388480Y8557D01*
X1309652Y11370D02*
X1313226Y7795D01*
X1309652Y11370D02*
Y22998D01*
X1311654Y25000D01*
X1319466D01*
X1234678Y11370D02*
X1238253Y7796D01*
X1234678Y11370D02*
Y22998D01*
X1236680Y25000D01*
X1244492D01*
X1159652Y11370D02*
X1163226Y7795D01*
X1159652Y11370D02*
Y22998D01*
X1161654Y25000D01*
X1169466D01*
X1084652Y11370D02*
X1088226Y7795D01*
X1084652Y11370D02*
Y22998D01*
X1086654Y25000D01*
X1094466D01*
X1009652Y11370D02*
X1013226Y7795D01*
X1009652Y11370D02*
Y22998D01*
X1011654Y25000D01*
X1019466D01*
X934652Y11370D02*
X938226Y7795D01*
X934652Y11370D02*
Y22998D01*
X936654Y25000D01*
X944466D01*
X859652Y11370D02*
X863227Y7796D01*
X859652Y11370D02*
Y22998D01*
X861654Y25000D01*
X869466D01*
X784652Y11370D02*
X788226Y7795D01*
X784652Y11370D02*
Y22998D01*
X786654Y25000D01*
X794466D01*
X709652Y11370D02*
X713227Y7796D01*
X709652Y11370D02*
Y22998D01*
X711654Y25000D01*
X719466D01*
X634652Y11370D02*
X638226Y7795D01*
X634652Y11370D02*
Y22998D01*
X636654Y25000D01*
X644466D01*
X559652Y11370D02*
X563226Y7795D01*
X559652Y11370D02*
Y22998D01*
X561654Y25000D01*
X569466D01*
X484652Y11370D02*
X488226Y7795D01*
X484652Y11370D02*
Y22998D01*
X486654Y25000D01*
X494466D01*
X409652Y11370D02*
X413226Y7795D01*
X409652Y11370D02*
Y22998D01*
X411654Y25000D01*
X419466D01*
X334652Y11370D02*
X338226Y7795D01*
X334652Y11370D02*
Y22998D01*
X336654Y25000D01*
X344466D01*
X184652Y11370D02*
X188227Y7796D01*
X184652Y11370D02*
Y22998D01*
X186654Y25000D01*
X194466D01*
X261654Y25000D02*
X269466D01*
X259652Y22998D02*
X261654Y25000D01*
X259652Y11370D02*
Y22998D01*
Y11370D02*
X263226Y7795D01*
D34*
X1662498Y-45750D02*
D03*
X1657350Y-48768D02*
D03*
X1672848Y-44704D02*
D03*
D35*
X69935Y12368D02*
D03*
X38227Y7796D02*
D03*
X144935Y12368D02*
D03*
X113227Y7796D02*
D03*
X1666752Y-40640D02*
D03*
X1463226Y7795D02*
D03*
X1313226D02*
D03*
X1163226D02*
D03*
X1013226D02*
D03*
X863227Y7796D02*
D03*
X713227D02*
D03*
X563226Y7795D02*
D03*
X413226D02*
D03*
X263226D02*
D03*
X188227Y7796D02*
D03*
X219935Y12368D02*
D03*
X338226Y7795D02*
D03*
X369934Y12367D02*
D03*
X294430Y12367D02*
D03*
X488226Y7795D02*
D03*
X519934Y12367D02*
D03*
X444406Y12367D02*
D03*
X638226Y7795D02*
D03*
X669934Y12367D02*
D03*
X594416D02*
D03*
X788226Y7795D02*
D03*
X819934Y12367D02*
D03*
X744431Y12368D02*
D03*
X938226Y7795D02*
D03*
X969934Y12367D02*
D03*
X894431Y12368D02*
D03*
X1088226Y7795D02*
D03*
X1119934Y12367D02*
D03*
X1044430D02*
D03*
X1194430D02*
D03*
X1269961Y12368D02*
D03*
X1238253Y7796D02*
D03*
X1344430Y13129D02*
D03*
X1419934D02*
D03*
X1388480Y8557D02*
D03*
X1537720Y8382D02*
D03*
X1569174Y12954D02*
D03*
X1493708D02*
D03*
M02*
