G04*
G04 #@! TF.GenerationSoftware,Altium Limited,Altium Designer,19.0.12 (326)*
G04*
G04 Layer_Color=16711935*
%FSLAX44Y44*%
%MOMM*%
G71*
G01*
G75*
%ADD11C,0.1270*%
D11*
X1707500Y43640D02*
G03*
X1701140Y50000I-6360J0D01*
G01*
X1682500Y-5000D02*
G03*
X1677500Y0I-5000J0D01*
G01*
Y-15922D02*
G03*
X1682500Y-10922I0J5000D01*
G01*
X1681734Y-33702D02*
G03*
X1677528Y-38608I350J-4556D01*
G01*
X1702500Y-33702D02*
G03*
X1707500Y-28702I0J5000D01*
G01*
X1657096Y-15922D02*
G03*
X1652528Y-20320I-85J-4483D01*
G01*
X0Y50000D02*
X1597500D01*
X0Y0D02*
X1677500Y0D01*
X1597500Y50000D02*
X1682500D01*
X1657096Y-15922D02*
X1677500D01*
X1681734Y-33702D02*
X1702500D01*
X1652528Y-129568D02*
X1677528D01*
X1707500Y-27686D02*
Y43640D01*
X1677528Y-129568D02*
Y-38608D01*
X1652528Y-129568D02*
Y-20320D01*
X0Y0D02*
Y50000D01*
X1682500Y-10922D02*
Y-5000D01*
Y50000D02*
X1701140D01*
X1677500Y0D02*
X1677500D01*
X1707500Y43640D02*
G03*
X1701140Y50000I-6360J0D01*
G01*
X1682500Y-5000D02*
G03*
X1677500Y0I-5000J0D01*
G01*
Y-15922D02*
G03*
X1682500Y-10922I0J5000D01*
G01*
X1657096Y-15922D02*
G03*
X1652528Y-20320I-85J-4483D01*
G01*
X1702500Y-33702D02*
G03*
X1707500Y-28702I0J5000D01*
G01*
X1681734Y-33702D02*
G03*
X1677528Y-38608I350J-4556D01*
G01*
X1652528Y-129568D02*
X1677528D01*
Y-38608D01*
X1682500Y50000D02*
X1701140D01*
X1677500Y0D02*
X1677500D01*
X1652528Y-129568D02*
Y-20320D01*
X1597500Y50000D02*
X1682500D01*
X0D02*
X1597500D01*
X0Y-0D02*
X1677500Y0D01*
X0D02*
Y50000D01*
X1682500Y-10922D02*
Y-5000D01*
X1657096Y-15922D02*
X1677500D01*
X1707500Y-27686D02*
Y43640D01*
X1681734Y-33702D02*
X1702500D01*
M02*
