G04*
G04 #@! TF.GenerationSoftware,Altium Limited,Altium Designer,19.0.12 (326)*
G04*
G04 Layer_Color=255*
%FSLAX44Y44*%
%MOMM*%
G71*
G01*
G75*
%ADD11C,0.1270*%
%ADD15R,0.6000X0.6000*%
%ADD16R,0.5000X0.8000*%
%ADD17R,0.3000X0.8000*%
%ADD18R,1.0000X0.3000*%
%ADD19R,0.3000X4.0000*%
%ADD30C,1.0000*%
D11*
X1707500Y43640D02*
G03*
X1701140Y50000I-6360J0D01*
G01*
X1682500Y-5000D02*
G03*
X1677500Y0I-5000J0D01*
G01*
Y-15922D02*
G03*
X1682500Y-10922I0J5000D01*
G01*
X1657096Y-15922D02*
G03*
X1652528Y-20320I-85J-4483D01*
G01*
X1702500Y-33702D02*
G03*
X1707500Y-28702I0J5000D01*
G01*
X1681734Y-33702D02*
G03*
X1677528Y-38608I350J-4556D01*
G01*
X1652528Y-129568D02*
X1677528D01*
Y-38608D01*
X1682500Y50000D02*
X1701140D01*
X1677500Y0D02*
X1677500D01*
X1652528Y-129568D02*
Y-20320D01*
X1597500Y50000D02*
X1682500D01*
X0D02*
X1597500D01*
X0Y-0D02*
X1677500Y0D01*
X0D02*
Y50000D01*
X1682500Y-10922D02*
Y-5000D01*
X1657096Y-15922D02*
X1677500D01*
X1707500Y-27686D02*
Y43640D01*
X1681734Y-33702D02*
X1702500D01*
D15*
X75708Y20256D02*
D03*
Y30256D02*
D03*
X150626Y19666D02*
D03*
Y29666D02*
D03*
X225228Y20294D02*
D03*
Y30294D02*
D03*
X300118Y20054D02*
D03*
Y30054D02*
D03*
X375118Y19920D02*
D03*
Y29920D02*
D03*
X449958Y20308D02*
D03*
Y30308D02*
D03*
X525118Y19920D02*
D03*
Y29920D02*
D03*
X599974Y19919D02*
D03*
Y29919D02*
D03*
X675118Y19237D02*
D03*
Y29237D02*
D03*
X900118Y19666D02*
D03*
Y29666D02*
D03*
X825036Y19920D02*
D03*
Y29920D02*
D03*
X750118Y19792D02*
D03*
Y29792D02*
D03*
X975118Y19620D02*
D03*
Y29620D02*
D03*
X1049864Y19754D02*
D03*
Y29754D02*
D03*
X1124864Y19920D02*
D03*
Y29920D02*
D03*
X1275144Y19412D02*
D03*
Y29412D02*
D03*
X1199864Y20000D02*
D03*
Y30000D02*
D03*
X1350244Y29238D02*
D03*
Y19238D02*
D03*
X1424864Y30174D02*
D03*
Y20174D02*
D03*
X1499398Y30000D02*
D03*
Y20000D02*
D03*
X1574864Y30000D02*
D03*
Y20000D02*
D03*
D16*
X118766Y17500D02*
D03*
X136766D02*
D03*
X118766Y32500D02*
D03*
X136766D02*
D03*
X43766Y17500D02*
D03*
X61766D02*
D03*
X43766Y32500D02*
D03*
X61766D02*
D03*
X1561766D02*
D03*
X1543766D02*
D03*
X1561766Y17500D02*
D03*
X1543766D02*
D03*
X1468766D02*
D03*
X1486766D02*
D03*
X1468766Y32500D02*
D03*
X1486766D02*
D03*
X1411766D02*
D03*
X1393766D02*
D03*
X1411766Y17500D02*
D03*
X1393766D02*
D03*
X1318766D02*
D03*
X1336766D02*
D03*
X1318766Y32500D02*
D03*
X1336766D02*
D03*
X1261792Y32500D02*
D03*
X1243792D02*
D03*
X1261792Y17500D02*
D03*
X1243792D02*
D03*
X1168766Y17500D02*
D03*
X1186766D02*
D03*
X1168766Y32500D02*
D03*
X1186766D02*
D03*
X1111766D02*
D03*
X1093766D02*
D03*
X1111766Y17500D02*
D03*
X1093766D02*
D03*
X1018766D02*
D03*
X1036766D02*
D03*
X1018766Y32500D02*
D03*
X1036766D02*
D03*
X961766D02*
D03*
X943766D02*
D03*
X961766Y17500D02*
D03*
X943766D02*
D03*
X868766D02*
D03*
X886766D02*
D03*
X868766Y32500D02*
D03*
X886766D02*
D03*
X811766D02*
D03*
X793766D02*
D03*
X811766Y17500D02*
D03*
X793766D02*
D03*
X718766D02*
D03*
X736766D02*
D03*
X718766Y32500D02*
D03*
X736766D02*
D03*
X661766D02*
D03*
X643766D02*
D03*
X661766Y17500D02*
D03*
X643766D02*
D03*
X568766D02*
D03*
X586766D02*
D03*
X568766Y32500D02*
D03*
X586766D02*
D03*
X511766D02*
D03*
X493766D02*
D03*
X511766Y17500D02*
D03*
X493766D02*
D03*
X418766D02*
D03*
X436766D02*
D03*
X418766Y32500D02*
D03*
X436766D02*
D03*
X361766D02*
D03*
X343766D02*
D03*
X361766Y17500D02*
D03*
X343766D02*
D03*
X268766D02*
D03*
X286766D02*
D03*
X268766Y32500D02*
D03*
X286766D02*
D03*
X211766Y32500D02*
D03*
X193766D02*
D03*
X211766Y17500D02*
D03*
X193766D02*
D03*
D17*
X127766Y32500D02*
D03*
Y17500D02*
D03*
X52766Y32500D02*
D03*
Y17500D02*
D03*
X1552766D02*
D03*
Y32500D02*
D03*
X1477766D02*
D03*
Y17500D02*
D03*
X1402766D02*
D03*
Y32500D02*
D03*
X1327766D02*
D03*
Y17500D02*
D03*
X1252792Y17500D02*
D03*
Y32500D02*
D03*
X1177766Y32500D02*
D03*
Y17500D02*
D03*
X1102766D02*
D03*
Y32500D02*
D03*
X1027766D02*
D03*
Y17500D02*
D03*
X952766D02*
D03*
Y32500D02*
D03*
X877766D02*
D03*
Y17500D02*
D03*
X802766D02*
D03*
Y32500D02*
D03*
X727766D02*
D03*
Y17500D02*
D03*
X652766D02*
D03*
Y32500D02*
D03*
X577766D02*
D03*
Y17500D02*
D03*
X502766D02*
D03*
Y32500D02*
D03*
X427766D02*
D03*
Y17500D02*
D03*
X352766D02*
D03*
Y32500D02*
D03*
X277766D02*
D03*
Y17500D02*
D03*
X202766Y17500D02*
D03*
Y32500D02*
D03*
D18*
X119466Y25000D02*
D03*
X136066D02*
D03*
X44466D02*
D03*
X61066D02*
D03*
X1561066D02*
D03*
X1544466D02*
D03*
X1469466D02*
D03*
X1486066D02*
D03*
X1411066D02*
D03*
X1394466D02*
D03*
X1319466D02*
D03*
X1336066D02*
D03*
X1261092Y25000D02*
D03*
X1244492D02*
D03*
X1169466Y25000D02*
D03*
X1186066D02*
D03*
X1111066D02*
D03*
X1094466D02*
D03*
X1019466D02*
D03*
X1036066D02*
D03*
X961066D02*
D03*
X944466D02*
D03*
X869466D02*
D03*
X886066D02*
D03*
X811066D02*
D03*
X794466D02*
D03*
X719466D02*
D03*
X736066D02*
D03*
X661066D02*
D03*
X644466D02*
D03*
X569466D02*
D03*
X586066D02*
D03*
X511066D02*
D03*
X494466D02*
D03*
X419466D02*
D03*
X436066D02*
D03*
X361066D02*
D03*
X344466D02*
D03*
X269466D02*
D03*
X286066D02*
D03*
X211066Y25000D02*
D03*
X194466D02*
D03*
D19*
X1657528Y-109572D02*
D03*
X1662528D02*
D03*
X1667528D02*
D03*
X1672528D02*
D03*
D30*
X1679589Y19237D02*
D03*
X15748Y33528D02*
D03*
M02*
