G04*
G04 #@! TF.GenerationSoftware,Altium Limited,Altium Designer,19.0.12 (326)*
G04*
G04 Layer_Color=16711935*
%FSLAX44Y44*%
%MOMM*%
G71*
G01*
G75*
%ADD11C,0.1270*%
%ADD40C,0.1000*%
D11*
X117766Y35000D02*
X137766D01*
Y15000D02*
Y35000D01*
X117766Y15000D02*
X137766D01*
X117766D02*
Y35000D01*
X42766D02*
X62766D01*
Y15000D02*
Y35000D01*
X42766Y15000D02*
X62766D01*
X42766D02*
Y35000D01*
X1542766Y15000D02*
Y35000D01*
Y15000D02*
X1562766D01*
Y35000D01*
X1542766D02*
X1562766D01*
X1467766D02*
X1487766D01*
Y15000D02*
Y35000D01*
X1467766Y15000D02*
X1487766D01*
X1467766D02*
Y35000D01*
X1392766Y15000D02*
Y35000D01*
Y15000D02*
X1412766D01*
Y35000D01*
X1392766D02*
X1412766D01*
X1317766D02*
X1337766D01*
Y15000D02*
Y35000D01*
X1317766Y15000D02*
X1337766D01*
X1317766D02*
Y35000D01*
X1242792Y15000D02*
Y35000D01*
Y15000D02*
X1262792D01*
Y35000D01*
X1242792D02*
X1262792D01*
X1167766Y35000D02*
X1187766D01*
Y15000D02*
Y35000D01*
X1167766Y15000D02*
X1187766D01*
X1167766D02*
Y35000D01*
X1092766Y15000D02*
Y35000D01*
Y15000D02*
X1112766D01*
Y35000D01*
X1092766D02*
X1112766D01*
X1017766D02*
X1037766D01*
Y15000D02*
Y35000D01*
X1017766Y15000D02*
X1037766D01*
X1017766D02*
Y35000D01*
X942766Y15000D02*
Y35000D01*
Y15000D02*
X962766D01*
Y35000D01*
X942766D02*
X962766D01*
X867766D02*
X887766D01*
Y15000D02*
Y35000D01*
X867766Y15000D02*
X887766D01*
X867766D02*
Y35000D01*
X792766Y15000D02*
Y35000D01*
Y15000D02*
X812766D01*
Y35000D01*
X792766D02*
X812766D01*
X717766D02*
X737766D01*
Y15000D02*
Y35000D01*
X717766Y15000D02*
X737766D01*
X717766D02*
Y35000D01*
X642766Y15000D02*
Y35000D01*
Y15000D02*
X662766D01*
Y35000D01*
X642766D02*
X662766D01*
X567766D02*
X587766D01*
Y15000D02*
Y35000D01*
X567766Y15000D02*
X587766D01*
X567766D02*
Y35000D01*
X492766Y15000D02*
Y35000D01*
Y15000D02*
X512766D01*
Y35000D01*
X492766D02*
X512766D01*
X417766D02*
X437766D01*
Y15000D02*
Y35000D01*
X417766Y15000D02*
X437766D01*
X417766D02*
Y35000D01*
X342766Y15000D02*
Y35000D01*
Y15000D02*
X362766D01*
Y35000D01*
X342766D02*
X362766D01*
X267766D02*
X287766D01*
Y15000D02*
Y35000D01*
X267766Y15000D02*
X287766D01*
X267766D02*
Y35000D01*
X192766Y15000D02*
Y35000D01*
Y15000D02*
X212766D01*
Y35000D01*
X192766D02*
X212766D01*
X1707500Y43640D02*
G03*
X1701140Y50000I-6360J0D01*
G01*
X1682500Y-5000D02*
G03*
X1677500Y0I-5000J0D01*
G01*
Y-15922D02*
G03*
X1682500Y-10922I0J5000D01*
G01*
X1657096Y-15922D02*
G03*
X1652528Y-20320I-85J-4483D01*
G01*
X1702500Y-33702D02*
G03*
X1707500Y-28702I0J5000D01*
G01*
X1681734Y-33702D02*
G03*
X1677528Y-38608I350J-4556D01*
G01*
X1652528Y-129568D02*
X1677528D01*
Y-38608D01*
X1682500Y50000D02*
X1701140D01*
X1677500Y0D02*
X1677500D01*
X1652528Y-129568D02*
Y-20320D01*
X1597500Y50000D02*
X1682500D01*
X0D02*
X1597500D01*
X0Y-0D02*
X1677500Y0D01*
X0D02*
Y50000D01*
X1682500Y-10922D02*
Y-5000D01*
X1657096Y-15922D02*
X1677500D01*
X1707500Y-27686D02*
Y43640D01*
X1681734Y-33702D02*
X1702500D01*
D40*
X72708Y19756D02*
Y30756D01*
X78708Y19756D02*
Y30756D01*
X72708Y19756D02*
X78708D01*
X72708Y30756D02*
X78708D01*
X147626Y19166D02*
Y30166D01*
X153626Y19166D02*
Y30166D01*
X147626Y19166D02*
X153626D01*
X147626Y30166D02*
X153626D01*
X222228Y19794D02*
Y30794D01*
X228228Y19794D02*
Y30794D01*
X222228Y19794D02*
X228228D01*
X222228Y30794D02*
X228228D01*
X297118Y19554D02*
Y30554D01*
X303118Y19554D02*
Y30554D01*
X297118Y19554D02*
X303118D01*
X297118Y30554D02*
X303118D01*
X372118Y19420D02*
Y30420D01*
X378118Y19420D02*
Y30420D01*
X372118Y19420D02*
X378118D01*
X372118Y30420D02*
X378118D01*
X446958Y19808D02*
Y30808D01*
X452958Y19808D02*
Y30808D01*
X446958Y19808D02*
X452958D01*
X446958Y30808D02*
X452958D01*
X522118Y19420D02*
Y30420D01*
X528118Y19420D02*
Y30420D01*
X522118Y19420D02*
X528118D01*
X522118Y30420D02*
X528118D01*
X596974Y19419D02*
Y30419D01*
X602974Y19419D02*
Y30419D01*
X596974Y19419D02*
X602974D01*
X596974Y30419D02*
X602974D01*
X672118Y18737D02*
Y29737D01*
X678118Y18737D02*
Y29737D01*
X672118Y18737D02*
X678118D01*
X672118Y29737D02*
X678118D01*
X897118Y19166D02*
Y30166D01*
X903118Y19166D02*
Y30166D01*
X897118Y19166D02*
X903118D01*
X897118Y30166D02*
X903118D01*
X822036Y19420D02*
Y30420D01*
X828036Y19420D02*
Y30420D01*
X822036Y19420D02*
X828036D01*
X822036Y30420D02*
X828036D01*
X747118Y19292D02*
Y30292D01*
X753118Y19292D02*
Y30292D01*
X747118Y19292D02*
X753118D01*
X747118Y30292D02*
X753118D01*
X972118Y19120D02*
Y30120D01*
X978118Y19120D02*
Y30120D01*
X972118Y19120D02*
X978118D01*
X972118Y30120D02*
X978118D01*
X1046864Y19254D02*
Y30254D01*
X1052864Y19254D02*
Y30254D01*
X1046864Y19254D02*
X1052864D01*
X1046864Y30254D02*
X1052864D01*
X1121864Y19420D02*
Y30420D01*
X1127864Y19420D02*
Y30420D01*
X1121864Y19420D02*
X1127864D01*
X1121864Y30420D02*
X1127864D01*
X1272144Y18912D02*
Y29912D01*
X1278144Y18912D02*
Y29912D01*
X1272144Y18912D02*
X1278144D01*
X1272144Y29912D02*
X1278144D01*
X1196864Y19500D02*
Y30500D01*
X1202864Y19500D02*
Y30500D01*
X1196864Y19500D02*
X1202864D01*
X1196864Y30500D02*
X1202864D01*
X1347244Y29738D02*
X1353244D01*
X1347244Y18738D02*
X1353244D01*
Y29738D01*
X1347244Y18738D02*
Y29738D01*
X1421864Y30674D02*
X1427864D01*
X1421864Y19674D02*
X1427864D01*
Y30674D01*
X1421864Y19674D02*
Y30674D01*
X1496398Y30500D02*
X1502398D01*
X1496398Y19500D02*
X1502398D01*
Y30500D01*
X1496398Y19500D02*
Y30500D01*
X1571864D02*
X1577864D01*
X1571864Y19500D02*
X1577864D01*
Y30500D01*
X1571864Y19500D02*
Y30500D01*
M02*
