G04*
G04 #@! TF.GenerationSoftware,Altium Limited,Altium Designer,19.0.12 (326)*
G04*
G04 Layer_Color=8388736*
%FSLAX44Y44*%
%MOMM*%
G71*
G01*
G75*
%ADD11C,0.1270*%
%ADD13C,0.1778*%
%ADD37R,2.5000X4.0386*%
D11*
X1643888Y-108712D02*
X1649222Y-105410D01*
X1643888Y-102108D02*
X1649222Y-105410D01*
X1617472D02*
X1649222D01*
X1707500Y43640D02*
G03*
X1701140Y50000I-6360J0D01*
G01*
X1682500Y-5000D02*
G03*
X1677500Y0I-5000J0D01*
G01*
Y-15922D02*
G03*
X1682500Y-10922I0J5000D01*
G01*
X1657096Y-15922D02*
G03*
X1652528Y-20320I-85J-4483D01*
G01*
X1702500Y-33702D02*
G03*
X1707500Y-28702I0J5000D01*
G01*
X1681734Y-33702D02*
G03*
X1677528Y-38608I350J-4556D01*
G01*
X1652528Y-129568D02*
X1677528D01*
Y-38608D01*
X1682500Y50000D02*
X1701140D01*
X1677500Y0D02*
X1677500D01*
X1652528Y-129568D02*
Y-20320D01*
X1597500Y50000D02*
X1682500D01*
X0D02*
X1597500D01*
X0Y-0D02*
X1677500Y0D01*
X0D02*
Y50000D01*
X1682500Y-10922D02*
Y-5000D01*
X1657096Y-15922D02*
X1677500D01*
X1707500Y-27686D02*
Y43640D01*
X1681734Y-33702D02*
X1702500D01*
D13*
X1491144Y-101856D02*
X1489875Y-100587D01*
X1487336D01*
X1486066Y-101856D01*
Y-103126D01*
X1487336Y-104395D01*
X1489875D01*
X1491144Y-105665D01*
Y-106934D01*
X1489875Y-108204D01*
X1487336D01*
X1486066Y-106934D01*
X1494953Y-101856D02*
Y-103126D01*
X1493684D01*
X1496223D01*
X1494953D01*
Y-106934D01*
X1496223Y-108204D01*
X1500031D02*
X1502571D01*
X1501301D01*
Y-103126D01*
X1500031D01*
X1507649Y-108204D02*
Y-101856D01*
Y-104395D01*
X1506379D01*
X1508919D01*
X1507649D01*
Y-101856D01*
X1508919Y-100587D01*
X1513997Y-108204D02*
Y-101856D01*
Y-104395D01*
X1512727D01*
X1515267D01*
X1513997D01*
Y-101856D01*
X1515267Y-100587D01*
X1522884Y-108204D02*
X1520345D01*
X1519075Y-106934D01*
Y-104395D01*
X1520345Y-103126D01*
X1522884D01*
X1524154Y-104395D01*
Y-105665D01*
X1519075D01*
X1526693Y-108204D02*
Y-103126D01*
X1530502D01*
X1531771Y-104395D01*
Y-108204D01*
X1538119D02*
X1535580D01*
X1534310Y-106934D01*
Y-104395D01*
X1535580Y-103126D01*
X1538119D01*
X1539389Y-104395D01*
Y-105665D01*
X1534310D01*
X1541928Y-103126D02*
Y-108204D01*
Y-105665D01*
X1543197Y-104395D01*
X1544467Y-103126D01*
X1545737D01*
X1557163Y-100587D02*
Y-108204D01*
X1562241D01*
X1566050D02*
X1568589D01*
X1569859Y-106934D01*
Y-104395D01*
X1568589Y-103126D01*
X1566050D01*
X1564780Y-104395D01*
Y-106934D01*
X1566050Y-108204D01*
X1577476Y-103126D02*
X1573668D01*
X1572398Y-104395D01*
Y-106934D01*
X1573668Y-108204D01*
X1577476D01*
X1581285Y-103126D02*
X1583824D01*
X1585094Y-104395D01*
Y-108204D01*
X1581285D01*
X1580016Y-106934D01*
X1581285Y-105665D01*
X1585094D01*
X1588903Y-101856D02*
Y-103126D01*
X1587633D01*
X1590172D01*
X1588903D01*
Y-106934D01*
X1590172Y-108204D01*
X1593981D02*
X1596520D01*
X1595251D01*
Y-103126D01*
X1593981D01*
X1601599Y-108204D02*
X1604138D01*
X1605407Y-106934D01*
Y-104395D01*
X1604138Y-103126D01*
X1601599D01*
X1600329Y-104395D01*
Y-106934D01*
X1601599Y-108204D01*
X1607947D02*
Y-103126D01*
X1611755D01*
X1613025Y-104395D01*
Y-108204D01*
D37*
X1665028Y-109347D02*
D03*
M02*
