G04*
G04 #@! TF.GenerationSoftware,Altium Limited,Altium Designer,19.0.12 (326)*
G04*
G04 Layer_Color=8388736*
%FSLAX44Y44*%
%MOMM*%
G71*
G01*
G75*
%ADD18C,0.0127*%
%ADD19C,0.0130*%
%ADD30C,0.8500*%
%ADD31R,1.0032X1.1032*%
%ADD32R,0.8032X0.8032*%
%ADD33R,3.3032X3.3032*%
%ADD34R,0.5132X1.1032*%
%ADD35R,1.1032X0.5132*%
%ADD36R,0.9232X0.9232*%
%ADD37R,0.9532X1.0532*%
%ADD38R,0.8032X0.8032*%
%ADD39R,0.5032X2.8032*%
%ADD40R,0.5032X4.2032*%
%ADD41C,0.7032*%
D18*
X510723Y-19142D02*
X566304Y-476337D01*
X0Y0D02*
X403392D01*
X403397Y0D02*
X461304Y-476337D01*
X735904Y-19138D02*
Y489996D01*
X4Y0D02*
Y489996D01*
X461304Y-640804D02*
X566304D01*
Y-476337D01*
X461304Y-640804D02*
Y-476337D01*
X399804Y864296D02*
X399804Y489996D01*
X504804Y864296D02*
X504804Y489996D01*
X4Y489996D02*
X399804Y489996D01*
X504804Y489996D02*
X735904Y489996D01*
X399804Y864296D02*
X504804D01*
D19*
X510723Y-19138D02*
X735904Y-19138D01*
D30*
X394930Y446906D02*
D03*
X388288Y475574D02*
D03*
X206005Y465494D02*
D03*
X372832Y400470D02*
D03*
X695666Y476162D02*
D03*
X330052Y446979D02*
D03*
D31*
X441356Y302038D02*
D03*
X427356D02*
D03*
X308230Y302602D02*
D03*
X322230D02*
D03*
X176759Y401375D02*
D03*
X190759D02*
D03*
X176759Y416107D02*
D03*
X190759D02*
D03*
D32*
X414804Y300760D02*
D03*
Y310760D02*
D03*
X402352Y300760D02*
D03*
Y310760D02*
D03*
X388914Y300848D02*
D03*
Y310848D02*
D03*
X360388Y300808D02*
D03*
Y310808D02*
D03*
X346900Y310759D02*
D03*
Y300759D02*
D03*
X334534Y310808D02*
D03*
Y300808D02*
D03*
X290841Y464128D02*
D03*
Y474128D02*
D03*
X318019D02*
D03*
Y464128D02*
D03*
X265028Y474145D02*
D03*
Y464145D02*
D03*
X302779Y464128D02*
D03*
Y474128D02*
D03*
X276966Y464077D02*
D03*
Y474077D02*
D03*
D33*
X291862Y423357D02*
D03*
D34*
X274362Y448647D02*
D03*
X279362D02*
D03*
X284362D02*
D03*
X289362D02*
D03*
X294362D02*
D03*
X299362D02*
D03*
X304362D02*
D03*
X309362D02*
D03*
Y398067D02*
D03*
X304362D02*
D03*
X299362D02*
D03*
X294362D02*
D03*
X289362D02*
D03*
X284362D02*
D03*
X279362D02*
D03*
X274362D02*
D03*
D35*
X317152Y440857D02*
D03*
Y435857D02*
D03*
Y430857D02*
D03*
Y425857D02*
D03*
Y420857D02*
D03*
Y415857D02*
D03*
Y410857D02*
D03*
Y405857D02*
D03*
X266572D02*
D03*
Y410857D02*
D03*
Y415857D02*
D03*
Y420857D02*
D03*
Y425857D02*
D03*
Y430857D02*
D03*
Y435857D02*
D03*
Y440857D02*
D03*
D36*
X330013Y464096D02*
D03*
Y474096D02*
D03*
D37*
X350870Y437261D02*
D03*
X361378D02*
D03*
X350870Y450761D02*
D03*
X361378D02*
D03*
D38*
X377992Y435730D02*
D03*
X387992D02*
D03*
X182489Y430839D02*
D03*
X192489D02*
D03*
X339571Y421003D02*
D03*
X349571D02*
D03*
X387992Y458235D02*
D03*
X377992D02*
D03*
X216301Y402899D02*
D03*
X206301D02*
D03*
X206301Y414837D02*
D03*
X216301D02*
D03*
X359573Y466145D02*
D03*
X349573D02*
D03*
X349694Y405394D02*
D03*
X339694D02*
D03*
X232342Y431485D02*
D03*
X242342D02*
D03*
X232342Y407863D02*
D03*
X242342D02*
D03*
X349694Y393710D02*
D03*
X339694D02*
D03*
X232342Y396941D02*
D03*
X242342D02*
D03*
X232383Y420817D02*
D03*
X242383D02*
D03*
X232336Y442194D02*
D03*
X242336D02*
D03*
X232336Y453036D02*
D03*
X242336D02*
D03*
X232342Y463743D02*
D03*
X242342D02*
D03*
X232343Y474356D02*
D03*
X242343D02*
D03*
X182569Y442523D02*
D03*
X192569D02*
D03*
D39*
X489804Y851296D02*
D03*
X484804D02*
D03*
X479804D02*
D03*
X474804D02*
D03*
X469804D02*
D03*
X464804D02*
D03*
X494804D02*
D03*
X499804D02*
D03*
X449804D02*
D03*
X444804D02*
D03*
X439804D02*
D03*
X434804D02*
D03*
X429804D02*
D03*
X424804D02*
D03*
X419804D02*
D03*
X414804D02*
D03*
X409804D02*
D03*
X404804D02*
D03*
X454804D02*
D03*
X459804D02*
D03*
D40*
X521304Y-620804D02*
D03*
X516304D02*
D03*
X466304D02*
D03*
X471304D02*
D03*
X476304D02*
D03*
X481304D02*
D03*
X486304D02*
D03*
X491304D02*
D03*
X496304D02*
D03*
X501304D02*
D03*
X506304D02*
D03*
X511304D02*
D03*
X561304D02*
D03*
X556304D02*
D03*
X526304D02*
D03*
X531304D02*
D03*
X536304D02*
D03*
X541304D02*
D03*
X546304D02*
D03*
X551304D02*
D03*
D41*
X302862Y412357D02*
D03*
X291862D02*
D03*
X280862D02*
D03*
X302862Y423357D02*
D03*
X291862D02*
D03*
X280862D02*
D03*
Y434357D02*
D03*
X302862D02*
D03*
X291862D02*
D03*
M02*
