G04*
G04 #@! TF.GenerationSoftware,Altium Limited,Altium Designer,19.0.12 (326)*
G04*
G04 Layer_Color=32896*
%FSLAX44Y44*%
%MOMM*%
G71*
G01*
G75*
%ADD17C,0.2032*%
%ADD18C,0.0127*%
%ADD19C,0.0130*%
%ADD48C,0.5080*%
%ADD55C,0.3048*%
D17*
X410256Y827694D02*
X412626D01*
X411441D01*
Y821769D01*
X412626Y820584D01*
X413811D01*
X414996Y821769D01*
X403147Y820584D02*
X407886D01*
X403147Y825324D01*
Y826509D01*
X404332Y827694D01*
X406701D01*
X407886Y826509D01*
X473248Y-583022D02*
X475618D01*
X474433D01*
Y-588947D01*
X475618Y-590132D01*
X476803D01*
X477988Y-588947D01*
X470878Y-590132D02*
X468508D01*
X469693D01*
Y-583022D01*
X470878Y-584207D01*
X625872Y369094D02*
Y373834D01*
X623502Y376204D01*
X621132Y373834D01*
Y369094D01*
Y372649D01*
X625872D01*
X618762Y369094D02*
Y376204D01*
X614022Y369094D01*
Y376204D01*
X611653D02*
X606913D01*
X609283D01*
Y369094D01*
X604543D02*
X602173D01*
X603358D01*
Y376204D01*
X604543Y375019D01*
D18*
X510723Y-19142D02*
X566304Y-476337D01*
X0Y0D02*
X403392D01*
X403397Y0D02*
X461304Y-476337D01*
X735904Y-19138D02*
Y489996D01*
X4Y0D02*
Y489996D01*
X461304Y-640804D02*
X566304D01*
Y-476337D01*
X461304Y-640804D02*
Y-476337D01*
X399804Y864296D02*
X399804Y489996D01*
X504804Y864296D02*
X504804Y489996D01*
X4Y489996D02*
X399804Y489996D01*
X504804Y489996D02*
X735904Y489996D01*
X399804Y864296D02*
X504804D01*
D19*
X510723Y-19138D02*
X735904Y-19138D01*
D48*
X345223Y246980D02*
G03*
X346900Y175009I27689J-35360D01*
G01*
X336636Y259095D02*
G03*
X339884Y161831I36276J-47475D01*
G01*
X330035Y271781D02*
G03*
X333136Y149365I42877J-60161D01*
G01*
X322927Y283912D02*
G03*
X326576Y136937I49985J-72292D01*
G01*
X419248D02*
G03*
X422897Y283912I-46336J74683D01*
G01*
X412688Y149365D02*
G03*
X415789Y271781I-39776J62255D01*
G01*
X405940Y161831D02*
G03*
X409188Y259095I-33028J49789D01*
G01*
X398924Y175009D02*
G03*
X400601Y246980I-26012J36611D01*
G01*
X352299Y236351D02*
G03*
X353643Y185828I20612J-24731D01*
G01*
X392181D02*
G03*
X393525Y236351I-19269J25792D01*
G01*
X360721Y226605D02*
G03*
X360640Y196701I12191J-14985D01*
G01*
X385184D02*
G03*
X385103Y226605I-12272J14919D01*
G01*
X375659Y211620D02*
G03*
X375659Y211620I-2747J0D01*
G01*
D55*
X405852Y833284D02*
G03*
X405852Y833284I-1016J0D01*
G01*
X467195Y-595256D02*
G03*
X467195Y-595256I-1016J0D01*
G01*
M02*
