M48
;Layer_Color=9474304
;FILE_FORMAT=4:4
METRIC,TZ
;TYPE=PLATED
T1F00S00C0.2032
T2F00S00C0.3810
%
T01
X466950Y-510928
X476304Y-514992
X481304Y-510928
X486254Y-514992
X491304Y-510928
X496304Y-514992
X501304Y-510928
X506304Y-514992
X511304Y-510928
X516304Y-514992
X521304Y-510928
X526304Y-514992
X531212Y-510928
X536292Y-515004
X541304Y-510928
X546304Y-514992
X552852Y-510928
X560980Y-514992
X453574Y313527
X414804Y317549
X374920Y320326
X334603Y317666
X297255Y313527
X254976Y380912
X283272Y389123
X289558Y387599
X294362Y383706
X291862Y412357
X302862
Y423357
X291862
X280862
Y412357
Y434357
X291862
X302862
X318702Y456631
X337018Y474157
X342454Y434843
X331317Y420162
X332125Y403837
X334312Y386057
X357694Y400045
X368824Y458235
X379182Y467223
X387992Y466420
X405929Y482766
X405659Y442634
X395159Y435933
X283661Y474356
X251566Y451679
X248670Y443539
X222651
Y451377
X215244Y452117
X222356Y459584
X221611Y475888
X193353Y454936
X198784Y414837
X198436Y402899
X166940Y400299
X167702Y417063
X232980Y414213
X405450Y756254
X414804Y760318
X419804Y756254
X424754Y760318
X429804Y756254
X434804Y760318
X439804Y756254
X444804Y760318
X449804Y756254
X454804Y760318
X459804Y756254
X464804Y760318
X469712Y756254
X474792Y760330
X479804Y756254
X484804Y760318
X491304Y760134
Y752260
X499480Y760318
X491304Y768516
X685760Y478194
X707096Y477432
X703814Y446190
X697506Y448730
X695158Y440969
X689316Y443650
X681367Y440931
T02
X358836Y68402
X391856Y98402
M30
