G04*
G04 #@! TF.GenerationSoftware,Altium Limited,Altium Designer,19.0.12 (326)*
G04*
G04 Layer_Color=32896*
%FSLAX44Y44*%
%MOMM*%
G71*
G01*
G75*
%ADD15C,0.1778*%
%ADD16C,0.1270*%
%ADD140C,0.0999*%
D15*
X295107Y196737D02*
X296377Y198006D01*
X298916D01*
X300186Y196737D01*
Y191659D01*
X298916Y190389D01*
X296377D01*
X295107Y191659D01*
Y194198D01*
X297647D01*
X292568Y190389D02*
Y198006D01*
X287490Y190389D01*
Y198006D01*
X284951D02*
Y190389D01*
X281142D01*
X279872Y191659D01*
Y196737D01*
X281142Y198006D01*
X284951D01*
X246588Y95894D02*
X247857Y97164D01*
X250397D01*
X251666Y95894D01*
Y90816D01*
X250397Y89546D01*
X247857D01*
X246588Y90816D01*
Y93355D01*
X249127D01*
X244049Y89546D02*
Y97164D01*
X238970Y89546D01*
Y97164D01*
X236431D02*
Y89546D01*
X232622D01*
X231353Y90816D01*
Y95894D01*
X232622Y97164D01*
X236431D01*
X594870Y-5590D02*
X596139Y-4320D01*
X598678D01*
X599948Y-5590D01*
Y-10668D01*
X598678Y-11938D01*
X596139D01*
X594870Y-10668D01*
Y-8129D01*
X597409D01*
X592331Y-11938D02*
Y-4320D01*
X587252Y-11938D01*
Y-4320D01*
X584713D02*
Y-11938D01*
X580904D01*
X579635Y-10668D01*
Y-5590D01*
X580904Y-4320D01*
X584713D01*
X702767Y-728D02*
X704036Y542D01*
X706575D01*
X707845Y-728D01*
Y-5806D01*
X706575Y-7075D01*
X704036D01*
X702767Y-5806D01*
Y-3267D01*
X705306D01*
X700227Y-7075D02*
Y542D01*
X695149Y-7075D01*
Y542D01*
X692610D02*
Y-7075D01*
X688801D01*
X687532Y-5806D01*
Y-728D01*
X688801Y542D01*
X692610D01*
X556008Y333107D02*
X557277Y334376D01*
X559816D01*
X561086Y333107D01*
Y328028D01*
X559816Y326759D01*
X557277D01*
X556008Y328028D01*
Y330568D01*
X558547D01*
X553469Y326759D02*
Y334376D01*
X548390Y326759D01*
Y334376D01*
X545851D02*
Y326759D01*
X542042D01*
X540773Y328028D01*
Y333107D01*
X542042Y334376D01*
X545851D01*
X214378Y353312D02*
X215647Y354581D01*
X218186D01*
X219456Y353312D01*
Y348234D01*
X218186Y346964D01*
X215647D01*
X214378Y348234D01*
Y350773D01*
X216917D01*
X211838Y346964D02*
Y354581D01*
X206760Y346964D01*
Y354581D01*
X204221D02*
Y346964D01*
X200412D01*
X199143Y348234D01*
Y353312D01*
X200412Y354581D01*
X204221D01*
X115265Y57656D02*
X116534Y58925D01*
X119073D01*
X120343Y57656D01*
Y52578D01*
X119073Y51308D01*
X116534D01*
X115265Y52578D01*
Y55117D01*
X117804D01*
X112725Y51308D02*
Y58925D01*
X107647Y51308D01*
Y58925D01*
X105108D02*
Y51308D01*
X101299D01*
X100029Y52578D01*
Y57656D01*
X101299Y58925D01*
X105108D01*
X597408Y130045D02*
X592330D01*
X594869D01*
Y122428D01*
X589790D02*
Y130045D01*
X585982D01*
X584712Y128776D01*
Y126237D01*
X585982Y124967D01*
X589790D01*
X577095Y130045D02*
X579634Y128776D01*
X582173Y126237D01*
Y123698D01*
X580903Y122428D01*
X578364D01*
X577095Y123698D01*
Y124967D01*
X578364Y126237D01*
X582173D01*
X574555Y122428D02*
X572016D01*
X573286D01*
Y130045D01*
X574555Y128776D01*
X599694Y146810D02*
X594616D01*
X597155D01*
Y139192D01*
X592076D02*
Y146810D01*
X588268D01*
X586998Y145540D01*
Y143001D01*
X588268Y141731D01*
X592076D01*
X579381Y146810D02*
X581920Y145540D01*
X584459Y143001D01*
Y140462D01*
X583189Y139192D01*
X580650D01*
X579381Y140462D01*
Y141731D01*
X580650Y143001D01*
X584459D01*
X576841Y145540D02*
X575572Y146810D01*
X573033D01*
X571763Y145540D01*
Y140462D01*
X573033Y139192D01*
X575572D01*
X576841Y140462D01*
Y145540D01*
X442468Y157097D02*
X437390D01*
X439929D01*
Y149479D01*
X434851D02*
Y157097D01*
X431042D01*
X429772Y155827D01*
Y153288D01*
X431042Y152018D01*
X434851D01*
X422155Y157097D02*
X427233D01*
Y153288D01*
X424694Y154557D01*
X423424D01*
X422155Y153288D01*
Y150749D01*
X423424Y149479D01*
X425963D01*
X427233Y150749D01*
X419615Y155827D02*
X418346Y157097D01*
X415807D01*
X414537Y155827D01*
Y154557D01*
X415807Y153288D01*
X414537Y152018D01*
Y150749D01*
X415807Y149479D01*
X418346D01*
X419615Y150749D01*
Y152018D01*
X418346Y153288D01*
X419615Y154557D01*
Y155827D01*
X418346Y153288D02*
X415807D01*
X444246Y116023D02*
X439168D01*
X441707D01*
Y108405D01*
X436628D02*
Y116023D01*
X432820D01*
X431550Y114753D01*
Y112214D01*
X432820Y110944D01*
X436628D01*
X429011Y108405D02*
X426472D01*
X427741D01*
Y116023D01*
X429011Y114753D01*
X422663Y109675D02*
X421393Y108405D01*
X418854D01*
X417585Y109675D01*
Y114753D01*
X418854Y116023D01*
X421393D01*
X422663Y114753D01*
Y113483D01*
X421393Y112214D01*
X417585D01*
X740156Y87627D02*
X735078D01*
X737617D01*
Y80010D01*
X732539D02*
Y87627D01*
X728730D01*
X727460Y86358D01*
Y83819D01*
X728730Y82549D01*
X732539D01*
X721112Y80010D02*
Y87627D01*
X724921Y83819D01*
X719843D01*
X712225Y87627D02*
X714764Y86358D01*
X717303Y83819D01*
Y81280D01*
X716034Y80010D01*
X713495D01*
X712225Y81280D01*
Y82549D01*
X713495Y83819D01*
X717303D01*
X721360Y126997D02*
X716282D01*
X718821D01*
Y119380D01*
X713743D02*
Y126997D01*
X709934D01*
X708664Y125728D01*
Y123189D01*
X709934Y121919D01*
X713743D01*
X702316Y119380D02*
Y126997D01*
X706125Y123189D01*
X701047D01*
X698507Y126997D02*
X693429D01*
Y125728D01*
X698507Y120650D01*
Y119380D01*
X625094Y6601D02*
X620016D01*
X622555D01*
Y-1016D01*
X617477D02*
Y6601D01*
X613668D01*
X612398Y5332D01*
Y2793D01*
X613668Y1523D01*
X617477D01*
X606050Y-1016D02*
Y6601D01*
X609859Y2793D01*
X604781D01*
X597163Y6601D02*
X602241D01*
Y2793D01*
X599702Y4062D01*
X598433D01*
X597163Y2793D01*
Y254D01*
X598433Y-1016D01*
X600972D01*
X602241Y254D01*
X655922Y127506D02*
X650844D01*
X653383D01*
Y119888D01*
X648305D02*
Y127506D01*
X644496D01*
X643226Y126236D01*
Y123697D01*
X644496Y122427D01*
X648305D01*
X636878Y119888D02*
Y127506D01*
X640687Y123697D01*
X635609D01*
X629261Y119888D02*
Y127506D01*
X633069Y123697D01*
X627991D01*
X645922Y88644D02*
X640844D01*
X643383D01*
Y81026D01*
X638304D02*
Y88644D01*
X634496D01*
X633226Y87374D01*
Y84835D01*
X634496Y83565D01*
X638304D01*
X626878Y81026D02*
Y88644D01*
X630687Y84835D01*
X625609D01*
X623069Y87374D02*
X621800Y88644D01*
X619261D01*
X617991Y87374D01*
Y86104D01*
X619261Y84835D01*
X620530D01*
X619261D01*
X617991Y83565D01*
Y82296D01*
X619261Y81026D01*
X621800D01*
X623069Y82296D01*
X274066Y107948D02*
X268988D01*
X271527D01*
Y100330D01*
X266448D02*
Y107948D01*
X262640D01*
X261370Y106678D01*
Y104139D01*
X262640Y102869D01*
X266448D01*
X255022Y100330D02*
Y107948D01*
X258831Y104139D01*
X253753D01*
X246135Y100330D02*
X251213D01*
X246135Y105408D01*
Y106678D01*
X247405Y107948D01*
X249944D01*
X251213Y106678D01*
X691642Y-11178D02*
X686564D01*
X689103D01*
Y-18796D01*
X684025D02*
Y-11178D01*
X680216D01*
X678946Y-12448D01*
Y-14987D01*
X680216Y-16257D01*
X684025D01*
X672598Y-18796D02*
Y-11178D01*
X676407Y-14987D01*
X671329D01*
X668789Y-18796D02*
X666250D01*
X667520D01*
Y-11178D01*
X668789Y-12448D01*
X264922Y198626D02*
X259844D01*
X262383D01*
Y191008D01*
X257304D02*
Y198626D01*
X253496D01*
X252226Y197356D01*
Y194817D01*
X253496Y193547D01*
X257304D01*
X245878Y191008D02*
Y198626D01*
X249687Y194817D01*
X244609D01*
X242069Y197356D02*
X240800Y198626D01*
X238261D01*
X236991Y197356D01*
Y192278D01*
X238261Y191008D01*
X240800D01*
X242069Y192278D01*
Y197356D01*
X545846Y323340D02*
X540768D01*
X543307D01*
Y315722D01*
X538228D02*
Y323340D01*
X534420D01*
X533150Y322070D01*
Y319531D01*
X534420Y318261D01*
X538228D01*
X530611Y322070D02*
X529341Y323340D01*
X526802D01*
X525533Y322070D01*
Y320800D01*
X526802Y319531D01*
X528072D01*
X526802D01*
X525533Y318261D01*
Y316992D01*
X526802Y315722D01*
X529341D01*
X530611Y316992D01*
X522993D02*
X521724Y315722D01*
X519185D01*
X517915Y316992D01*
Y322070D01*
X519185Y323340D01*
X521724D01*
X522993Y322070D01*
Y320800D01*
X521724Y319531D01*
X517915D01*
X141732Y47495D02*
X136654D01*
X139193D01*
Y39878D01*
X134115D02*
Y47495D01*
X130306D01*
X129036Y46226D01*
Y43687D01*
X130306Y42417D01*
X134115D01*
X126497Y46226D02*
X125227Y47495D01*
X122688D01*
X121419Y46226D01*
Y44956D01*
X122688Y43687D01*
X123958D01*
X122688D01*
X121419Y42417D01*
Y41148D01*
X122688Y39878D01*
X125227D01*
X126497Y41148D01*
X118879Y46226D02*
X117610Y47495D01*
X115071D01*
X113801Y46226D01*
Y44956D01*
X115071Y43687D01*
X113801Y42417D01*
Y41148D01*
X115071Y39878D01*
X117610D01*
X118879Y41148D01*
Y42417D01*
X117610Y43687D01*
X118879Y44956D01*
Y46226D01*
X117610Y43687D02*
X115071D01*
X203454Y343405D02*
X198376D01*
X200915D01*
Y335788D01*
X195837D02*
Y343405D01*
X192028D01*
X190758Y342136D01*
Y339597D01*
X192028Y338327D01*
X195837D01*
X183141Y343405D02*
X188219D01*
Y339597D01*
X185680Y340866D01*
X184410D01*
X183141Y339597D01*
Y337058D01*
X184410Y335788D01*
X186949D01*
X188219Y337058D01*
X180601Y343405D02*
X175523D01*
Y342136D01*
X180601Y337058D01*
Y335788D01*
X427736Y175765D02*
X422658D01*
X425197D01*
Y168148D01*
X420118D02*
Y175765D01*
X416310D01*
X415040Y174496D01*
Y171957D01*
X416310Y170687D01*
X420118D01*
X407423Y175765D02*
X412501D01*
Y171957D01*
X409962Y173226D01*
X408692D01*
X407423Y171957D01*
Y169418D01*
X408692Y168148D01*
X411231D01*
X412501Y169418D01*
X399805Y175765D02*
X402344Y174496D01*
X404883Y171957D01*
Y169418D01*
X403614Y168148D01*
X401075D01*
X399805Y169418D01*
Y170687D01*
X401075Y171957D01*
X404883D01*
X388363Y178308D02*
Y183386D01*
Y180847D01*
X380746D01*
Y185926D02*
X388363D01*
Y189734D01*
X387094Y191004D01*
X384555D01*
X383285Y189734D01*
Y185926D01*
X388363Y198621D02*
Y193543D01*
X384555D01*
X385824Y196082D01*
Y197352D01*
X384555Y198621D01*
X382016D01*
X380746Y197352D01*
Y194813D01*
X382016Y193543D01*
X388363Y206239D02*
Y201161D01*
X384555D01*
X385824Y203700D01*
Y204969D01*
X384555Y206239D01*
X382016D01*
X380746Y204969D01*
Y202430D01*
X382016Y201161D01*
X363486Y164081D02*
X358408D01*
X360947D01*
Y156464D01*
X355869D02*
Y164081D01*
X352060D01*
X350791Y162812D01*
Y160273D01*
X352060Y159003D01*
X355869D01*
X343173Y164081D02*
X348251D01*
Y160273D01*
X345712Y161542D01*
X344443D01*
X343173Y160273D01*
Y157734D01*
X344443Y156464D01*
X346982D01*
X348251Y157734D01*
X336825Y156464D02*
Y164081D01*
X340634Y160273D01*
X335555D01*
X368300Y185471D02*
X363222D01*
X365761D01*
Y177854D01*
X360682D02*
Y185471D01*
X356874D01*
X355604Y184202D01*
Y181663D01*
X356874Y180393D01*
X360682D01*
X347987Y185471D02*
X353065D01*
Y181663D01*
X350526Y182932D01*
X349256D01*
X347987Y181663D01*
Y179123D01*
X349256Y177854D01*
X351795D01*
X353065Y179123D01*
X345447Y184202D02*
X344178Y185471D01*
X341639D01*
X340369Y184202D01*
Y182932D01*
X341639Y181663D01*
X342908D01*
X341639D01*
X340369Y180393D01*
Y179123D01*
X341639Y177854D01*
X344178D01*
X345447Y179123D01*
X413002Y116078D02*
Y121156D01*
Y118617D01*
X405384D01*
Y123695D02*
X413002D01*
Y127504D01*
X411732Y128774D01*
X409193D01*
X407923Y127504D01*
Y123695D01*
X413002Y136391D02*
Y131313D01*
X409193D01*
X410462Y133852D01*
Y135122D01*
X409193Y136391D01*
X406654D01*
X405384Y135122D01*
Y132583D01*
X406654Y131313D01*
X405384Y138931D02*
Y141470D01*
Y140200D01*
X413002D01*
X411732Y138931D01*
X396237Y115372D02*
Y120450D01*
Y117911D01*
X388620D01*
Y122990D02*
X396237D01*
Y126798D01*
X394968Y128068D01*
X392429D01*
X391159Y126798D01*
Y122990D01*
X396237Y135685D02*
Y130607D01*
X392429D01*
X393698Y133146D01*
Y134416D01*
X392429Y135685D01*
X389890D01*
X388620Y134416D01*
Y131877D01*
X389890Y130607D01*
X394968Y138225D02*
X396237Y139494D01*
Y142033D01*
X394968Y143303D01*
X389890D01*
X388620Y142033D01*
Y139494D01*
X389890Y138225D01*
X394968D01*
X350266Y134109D02*
X345188D01*
X347727D01*
Y126492D01*
X342649D02*
Y134109D01*
X338840D01*
X337570Y132840D01*
Y130301D01*
X338840Y129031D01*
X342649D01*
X331222Y126492D02*
Y134109D01*
X335031Y130301D01*
X329953D01*
X327413Y127762D02*
X326144Y126492D01*
X323605D01*
X322335Y127762D01*
Y132840D01*
X323605Y134109D01*
X326144D01*
X327413Y132840D01*
Y131570D01*
X326144Y130301D01*
X322335D01*
X351536Y152397D02*
X346458D01*
X348997D01*
Y144780D01*
X343918D02*
Y152397D01*
X340110D01*
X338840Y151128D01*
Y148589D01*
X340110Y147319D01*
X343918D01*
X332492Y144780D02*
Y152397D01*
X336301Y148589D01*
X331223D01*
X328683Y151128D02*
X327414Y152397D01*
X324875D01*
X323605Y151128D01*
Y149858D01*
X324875Y148589D01*
X323605Y147319D01*
Y146050D01*
X324875Y144780D01*
X327414D01*
X328683Y146050D01*
Y147319D01*
X327414Y148589D01*
X328683Y149858D01*
Y151128D01*
X327414Y148589D02*
X324875D01*
X203200Y326022D02*
X198968D01*
X201084D01*
Y319674D01*
X196852D02*
Y326022D01*
X193678D01*
X192620Y324964D01*
Y322848D01*
X193678Y321790D01*
X196852D01*
X190504Y324964D02*
X189446Y326022D01*
X187330D01*
X186272Y324964D01*
Y323906D01*
X187330Y322848D01*
X188388D01*
X187330D01*
X186272Y321790D01*
Y320732D01*
X187330Y319674D01*
X189446D01*
X190504Y320732D01*
X184156Y326022D02*
X179924D01*
Y324964D01*
X184156Y320732D01*
Y319674D01*
X40595Y8580D02*
X35517D01*
X38056D01*
Y963D01*
X32978D02*
Y8580D01*
X29169D01*
X27899Y7311D01*
Y4772D01*
X29169Y3502D01*
X32978D01*
X25360Y7311D02*
X24090Y8580D01*
X21551D01*
X20282Y7311D01*
Y6041D01*
X21551Y4772D01*
X22821D01*
X21551D01*
X20282Y3502D01*
Y2233D01*
X21551Y963D01*
X24090D01*
X25360Y2233D01*
X12664Y8580D02*
X15203Y7311D01*
X17743Y4772D01*
Y2233D01*
X16473Y963D01*
X13934D01*
X12664Y2233D01*
Y3502D01*
X13934Y4772D01*
X17743D01*
X252222Y353716D02*
X247144D01*
X249683D01*
Y346098D01*
X244604D02*
Y353716D01*
X240796D01*
X239526Y352446D01*
Y349907D01*
X240796Y348637D01*
X244604D01*
X236987Y352446D02*
X235717Y353716D01*
X233178D01*
X231909Y352446D01*
Y351176D01*
X233178Y349907D01*
X234448D01*
X233178D01*
X231909Y348637D01*
Y347368D01*
X233178Y346098D01*
X235717D01*
X236987Y347368D01*
X224291Y353716D02*
X229369D01*
Y349907D01*
X226830Y351176D01*
X225561D01*
X224291Y349907D01*
Y347368D01*
X225561Y346098D01*
X228100D01*
X229369Y347368D01*
X305776Y340866D02*
X300697D01*
X303237D01*
Y333248D01*
X298158D02*
Y340866D01*
X294350D01*
X293080Y339596D01*
Y337057D01*
X294350Y335787D01*
X298158D01*
X290541Y339596D02*
X289271Y340866D01*
X286732D01*
X285462Y339596D01*
Y338326D01*
X286732Y337057D01*
X288002D01*
X286732D01*
X285462Y335787D01*
Y334518D01*
X286732Y333248D01*
X289271D01*
X290541Y334518D01*
X279114Y333248D02*
Y340866D01*
X282923Y337057D01*
X277845D01*
X300990Y309370D02*
X296758D01*
X298874D01*
Y303022D01*
X294642D02*
Y309370D01*
X291468D01*
X290410Y308312D01*
Y306196D01*
X291468Y305138D01*
X294642D01*
X288294Y308312D02*
X287236Y309370D01*
X285120D01*
X284062Y308312D01*
Y307254D01*
X285120Y306196D01*
X286178D01*
X285120D01*
X284062Y305138D01*
Y304080D01*
X285120Y303022D01*
X287236D01*
X288294Y304080D01*
X281946Y308312D02*
X280888Y309370D01*
X278772D01*
X277714Y308312D01*
Y307254D01*
X278772Y306196D01*
X279830D01*
X278772D01*
X277714Y305138D01*
Y304080D01*
X278772Y303022D01*
X280888D01*
X281946Y304080D01*
X300990Y323594D02*
X296758D01*
X298874D01*
Y317246D01*
X294642D02*
Y323594D01*
X291468D01*
X290410Y322536D01*
Y320420D01*
X291468Y319362D01*
X294642D01*
X288294Y322536D02*
X287236Y323594D01*
X285120D01*
X284062Y322536D01*
Y321478D01*
X285120Y320420D01*
X286178D01*
X285120D01*
X284062Y319362D01*
Y318304D01*
X285120Y317246D01*
X287236D01*
X288294Y318304D01*
X277714Y317246D02*
X281946D01*
X277714Y321478D01*
Y322536D01*
X278772Y323594D01*
X280888D01*
X281946Y322536D01*
X492290Y124624D02*
X488058D01*
X490174D01*
Y118276D01*
X485942D02*
Y124624D01*
X482768D01*
X481710Y123566D01*
Y121450D01*
X482768Y120392D01*
X485942D01*
X479594Y123566D02*
X478536Y124624D01*
X476420D01*
X475362Y123566D01*
Y122508D01*
X476420Y121450D01*
X477478D01*
X476420D01*
X475362Y120392D01*
Y119334D01*
X476420Y118276D01*
X478536D01*
X479594Y119334D01*
X473246Y118276D02*
X471130D01*
X472188D01*
Y124624D01*
X473246Y123566D01*
X251968Y315466D02*
X246890D01*
X249429D01*
Y307848D01*
X244350D02*
Y315466D01*
X240542D01*
X239272Y314196D01*
Y311657D01*
X240542Y310387D01*
X244350D01*
X236733Y314196D02*
X235463Y315466D01*
X232924D01*
X231655Y314196D01*
Y312926D01*
X232924Y311657D01*
X234194D01*
X232924D01*
X231655Y310387D01*
Y309118D01*
X232924Y307848D01*
X235463D01*
X236733Y309118D01*
X229115Y314196D02*
X227846Y315466D01*
X225307D01*
X224037Y314196D01*
Y309118D01*
X225307Y307848D01*
X227846D01*
X229115Y309118D01*
Y314196D01*
X531018Y222429D02*
X525940D01*
X528479D01*
Y214812D01*
X523400D02*
Y222429D01*
X519592D01*
X518322Y221160D01*
Y218621D01*
X519592Y217351D01*
X523400D01*
X510705Y214812D02*
X515783D01*
X510705Y219890D01*
Y221160D01*
X511974Y222429D01*
X514513D01*
X515783Y221160D01*
X508165Y216082D02*
X506896Y214812D01*
X504357D01*
X503087Y216082D01*
Y221160D01*
X504357Y222429D01*
X506896D01*
X508165Y221160D01*
Y219890D01*
X506896Y218621D01*
X503087D01*
X303274Y135890D02*
Y140968D01*
Y138429D01*
X295656D01*
Y143507D02*
X303274D01*
Y147316D01*
X302004Y148586D01*
X299465D01*
X298195Y147316D01*
Y143507D01*
X295656Y156203D02*
Y151125D01*
X300734Y156203D01*
X302004D01*
X303274Y154934D01*
Y152395D01*
X302004Y151125D01*
Y158743D02*
X303274Y160012D01*
Y162551D01*
X302004Y163821D01*
X300734D01*
X299465Y162551D01*
X298195Y163821D01*
X296926D01*
X295656Y162551D01*
Y160012D01*
X296926Y158743D01*
X298195D01*
X299465Y160012D01*
X300734Y158743D01*
X302004D01*
X299465Y160012D02*
Y162551D01*
X319783Y135890D02*
Y140968D01*
Y138429D01*
X312166D01*
Y143507D02*
X319783D01*
Y147316D01*
X318514Y148586D01*
X315975D01*
X314705Y147316D01*
Y143507D01*
X312166Y156203D02*
Y151125D01*
X317244Y156203D01*
X318514D01*
X319783Y154934D01*
Y152395D01*
X318514Y151125D01*
X319783Y158743D02*
Y163821D01*
X318514D01*
X313436Y158743D01*
X312166D01*
X581914Y358686D02*
X576836D01*
X579375D01*
Y351069D01*
X574296D02*
Y358686D01*
X570488D01*
X569218Y357417D01*
Y354878D01*
X570488Y353608D01*
X574296D01*
X561601Y351069D02*
X566679D01*
X561601Y356147D01*
Y357417D01*
X562870Y358686D01*
X565409D01*
X566679Y357417D01*
X553983Y358686D02*
X556522Y357417D01*
X559061Y354878D01*
Y352338D01*
X557792Y351069D01*
X555253D01*
X553983Y352338D01*
Y353608D01*
X555253Y354878D01*
X559061D01*
X540512Y364995D02*
X535434D01*
X537973D01*
Y357378D01*
X532895D02*
Y364995D01*
X529086D01*
X527816Y363726D01*
Y361187D01*
X529086Y359917D01*
X532895D01*
X520199Y357378D02*
X525277D01*
X520199Y362456D01*
Y363726D01*
X521468Y364995D01*
X524007D01*
X525277Y363726D01*
X512581Y364995D02*
X517659D01*
Y361187D01*
X515120Y362456D01*
X513851D01*
X512581Y361187D01*
Y358648D01*
X513851Y357378D01*
X516390D01*
X517659Y358648D01*
X498348Y333754D02*
X493270D01*
X495809D01*
Y326136D01*
X490731D02*
Y333754D01*
X486922D01*
X485652Y332484D01*
Y329945D01*
X486922Y328675D01*
X490731D01*
X478035Y326136D02*
X483113D01*
X478035Y331214D01*
Y332484D01*
X479304Y333754D01*
X481843D01*
X483113Y332484D01*
X471687Y326136D02*
Y333754D01*
X475495Y329945D01*
X470417D01*
X508762Y354581D02*
X503684D01*
X506223D01*
Y346964D01*
X501144D02*
Y354581D01*
X497336D01*
X496066Y353312D01*
Y350773D01*
X497336Y349503D01*
X501144D01*
X488449Y346964D02*
X493527D01*
X488449Y352042D01*
Y353312D01*
X489718Y354581D01*
X492257D01*
X493527Y353312D01*
X485909D02*
X484640Y354581D01*
X482101D01*
X480831Y353312D01*
Y352042D01*
X482101Y350773D01*
X483370D01*
X482101D01*
X480831Y349503D01*
Y348234D01*
X482101Y346964D01*
X484640D01*
X485909Y348234D01*
X491280Y141794D02*
X487048D01*
X489164D01*
Y135446D01*
X484932D02*
Y141794D01*
X481758D01*
X480700Y140736D01*
Y138620D01*
X481758Y137562D01*
X484932D01*
X474352Y135446D02*
X478584D01*
X474352Y139678D01*
Y140736D01*
X475410Y141794D01*
X477526D01*
X478584Y140736D01*
X472236Y135446D02*
X470120D01*
X471178D01*
Y141794D01*
X472236Y140736D01*
X703326Y172209D02*
X698248D01*
X700787D01*
Y164592D01*
X695708D02*
Y172209D01*
X691900D01*
X690630Y170940D01*
Y168401D01*
X691900Y167131D01*
X695708D01*
X683013Y164592D02*
X688091D01*
X683013Y169670D01*
Y170940D01*
X684282Y172209D01*
X686821D01*
X688091Y170940D01*
X675395Y164592D02*
X680473D01*
X675395Y169670D01*
Y170940D01*
X676665Y172209D01*
X679204D01*
X680473Y170940D01*
X303530Y217930D02*
X299298D01*
X301414D01*
Y211582D01*
X297182D02*
Y217930D01*
X294008D01*
X292950Y216872D01*
Y214756D01*
X294008Y213698D01*
X297182D01*
X286602Y211582D02*
X290834D01*
X286602Y215814D01*
Y216872D01*
X287660Y217930D01*
X289776D01*
X290834Y216872D01*
X284486D02*
X283428Y217930D01*
X281312D01*
X280254Y216872D01*
Y212640D01*
X281312Y211582D01*
X283428D01*
X284486Y212640D01*
Y216872D01*
X300990Y247140D02*
X296758D01*
X298874D01*
Y240792D01*
X294642D02*
Y247140D01*
X291468D01*
X290410Y246082D01*
Y243966D01*
X291468Y242908D01*
X294642D01*
X288294Y240792D02*
X286178D01*
X287236D01*
Y247140D01*
X288294Y246082D01*
X283004D02*
X281946Y247140D01*
X279830D01*
X278772Y246082D01*
Y245024D01*
X279830Y243966D01*
X278772Y242908D01*
Y241850D01*
X279830Y240792D01*
X281946D01*
X283004Y241850D01*
Y242908D01*
X281946Y243966D01*
X283004Y245024D01*
Y246082D01*
X281946Y243966D02*
X279830D01*
X302260Y262214D02*
X298028D01*
X300144D01*
Y255866D01*
X295912D02*
Y262214D01*
X292738D01*
X291680Y261156D01*
Y259040D01*
X292738Y257982D01*
X295912D01*
X289564Y255866D02*
X287448D01*
X288506D01*
Y262214D01*
X289564Y261156D01*
X284274Y262214D02*
X280042D01*
Y261156D01*
X284274Y256924D01*
Y255866D01*
X302006Y278480D02*
X297774D01*
X299890D01*
Y272132D01*
X295658D02*
Y278480D01*
X292484D01*
X291426Y277422D01*
Y275306D01*
X292484Y274248D01*
X295658D01*
X289310Y272132D02*
X287194D01*
X288252D01*
Y278480D01*
X289310Y277422D01*
X279788Y278480D02*
X281904Y277422D01*
X284020Y275306D01*
Y273190D01*
X282962Y272132D01*
X280846D01*
X279788Y273190D01*
Y274248D01*
X280846Y275306D01*
X284020D01*
X300990Y293876D02*
X296758D01*
X298874D01*
Y287528D01*
X294642D02*
Y293876D01*
X291468D01*
X290410Y292818D01*
Y290702D01*
X291468Y289644D01*
X294642D01*
X288294Y287528D02*
X286178D01*
X287236D01*
Y293876D01*
X288294Y292818D01*
X278772Y293876D02*
X283004D01*
Y290702D01*
X280888Y291760D01*
X279830D01*
X278772Y290702D01*
Y288586D01*
X279830Y287528D01*
X281946D01*
X283004Y288586D01*
X301752Y233424D02*
X297520D01*
X299636D01*
Y227076D01*
X295404D02*
Y233424D01*
X292230D01*
X291172Y232366D01*
Y230250D01*
X292230Y229192D01*
X295404D01*
X289056Y227076D02*
X286940D01*
X287998D01*
Y233424D01*
X289056Y232366D01*
X279534Y227076D02*
X283766D01*
X279534Y231308D01*
Y232366D01*
X280592Y233424D01*
X282708D01*
X283766Y232366D01*
X629158Y22604D02*
X624080D01*
X626619D01*
Y14986D01*
X621540D02*
Y22604D01*
X617732D01*
X616462Y21334D01*
Y18795D01*
X617732Y17525D01*
X621540D01*
X613923Y14986D02*
X611384D01*
X612653D01*
Y22604D01*
X613923Y21334D01*
X607575Y14986D02*
X605036D01*
X606305D01*
Y22604D01*
X607575Y21334D01*
X569900Y20826D02*
X564822D01*
X567361D01*
Y13208D01*
X562282D02*
Y20826D01*
X558474D01*
X557204Y19556D01*
Y17017D01*
X558474Y15747D01*
X562282D01*
X554665Y13208D02*
X552126D01*
X553395D01*
Y20826D01*
X554665Y19556D01*
X548317D02*
X547047Y20826D01*
X544508D01*
X543238Y19556D01*
Y14478D01*
X544508Y13208D01*
X547047D01*
X548317Y14478D01*
Y19556D01*
X261871Y144272D02*
Y149350D01*
Y146811D01*
X254254D01*
Y151889D02*
X261871D01*
Y155698D01*
X260602Y156968D01*
X258063D01*
X256793Y155698D01*
Y151889D01*
X255524Y159507D02*
X254254Y160777D01*
Y163316D01*
X255524Y164585D01*
X260602D01*
X261871Y163316D01*
Y160777D01*
X260602Y159507D01*
X259332D01*
X258063Y160777D01*
Y164585D01*
X244599Y143764D02*
Y148842D01*
Y146303D01*
X236982D01*
Y151382D02*
X244599D01*
Y155190D01*
X243330Y156460D01*
X240791D01*
X239521Y155190D01*
Y151382D01*
X243330Y158999D02*
X244599Y160269D01*
Y162808D01*
X243330Y164077D01*
X242060D01*
X240791Y162808D01*
X239521Y164077D01*
X238252D01*
X236982Y162808D01*
Y160269D01*
X238252Y158999D01*
X239521D01*
X240791Y160269D01*
X242060Y158999D01*
X243330D01*
X240791Y160269D02*
Y162808D01*
X297708Y108455D02*
X292630D01*
X295169D01*
Y100838D01*
X290091D02*
Y108455D01*
X286282D01*
X285012Y107186D01*
Y104647D01*
X286282Y103377D01*
X290091D01*
X282473Y108455D02*
X277395D01*
Y107186D01*
X282473Y102108D01*
Y100838D01*
X139446Y86103D02*
X134368D01*
X136907D01*
Y78486D01*
X131828D02*
Y86103D01*
X128020D01*
X126750Y84834D01*
Y82295D01*
X128020Y81025D01*
X131828D01*
X119133Y86103D02*
X121672Y84834D01*
X124211Y82295D01*
Y79756D01*
X122941Y78486D01*
X120402D01*
X119133Y79756D01*
Y81025D01*
X120402Y82295D01*
X124211D01*
X463992Y175511D02*
X458914D01*
X461453D01*
Y167894D01*
X456374D02*
Y175511D01*
X452566D01*
X451296Y174242D01*
Y171703D01*
X452566Y170433D01*
X456374D01*
X444948Y167894D02*
Y175511D01*
X448757Y171703D01*
X443679D01*
X512064Y205737D02*
X506986D01*
X509525D01*
Y198120D01*
X504446D02*
Y205737D01*
X500638D01*
X499368Y204468D01*
Y201929D01*
X500638Y200659D01*
X504446D01*
X496829Y204468D02*
X495559Y205737D01*
X493020D01*
X491751Y204468D01*
Y203198D01*
X493020Y201929D01*
X494290D01*
X493020D01*
X491751Y200659D01*
Y199390D01*
X493020Y198120D01*
X495559D01*
X496829Y199390D01*
X497332Y164081D02*
X492254D01*
X494793D01*
Y156464D01*
X489715D02*
Y164081D01*
X485906D01*
X484636Y162812D01*
Y160273D01*
X485906Y159003D01*
X489715D01*
X477019Y156464D02*
X482097D01*
X477019Y161542D01*
Y162812D01*
X478288Y164081D01*
X480827D01*
X482097Y162812D01*
X526034Y175511D02*
X520956D01*
X523495D01*
Y167894D01*
X518416D02*
Y175511D01*
X514608D01*
X513338Y174242D01*
Y171703D01*
X514608Y170433D01*
X518416D01*
X510799Y167894D02*
X508260D01*
X509529D01*
Y175511D01*
X510799Y174242D01*
D16*
X-29238Y20553D02*
G03*
X5403Y-39447I34641J-20000D01*
G01*
X425762Y688636D02*
G03*
X356480Y688636I-34641J-20000D01*
G01*
X776839Y-39447D02*
G03*
X811480Y20553I0J40000D01*
G01*
X-29238D02*
X356480Y688636D01*
X425762D02*
X811480Y20553D01*
X434675Y-39447D02*
X776839D01*
X5403D02*
X434675D01*
D140*
X507250Y171704D02*
G03*
X507250Y171704I-5600J0D01*
G01*
X491756D02*
G03*
X491756Y171704I-5600J0D01*
G01*
X507250Y189484D02*
G03*
X507250Y189484I-5600J0D01*
G01*
X476262Y171704D02*
G03*
X476262Y171704I-5600J0D01*
G01*
X133362Y93726D02*
G03*
X133362Y93726I-5600J0D01*
G01*
X295668Y93726D02*
G03*
X295668Y93726I-5600J0D01*
G01*
X245630Y171704D02*
G03*
X245630Y171704I-5600J0D01*
G01*
X262902Y171958D02*
G03*
X262902Y171958I-5600J0D01*
G01*
X583196Y18288D02*
G03*
X583196Y18288I-5600J0D01*
G01*
X603516D02*
G03*
X603516Y18288I-5600J0D01*
G01*
X277380Y229362D02*
G03*
X277380Y229362I-5600J0D01*
G01*
X275856Y291084D02*
G03*
X275856Y291084I-5600J0D01*
G01*
Y275590D02*
G03*
X275856Y275590I-5600J0D01*
G01*
X276618Y258826D02*
G03*
X276618Y258826I-5600J0D01*
G01*
X276872Y243840D02*
G03*
X276872Y243840I-5600J0D01*
G01*
X277634Y213868D02*
G03*
X277634Y213868I-5600J0D01*
G01*
X695972Y156846D02*
G03*
X695972Y156846I-5600J0D01*
G01*
X504392Y138748D02*
G03*
X504392Y138748I-5600J0D01*
G01*
X521474Y350774D02*
G03*
X521474Y350774I-5600J0D01*
G01*
X510806Y329692D02*
G03*
X510806Y329692I-5600J0D01*
G01*
X538238Y350774D02*
G03*
X538238Y350774I-5600J0D01*
G01*
X552716Y351028D02*
G03*
X552716Y351028I-5600J0D01*
G01*
X321068Y171450D02*
G03*
X321068Y171450I-5600J0D01*
G01*
X305320Y171196D02*
G03*
X305320Y171196I-5600J0D01*
G01*
X543826Y218114D02*
G03*
X543826Y218114I-5600J0D01*
G01*
X239788Y322834D02*
G03*
X239788Y322834I-5600J0D01*
G01*
X504392Y121324D02*
G03*
X504392Y121324I-5600J0D01*
G01*
X275602Y320802D02*
G03*
X275602Y320802I-5600J0D01*
G01*
X275856Y305816D02*
G03*
X275856Y305816I-5600J0D01*
G01*
Y337820D02*
G03*
X275856Y337820I-5600J0D01*
G01*
X239788Y338836D02*
G03*
X239788Y338836I-5600J0D01*
G01*
X53360Y4973D02*
G03*
X53360Y4973I-5600J0D01*
G01*
X215912Y322976D02*
G03*
X215912Y322976I-5600J0D01*
G01*
X363232Y148045D02*
G03*
X363232Y148045I-5600J0D01*
G01*
X363740Y130302D02*
G03*
X363740Y130302I-5600J0D01*
G01*
X397014Y150170D02*
G03*
X397014Y150170I-5600J0D01*
G01*
X413778Y149606D02*
G03*
X413778Y149606I-5600J0D01*
G01*
X362470Y171704D02*
G03*
X362470Y171704I-5600J0D01*
G01*
X376070Y159766D02*
G03*
X376070Y159766I-5600J0D01*
G01*
X389394Y171704D02*
G03*
X389394Y171704I-5600J0D01*
G01*
X440702D02*
G03*
X440702Y171704I-5600J0D01*
G01*
X215912Y339598D02*
G03*
X215912Y339598I-5600J0D01*
G01*
X133362Y55372D02*
G03*
X133362Y55372I-5600J0D01*
G01*
X538238Y330200D02*
G03*
X538238Y330200I-5600J0D01*
G01*
X278142Y194310D02*
G03*
X278142Y194310I-5600J0D01*
G01*
X685050Y-3810D02*
G03*
X685050Y-3810I-5600J0D01*
G01*
X266712Y93726D02*
G03*
X266712Y93726I-5600J0D01*
G01*
X638822Y95657D02*
G03*
X638822Y95657I-5600J0D01*
G01*
X648982Y112268D02*
G03*
X648982Y112268I-5600J0D01*
G01*
X594880Y2286D02*
G03*
X594880Y2286I-5600J0D01*
G01*
X715022Y112268D02*
G03*
X715022Y112268I-5600J0D01*
G01*
X732548Y94996D02*
G03*
X732548Y94996I-5600J0D01*
G01*
X431552Y123444D02*
G03*
X431552Y123444I-5600J0D01*
G01*
Y141693D02*
G03*
X431552Y141693I-5600J0D01*
G01*
X570496Y143764D02*
G03*
X570496Y143764I-5600J0D01*
G01*
X570838Y127048D02*
G03*
X570838Y127048I-5600J0D01*
G01*
M02*
