G04*
G04 #@! TF.GenerationSoftware,Altium Limited,Altium Designer,18.1.4 (159)*
G04*
G04 Layer_Color=32896*
%FSLAX44Y44*%
%MOMM*%
G71*
G01*
G75*
%ADD10C,0.2500*%
%ADD13C,0.2540*%
%ADD15C,0.0500*%
%ADD16C,0.0500*%
%ADD17C,0.0510*%
%ADD18C,0.0508*%
%ADD80C,0.1270*%
%ADD81C,0.2000*%
%ADD82C,0.1981*%
%ADD83C,0.1778*%
D10*
X116438Y60956D02*
G03*
X116438Y60956I-1250J0D01*
G01*
X393821Y610305D02*
G03*
X393821Y610305I-1250J0D01*
G01*
D13*
X392649Y823615D02*
X393919Y824885D01*
X396458D01*
X397728Y823615D01*
Y818537D01*
X396458Y817268D01*
X393919D01*
X392649Y818537D01*
X390110Y817268D02*
Y824885D01*
X386301D01*
X385032Y823615D01*
Y821076D01*
X386301Y819807D01*
X390110D01*
X387571D02*
X385032Y817268D01*
X382492Y824885D02*
X377414Y817268D01*
Y824885D02*
X382492Y817268D01*
X369797D02*
X374875D01*
X369797Y822346D01*
Y823615D01*
X371066Y824885D01*
X373605D01*
X374875Y823615D01*
X391966Y664895D02*
X393236Y666164D01*
X395775D01*
X397045Y664895D01*
Y659816D01*
X395775Y658547D01*
X393236D01*
X391966Y659816D01*
X385618Y658547D02*
Y666164D01*
X389427Y662355D01*
X384349D01*
X338275Y644698D02*
X339545Y645968D01*
X342084D01*
X343354Y644698D01*
Y639620D01*
X342084Y638350D01*
X339545D01*
X338275Y639620D01*
X330658Y638350D02*
X335736D01*
X330658Y643429D01*
Y644698D01*
X331927Y645968D01*
X334467D01*
X335736Y644698D01*
X133490Y107744D02*
Y101396D01*
X132220Y100126D01*
X129681D01*
X128412Y101396D01*
Y107744D01*
X125872Y106474D02*
X124603Y107744D01*
X122064D01*
X120794Y106474D01*
Y105205D01*
X122064Y103935D01*
X123333D01*
X122064D01*
X120794Y102666D01*
Y101396D01*
X122064Y100126D01*
X124603D01*
X125872Y101396D01*
X419029Y655673D02*
Y649325D01*
X417759Y648056D01*
X415220D01*
X413950Y649325D01*
Y655673D01*
X411411Y648056D02*
X408872D01*
X410141D01*
Y655673D01*
X411411Y654404D01*
X87290Y96103D02*
Y103721D01*
X83481D01*
X82212Y102451D01*
Y99912D01*
X83481Y98643D01*
X87290D01*
X84751D02*
X82212Y96103D01*
X79672D02*
X77133D01*
X78403D01*
Y103721D01*
X79672Y102451D01*
X73324Y96103D02*
X70785D01*
X72055D01*
Y103721D01*
X73324Y102451D01*
X87290Y83975D02*
Y91593D01*
X83481D01*
X82212Y90323D01*
Y87784D01*
X83481Y86515D01*
X87290D01*
X84751D02*
X82212Y83975D01*
X79672D02*
X77133D01*
X78403D01*
Y91593D01*
X79672Y90323D01*
X73324D02*
X72055Y91593D01*
X69516D01*
X68246Y90323D01*
Y85245D01*
X69516Y83975D01*
X72055D01*
X73324Y85245D01*
Y90323D01*
X334507Y123286D02*
Y130904D01*
X330698D01*
X329429Y129634D01*
Y127095D01*
X330698Y125825D01*
X334507D01*
X331968D02*
X329429Y123286D01*
X326889Y130904D02*
X321811D01*
Y129634D01*
X326889Y124556D01*
Y123286D01*
X269229Y122853D02*
Y130471D01*
X265420D01*
X264151Y129201D01*
Y126662D01*
X265420Y125392D01*
X269229D01*
X266690D02*
X264151Y122853D01*
X256533Y130471D02*
X259072Y129201D01*
X261611Y126662D01*
Y124123D01*
X260342Y122853D01*
X257803D01*
X256533Y124123D01*
Y125392D01*
X257803Y126662D01*
X261611D01*
X342946Y614089D02*
Y621706D01*
X339137D01*
X337867Y620436D01*
Y617897D01*
X339137Y616628D01*
X342946D01*
X340406D02*
X337867Y614089D01*
X330250Y621706D02*
X335328D01*
Y617897D01*
X332789Y619167D01*
X331519D01*
X330250Y617897D01*
Y615358D01*
X331519Y614089D01*
X334058D01*
X335328Y615358D01*
X452591Y601910D02*
X460208D01*
Y605719D01*
X458939Y606988D01*
X456399D01*
X455130Y605719D01*
Y601910D01*
Y604449D02*
X452591Y606988D01*
Y613336D02*
X460208D01*
X456399Y609527D01*
Y614606D01*
X365501Y592997D02*
Y600615D01*
X361692D01*
X360422Y599345D01*
Y596806D01*
X361692Y595536D01*
X365501D01*
X362962D02*
X360422Y592997D01*
X352805D02*
X357883D01*
X352805Y598075D01*
Y599345D01*
X354074Y600615D01*
X356614D01*
X357883Y599345D01*
X416555Y598665D02*
Y606282D01*
X412746D01*
X411476Y605013D01*
Y602474D01*
X412746Y601204D01*
X416555D01*
X414016D02*
X411476Y598665D01*
X408937D02*
X406398D01*
X407668D01*
Y606282D01*
X408937Y605013D01*
X582981Y354786D02*
X579172Y361383D01*
X582471Y363287D01*
X584205Y362823D01*
X586744Y358425D01*
X586279Y356690D01*
X582981Y354786D01*
X593976Y361134D02*
X591142Y360964D01*
X587673Y361893D01*
X586404Y364092D01*
X586869Y365827D01*
X589067Y367096D01*
X590802Y366632D01*
X591437Y365532D01*
X590972Y363798D01*
X587673Y361893D01*
X221361Y431864D02*
X217552Y425267D01*
X214254Y427172D01*
X213789Y428906D01*
X216328Y433304D01*
X218062Y433769D01*
X221361Y431864D01*
X210366Y438212D02*
X214764Y435673D01*
X212860Y432375D01*
X211295Y434744D01*
X210196Y435379D01*
X208462Y434914D01*
X207192Y432715D01*
X207657Y430981D01*
X209856Y429711D01*
X211590Y430176D01*
X242401Y58936D02*
Y51318D01*
X238592D01*
X237322Y52588D01*
Y57666D01*
X238592Y58936D01*
X242401D01*
X230974Y51318D02*
Y58936D01*
X234783Y55127D01*
X229705D01*
X371696Y96274D02*
Y88657D01*
X367887D01*
X366617Y89926D01*
Y95004D01*
X367887Y96274D01*
X371696D01*
X364078Y95004D02*
X362809Y96274D01*
X360269D01*
X359000Y95004D01*
Y93735D01*
X360269Y92465D01*
X361539D01*
X360269D01*
X359000Y91196D01*
Y89926D01*
X360269Y88657D01*
X362809D01*
X364078Y89926D01*
X456363Y97290D02*
Y89672D01*
X452554D01*
X451284Y90942D01*
Y96020D01*
X452554Y97290D01*
X456363D01*
X443667Y89672D02*
X448745D01*
X443667Y94751D01*
Y96020D01*
X444936Y97290D01*
X447476D01*
X448745Y96020D01*
X541373Y97290D02*
Y89672D01*
X537564D01*
X536294Y90942D01*
Y96020D01*
X537564Y97290D01*
X541373D01*
X533755Y89672D02*
X531216D01*
X532486D01*
Y97290D01*
X533755Y96020D01*
X160416Y30826D02*
X161685Y32096D01*
X164224D01*
X165494Y30826D01*
Y25748D01*
X164224Y24478D01*
X161685D01*
X160416Y25748D01*
X157876Y24478D02*
X155337D01*
X156607D01*
Y32096D01*
X157876Y30826D01*
X151529D02*
X150259Y32096D01*
X147720D01*
X146450Y30826D01*
Y29557D01*
X147720Y28287D01*
X146450Y27018D01*
Y25748D01*
X147720Y24478D01*
X150259D01*
X151529Y25748D01*
Y27018D01*
X150259Y28287D01*
X151529Y29557D01*
Y30826D01*
X150259Y28287D02*
X147720D01*
X73536Y76586D02*
X74805Y77856D01*
X77344D01*
X78614Y76586D01*
Y71508D01*
X77344Y70238D01*
X74805D01*
X73536Y71508D01*
X70996Y70238D02*
X68457D01*
X69727D01*
Y77856D01*
X70996Y76586D01*
X64648Y77856D02*
X59570D01*
Y76586D01*
X64648Y71508D01*
Y70238D01*
X96658Y51611D02*
X97928Y50341D01*
Y47802D01*
X96658Y46532D01*
X91580D01*
X90310Y47802D01*
Y50341D01*
X91580Y51611D01*
X90310Y54150D02*
Y56689D01*
Y55420D01*
X97928D01*
X96658Y54150D01*
X97928Y65576D02*
X96658Y63037D01*
X94119Y60498D01*
X91580D01*
X90310Y61768D01*
Y64307D01*
X91580Y65576D01*
X92849D01*
X94119Y64307D01*
Y60498D01*
X107612Y42297D02*
X108881Y43567D01*
X111420D01*
X112690Y42297D01*
Y37219D01*
X111420Y35949D01*
X108881D01*
X107612Y37219D01*
X105072Y35949D02*
X102533D01*
X103803D01*
Y43567D01*
X105072Y42297D01*
X93646Y43567D02*
X98724D01*
Y39758D01*
X96185Y41028D01*
X94916D01*
X93646Y39758D01*
Y37219D01*
X94916Y35949D01*
X97455D01*
X98724Y37219D01*
X398574Y1078910D02*
X397304Y1080180D01*
Y1082719D01*
X398574Y1083988D01*
X403652D01*
X404921Y1082719D01*
Y1080180D01*
X403652Y1078910D01*
X404921Y1076371D02*
Y1073832D01*
Y1075101D01*
X397304D01*
X398574Y1076371D01*
X404921Y1066214D02*
X397304D01*
X401113Y1070023D01*
Y1064945D01*
X394510Y1055486D02*
X393240Y1056756D01*
Y1059295D01*
X394510Y1060564D01*
X399588D01*
X400858Y1059295D01*
Y1056756D01*
X399588Y1055486D01*
X400858Y1052947D02*
Y1050408D01*
Y1051677D01*
X393240D01*
X394510Y1052947D01*
Y1046599D02*
X393240Y1045329D01*
Y1042790D01*
X394510Y1041521D01*
X395779D01*
X397049Y1042790D01*
Y1044060D01*
Y1042790D01*
X398318Y1041521D01*
X399588D01*
X400858Y1042790D01*
Y1045329D01*
X399588Y1046599D01*
X344420Y101839D02*
X345690Y103108D01*
X348229D01*
X349499Y101839D01*
Y96761D01*
X348229Y95491D01*
X345690D01*
X344420Y96761D01*
X341881Y95491D02*
X339342D01*
X340611D01*
Y103108D01*
X341881Y101839D01*
X330455Y95491D02*
X335533D01*
X330455Y100569D01*
Y101839D01*
X331724Y103108D01*
X334264D01*
X335533Y101839D01*
X335022Y118349D02*
X336292Y119618D01*
X338831D01*
X340101Y118349D01*
Y113271D01*
X338831Y112001D01*
X336292D01*
X335022Y113271D01*
X332483Y112001D02*
X329944D01*
X331213D01*
Y119618D01*
X332483Y118349D01*
X326135Y112001D02*
X323596D01*
X324866D01*
Y119618D01*
X326135Y118349D01*
X254810Y102990D02*
X256079Y104259D01*
X258619D01*
X259888Y102990D01*
Y97911D01*
X258619Y96642D01*
X256079D01*
X254810Y97911D01*
X252271Y96642D02*
X249731D01*
X251001D01*
Y104259D01*
X252271Y102990D01*
X245923D02*
X244653Y104259D01*
X242114D01*
X240844Y102990D01*
Y97911D01*
X242114Y96642D01*
X244653D01*
X245923Y97911D01*
Y102990D01*
X261668Y117976D02*
X262937Y119245D01*
X265477D01*
X266746Y117976D01*
Y112897D01*
X265477Y111628D01*
X262937D01*
X261668Y112897D01*
X259129D02*
X257859Y111628D01*
X255320D01*
X254050Y112897D01*
Y117976D01*
X255320Y119245D01*
X257859D01*
X259129Y117976D01*
Y116706D01*
X257859Y115436D01*
X254050D01*
X367725Y665304D02*
X368995Y666573D01*
X371534D01*
X372804Y665304D01*
Y660226D01*
X371534Y658956D01*
X368995D01*
X367725Y660226D01*
X365186Y665304D02*
X363917Y666573D01*
X361377D01*
X360108Y665304D01*
Y664034D01*
X361377Y662765D01*
X362647D01*
X361377D01*
X360108Y661495D01*
Y660226D01*
X361377Y658956D01*
X363917D01*
X365186Y660226D01*
X338121Y632882D02*
X339391Y634152D01*
X341930D01*
X343200Y632882D01*
Y627804D01*
X341930Y626535D01*
X339391D01*
X338121Y627804D01*
X335582Y626535D02*
X333043D01*
X334312D01*
Y634152D01*
X335582Y632882D01*
X314494Y-16853D02*
X304338D01*
Y-24470D01*
X309416D01*
X304338D01*
Y-32088D01*
X319573D02*
X324651D01*
X322112D01*
Y-16853D01*
X319573D01*
X339886Y-32088D02*
X334808D01*
X332268Y-29548D01*
Y-24470D01*
X334808Y-21931D01*
X339886D01*
X342425Y-24470D01*
Y-27009D01*
X332268D01*
X347504Y-21931D02*
X357660Y-32088D01*
X352582Y-27009D01*
X357660Y-21931D01*
X347504Y-32088D01*
X377974D02*
Y-16853D01*
X385591D01*
X388130Y-19392D01*
Y-24470D01*
X385591Y-27009D01*
X377974D01*
X403366Y-19392D02*
X400826Y-16853D01*
X395748D01*
X393209Y-19392D01*
Y-29548D01*
X395748Y-32088D01*
X400826D01*
X403366Y-29548D01*
X408444Y-16853D02*
Y-32088D01*
X416061D01*
X418601Y-29548D01*
Y-27009D01*
X416061Y-24470D01*
X408444D01*
X416061D01*
X418601Y-21931D01*
Y-19392D01*
X416061Y-16853D01*
X408444D01*
X446531D02*
X441453D01*
X438914Y-19392D01*
Y-29548D01*
X441453Y-32088D01*
X446531D01*
X449071Y-29548D01*
Y-19392D01*
X446531Y-16853D01*
X454149Y-21931D02*
Y-29548D01*
X456688Y-32088D01*
X464306D01*
Y-21931D01*
X471923Y-19392D02*
Y-21931D01*
X469384D01*
X474463D01*
X471923D01*
Y-29548D01*
X474463Y-32088D01*
X482080D02*
X487158D01*
X484619D01*
Y-16853D01*
X482080D01*
X494776Y-32088D02*
X499854D01*
X497315D01*
Y-21931D01*
X494776D01*
X507472Y-32088D02*
Y-21931D01*
X515089D01*
X517629Y-24470D01*
Y-32088D01*
X530324D02*
X525246D01*
X522707Y-29548D01*
Y-24470D01*
X525246Y-21931D01*
X530324D01*
X532864Y-24470D01*
Y-27009D01*
X522707D01*
D15*
X600247Y127484D02*
G03*
X590088Y137644I-10160J0D01*
G01*
X589833Y0D02*
G03*
X600247Y10414I0J10414D01*
G01*
X614932Y226313D02*
X707436Y279556D01*
Y290448D01*
X600247Y127170D02*
Y127484D01*
X589580Y137644D02*
X590088D01*
X600247Y10414D02*
Y127170D01*
X-32213Y141140D02*
X-20447Y169226D01*
X-39578Y114471D02*
X-32213Y141140D01*
X-44658Y90849D02*
X-39578Y114471D01*
X-46625Y72103D02*
X-44658Y90849D01*
X571624Y410713D02*
X582063Y392583D01*
X551692Y399236D02*
X562131Y381106D01*
X551692Y399236D02*
X571624Y410713D01*
X562131Y381106D02*
X582063Y392583D01*
X178657Y394193D02*
X189096Y412323D01*
X198589Y382716D02*
X209028Y400846D01*
X189096Y412323D02*
X209028Y400846D01*
X178657Y394193D02*
X198589Y382716D01*
X398980Y137644D02*
X589580Y137644D01*
X338541Y137584D02*
X360648D01*
X143128Y137644D02*
X158863D01*
X200145Y137584D02*
X261566D01*
X325067Y658299D02*
X329291D01*
X371294Y102533D02*
X388334D01*
X422905Y574221D02*
X451495Y556926D01*
X505860Y466230D01*
X489008Y441558D02*
X504336Y457340D01*
X505860Y459626D01*
X506622Y462928D01*
X505860Y466230D02*
X506622Y462928D01*
X257617Y460498D02*
X272945Y444716D01*
X256093Y462784D02*
X257617Y460498D01*
X255331Y466086D02*
X256093Y462784D01*
X255331Y466086D02*
X256093Y469388D01*
X256081Y469395D02*
X308048Y556090D01*
X428241Y729359D02*
Y909359D01*
X333241Y729359D02*
Y909359D01*
D16*
X398980Y137644D02*
G03*
X393980Y132601I22J-5022D01*
G01*
X332508Y143681D02*
G03*
X338541Y137584I6065J-31D01*
G01*
X329291Y658299D02*
G03*
X333241Y662857I-304J4254D01*
G01*
X320683D02*
G03*
X325067Y658299I4849J277D01*
G01*
X261566Y137584D02*
G03*
X267507Y143772I-123J6065D01*
G01*
X388334Y102533D02*
G03*
X393980Y108045I67J5579D01*
G01*
X365648D02*
G03*
X371294Y102533I5579J67D01*
G01*
X489008Y441558D02*
G03*
X487080Y429517I5057J-6985D01*
G01*
X274873Y432675D02*
G03*
X272945Y444716I-6985J5057D01*
G01*
X-46625Y72103D02*
G03*
X0Y13I75007J-2611D01*
G01*
X125806Y173617D02*
G03*
X143128Y137644I19993J-12530D01*
G01*
X391126Y923399D02*
G03*
X404617Y928987I0J19079D01*
G01*
X428241Y720934D02*
G03*
X446201Y677573I61321J0D01*
G01*
X279164Y966804D02*
G03*
X269353Y962740I0J-13875D01*
G01*
X349617Y972392D02*
G03*
X352805Y980088I-7696J7696D01*
G01*
X334164Y923399D02*
G03*
X324353Y919335I0J-13875D01*
G01*
X269353Y962740D02*
G03*
X265683Y953879I8860J-8860D01*
G01*
X253487Y615834D02*
G03*
X265683Y645278I-29444J29444D01*
G01*
X404617Y928987D02*
G03*
X407805Y936684I-7696J7696D01*
G01*
X365648Y132601D02*
G03*
X360648Y137584I-4992J-8D01*
G01*
X336126Y966804D02*
G03*
X349617Y972392I0J19079D01*
G01*
X324353Y919335D02*
G03*
X320683Y910475I8860J-8860D01*
G01*
X614479Y226052D02*
X614932Y226313D01*
X602264Y229344D02*
X614479Y226052D01*
X499396Y62979D02*
Y85979D01*
Y62979D02*
X520396D01*
Y85979D01*
X499396D02*
X520396D01*
X414396Y62980D02*
Y85980D01*
Y62980D02*
X435396D01*
Y85980D01*
X414396D02*
X435396D01*
X329396Y62979D02*
Y85979D01*
Y62979D02*
X350396D01*
Y85979D01*
X329396D02*
X350396D01*
X244396D02*
X265396D01*
Y62979D02*
Y85979D01*
X244396Y62979D02*
X265396D01*
X244396D02*
Y85979D01*
X267507Y143772D02*
Y342054D01*
X332508Y143681D02*
Y342054D01*
X267507D02*
X332508D01*
X393980Y108045D02*
Y132601D01*
X487080Y429517D02*
X602264Y229344D01*
X0Y0D02*
X532999Y0D01*
X589833D01*
X333241Y909359D02*
X428241D01*
X334164Y923399D02*
X391126D01*
X446201Y677573D02*
X514176Y609599D01*
X177228Y262982D02*
X274873Y432675D01*
X540153Y581162D02*
X595391Y485166D01*
X707436Y290448D01*
X166106Y487019D02*
X222176Y582534D01*
X-20447Y169226D02*
X166106Y487019D01*
X125806Y173617D02*
X177228Y262982D01*
X308048Y556090D02*
X339311Y574555D01*
X342898Y574567D02*
X422905Y574221D01*
X279164Y966804D02*
X336126D01*
X514176Y609599D02*
X540153Y581162D01*
X222176Y582534D02*
X248399Y610746D01*
X253487Y615834D01*
X158923Y137584D02*
X200145D01*
X320683Y662857D02*
Y900046D01*
X428241Y720934D02*
Y729359D01*
X365648Y108045D02*
Y132601D01*
X333241Y662857D02*
Y729359D01*
X320683Y900046D02*
Y910475D01*
X339311Y574555D02*
X341104Y574576D01*
X342898Y574567D01*
X265683Y645278D02*
Y651873D01*
D17*
X352805Y1098628D02*
X407805D01*
Y936684D02*
Y1098628D01*
D18*
X352805Y980088D02*
Y1098628D01*
X265683Y651873D02*
X265683Y953879D01*
D80*
X369361Y1051984D02*
X376982D01*
X369361D02*
Y1062144D01*
X376982D01*
X382062D02*
X389682D01*
Y1051984D02*
Y1062144D01*
X382062Y1051984D02*
X389682D01*
X383331Y1079417D02*
X393492D01*
Y1064176D02*
Y1079417D01*
X383331Y1064176D02*
X393492D01*
X365551D02*
X375712D01*
X365551D02*
Y1079417D01*
X375712D01*
X90592Y94325D02*
X98212D01*
X90592D02*
Y104485D01*
X98212D01*
X103292D02*
X110912D01*
Y94325D02*
Y104485D01*
X103292Y94325D02*
X110912D01*
X90592Y82895D02*
X98212D01*
X90592D02*
Y93055D01*
X98212D01*
X103292D02*
X110912D01*
Y82895D02*
Y93055D01*
X103292Y82895D02*
X110912D01*
X298467Y121458D02*
X306087D01*
X298467D02*
Y131618D01*
X306087D01*
X311167D02*
X318787D01*
Y121458D02*
Y131618D01*
X311167Y121458D02*
X318787D01*
X284723Y131831D02*
X292343D01*
Y121671D02*
Y131831D01*
X284723Y121671D02*
X292343D01*
X272023D02*
X279643D01*
X272023D02*
Y131831D01*
X279643D01*
X138062Y34638D02*
X145682D01*
X138062D02*
Y44798D01*
X145682D01*
X150762D02*
X158382D01*
Y34638D02*
Y44798D01*
X150762Y34638D02*
X158382D01*
X83694Y69749D02*
X91314D01*
X83694D02*
Y79909D01*
X91314D01*
X96394D02*
X104014D01*
Y69749D02*
Y79909D01*
X96394Y69749D02*
X104014D01*
X101774Y61069D02*
Y68689D01*
X111934D01*
Y61069D02*
Y68689D01*
Y48369D02*
Y55989D01*
X101774Y48369D02*
X111934D01*
X101774D02*
Y55989D01*
X115456Y34638D02*
X123076D01*
X115456D02*
Y44798D01*
X123076D01*
X128156D02*
X135776D01*
Y34638D02*
Y44798D01*
X128156Y34638D02*
X135776D01*
X298953Y92951D02*
X309113D01*
X298953D02*
Y108191D01*
X309113D01*
X316733D02*
X326893D01*
Y92951D02*
Y108191D01*
X316733Y92951D02*
X326893D01*
X311653Y108191D02*
X319273D01*
Y118351D01*
X311653D02*
X319273D01*
X298953D02*
X306573D01*
X298953Y108191D02*
Y118351D01*
Y108191D02*
X306573D01*
X281986Y108072D02*
X292146D01*
Y92832D02*
Y108072D01*
X281986Y92832D02*
X292146D01*
X264206D02*
X274366D01*
X264206D02*
Y108072D01*
X274366D01*
X271826Y118232D02*
X279446D01*
X271826Y108072D02*
Y118232D01*
Y108072D02*
X279446D01*
X284526D02*
X292146D01*
Y118232D01*
X284526D02*
X292146D01*
D81*
X398393Y650148D02*
Y653148D01*
X347354Y639181D02*
Y642181D01*
X121128Y51656D02*
Y55907D01*
Y51656D02*
X125378D01*
X160878D02*
X165128D01*
Y55907D01*
Y91406D02*
Y95656D01*
X160878D02*
X165128D01*
X121128Y91406D02*
Y95656D01*
X125378D01*
X430071Y641080D02*
Y642805D01*
X399071D02*
X399071Y641080D01*
X430071Y611805D02*
Y613530D01*
X399071Y611805D02*
Y613530D01*
Y611805D02*
X430071D01*
X399071Y642805D02*
X430071D01*
X347104Y620156D02*
Y623156D01*
X456679Y638056D02*
X459679D01*
X369135Y605801D02*
Y608801D01*
X382441Y600975D02*
Y603975D01*
X355304Y650006D02*
Y653006D01*
X347104Y629506D02*
Y632506D01*
D82*
X589251Y376207D02*
X591026Y373132D01*
X572751Y366536D02*
X574526Y363461D01*
X590981Y372962D01*
X573675Y365135D02*
X590130Y374635D01*
X572797Y366707D02*
X589251Y376207D01*
X199718Y426747D02*
X216173Y417247D01*
X200640Y428293D02*
X217094Y418793D01*
X201664Y429867D02*
X218119Y420367D01*
X216344Y417293D02*
X218119Y420367D01*
X199718Y426747D02*
X201493Y429821D01*
X283146Y84005D02*
X286696D01*
X283271Y64880D02*
X286821D01*
Y83881D01*
X284946Y64981D02*
Y83981D01*
X283146Y65005D02*
Y84005D01*
X368146Y65005D02*
Y84005D01*
X369946Y64981D02*
Y83981D01*
X371821Y64880D02*
Y83881D01*
X368271Y64880D02*
X371821D01*
X368146Y84005D02*
X371696D01*
X453146D02*
X456696D01*
X453271Y64880D02*
X456821D01*
Y83881D01*
X454946Y64981D02*
Y83981D01*
X453146Y65005D02*
Y84005D01*
X538146Y65005D02*
Y84005D01*
X539946Y64981D02*
Y83981D01*
X541821Y64880D02*
Y83881D01*
X538271Y64880D02*
X541821D01*
X538146Y84005D02*
X541696D01*
D83*
X568663Y415416D02*
X584663Y387703D01*
X549091Y404116D02*
X565092Y376403D01*
X560302Y395549D02*
X570304Y401324D01*
X568218Y393537D02*
X570304Y401324D01*
X568088Y393462D02*
X568218Y393537D01*
X560302Y395549D02*
X568088Y393462D01*
X562935Y390487D02*
X568088Y393462D01*
X568218Y393537D02*
X573241Y396437D01*
X190203Y402766D02*
X195226Y399866D01*
X195356Y399791D02*
X200509Y396816D01*
X195356Y399791D02*
X197442Y392005D01*
X195226Y399866D02*
X195356Y399791D01*
X187440Y397780D02*
X195226Y399866D01*
X187440Y397780D02*
X197442Y392005D01*
X195628Y378013D02*
X211628Y405726D01*
X176056Y389313D02*
X192056Y417026D01*
X238896Y85780D02*
X270896D01*
X238896Y63181D02*
X270896D01*
X251920Y68605D02*
Y80155D01*
X257620Y74455D01*
Y74306D02*
Y74455D01*
X251920Y68605D02*
X257620Y74306D01*
Y68355D02*
Y74306D01*
Y74455D02*
Y80255D01*
X342620Y74455D02*
Y80255D01*
Y68355D02*
Y74306D01*
X336920Y68605D02*
X342620Y74306D01*
Y74455D01*
X336920Y80155D02*
X342620Y74455D01*
X336920Y68605D02*
Y80155D01*
X323896Y63181D02*
X355896D01*
X323896Y85780D02*
X355896D01*
X408896D02*
X440896D01*
X408896Y63181D02*
X440896D01*
X421920Y68605D02*
Y80155D01*
X427620Y74455D01*
Y74306D02*
Y74455D01*
X421920Y68605D02*
X427620Y74306D01*
Y68355D02*
Y74306D01*
Y74455D02*
Y80255D01*
X512620Y74455D02*
Y80255D01*
Y68355D02*
Y74306D01*
X506920Y68605D02*
X512620Y74306D01*
Y74455D01*
X506920Y80155D02*
X512620Y74455D01*
X506920Y68605D02*
Y80155D01*
X493896Y63181D02*
X525896D01*
X493896Y85780D02*
X525896D01*
M02*
