G04*
G04 #@! TF.GenerationSoftware,Altium Limited,Altium Designer,18.1.4 (159)*
G04*
G04 Layer_Color=8388736*
%FSLAX44Y44*%
%MOMM*%
G71*
G01*
G75*
%ADD13C,0.2540*%
%ADD15C,0.0500*%
%ADD16C,0.0500*%
%ADD17C,0.0510*%
%ADD18C,0.0508*%
%ADD80C,0.1270*%
%ADD81C,0.2000*%
%ADD83C,0.1778*%
D13*
X1154885Y-860050D02*
X1141556D01*
Y-870046D01*
X1148221D01*
X1141556D01*
Y-880043D01*
X1161550Y-860050D02*
Y-880043D01*
X1171546D01*
X1174878Y-876711D01*
Y-863382D01*
X1171546Y-860050D01*
X1161550D01*
X1157385Y-805050D02*
X1144056D01*
Y-815046D01*
X1150721D01*
X1144056D01*
Y-825043D01*
X1164050Y-805050D02*
Y-825043D01*
X1174046D01*
X1177378Y-821711D01*
Y-808382D01*
X1174046Y-805050D01*
X1164050D01*
X1425219Y-754901D02*
Y-733242D01*
X1436048Y-722412D01*
X1446878Y-733242D01*
Y-754901D01*
Y-738656D01*
X1425219D01*
X1457708Y-722412D02*
X1468538D01*
X1463123D01*
Y-754901D01*
X1457708D01*
X1468538D01*
X1484783D02*
Y-722412D01*
X1501028D01*
X1506442Y-727827D01*
Y-738656D01*
X1501028Y-744071D01*
X1484783D01*
X1495612D02*
X1506442Y-754901D01*
X1517272Y-722412D02*
X1538932D01*
Y-727827D01*
X1517272Y-749486D01*
Y-754901D01*
X1538932D01*
X1549762D02*
Y-733242D01*
X1560591Y-722412D01*
X1571421Y-733242D01*
Y-754901D01*
Y-738656D01*
X1549762D01*
X1582251Y-722412D02*
X1593081D01*
X1587666D01*
Y-754901D01*
X1582251D01*
X1593081D01*
X1147385Y-695050D02*
X1134056D01*
Y-705046D01*
X1140721D01*
X1134056D01*
Y-715043D01*
X1154050Y-695050D02*
Y-715043D01*
X1164046D01*
X1167378Y-711711D01*
Y-698382D01*
X1164046Y-695050D01*
X1154050D01*
X1127356Y-748360D02*
Y-768353D01*
X1137353D01*
X1140685Y-765021D01*
Y-751692D01*
X1137353Y-748360D01*
X1127356D01*
X1160679D02*
X1147349D01*
Y-758356D01*
X1154014D01*
X1147349D01*
Y-768353D01*
X1167343D02*
Y-748360D01*
X1174008Y-755024D01*
X1180672Y-748360D01*
Y-768353D01*
X2153719Y-955901D02*
Y-935588D01*
X2163875Y-925431D01*
X2174032Y-935588D01*
Y-955901D01*
Y-940666D01*
X2153719D01*
X1138816Y-920563D02*
Y-951033D01*
X1154051D01*
X1159129Y-945955D01*
Y-940876D01*
X1154051Y-935798D01*
X1138816D01*
X1154051D01*
X1159129Y-930720D01*
Y-925641D01*
X1154051Y-920563D01*
X1138816D01*
X1260816Y-957033D02*
X1270973D01*
X1265894D01*
Y-926563D01*
X1260816Y-931641D01*
X1286208Y-936720D02*
X1291286D01*
Y-941798D01*
X1286208D01*
Y-936720D01*
Y-951955D02*
X1291286D01*
Y-957033D01*
X1286208D01*
Y-951955D01*
X1311599Y-957033D02*
X1321756D01*
X1316678D01*
Y-926563D01*
X1311599Y-931641D01*
X1118969Y-641901D02*
Y-620242D01*
X1129799Y-609412D01*
X1140628Y-620242D01*
Y-641901D01*
Y-625656D01*
X1118969D01*
X1151458Y-609412D02*
X1162288D01*
X1156873D01*
Y-641901D01*
X1151458D01*
X1162288D01*
X1178533D02*
Y-609412D01*
X1194778D01*
X1200192Y-614827D01*
Y-625656D01*
X1194778Y-631071D01*
X1178533D01*
X1189362D02*
X1200192Y-641901D01*
X1211022Y-609412D02*
X1232682D01*
Y-614827D01*
X1211022Y-636486D01*
Y-641901D01*
X1232682D01*
X1243512D02*
Y-620242D01*
X1254342Y-609412D01*
X1265171Y-620242D01*
Y-641901D01*
Y-625656D01*
X1243512D01*
X1276001Y-609412D02*
X1286831D01*
X1281416D01*
Y-641901D01*
X1276001D01*
X1286831D01*
X1335565D02*
Y-609412D01*
X1351810D01*
X1357225Y-614827D01*
Y-625656D01*
X1351810Y-631071D01*
X1335565D01*
X1368055Y-641901D02*
Y-609412D01*
X1384299D01*
X1389715Y-614827D01*
Y-625656D01*
X1384299Y-631071D01*
X1368055D01*
X1378885D02*
X1389715Y-641901D01*
X1416789Y-609412D02*
X1405959D01*
X1400544Y-614827D01*
Y-636486D01*
X1405959Y-641901D01*
X1416789D01*
X1422204Y-636486D01*
Y-614827D01*
X1416789Y-609412D01*
X1433034Y-641901D02*
Y-609412D01*
X1449279D01*
X1454693Y-614827D01*
Y-625656D01*
X1449279Y-631071D01*
X1433034D01*
X1465523Y-641901D02*
Y-609412D01*
X1481768D01*
X1487183Y-614827D01*
Y-625656D01*
X1481768Y-631071D01*
X1465523D01*
X1476353D02*
X1487183Y-641901D01*
X1498013Y-609412D02*
X1508843D01*
X1503428D01*
Y-641901D01*
X1498013D01*
X1508843D01*
X1546747Y-609412D02*
X1525087D01*
Y-641901D01*
X1546747D01*
X1525087Y-625656D02*
X1535917D01*
X1557577Y-609412D02*
X1579236D01*
X1568407D01*
Y-641901D01*
X1590066D02*
Y-620242D01*
X1600896Y-609412D01*
X1611726Y-620242D01*
Y-641901D01*
Y-625656D01*
X1590066D01*
X1622556Y-641901D02*
Y-609412D01*
X1638801D01*
X1644216Y-614827D01*
Y-625656D01*
X1638801Y-631071D01*
X1622556D01*
X1633386D02*
X1644216Y-641901D01*
X1655045Y-609412D02*
Y-614827D01*
X1665875Y-625656D01*
X1676705Y-614827D01*
Y-609412D01*
X1665875Y-625656D02*
Y-641901D01*
X1741684D02*
X1736269Y-636486D01*
X1730854Y-641901D01*
X1725439D01*
X1720024Y-636486D01*
Y-631071D01*
X1725439Y-625656D01*
X1720024Y-620242D01*
Y-614827D01*
X1725439Y-609412D01*
X1730854D01*
X1736269Y-614827D01*
Y-620242D01*
X1730854Y-625656D01*
X1736269Y-631071D01*
Y-636486D01*
X1741684Y-625656D02*
X1736269Y-631071D01*
X1725439Y-625656D02*
X1730854D01*
X1806663Y-614827D02*
X1801248Y-609412D01*
X1790418D01*
X1785003Y-614827D01*
Y-636486D01*
X1790418Y-641901D01*
X1801248D01*
X1806663Y-636486D01*
X1833738Y-609412D02*
X1822908D01*
X1817493Y-614827D01*
Y-636486D01*
X1822908Y-641901D01*
X1833738D01*
X1839153Y-636486D01*
Y-614827D01*
X1833738Y-609412D01*
X1849982Y-641901D02*
Y-609412D01*
X1871642Y-641901D01*
Y-609412D01*
X1904131D02*
X1882472D01*
Y-625656D01*
X1893302D01*
X1882472D01*
Y-641901D01*
X1914961Y-609412D02*
X1925791D01*
X1920376D01*
Y-641901D01*
X1914961D01*
X1925791D01*
X1942036Y-609412D02*
Y-641901D01*
X1958281D01*
X1963696Y-636486D01*
Y-614827D01*
X1958281Y-609412D01*
X1942036D01*
X1996185D02*
X1974525D01*
Y-641901D01*
X1996185D01*
X1974525Y-625656D02*
X1985355D01*
X2007015Y-641901D02*
Y-609412D01*
X2028675Y-641901D01*
Y-609412D01*
X2039504D02*
X2061164D01*
X2050334D01*
Y-641901D01*
X2071994Y-609412D02*
X2082824D01*
X2077409D01*
Y-641901D01*
X2071994D01*
X2082824D01*
X2099068D02*
Y-620242D01*
X2109898Y-609412D01*
X2120728Y-620242D01*
Y-641901D01*
Y-625656D01*
X2099068D01*
X2131558Y-609412D02*
Y-641901D01*
X2153218D01*
X314494Y-16853D02*
X304338D01*
Y-24470D01*
X309416D01*
X304338D01*
Y-32088D01*
X319573D02*
X324651D01*
X322112D01*
Y-16853D01*
X319573D01*
X339886Y-32088D02*
X334808D01*
X332268Y-29548D01*
Y-24470D01*
X334808Y-21931D01*
X339886D01*
X342425Y-24470D01*
Y-27009D01*
X332268D01*
X347504Y-21931D02*
X357660Y-32088D01*
X352582Y-27009D01*
X357660Y-21931D01*
X347504Y-32088D01*
X377974D02*
Y-16853D01*
X385591D01*
X388130Y-19392D01*
Y-24470D01*
X385591Y-27009D01*
X377974D01*
X403366Y-19392D02*
X400826Y-16853D01*
X395748D01*
X393209Y-19392D01*
Y-29548D01*
X395748Y-32088D01*
X400826D01*
X403366Y-29548D01*
X408444Y-16853D02*
Y-32088D01*
X416061D01*
X418601Y-29548D01*
Y-27009D01*
X416061Y-24470D01*
X408444D01*
X416061D01*
X418601Y-21931D01*
Y-19392D01*
X416061Y-16853D01*
X408444D01*
X446531D02*
X441453D01*
X438914Y-19392D01*
Y-29548D01*
X441453Y-32088D01*
X446531D01*
X449071Y-29548D01*
Y-19392D01*
X446531Y-16853D01*
X454149Y-21931D02*
Y-29548D01*
X456688Y-32088D01*
X464306D01*
Y-21931D01*
X471923Y-19392D02*
Y-21931D01*
X469384D01*
X474463D01*
X471923D01*
Y-29548D01*
X474463Y-32088D01*
X482080D02*
X487158D01*
X484619D01*
Y-16853D01*
X482080D01*
X494776Y-32088D02*
X499854D01*
X497315D01*
Y-21931D01*
X494776D01*
X507472Y-32088D02*
Y-21931D01*
X515089D01*
X517629Y-24470D01*
Y-32088D01*
X530324D02*
X525246D01*
X522707Y-29548D01*
Y-24470D01*
X525246Y-21931D01*
X530324D01*
X532864Y-24470D01*
Y-27009D01*
X522707D01*
D15*
X600247Y127484D02*
G03*
X590088Y137644I-10160J0D01*
G01*
X589833Y0D02*
G03*
X600247Y10414I0J10414D01*
G01*
X614932Y226313D02*
X707436Y279556D01*
Y290448D01*
X600247Y127170D02*
Y127484D01*
X589580Y137644D02*
X590088D01*
X600247Y10414D02*
Y127170D01*
X-32213Y141140D02*
X-20447Y169226D01*
X-39578Y114471D02*
X-32213Y141140D01*
X-44658Y90849D02*
X-39578Y114471D01*
X-46625Y72103D02*
X-44658Y90849D01*
X571624Y410713D02*
X582063Y392583D01*
X551692Y399236D02*
X562131Y381106D01*
X551692Y399236D02*
X571624Y410713D01*
X562131Y381106D02*
X582063Y392583D01*
X178657Y394193D02*
X189096Y412323D01*
X198589Y382716D02*
X209028Y400846D01*
X189096Y412323D02*
X209028Y400846D01*
X178657Y394193D02*
X198589Y382716D01*
X398980Y137644D02*
X589580Y137644D01*
X338541Y137584D02*
X360648D01*
X143128Y137644D02*
X158863D01*
X200145Y137584D02*
X261566D01*
X325067Y658299D02*
X329291D01*
X371294Y102533D02*
X388334D01*
X422905Y574221D02*
X451495Y556926D01*
X505860Y466230D01*
X489008Y441558D02*
X504336Y457340D01*
X505860Y459626D01*
X506622Y462928D01*
X505860Y466230D02*
X506622Y462928D01*
X257617Y460498D02*
X272945Y444716D01*
X256093Y462784D02*
X257617Y460498D01*
X255331Y466086D02*
X256093Y462784D01*
X255331Y466086D02*
X256093Y469388D01*
X256081Y469395D02*
X308048Y556090D01*
X428241Y729359D02*
Y909359D01*
X333241Y729359D02*
Y909359D01*
D16*
X398980Y137644D02*
G03*
X393980Y132601I22J-5022D01*
G01*
X332508Y143681D02*
G03*
X338541Y137584I6065J-31D01*
G01*
X329291Y658299D02*
G03*
X333241Y662857I-304J4254D01*
G01*
X320683D02*
G03*
X325067Y658299I4849J277D01*
G01*
X261566Y137584D02*
G03*
X267507Y143772I-123J6065D01*
G01*
X388334Y102533D02*
G03*
X393980Y108045I67J5579D01*
G01*
X365648D02*
G03*
X371294Y102533I5579J67D01*
G01*
X489008Y441558D02*
G03*
X487080Y429517I5057J-6985D01*
G01*
X274873Y432675D02*
G03*
X272945Y444716I-6985J5057D01*
G01*
X-46625Y72103D02*
G03*
X0Y13I75007J-2611D01*
G01*
X125806Y173617D02*
G03*
X143128Y137644I19993J-12530D01*
G01*
X391126Y923399D02*
G03*
X404617Y928987I0J19079D01*
G01*
X428241Y720934D02*
G03*
X446201Y677573I61321J0D01*
G01*
X279164Y966804D02*
G03*
X269353Y962740I0J-13875D01*
G01*
X349617Y972392D02*
G03*
X352805Y980088I-7696J7696D01*
G01*
X334164Y923399D02*
G03*
X324353Y919335I0J-13875D01*
G01*
X269353Y962740D02*
G03*
X265683Y953879I8860J-8860D01*
G01*
X253487Y615834D02*
G03*
X265683Y645278I-29444J29444D01*
G01*
X404617Y928987D02*
G03*
X407805Y936684I-7696J7696D01*
G01*
X365648Y132601D02*
G03*
X360648Y137584I-4992J-8D01*
G01*
X336126Y966804D02*
G03*
X349617Y972392I0J19079D01*
G01*
X324353Y919335D02*
G03*
X320683Y910475I8860J-8860D01*
G01*
X614479Y226052D02*
X614932Y226313D01*
X602264Y229344D02*
X614479Y226052D01*
X499396Y62979D02*
Y85979D01*
Y62979D02*
X520396D01*
Y85979D01*
X499396D02*
X520396D01*
X414396Y62980D02*
Y85980D01*
Y62980D02*
X435396D01*
Y85980D01*
X414396D02*
X435396D01*
X329396Y62979D02*
Y85979D01*
Y62979D02*
X350396D01*
Y85979D01*
X329396D02*
X350396D01*
X244396D02*
X265396D01*
Y62979D02*
Y85979D01*
X244396Y62979D02*
X265396D01*
X244396D02*
Y85979D01*
X267507Y143772D02*
Y342054D01*
X332508Y143681D02*
Y342054D01*
X267507D02*
X332508D01*
X393980Y108045D02*
Y132601D01*
X487080Y429517D02*
X602264Y229344D01*
X0Y0D02*
X532999Y0D01*
X589833D01*
X333241Y909359D02*
X428241D01*
X334164Y923399D02*
X391126D01*
X446201Y677573D02*
X514176Y609599D01*
X177228Y262982D02*
X274873Y432675D01*
X540153Y581162D02*
X595391Y485166D01*
X707436Y290448D01*
X166106Y487019D02*
X222176Y582534D01*
X-20447Y169226D02*
X166106Y487019D01*
X125806Y173617D02*
X177228Y262982D01*
X308048Y556090D02*
X339311Y574555D01*
X342898Y574567D02*
X422905Y574221D01*
X279164Y966804D02*
X336126D01*
X514176Y609599D02*
X540153Y581162D01*
X222176Y582534D02*
X248399Y610746D01*
X253487Y615834D01*
X158923Y137584D02*
X200145D01*
X320683Y662857D02*
Y900046D01*
X428241Y720934D02*
Y729359D01*
X365648Y108045D02*
Y132601D01*
X333241Y662857D02*
Y729359D01*
X320683Y900046D02*
Y910475D01*
X339311Y574555D02*
X341104Y574576D01*
X342898Y574567D01*
X265683Y645278D02*
Y651873D01*
D17*
X352805Y1098628D02*
X407805D01*
Y936684D02*
Y1098628D01*
D18*
X352805Y980088D02*
Y1098628D01*
X265683Y651873D02*
X265683Y953879D01*
D80*
X2222568Y-974301D02*
Y1337099D01*
X2273368Y-1025101D02*
Y1387899D01*
X2222568Y-974301D02*
Y-669501D01*
X2222366Y-974863D02*
Y-670063D01*
Y-974863D02*
Y-670063D01*
X1351316Y-805463D02*
X2222328D01*
X-1485832Y1337099D02*
X2222568D01*
X-1536632Y1387899D02*
X2273368D01*
X-1485832Y-974301D02*
Y1337099D01*
X-1536632Y-1025101D02*
Y1387899D01*
X-1485832Y-974301D02*
X2222568D01*
X-1536632Y-1025101D02*
X2273368D01*
X1079366Y-974863D02*
X2222366D01*
X1079366D02*
X2222366D01*
X1079568Y-974301D02*
X2222568D01*
X723766Y-974863D02*
X1079366D01*
X723766D02*
X1079366D01*
Y-898663D02*
X2222366D01*
X1437666Y-670063D02*
X2222366D01*
X1079366D02*
X1460366D01*
X723766D02*
X1079366D01*
X723766Y-974863D02*
Y-670063D01*
X1079366Y-974863D02*
Y-670063D01*
Y-837263D02*
X1351316D01*
X1079366Y-777813D02*
X1351316D01*
X1079366Y-724263D02*
X1351316D01*
X1238316Y-975113D02*
Y-670313D01*
X1351316Y-974863D02*
Y-670063D01*
X2126766Y-974863D02*
Y-898663D01*
X1003368Y-1025101D02*
Y-974301D01*
X368368Y-1025101D02*
Y-974301D01*
X1638368Y-1025101D02*
Y-974301D01*
X-266632Y-1025101D02*
Y-974301D01*
X-901632Y-1025101D02*
Y-974301D01*
X-1536632Y-421851D02*
X-1485832D01*
X-1536632Y181399D02*
X-1485832D01*
X-1536632Y784649D02*
X-1485832D01*
X-901632Y1337099D02*
Y1387899D01*
X-266632Y1337099D02*
Y1387899D01*
X368368Y1337099D02*
Y1387899D01*
X1003368Y1337099D02*
Y1387899D01*
X1638368Y1337099D02*
Y1387899D01*
X2222568Y181399D02*
X2273368D01*
X2222568Y784649D02*
X2273368D01*
X2222568Y-421851D02*
X2273368D01*
X1092140Y-676036D02*
X1085066D01*
Y-687463D01*
X1092140D01*
X1085066Y-681477D02*
X1089419D01*
X1094045Y-676036D02*
Y-687463D01*
Y-676036D02*
X1101663Y-687463D01*
Y-676036D02*
Y-687463D01*
X1112982Y-678756D02*
X1112438Y-677668D01*
X1111349Y-676580D01*
X1110261Y-676036D01*
X1108084D01*
X1106996Y-676580D01*
X1105908Y-677668D01*
X1105363Y-678756D01*
X1104819Y-680389D01*
Y-683110D01*
X1105363Y-684742D01*
X1105908Y-685831D01*
X1106996Y-686919D01*
X1108084Y-687463D01*
X1110261D01*
X1111349Y-686919D01*
X1112438Y-685831D01*
X1112982Y-684742D01*
Y-683110D01*
X1110261D02*
X1112982D01*
X1115594Y-676036D02*
Y-687463D01*
X1117988Y-676036D02*
Y-687463D01*
Y-676036D02*
X1125607Y-687463D01*
Y-676036D02*
Y-687463D01*
X1135837Y-676036D02*
X1128763D01*
Y-687463D01*
X1135837D01*
X1128763Y-681477D02*
X1133116D01*
X1144816Y-676036D02*
X1137741D01*
Y-687463D01*
X1144816D01*
X1137741Y-681477D02*
X1142095D01*
X1146720Y-676036D02*
Y-687463D01*
Y-676036D02*
X1151618D01*
X1153250Y-676580D01*
X1153794Y-677124D01*
X1154339Y-678212D01*
Y-679301D01*
X1153794Y-680389D01*
X1153250Y-680933D01*
X1151618Y-681477D01*
X1146720D01*
X1150529D02*
X1154339Y-687463D01*
X1157440Y-679845D02*
X1156896Y-680389D01*
X1157440Y-680933D01*
X1157985Y-680389D01*
X1157440Y-679845D01*
Y-686375D02*
X1156896Y-686919D01*
X1157440Y-687463D01*
X1157985Y-686919D01*
X1157440Y-686375D01*
X1084066Y-734951D02*
X1088963D01*
X1090596Y-734407D01*
X1091140Y-733863D01*
X1091684Y-732775D01*
Y-731142D01*
X1091140Y-730054D01*
X1090596Y-729510D01*
X1088963Y-728966D01*
X1084066D01*
Y-740393D01*
X1102404Y-731686D02*
X1101860Y-730598D01*
X1100772Y-729510D01*
X1099684Y-728966D01*
X1097507D01*
X1096419Y-729510D01*
X1095330Y-730598D01*
X1094786Y-731686D01*
X1094242Y-733319D01*
Y-736040D01*
X1094786Y-737672D01*
X1095330Y-738761D01*
X1096419Y-739849D01*
X1097507Y-740393D01*
X1099684D01*
X1100772Y-739849D01*
X1101860Y-738761D01*
X1102404Y-737672D01*
X1105615Y-728966D02*
Y-740393D01*
Y-728966D02*
X1110512D01*
X1112145Y-729510D01*
X1112689Y-730054D01*
X1113233Y-731142D01*
Y-732231D01*
X1112689Y-733319D01*
X1112145Y-733863D01*
X1110512Y-734407D01*
X1105615D02*
X1110512D01*
X1112145Y-734951D01*
X1112689Y-735496D01*
X1113233Y-736584D01*
Y-738216D01*
X1112689Y-739305D01*
X1112145Y-739849D01*
X1110512Y-740393D01*
X1105615D01*
X1124770Y-728966D02*
Y-740393D01*
Y-728966D02*
X1128579D01*
X1130211Y-729510D01*
X1131300Y-730598D01*
X1131844Y-731686D01*
X1132388Y-733319D01*
Y-736040D01*
X1131844Y-737672D01*
X1131300Y-738761D01*
X1130211Y-739849D01*
X1128579Y-740393D01*
X1124770D01*
X1142020Y-728966D02*
X1134946D01*
Y-740393D01*
X1142020D01*
X1134946Y-734407D02*
X1139299D01*
X1151543Y-730598D02*
X1150454Y-729510D01*
X1148822Y-728966D01*
X1146645D01*
X1145013Y-729510D01*
X1143924Y-730598D01*
Y-731686D01*
X1144469Y-732775D01*
X1145013Y-733319D01*
X1146101Y-733863D01*
X1149366Y-734951D01*
X1150454Y-735496D01*
X1150999Y-736040D01*
X1151543Y-737128D01*
Y-738761D01*
X1150454Y-739849D01*
X1148822Y-740393D01*
X1146645D01*
X1145013Y-739849D01*
X1143924Y-738761D01*
X1154100Y-728966D02*
Y-740393D01*
X1164657Y-731686D02*
X1164113Y-730598D01*
X1163025Y-729510D01*
X1161936Y-728966D01*
X1159760D01*
X1158671Y-729510D01*
X1157583Y-730598D01*
X1157039Y-731686D01*
X1156495Y-733319D01*
Y-736040D01*
X1157039Y-737672D01*
X1157583Y-738761D01*
X1158671Y-739849D01*
X1159760Y-740393D01*
X1161936D01*
X1163025Y-739849D01*
X1164113Y-738761D01*
X1164657Y-737672D01*
Y-736040D01*
X1161936D02*
X1164657D01*
X1167269Y-728966D02*
Y-740393D01*
Y-728966D02*
X1174888Y-740393D01*
Y-728966D02*
Y-740393D01*
X1185118Y-728966D02*
X1178044D01*
Y-740393D01*
X1185118D01*
X1178044Y-734407D02*
X1182397D01*
X1187023Y-728966D02*
Y-740393D01*
Y-728966D02*
X1191920D01*
X1193553Y-729510D01*
X1194097Y-730054D01*
X1194641Y-731142D01*
Y-732231D01*
X1194097Y-733319D01*
X1193553Y-733863D01*
X1191920Y-734407D01*
X1187023D01*
X1190832D02*
X1194641Y-740393D01*
X1197743Y-732775D02*
X1197199Y-733319D01*
X1197743Y-733863D01*
X1198287Y-733319D01*
X1197743Y-732775D01*
Y-739305D02*
X1197199Y-739849D01*
X1197743Y-740393D01*
X1198287Y-739849D01*
X1197743Y-739305D01*
X1092228Y-786686D02*
X1091684Y-785598D01*
X1090596Y-784510D01*
X1089508Y-783966D01*
X1087331D01*
X1086243Y-784510D01*
X1085154Y-785598D01*
X1084610Y-786686D01*
X1084066Y-788319D01*
Y-791040D01*
X1084610Y-792672D01*
X1085154Y-793761D01*
X1086243Y-794849D01*
X1087331Y-795393D01*
X1089508D01*
X1090596Y-794849D01*
X1091684Y-793761D01*
X1092228Y-792672D01*
X1095439Y-783966D02*
Y-795393D01*
X1103057Y-783966D02*
Y-795393D01*
X1095439Y-789407D02*
X1103057D01*
X1113288Y-783966D02*
X1106214D01*
Y-795393D01*
X1113288D01*
X1106214Y-789407D02*
X1110567D01*
X1123355Y-786686D02*
X1122811Y-785598D01*
X1121722Y-784510D01*
X1120634Y-783966D01*
X1118457D01*
X1117369Y-784510D01*
X1116281Y-785598D01*
X1115737Y-786686D01*
X1115192Y-788319D01*
Y-791040D01*
X1115737Y-792672D01*
X1116281Y-793761D01*
X1117369Y-794849D01*
X1118457Y-795393D01*
X1120634D01*
X1121722Y-794849D01*
X1122811Y-793761D01*
X1123355Y-792672D01*
X1126565Y-783966D02*
Y-795393D01*
X1134184Y-783966D02*
X1126565Y-791584D01*
X1129286Y-788863D02*
X1134184Y-795393D01*
X1087066Y-842636D02*
Y-854063D01*
Y-842636D02*
X1091964D01*
X1093596Y-843180D01*
X1094140Y-843724D01*
X1094684Y-844812D01*
Y-845901D01*
X1094140Y-846989D01*
X1093596Y-847533D01*
X1091964Y-848077D01*
X1087066D01*
X1090875D02*
X1094684Y-854063D01*
X1104316Y-842636D02*
X1097242D01*
Y-854063D01*
X1104316D01*
X1097242Y-848077D02*
X1101595D01*
X1106221Y-842636D02*
Y-854063D01*
X1112751D01*
X1094684Y-908068D02*
X1093596Y-906980D01*
X1091963Y-906436D01*
X1089787D01*
X1088154Y-906980D01*
X1087066Y-908068D01*
Y-909156D01*
X1087610Y-910245D01*
X1088154Y-910789D01*
X1089243Y-911333D01*
X1092508Y-912421D01*
X1093596Y-912966D01*
X1094140Y-913510D01*
X1094684Y-914598D01*
Y-916231D01*
X1093596Y-917319D01*
X1091963Y-917863D01*
X1089787D01*
X1088154Y-917319D01*
X1087066Y-916231D01*
X1097242Y-906436D02*
Y-917863D01*
X1107255Y-906436D02*
X1099636Y-917863D01*
Y-906436D02*
X1107255D01*
X1099636Y-917863D02*
X1107255D01*
X1116886Y-906436D02*
X1109812D01*
Y-917863D01*
X1116886D01*
X1109812Y-911877D02*
X1114165D01*
X1368278Y-810224D02*
Y-821651D01*
X1364469Y-810224D02*
X1372087D01*
X1373447D02*
Y-821651D01*
X1379651Y-810224D02*
Y-821651D01*
X1375842Y-810224D02*
X1383460D01*
X1384821D02*
Y-821651D01*
X1391351D01*
X1399676Y-810224D02*
X1392602D01*
Y-821651D01*
X1399676D01*
X1392602Y-815665D02*
X1396956D01*
X1402125Y-814033D02*
X1401581Y-814577D01*
X1402125Y-815121D01*
X1402669Y-814577D01*
X1402125Y-814033D01*
Y-820563D02*
X1401581Y-821107D01*
X1402125Y-821651D01*
X1402669Y-821107D01*
X1402125Y-820563D01*
X2132466Y-903436D02*
Y-914863D01*
Y-903436D02*
X2137363D01*
X2138996Y-903980D01*
X2139540Y-904524D01*
X2140084Y-905612D01*
Y-906701D01*
X2139540Y-907789D01*
X2138996Y-908333D01*
X2137363Y-908877D01*
X2132466D01*
X2136275D02*
X2140084Y-914863D01*
X2149716Y-903436D02*
X2142642D01*
Y-914863D01*
X2149716D01*
X2142642Y-908877D02*
X2146995D01*
X2151621Y-903436D02*
X2155974Y-914863D01*
X2160327Y-903436D02*
X2155974Y-914863D01*
X2162341Y-907245D02*
X2161797Y-907789D01*
X2162341Y-908333D01*
X2162885Y-907789D01*
X2162341Y-907245D01*
Y-913775D02*
X2161797Y-914319D01*
X2162341Y-914863D01*
X2162885Y-914319D01*
X2162341Y-913775D01*
X1996684Y-955268D02*
X1995596Y-954180D01*
X1993963Y-953636D01*
X1991787D01*
X1990154Y-954180D01*
X1989066Y-955268D01*
Y-956356D01*
X1989610Y-957445D01*
X1990154Y-957989D01*
X1991243Y-958533D01*
X1994508Y-959621D01*
X1995596Y-960166D01*
X1996140Y-960710D01*
X1996684Y-961798D01*
Y-963431D01*
X1995596Y-964519D01*
X1993963Y-965063D01*
X1991787D01*
X1990154Y-964519D01*
X1989066Y-963431D01*
X1999242Y-953636D02*
Y-965063D01*
X2006860Y-953636D02*
Y-965063D01*
X1999242Y-959077D02*
X2006860D01*
X2017091Y-953636D02*
X2010016D01*
Y-965063D01*
X2017091D01*
X2010016Y-959077D02*
X2014370D01*
X2026069Y-953636D02*
X2018995D01*
Y-965063D01*
X2026069D01*
X2018995Y-959077D02*
X2023349D01*
X2031783Y-953636D02*
Y-965063D01*
X2027974Y-953636D02*
X2035592D01*
X2068310Y-953636D02*
X2067221Y-954180D01*
X2066133Y-955268D01*
X2065589Y-956356D01*
X2065045Y-957989D01*
Y-960710D01*
X2065589Y-962342D01*
X2066133Y-963431D01*
X2067221Y-964519D01*
X2068310Y-965063D01*
X2070486D01*
X2071575Y-964519D01*
X2072663Y-963431D01*
X2073207Y-962342D01*
X2073751Y-960710D01*
Y-957989D01*
X2073207Y-956356D01*
X2072663Y-955268D01*
X2071575Y-954180D01*
X2070486Y-953636D01*
X2068310D01*
X2076418D02*
Y-965063D01*
Y-953636D02*
X2083492D01*
X2076418Y-959077D02*
X2080771D01*
X1256084Y-905268D02*
X1254996Y-904180D01*
X1253363Y-903636D01*
X1251187D01*
X1249554Y-904180D01*
X1248466Y-905268D01*
Y-906356D01*
X1249010Y-907445D01*
X1249554Y-907989D01*
X1250643Y-908533D01*
X1253908Y-909621D01*
X1254996Y-910166D01*
X1255540Y-910710D01*
X1256084Y-911798D01*
Y-913431D01*
X1254996Y-914519D01*
X1253363Y-915063D01*
X1251187D01*
X1249554Y-914519D01*
X1248466Y-913431D01*
X1266804Y-906356D02*
X1266260Y-905268D01*
X1265172Y-904180D01*
X1264084Y-903636D01*
X1261907D01*
X1260819Y-904180D01*
X1259730Y-905268D01*
X1259186Y-906356D01*
X1258642Y-907989D01*
Y-910710D01*
X1259186Y-912342D01*
X1259730Y-913431D01*
X1260819Y-914519D01*
X1261907Y-915063D01*
X1264084D01*
X1265172Y-914519D01*
X1266260Y-913431D01*
X1266804Y-912342D01*
X1278722Y-915063D02*
X1274368Y-903636D01*
X1270015Y-915063D01*
X1271647Y-911254D02*
X1277089D01*
X1281388Y-903636D02*
Y-915063D01*
X1287918D01*
X1296244Y-903636D02*
X1289170D01*
Y-915063D01*
X1296244D01*
X1289170Y-909077D02*
X1293523D01*
X1298693Y-907445D02*
X1298149Y-907989D01*
X1298693Y-908533D01*
X1299237Y-907989D01*
X1298693Y-907445D01*
Y-913975D02*
X1298149Y-914519D01*
X1298693Y-915063D01*
X1299237Y-914519D01*
X1298693Y-913975D01*
X1363066Y-905636D02*
Y-917063D01*
Y-905636D02*
X1366875D01*
X1368508Y-906180D01*
X1369596Y-907268D01*
X1370140Y-908356D01*
X1370684Y-909989D01*
Y-912710D01*
X1370140Y-914342D01*
X1369596Y-915431D01*
X1368508Y-916519D01*
X1366875Y-917063D01*
X1363066D01*
X1373242Y-905636D02*
X1375963Y-917063D01*
X1378684Y-905636D02*
X1375963Y-917063D01*
X1378684Y-905636D02*
X1381404Y-917063D01*
X1384125Y-905636D02*
X1381404Y-917063D01*
X1394573Y-908356D02*
X1394029Y-907268D01*
X1392941Y-906180D01*
X1391853Y-905636D01*
X1389676D01*
X1388587Y-906180D01*
X1387499Y-907268D01*
X1386955Y-908356D01*
X1386411Y-909989D01*
Y-912710D01*
X1386955Y-914342D01*
X1387499Y-915431D01*
X1388587Y-916519D01*
X1389676Y-917063D01*
X1391853D01*
X1392941Y-916519D01*
X1394029Y-915431D01*
X1394573Y-914342D01*
Y-912710D01*
X1391853D02*
X1394573D01*
X1406164Y-905636D02*
Y-917063D01*
Y-905636D02*
X1413783Y-917063D01*
Y-905636D02*
Y-917063D01*
X1420204Y-905636D02*
X1419115Y-906180D01*
X1418027Y-907268D01*
X1417483Y-908356D01*
X1416939Y-909989D01*
Y-912710D01*
X1417483Y-914342D01*
X1418027Y-915431D01*
X1419115Y-916519D01*
X1420204Y-917063D01*
X1422380D01*
X1423469Y-916519D01*
X1424557Y-915431D01*
X1425101Y-914342D01*
X1425645Y-912710D01*
Y-909989D01*
X1425101Y-908356D01*
X1424557Y-907268D01*
X1423469Y-906180D01*
X1422380Y-905636D01*
X1420204D01*
X1428856Y-909445D02*
X1428312Y-909989D01*
X1428856Y-910533D01*
X1429400Y-909989D01*
X1428856Y-909445D01*
Y-915975D02*
X1428312Y-916519D01*
X1428856Y-917063D01*
X1429400Y-916519D01*
X1428856Y-915975D01*
X1247066Y-844436D02*
Y-855863D01*
Y-844436D02*
X1250875D01*
X1252508Y-844980D01*
X1253596Y-846068D01*
X1254140Y-847156D01*
X1254684Y-848789D01*
Y-851510D01*
X1254140Y-853142D01*
X1253596Y-854231D01*
X1252508Y-855319D01*
X1250875Y-855863D01*
X1247066D01*
X1265949D02*
X1261595Y-844436D01*
X1257242Y-855863D01*
X1258874Y-852054D02*
X1264316D01*
X1272424Y-844436D02*
Y-855863D01*
X1268615Y-844436D02*
X1276233D01*
X1284668D02*
X1277594D01*
Y-855863D01*
X1284668D01*
X1277594Y-849877D02*
X1281947D01*
X1287117Y-848245D02*
X1286573Y-848789D01*
X1287117Y-849333D01*
X1287661Y-848789D01*
X1287117Y-848245D01*
Y-854775D02*
X1286573Y-855319D01*
X1287117Y-855863D01*
X1287661Y-855319D01*
X1287117Y-854775D01*
X1243066Y-783436D02*
Y-794863D01*
Y-783436D02*
X1246875D01*
X1248508Y-783980D01*
X1249596Y-785068D01*
X1250140Y-786156D01*
X1250684Y-787789D01*
Y-790510D01*
X1250140Y-792142D01*
X1249596Y-793231D01*
X1248508Y-794319D01*
X1246875Y-794863D01*
X1243066D01*
X1261949D02*
X1257595Y-783436D01*
X1253242Y-794863D01*
X1254874Y-791054D02*
X1260316D01*
X1268424Y-783436D02*
Y-794863D01*
X1264615Y-783436D02*
X1272233D01*
X1280668D02*
X1273594D01*
Y-794863D01*
X1280668D01*
X1273594Y-788877D02*
X1277947D01*
X1283117Y-787245D02*
X1282573Y-787789D01*
X1283117Y-788333D01*
X1283661Y-787789D01*
X1283117Y-787245D01*
Y-793775D02*
X1282573Y-794319D01*
X1283117Y-794863D01*
X1283661Y-794319D01*
X1283117Y-793775D01*
X1243066Y-729436D02*
Y-740863D01*
Y-729436D02*
X1246875D01*
X1248508Y-729980D01*
X1249596Y-731068D01*
X1250140Y-732156D01*
X1250684Y-733789D01*
Y-736510D01*
X1250140Y-738142D01*
X1249596Y-739231D01*
X1248508Y-740319D01*
X1246875Y-740863D01*
X1243066D01*
X1261949D02*
X1257595Y-729436D01*
X1253242Y-740863D01*
X1254874Y-737054D02*
X1260316D01*
X1268424Y-729436D02*
Y-740863D01*
X1264615Y-729436D02*
X1272233D01*
X1280668D02*
X1273594D01*
Y-740863D01*
X1280668D01*
X1273594Y-734877D02*
X1277947D01*
X1283117Y-733245D02*
X1282573Y-733789D01*
X1283117Y-734333D01*
X1283661Y-733789D01*
X1283117Y-733245D01*
Y-739775D02*
X1282573Y-740319D01*
X1283117Y-740863D01*
X1283661Y-740319D01*
X1283117Y-739775D01*
X1246066Y-674436D02*
Y-685863D01*
Y-674436D02*
X1249875D01*
X1251508Y-674980D01*
X1252596Y-676068D01*
X1253140Y-677156D01*
X1253684Y-678789D01*
Y-681510D01*
X1253140Y-683142D01*
X1252596Y-684231D01*
X1251508Y-685319D01*
X1249875Y-685863D01*
X1246066D01*
X1264949D02*
X1260595Y-674436D01*
X1256242Y-685863D01*
X1257874Y-682054D02*
X1263316D01*
X1271424Y-674436D02*
Y-685863D01*
X1267615Y-674436D02*
X1275233D01*
X1283668D02*
X1276594D01*
Y-685863D01*
X1283668D01*
X1276594Y-679877D02*
X1280947D01*
X1286117Y-678245D02*
X1285573Y-678789D01*
X1286117Y-679333D01*
X1286661Y-678789D01*
X1286117Y-678245D01*
Y-684775D02*
X1285573Y-685319D01*
X1286117Y-685863D01*
X1286661Y-685319D01*
X1286117Y-684775D01*
D81*
X1248642Y-756525D02*
Y-755811D01*
X1249356Y-754382D01*
X1250070Y-753668D01*
X1251499Y-752954D01*
X1254355D01*
X1255783Y-753668D01*
X1256497Y-754382D01*
X1257212Y-755811D01*
Y-757239D01*
X1256497Y-758667D01*
X1255069Y-760810D01*
X1247928Y-767951D01*
X1257926D01*
X1261282Y-755811D02*
X1262710Y-755097D01*
X1264853Y-752954D01*
Y-767951D01*
X1272280Y-770094D02*
X1282278Y-752954D01*
X1287562D02*
X1285420Y-753668D01*
X1283992Y-755811D01*
X1283277Y-759381D01*
Y-761524D01*
X1283992Y-765095D01*
X1285420Y-767237D01*
X1287562Y-767951D01*
X1288990D01*
X1291133Y-767237D01*
X1292561Y-765095D01*
X1293275Y-761524D01*
Y-759381D01*
X1292561Y-755811D01*
X1291133Y-753668D01*
X1288990Y-752954D01*
X1287562D01*
X1296632Y-755811D02*
X1298060Y-755097D01*
X1300202Y-752954D01*
Y-767951D01*
X1307629Y-770094D02*
X1317627Y-752954D01*
X1318627Y-755811D02*
X1320055Y-755097D01*
X1322198Y-752954D01*
Y-767951D01*
X1338908Y-757953D02*
X1338194Y-760096D01*
X1336766Y-761524D01*
X1334624Y-762238D01*
X1333909D01*
X1331767Y-761524D01*
X1330339Y-760096D01*
X1329625Y-757953D01*
Y-757239D01*
X1330339Y-755097D01*
X1331767Y-753668D01*
X1333909Y-752954D01*
X1334624D01*
X1336766Y-753668D01*
X1338194Y-755097D01*
X1338908Y-757953D01*
Y-761524D01*
X1338194Y-765095D01*
X1336766Y-767237D01*
X1334624Y-767951D01*
X1333195D01*
X1331053Y-767237D01*
X1330339Y-765809D01*
X1248642Y-702025D02*
Y-701311D01*
X1249356Y-699883D01*
X1250070Y-699168D01*
X1251499Y-698454D01*
X1254355D01*
X1255783Y-699168D01*
X1256497Y-699883D01*
X1257212Y-701311D01*
Y-702739D01*
X1256497Y-704167D01*
X1255069Y-706310D01*
X1247928Y-713451D01*
X1257926D01*
X1261282Y-701311D02*
X1262710Y-700597D01*
X1264853Y-698454D01*
Y-713451D01*
X1272280Y-715593D02*
X1282278Y-698454D01*
X1287562D02*
X1285420Y-699168D01*
X1283992Y-701311D01*
X1283277Y-704882D01*
Y-707024D01*
X1283992Y-710594D01*
X1285420Y-712737D01*
X1287562Y-713451D01*
X1288990D01*
X1291133Y-712737D01*
X1292561Y-710594D01*
X1293275Y-707024D01*
Y-704882D01*
X1292561Y-701311D01*
X1291133Y-699168D01*
X1288990Y-698454D01*
X1287562D01*
X1296632Y-701311D02*
X1298060Y-700597D01*
X1300202Y-698454D01*
Y-713451D01*
X1307629Y-715593D02*
X1317627Y-698454D01*
X1318627Y-701311D02*
X1320055Y-700597D01*
X1322198Y-698454D01*
Y-713451D01*
X1338908Y-703453D02*
X1338194Y-705596D01*
X1336766Y-707024D01*
X1334624Y-707738D01*
X1333909D01*
X1331767Y-707024D01*
X1330339Y-705596D01*
X1329625Y-703453D01*
Y-702739D01*
X1330339Y-700597D01*
X1331767Y-699168D01*
X1333909Y-698454D01*
X1334624D01*
X1336766Y-699168D01*
X1338194Y-700597D01*
X1338908Y-703453D01*
Y-707024D01*
X1338194Y-710594D01*
X1336766Y-712737D01*
X1334624Y-713451D01*
X1333195D01*
X1331053Y-712737D01*
X1330339Y-711309D01*
X749066Y-687866D02*
Y-698578D01*
X749780Y-700721D01*
X751208Y-702149D01*
X753351Y-702863D01*
X754779D01*
X756921Y-702149D01*
X758350Y-700721D01*
X759064Y-698578D01*
Y-687866D01*
X763206D02*
Y-702863D01*
Y-687866D02*
X773204Y-702863D01*
Y-687866D02*
Y-702863D01*
X777346Y-687866D02*
Y-702863D01*
X785915D01*
X796842Y-687866D02*
X787558D01*
Y-702863D01*
X796842D01*
X787558Y-695008D02*
X793271D01*
X809339Y-690009D02*
X807911Y-688580D01*
X805768Y-687866D01*
X802912D01*
X800769Y-688580D01*
X799341Y-690009D01*
Y-691437D01*
X800055Y-692865D01*
X800769Y-693579D01*
X802197Y-694294D01*
X806482Y-695722D01*
X807911Y-696436D01*
X808625Y-697150D01*
X809339Y-698578D01*
Y-700721D01*
X807911Y-702149D01*
X805768Y-702863D01*
X802912D01*
X800769Y-702149D01*
X799341Y-700721D01*
X822693Y-690009D02*
X821265Y-688580D01*
X819122Y-687866D01*
X816266D01*
X814124Y-688580D01*
X812695Y-690009D01*
Y-691437D01*
X813409Y-692865D01*
X814124Y-693579D01*
X815552Y-694294D01*
X819837Y-695722D01*
X821265Y-696436D01*
X821979Y-697150D01*
X822693Y-698578D01*
Y-700721D01*
X821265Y-702149D01*
X819122Y-702863D01*
X816266D01*
X814124Y-702149D01*
X812695Y-700721D01*
X842117Y-687866D02*
X840689Y-688580D01*
X839261Y-690009D01*
X838547Y-691437D01*
X837833Y-693579D01*
Y-697150D01*
X838547Y-699293D01*
X839261Y-700721D01*
X840689Y-702149D01*
X842117Y-702863D01*
X844974D01*
X846402Y-702149D01*
X847831Y-700721D01*
X848545Y-699293D01*
X849259Y-697150D01*
Y-693579D01*
X848545Y-691437D01*
X847831Y-690009D01*
X846402Y-688580D01*
X844974Y-687866D01*
X842117D01*
X857757D02*
Y-702863D01*
X852758Y-687866D02*
X862756D01*
X864541D02*
Y-702863D01*
X874539Y-687866D02*
Y-702863D01*
X864541Y-695008D02*
X874539D01*
X887965Y-687866D02*
X878681D01*
Y-702863D01*
X887965D01*
X878681Y-695008D02*
X884394D01*
X890464Y-687866D02*
Y-702863D01*
Y-687866D02*
X896891D01*
X899034Y-688580D01*
X899748Y-689295D01*
X900462Y-690723D01*
Y-692151D01*
X899748Y-693579D01*
X899034Y-694294D01*
X896891Y-695008D01*
X890464D01*
X895463D02*
X900462Y-702863D01*
X903819Y-687866D02*
X907389Y-702863D01*
X910960Y-687866D02*
X907389Y-702863D01*
X910960Y-687866D02*
X914530Y-702863D01*
X918101Y-687866D02*
X914530Y-702863D01*
X921100Y-687866D02*
Y-702863D01*
X934240Y-690009D02*
X932812Y-688580D01*
X930670Y-687866D01*
X927813D01*
X925671Y-688580D01*
X924243Y-690009D01*
Y-691437D01*
X924957Y-692865D01*
X925671Y-693579D01*
X927099Y-694294D01*
X931384Y-695722D01*
X932812Y-696436D01*
X933526Y-697150D01*
X934240Y-698578D01*
Y-700721D01*
X932812Y-702149D01*
X930670Y-702863D01*
X927813D01*
X925671Y-702149D01*
X924243Y-700721D01*
X946881Y-687866D02*
X937597D01*
Y-702863D01*
X946881D01*
X937597Y-695008D02*
X943310D01*
X971161Y-690009D02*
X969733Y-688580D01*
X967590Y-687866D01*
X964734D01*
X962592Y-688580D01*
X961163Y-690009D01*
Y-691437D01*
X961878Y-692865D01*
X962592Y-693579D01*
X964020Y-694294D01*
X968305Y-695722D01*
X969733Y-696436D01*
X970447Y-697150D01*
X971161Y-698578D01*
Y-700721D01*
X969733Y-702149D01*
X967590Y-702863D01*
X964734D01*
X962592Y-702149D01*
X961163Y-700721D01*
X974518Y-695722D02*
X980945D01*
X983087Y-695008D01*
X983801Y-694294D01*
X984516Y-692865D01*
Y-690723D01*
X983801Y-689295D01*
X983087Y-688580D01*
X980945Y-687866D01*
X974518D01*
Y-702863D01*
X997156Y-687866D02*
X987872D01*
Y-702863D01*
X997156D01*
X987872Y-695008D02*
X993585D01*
X1010367Y-691437D02*
X1009653Y-690009D01*
X1008225Y-688580D01*
X1006796Y-687866D01*
X1003940D01*
X1002512Y-688580D01*
X1001083Y-690009D01*
X1000369Y-691437D01*
X999655Y-693579D01*
Y-697150D01*
X1000369Y-699293D01*
X1001083Y-700721D01*
X1002512Y-702149D01*
X1003940Y-702863D01*
X1006796D01*
X1008225Y-702149D01*
X1009653Y-700721D01*
X1010367Y-699293D01*
X1014581Y-687866D02*
Y-702863D01*
X1017723Y-687866D02*
Y-702863D01*
Y-687866D02*
X1027006D01*
X1017723Y-695008D02*
X1023436D01*
X1028720Y-687866D02*
Y-702863D01*
X1041146Y-687866D02*
X1031862D01*
Y-702863D01*
X1041146D01*
X1031862Y-695008D02*
X1037576D01*
X1043646Y-687866D02*
Y-702863D01*
Y-687866D02*
X1048645D01*
X1050787Y-688580D01*
X1052215Y-690009D01*
X1052929Y-691437D01*
X1053643Y-693579D01*
Y-697150D01*
X1052929Y-699293D01*
X1052215Y-700721D01*
X1050787Y-702149D01*
X1048645Y-702863D01*
X1043646D01*
X780066Y-719866D02*
Y-734863D01*
Y-719866D02*
X785065D01*
X787207Y-720580D01*
X788636Y-722009D01*
X789350Y-723437D01*
X790064Y-725579D01*
Y-729150D01*
X789350Y-731292D01*
X788636Y-732721D01*
X787207Y-734149D01*
X785065Y-734863D01*
X780066D01*
X793420Y-719866D02*
Y-734863D01*
X796562Y-719866D02*
Y-734863D01*
Y-719866D02*
X802275Y-734863D01*
X807989Y-719866D02*
X802275Y-734863D01*
X807989Y-719866D02*
Y-734863D01*
X821557Y-719866D02*
X812273D01*
Y-734863D01*
X821557D01*
X812273Y-727008D02*
X817987D01*
X824057Y-719866D02*
Y-734863D01*
Y-719866D02*
X834054Y-734863D01*
Y-719866D02*
Y-734863D01*
X848194Y-722009D02*
X846766Y-720580D01*
X844624Y-719866D01*
X841767D01*
X839625Y-720580D01*
X838196Y-722009D01*
Y-723437D01*
X838911Y-724865D01*
X839625Y-725579D01*
X841053Y-726293D01*
X845338Y-727722D01*
X846766Y-728436D01*
X847480Y-729150D01*
X848194Y-730578D01*
Y-732721D01*
X846766Y-734149D01*
X844624Y-734863D01*
X841767D01*
X839625Y-734149D01*
X838196Y-732721D01*
X851551Y-719866D02*
Y-734863D01*
X858978Y-719866D02*
X857549Y-720580D01*
X856121Y-722009D01*
X855407Y-723437D01*
X854693Y-725579D01*
Y-729150D01*
X855407Y-731292D01*
X856121Y-732721D01*
X857549Y-734149D01*
X858978Y-734863D01*
X861834D01*
X863262Y-734149D01*
X864691Y-732721D01*
X865405Y-731292D01*
X866119Y-729150D01*
Y-725579D01*
X865405Y-723437D01*
X864691Y-722009D01*
X863262Y-720580D01*
X861834Y-719866D01*
X858978D01*
X869618D02*
Y-734863D01*
Y-719866D02*
X879616Y-734863D01*
Y-719866D02*
Y-734863D01*
X893756Y-722009D02*
X892328Y-720580D01*
X890185Y-719866D01*
X887329D01*
X885186Y-720580D01*
X883758Y-722009D01*
Y-723437D01*
X884472Y-724865D01*
X885186Y-725579D01*
X886615Y-726293D01*
X890899Y-727722D01*
X892328Y-728436D01*
X893042Y-729150D01*
X893756Y-730578D01*
Y-732721D01*
X892328Y-734149D01*
X890185Y-734863D01*
X887329D01*
X885186Y-734149D01*
X883758Y-732721D01*
X920322Y-734863D02*
X914609Y-719866D01*
X908895Y-734863D01*
X911038Y-729864D02*
X918179D01*
X923821Y-719866D02*
Y-734863D01*
Y-719866D02*
X930248D01*
X932391Y-720580D01*
X933105Y-721294D01*
X933819Y-722723D01*
Y-724151D01*
X933105Y-725579D01*
X932391Y-726293D01*
X930248Y-727008D01*
X923821D01*
X928820D02*
X933819Y-734863D01*
X946459Y-719866D02*
X937175D01*
Y-734863D01*
X946459D01*
X937175Y-727008D02*
X942888D01*
X960742Y-719866D02*
Y-734863D01*
X963884Y-719866D02*
Y-734863D01*
Y-719866D02*
X973882Y-734863D01*
Y-719866D02*
Y-734863D01*
X989807Y-719866D02*
Y-734863D01*
Y-719866D02*
X995520Y-734863D01*
X1001233Y-719866D02*
X995520Y-734863D01*
X1001233Y-719866D02*
Y-734863D01*
X1005518Y-719866D02*
Y-734863D01*
Y-719866D02*
X1011231Y-734863D01*
X1016944Y-719866D02*
X1011231Y-734863D01*
X1016944Y-719866D02*
Y-734863D01*
X836065Y-751866D02*
Y-766863D01*
X831066Y-751866D02*
X841064D01*
X847134D02*
X845706Y-752580D01*
X844277Y-754009D01*
X843563Y-755437D01*
X842849Y-757579D01*
Y-761150D01*
X843563Y-763292D01*
X844277Y-764721D01*
X845706Y-766149D01*
X847134Y-766863D01*
X849990D01*
X851419Y-766149D01*
X852847Y-764721D01*
X853561Y-763292D01*
X854275Y-761150D01*
Y-757579D01*
X853561Y-755437D01*
X852847Y-754009D01*
X851419Y-752580D01*
X849990Y-751866D01*
X847134D01*
X857775D02*
Y-766863D01*
X866344D01*
X877270Y-751866D02*
X867987D01*
Y-766863D01*
X877270D01*
X867987Y-759008D02*
X873700D01*
X879770Y-751866D02*
Y-766863D01*
Y-751866D02*
X886197D01*
X888339Y-752580D01*
X889054Y-753295D01*
X889768Y-754723D01*
Y-756151D01*
X889054Y-757579D01*
X888339Y-758294D01*
X886197Y-759008D01*
X879770D01*
X884769D02*
X889768Y-766863D01*
X904550D02*
X898837Y-751866D01*
X893124Y-766863D01*
X895266Y-761864D02*
X902408D01*
X908049Y-751866D02*
Y-766863D01*
Y-751866D02*
X918047Y-766863D01*
Y-751866D02*
Y-766863D01*
X932901Y-755437D02*
X932187Y-754009D01*
X930759Y-752580D01*
X929331Y-751866D01*
X926474D01*
X925046Y-752580D01*
X923618Y-754009D01*
X922903Y-755437D01*
X922189Y-757579D01*
Y-761150D01*
X922903Y-763292D01*
X923618Y-764721D01*
X925046Y-766149D01*
X926474Y-766863D01*
X929331D01*
X930759Y-766149D01*
X932187Y-764721D01*
X932901Y-763292D01*
X946398Y-751866D02*
X937115D01*
Y-766863D01*
X946398D01*
X937115Y-759008D02*
X942828D01*
X958896Y-754009D02*
X957467Y-752580D01*
X955325Y-751866D01*
X952468D01*
X950326Y-752580D01*
X948898Y-754009D01*
Y-755437D01*
X949612Y-756865D01*
X950326Y-757579D01*
X951754Y-758294D01*
X956039Y-759722D01*
X957467Y-760436D01*
X958182Y-761150D01*
X958896Y-762578D01*
Y-764721D01*
X957467Y-766149D01*
X955325Y-766863D01*
X952468D01*
X950326Y-766149D01*
X948898Y-764721D01*
X750066Y-794866D02*
Y-809863D01*
Y-794866D02*
X755065D01*
X757207Y-795580D01*
X758636Y-797009D01*
X759350Y-798437D01*
X760064Y-800579D01*
Y-804150D01*
X759350Y-806292D01*
X758636Y-807721D01*
X757207Y-809149D01*
X755065Y-809863D01*
X750066D01*
X772704Y-794866D02*
X763420D01*
Y-809863D01*
X772704D01*
X763420Y-802008D02*
X769133D01*
X785916Y-798437D02*
X785201Y-797009D01*
X783773Y-795580D01*
X782345Y-794866D01*
X779488D01*
X778060Y-795580D01*
X776632Y-797009D01*
X775918Y-798437D01*
X775203Y-800579D01*
Y-804150D01*
X775918Y-806292D01*
X776632Y-807721D01*
X778060Y-809149D01*
X779488Y-809863D01*
X782345D01*
X783773Y-809149D01*
X785201Y-807721D01*
X785916Y-806292D01*
X790129Y-794866D02*
Y-809863D01*
X793271Y-794866D02*
Y-809863D01*
Y-794866D02*
X798984Y-809863D01*
X804697Y-794866D02*
X798984Y-809863D01*
X804697Y-794866D02*
Y-809863D01*
X820408D02*
X814695Y-794866D01*
X808982Y-809863D01*
X811124Y-804864D02*
X818266D01*
X823907Y-794866D02*
Y-809863D01*
X832477D01*
X844117Y-797009D02*
X842689Y-795580D01*
X840547Y-794866D01*
X837690D01*
X835548Y-795580D01*
X834119Y-797009D01*
Y-798437D01*
X834834Y-799865D01*
X835548Y-800579D01*
X836976Y-801293D01*
X841261Y-802722D01*
X842689Y-803436D01*
X843403Y-804150D01*
X844117Y-805578D01*
Y-807721D01*
X842689Y-809149D01*
X840547Y-809863D01*
X837690D01*
X835548Y-809149D01*
X834119Y-807721D01*
X965492Y-806863D02*
X959779Y-791866D01*
X954066Y-806863D01*
X956208Y-801864D02*
X963350D01*
X968991Y-791866D02*
Y-806863D01*
Y-791866D02*
X978989Y-806863D01*
Y-791866D02*
Y-806863D01*
X993843Y-795437D02*
X993129Y-794009D01*
X991701Y-792580D01*
X990273Y-791866D01*
X987416D01*
X985988Y-792580D01*
X984559Y-794009D01*
X983845Y-795437D01*
X983131Y-797579D01*
Y-801150D01*
X983845Y-803292D01*
X984559Y-804721D01*
X985988Y-806149D01*
X987416Y-806863D01*
X990273D01*
X991701Y-806149D01*
X993129Y-804721D01*
X993843Y-803292D01*
Y-801150D01*
X990273D02*
X993843D01*
X997271Y-791866D02*
Y-802578D01*
X997985Y-804721D01*
X999413Y-806149D01*
X1001556Y-806863D01*
X1002984D01*
X1005126Y-806149D01*
X1006555Y-804721D01*
X1007269Y-802578D01*
Y-791866D01*
X1011411D02*
Y-806863D01*
X1019980D01*
X1033049D02*
X1027336Y-791866D01*
X1021623Y-806863D01*
X1023765Y-801864D02*
X1030907D01*
X1036548Y-791866D02*
Y-806863D01*
Y-791866D02*
X1042975D01*
X1045118Y-792580D01*
X1045832Y-793295D01*
X1046546Y-794723D01*
Y-796151D01*
X1045832Y-797579D01*
X1045118Y-798294D01*
X1042975Y-799008D01*
X1036548D01*
X1041547D02*
X1046546Y-806863D01*
X957493Y-838009D02*
Y-850863D01*
X951066Y-844436D02*
X963920D01*
X968348Y-853006D02*
X978346Y-835866D01*
X979346Y-844436D02*
X992200D01*
X738780Y-848435D02*
X738066Y-849149D01*
X738780Y-849863D01*
X739494Y-849149D01*
X738780Y-848435D01*
X742779Y-834866D02*
X752777Y-849863D01*
Y-834866D02*
X742779Y-849863D01*
X756134Y-834866D02*
X766131Y-849863D01*
Y-834866D02*
X756134Y-849863D01*
X787698Y-837009D02*
Y-849863D01*
X781271Y-843436D02*
X794125D01*
X798553Y-852005D02*
X808551Y-834866D01*
X809551Y-843436D02*
X822405D01*
X839330Y-848435D02*
X838616Y-849149D01*
X839330Y-849863D01*
X840044Y-849149D01*
X839330Y-848435D01*
X843329Y-837723D02*
X844757Y-837009D01*
X846900Y-834866D01*
Y-849863D01*
X855041Y-838437D02*
Y-837723D01*
X855755Y-836294D01*
X856469Y-835580D01*
X857897Y-834866D01*
X860754D01*
X862182Y-835580D01*
X862896Y-836294D01*
X863611Y-837723D01*
Y-839151D01*
X862896Y-840579D01*
X861468Y-842722D01*
X854327Y-849863D01*
X864325D01*
X877679Y-834866D02*
X870538Y-849863D01*
X867681Y-834866D02*
X877679D01*
X881035D02*
Y-849863D01*
Y-834866D02*
X886748Y-849863D01*
X892461Y-834866D02*
X886748Y-849863D01*
X892461Y-834866D02*
Y-849863D01*
X896746Y-834866D02*
Y-849863D01*
Y-834866D02*
X902459Y-849863D01*
X908172Y-834866D02*
X902459Y-849863D01*
X908172Y-834866D02*
Y-849863D01*
X735780Y-889435D02*
X735066Y-890149D01*
X735780Y-890863D01*
X736494Y-890149D01*
X735780Y-889435D01*
X739779Y-875866D02*
X749777Y-890863D01*
Y-875866D02*
X739779Y-890863D01*
X753134Y-875866D02*
X763131Y-890863D01*
Y-875866D02*
X753134Y-890863D01*
X766488Y-875866D02*
X776486Y-890863D01*
Y-875866D02*
X766488Y-890863D01*
X798053Y-878009D02*
Y-890863D01*
X791625Y-884436D02*
X804480D01*
X808907Y-893006D02*
X818905Y-875866D01*
X819905Y-884436D02*
X832759D01*
X849684Y-889435D02*
X848970Y-890149D01*
X849684Y-890863D01*
X850398Y-890149D01*
X849684Y-889435D01*
X857968Y-875866D02*
X855826Y-876580D01*
X854398Y-878723D01*
X853683Y-882293D01*
Y-884436D01*
X854398Y-888007D01*
X855826Y-890149D01*
X857968Y-890863D01*
X859397D01*
X861539Y-890149D01*
X862967Y-888007D01*
X863681Y-884436D01*
Y-882293D01*
X862967Y-878723D01*
X861539Y-876580D01*
X859397Y-875866D01*
X857968D01*
X870608D02*
X868466Y-876580D01*
X867752Y-878009D01*
Y-879437D01*
X868466Y-880865D01*
X869894Y-881579D01*
X872751Y-882293D01*
X874893Y-883008D01*
X876321Y-884436D01*
X877036Y-885864D01*
Y-888007D01*
X876321Y-889435D01*
X875607Y-890149D01*
X873465Y-890863D01*
X870608D01*
X868466Y-890149D01*
X867752Y-889435D01*
X867038Y-888007D01*
Y-885864D01*
X867752Y-884436D01*
X869180Y-883008D01*
X871322Y-882293D01*
X874179Y-881579D01*
X875607Y-880865D01*
X876321Y-879437D01*
Y-878009D01*
X875607Y-876580D01*
X873465Y-875866D01*
X870608D01*
X884677D02*
X882534Y-876580D01*
X881106Y-878723D01*
X880392Y-882293D01*
Y-884436D01*
X881106Y-888007D01*
X882534Y-890149D01*
X884677Y-890863D01*
X886105D01*
X888247Y-890149D01*
X889676Y-888007D01*
X890390Y-884436D01*
Y-882293D01*
X889676Y-878723D01*
X888247Y-876580D01*
X886105Y-875866D01*
X884677D01*
X893746D02*
Y-890863D01*
Y-875866D02*
X899459Y-890863D01*
X905172Y-875866D02*
X899459Y-890863D01*
X905172Y-875866D02*
Y-890863D01*
X909457Y-875866D02*
Y-890863D01*
Y-875866D02*
X915170Y-890863D01*
X920883Y-875866D02*
X915170Y-890863D01*
X920883Y-875866D02*
Y-890863D01*
X749066Y-933867D02*
Y-951863D01*
Y-933867D02*
X755065D01*
X757636Y-934724D01*
X759350Y-936438D01*
X760207Y-938152D01*
X761063Y-940723D01*
Y-945007D01*
X760207Y-947578D01*
X759350Y-949292D01*
X757636Y-951006D01*
X755065Y-951863D01*
X749066D01*
X770233Y-933867D02*
X768519Y-934724D01*
X766805Y-936438D01*
X765948Y-938152D01*
X765091Y-940723D01*
Y-945007D01*
X765948Y-947578D01*
X766805Y-949292D01*
X768519Y-951006D01*
X770233Y-951863D01*
X773661D01*
X775375Y-951006D01*
X777089Y-949292D01*
X777945Y-947578D01*
X778802Y-945007D01*
Y-940723D01*
X777945Y-938152D01*
X777089Y-936438D01*
X775375Y-934724D01*
X773661Y-933867D01*
X770233D01*
X797141D02*
Y-951863D01*
Y-933867D02*
X809139Y-951863D01*
Y-933867D02*
Y-951863D01*
X819251Y-933867D02*
X817537Y-934724D01*
X815823Y-936438D01*
X814966Y-938152D01*
X814109Y-940723D01*
Y-945007D01*
X814966Y-947578D01*
X815823Y-949292D01*
X817537Y-951006D01*
X819251Y-951863D01*
X822679D01*
X824393Y-951006D01*
X826107Y-949292D01*
X826964Y-947578D01*
X827821Y-945007D01*
Y-940723D01*
X826964Y-938152D01*
X826107Y-936438D01*
X824393Y-934724D01*
X822679Y-933867D01*
X819251D01*
X838018D02*
Y-951863D01*
X832020Y-933867D02*
X844017D01*
X872297Y-936438D02*
X870583Y-934724D01*
X868012Y-933867D01*
X864584D01*
X862013Y-934724D01*
X860299Y-936438D01*
Y-938152D01*
X861156Y-939866D01*
X862013Y-940723D01*
X863727Y-941580D01*
X868869Y-943294D01*
X870583Y-944150D01*
X871440Y-945007D01*
X872297Y-946721D01*
Y-949292D01*
X870583Y-951006D01*
X868012Y-951863D01*
X864584D01*
X862013Y-951006D01*
X860299Y-949292D01*
X889179Y-938152D02*
X888322Y-936438D01*
X886608Y-934724D01*
X884894Y-933867D01*
X881466D01*
X879752Y-934724D01*
X878038Y-936438D01*
X877181Y-938152D01*
X876324Y-940723D01*
Y-945007D01*
X877181Y-947578D01*
X878038Y-949292D01*
X879752Y-951006D01*
X881466Y-951863D01*
X884894D01*
X886608Y-951006D01*
X888322Y-949292D01*
X889179Y-947578D01*
X907946Y-951863D02*
X901090Y-933867D01*
X894235Y-951863D01*
X896806Y-945864D02*
X905375D01*
X912145Y-933867D02*
Y-951863D01*
X922429D01*
X935540Y-933867D02*
X924400D01*
Y-951863D01*
X935540D01*
X924400Y-942437D02*
X931255D01*
X952679Y-933867D02*
Y-951863D01*
Y-933867D02*
X958678D01*
X961249Y-934724D01*
X962963Y-936438D01*
X963820Y-938152D01*
X964677Y-940723D01*
Y-945007D01*
X963820Y-947578D01*
X962963Y-949292D01*
X961249Y-951006D01*
X958678Y-951863D01*
X952679D01*
X968705Y-933867D02*
Y-951863D01*
Y-933867D02*
X976417D01*
X978988Y-934724D01*
X979845Y-935581D01*
X980702Y-937295D01*
Y-939009D01*
X979845Y-940723D01*
X978988Y-941580D01*
X976417Y-942437D01*
X968705D01*
X974703D02*
X980702Y-951863D01*
X998441D02*
X991585Y-933867D01*
X984730Y-951863D01*
X987301Y-945864D02*
X995870D01*
X1002640Y-933867D02*
X1006925Y-951863D01*
X1011210Y-933867D02*
X1006925Y-951863D01*
X1011210Y-933867D02*
X1015495Y-951863D01*
X1019779Y-933867D02*
X1015495Y-951863D01*
X1023379Y-933867D02*
Y-951863D01*
X1027149Y-933867D02*
Y-951863D01*
Y-933867D02*
X1039147Y-951863D01*
Y-933867D02*
Y-951863D01*
X1056971Y-938152D02*
X1056114Y-936438D01*
X1054400Y-934724D01*
X1052686Y-933867D01*
X1049259D01*
X1047545Y-934724D01*
X1045831Y-936438D01*
X1044974Y-938152D01*
X1044117Y-940723D01*
Y-945007D01*
X1044974Y-947578D01*
X1045831Y-949292D01*
X1047545Y-951006D01*
X1049259Y-951863D01*
X1052686D01*
X1054400Y-951006D01*
X1056114Y-949292D01*
X1056971Y-947578D01*
Y-945007D01*
X1052686D02*
X1056971D01*
D83*
X2241618Y-727417D02*
Y-745193D01*
Y-727417D02*
X2247543D01*
X2250083Y-728263D01*
X2251776Y-729956D01*
X2252622Y-731649D01*
X2253469Y-734189D01*
Y-738421D01*
X2252622Y-740961D01*
X2251776Y-742654D01*
X2250083Y-744347D01*
X2247543Y-745193D01*
X2241618D01*
X1960184Y-992084D02*
X1959337Y-990391D01*
X1956798Y-989545D01*
X1955105D01*
X1952565Y-990391D01*
X1950872Y-992931D01*
X1950026Y-997163D01*
Y-1001396D01*
X1950872Y-1004782D01*
X1952565Y-1006475D01*
X1955105Y-1007321D01*
X1955951D01*
X1958491Y-1006475D01*
X1960184Y-1004782D01*
X1961030Y-1002242D01*
Y-1001396D01*
X1960184Y-998856D01*
X1958491Y-997163D01*
X1955951Y-996317D01*
X1955105D01*
X1952565Y-997163D01*
X1950872Y-998856D01*
X1950026Y-1001396D01*
X687477Y-989545D02*
X679013Y-1001396D01*
X691710D01*
X687477Y-989545D02*
Y-1007321D01*
X44012Y-989545D02*
X53323D01*
X48245Y-996317D01*
X50784D01*
X52477Y-997163D01*
X53323Y-998010D01*
X54170Y-1000549D01*
Y-1002242D01*
X53323Y-1004782D01*
X51631Y-1006475D01*
X49091Y-1007321D01*
X46552D01*
X44012Y-1006475D01*
X43166Y-1005628D01*
X42319Y-1003935D01*
X1323914Y-989545D02*
X1315449D01*
X1314602Y-997163D01*
X1315449Y-996317D01*
X1317988Y-995470D01*
X1320528D01*
X1323067Y-996317D01*
X1324760Y-998010D01*
X1325607Y-1000549D01*
Y-1002242D01*
X1324760Y-1004782D01*
X1323067Y-1006475D01*
X1320528Y-1007321D01*
X1317988D01*
X1315449Y-1006475D01*
X1314602Y-1005628D01*
X1313756Y-1003935D01*
X-589128Y-993777D02*
Y-992931D01*
X-588281Y-991238D01*
X-587435Y-990391D01*
X-585742Y-989545D01*
X-582356D01*
X-580663Y-990391D01*
X-579816Y-991238D01*
X-578970Y-992931D01*
Y-994624D01*
X-579816Y-996317D01*
X-581509Y-998856D01*
X-589974Y-1007321D01*
X-578123D01*
X-1223873Y-992931D02*
X-1222179Y-992084D01*
X-1219640Y-989545D01*
Y-1007321D01*
X-1517582Y-727417D02*
Y-745193D01*
Y-727417D02*
X-1511657D01*
X-1509117Y-728263D01*
X-1507424Y-729956D01*
X-1506578Y-731649D01*
X-1505731Y-734189D01*
Y-738421D01*
X-1506578Y-740961D01*
X-1507424Y-742654D01*
X-1509117Y-744347D01*
X-1511657Y-745193D01*
X-1517582D01*
X-1504885Y-129669D02*
X-1505731Y-127976D01*
X-1507424Y-126283D01*
X-1509117Y-125437D01*
X-1512503D01*
X-1514196Y-126283D01*
X-1515889Y-127976D01*
X-1516736Y-129669D01*
X-1517582Y-132209D01*
Y-136441D01*
X-1516736Y-138981D01*
X-1515889Y-140674D01*
X-1514196Y-142367D01*
X-1512503Y-143213D01*
X-1509117D01*
X-1507424Y-142367D01*
X-1505731Y-140674D01*
X-1504885Y-138981D01*
X-1517582Y477813D02*
Y460037D01*
Y477813D02*
X-1509964D01*
X-1507424Y476967D01*
X-1506578Y476120D01*
X-1505731Y474427D01*
Y472734D01*
X-1506578Y471041D01*
X-1507424Y470195D01*
X-1509964Y469348D01*
X-1517582D02*
X-1509964D01*
X-1507424Y468502D01*
X-1506578Y467655D01*
X-1505731Y465962D01*
Y463423D01*
X-1506578Y461730D01*
X-1507424Y460883D01*
X-1509964Y460037D01*
X-1517582D01*
X-1504038Y1064557D02*
X-1510810Y1082333D01*
X-1517582Y1064557D01*
X-1515043Y1070482D02*
X-1506578D01*
X-1223873Y1369269D02*
X-1222179Y1370116D01*
X-1219640Y1372655D01*
Y1354879D01*
X-589128Y1368423D02*
Y1369269D01*
X-588281Y1370962D01*
X-587435Y1371809D01*
X-585742Y1372655D01*
X-582356D01*
X-580663Y1371809D01*
X-579816Y1370962D01*
X-578970Y1369269D01*
Y1367576D01*
X-579816Y1365883D01*
X-581509Y1363344D01*
X-589974Y1354879D01*
X-578123D01*
X44012Y1372655D02*
X53323D01*
X48245Y1365883D01*
X50784D01*
X52477Y1365037D01*
X53323Y1364190D01*
X54170Y1361651D01*
Y1359958D01*
X53323Y1357418D01*
X51631Y1355725D01*
X49091Y1354879D01*
X46552D01*
X44012Y1355725D01*
X43166Y1356572D01*
X42319Y1358265D01*
X687477Y1372655D02*
X679013Y1360804D01*
X691710D01*
X687477Y1372655D02*
Y1354879D01*
X1323914Y1372655D02*
X1315449D01*
X1314602Y1365037D01*
X1315449Y1365883D01*
X1317988Y1366730D01*
X1320528D01*
X1323067Y1365883D01*
X1324760Y1364190D01*
X1325607Y1361651D01*
Y1359958D01*
X1324760Y1357418D01*
X1323067Y1355725D01*
X1320528Y1354879D01*
X1317988D01*
X1315449Y1355725D01*
X1314602Y1356572D01*
X1313756Y1358265D01*
X1960184Y1370116D02*
X1959337Y1371809D01*
X1956798Y1372655D01*
X1955105D01*
X1952565Y1371809D01*
X1950872Y1369269D01*
X1950026Y1365037D01*
Y1360804D01*
X1950872Y1357418D01*
X1952565Y1355725D01*
X1955105Y1354879D01*
X1955951D01*
X1958491Y1355725D01*
X1960184Y1357418D01*
X1961030Y1359958D01*
Y1360804D01*
X1960184Y1363344D01*
X1958491Y1365037D01*
X1955951Y1365883D01*
X1955105D01*
X1952565Y1365037D01*
X1950872Y1363344D01*
X1950026Y1360804D01*
X2255162Y1064557D02*
X2248390Y1082333D01*
X2241618Y1064557D01*
X2244157Y1070482D02*
X2252622D01*
X2241618Y477813D02*
Y460037D01*
Y477813D02*
X2249236D01*
X2251776Y476967D01*
X2252622Y476120D01*
X2253469Y474427D01*
Y472734D01*
X2252622Y471041D01*
X2251776Y470195D01*
X2249236Y469348D01*
X2241618D02*
X2249236D01*
X2251776Y468502D01*
X2252622Y467655D01*
X2253469Y465962D01*
Y463423D01*
X2252622Y461730D01*
X2251776Y460883D01*
X2249236Y460037D01*
X2241618D01*
X2254315Y-129669D02*
X2253469Y-127976D01*
X2251776Y-126283D01*
X2250083Y-125437D01*
X2246697D01*
X2245004Y-126283D01*
X2243311Y-127976D01*
X2242464Y-129669D01*
X2241618Y-132209D01*
Y-136441D01*
X2242464Y-138981D01*
X2243311Y-140674D01*
X2245004Y-142367D01*
X2246697Y-143213D01*
X2250083D01*
X2251776Y-142367D01*
X2253469Y-140674D01*
X2254315Y-138981D01*
M02*
