G04*
G04 #@! TF.GenerationSoftware,Altium Limited,Altium Designer,18.1.4 (159)*
G04*
G04 Layer_Physical_Order=1*
G04 Layer_Color=255*
%FSLAX44Y44*%
%MOMM*%
G71*
G01*
G75*
%ADD12C,0.1524*%
%ADD13C,0.2540*%
%ADD14C,0.2032*%
%ADD15C,0.0500*%
%ADD16C,0.0500*%
%ADD17C,0.0510*%
%ADD18C,0.0508*%
%ADD19R,0.5000X0.5000*%
%ADD20R,0.5000X0.5800*%
%ADD21R,0.3000X4.0000*%
%ADD27C,0.2413*%
%ADD28C,0.3048*%
%ADD29P,0.5657X4X345.0*%
%ADD30P,0.5657X4X105.0*%
%ADD31C,0.7500*%
%ADD32C,0.5080*%
%ADD33C,0.3810*%
%ADD34C,0.6350*%
%ADD35C,0.4064*%
%ADD36C,0.5080*%
G36*
X375204Y955395D02*
X375203Y955395D01*
X375203Y954626D01*
X374903Y953119D01*
X374315Y951698D01*
X373461Y950420D01*
X372918Y949876D01*
X372917Y949876D01*
X371710Y948669D01*
X368869Y946770D01*
X365712Y945463D01*
X362362Y944797D01*
X305723D01*
X305723Y944796D01*
X304193Y944721D01*
X301192Y944124D01*
X298365Y942953D01*
X295821Y941253D01*
X294685Y940224D01*
X294685Y940224D01*
X293771Y939215D01*
X292260Y936954D01*
X291219Y934441D01*
X290688Y931773D01*
X290621Y930413D01*
Y617462D01*
X268270D01*
Y950584D01*
X268270Y951865D01*
X268769Y954379D01*
X269750Y956746D01*
X271173Y958876D01*
X272080Y959782D01*
X272925Y960628D01*
X274914Y961957D01*
X277123Y962872D01*
X279469Y963338D01*
X280665Y963338D01*
X337837Y963338D01*
X339707Y963430D01*
X343375Y964160D01*
X346830Y965591D01*
X349940Y967669D01*
X351328Y968926D01*
X352356Y970061D01*
X354056Y972606D01*
X355228Y975433D01*
X355824Y978434D01*
X355900Y979964D01*
X355900Y1003216D01*
X375204D01*
Y955395D01*
D02*
G37*
G36*
X365963Y642366D02*
X366226Y642150D01*
X366508Y641959D01*
X366810Y641794D01*
X367132Y641654D01*
X367472Y641540D01*
X367832Y641451D01*
X368212Y641388D01*
X368611Y641350D01*
X369029Y641337D01*
Y638797D01*
X368611Y638784D01*
X368212Y638746D01*
X367832Y638683D01*
X367472Y638594D01*
X367132Y638479D01*
X366810Y638340D01*
X366508Y638175D01*
X366226Y637984D01*
X365963Y637768D01*
X365719Y637527D01*
Y642607D01*
X365963Y642366D01*
D02*
G37*
G36*
X240493Y428321D02*
X227893Y406497D01*
D01*
X190493Y341718D01*
X147192Y366718D01*
X159792Y388542D01*
D01*
X197192Y453321D01*
X240493Y428321D01*
D02*
G37*
G36*
X583278Y417503D02*
D01*
X613528Y365108D01*
X570227Y340108D01*
X550477Y374316D01*
D01*
X520227Y426711D01*
X563528Y451711D01*
X583278Y417503D01*
D02*
G37*
G36*
X285602Y158205D02*
X285430Y158039D01*
X285277Y157849D01*
X285145Y157635D01*
X285033Y157398D01*
X284942Y157137D01*
X284871Y156853D01*
X284820Y156545D01*
X284790Y156213D01*
X284779Y155858D01*
X282747D01*
X282737Y156213D01*
X282707Y156545D01*
X282656Y156853D01*
X282585Y157137D01*
X282493Y157398D01*
X282382Y157635D01*
X282250Y157849D01*
X282097Y158039D01*
X281925Y158205D01*
X281731Y158348D01*
X285795D01*
X285602Y158205D01*
D02*
G37*
G36*
X65094Y146299D02*
X64857Y146331D01*
X64617Y146332D01*
X64375Y146302D01*
X64131Y146241D01*
X63886Y146148D01*
X63639Y146025D01*
X63390Y145870D01*
X63139Y145685D01*
X62886Y145468D01*
X62631Y145220D01*
X61173Y146636D01*
X61413Y146897D01*
X61622Y147157D01*
X61800Y147413D01*
X61947Y147667D01*
X62063Y147917D01*
X62148Y148166D01*
X62202Y148411D01*
X62225Y148653D01*
X62217Y148893D01*
X62178Y149130D01*
X65094Y146299D01*
D02*
G37*
G36*
X52190Y138909D02*
X51951Y138647D01*
X51743Y138387D01*
X51566Y138130D01*
X51420Y137876D01*
X51304Y137624D01*
X51220Y137376D01*
X51167Y137130D01*
X51145Y136888D01*
X51154Y136648D01*
X51194Y136412D01*
X48268Y139232D01*
X48506Y139201D01*
X48746Y139201D01*
X48987Y139232D01*
X49231Y139294D01*
X49476Y139387D01*
X49723Y139511D01*
X49971Y139667D01*
X50221Y139853D01*
X50473Y140071D01*
X50727Y140320D01*
X52190Y138909D01*
D02*
G37*
G36*
X37331Y113820D02*
X37183Y114009D01*
X37013Y114178D01*
X36819Y114325D01*
X36602Y114452D01*
X36362Y114558D01*
X36099Y114643D01*
X35813Y114707D01*
X35504Y114750D01*
X35172Y114772D01*
X34817Y114774D01*
X34766Y116805D01*
X35121Y116824D01*
X35452Y116863D01*
X35759Y116921D01*
X36041Y116999D01*
X36300Y117097D01*
X36534Y117215D01*
X36744Y117352D01*
X36930Y117509D01*
X37092Y117686D01*
X37231Y117882D01*
X37331Y113820D01*
D02*
G37*
G36*
X19430Y117602D02*
X19587Y117424D01*
X19769Y117268D01*
X19976Y117132D01*
X20208Y117017D01*
X20464Y116923D01*
X20745Y116850D01*
X21051Y116798D01*
X21382Y116767D01*
X21737Y116756D01*
X21631Y114725D01*
X21276Y114715D01*
X20943Y114685D01*
X20633Y114636D01*
X20346Y114567D01*
X20081Y114479D01*
X19838Y114370D01*
X19618Y114243D01*
X19421Y114095D01*
X19246Y113928D01*
X19093Y113741D01*
X19297Y117800D01*
X19430Y117602D01*
D02*
G37*
G36*
X77809Y110796D02*
X77836Y110633D01*
X77884Y110466D01*
X77952Y110294D01*
X78041Y110117D01*
X78150Y109936D01*
X78280Y109750D01*
X78431Y109559D01*
X78794Y109164D01*
X78110Y107693D01*
X77910Y107881D01*
X77719Y108039D01*
X77537Y108167D01*
X77362Y108264D01*
X77196Y108330D01*
X77039Y108365D01*
X76890Y108370D01*
X76750Y108345D01*
X76618Y108288D01*
X76495Y108202D01*
X77803Y110955D01*
X77809Y110796D01*
D02*
G37*
G36*
X176565Y104304D02*
X176092Y104209D01*
X175636Y104090D01*
X175197Y103946D01*
X174776Y103778D01*
X174371Y103584D01*
X173983Y103366D01*
X173612Y103123D01*
X173259Y102855D01*
X172922Y102562D01*
X172602Y102245D01*
X170385Y104336D01*
X170683Y104674D01*
X170956Y105027D01*
X171203Y105396D01*
X171423Y105780D01*
X171619Y106180D01*
X171788Y106595D01*
X171932Y107026D01*
X172050Y107472D01*
X172142Y107935D01*
X172209Y108412D01*
X176565Y104304D01*
D02*
G37*
G36*
X154394Y100120D02*
X154357Y100322D01*
X154283Y100503D01*
X154174Y100662D01*
X154030Y100801D01*
X153850Y100918D01*
X153634Y101013D01*
X153383Y101088D01*
X153096Y101141D01*
X152773Y101173D01*
X152415Y101183D01*
X153542Y103215D01*
X153899Y103220D01*
X154858Y103297D01*
X155140Y103343D01*
X155648Y103466D01*
X155874Y103542D01*
X156081Y103629D01*
X156269Y103726D01*
X154394Y100120D01*
D02*
G37*
G36*
X172510Y87110D02*
X172396Y87315D01*
X172255Y87498D01*
X172087Y87660D01*
X171893Y87800D01*
X171671Y87919D01*
X171423Y88016D01*
X171147Y88091D01*
X170845Y88145D01*
X170516Y88178D01*
X170161Y88188D01*
X170450Y90220D01*
X170804Y90230D01*
X171138Y90257D01*
X171451Y90303D01*
X171744Y90367D01*
X172015Y90449D01*
X172266Y90550D01*
X172496Y90669D01*
X172705Y90807D01*
X172893Y90963D01*
X173061Y91137D01*
X172510Y87110D01*
D02*
G37*
G36*
X57830Y80598D02*
X57832Y80243D01*
X57855Y79910D01*
X57899Y79601D01*
X57964Y79316D01*
X58049Y79053D01*
X58156Y78813D01*
X58283Y78597D01*
X58431Y78403D01*
X58600Y78233D01*
X58790Y78086D01*
X54727Y78177D01*
X54923Y78315D01*
X55099Y78478D01*
X55256Y78664D01*
X55393Y78875D01*
X55510Y79110D01*
X55607Y79368D01*
X55685Y79651D01*
X55742Y79958D01*
X55780Y80289D01*
X55798Y80644D01*
X57830Y80598D01*
D02*
G37*
G36*
X72713Y69039D02*
X72760Y68893D01*
X72826Y68741D01*
X72910Y68582D01*
X73013Y68417D01*
X73134Y68244D01*
X73431Y67878D01*
X73607Y67685D01*
X73801Y67485D01*
X73354Y65776D01*
X73155Y65966D01*
X72966Y66123D01*
X72789Y66249D01*
X72623Y66343D01*
X72469Y66406D01*
X72325Y66436D01*
X72193Y66435D01*
X72072Y66402D01*
X71963Y66338D01*
X71864Y66241D01*
X72684Y69177D01*
X72713Y69039D01*
D02*
G37*
G36*
X82469Y46773D02*
X82811Y46589D01*
X83192Y46427D01*
X83611Y46287D01*
X84069Y46168D01*
X84565Y46070D01*
X85100Y45995D01*
X86286Y45908D01*
X86936Y45897D01*
Y42087D01*
X86286Y42077D01*
X85100Y41990D01*
X84565Y41915D01*
X84069Y41817D01*
X83611Y41698D01*
X83192Y41558D01*
X82811Y41396D01*
X82469Y41212D01*
X82165Y41007D01*
Y46978D01*
X82469Y46773D01*
D02*
G37*
G36*
X58832Y19855D02*
X58755Y19633D01*
X58687Y19343D01*
X58629Y18985D01*
X58538Y18066D01*
X58484Y16874D01*
X58465Y15410D01*
X53386D01*
X53381Y16176D01*
X53164Y19343D01*
X53096Y19633D01*
X53019Y19855D01*
X52933Y20009D01*
X58918D01*
X58832Y19855D01*
D02*
G37*
%LPC*%
G36*
X189133Y412363D02*
X178633Y394176D01*
D01*
X198552Y382676D01*
X209051Y400863D01*
D01*
X189133Y412363D01*
D02*
G37*
G36*
X571587Y410753D02*
X551668Y399253D01*
X562168Y381066D01*
X582087Y392566D01*
X571587Y410753D01*
D02*
G37*
%LPD*%
D12*
X291574Y103252D02*
G03*
X309535Y110691I0J25400D01*
G01*
X310068Y111225D02*
G03*
X317507Y129185I-17960J17960D01*
G01*
X306459Y115052D02*
G03*
X312507Y129654I-14602J14602D01*
G01*
X288498Y107612D02*
G03*
X306459Y115052I0J25400D01*
G01*
X289606Y112438D02*
G03*
X303047Y118006I0J19009D01*
G01*
X304592Y119551D02*
G03*
X307508Y126590I-7040J7040D01*
G01*
X286864Y116652D02*
G03*
X298467Y121458I0J16409D01*
G01*
D02*
G03*
X302508Y131212I-9755J9755D01*
G01*
X283648Y121074D02*
G03*
X294685Y125646I0J15610D01*
G01*
D02*
G03*
X297507Y132459I-6813J6813D01*
G01*
X278176Y128441D02*
G03*
X282256Y126751I4079J4079D01*
G01*
X285526D02*
G03*
X289606Y128441I0J5769D01*
G01*
D02*
G03*
X292507Y135447I-7006J7006D01*
G01*
X261470Y129711D02*
G03*
X272507Y134283I0J15610D01*
G01*
D02*
G03*
X275104Y140551I-6269J6269D01*
G01*
X262645Y133774D02*
G03*
X268778Y136314I0J8672D01*
G01*
D02*
G03*
X271136Y142007I-5693J5693D01*
G01*
X57045Y63542D02*
G03*
X66770Y59514I9725J9725D01*
G01*
X78949Y85648D02*
X121092D01*
X74054Y82133D02*
X119294D01*
X76768Y87829D02*
X78949Y85648D01*
X238866Y116652D02*
X286864D01*
X232875Y110660D02*
X238866Y116652D01*
X231539Y114824D02*
X237789Y121074D01*
X283648D01*
X198733Y114824D02*
X231539D01*
X200158Y110660D02*
X232875D01*
X183020Y99110D02*
X198733Y114824D01*
X186068Y96570D02*
X200158Y110660D01*
X246716Y103252D02*
X291574D01*
X309535Y110691D02*
X310068Y111225D01*
X317507Y274643D02*
Y322054D01*
Y129185D02*
Y274643D01*
X175936Y54955D02*
X198419Y77439D01*
Y90769D01*
X205103Y97452D01*
X240917D01*
X194102Y78201D02*
Y92880D01*
X202738Y101517D01*
X240917Y97452D02*
X246716Y103252D01*
X312507Y279214D02*
Y322054D01*
Y129654D02*
Y279214D01*
X243885Y107612D02*
X288498D01*
X237789Y101517D02*
X243885Y107612D01*
X202738Y101517D02*
X237789D01*
X173904Y58003D02*
X194102Y78201D01*
X241529Y112438D02*
X289606D01*
X303047Y118006D02*
X304592Y119551D01*
X175174Y64353D02*
X190037Y79217D01*
Y94913D01*
X201213Y106088D01*
X235179D01*
X241529Y112438D01*
X307508Y126590D02*
Y274932D01*
X231185Y129711D02*
X261470D01*
X223146Y121671D02*
X231185Y129711D01*
X158831Y121671D02*
X223146D01*
X141106Y103945D02*
X158831Y121671D01*
X137287Y108000D02*
X154679Y125393D01*
X221280D01*
X229662Y133774D01*
X262645D01*
X302508Y131212D02*
Y279214D01*
X297507Y132459D02*
Y274643D01*
X282256Y126751D02*
X285526D01*
X292507Y135447D02*
Y279214D01*
X302507Y279214D02*
X302508Y279214D01*
X302507Y279214D02*
Y322054D01*
X297507Y274643D02*
Y322054D01*
X275104Y140551D02*
Y258545D01*
X282566Y266007D01*
X271136Y142007D02*
Y266261D01*
X302508Y322054D02*
Y338396D01*
X297507Y322054D02*
Y333825D01*
X292507Y322054D02*
Y338396D01*
Y279214D02*
Y322054D01*
X287508Y322054D02*
Y334114D01*
Y274048D02*
Y322054D01*
X307508Y274932D02*
Y322054D01*
X317507D02*
Y333825D01*
X312507Y322054D02*
Y338396D01*
X283496Y274048D02*
X287508D01*
X279010Y269562D02*
X283496Y274048D01*
X274438Y269562D02*
X279010D01*
X271136Y266261D02*
X274438Y269562D01*
X75436Y64772D02*
X75578D01*
X70775Y69433D02*
X75436Y64772D01*
X89152Y77266D02*
X97747Y68671D01*
X64910Y77266D02*
X89152D01*
X121577Y64102D02*
X127676Y58003D01*
X119238Y59514D02*
X123796Y54955D01*
X139550Y103913D02*
X141138D01*
X116246Y103977D02*
X117516Y102707D01*
X138344D01*
X139550Y103913D01*
X113388Y99151D02*
X145374D01*
X113198Y99341D02*
X113388Y99151D01*
X119294Y82133D02*
X125644Y75783D01*
X156632Y68671D02*
X160950Y64353D01*
X123796Y54955D02*
X175936D01*
X127676Y58003D02*
X173904D01*
X160950Y64353D02*
X175174D01*
X162351Y67786D02*
X172765D01*
X163716Y71424D02*
X171590D01*
X121092Y85648D02*
X127909Y78831D01*
X151311Y68671D02*
X156632D01*
X146444Y63804D02*
X151311Y68671D01*
X139627Y63804D02*
X146444D01*
X134760Y68671D02*
X139627Y63804D01*
X97747Y68671D02*
X134760D01*
X125644Y75783D02*
X133195D01*
X141110Y67868D01*
X145174D01*
X127909Y78831D02*
X145428D01*
X145174Y67868D02*
X149025Y71719D01*
X158418D01*
X162351Y67786D01*
X145428Y78831D02*
X149279Y74980D01*
X160160D01*
X163716Y71424D01*
X66770Y59514D02*
X119238D01*
X72784Y87829D02*
X76768D01*
X95898Y103977D02*
X116246D01*
X97958Y108000D02*
X137287D01*
X172765Y67786D02*
X186068Y81089D01*
Y96570D01*
X171590Y71424D02*
X183020Y82854D01*
Y99110D01*
X68974Y68630D02*
X69473Y69129D01*
X75832Y111048D02*
X79642Y107238D01*
X74054Y111048D02*
X75832D01*
X69473Y69129D02*
X69972Y68630D01*
X70775Y69433D01*
X75436Y64102D02*
X121577D01*
D13*
X177845Y383203D02*
X186213Y384847D01*
X173020Y391781D02*
X177845Y383203D01*
X173020Y391781D02*
X182672Y417747D01*
X201213Y435098D01*
X218058Y465377D01*
X379904Y1043856D02*
X381045Y1042714D01*
X379904Y1043856D02*
Y1051352D01*
X371903Y1067352D02*
Y1075352D01*
Y1059352D02*
Y1067352D01*
X379904Y1051352D02*
Y1056174D01*
X376726Y1059352D02*
X379904Y1056174D01*
X371903Y1059352D02*
X376726D01*
X379904Y1078020D02*
Y1083352D01*
X377235Y1075352D02*
X379904Y1078020D01*
X371903Y1075352D02*
X377235D01*
X197447Y40810D02*
X209088D01*
X186096Y52161D02*
X197447Y40810D01*
X198648Y49193D02*
X209088D01*
X192192Y55648D02*
X198648Y49193D01*
X192192Y55648D02*
Y57495D01*
X117516Y54019D02*
X123438Y48097D01*
X130628D01*
Y47335D02*
Y48097D01*
X362961Y640067D02*
X372105D01*
X314494Y-16853D02*
X304338D01*
Y-24470D01*
X309416D01*
X304338D01*
Y-32088D01*
X319573D02*
X324651D01*
X322112D01*
Y-16853D01*
X319573D01*
X339886Y-32088D02*
X334808D01*
X332268Y-29548D01*
Y-24470D01*
X334808Y-21931D01*
X339886D01*
X342425Y-24470D01*
Y-27009D01*
X332268D01*
X347504Y-21931D02*
X357660Y-32088D01*
X352582Y-27009D01*
X357660Y-21931D01*
X347504Y-32088D01*
X377974D02*
Y-16853D01*
X385591D01*
X388130Y-19392D01*
Y-24470D01*
X385591Y-27009D01*
X377974D01*
X403366Y-19392D02*
X400826Y-16853D01*
X395748D01*
X393209Y-19392D01*
Y-29548D01*
X395748Y-32088D01*
X400826D01*
X403366Y-29548D01*
X408444Y-16853D02*
Y-32088D01*
X416061D01*
X418601Y-29548D01*
Y-27009D01*
X416061Y-24470D01*
X408444D01*
X416061D01*
X418601Y-21931D01*
Y-19392D01*
X416061Y-16853D01*
X408444D01*
X446531D02*
X441453D01*
X438914Y-19392D01*
Y-29548D01*
X441453Y-32088D01*
X446531D01*
X449071Y-29548D01*
Y-19392D01*
X446531Y-16853D01*
X454149Y-21931D02*
Y-29548D01*
X456688Y-32088D01*
X464306D01*
Y-21931D01*
X471923Y-19392D02*
Y-21931D01*
X469384D01*
X474463D01*
X471923D01*
Y-29548D01*
X474463Y-32088D01*
X482080D02*
X487158D01*
X484619D01*
Y-16853D01*
X482080D01*
X494776Y-32088D02*
X499854D01*
X497315D01*
Y-21931D01*
X494776D01*
X507472Y-32088D02*
Y-21931D01*
X515089D01*
X517629Y-24470D01*
Y-32088D01*
X530324D02*
X525246D01*
X522707Y-29548D01*
Y-24470D01*
X525246Y-21931D01*
X530324D01*
X532864Y-24470D01*
Y-27009D01*
X522707D01*
D14*
X312441Y609238D02*
G03*
X317546Y621562I-12324J12324D01*
G01*
X291653Y597071D02*
G03*
X306369Y603167I0J20813D01*
G01*
X278937Y597071D02*
G03*
X264195Y590964I0J-20849D01*
G01*
X276112Y600984D02*
G03*
X262034Y595152I0J-19910D01*
G01*
X290657Y600984D02*
G03*
X304215Y606600I0J19174D01*
G01*
X305901Y608286D02*
G03*
X311703Y622294I-14008J14008D01*
G01*
X290462Y604691D02*
G03*
X300273Y608755I0J13875D01*
G01*
X272111Y604691D02*
G03*
X260350Y599819I0J-16633D01*
G01*
X301988Y610468D02*
G03*
X305923Y619969I-9500J9500D01*
G01*
X271267Y608501D02*
G03*
X256854Y602530I0J-20384D01*
G01*
X290121Y608501D02*
G03*
X297479Y611549I0J10407D01*
G01*
D02*
G03*
X300273Y618294I-6745J6745D01*
G01*
X268752Y613073D02*
G03*
X256221Y607882I0J-17722D01*
G01*
X290709Y613073D02*
G03*
X293162Y614089I0J3469D01*
G01*
X38888Y89573D02*
G03*
X56848Y82133I17960J17960D01*
G01*
X32690Y113577D02*
G03*
X40092Y97005I25362J1389D01*
G01*
X363773Y1081702D02*
G03*
X361889Y1077152I4551J-4551D01*
G01*
X367757Y1083352D02*
G03*
X363773Y1081702I0J-5633D01*
G01*
X357169Y1044110D02*
G03*
X364609Y1026150I25400J0D01*
G01*
X367486Y1023273D02*
G03*
X378506Y1018710I11019J11027D01*
G01*
X367483Y1023276D02*
G03*
X367486Y1023273I11023J11023D01*
G01*
X382343Y1011553D02*
G03*
X379521Y1004741I6812J-6812D01*
G01*
X382643Y1011852D02*
G03*
X384855Y1017194I-5342J5342D01*
G01*
X368345Y1030141D02*
G03*
X377544Y1026330I9198J9198D01*
G01*
X384855Y1018283D02*
G03*
X382346Y1024341I-8567J0D01*
G01*
D02*
G03*
X377544Y1026330I-4803J-4803D01*
G01*
X392221Y1032172D02*
G03*
X395270Y1039531I-7358J7358D01*
G01*
X392221Y1032172D02*
G03*
X389935Y1026654I5519J-5519D01*
G01*
X364683Y931335D02*
G03*
X382643Y938774I0J25400D01*
G01*
X382931Y939062D02*
G03*
X389935Y955973I-16911J16911D01*
G01*
X361889Y1045729D02*
G03*
X368345Y1030141I22046J0D01*
G01*
X359963Y1089323D02*
G03*
X357169Y1082577I6745J-6745D01*
G01*
X364869Y1091355D02*
G03*
X359963Y1089323I0J-6938D01*
G01*
X386380Y1089352D02*
G03*
X381546Y1091355I-4833J-4833D01*
G01*
X387904Y1085673D02*
G03*
X386380Y1089352I-5203J0D01*
G01*
X397556Y1030902D02*
G03*
X394762Y1024157I6745J-6745D01*
G01*
X399841Y1053541D02*
G03*
X395015Y1065192I-16477J0D01*
G01*
D02*
G03*
X389801Y1067352I-5215J-5215D01*
G01*
X397556Y1030902D02*
G03*
X399841Y1036421I-5519J5519D01*
G01*
X395270Y1053026D02*
G03*
X393492Y1057318I-6071J0D01*
G01*
D02*
G03*
X388581Y1059352I-4911J-4911D01*
G01*
X317546Y641148D02*
G03*
X314283Y649025I-11139J0D01*
G01*
X311703Y638988D02*
G03*
X308655Y646347I-10407J0D01*
G01*
X309417Y660771D02*
G03*
X314283Y649025I16611J0D01*
G01*
X304338Y656771D02*
G03*
X308655Y646347I14743J0D01*
G01*
X299512Y653828D02*
G03*
X304083Y642791I15610J0D01*
G01*
X305923Y638350D02*
G03*
X304083Y642791I-6279J0D01*
G01*
X293162Y614089D02*
G03*
X294939Y618381I-4293J4293D01*
G01*
X387322Y936341D02*
G03*
X394762Y954302I-17960J17960D01*
G01*
X367466Y927006D02*
G03*
X385426Y934445I0J25400D01*
G01*
X318001Y927006D02*
G03*
X312507Y924731I0J-7769D01*
G01*
D02*
G03*
X309417Y917271I7460J-7460D01*
G01*
X312202Y931335D02*
G03*
X306683Y929048I0J-7805D01*
G01*
D02*
G03*
X304338Y923386I5663J-5663D01*
G01*
X379849Y943600D02*
G03*
X384602Y955073I-11474J11474D01*
G01*
X361889Y936161D02*
G03*
X379849Y943600I0J25400D01*
G01*
X308438Y936161D02*
G03*
X302306Y933621I0J-8672D01*
G01*
D02*
G03*
X299512Y926875I6745J-6745D01*
G01*
X361143Y940732D02*
G03*
X376474Y947083I0J21680D01*
G01*
X307229Y940732D02*
G03*
X299258Y937430I0J-11274D01*
G01*
D02*
G03*
X294939Y927006I10425J-10425D01*
G01*
X376474Y947083D02*
G03*
X379521Y954441I-7358J7358D01*
G01*
X41193Y171730D02*
G03*
X48633Y153769I25400J0D01*
G01*
X91888Y110515D02*
G03*
X97958Y108000I6071J6071D01*
G01*
X36876Y169162D02*
G03*
X44315Y151201I25400J0D01*
G01*
X28588Y110393D02*
G03*
X36028Y92433I25400J0D01*
G01*
X24524Y106583D02*
G03*
X31964Y88623I25400J0D01*
G01*
X41828Y95269D02*
G03*
X59788Y87829I17960J17960D01*
G01*
X87106Y95243D02*
G03*
X89322Y94325I2216J2216D01*
G01*
X82944Y99405D02*
G03*
X77524Y101650I-5420J-5420D01*
G01*
X88457Y107060D02*
G03*
X95898Y103977I7441J7441D01*
G01*
X559168Y408184D02*
X564434Y438505D01*
X550346Y464160D02*
X564434Y438505D01*
X89322Y94325D02*
X142380D01*
X84173Y89753D02*
X140094D01*
X80658Y93268D02*
X84173Y89753D01*
X317546Y621562D02*
Y641148D01*
X306369Y603167D02*
X312441Y609238D01*
X278937Y597071D02*
X291653D01*
X239314Y566082D02*
X264195Y590964D01*
X235250Y568368D02*
X262034Y595152D01*
X276112Y600984D02*
X290657D01*
X304215Y606600D02*
X305901Y608286D01*
X305923Y619969D02*
Y638350D01*
X272111Y604691D02*
X290462D01*
X300273Y608755D02*
X301988Y610468D01*
X232201Y571670D02*
X260350Y599819D01*
X271267Y608501D02*
X290121D01*
X268752Y613073D02*
X290709D01*
X226105Y577766D02*
X256221Y607882D01*
X56848Y82133D02*
X74054D01*
X56687Y74980D02*
X56848Y82133D01*
X24524Y115740D02*
Y236136D01*
Y106583D02*
Y115740D01*
X16556D02*
X24524D01*
X32690Y113577D02*
Y113577D01*
Y234104D01*
X32812Y115740D02*
X40431Y115929D01*
X53639Y141877D02*
X88457Y107060D01*
X44315Y151201D02*
X53639Y141877D01*
X47544Y135553D02*
X53639Y141877D01*
X59229Y143174D02*
X91888Y110515D01*
X48633Y153769D02*
X59229Y143174D01*
X65831Y149976D01*
X361889Y1045729D02*
Y1077152D01*
X367757Y1083352D02*
X371903D01*
X364609Y1026150D02*
X367483Y1023276D01*
X379521Y954441D02*
Y1004741D01*
X382343Y1011553D02*
X382643Y1011852D01*
X384855Y1017194D02*
Y1018283D01*
X389935Y955973D02*
Y1026654D01*
X382643Y938774D02*
X382931Y939062D01*
X357169Y1044110D02*
Y1082577D01*
X364869Y1091355D02*
X381546D01*
X387904Y1083352D02*
Y1085673D01*
X394762Y954302D02*
Y1024157D01*
X399841Y1036421D02*
Y1053541D01*
X387904Y1067352D02*
X389801D01*
X395270Y1039531D02*
Y1053026D01*
X387904Y1059352D02*
X388581D01*
X311703Y636694D02*
Y638988D01*
Y622294D02*
Y636694D01*
X309417Y660771D02*
Y917271D01*
X304338Y656771D02*
Y923386D01*
X299512Y653828D02*
Y926875D01*
X228899Y574576D02*
X256854Y602530D01*
X300273Y618294D02*
Y637202D01*
X294939Y618381D02*
Y927006D01*
X385426Y934445D02*
X387322Y936341D01*
X318001Y927006D02*
X367466D01*
X229852Y551955D02*
X239314Y566082D01*
X312202Y931335D02*
X364683D01*
X226202Y554105D02*
X235250Y568368D01*
X308438Y936161D02*
X361889D01*
X384602Y955073D02*
Y1000930D01*
X222428Y556327D02*
X232201Y571670D01*
X219049Y558317D02*
X228899Y574576D01*
X307229Y940732D02*
X361143D01*
X215476Y560421D02*
X226105Y577766D01*
X41180Y231572D02*
X229852Y551955D01*
X36862Y232589D02*
X226202Y554105D01*
X41193Y171730D02*
Y231565D01*
X36876Y169162D02*
Y232581D01*
X32676Y234112D02*
X222428Y556327D01*
X28574Y234874D02*
X219049Y558317D01*
X28588Y110393D02*
Y234867D01*
X24510Y236145D02*
X215476Y560421D01*
X36028Y92433D02*
X38888Y89573D01*
X282507Y322054D02*
X282566Y321996D01*
Y279214D02*
Y321996D01*
X277507Y276034D02*
Y322054D01*
X272507Y279214D02*
Y322054D01*
X287507D02*
X287508Y322054D01*
X302507Y322054D02*
X302508Y322054D01*
X307507Y322054D02*
X307508Y322054D01*
X317507D02*
X317507Y322054D01*
X322508D02*
X322508Y322054D01*
X327508Y274135D02*
Y322054D01*
X327508Y322054D02*
X327508Y322054D01*
X322508Y279214D02*
Y322054D01*
X150628Y102199D02*
X156398D01*
X158128Y100469D01*
X145374Y99151D02*
X145628Y99405D01*
X162220Y79085D02*
X165149Y76157D01*
X168062D01*
X162111Y78976D02*
X162220Y79085D01*
X150871Y78976D02*
X162111D01*
X140094Y89753D02*
X150871Y78976D01*
X156456Y90368D02*
X160414Y86410D01*
X146337Y90368D02*
X156456D01*
X142380Y94325D02*
X146337Y90368D01*
X31964Y88623D02*
X57045Y63542D01*
X59788Y87829D02*
X72784D01*
X40092Y97005D02*
X41828Y95269D01*
X82944Y99405D02*
X87106Y95243D01*
X76315Y101650D02*
X77524D01*
X160414Y86410D02*
X162192D01*
X167446Y81157D01*
X168796Y89204D02*
X175400D01*
X175908Y88696D01*
X283764Y154388D02*
Y161500D01*
X167446Y81157D02*
X171110D01*
D15*
X600247Y127484D02*
G03*
X590088Y137644I-10160J0D01*
G01*
X589833Y0D02*
G03*
X600247Y10414I0J10414D01*
G01*
X614932Y226313D02*
X707436Y279556D01*
Y290448D01*
X600247Y127170D02*
Y127484D01*
X589580Y137644D02*
X590088D01*
X600247Y10414D02*
Y127170D01*
X-32213Y141140D02*
X-20447Y169226D01*
X-39578Y114471D02*
X-32213Y141140D01*
X-44658Y90849D02*
X-39578Y114471D01*
X-46625Y72103D02*
X-44658Y90849D01*
X571624Y410713D02*
X582063Y392583D01*
X551692Y399236D02*
X562131Y381106D01*
X551692Y399236D02*
X571624Y410713D01*
X562131Y381106D02*
X582063Y392583D01*
X178657Y394193D02*
X189096Y412323D01*
X198589Y382716D02*
X209028Y400846D01*
X189096Y412323D02*
X209028Y400846D01*
X178657Y394193D02*
X198589Y382716D01*
X398980Y137644D02*
X589580Y137644D01*
X338541Y137584D02*
X360648D01*
X143128Y137644D02*
X158863D01*
X200145Y137584D02*
X261566D01*
X325067Y658299D02*
X329291D01*
X371294Y102533D02*
X388334D01*
X422905Y574221D02*
X451495Y556926D01*
X505860Y466230D01*
X489008Y441558D02*
X504336Y457340D01*
X505860Y459626D01*
X506622Y462928D01*
X505860Y466230D02*
X506622Y462928D01*
X257617Y460498D02*
X272945Y444716D01*
X256093Y462784D02*
X257617Y460498D01*
X255331Y466086D02*
X256093Y462784D01*
X255331Y466086D02*
X256093Y469388D01*
X256081Y469395D02*
X308048Y556090D01*
X428241Y729359D02*
Y909359D01*
X333241Y729359D02*
Y909359D01*
D16*
X398980Y137644D02*
G03*
X393980Y132601I22J-5022D01*
G01*
X332508Y143681D02*
G03*
X338541Y137584I6065J-31D01*
G01*
X329291Y658299D02*
G03*
X333241Y662857I-304J4254D01*
G01*
X320683D02*
G03*
X325067Y658299I4849J277D01*
G01*
X261566Y137584D02*
G03*
X267507Y143772I-123J6065D01*
G01*
X388334Y102533D02*
G03*
X393980Y108045I67J5579D01*
G01*
X365648D02*
G03*
X371294Y102533I5579J67D01*
G01*
X489008Y441558D02*
G03*
X487080Y429517I5057J-6985D01*
G01*
X274873Y432675D02*
G03*
X272945Y444716I-6985J5057D01*
G01*
X-46625Y72103D02*
G03*
X0Y13I75007J-2611D01*
G01*
X125806Y173617D02*
G03*
X143128Y137644I19993J-12530D01*
G01*
X391126Y923399D02*
G03*
X404617Y928987I0J19079D01*
G01*
X428241Y720934D02*
G03*
X446201Y677573I61321J0D01*
G01*
X279164Y966804D02*
G03*
X269353Y962740I0J-13875D01*
G01*
X349617Y972392D02*
G03*
X352805Y980088I-7696J7696D01*
G01*
X334164Y923399D02*
G03*
X324353Y919335I0J-13875D01*
G01*
X269353Y962740D02*
G03*
X265683Y953879I8860J-8860D01*
G01*
X253487Y615834D02*
G03*
X265683Y645278I-29444J29444D01*
G01*
X404617Y928987D02*
G03*
X407805Y936684I-7696J7696D01*
G01*
X365648Y132601D02*
G03*
X360648Y137584I-4992J-8D01*
G01*
X336126Y966804D02*
G03*
X349617Y972392I0J19079D01*
G01*
X324353Y919335D02*
G03*
X320683Y910475I8860J-8860D01*
G01*
X614479Y226052D02*
X614932Y226313D01*
X602264Y229344D02*
X614479Y226052D01*
X499396Y62979D02*
Y85979D01*
Y62979D02*
X520396D01*
Y85979D01*
X499396D02*
X520396D01*
X414396Y62980D02*
Y85980D01*
Y62980D02*
X435396D01*
Y85980D01*
X414396D02*
X435396D01*
X329396Y62979D02*
Y85979D01*
Y62979D02*
X350396D01*
Y85979D01*
X329396D02*
X350396D01*
X244396D02*
X265396D01*
Y62979D02*
Y85979D01*
X244396Y62979D02*
X265396D01*
X244396D02*
Y85979D01*
X267507Y143772D02*
Y342054D01*
X332508Y143681D02*
Y342054D01*
X267507D02*
X332508D01*
X393980Y108045D02*
Y132601D01*
X487080Y429517D02*
X602264Y229344D01*
X0Y0D02*
X532999Y0D01*
X589833D01*
X333241Y909359D02*
X428241D01*
X334164Y923399D02*
X391126D01*
X446201Y677573D02*
X514176Y609599D01*
X177228Y262982D02*
X274873Y432675D01*
X540153Y581162D02*
X595391Y485166D01*
X707436Y290448D01*
X166106Y487019D02*
X222176Y582534D01*
X-20447Y169226D02*
X166106Y487019D01*
X125806Y173617D02*
X177228Y262982D01*
X308048Y556090D02*
X339311Y574555D01*
X342898Y574567D02*
X422905Y574221D01*
X279164Y966804D02*
X336126D01*
X514176Y609599D02*
X540153Y581162D01*
X222176Y582534D02*
X248399Y610746D01*
X253487Y615834D01*
X158923Y137584D02*
X200145D01*
X320683Y662857D02*
Y900046D01*
X428241Y720934D02*
Y729359D01*
X365648Y108045D02*
Y132601D01*
X333241Y662857D02*
Y729359D01*
X320683Y900046D02*
Y910475D01*
X339311Y574555D02*
X341104Y574576D01*
X342898Y574567D01*
X265683Y645278D02*
Y651873D01*
D17*
X352805Y1098628D02*
X407805D01*
Y936684D02*
Y1098628D01*
D18*
X352805Y980088D02*
Y1098628D01*
X265683Y651873D02*
X265683Y953879D01*
D19*
X379904Y1051352D02*
D03*
X387904D02*
D03*
Y1059352D02*
D03*
Y1067352D02*
D03*
Y1075352D02*
D03*
Y1083352D02*
D03*
X379904D02*
D03*
X371903D02*
D03*
Y1075352D02*
D03*
Y1067352D02*
D03*
Y1059352D02*
D03*
D20*
Y1050953D02*
D03*
D21*
X272507Y322054D02*
D03*
X277507D02*
D03*
X327508D02*
D03*
X322508D02*
D03*
X317507D02*
D03*
X312507D02*
D03*
X307507D02*
D03*
X302507D02*
D03*
X297507D02*
D03*
X292507D02*
D03*
X287508D02*
D03*
X282508D02*
D03*
D27*
X561181Y464877D02*
G03*
X554560Y474167I-10835J-718D01*
G01*
X511004Y462928D02*
G03*
X510891Y463913I-4381J0D01*
G01*
X510129Y467215D02*
G03*
X509619Y468480I-4269J-985D01*
G01*
X510132Y467204D02*
G03*
X509618Y468482I-4272J-975D01*
G01*
X510891Y461942D02*
G03*
X511004Y462928I-4269J985D01*
G01*
D02*
G03*
X510889Y463923I-4381J0D01*
G01*
X539567Y465474D02*
G03*
X543926Y455402I10779J-1314D01*
G01*
X510889Y461932D02*
G03*
X511004Y462928I-4267J996D01*
G01*
X509506Y457195D02*
G03*
X510132Y458651I-3646J2430D01*
G01*
X509506Y457195D02*
G03*
X510129Y458640I-3646J2430D01*
G01*
X507479Y454287D02*
G03*
X507982Y454909I-3143J3053D01*
G01*
X507471Y454278D02*
G03*
X507982Y454909I-3135J3061D01*
G01*
X455252Y559180D02*
G03*
X453763Y560675I-3757J-2254D01*
G01*
X455253Y559178D02*
G03*
X453756Y560679I-3758J-2253D01*
G01*
X425173Y577970D02*
G03*
X422914Y578603I-2268J-3749D01*
G01*
X425179Y577966D02*
G03*
X422924Y578603I-2274J-3745D01*
G01*
X391860Y1089599D02*
G03*
X389747Y1092720I-9160J-3926D01*
G01*
D02*
G03*
X387862Y1094247I-8201J-8201D01*
G01*
X403423Y1060525D02*
G03*
X398383Y1068560I-20059J-6984D01*
G01*
X398383Y1068560D02*
G03*
X394150Y1071309I-8582J-8582D01*
G01*
X377847Y1039766D02*
G03*
X377555Y1040470I-5943J-2049D01*
G01*
X375173Y635171D02*
G03*
X377883Y640067I-3069J4896D01*
G01*
D02*
G03*
X369300Y645119I-5778J0D01*
G01*
X368101Y645524D02*
G03*
X357677Y634748I-5140J-5457D01*
G01*
X337375Y660637D02*
G03*
X337598Y661906I-4157J1384D01*
G01*
X337375Y660637D02*
G03*
X337598Y661903I-4157J1384D01*
G01*
X336004Y657573D02*
G03*
X336850Y659058I-3311J2869D01*
G01*
X336004Y657573D02*
G03*
X336850Y659058I-3311J2869D01*
G01*
X333564Y655266D02*
G03*
X334914Y656315I-1961J3918D01*
G01*
X333564Y655266D02*
G03*
X334914Y656315I-1961J3918D01*
G01*
X330854Y654121D02*
G03*
X332076Y654522I-739J4319D01*
G01*
X330850Y654120D02*
G03*
X332076Y654522I-735J4319D01*
G01*
X324264Y653992D02*
G03*
X325067Y653917I803J4307D01*
G01*
X324264Y653992D02*
G03*
X325067Y653917I803J4307D01*
G01*
X339264Y578936D02*
G03*
X337083Y578327I47J-4381D01*
G01*
X339260Y578936D02*
G03*
X337074Y578322I52J-4381D01*
G01*
X524777Y85979D02*
G03*
X520396Y90361I-4381J0D01*
G01*
X524777Y85979D02*
G03*
X520396Y90361I-4381J0D01*
G01*
Y58598D02*
G03*
X524777Y62979I0J4381D01*
G01*
X520396Y58598D02*
G03*
X524777Y62979I0J4381D01*
G01*
X491578Y438009D02*
G03*
X492159Y438513I-2569J3549D01*
G01*
X491571Y438004D02*
G03*
X492151Y438505I-2563J3554D01*
G01*
X397887Y105232D02*
G03*
X398215Y106476I-4028J1725D01*
G01*
X397887Y105232D02*
G03*
X398215Y106476I-4028J1725D01*
G01*
X396058Y101816D02*
G03*
X397030Y103231I-3056J3140D01*
G01*
X396063Y101821D02*
G03*
X397030Y103231I-3061J3135D01*
G01*
X393073Y99368D02*
G03*
X394511Y100306I-1628J4068D01*
G01*
X393073Y99368D02*
G03*
X394506Y100301I-1628J4068D01*
G01*
X439777Y85980D02*
G03*
X435396Y90362I-4381J0D01*
G01*
X389801Y98261D02*
G03*
X391052Y98559I-377J4365D01*
G01*
X389801Y98261D02*
G03*
X391052Y98559I-377J4365D01*
G01*
X414396Y90362D02*
G03*
X410014Y85980I0J-4381D01*
G01*
X335651Y133672D02*
G03*
X336906Y133349I1707J4035D01*
G01*
X335661Y133668D02*
G03*
X336906Y133349I1698J4039D01*
G01*
X361412Y106485D02*
G03*
X361741Y105232I4356J472D01*
G01*
X328255Y142090D02*
G03*
X328564Y140835I4363J407D01*
G01*
X328255Y142090D02*
G03*
X328561Y140841I4363J407D01*
G01*
X332062Y135542D02*
G03*
X333479Y134585I3114J3082D01*
G01*
X332062Y135542D02*
G03*
X333489Y134581I3114J3082D01*
G01*
X329453Y138657D02*
G03*
X330398Y137224I4059J1649D01*
G01*
X329455Y138650D02*
G03*
X330398Y137224I4057J1656D01*
G01*
X368576Y98559D02*
G03*
X369830Y98261I1628J4068D01*
G01*
X368576Y98559D02*
G03*
X369827Y98261I1628J4068D01*
G01*
X361413Y106476D02*
G03*
X361741Y105232I4355J482D01*
G01*
X362598Y103231D02*
G03*
X363570Y101816I4028J1725D01*
G01*
X365117Y100306D02*
G03*
X366555Y99368I3066J3130D01*
G01*
X365122Y100301D02*
G03*
X366555Y99368I3061J3135D01*
G01*
X362598Y103231D02*
G03*
X363564Y101821I4028J1725D01*
G01*
X499396Y90361D02*
G03*
X495014Y85979I0J-4381D01*
G01*
X499396Y90361D02*
G03*
X495014Y85979I0J-4381D01*
G01*
Y62979D02*
G03*
X499396Y58598I4381J0D01*
G01*
X495014Y62979D02*
G03*
X499396Y58598I4381J0D01*
G01*
X439777Y85980D02*
G03*
X435396Y90362I-4381J0D01*
G01*
X414396D02*
G03*
X410014Y85980I0J-4381D01*
G01*
Y62980D02*
G03*
X414396Y58599I4381J0D01*
G01*
X435396D02*
G03*
X439777Y62980I0J4381D01*
G01*
X435396Y58599D02*
G03*
X439777Y62980I0J4381D01*
G01*
X410014D02*
G03*
X414396Y58599I4381J0D01*
G01*
X487060Y40810D02*
G03*
X478020Y46462I-6287J0D01*
G01*
Y35159D02*
G03*
X487060Y40810I2753J5652D01*
G01*
X412807Y46462D02*
G03*
X413431Y49193I-5663J2731D01*
G01*
X354777Y85979D02*
G03*
X350396Y90361I-4381J0D01*
G01*
Y58598D02*
G03*
X354777Y62979I0J4381D01*
G01*
X350396Y58598D02*
G03*
X354777Y62979I0J4381D01*
G01*
Y85979D02*
G03*
X350396Y90361I-4381J0D01*
G01*
X328658Y57495D02*
G03*
X328545Y58681I-6287J0D01*
G01*
X329396Y90361D02*
G03*
X325014Y85979I0J-4381D01*
G01*
X329396Y90361D02*
G03*
X325014Y85979I0J-4381D01*
G01*
X328545Y58681D02*
G03*
X329396Y58598I851J4298D01*
G01*
X328545Y58681D02*
G03*
X329396Y58598I851J4298D01*
G01*
X328072Y54844D02*
G03*
X328658Y57495I-5700J2651D01*
G01*
X413431Y49193D02*
G03*
X404392Y54844I-6287J0D01*
G01*
X318524Y918823D02*
G03*
X318114Y918059I3638J-2441D01*
G01*
X318001Y922243D02*
G03*
X315875Y921363I0J-3006D01*
G01*
X318519Y918816D02*
G03*
X318112Y918053I3643J-2434D01*
G01*
X317176Y915795D02*
G03*
X316925Y914967I4046J-1682D01*
G01*
X317174Y915789D02*
G03*
X316925Y914967I4048J-1677D01*
G01*
X322315Y654512D02*
G03*
X323419Y654149I1907J3945D01*
G01*
X322315Y654512D02*
G03*
X323419Y654149I1907J3945D01*
G01*
X322308Y638304D02*
G03*
X323286Y641520I-4800J3217D01*
G01*
D02*
G03*
X321702Y645495I-5778J0D01*
G01*
X316472Y661369D02*
G03*
X316794Y660247I4335J636D01*
G01*
X317475Y658689D02*
G03*
X318335Y657399I4018J1747D01*
G01*
X316472Y661369D02*
G03*
X316792Y660253I4335J636D01*
G01*
X319519Y656168D02*
G03*
X320773Y655257I3161J3034D01*
G01*
X319523Y656164D02*
G03*
X320773Y655257I3158J3038D01*
G01*
X317477Y658683D02*
G03*
X318339Y657395I4016J1753D01*
G01*
X321702Y645495D02*
G03*
X317651Y652392I-15296J-4347D01*
G01*
X315867Y921355D02*
G03*
X314180Y917271I4100J-4084D01*
G01*
Y660771D02*
G03*
X317651Y652392I11849J0D01*
G01*
X315809Y605870D02*
G03*
X322308Y621562I-15691J15691D01*
G01*
X323286Y274643D02*
G03*
X322016Y278257I-5778J0D01*
G01*
X305829Y559868D02*
G03*
X304289Y558342I2219J-3778D01*
G01*
X305820Y559863D02*
G03*
X304289Y558342I2228J-3773D01*
G01*
X322016Y271028D02*
G03*
X323286Y274643I-4509J3614D01*
G01*
X291653Y592308D02*
G03*
X309737Y599799I0J25575D01*
G01*
X278937Y592308D02*
G03*
X267572Y587606I0J-16087D01*
G01*
X252335Y471640D02*
G03*
X251824Y470373I3758J-2252D01*
G01*
X251822Y461810D02*
G03*
X252448Y460354I4272J975D01*
G01*
X252335Y471640D02*
G03*
X251822Y470363I3758J-2252D01*
G01*
X251064Y467082D02*
G03*
X251062Y465101I4267J-996D01*
G01*
X228916Y465377D02*
G03*
X228887Y466175I-10859J0D01*
G01*
X251062Y467071D02*
G03*
X251064Y465090I4269J-985D01*
G01*
X253972Y458068D02*
G03*
X254474Y457446I3646J2430D01*
G01*
X253972Y458068D02*
G03*
X254474Y457446I3646J2430D01*
G01*
X251824Y461799D02*
G03*
X252448Y460354I4269J985D01*
G01*
X213355Y475164D02*
G03*
X207292Y466794I4703J-9787D01*
G01*
X224938Y456977D02*
G03*
X228916Y465377I-6880J8400D01*
G01*
X313256Y108037D02*
G03*
X322016Y129185I-21149J21149D01*
G01*
X291574Y98743D02*
G03*
X312723Y107503I0J29908D01*
G01*
X240917Y92944D02*
G03*
X244113Y94273I0J4509D01*
G01*
X240917Y92944D02*
G03*
X244105Y94264I0J4509D01*
G01*
X269778Y85979D02*
G03*
X265396Y90361I-4381J0D01*
G01*
X269778Y85979D02*
G03*
X265396Y90361I-4381J0D01*
G01*
X244396D02*
G03*
X240014Y85979I0J-4381D01*
G01*
X244396Y90361D02*
G03*
X240014Y85979I0J-4381D01*
G01*
X154679Y129901D02*
G03*
X151483Y128572I0J-4509D01*
G01*
X154679Y129901D02*
G03*
X151491Y128580I0J-4509D01*
G01*
X325014Y63199D02*
G03*
X319618Y63147I-2643J-5704D01*
G01*
X318032Y17951D02*
G03*
X311745Y24237I-6287J0D01*
G01*
X318032Y17951D02*
G03*
X311745Y24237I-6287J0D01*
G01*
Y11664D02*
G03*
X318032Y17951I0J6287D01*
G01*
X311745Y11664D02*
G03*
X318032Y17951I0J6287D01*
G01*
X206485Y35794D02*
G03*
X209088Y35159I2603J5016D01*
G01*
X307151Y24237D02*
G03*
X307151Y11664I-4084J-6287D01*
G01*
X201599Y74242D02*
G03*
X202928Y77439I-3179J3196D01*
G01*
X201607Y74251D02*
G03*
X202928Y77439I-3188J3188D01*
G01*
X201271Y63147D02*
G03*
X196129Y61725I-1205J-5652D01*
G01*
D02*
G03*
X190318Y62962I-3937J-4230D01*
G01*
X193900Y37263D02*
G03*
X197447Y35794I3547J3547D01*
G01*
X180382Y53026D02*
G03*
X184577Y46586I5713J-865D01*
G01*
X175936Y50447D02*
G03*
X179132Y51776I0J4509D01*
G01*
X175936Y50447D02*
G03*
X179124Y51767I0J4509D01*
G01*
X193900Y37263D02*
G03*
X197447Y35794I3547J3547D01*
G01*
X66617Y142521D02*
G03*
X73328Y149976I-785J7455D01*
G01*
D02*
G03*
X58376Y150761I-7497J0D01*
G01*
X136208Y113298D02*
G03*
X132865Y112509I-404J-5764D01*
G01*
X99493D02*
G03*
X97958Y112763I-1534J-4509D01*
G01*
X95262Y113875D02*
G03*
X97958Y112763I2695J2710D01*
G01*
X87045Y102039D02*
G03*
X95898Y99215I8853J12461D01*
G01*
D02*
G03*
X97432Y99469I0J4762D01*
G01*
X45956Y171730D02*
G03*
X52001Y157137I20638J0D01*
G01*
X19762Y122441D02*
G03*
X19762Y109417I-3714J-6512D01*
G01*
Y106583D02*
G03*
X28596Y85255I30162J0D01*
G01*
X76230Y70513D02*
G03*
X75232Y72758I-7256J-1883D01*
G01*
X89485Y49072D02*
G03*
X87399Y49630I-2476J-5080D01*
G01*
X79897Y68611D02*
G03*
X76230Y70513I-4319J-3839D01*
G01*
X136406Y48097D02*
G03*
X135907Y50447I-5778J0D01*
G01*
X130628Y42319D02*
G03*
X136406Y48097I0J5778D01*
G01*
X119891Y44550D02*
G03*
X123438Y43081I3547J3547D01*
G01*
X119891Y44550D02*
G03*
X123438Y43081I3547J3547D01*
G01*
X127760D02*
G03*
X130628Y42319I2868J5016D01*
G01*
X111822Y55005D02*
G03*
X115997Y48444I5694J-986D01*
G01*
X93041Y43738D02*
G03*
X89485Y49072I-5778J0D01*
G01*
D02*
G03*
X87399Y49630I-2476J-5080D01*
G01*
X83593Y50514D02*
G03*
X83593Y37471I-3697J-6522D01*
G01*
X85620Y38198D02*
G03*
X93041Y43738I1642J5540D01*
G01*
X55166Y59166D02*
G03*
X66770Y55005I11604J14102D01*
G01*
X53677Y60174D02*
G03*
X55166Y59166I3368J3368D01*
G01*
X62455Y18586D02*
G03*
X63422Y22269I-6530J3683D01*
G01*
D02*
G03*
X49385Y18604I-7497J0D01*
G01*
X49656Y14947D02*
G03*
X62194Y14932I6269J464D01*
G01*
X466135Y645839D02*
X468937Y648641D01*
X461359Y651840D02*
X463549Y654029D01*
X465120Y647870D02*
X466390Y645331D01*
X455993Y657251D02*
X458161Y659418D01*
X450605Y662639D02*
X452772Y664806D01*
X460547Y652697D02*
X465120Y647870D01*
X468167Y637096D02*
X474325Y643253D01*
X467151Y641775D02*
X468167Y641520D01*
Y626319D02*
X479713Y637865D01*
X466390Y645331D02*
X466898Y643807D01*
Y642282D02*
Y643807D01*
X436921Y681625D02*
X440739Y676974D01*
X434441Y678803D02*
X437075Y681438D01*
X440952Y676732D02*
X443028Y674552D01*
X430264Y692650D02*
X433101Y687343D01*
X429053Y684191D02*
X432789Y687927D01*
X433327Y686967D02*
X436660Y681978D01*
X445217Y668027D02*
X447384Y670194D01*
X445561Y631106D02*
Y642791D01*
X440573Y631053D02*
X445561Y636042D01*
X439829Y673415D02*
X442022Y675608D01*
X429680Y630938D02*
X443553Y644810D01*
X468167Y639032D02*
X547375Y559825D01*
X469643Y595466D02*
X495878Y621701D01*
X468167Y628256D02*
X561980Y534443D01*
X443103Y674475D02*
X511007Y606571D01*
X460839Y597439D02*
X490490Y627089D01*
X468167Y617480D02*
X576585Y509062D01*
X511007Y606571D02*
X536594Y578561D01*
X489473Y582967D02*
X511995Y605489D01*
X493507Y576224D02*
X517140Y599857D01*
X478446Y593492D02*
X501266Y616312D01*
X485439Y589710D02*
X506654Y610924D01*
X468167Y615543D02*
X485101Y632477D01*
X468167Y611295D02*
Y641520D01*
X448102Y611295D02*
Y613073D01*
X434430Y603358D02*
X444177Y613105D01*
X429315Y613227D02*
X440558Y601984D01*
X440181Y613138D02*
X454447Y598871D01*
X452800Y611295D02*
X468336Y595758D01*
X452036Y599412D02*
X463919Y611295D01*
X463577D02*
X482626Y592244D01*
X448102Y611295D02*
X468167D01*
X443233Y601385D02*
X453143Y611295D01*
X422637Y824654D02*
X423859Y823433D01*
X389427Y824654D02*
X423859D01*
X401085D02*
X423859Y801880D01*
X389427Y773882D02*
X423859Y808313D01*
X389427Y814759D02*
X423859Y780328D01*
X389427Y803983D02*
X423859Y769551D01*
X389427Y750101D02*
X424164Y715365D01*
X423861Y720823D02*
X423934Y717821D01*
X423955Y717487D02*
X424543Y711516D01*
X389427Y763105D02*
X423859Y797537D01*
X389427Y793206D02*
X423859Y758775D01*
X389427Y752329D02*
X423859Y786761D01*
X411861Y824654D02*
X423859Y812656D01*
Y720934D02*
Y824654D01*
X389427Y741553D02*
X423859Y775984D01*
X389427Y782430D02*
X423859Y747999D01*
X389427Y730777D02*
X423859Y765208D01*
X402112Y711132D02*
X423859Y732879D01*
X396724Y716520D02*
X423859Y743655D01*
X407500Y705744D02*
X423859Y722103D01*
X389427Y760878D02*
X423859Y726446D01*
X391728Y722300D02*
X423859Y754432D01*
X393492Y719753D02*
X460547Y652697D01*
X389527Y728449D02*
X439532Y678444D01*
X382643Y706037D02*
X445561Y642791D01*
X337622Y748025D02*
X445561Y640086D01*
X337622Y737249D02*
X443783Y631087D01*
X337622Y726472D02*
X433120Y630974D01*
X421685Y613290D02*
X448102Y613073D01*
X421685Y630853D02*
X445561Y631106D01*
X425627Y605331D02*
X433488Y613193D01*
X407715Y619749D02*
X438179Y650212D01*
X409493Y608947D02*
X480614Y593007D01*
X425886Y704762D02*
X427632Y699004D01*
X424607Y711081D02*
X425781Y705179D01*
X418276Y694967D02*
X426394Y703085D01*
X389427Y739325D02*
X426711Y702042D01*
X412888Y700356D02*
X424499Y711966D01*
X427780Y698593D02*
X430078Y693045D01*
X423665Y689579D02*
X429214Y695129D01*
X407715Y624050D02*
X426668Y605098D01*
X401585Y635171D02*
X427430Y661016D01*
X407715Y630525D02*
X432804Y655614D01*
X541911Y495312D02*
X568942Y522344D01*
X537877Y502055D02*
X565006Y529184D01*
X536594Y578561D02*
X591593Y482981D01*
X529810Y515540D02*
X557134Y542865D01*
X525776Y522283D02*
X553198Y549705D01*
X533843Y508798D02*
X561070Y536025D01*
X559579Y469875D02*
X584686Y494983D01*
X554011Y475084D02*
X580750Y501823D01*
X545944Y488570D02*
X572878Y515504D01*
X549978Y481827D02*
X576814Y508664D01*
X517709Y535768D02*
X545326Y563386D01*
X513675Y542511D02*
X541390Y570226D01*
X521742Y529026D02*
X549262Y556546D01*
X509641Y549254D02*
X537454Y577066D01*
X509641Y549254D02*
X537454Y577066D01*
X507626Y471805D02*
X525241Y489420D01*
X510820Y464222D02*
X529275Y482677D01*
X510132Y467204D02*
X510889Y463923D01*
X573784Y451752D02*
X596494Y474462D01*
X569506Y458250D02*
X592559Y481303D01*
X577729Y444920D02*
X600430Y467622D01*
X562661Y462182D02*
X588622Y488143D01*
X561181Y464877D02*
X563523Y460613D01*
X563528Y460613D02*
X565832Y460310D01*
X567979Y459421D02*
X569823Y458006D01*
X565832Y460310D02*
X567979Y459421D01*
X569823Y458006D02*
X571238Y456162D01*
X543926Y455402D02*
X545898Y451812D01*
X535528Y445825D02*
X544344Y454641D01*
X510132Y458651D02*
X510889Y461932D01*
X507982Y454909D02*
X509506Y457195D01*
X497541Y569482D02*
X522284Y594226D01*
X484423Y590975D02*
X485439Y589710D01*
X501574Y562739D02*
X527429Y588594D01*
X482626Y592244D02*
X484423Y590975D01*
X480614Y593007D02*
X482626Y592244D01*
X406954Y591736D02*
X472739Y577005D01*
X505608Y555996D02*
X532574Y582962D01*
X463459Y579083D02*
X483719Y558823D01*
X463201Y545919D02*
X480869Y563587D01*
X455118Y559389D02*
X472735Y577005D01*
X459162Y552656D02*
X476835Y570329D01*
X441980Y567803D02*
X455126Y580949D01*
X435265Y571865D02*
X446321Y582920D01*
X448694Y563741D02*
X463931Y578977D01*
X428551Y575926D02*
X437517Y584892D01*
X420462Y578613D02*
X428712Y586864D01*
X421802Y588411D02*
X443070Y567143D01*
X425179Y577966D02*
X453756Y560679D01*
X485854Y589017D02*
X591190Y483681D01*
X485439Y589710D02*
X554560Y474167D01*
X501899Y562195D02*
X605795Y458300D01*
X461565Y548648D02*
X531865Y478348D01*
X435688Y585302D02*
X515816Y505173D01*
X472994Y576750D02*
X539567Y465474D01*
X499549Y485280D02*
X517174Y502904D01*
X495510Y492018D02*
X513140Y509647D01*
X503588Y478542D02*
X521207Y496162D01*
X477690Y521746D02*
X541334Y458103D01*
X493816Y494845D02*
X540161Y448500D01*
X471278Y532443D02*
X488937Y550102D01*
X467240Y539181D02*
X484903Y556844D01*
X475317Y525706D02*
X492971Y543359D01*
X449574Y582192D02*
X499768Y531998D01*
X455254Y559177D02*
X509617Y468484D01*
X487433Y505493D02*
X505072Y523132D01*
X483394Y512230D02*
X501038Y529874D01*
X491472Y498755D02*
X509106Y516389D01*
X479356Y518968D02*
X497004Y536617D01*
X479356Y518968D02*
X497004Y536617D01*
X400900Y1094247D02*
X403423Y1091724D01*
X394150Y1081599D02*
Y1089599D01*
Y1080341D02*
X403423Y1089614D01*
X387862Y1094247D02*
X403423D01*
X392632Y1089599D02*
X397280Y1094247D01*
X390124D02*
X403423Y1080947D01*
X395355Y1070770D02*
X403423Y1078838D01*
X394150Y1071309D02*
Y1073599D01*
Y1079444D02*
X403423Y1070171D01*
X391860Y1089599D02*
X394150D01*
Y1071309D02*
Y1073599D01*
Y1077106D02*
Y1081599D01*
X381657D02*
Y1086589D01*
X378150Y1086592D02*
X381546D01*
X378150Y1084668D02*
X381657Y1081161D01*
X394150Y1077106D02*
Y1081599D01*
X381657Y1077106D02*
Y1081599D01*
X394150Y1073599D02*
Y1077106D01*
X381657D02*
Y1081599D01*
Y1073599D02*
Y1077106D01*
X403423Y1060525D02*
Y1094247D01*
X400895Y1065533D02*
X403423Y1068061D01*
X389427Y795434D02*
X418648Y824654D01*
X390308D02*
X423859Y791104D01*
X389427Y771654D02*
X423859Y737222D01*
X389427Y784658D02*
X423859Y819090D01*
X389427Y728896D02*
Y824654D01*
Y816987D02*
X397095Y824654D01*
X389427Y806211D02*
X407871Y824654D01*
X381657Y1061106D02*
Y1065599D01*
Y1061106D02*
Y1065599D01*
Y1057599D02*
Y1061106D01*
Y1069106D02*
Y1073599D01*
Y1069106D02*
Y1073599D01*
Y1065599D02*
Y1069106D01*
Y1053106D02*
Y1057599D01*
Y1053106D02*
Y1057599D01*
X382252Y1040239D02*
Y1045106D01*
X381657D02*
Y1053106D01*
X381599Y1039586D02*
X382252Y1040239D01*
X378150Y1085893D02*
X378849Y1086592D01*
X378150Y1077106D02*
Y1086592D01*
X374936Y1077106D02*
X381657Y1070385D01*
X366651Y1074614D02*
X381657Y1059608D01*
X366651Y1063618D02*
X381657Y1078624D01*
X371408Y1057599D02*
X381657Y1067848D01*
X378150Y1052339D02*
X381657Y1048832D01*
X378150Y1053565D02*
X381657Y1057072D01*
X378027Y1039586D02*
X381599D01*
X377555Y1042193D02*
X381657Y1046295D01*
X377555Y1042158D02*
X380127Y1039586D01*
X366651Y1057599D02*
X378150D01*
X366651Y1063838D02*
X372890Y1057599D01*
X378150Y1044306D02*
Y1057599D01*
X366651Y1077106D02*
X378150D01*
X366651Y1074394D02*
X369363Y1077106D01*
X366651Y1057599D02*
Y1077106D01*
X377555Y1040470D02*
Y1044306D01*
X368756Y824654D02*
X372155Y821255D01*
X337622Y824654D02*
X372155D01*
X337622Y819063D02*
X343214Y824654D01*
X347203D02*
X372155Y799702D01*
X357980Y824654D02*
X372155Y810479D01*
Y728135D02*
Y824654D01*
X337622Y786734D02*
X372155Y821267D01*
X337622Y823459D02*
X372155Y788926D01*
X337622Y812683D02*
X372155Y778149D01*
X337622Y791130D02*
X372155Y756597D01*
X337622Y765182D02*
X372155Y799715D01*
X337622Y758801D02*
X372881Y723543D01*
X337622Y775958D02*
X372155Y810491D01*
X337622Y801907D02*
X372155Y767373D01*
X337622Y780354D02*
X372155Y745821D01*
X337622Y754405D02*
X372155Y788939D01*
X337622Y662857D02*
Y824654D01*
Y808287D02*
X353990Y824654D01*
X337622Y797510D02*
X364766Y824654D01*
X337622Y722076D02*
X372155Y756610D01*
X337622Y732853D02*
X372155Y767386D01*
X337622Y711300D02*
X372155Y745833D01*
X337622Y743629D02*
X372155Y778162D01*
X337622Y769578D02*
X372155Y735044D01*
X389935Y726610D02*
X391205Y723055D01*
X389427Y728896D02*
X389935Y726610D01*
X391205Y723055D02*
X393492Y719753D01*
X368525Y645216D02*
X405934Y682625D01*
X358903Y646370D02*
X400559Y688027D01*
X377084Y642999D02*
X411308Y677223D01*
X390808Y635171D02*
X422056Y666418D01*
X407715Y634827D02*
X421685Y620857D01*
Y613290D02*
Y630853D01*
X375173Y635171D02*
X407372D01*
X380032D02*
X416682Y671820D01*
X377490Y712386D02*
X379013Y710100D01*
X375965Y714927D02*
X377490Y712386D01*
X379013Y710100D02*
X382643Y706037D01*
X372663Y724324D02*
X373933Y719753D01*
X372155Y728135D02*
X372663Y724324D01*
X373933Y719753D02*
X375965Y714927D01*
X357677Y627043D02*
Y634748D01*
X350097Y626788D02*
X357677Y634369D01*
X409493Y610751D02*
X421685Y622943D01*
X409493Y608947D02*
Y611111D01*
X416824Y607304D02*
X422800Y613281D01*
X407715Y611111D02*
X409493D01*
X407715D02*
Y634827D01*
Y613274D02*
X412779Y608211D01*
X409732Y578660D02*
X419907Y588836D01*
X404413Y592244D02*
X406954Y591736D01*
X407916Y591521D02*
X420825Y578612D01*
X399002Y578706D02*
X411103Y590807D01*
X396416Y592244D02*
X410002Y578659D01*
X377743Y592244D02*
Y597324D01*
X359007D02*
X377533Y578799D01*
X369783Y597324D02*
X388356Y578752D01*
X352962Y597324D02*
X377743D01*
X356082Y578891D02*
X374515Y597324D01*
X377743Y592244D02*
X404413D01*
X388272Y578752D02*
X401764Y592244D01*
X385640D02*
X399179Y578705D01*
X366812Y578845D02*
X380211Y592244D01*
X377542Y578799D02*
X390988Y592244D01*
X337622Y689747D02*
X372609Y724734D01*
X337622Y700524D02*
X372155Y735057D01*
X337622Y678971D02*
X375258Y716607D01*
X337622Y668195D02*
X379256Y709829D01*
X337598Y661906D02*
X337621Y662736D01*
X337622Y672591D02*
X362656Y647557D01*
X336850Y659058D02*
X337375Y660637D01*
X334914Y656315D02*
X336004Y657573D01*
X332076Y654522D02*
X333564Y655266D01*
X330034Y653981D02*
X330850Y654120D01*
X325067Y653917D02*
X329291D01*
X323419Y654149D02*
X324264Y653992D01*
X337622Y704920D02*
X407372Y635171D01*
X337622Y694144D02*
X396595Y635171D01*
X337622Y715696D02*
X422458Y630861D01*
X337622Y683367D02*
X385819Y635171D01*
X337596Y661841D02*
X356178Y643259D01*
X333451Y655210D02*
X357677Y630983D01*
X349721Y595835D02*
X366710Y578846D01*
X345352Y578938D02*
X363739Y597324D01*
X342927Y578948D02*
X422914Y578603D01*
X342691Y626788D02*
X357424D01*
X342338Y592441D02*
X355887Y578892D01*
X329961Y606652D02*
X342691Y619383D01*
Y612565D02*
Y626788D01*
X334955Y589048D02*
X345064Y578939D01*
X323807Y654077D02*
X351096Y626788D01*
X329468Y573830D02*
X352962Y597324D01*
X341126Y578957D02*
X342920Y578948D01*
X339264Y578936D02*
X341048Y578957D01*
X327572Y585654D02*
X335710Y577517D01*
X613228Y383433D02*
X635855Y406060D01*
X609284Y390265D02*
X631919Y412900D01*
X617173Y376601D02*
X639791Y399219D01*
X605339Y397097D02*
X627983Y419740D01*
X601395Y403929D02*
X624047Y426580D01*
X579995Y440994D02*
X664214Y356775D01*
X622127Y367412D02*
X622431Y365108D01*
X621238Y369560D02*
X622127Y367412D01*
Y362804D02*
X622431Y365108D01*
X621117Y369769D02*
X643727Y392379D01*
X621238Y360657D02*
X622127Y362804D01*
X589562Y424424D02*
X612239Y447101D01*
X585617Y431256D02*
X608303Y453941D01*
X593506Y417593D02*
X616175Y440261D01*
X581673Y438088D02*
X604367Y460782D01*
X571238Y456162D02*
X583838Y434338D01*
X590988Y421954D01*
X619823Y358813D02*
X621238Y360657D01*
X597451Y410761D02*
X620111Y433421D01*
X617979Y357398D02*
X619823Y358813D01*
X583838Y434338D02*
X590988Y421954D01*
X621238Y369560D01*
X622261Y366400D02*
X703054Y285606D01*
X619398Y358487D02*
X698447Y279438D01*
X612737Y354371D02*
X691607Y275501D01*
X609437Y390000D02*
X693424Y306013D01*
X594716Y415497D02*
X678819Y331394D01*
X591593Y482981D02*
X703054Y289277D01*
X605905Y350427D02*
X684768Y271564D01*
X599073Y346483D02*
X677928Y267627D01*
X592557Y254998D02*
X675215Y337657D01*
X592241Y342538D02*
X671088Y263690D01*
X588621Y261839D02*
X671279Y344497D01*
X576813Y282360D02*
X659471Y365018D01*
X574678Y332398D02*
X617979Y357398D01*
X580749Y275519D02*
X663407Y358178D01*
X568941Y296040D02*
X651599Y378699D01*
X565005Y302880D02*
X647663Y385539D01*
X572877Y289200D02*
X655535Y371858D01*
X584685Y268679D02*
X667343Y351337D01*
X585409Y338594D02*
X664249Y259754D01*
X578577Y334649D02*
X657409Y255817D01*
X562517Y335657D02*
X563932Y333813D01*
X565775Y332398D01*
X517945Y535373D02*
X620400Y432919D01*
X509855Y468029D02*
X533329Y444555D01*
X533991Y508551D02*
X635004Y407538D01*
X494156Y426005D02*
X537343Y469192D01*
X490200Y432826D02*
X533309Y475934D01*
X498092Y419165D02*
X539950Y461023D01*
X515775Y434421D02*
X545898Y451812D01*
X509900Y398644D02*
X520203Y408947D01*
X513836Y391804D02*
X524147Y402115D01*
X509661Y457447D02*
X526497Y440611D01*
X489836Y434167D02*
X527234Y396769D01*
X513932Y433006D02*
X515775Y434421D01*
X512517Y431162D02*
X513932Y433006D01*
X511628Y429015D02*
X512517Y431162D01*
X504802Y451530D02*
X519665Y436666D01*
X499492Y446063D02*
X513332Y432224D01*
X494183Y440597D02*
X512515Y422264D01*
X511324Y426711D02*
X511628Y424407D01*
X511324Y426711D02*
X511628Y429015D01*
Y424407D02*
X512517Y422259D01*
X502028Y412325D02*
X512355Y422651D01*
X505964Y405484D02*
X516258Y415779D01*
X550036Y481730D02*
X649609Y382156D01*
X541388Y343922D02*
X551758Y354292D01*
X549917Y357481D02*
X562517Y335657D01*
X532764Y358910D02*
X643730Y247944D01*
X518159Y384291D02*
X556675Y345775D01*
X490878Y431702D02*
X605156Y233102D01*
X553196Y323401D02*
X563791Y333996D01*
X549260Y330242D02*
X559647Y340628D01*
X561068Y309721D02*
X596133Y344785D01*
X545324Y337082D02*
X555702Y347460D01*
X547369Y333529D02*
X636891Y244007D01*
X521708Y378123D02*
X532036Y388451D01*
X517772Y384964D02*
X528092Y395283D01*
X525644Y371283D02*
X535980Y381619D01*
X503554Y409672D02*
X541955Y371272D01*
X512517Y422259D02*
X542767Y369865D01*
X549917Y357481D01*
X542767Y369865D02*
X549917Y357481D01*
X537452Y350762D02*
X547814Y361124D01*
X529580Y364443D02*
X539925Y374787D01*
X533516Y357603D02*
X543869Y367956D01*
X604365Y234478D02*
X687023Y317136D01*
X600429Y241318D02*
X683087Y323976D01*
X611938Y231275D02*
X690959Y310296D01*
X596493Y248158D02*
X679151Y330817D01*
X571126Y331324D02*
X650570Y251880D01*
X561974Y308147D02*
X630051Y240070D01*
X703054Y282089D02*
Y289277D01*
X684270Y271278D02*
X702767Y289775D01*
X658879Y256663D02*
X698831Y296615D01*
X633488Y242048D02*
X694895Y303456D01*
X613867Y230755D02*
X703054Y282089D01*
X572531Y331509D02*
X574678Y332398D01*
X570227Y331205D02*
X572531Y331509D01*
X576579Y282766D02*
X623212Y236133D01*
X567923Y331509D02*
X570227Y331205D01*
X565775Y332398D02*
X567923Y331509D01*
X557132Y316561D02*
X572012Y331441D01*
X591184Y257385D02*
X616372Y232197D01*
X605156Y233102D02*
X613867Y230755D01*
X591773Y133041D02*
X592825Y132605D01*
X589580Y133263D02*
X590657D01*
X591773Y133041D01*
X585990Y133263D02*
X595866Y123387D01*
X595644Y129170D02*
X595866Y128054D01*
Y10414D02*
Y127484D01*
X575214Y133263D02*
X595866Y112610D01*
X575214Y133263D02*
X595866Y112611D01*
X564437Y133263D02*
X595866Y101834D01*
X589795Y4382D02*
X595866Y10453D01*
X595634Y8655D02*
X595866Y9820D01*
X579019Y4382D02*
X595866Y21229D01*
X557466Y4382D02*
X595866Y42782D01*
X568242Y4382D02*
X595866Y32005D01*
X595208Y130222D02*
X595644Y129170D01*
X594576Y131168D02*
X595208Y130222D01*
X595179Y7557D02*
X595634Y8655D01*
X592825Y132605D02*
X593771Y131973D01*
X594576Y131168D01*
X594519Y6568D02*
X595179Y7557D01*
X593679Y5728D02*
X594519Y6568D01*
X592691Y5068D02*
X593679Y5728D01*
X591593Y4613D02*
X592691Y5068D01*
X590428Y4382D02*
X591593Y4613D01*
X524777Y79456D02*
X578584Y133263D01*
X523558Y89013D02*
X567808Y133263D01*
X524777Y68680D02*
X589361Y133263D01*
X398987Y133263D02*
X589580Y133263D01*
X503353Y90361D02*
X546255Y133263D01*
X514130Y90361D02*
X557032Y133263D01*
X542885D02*
X595866Y80281D01*
X553661Y133263D02*
X595866Y91058D01*
X532108Y133263D02*
X595866Y69505D01*
X521332Y133263D02*
X595866Y58729D01*
X510556Y133263D02*
X595866Y47953D01*
X478227Y133263D02*
X521204Y90286D01*
X437902Y46462D02*
X524703Y133263D01*
X427126Y46462D02*
X513926Y133263D01*
X448678Y46462D02*
X535479Y133263D01*
X524777Y62979D02*
Y85979D01*
X499396Y90361D02*
X520396D01*
X499396Y58598D02*
X520396D01*
X492809Y4383D02*
X595866Y107439D01*
X499779Y133263D02*
X595866Y37176D01*
X503585Y4382D02*
X595866Y96663D01*
X489003Y133263D02*
X595866Y26400D01*
X471257Y4383D02*
X595710Y128836D01*
X482033Y4383D02*
X595866Y118216D01*
X535913Y4382D02*
X595866Y64334D01*
X525137Y4382D02*
X595866Y75111D01*
X546690Y4382D02*
X595866Y53558D01*
X524702Y86787D02*
X595866Y15624D01*
X514361Y4382D02*
X595866Y85887D01*
X524777Y75936D02*
X594332Y6381D01*
X524777Y65160D02*
X585555Y4382D01*
X498992Y58617D02*
X553227Y4382D01*
X402793Y133263D02*
X531674Y4382D01*
X413569Y133263D02*
X542450Y4382D01*
X520560Y58601D02*
X574779Y4382D01*
X509787Y58598D02*
X564003Y4382D01*
X532999D02*
X590428D01*
X460481Y4383D02*
X514696Y58598D01*
X486664Y38615D02*
X520897Y4382D01*
X492159Y438513D02*
X507471Y454278D01*
X490671Y437151D02*
X491239Y437764D01*
X490233Y436440D02*
X490671Y437151D01*
X489943Y435656D02*
X490233Y436440D01*
X489842Y433997D02*
X490036Y433184D01*
X489811Y434831D02*
X489943Y435656D01*
X490036Y433184D02*
X490384Y432424D01*
X489811Y434831D02*
X489842Y433997D01*
X398361Y114685D02*
X416940Y133263D01*
X398361Y125461D02*
X406163Y133263D01*
X398361Y132601D02*
X398361Y108045D01*
X398215Y106476D02*
X398335Y107563D01*
X397030Y103231D02*
X397887Y105232D01*
X394511Y100306D02*
X396058Y101816D01*
X467450Y133263D02*
X510353Y90361D01*
X456674Y133263D02*
X499576Y90361D01*
X445898Y133263D02*
X495014Y84146D01*
X439777Y69890D02*
X503150Y133263D01*
X435122Y133263D02*
X495014Y73370D01*
X424345Y133263D02*
X495033Y62575D01*
X437906Y89572D02*
X481598Y133263D01*
X439777Y80666D02*
X492374Y133263D01*
X417144Y90362D02*
X460045Y133263D01*
X427920Y90362D02*
X470821Y133263D01*
X398361Y126918D02*
X434917Y90362D01*
X398361Y116142D02*
X424141Y90362D01*
X398050Y105677D02*
X413465Y90262D01*
X391052Y98559D02*
X393073Y99368D01*
X393424Y99527D02*
X410014Y82936D01*
X388711Y98167D02*
X389801Y98261D01*
X384023Y98151D02*
X410014Y72160D01*
X348971Y133203D02*
X361266Y120908D01*
X336906Y133349D02*
X338089Y133226D01*
X338180Y133218D02*
X361266Y110131D01*
X333489Y134581D02*
X335651Y133672D01*
X361294Y107554D02*
X361412Y106485D01*
X361266Y108045D02*
X361266Y132594D01*
X338541Y133203D02*
X360648Y133203D01*
X359747D02*
X361266Y131684D01*
X328564Y140835D02*
X329453Y138657D01*
X328126Y143681D02*
Y296994D01*
X325271D02*
X328126Y294140D01*
X328145Y143274D02*
X328255Y142090D01*
X330398Y137224D02*
X332062Y135542D01*
X370850Y54844D02*
X449269Y133263D01*
X360073Y54844D02*
X438492Y133263D01*
X366555Y99368D02*
X368576Y98559D01*
X349297Y54844D02*
X427716Y133263D01*
X371294Y98151D02*
X388334Y98151D01*
X369830Y98261D02*
X370914Y98167D01*
X373247Y98151D02*
X410592Y60806D01*
X354777Y81877D02*
X371058Y98157D01*
X354777Y71101D02*
X381828Y98151D01*
X361741Y105232D02*
X362598Y103231D01*
X330932Y90361D02*
X361266Y120695D01*
X341709Y90361D02*
X361266Y109918D01*
X363570Y101816D02*
X365117Y100306D01*
X352128Y90004D02*
X363757Y101633D01*
X495014Y62979D02*
Y85979D01*
X439777Y85502D02*
X478578Y46701D01*
X439777Y74726D02*
X468041Y46462D01*
X459454D02*
X495014Y82022D01*
X481589Y47044D02*
X495507Y60962D01*
X439777Y63949D02*
X457265Y46462D01*
X470231D02*
X495014Y71246D01*
X414396Y90362D02*
X435396D01*
X439777Y62980D02*
Y85980D01*
X410014Y62980D02*
Y85980D01*
X414396Y58599D02*
X435396D01*
X412131Y53021D02*
X417710Y58599D01*
X487000Y41679D02*
X503919Y58598D01*
X457791Y35159D02*
X488568Y4383D01*
X412807Y46462D02*
X478020D01*
X468568Y35159D02*
X499344Y4382D01*
X449705Y4384D02*
X479906Y34584D01*
X447015Y35159D02*
X477791Y4383D01*
X479921Y34582D02*
X510121Y4382D01*
X438929Y4384D02*
X469704Y35159D01*
X436239D02*
X467015Y4383D01*
X423575Y58599D02*
X435712Y46462D01*
X416349D02*
X428486Y58599D01*
X434351D02*
X446488Y46462D01*
X412221Y59177D02*
X424936Y46462D01*
X428153Y4384D02*
X458928Y35159D01*
X417377Y4384D02*
X448151Y35159D01*
X425462D02*
X456238Y4383D01*
X413182Y47439D02*
X414159Y46462D01*
X414686Y35159D02*
X445461Y4384D01*
X381626Y54844D02*
X410014Y83232D01*
X354777Y62979D02*
Y85979D01*
X392402Y54844D02*
X410014Y72456D01*
X354777Y73515D02*
X373448Y54844D01*
X354777Y84291D02*
X384225Y54844D01*
X354771Y62745D02*
X362672Y54844D01*
X403179D02*
X410167Y61833D01*
X328072Y54844D02*
X404392D01*
X329396Y90361D02*
X350396D01*
X325014Y63199D02*
Y85979D01*
X329396Y58598D02*
X350396D01*
X328298Y55397D02*
X331498Y58598D01*
X406601Y4385D02*
X437375Y35159D01*
X403910D02*
X434685Y4384D01*
X395825Y4385D02*
X426599Y35159D01*
X385049Y4385D02*
X415822Y35159D01*
X393134D02*
X423908Y4384D01*
X374273Y4385D02*
X405046Y35159D01*
X371581D02*
X402355Y4385D01*
X382357Y35159D02*
X413132Y4385D01*
X363497Y4386D02*
X394270Y35159D01*
X360805D02*
X391578Y4385D01*
X348142Y58598D02*
X351896Y54844D01*
X338521D02*
X342275Y58598D01*
X341945Y4386D02*
X372717Y35159D01*
X328593Y56594D02*
X330343Y54844D01*
X337366Y58598D02*
X341120Y54844D01*
X352721Y4386D02*
X383494Y35159D01*
X339252D02*
X370025Y4386D01*
X350028Y35159D02*
X380802Y4385D01*
X331169Y4387D02*
X361941Y35159D01*
X328476D02*
X359249Y4386D01*
X320280Y921367D02*
X321075Y922243D01*
X318524Y918823D02*
X319879Y920851D01*
X318001Y922243D02*
X321075D01*
X315530Y920986D02*
X318220Y918295D01*
X317176Y915795D02*
X318112Y918053D01*
X316446Y912558D02*
X316925Y914967D01*
X316307Y910698D02*
X316366Y911911D01*
X314180Y871055D02*
X316301Y873176D01*
X316301Y662856D02*
X316301Y910475D01*
X314180Y860279D02*
X316301Y862400D01*
X314180Y868454D02*
X316301Y866333D01*
X314180Y857678D02*
X316301Y855557D01*
X314180Y836125D02*
X316301Y834004D01*
X314180Y838726D02*
X316301Y840847D01*
X314180Y827950D02*
X316301Y830071D01*
X314180Y849502D02*
X316301Y851624D01*
X314180Y846901D02*
X316301Y844780D01*
X323116Y642912D02*
X384437Y704233D01*
X322308Y631328D02*
X389811Y698831D01*
X320773Y655257D02*
X322315Y654512D01*
X322284Y620528D02*
X395185Y693429D01*
X322159Y644949D02*
X342691Y624416D01*
X322308Y621562D02*
Y638304D01*
X319540Y650113D02*
X323552Y654124D01*
X316794Y660247D02*
X317475Y658689D01*
X316348Y662220D02*
X316472Y661369D01*
X315026Y656375D02*
X317434Y658783D01*
X318339Y657395D02*
X319519Y656168D01*
X314180Y892608D02*
X316301Y894729D01*
X314180Y900783D02*
X316301Y898662D01*
X314180Y890007D02*
X316301Y887886D01*
X314180Y914160D02*
X318141Y918121D01*
X314180Y911559D02*
X316301Y909438D01*
X314180Y903384D02*
X316301Y905505D01*
X314180Y817174D02*
X316301Y819295D01*
X314180Y825349D02*
X316301Y823228D01*
X314180Y814572D02*
X316301Y812451D01*
X314180Y881831D02*
X316301Y883952D01*
X314180Y879230D02*
X316301Y877109D01*
X314180Y793020D02*
X316301Y790899D01*
X314180Y795621D02*
X316301Y797742D01*
X314180Y784845D02*
X316301Y786966D01*
X314180Y806397D02*
X316301Y808518D01*
X314180Y803796D02*
X316301Y801675D01*
X314180Y763292D02*
X316301Y765413D01*
X314180Y771467D02*
X316301Y769346D01*
X314180Y760691D02*
X316301Y758570D01*
X314180Y782243D02*
X316301Y780122D01*
X314180Y774068D02*
X316301Y776189D01*
X314180Y728362D02*
X316301Y726241D01*
X314180Y730963D02*
X316301Y733084D01*
X314180Y720187D02*
X316301Y722308D01*
X314180Y749915D02*
X316301Y747794D01*
X314180Y752516D02*
X316301Y754637D01*
X314180Y739138D02*
X316301Y737017D01*
X314180Y709410D02*
X316301Y711532D01*
X314180Y717586D02*
X316301Y715465D01*
X314180Y663704D02*
X316465Y661419D01*
X309840Y597308D02*
X356657Y644125D01*
X314180Y698634D02*
X316301Y700755D01*
X314180Y706809D02*
X316301Y704688D01*
X314180Y696033D02*
X316301Y693912D01*
X314180Y741739D02*
X316301Y743860D01*
X314180Y660771D02*
Y917271D01*
Y674481D02*
X316301Y672359D01*
X314180Y677082D02*
X316301Y679203D01*
X314180Y666305D02*
X316301Y668426D01*
X314180Y687858D02*
X316301Y689979D01*
X314180Y685257D02*
X316301Y683136D01*
X322308Y634024D02*
X342691Y613640D01*
X322308Y623247D02*
X336067Y609488D01*
X320926Y613853D02*
X328708Y606071D01*
X320189Y582261D02*
X328935Y573515D01*
X305829Y559868D02*
X337074Y578322D01*
X322016Y286194D02*
X328126Y292304D01*
X322016Y296994D02*
X328126D01*
X323009Y276411D02*
X328126Y281528D01*
X322016Y289474D02*
X328126Y283364D01*
X316927Y607075D02*
X321350Y602653D01*
X311582Y601644D02*
X313991Y599235D01*
X312806Y578868D02*
X322160Y569514D01*
X309737Y599799D02*
X315809Y605870D01*
X305844Y596606D02*
X306632Y595818D01*
X298447Y593227D02*
X299273Y592400D01*
X305423Y575474D02*
X315385Y565512D01*
X322016Y278257D02*
Y296994D01*
X298040Y572081D02*
X308610Y561511D01*
X322016Y257145D02*
X328126Y251035D01*
X322016Y253865D02*
X328126Y259975D01*
X322016Y243089D02*
X328126Y249199D01*
X322016Y264642D02*
X328126Y270752D01*
X322016Y278697D02*
X328126Y272587D01*
X322016Y267921D02*
X328126Y261811D01*
X322016Y221536D02*
X328126Y227646D01*
X322016Y235592D02*
X328126Y229482D01*
X322016Y192487D02*
X328126Y186377D01*
X322016Y246368D02*
X328126Y240258D01*
X322016Y232313D02*
X328126Y238423D01*
X322016Y214039D02*
X328126Y207929D01*
X322016Y210760D02*
X328126Y216870D01*
X322016Y199984D02*
X328126Y206094D01*
X322016Y224816D02*
X328126Y218706D01*
X322016Y181711D02*
X328126Y175601D01*
X322016Y178431D02*
X328126Y184541D01*
X322016Y167655D02*
X328126Y173765D01*
X322016Y203263D02*
X328126Y197153D01*
X322016Y189207D02*
X328126Y195317D01*
X288589Y592308D02*
X291915Y588983D01*
X289720Y587963D02*
X294191Y592434D01*
X274874Y581068D02*
X342691Y612565D01*
X278937Y592308D02*
X291653D01*
X285541Y566337D02*
X352962Y597324D01*
X290657Y568688D02*
X303058Y556287D01*
X284346Y564223D02*
X299020Y549548D01*
X280453Y557340D02*
X294982Y542810D01*
X280198Y556889D02*
X293136Y569827D01*
X266165Y532080D02*
X313078Y578993D01*
X277850Y592271D02*
X284556Y585565D01*
X269850Y589495D02*
X277197Y582148D01*
X264267Y584301D02*
X271341Y577228D01*
X242530Y562326D02*
X269320Y589117D01*
X224556Y533576D02*
X283288Y592308D01*
X276559Y550457D02*
X290944Y536072D01*
X273349Y580052D02*
X274874Y581068D01*
X272666Y543573D02*
X286906Y529333D01*
X272080Y578529D02*
X273349Y580052D01*
X268773Y536690D02*
X282868Y522595D01*
X252132Y507270D02*
X333020Y588159D01*
X264880Y529807D02*
X278831Y515856D01*
X252335Y471640D02*
X304289Y558342D01*
X238099Y482461D02*
X289800Y534162D01*
X213355Y475164D02*
X272080Y578529D01*
X228887Y466175D02*
X285541Y566337D01*
X272111Y437155D02*
X272143Y437990D01*
X272010Y438815D02*
X272143Y437990D01*
X271917Y436342D02*
X272111Y437155D01*
X260986Y522924D02*
X274793Y509118D01*
X228360Y461946D02*
X273687Y507273D01*
X257093Y516041D02*
X270755Y502379D01*
X254474Y457446D02*
X269802Y441664D01*
X270714Y440922D02*
X271282Y440310D01*
X233733Y474743D02*
X271959Y436517D01*
X233733Y474743D02*
X271959Y436517D01*
X271720Y439598D02*
X272010Y438815D01*
X271282Y440310D02*
X271720Y439598D01*
X271569Y435583D02*
X271917Y436342D01*
X238998Y407926D02*
X271320Y440248D01*
X173430Y265167D02*
X271075Y434861D01*
X258879Y578913D02*
X267436Y570356D01*
X253491Y573525D02*
X263532Y563484D01*
X253200Y509158D02*
X266717Y495641D01*
X243011Y563045D02*
X267563Y587596D01*
X248103Y568137D02*
X259628Y556612D01*
X242773Y562690D02*
X255724Y549740D01*
X249307Y502275D02*
X262679Y488903D01*
X245413Y495392D02*
X258641Y482164D01*
X241520Y488509D02*
X254603Y475426D01*
X238451Y556236D02*
X251819Y542868D01*
X237627Y481626D02*
X251272Y467981D01*
X234129Y549782D02*
X247915Y535995D01*
X233886Y549420D02*
X243011Y563045D01*
X230116Y543018D02*
X244011Y529123D01*
X251064Y467082D02*
X251822Y470363D01*
X251064Y465090D02*
X251822Y461810D01*
X252448Y460354D02*
X253972Y458068D01*
X229840Y467860D02*
X268067Y429633D01*
X227280Y459644D02*
X264131Y422793D01*
X249305Y429009D02*
X265938Y445642D01*
X249213Y426935D02*
X260195Y415952D01*
X245750Y419621D02*
X256259Y409112D01*
X238496Y439753D02*
X255319Y456576D01*
X245287Y435768D02*
X260629Y451109D01*
X248203Y432772D02*
X248724Y431514D01*
X246788Y434616D02*
X248203Y432772D01*
X248724Y431514D02*
X249092Y430625D01*
X231664Y443698D02*
X251438Y463471D01*
X244944Y436031D02*
X246788Y434616D01*
X249092Y426016D02*
X249396Y428321D01*
X249092Y430625D02*
X249396Y428321D01*
X248203Y423869D02*
X249092Y426016D01*
X241806Y412789D02*
X252323Y402272D01*
X235603Y402046D02*
X248203Y423869D01*
X226122Y536236D02*
X240107Y522251D01*
X222128Y529454D02*
X236203Y515379D01*
X218134Y522671D02*
X232298Y508507D01*
X209119Y507363D02*
X261285Y559529D01*
X214140Y515889D02*
X228394Y501635D01*
X193682Y481150D02*
X247109Y534577D01*
X210146Y509107D02*
X224490Y494763D01*
X206152Y502324D02*
X220586Y487891D01*
X206152Y502324D02*
X220586Y487891D01*
X202158Y495542D02*
X216681Y481019D01*
X196175Y462089D02*
X218757Y484671D01*
X198164Y488760D02*
X212325Y474599D01*
X203492Y459963D02*
X207292Y466794D01*
X194170Y481978D02*
X207656Y468492D01*
X186182Y468413D02*
X193323Y461272D01*
X190176Y475195D02*
X204177Y461194D01*
X199496Y461920D02*
X201643Y461031D01*
X197192Y462223D02*
X199496Y461920D01*
X201643Y461031D02*
X203492Y459963D01*
X194887Y461920D02*
X197192Y462223D01*
X192740Y461031D02*
X194887Y461920D01*
X190896Y459616D02*
X192740Y461031D01*
X224832Y447642D02*
X257574Y480384D01*
X178246Y454937D02*
X232933Y509624D01*
X189482Y457772D02*
X190896Y459616D01*
X45956Y230297D02*
X233886Y549420D01*
X222877Y453271D02*
X233523Y442625D01*
X220982Y449865D02*
X224938Y456977D01*
X224277Y382429D02*
X263441Y421593D01*
X220982Y449865D02*
X244944Y436031D01*
X159232Y405377D02*
X189482Y457772D01*
X182188Y461631D02*
X188224Y455594D01*
X178194Y454849D02*
X184280Y448762D01*
X174200Y448066D02*
X180336Y441930D01*
X170206Y441284D02*
X176391Y435098D01*
X162809Y428723D02*
X186237Y452152D01*
X166212Y434502D02*
X172447Y428267D01*
X162218Y427720D02*
X168502Y421435D01*
X158223Y420937D02*
X164558Y414603D01*
X154229Y414155D02*
X160613Y407771D01*
X147372Y402510D02*
X171516Y426655D01*
X237861Y405957D02*
X248387Y395431D01*
X228453Y389661D02*
X235603Y402046D01*
X228453Y389661D02*
X235603Y402045D01*
X152082Y392993D02*
X159232Y405377D01*
X150235Y407373D02*
X156669Y400939D01*
X152082Y392993D02*
X159232Y405377D01*
X233917Y399125D02*
X244451Y388591D01*
X229972Y392293D02*
X240515Y381751D01*
X226028Y385462D02*
X236579Y374911D01*
X131935Y376297D02*
X156795Y401157D01*
X222084Y378630D02*
X232643Y368070D01*
X146241Y400591D02*
X152725Y394107D01*
X142247Y393808D02*
X148780Y387275D01*
X139482Y371169D02*
X152082Y392993D01*
X138253Y387026D02*
X144836Y380443D01*
X134259Y380244D02*
X140892Y373611D01*
X130265Y373461D02*
X138483Y365244D01*
X138592Y369022D02*
X139482Y371169D01*
X138592Y364414D02*
X138961Y363525D01*
X139482Y362267D01*
X138289Y366718D02*
X138592Y369022D01*
X138289Y366718D02*
X138592Y364414D01*
X218139Y371798D02*
X228707Y361230D01*
X214195Y364966D02*
X224771Y354390D01*
X210250Y358134D02*
X220835Y347550D01*
X209557Y356932D02*
X248836Y396211D01*
X206306Y351302D02*
X216899Y340709D01*
X198203Y337267D02*
X228453Y389661D01*
X202362Y344470D02*
X212963Y333869D01*
X196788Y335423D02*
X198203Y337267D01*
X198417Y337638D02*
X209027Y327029D01*
X192235Y333045D02*
X205091Y320188D01*
X172918Y341585D02*
X201155Y313348D01*
X142740Y359008D02*
X186042Y334008D01*
X140896Y360423D02*
X142740Y359008D01*
X147421Y356306D02*
X197219Y306508D01*
X139482Y362267D02*
X140896Y360423D01*
X126271Y366679D02*
X193283Y299668D01*
X194944Y334008D02*
X196788Y335423D01*
X192797Y333119D02*
X194944Y334008D01*
X190493Y332815D02*
X192797Y333119D01*
X186042Y334008D02*
X188189Y333119D01*
X190493Y332815D01*
X122277Y359897D02*
X189347Y292827D01*
X118283Y353115D02*
X185411Y285987D01*
X114289Y346333D02*
X181474Y279147D01*
X45956Y225660D02*
X165921Y345625D01*
X54751Y245231D02*
X159089Y349569D01*
X45956Y214884D02*
X172752Y341680D01*
X110295Y339550D02*
X177539Y272307D01*
X106301Y332768D02*
X173603Y265466D01*
X102307Y325986D02*
X169666Y258626D01*
X98313Y319203D02*
X165730Y251786D01*
X94319Y312421D02*
X161794Y244946D01*
X116498Y350084D02*
X142075Y375661D01*
X101061Y323871D02*
X139474Y362284D01*
X90325Y305639D02*
X157858Y238105D01*
X70188Y271444D02*
X152257Y353514D01*
X85624Y297658D02*
X145425Y357458D01*
X86330Y298857D02*
X153922Y231265D01*
X82337Y292075D02*
X149986Y224425D01*
X78342Y285292D02*
X146050Y217584D01*
X74348Y278510D02*
X142114Y210744D01*
X18381Y226714D02*
X19762Y225334D01*
X14395Y219924D02*
X19762Y214557D01*
X45956Y193332D02*
X186460Y333835D01*
X70354Y271728D02*
X138178Y203904D01*
X122008Y175802D02*
X173430Y265167D01*
X45956Y182555D02*
X234231Y370830D01*
X45956Y204108D02*
X179584Y337736D01*
X45956Y171779D02*
X219626Y345449D01*
X66360Y264946D02*
X134242Y197064D01*
X62366Y258163D02*
X130306Y190223D01*
X121021Y174070D02*
X121995Y175779D01*
X58372Y251381D02*
X126370Y183383D01*
X54378Y244599D02*
X122434Y176543D01*
X45956Y171730D02*
Y230297D01*
X10409Y213134D02*
X19762Y203781D01*
X50384Y237817D02*
X119031Y169169D01*
X8322Y209579D02*
X19762Y221019D01*
X-16519Y167262D02*
X19762Y229066D01*
X2437Y199553D02*
X19762Y182229D01*
X6423Y206343D02*
X19762Y193005D01*
X119262Y169906D02*
X120775Y173567D01*
X-6996Y183485D02*
X19762Y210242D01*
X-1549Y192763D02*
X19762Y171452D01*
X322016Y146102D02*
X328126Y152212D01*
X322016Y160158D02*
X328126Y154048D01*
X322016Y149382D02*
X328147Y143251D01*
X322016Y156879D02*
X328126Y162989D01*
X322016Y170934D02*
X328126Y164824D01*
X322016Y129185D02*
Y271028D01*
X321584Y124117D02*
X332569Y135103D01*
X322016Y135326D02*
X328322Y141632D01*
X320186Y118883D02*
X348708Y90361D01*
X316464Y111828D02*
X337932Y90361D01*
X255498D02*
X263881Y98743D01*
X266200Y90286D02*
X274657Y98743D01*
X248584D02*
X291574D01*
X244113Y94273D02*
X248584Y98743D01*
X254115D02*
X262498Y90361D01*
X244396D02*
X265396D01*
X244722D02*
X253105Y98743D01*
X245961Y96121D02*
X251721Y90361D01*
X322016Y138605D02*
X405392Y55230D01*
X311324Y106192D02*
X327559Y89957D01*
X321987Y127858D02*
X395001Y54844D01*
X282166Y63147D02*
X352222Y133203D01*
X271390Y63147D02*
X341446Y133203D01*
X292942Y63147D02*
X361266Y131471D01*
X296766Y99198D02*
X325014Y70949D01*
X304876Y101864D02*
X325014Y81725D01*
X303718Y63147D02*
X325014Y84443D01*
X286444Y98743D02*
X321470Y63717D01*
X275667Y98743D02*
X311264Y63147D01*
X269778Y83088D02*
X285434Y98743D01*
X269778Y72311D02*
X296642Y99176D01*
X238362Y92944D02*
X241798Y89508D01*
X227586Y92944D02*
X240014Y80515D01*
X264891Y98743D02*
X300488Y63147D01*
X269778D02*
Y85979D01*
X240014Y63147D02*
Y85979D01*
X219412Y129901D02*
X222714Y133203D01*
X219655D02*
X221185Y131674D01*
X208879Y133203D02*
X212181Y129901D01*
X158923Y133203D02*
X222714D01*
X47913Y162959D02*
X205021Y320068D01*
X208828Y129901D02*
X212130Y133203D01*
X198052Y129901D02*
X201354Y133203D01*
X187327D02*
X190629Y129901D01*
X198103Y133203D02*
X201405Y129901D01*
X154679D02*
X219412D01*
X187275D02*
X190577Y133203D01*
X71798Y154515D02*
X161207Y243924D01*
X143111Y133263D02*
X158907Y133203D01*
X154983Y133218D02*
X158300Y129901D01*
X52434Y156704D02*
X190417Y294687D01*
X63656Y157150D02*
X175812Y269306D01*
X68598Y140540D02*
X146602Y218543D01*
X176499Y129901D02*
X179801Y133203D01*
X165774D02*
X169076Y129901D01*
X176550Y133203D02*
X179852Y129901D01*
X154946D02*
X158251Y133205D01*
X165723Y129901D02*
X169025Y133203D01*
X206970Y92944D02*
X240917D01*
X216809D02*
X240014Y69739D01*
X206732Y63147D02*
X236529Y92944D01*
X202928Y80896D02*
X214976Y92944D01*
X202928Y88902D02*
X206970Y92944D01*
X195223Y62415D02*
X225753Y92944D01*
X206502Y92475D02*
X235830Y63147D01*
X202928Y77439D02*
Y88902D01*
X217508Y63147D02*
X240014Y85653D01*
X154484Y85605D02*
X156350Y83739D01*
X202928Y85273D02*
X225054Y63147D01*
X144165Y133259D02*
X150167Y127257D01*
X45956Y220692D02*
X144779Y121869D01*
X126778Y112509D02*
X147515Y133246D01*
X152844Y83739D02*
X156350D01*
X152367Y84216D02*
X153756Y85605D01*
X150977D02*
X152844Y83739D01*
X136208Y113298D02*
X151483Y128572D01*
X150977Y85605D02*
X154484D01*
X314495Y63147D02*
X325014Y73667D01*
X316507Y22054D02*
X329612Y35159D01*
X209088D02*
X478020D01*
X269778Y63147D02*
X319618D01*
X307914Y24237D02*
X318836Y35159D01*
X307151Y11664D02*
X311745D01*
X269778Y83081D02*
X289711Y63147D01*
X239061D02*
X240014Y64101D01*
X269778Y72305D02*
X278935Y63147D01*
X228284D02*
X240014Y74877D01*
X202293Y75131D02*
X214277Y63147D01*
X307151Y24237D02*
X311745D01*
X296147Y35159D02*
X306931Y24375D01*
X285371Y35159D02*
X297528Y23001D01*
X212632Y4390D02*
X243402Y35159D01*
X320392Y4387D02*
X351165Y35159D01*
X309616Y4387D02*
X340388Y35159D01*
X317699D02*
X348472Y4386D01*
X277288Y4388D02*
X308059Y35159D01*
X266512Y4388D02*
X297283Y35159D01*
X306923D02*
X337696Y4386D01*
X308866Y11664D02*
X316143Y4387D01*
X298840Y4387D02*
X305224Y10771D01*
X316922Y14384D02*
X326919Y4387D01*
X288064Y4388D02*
X297096Y13419D01*
X274594Y35159D02*
X305366Y4387D01*
X234184Y4389D02*
X264954Y35159D01*
X223408Y4389D02*
X254178Y35159D01*
X231489D02*
X262260Y4388D01*
X209936Y35159D02*
X240707Y4389D01*
X220713Y35159D02*
X251483Y4388D01*
X255736Y4388D02*
X286507Y35159D01*
X253042D02*
X283813Y4388D01*
X263818Y35159D02*
X294589Y4387D01*
X244960Y4389D02*
X275730Y35159D01*
X242265D02*
X273036Y4388D01*
X197002Y69646D02*
X203501Y63147D01*
X190318Y62962D02*
X201599Y74242D01*
X191614Y64257D02*
X192613Y63259D01*
X201271Y63147D02*
X240014D01*
X184577Y46586D02*
X193900Y37263D01*
X154764Y64163D02*
X156416Y62512D01*
X153178Y64163D02*
X154764D01*
X152215Y62512D02*
X153866Y64163D01*
X143307Y72377D02*
X144406Y73477D01*
X143560Y74323D02*
X144406Y73477D01*
X151527Y62512D02*
X153178Y64163D01*
X179132Y51776D02*
X180382Y53026D01*
X151527Y62512D02*
X156416D01*
X135907Y50447D02*
X175936D01*
X197447Y35794D02*
X206485D01*
X198525D02*
X229930Y4389D01*
X162320Y50447D02*
X208377Y4390D01*
X151543Y50447D02*
X197600Y4390D01*
X173096Y50447D02*
X219153Y4389D01*
X191080Y4390D02*
X221849Y35159D01*
X180304Y4390D02*
X211073Y35159D01*
X201856Y4390D02*
X232625Y35159D01*
X169528Y4390D02*
X200931Y35794D01*
X860Y4395D02*
X532999Y4382D01*
X126424Y4392D02*
X172479Y50447D01*
X115648Y4392D02*
X161703Y50447D01*
X140767D02*
X186824Y4390D01*
X104872Y4392D02*
X150926Y50447D01*
X103880Y55005D02*
X154494Y4391D01*
X147976Y4391D02*
X187374Y43789D01*
X137200Y4391D02*
X181486Y48677D01*
X158752Y4391D02*
X192762Y38401D01*
X126580Y43081D02*
X165271Y4391D01*
X135479Y44958D02*
X176047Y4390D01*
X119809Y150768D02*
X121526Y147204D01*
X118448Y155264D02*
X119546Y151458D01*
X121901Y146568D02*
X124192Y143336D01*
X73986Y135151D02*
X131997Y193162D01*
X79374Y129763D02*
X119120Y169509D01*
X90151Y118987D02*
X120499Y149335D01*
X136146Y134843D02*
X139952Y133742D01*
X131892Y136828D02*
X135459Y135106D01*
X140491Y133623D02*
X142450Y133316D01*
X124667Y142774D02*
X127467Y139972D01*
X128029Y139497D02*
X131258Y137202D01*
X118162Y165346D02*
X119038Y169200D01*
X117839Y160664D02*
X118058Y164607D01*
X117860Y159917D02*
X118304Y155991D01*
X84763Y124375D02*
X118109Y157721D01*
X46768Y165998D02*
X59233Y153534D01*
X84763Y124375D02*
X118109Y157721D01*
X66617Y142521D02*
X95255Y113883D01*
X57822Y151316D02*
X58658Y152151D01*
X52001Y157137D02*
X58376Y150761D01*
X116002Y112509D02*
X137845Y134352D01*
X105225Y112509D02*
X130475Y137759D01*
X99493Y112509D02*
X132865D01*
X95554Y113614D02*
X124691Y142750D01*
X73324Y150218D02*
X111034Y112509D01*
X129777Y83340D02*
X139772D01*
X129938D02*
X131589Y84991D01*
X138121D02*
X139772Y83340D01*
X128126Y84991D02*
X138121D01*
X128126D02*
X129777Y83340D01*
X87045Y102039D02*
X89997Y99088D01*
X69389Y143378D02*
X100257Y112509D01*
X97432Y99469D02*
X107421D01*
X91804Y99088D02*
X92349Y99633D01*
X89997Y99088D02*
X107425D01*
X91287Y99927D02*
X92126Y99088D01*
X45956Y209916D02*
X139391Y116481D01*
X46390Y231034D02*
X117905Y159519D01*
X45956Y199139D02*
X132586Y112509D01*
X-27227Y141701D02*
X19762Y188689D01*
X-19458Y160246D02*
X19762Y199466D01*
X45956Y188363D02*
X121810Y112509D01*
X45956Y177587D02*
X66074Y157469D01*
X-5535Y185973D02*
X19762Y160676D01*
X-13507Y172392D02*
X19762Y139123D01*
X-17297Y165405D02*
X19762Y128347D01*
X-9521Y179182D02*
X19762Y149900D01*
X-20478Y157811D02*
X14151Y123181D01*
X19762Y122441D02*
Y229066D01*
X-31733Y126419D02*
X19762Y177913D01*
X-28063Y139705D02*
X-16519Y167262D01*
X-35697Y111678D02*
X19762Y167137D01*
X18678Y122949D02*
X19762Y124032D01*
X17893Y108663D02*
X19762Y106795D01*
X-23660Y150216D02*
X8782Y117774D01*
X-35322Y113426D02*
X-28063Y139705D01*
X-26842Y142621D02*
X23220Y92560D01*
X-29500Y134503D02*
X100611Y4392D01*
X-34164Y117615D02*
X53951Y29500D01*
X-36282Y108957D02*
X48640Y24034D01*
X-31832Y126059D02*
X89834Y4392D01*
X28596Y85255D02*
X53677Y60174D01*
X-30603Y30562D02*
X26462Y87627D01*
X-26020Y24368D02*
X31731Y82120D01*
X-40097Y91219D02*
X46728Y4394D01*
X-38190Y100088D02*
X57505Y4393D01*
X-38650Y97949D02*
X19762Y156361D01*
X-40325Y90157D02*
X-35322Y113426D01*
X-40872Y84951D02*
X19762Y145584D01*
X-42134Y72912D02*
X19762Y134808D01*
X-41966Y62304D02*
X9028Y113298D01*
X-37864Y44854D02*
X20009Y102727D01*
X19762Y106583D02*
Y109417D01*
X-34568Y37373D02*
X22371Y94312D01*
X-42251Y71798D02*
X-40325Y90157D01*
X-40405Y53089D02*
X15010Y108504D01*
X141032Y74323D02*
X143560D01*
X141753Y73602D02*
X142473Y74323D01*
X141032D02*
X142977Y72377D01*
X87284Y72758D02*
X91432Y68611D01*
X79897D02*
X91432D01*
X132893Y64163D02*
X134544Y62512D01*
X129543D02*
X134544D01*
X127892Y64163D02*
X129543Y62512D01*
X130662D02*
X132313Y64163D01*
X127892D02*
X132893D01*
X85609Y49788D02*
X90827Y55005D01*
X82880Y68611D02*
X87027Y72758D01*
X75610Y72117D02*
X76251Y72758D01*
X86127D02*
X90274Y68611D01*
X75232Y72758D02*
X87284D01*
X75351D02*
X78175Y69934D01*
X82327Y55005D02*
X87735Y49597D01*
X85507Y49795D02*
X86457Y49726D01*
X71551Y55005D02*
X76099Y50457D01*
X136172Y46469D02*
X140150Y50447D01*
X93104Y55005D02*
X143717Y4391D01*
X123438Y43081D02*
X127760D01*
X94096Y4392D02*
X132256Y42553D01*
X83320Y4393D02*
X122170Y43244D01*
X93011Y44321D02*
X132941Y4391D01*
X92585Y45987D02*
X101603Y55005D01*
X115997Y48444D02*
X119891Y44550D01*
X88469Y38087D02*
X122164Y4392D01*
X72544Y4393D02*
X116296Y48145D01*
X79256Y36523D02*
X111388Y4392D01*
X66770Y55005D02*
X111822D01*
X59074Y56706D02*
X72427Y43353D01*
X62197Y26375D02*
X74554Y38733D01*
X54711Y29666D02*
X80050Y55005D01*
X62302Y16763D02*
X62349Y17791D01*
X62289Y15691D02*
X84599Y38001D01*
X49385Y18604D02*
X49562Y16034D01*
X-20849Y18763D02*
X37119Y76732D01*
X-40691Y54125D02*
X-38779Y47207D01*
X-20849Y18763D02*
X37119Y76732D01*
X-42371Y68364D02*
X-41893Y61202D01*
X-42371Y68364D02*
X-42251Y71798D01*
X-41893Y61202D02*
X-40691Y54125D01*
X-29010Y28099D02*
X-24521Y22498D01*
X-32908Y34126D02*
X-29010Y28099D01*
X-24521Y22498D02*
X-19489Y17380D01*
X-38779Y47207D02*
X-36176Y40517D01*
X-32908Y34126D01*
X61768Y4393D02*
X111748Y54374D01*
X29439Y4394D02*
X48528Y23483D01*
X63157Y20294D02*
X79058Y4393D01*
X7887Y4394D02*
X59857Y56364D01*
X-1790Y5493D02*
X53284Y60567D01*
X18663Y4394D02*
X69274Y55005D01*
X62285Y15363D02*
X62302Y16763D01*
X50992Y4393D02*
X55725Y9127D01*
X60989Y11685D02*
X68281Y4393D01*
X40216Y4394D02*
X49804Y13982D01*
X-8755Y9305D02*
X47896Y65956D01*
X-15097Y13739D02*
X42508Y71344D01*
X-41226Y81572D02*
X35952Y4394D01*
X-41787Y60580D02*
X14398Y4394D01*
X-42249Y71818D02*
X25175Y4394D01*
X-8001Y8800D02*
X-1666Y5426D01*
X-13963Y12798D02*
X-8001Y8800D01*
X-1666Y5426D02*
X860Y4395D01*
X-19489Y17380D02*
X-13963Y12798D01*
X-38517Y46534D02*
X3622Y4395D01*
D28*
X50940Y118226D02*
G03*
X58380Y100265I25400J0D01*
G01*
X80658Y93268D02*
G03*
X76315Y95067I-4342J-4342D01*
G01*
X59788Y98856D02*
G03*
X68936Y95067I9148J9148D01*
G01*
X67043Y103369D02*
G03*
X71191Y101650I4148J4148D01*
G01*
X65114Y107164D02*
G03*
X66434Y103977I4507J0D01*
G01*
X168187Y99785D02*
X175936Y108000D01*
X50940Y118226D02*
Y120192D01*
X65114Y107164D02*
Y118499D01*
X166497Y98094D02*
X168187Y99785D01*
X68936Y95067D02*
X76315D01*
X58380Y100265D02*
X59788Y98856D01*
X71191Y101650D02*
X76315D01*
X66434Y103977D02*
X67043Y103369D01*
D29*
X560163Y407188D02*
D03*
D30*
X187431Y386065D02*
D03*
D31*
X56687Y74980D02*
D03*
X65831Y149976D02*
D03*
X278176Y128441D02*
D03*
X40431Y115929D02*
D03*
X74054Y111048D02*
D03*
X68974Y68630D02*
D03*
X16048Y115929D02*
D03*
X362961Y640067D02*
D03*
X303067Y17951D02*
D03*
X79896Y43992D02*
D03*
X55925Y22269D02*
D03*
X283764Y161500D02*
D03*
X158128Y100469D02*
D03*
X175936Y108000D02*
D03*
X175908Y88696D02*
D03*
X47544Y135553D02*
D03*
D32*
X55925Y15410D02*
Y22269D01*
X303067Y17951D02*
X311745D01*
D33*
X371903Y1037717D02*
X375686Y1033934D01*
X387904Y1037898D02*
Y1050553D01*
X383940Y1033934D02*
X387904Y1037898D01*
X375686Y1033934D02*
X383940D01*
X371903Y1037717D02*
Y1050953D01*
X209088Y40810D02*
X480774D01*
X209088Y49193D02*
X407145D01*
X200066Y57495D02*
X322371D01*
X79896Y43992D02*
X87008D01*
X87262Y43738D01*
D34*
X163716Y40182D02*
X182925D01*
X112408D02*
X163716D01*
D35*
X630728Y304716D02*
D03*
X120616Y229279D02*
D03*
X80309Y248582D02*
D03*
X88457Y100634D02*
D03*
X55925Y15410D02*
D03*
X281985Y628567D02*
D03*
X288081Y624319D02*
D03*
X279445Y621963D02*
D03*
X271341Y620185D02*
D03*
X411272Y741088D02*
D03*
X360218Y689527D02*
D03*
X395652Y1072812D02*
D03*
X550346Y464160D02*
D03*
X218058Y465377D02*
D03*
X317507Y641520D02*
D03*
X311703Y636694D02*
D03*
X300273Y637202D02*
D03*
X287508Y274048D02*
D03*
X282566Y266007D02*
D03*
X317507Y274643D02*
D03*
X322508Y279214D02*
D03*
X312507D02*
D03*
X327508Y274932D02*
D03*
X307508D02*
D03*
X297507Y274643D02*
D03*
X292507Y279214D02*
D03*
X302508D02*
D03*
X272507D02*
D03*
X277507Y276034D02*
D03*
X282566Y279336D02*
D03*
X75578Y64772D02*
D03*
X64910Y77266D02*
D03*
X150628Y102199D02*
D03*
X166497Y98094D02*
D03*
X186096Y52161D02*
D03*
X192192Y57495D02*
D03*
X200066D02*
D03*
X113198Y99341D02*
D03*
X130628Y48097D02*
D03*
X145628Y99405D02*
D03*
X141138Y103913D02*
D03*
X135804Y107533D02*
D03*
X117516Y54019D02*
D03*
X168062Y76157D02*
D03*
X87262Y43738D02*
D03*
X168796Y89204D02*
D03*
X283764Y154388D02*
D03*
X372105Y640067D02*
D03*
X79642Y107238D02*
D03*
X82182Y68884D02*
D03*
X171110Y81157D02*
D03*
X399537Y651497D02*
D03*
X354325Y648957D02*
D03*
D36*
X311745Y17951D02*
D03*
X257348Y95626D02*
D03*
X378506Y1018710D02*
D03*
X384602Y1000930D02*
D03*
X381045Y1042714D02*
D03*
X365298Y1000169D02*
D03*
X371089Y992803D02*
D03*
X358947Y993056D02*
D03*
X371903Y1037717D02*
D03*
X407145Y49193D02*
D03*
X480774Y40810D02*
D03*
X182925Y40182D02*
D03*
X322371Y57495D02*
D03*
X109529Y74529D02*
D03*
X153528Y84056D02*
D03*
X143128Y73656D02*
D03*
X132728Y84056D02*
D03*
Y63256D02*
D03*
X153528D02*
D03*
X163716Y40182D02*
D03*
X50940Y120192D02*
D03*
X65114Y118499D02*
D03*
M02*
