M48
;Layer_Color=9474304
;FILE_FORMAT=4:4
METRIC,TZ
;TYPE=PLATED
T1F00S00C0.2000
T2F00S00C0.2540
T3F00S00C0.3048
T4F00S00C0.4000
T6F00S00C0.7100
T7F00S00C2.5400
%
T01
X264160Y64174
Y72174
X335850Y239324
X342350Y232824
X348850Y239324
X342350Y245824
Y262824
X335850Y269324
X348850
X342350Y275824
Y292824
X372350
Y275824
Y262824
X378850Y269074
X365850Y269324
X372350Y245824
X365850Y239324
X372350Y232824
X378850Y239074
X395850Y239324
X408850
X402350Y232824
Y245824
Y262824
X408850Y269324
X402350Y275824
X395850Y269324
X402350Y292824
X408850Y299324
X402350Y305824
X395850Y299324
X378850
X365850
X372350Y305824
X348850Y299324
X342350Y305824
X335850Y299324
T02
X542036Y-29464
X560832
X579628
X598424
X617220
X636016
X654812
X673608
X692404
X711200
X729996
X748030Y-29210
X767334Y-28956
X784606Y-27178
X797052Y-18034
X803910Y-3302
X801370Y12754
X795101Y26670
X787542Y39624
X779983Y52578
X772424Y65532
X764865Y78486
X757306Y91440
X749747Y104394
X742188Y117348
X735046Y129540
X727710Y143256
X720090Y155956
X711454Y171312
X703580Y185420
X694944Y199898
X686562Y213957
X672846Y229108
X670124Y242824
X661924Y257302
X653756Y271938
X644891Y286512
X614426Y263398
X583344Y262730
X592582Y216154
X613156Y215265
X653034Y199898
X655922Y173134
X681228Y171958
X628142Y173990
X606795Y154178
X593598Y154892
X576842Y164324
X563372Y163576
X556741Y122428
X576856Y120396
X569976Y97790
X582930Y96520
X556260Y98806
X543402Y97536
X605536Y88646
X613664Y109220
X616966Y122174
X617776Y134318
X610870Y55880
X611632Y44704
X627380Y45974
Y35052
X627126Y24130
Y13716
X622808Y1778
X653122Y2286
X653288Y-7688
X662886Y-17526
X674370Y3810
X680466Y20828
X679704Y41656
X657860Y36830
X657606Y46736
X657352Y56754
X626872Y56676
X600202Y51054
X600456Y38354
X606298Y29210
X590804Y32766
X590550Y44958
X590296Y56054
X579120Y56388
X573278Y27686
X568960Y15698
X658114Y15382
X657860Y25654
X699782Y32512
X707136Y11684
X741934Y40894
X731266Y60706
X697230Y112389
X541528Y201114
X532130Y185166
X536194Y227584
X521208Y240792
X515112Y235458
X504698Y236982
X497332Y228600
X499364Y220980
X495808Y201168
X470408Y193294
X457200Y193802
X444500Y194056
X419100Y193294
X406400Y159258
X393700Y160854
X383794Y162814
X370343Y170307
X355600Y186182
X346202Y188976
X329946Y185928
X320548Y186182
X315722Y180086
X301244Y185166
X294132Y181102
X281178Y199898
X280849Y215138
X281594Y230378
X279654Y246380
X279360Y258924
X282082Y272542
X283210Y284226
X243332Y278130
X237490Y291338
X228212Y272542
X235712Y250698
X249997Y251714
X262636Y239776
X242824Y228976
X242412Y216101
X244094Y207876
X234442Y190754
X240030Y183642
X247492Y151336
X266446Y149272
X226314Y154432
Y140970
X188062Y168148
X180086Y199898
X154525Y189992
X153416Y120396
X154178Y107442
X144272Y113538
X164592
X175514Y107696
X175006Y120396
X185928Y113792
X181658Y68168
X171196
X157020Y67818
X146558
X151130Y47752
X164084Y57379
X176276Y47752
X193054Y48832
X188722Y58236
X234696Y32004
X259080Y36068
X270256Y36322
X276352Y45212
X263398Y44704
X258318Y52832
X268478Y53086
X269240Y81788
X259842
X306070Y86614
X317500
X311658Y77470
X306832Y68326
X318516Y68580
X312674Y60198
X340614Y58486
X355600Y66217
X407416Y82042
X410210Y91440
X409194Y123520
X408178Y139318
X373939Y135636
X342365Y130048
X343154Y145034
X470154Y161036
X500126Y161290
X505206Y132334
X502412Y113284
X530606Y98044
X526830Y57150
X531622Y28448
X538734Y22606
X518160Y18255
X512318Y14224
X505460Y18796
X499364Y25300
X486156Y31750
X474980Y37084
X480568Y43982
X472186Y51562
X474726Y85187
X472694Y93780
X426972Y71120
X448056Y-29464
X466852
X485648
X504444
X523240
X338328Y-29210
X321068
X303808
X308610Y-18796
X304442Y-11176
X293370Y2794
X280150Y3302
X272034Y18255
X276860Y26416
X265430Y25908
X269288Y-29210
X286548
X250190Y-25654
X234768Y-29210
X217508
X220726Y-15240
X200248Y-29210
X182988
X165728
X148468
X182928Y267208
X165608Y290322
X471678Y288798
X472186Y271526
X473964Y246224
X506576Y292100
X538162Y141732
X133604Y120396
X134112Y107442
X112196Y104648
X112522Y87492
Y71374
X112776Y55118
X113030Y38608
X113284Y24130
X113948Y3216
X114808Y-11430
X113948Y-29210
X131208
X139446Y57029
X131066Y68580
X72046Y65278
X50800Y65484
X36785Y66802
X32573Y105156
X50038Y104902
X67503Y104648
X40132Y118110
X47274Y130302
X54610Y144018
X62230Y156718
X70866Y172074
X78740Y186182
X87376Y200660
X95758Y214719
X103886Y228824
X112196Y243586
X120396Y258064
X128564Y272700
X137430Y287274
X117094Y213106
X122174Y178562
X63754Y17449
X65278Y5725
X48001Y-2616
X28911Y28956
X146983Y304280
X156718Y322072
X166781Y338836
X175943Y354330
X184404Y369062
X201422
X218948
X234696
X252222
X268478
X282702Y364998
X278384Y340614
X282194Y322424
X283972Y311890
X283464Y298450
X241554Y304546
X247492Y311404
X248714Y325567
X185674Y301244
X312166Y354330
X342852Y356362
X381000Y355854
X393700
X406400Y354838
X492760Y364744
X503428Y369062
X504444Y356870
X517398Y369062
X531830
X538734Y357124
X523555Y310388
X496824Y322072
X473202Y309724
X473964Y297434
X556830Y328676
X563880Y335026
X570738Y341122
X557530Y347376
X564642Y368554
X580390Y368808
X597916Y368300
X606377Y353568
X615539Y338074
X625602Y321310
X635337Y303518
X548737Y368808
T03
X210058Y304534
T04
X365636Y41832
X373636
X381636
X377636Y48832
X369636
X361636
X385636
X393636
X401636
X409636
X417636
X413636Y41832
X405636
X397636
T06
X669290Y86868
X681990
Y99568
Y112268
Y124968
Y137668
X669290
Y124968
Y112268
Y99568
X554482Y242824
X541782
Y255524
Y268224
Y280924
Y293624
X554482
Y280924
Y268224
Y255524
T07
X746506Y12446
X80010Y137414
X391121Y640588
M30
